<svg width="405" height="62" viewBox="0 0 405 62" fill="none" xmlns="http://www.w3.org/2000/svg">
<path d="M405 28.2636C379.614 26.5571 354.222 24.8569 328.829 23.1505C328.723 24.2154 329.263 24.3026 329.835 24.3462C332.822 24.5766 335.814 24.7822 338.8 25.0375C342.107 25.324 345.408 25.6665 348.708 25.9717C349.727 26.0651 350.758 26.0962 351.776 26.1834C352.348 26.2333 352.908 26.3329 353.455 26.6381C339.486 27.074 325.611 25.3115 311.629 25.2181C312.421 25.4423 313.213 25.6728 313.955 25.8845C314.156 26.7689 313.722 26.9183 313.062 26.9059C310.46 26.8685 307.857 26.881 305.26 26.8187C301.903 26.7315 298.546 26.5135 295.189 26.4948C293.498 26.4886 291.8 26.9308 290.109 26.9121C289.154 26.9059 288.204 26.3765 287.255 26.0713C287.004 25.9904 286.702 25.7163 286.538 25.7911C284.979 26.4761 283.477 25.5856 281.936 25.6852C280.377 25.7849 278.793 25.5856 277.221 25.6105C275.895 25.6292 274.568 26.3267 273.236 25.6416C273.06 25.5544 272.896 25.4423 272.55 25.2368C273.072 24.8631 273.5 24.5517 274.241 24.0224C271.852 23.3311 269.778 23.6611 267.628 24.0846C268.86 24.5393 270.092 25.0001 271.368 25.4672C271.192 26.0527 271.035 26.582 270.84 27.2235C271.469 27.373 271.959 27.4851 272.456 27.6034C272.462 27.6844 272.469 27.7653 272.481 27.8525C271.708 27.9459 270.935 28.0393 270.161 28.139C270.161 28.3134 270.155 28.4815 270.149 28.6559C271.513 28.849 272.884 29.0358 274.248 29.2413C275.455 29.4219 276.649 29.6711 277.856 29.8081C278.781 29.9139 279.724 29.8703 280.654 29.9202C282.006 29.9949 283.351 30.1381 284.703 30.1755C288.123 30.2689 291.543 30.2565 294.956 30.4122C298.376 30.5679 301.79 30.8606 305.198 31.1222C312.974 31.7263 320.745 32.3677 328.521 32.9531C337.122 33.6008 345.722 34.1925 354.322 34.834C363.608 35.5253 372.9 36.1979 382.179 36.9826C387.359 37.4185 392.521 38.0662 397.688 38.6268C398.191 38.6828 398.688 38.8385 399.229 38.9568C399.097 39.2433 399.046 39.4488 398.996 39.4488C396.607 39.4488 394.218 39.4924 391.836 39.399C389.792 39.318 387.736 39.1935 385.718 38.8821C378.206 37.705 370.655 36.995 363.048 36.7833C359.578 36.6837 356.12 36.3287 352.656 36.1605C351.676 36.1107 350.638 36.5342 349.708 36.3473C348.564 36.1169 347.476 36.5342 346.225 36.0609C344.66 35.463 342.755 35.7495 340.994 35.6747C332.796 35.3384 324.605 35.0519 316.407 34.6596C311.415 34.4229 306.442 33.9247 301.451 33.7503C298.961 33.6631 296.453 34.0555 293.957 34.2174C293.41 34.2548 292.863 34.2299 292.31 34.2299C287.18 34.2299 282.075 33.7441 276.957 33.5137C273.072 33.3393 269.168 33.4887 265.27 33.495C261.637 33.495 258.009 33.5199 254.375 33.5074C249.522 33.495 244.668 33.4514 239.815 33.4389C239.224 33.4389 238.639 33.5386 237.979 33.9808C238.35 34.124 238.715 34.3731 239.092 34.3918C244.002 34.6409 248.912 34.8589 253.822 35.0831C258.424 35.2948 263.026 35.4941 267.628 35.7183C271.557 35.9052 275.486 36.1231 279.415 36.31C285.363 36.5965 291.304 36.8892 297.251 37.1321C299.074 37.2068 300.916 37.0262 302.739 37.1445C304.858 37.2815 306.964 37.6241 309.076 37.8732C309.064 38.0102 309.051 38.1534 309.039 38.2904C305.682 38.141 302.324 37.9915 298.967 37.8483C298.955 37.923 298.948 37.9915 298.942 38.06C299.948 38.3839 300.929 38.8198 301.96 39.0004C303.016 39.1873 304.116 39.125 305.191 39.1623C306.354 39.1997 307.517 39.2309 308.68 39.2682C309.774 39.3056 310.868 39.399 311.962 39.3616C313.05 39.3243 314.225 40.0529 315.483 38.8572C314.527 38.7264 313.785 38.6268 312.899 38.5084C313.119 38.2219 313.219 37.9728 313.333 37.9666C317.4 37.7362 321.468 37.842 325.497 38.415C327.71 38.7326 329.879 39.343 332.149 38.9381C335.148 39.9969 338.385 39.3056 341.642 40.4017C334.991 40.5138 328.616 39.4488 322.21 39.318C322.184 39.5049 322.165 39.6917 322.14 39.8786C323.674 40.109 325.215 40.3456 326.749 40.5761C326.736 40.6757 326.723 40.7816 326.717 40.8875C321.769 40.5823 316.822 40.2834 311.522 39.9595C312.258 41.0494 313.069 40.8439 313.716 40.8999C319.016 41.367 324.322 41.8154 329.628 42.2202C335.022 42.6313 340.416 42.9987 345.816 43.3537C350.324 43.6527 354.838 43.8893 359.345 44.1758C359.874 44.2132 360.395 44.3813 360.949 44.8982C360.358 44.9418 359.76 45.0477 359.169 45.0228C356.384 44.8858 353.593 44.7363 350.808 44.5557C347.941 44.3689 345.081 44.1197 342.22 43.9205C339.027 43.6962 335.833 43.5156 332.639 43.2852C329.584 43.0672 326.535 42.7745 323.473 42.569C313.766 41.9338 304.066 41.311 294.334 41.1677C289.349 41.093 284.369 40.7629 279.384 40.6072C277.177 40.5387 274.971 40.5948 272.638 40.5948C273.16 41.3297 273.908 41.1553 274.518 41.1802C277.793 41.311 281.069 41.367 284.344 41.4916C289.543 41.6909 294.743 41.8777 299.935 42.1455C306.631 42.488 313.326 42.8742 320.015 43.2852C323.492 43.497 326.962 43.7959 330.439 44.0699C330.835 44.1011 331.388 44.0824 331.596 44.319C332.545 45.3965 333.815 45.2594 335.022 45.3404C336.795 45.465 338.574 45.5272 340.347 45.6456C340.561 45.658 340.768 45.8324 341.315 46.0815C339.335 46.8102 337.656 46.4863 336.015 46.4427C333.985 46.3929 331.967 46.1749 329.936 46.1376C325.774 46.0628 321.612 46.15 317.457 46.0006C313.986 45.8822 310.529 45.4837 307.058 45.2781C302.664 45.0228 298.27 44.7924 293.869 44.6491C290.87 44.5495 287.865 44.6429 284.866 44.5931C282.062 44.5495 279.258 44.4249 276.454 44.3564C273.852 44.2941 271.249 44.2754 268.653 44.2007C266.823 44.1509 264.987 44.1197 263.164 43.9391C260.486 43.6713 257.852 44.0263 255.211 44.3315C254.677 44.3938 254.092 44.4561 253.596 44.3066C250.521 43.4098 247.353 43.5779 244.216 43.4783C241.626 43.3973 239.023 43.5094 236.433 43.5592C235.842 43.5717 235.257 43.6838 234.616 44.0388C234.943 44.1571 235.27 44.3004 235.603 44.3875C236.785 44.674 237.967 44.9543 239.155 45.1972C239.614 45.2906 240.092 45.2906 240.557 45.3093C244.184 45.4214 247.806 45.521 251.433 45.6269C251.571 45.6269 251.71 45.6643 251.842 45.6518C255.469 45.1598 259.021 46.1064 262.617 46.2185C265.817 46.3182 268.992 46.9098 272.192 47.159C274.631 47.352 277.096 47.3458 279.541 47.433C283.238 47.5638 286.928 47.6634 290.625 47.8316C300.13 48.2675 309.636 48.6972 319.142 49.2079C322.901 49.4072 326.654 49.8183 330.407 50.1421C330.646 50.1608 330.873 50.2791 331.137 50.7275C330.439 50.8272 329.741 51.014 329.043 51.0202C326.862 51.0389 324.674 51.0701 322.499 50.9393C320.242 50.8085 317.985 50.5469 315.747 50.248C310.799 49.5878 305.82 49.2515 300.847 49.5255C299.319 49.6127 297.829 49.1021 296.333 49.5131C293.806 48.4108 291.134 49.0896 288.538 48.9214C285.947 48.7533 283.338 48.8031 280.742 48.8093C275.914 48.828 271.092 48.7408 266.264 48.5291C265.49 48.4979 264.711 48.5727 263.755 48.6038C264.271 49.7124 265.056 49.5131 265.66 49.5442C268.187 49.6875 270.721 49.7435 273.254 49.8619C282.15 50.2667 291.046 50.7151 299.948 51.0701C301.325 51.1261 301.985 51.9793 302.62 52.6831C304.82 52.9197 306.851 53.1439 309.252 53.4055C307.869 54.5826 306.562 53.7854 305.33 54.103C305.286 54.4331 305.235 54.8068 305.16 55.3424C289.411 55.0497 273.644 54.7507 257.682 54.458C257.588 54.6822 257.418 55.087 257.242 55.4981C257.475 55.5728 257.651 55.6725 257.682 55.6351C258.286 54.95 259.065 55.1867 259.801 55.2427C264.346 55.5915 268.898 55.9403 273.443 56.3202C275.467 56.4883 277.485 56.7997 279.51 56.9367C280.365 56.9928 281.245 56.6938 282.106 56.6938C284.979 56.6938 287.852 56.7437 290.719 56.7748C290.788 56.7748 290.857 56.7686 290.927 56.7748C292.322 57.0551 293.592 56.0337 295.189 56.8059C296.471 57.4287 298.27 57.0239 299.835 57.0862C301.337 57.1423 302.84 57.217 304.343 57.2855C305.839 57.354 307.398 57.2108 308.812 57.5844C309.768 57.8398 310.786 57.4163 311.792 58.2446C312.471 58.7989 313.949 58.8113 314.992 57.9083C315.458 57.5035 316.269 56.8122 316.621 58.1512C316.639 58.2259 316.973 58.3131 317.004 58.2695C318.029 57.0364 318.739 58.4937 319.783 58.5684C320.034 58.1574 320.317 57.6778 320.663 57.1049C322.008 57.3104 323.354 57.4412 324.737 57.9332C326.478 58.556 328.433 58.6245 330.301 58.8425C331.577 58.9919 332.866 58.9608 334.148 59.0604C335.581 59.1725 337.015 59.3345 338.448 59.4715C343.126 59.9137 347.797 60.3558 352.474 60.798C354.561 60.9973 356.642 61.2153 358.729 61.5267C357.239 61.5267 355.749 61.5827 354.266 61.5142C348.991 61.2713 343.723 61.0035 338.455 60.7108C332.444 60.3807 326.434 59.9323 320.418 59.6894C314.263 59.4403 308.102 59.3905 301.947 59.2161C297.98 59.104 294.02 58.9172 290.059 58.7989C287.186 58.7117 284.313 58.6868 281.446 58.6183C272.481 58.4127 263.523 58.1574 254.558 58.0204C250.05 57.9519 245.536 58.0764 241.028 58.1449C235.15 58.2321 229.266 58.3629 223.388 58.4501C217.742 58.5311 212.103 58.5933 206.458 58.6307C200.837 58.6681 195.223 58.6432 189.603 58.6681C180.085 58.7179 170.566 58.7428 161.042 58.8674C156.735 58.9234 152.429 59.241 148.123 59.3469C141.408 59.5026 134.694 59.6023 127.986 59.6832C119.631 59.7766 111.276 59.7766 102.927 59.9199C97.5329 60.0133 92.1452 60.3372 86.7574 60.4679C80.4015 60.6174 74.0393 60.798 67.6834 60.7357C59.9444 60.6672 52.2116 60.3994 44.4789 60.1379C40.097 59.9884 35.7214 59.6645 31.3458 59.4403C29.1015 59.322 26.9954 59.6272 25.1848 61.1592C24.6819 61.589 23.896 61.6948 23.1039 62C22.9404 60.5115 24.4744 60.5178 24.6881 59.3158C22.5884 59.0667 20.5012 58.7864 18.4265 58.8923C15.0882 59.0604 11.75 59.1539 8.44313 59.9199C6.28677 60.4181 3.9921 60.3434 1.41452 60.5551C1.94261 60.1752 2.25066 59.951 2.72217 59.6085C1.79173 58.9732 0.974449 58.4252 0 57.7588C0.987023 57.1983 1.87346 56.7935 2.06206 55.6351C2.14379 55.1369 2.74103 54.6262 3.2314 54.3023C4.53276 53.4491 5.62666 52.5274 5.59522 50.8085C5.59522 50.659 5.83412 50.5033 5.92214 50.3974C5.07971 49.0958 4.26243 47.8316 3.45772 46.5984C4.67107 46.094 5.65181 45.6892 6.56339 45.3155C6.52567 43.4471 6.99089 41.5352 4.22471 41.367C5.23688 40.0218 3.44515 38.4773 5.24945 37.213C4.09897 36.7895 3.23769 36.4719 2.25695 36.1107C2.53985 35.6685 2.70331 35.1827 3.0428 34.9149C3.67147 34.4105 3.8475 33.9372 3.54574 33.1524C3.40743 32.7912 3.70919 32.2805 3.72805 31.8321C3.74063 31.3962 3.78464 30.8668 3.5646 30.543C2.62787 29.1853 2.63416 28.7618 3.8475 27.8027C4.11155 27.5909 4.50761 27.4975 4.68993 27.2422C4.99169 26.8249 5.49464 26.1149 5.35004 25.8907C4.55162 24.6638 5.21173 23.2563 4.7025 22.0294C4.40074 21.307 4.11155 20.5783 3.75949 19.7251C3.96066 18.9093 5.13629 18.0934 4.14298 16.8977C3.96695 16.6859 4.4196 15.9386 4.62706 15.4528C4.91625 14.7802 5.22431 14.1076 5.57008 13.4599C5.96614 12.7125 5.86556 12.1645 4.97283 12.0025C5.75239 9.86639 6.94059 8.31564 8.87063 7.35032C10.1783 6.69639 11.1842 5.68748 11.9197 4.42322C12.8627 2.82265 14.359 2.16249 16.1381 1.97566C18.3825 1.739 20.6206 1.45252 22.8713 1.29682C29.4849 0.823499 36.0986 0.225622 42.7186 0.020102C46.8742 -0.104456 51.0549 0.381319 55.223 0.611751C58.0143 0.76122 60.7994 0.991652 63.5907 1.0913C66.7278 1.2034 69.8712 1.29059 73.0083 1.25322C77.5222 1.2034 82.036 0.960512 86.5562 0.929373C89.9008 0.904461 93.2705 0.580611 96.5711 1.52102C97.2815 1.72031 98.061 1.72031 98.8092 1.73277C106.617 1.89469 114.432 2.03171 122.24 2.19363C126.804 2.29328 131.381 2.69186 135.926 2.4552C138.793 2.30574 141.635 2.91607 144.451 2.48634C147.11 2.08776 149.694 2.42406 152.31 2.69809C153.831 2.86002 155.403 3.02194 156.88 2.77905C157.578 2.66695 158.408 2.48012 159.156 2.19363C159.986 1.87601 161.067 2.21854 162.041 2.26837C163.06 2.32442 164.085 2.41784 165.103 2.41161C166.103 2.40538 167.109 2.20609 168.102 2.24346C168.957 2.2746 169.806 2.54862 170.661 2.64827C171.214 2.71055 171.78 2.66072 172.396 2.66072C172.735 2.86624 173.188 3.29597 173.71 3.40807C174.194 3.50772 174.766 3.3707 174.986 2.67318C175.275 1.76391 175.916 1.65804 176.778 2.03794C180.33 3.63227 184.146 2.89116 187.868 3.44544C188.088 2.87247 188.245 2.46143 188.44 1.94452C188.804 2.05662 189.326 2.08776 189.383 2.26214C190.106 4.46058 191.992 3.54508 193.425 3.73815C193.991 3.81288 194.607 3.5264 195.556 3.33334C194.852 2.98457 194.406 2.76037 193.903 2.51748C195.286 1.88847 195.82 2.05662 197.191 3.57C197.493 3.23369 197.775 2.90984 198.065 2.57976C198.197 2.56731 198.366 2.49257 198.461 2.54239C201.239 4.05577 204.307 3.12159 207.218 3.5264C208.557 3.71324 209.953 3.81288 211.292 3.65719C212.172 3.55754 212.732 4.9775 213.65 4.00595C215.454 5.05846 217.384 3.98104 219.283 4.34848C220.967 4.67856 222.753 4.4419 224.513 4.64742C226.921 4.92145 229.379 4.72215 231.818 4.77198C236.867 4.87162 241.909 5.02732 246.957 5.12074C252.143 5.21416 257.336 5.18924 262.523 5.33871C266.012 5.44459 269.489 5.79958 272.972 5.98019C275.159 6.09852 277.353 6.11097 279.541 6.16079C281.176 6.19816 282.804 6.21685 284.439 6.26667C286.614 6.33518 288.789 6.47842 290.964 6.48464C291.543 6.48464 292.127 6.09852 292.794 5.85563C292.901 6.74622 293.781 6.57184 294.548 6.59675C297.276 6.69017 300.005 6.7213 302.733 6.877C308.8 7.22576 314.867 7.49356 320.908 8.33433C326.051 9.05053 331.288 9.0879 336.48 9.47403C339.555 9.69823 342.616 10.0096 345.684 10.2961C346.087 10.3335 346.627 10.3148 346.854 10.5515C348.482 12.2703 350.638 11.6538 352.593 11.9216C353.348 12.0212 354.109 12.0835 354.838 12.4946C354.668 12.5506 354.492 12.6502 354.322 12.6502C346.992 12.6627 339.662 12.7561 332.356 11.8967C329.439 11.5541 326.441 11.2303 323.549 11.5541C318.632 12.096 313.716 11.3362 308.768 12.1832C309.359 12.2828 309.95 12.4323 310.548 12.4821C314.848 12.8433 319.148 13.1672 323.448 13.5533C324.366 13.6343 325.328 13.7837 326.164 14.1449C327.302 14.6307 328.333 14.749 329.515 14.3006C329.923 14.1449 330.539 14.6369 331.042 14.5933C336.449 14.1636 341.617 16.0943 346.992 16.113C350.311 16.1254 353.625 16.7482 356.944 17.097L357 17.0347C356.397 17.4706 355.856 17.8381 354.976 17.726C353.367 17.5142 351.726 17.5018 350.098 17.4457C349.048 17.4084 347.998 17.4395 346.942 17.6886C351.028 18.6913 355.265 18.3674 359.345 19.3265C343.289 18.4297 327.27 17.1219 311.227 16.1316C311.214 16.306 311.195 16.4866 311.176 16.661C314.647 16.9724 318.117 17.29 321.719 17.6139C321.939 18.0498 322.191 18.5543 322.474 19.1272C322.304 19.2144 322.134 19.3826 321.977 19.3764C319.041 19.2643 316.105 19.1335 313.169 19.0027C311.673 18.9404 310.177 18.8594 308.674 18.8034C299.47 18.4484 290.266 18.0685 281.063 17.7571C277.548 17.6388 274.021 17.7322 270.507 17.6512C267.515 17.5827 264.522 17.3398 261.53 17.2962C256.167 17.2091 250.798 17.2028 245.435 17.1904C237.634 17.1717 229.832 17.1966 222.03 17.1655C215.391 17.1406 208.758 17.0222 202.12 17.0222C200.611 17.0222 199.108 17.3274 197.618 17.8817C199.548 17.9315 201.478 18.0249 203.402 18.0249C210.519 18.0311 217.642 17.9253 224.758 18.0187C234.666 18.1495 244.568 18.4173 254.476 18.629C264.937 18.8532 275.405 19.0401 285.866 19.3141C290.725 19.4449 295.572 19.7687 300.432 19.9805C303.513 20.1113 306.593 20.1362 309.667 20.3168C315.275 20.6406 320.877 21.0268 326.478 21.4004C334.129 21.9111 341.78 22.4343 349.431 22.9699C352.713 23.2003 355.988 23.4805 359.264 23.711C363.432 24.0037 367.606 24.1967 371.768 24.558C376.471 24.9628 381.154 25.5233 385.85 25.9841C389.176 26.308 392.514 26.5758 395.84 26.8872C398.556 27.1425 401.266 27.4041 403.975 27.7093C404.315 27.7466 404.623 28.0892 404.943 28.2885L404.981 28.2449L405 28.2636ZM271.324 37.4746C271.035 37.3189 270.752 37.1632 270.463 37.0013C270.425 37.2255 270.381 37.4559 270.344 37.6801C270.689 37.5867 271.029 37.4995 271.375 37.4061C271.984 37.7984 272.588 38.2468 273.33 37.5556C272.638 36.5529 271.972 37.568 271.324 37.4746ZM229.165 34.1302C230.152 34.2423 231.177 34.5662 232.114 34.4042C232.963 34.2548 234.138 34.8153 234.899 33.4452C233.195 33.4452 231.718 33.4016 230.24 33.4763C229.876 33.495 229.536 33.9122 229.172 34.1364C228.405 33.8126 227.644 33.0528 226.563 34.2735C227.631 34.2112 228.398 34.1676 229.165 34.124V34.1302ZM292.769 21.718C293.378 22.0294 293.592 22.235 293.8 22.2287C294.906 22.2225 296.025 22.0419 297.119 22.1415C299.81 22.3907 302.482 22.8391 305.179 23.0508C307.285 23.2127 309.416 23.0072 311.516 23.2065C313.603 23.4058 315.659 22.565 317.752 23.1878C318.645 23.4556 319.619 23.4868 320.569 23.5428C320.971 23.5677 321.386 23.3933 322.096 23.2501C319.909 22.3035 311.44 21.662 297.176 21.3008C295.868 21.2696 294.491 20.8711 292.769 21.7118V21.718ZM273.801 10.3895C273.374 10.1716 273.072 9.87261 272.827 9.91621C270.3 10.3459 267.86 9.44289 265.358 9.48026C263.101 9.51762 260.844 9.43043 258.581 9.39307C257.833 9.38061 257.154 9.5114 256.67 10.1404C256.808 10.2899 256.859 10.3771 256.903 10.3771C261.178 10.62 265.446 10.9002 269.721 11.0559C271.01 11.1057 272.425 11.4234 273.795 10.3895H273.801ZM245.574 54.2712C245.995 54.6698 246.209 55.0497 246.46 55.0746C249.151 55.3362 251.848 55.579 254.545 55.7347C255.293 55.7783 255.664 55.305 255.174 54.265H245.58L245.574 54.2712ZM269.608 37.2504C268.986 37.1071 268.495 36.9016 267.999 36.8954C264.868 36.8207 261.737 36.7833 258.613 36.7522C258.437 36.7522 258.254 36.8705 258.072 36.9328C258.141 37.1009 258.21 37.2628 258.279 37.431C261.341 37.6303 264.409 37.8358 267.471 38.0102C268.005 38.0413 268.552 37.9728 269.08 37.8856C269.225 37.8607 269.331 37.5991 269.608 37.2566V37.2504ZM261.586 20.5161C262.674 21.6744 264.044 21.3631 265.333 21.5063C266.634 21.6558 267.93 21.8613 269.206 22.0419C269.696 21.2074 269.759 20.5597 268.703 20.5347C266.333 20.4725 263.963 20.5161 261.586 20.5161ZM229.624 20.2607C231.133 21.3444 232.736 20.541 234.195 20.7963C235.603 21.0454 237.093 20.8524 238.545 20.8524C236.854 19.8372 231.787 19.6317 229.618 20.267L229.624 20.2607ZM264.717 40.3892C262.322 39.3056 260.26 39.4924 258.034 40.1775C259.424 40.9248 262.309 41.0369 264.717 40.3892ZM251.867 26.5197C250.528 25.6416 248.962 25.5295 247.548 26.2084C248.51 27.2733 250.163 27.3979 251.867 26.5197ZM287.683 38.1659C286.249 37.3064 284.08 37.3563 282.949 38.1659H287.683ZM229.75 43.4845C231.278 44.1633 231.649 44.1571 233.164 43.4845H229.75ZM249.402 20.1299C249.396 20.3479 249.39 20.5721 249.384 20.7901C250.465 20.8773 251.546 20.9645 252.634 21.0517C252.646 20.8648 252.665 20.6718 252.684 20.4849C251.59 20.3666 250.503 20.2483 249.409 20.1299H249.402ZM322.706 23.5926C323.461 23.767 323.901 23.8791 324.347 23.9414C324.378 23.9414 324.592 23.4307 324.504 23.2937C324.114 22.6585 323.618 22.6211 322.706 23.5989V23.5926ZM293.353 38.5333C294.038 38.3403 294.453 38.2219 295.277 37.9853C294.296 37.6614 293.806 37.5057 293.353 38.5333ZM271.199 40.7505C271.199 40.6757 271.205 40.601 271.211 40.52H269.067V40.7505H271.199ZM342.151 17.3087C342.151 17.3834 342.157 17.4582 342.164 17.5329H343.735C343.735 17.4582 343.735 17.3834 343.729 17.3087H342.151ZM253.835 27.3543C253.747 26.6194 253.363 26.3703 252.609 26.6879C253.017 26.9121 253.426 27.1363 253.835 27.3543ZM265.534 40.4577C265.559 40.6072 265.585 40.7567 265.616 40.8999C266.125 40.5699 266.792 41.093 267.559 40.2896C266.66 40.3643 266.1 40.4079 265.534 40.4577ZM226.009 33.8624C225.701 33.7316 225.532 33.5946 225.381 33.6071C225.242 33.6195 225.123 33.8001 224.991 33.906C225.142 33.9932 225.293 34.1427 225.456 34.1551C225.594 34.1614 225.739 34.0119 226.009 33.8624Z" fill="#C3E098"/>
</svg>
