<svg width="264" height="62" viewBox="0 0 264 62" fill="none" xmlns="http://www.w3.org/2000/svg">
<path d="M35.8491 38.787C31.9568 39.1217 28.0645 39.514 24.1665 39.7736C22.6726 39.8717 21.1672 39.7505 19.7705 38.8447C19.4385 38.6313 18.9863 38.712 18.5914 38.6486C15.9183 38.1986 13.2509 37.7485 10.5779 37.2927C10.5779 37.1543 10.5779 37.0216 10.5721 36.8831C10.8183 36.8139 11.0701 36.6639 11.3048 36.687C12.4954 36.8139 13.686 36.987 14.8765 37.1485C15.9526 37.2927 16.8914 36.8081 17.8129 35.9427C16.2675 35.8735 14.7163 35.8619 13.1765 35.7234C11.6024 35.5792 10.0398 35.3023 8.46572 34.9273C9.559 34.0503 11.0014 35.06 12.1577 33.6234C11.6826 33.2253 11.2991 32.9022 10.887 32.556C11.1159 32.3368 11.3277 32.1291 11.6998 31.7714C11.1274 31.5867 10.6923 31.4425 10.2344 31.2925C10.7496 30.5078 10.7496 30.5367 13.457 29.9424C14.5732 29.6943 15.6722 29.2905 17.0803 28.8693C16.0614 28.0962 15.2715 28.0443 14.4587 28.2981C13.892 28.477 13.354 28.7828 12.7873 28.927C12.2378 29.0712 11.6654 29.1174 11.0987 29.1636C8.84923 29.3424 6.59399 29.5443 4.43034 28.4424C4.26434 28.3558 4.13269 28.1539 3.73774 27.7558C6.29062 27.2827 8.5802 26.8615 10.8698 26.4404C9.59906 25.5346 8.294 26.3827 6.82295 26.1C7.52699 25.1884 8.25966 24.6691 9.11825 24.3864C10.5378 23.9133 10.5378 23.9076 12.2664 21.9344C11.3792 21.8998 10.6465 21.9863 9.95967 21.8075C9.28997 21.6344 8.66606 21.1901 7.94484 20.8267C8.1509 20.1286 8.33407 19.5055 8.59165 18.6227C8.05932 18.79 7.65865 18.8189 7.3381 19.0266C6.1189 19.817 6.12463 19.8401 5.28321 18.5766C5.92429 16.4246 7.65865 16.1303 8.98088 14.8726C8.58593 14.838 8.19097 14.7976 7.70444 14.7572C7.56706 14.3187 7.40679 13.8052 7.21218 13.1937C8.79199 12.1955 10.555 11.959 12.5126 11.5667C11.425 10.2858 10.3146 10.9493 9.05529 10.5859C9.68492 10.2685 10.0284 10.107 10.3718 9.92236C14.3614 7.72996 18.6086 6.853 22.8729 6.03951C28.6655 4.93177 34.4582 3.77787 40.2623 2.76245C44.7727 1.97203 49.2947 1.28546 53.8681 1.19892C56.1634 1.15276 58.4587 0.743131 60.754 0.564277C61.7843 0.483504 62.7917 0.379654 63.8564 0.737361C64.8295 1.07199 65.9285 0.881598 66.9702 0.85852C69.4659 0.800825 71.9558 0.864289 74.44 0.385423C76.0484 0.0738715 77.6683 -0.24345 79.3339 0.275803C80.1754 0.541199 81.1255 0.229647 82.0242 0.2008C82.608 0.183491 83.1919 0.2008 83.8387 0.506582C83.3579 0.714283 82.8713 0.921984 82.299 1.1643C82.4936 1.38931 82.5851 1.59701 82.6824 1.59701C86.2256 1.64317 89.7687 1.68932 93.3118 1.69509C96.1624 1.69509 99.0186 1.69509 101.869 1.62586C104.662 1.5624 107.45 1.37777 110.243 1.32585C113.042 1.26815 115.841 1.33162 118.635 1.297C121.519 1.25661 124.404 1.14699 127.289 1.09507C129.791 1.04891 132.298 0.950831 134.793 1.03737C137.489 1.12969 140.185 1.53932 142.881 1.59124C149.544 1.72971 156.207 1.71817 162.875 1.81048C168.439 1.88549 173.997 2.02972 179.56 2.11627C182.165 2.15665 184.769 2.13357 187.373 2.16242C187.809 2.16242 188.329 2.12203 188.656 2.3932C188.879 2.57782 188.816 3.27593 188.93 3.72595C188.976 3.91057 189.171 4.03173 189.285 4.16443C187.814 4.33174 186.383 4.49329 184.947 4.66637C184.7 4.69522 184.408 4.67791 184.22 4.83946C182.989 5.90104 181.644 5.49718 180.31 5.42794C179.4 5.37602 178.473 5.22601 177.62 5.95873C177.374 6.17221 176.893 6.00489 176.527 5.9472C175.771 5.82604 175.021 5.62987 174.266 5.52602C173.573 5.43371 173.253 5.90104 173.27 6.95108C173.876 7.03186 174.506 7.17032 175.13 7.18186C181.289 7.27994 187.454 7.31456 193.613 7.4588C198.02 7.56265 202.422 7.81074 206.823 7.96651C213.48 8.20306 220.137 8.45692 226.794 8.64154C231.351 8.76847 235.913 8.78578 240.469 8.86655C240.692 8.86655 240.921 8.98194 241.287 9.08579C240.744 10.5339 239.685 9.68005 238.786 10.3782C240.389 11.0128 241.854 10.4589 243.285 10.9609C242.999 11.0416 242.718 11.1686 242.432 11.1974C240.44 11.382 238.443 11.532 236.451 11.7282C235.81 11.7917 235.174 12.0051 234.533 12.1148C233.594 12.2763 232.656 12.484 231.705 12.5359C227.058 12.7725 222.404 12.9571 217.756 13.1821C217.378 13.1994 217.001 13.361 216.365 13.5167C217.419 14.3245 218.317 13.9898 219.159 14.0245C223.457 14.2206 227.756 14.3418 232.049 14.5495C232.501 14.5726 233.068 14.8495 233.365 15.2591C233.909 15.9976 234.504 16.1015 235.231 16.0611C236.079 16.0092 236.931 16.0899 237.784 16.1303C238.082 16.1419 238.454 16.0669 238.672 16.2515C239.914 17.3015 241.356 17.1977 242.718 17.2669C244.138 17.3361 245.5 17.5323 246.685 18.5131C247.286 19.0093 247.876 19.0381 248.534 19.0612C251.087 19.1593 253.634 19.3035 256.187 19.4362C256.324 19.442 256.456 19.517 256.593 19.7593C254.681 19.8632 252.77 19.9209 250.864 20.0997C250.251 20.1574 249.661 20.5555 249.049 20.769C248.442 20.9824 247.83 21.2651 247.206 21.3228C246.342 21.4094 245.678 21.744 245.168 23.0191C245.844 23.146 246.405 23.2729 246.966 23.3537C247.899 23.4979 248.791 23.2729 249.679 24.2884C250.268 24.9634 251.47 24.8884 252.403 24.9634C254.183 25.0961 255.969 25.1595 257.755 25.1134C258.682 25.0903 259.604 24.7845 260.594 24.5999C260.434 24.1845 260.342 23.9364 260.216 23.6076C261.51 23.5152 262.752 23.4345 264 23.3479C263.353 23.4806 262.867 23.8153 262.472 24.5364C262.254 24.9288 261.75 25.0788 261.361 25.2922C261.235 25.3615 261.064 25.2692 260.915 25.298C259.003 25.6499 257.034 25.2172 255.139 26.1461C254.304 26.5558 253.268 26.3481 252.323 26.3942C252.077 26.4057 251.802 26.2442 251.579 26.3307C249.324 27.15 246.885 26.3365 244.676 27.5539C244.602 27.5943 244.573 27.75 244.436 28.027C244.842 28.0962 245.214 28.102 245.552 28.2231C248.872 29.4116 252.249 29.3713 255.649 29.0482C256.244 28.9905 256.845 29.0424 257.486 29.2789C257.189 29.3828 256.897 29.5674 256.593 29.5847C253.897 29.7463 251.236 30.2828 248.505 30.0578C246.634 29.9021 244.722 30.4502 242.833 30.6579C240.44 30.9175 238.048 31.1425 235.655 31.4021C235.105 31.4598 234.55 31.5175 234.024 31.6906C233.509 31.8579 232.965 32.1002 232.93 33.2483C235.89 33.3637 238.797 33.0983 241.883 32.781C241.127 33.7272 240.274 33.6176 239.53 33.8772C238.723 34.1657 237.71 33.5426 237.109 34.7657C237.08 34.8234 236.909 34.835 236.846 34.7888C235.747 33.9003 234.636 34.5638 233.52 34.7138C231.58 34.9734 229.633 35.1754 227.687 35.4177C227.315 35.4638 226.949 35.5792 226.502 35.6773C227.184 36.8081 227.836 36.9062 231.751 36.6004C231.539 37.1024 231.356 37.5408 231.064 38.2447C233.28 38.6486 235.363 38.2447 237.767 38.5563C234.985 39.4563 232.369 38.5793 229.977 39.6352C229.862 40.466 230.183 40.6679 230.641 40.6794C231.694 40.7025 232.747 40.7371 233.795 40.7314C235.701 40.7256 237.601 40.6217 239.507 40.691C241.35 40.7544 243.193 41.0487 245.037 41.1121C247.132 41.1756 249.232 41.0891 251.333 41.0718C253.388 41.0544 255.437 41.0256 257.492 41.0256C258.007 41.0256 258.522 41.1179 259.043 41.1698C259.043 41.2968 259.037 41.4237 259.032 41.5448C255.58 41.8852 252.129 42.2256 248.683 42.5603C248.671 42.693 248.654 42.8257 248.637 42.9526C248.906 43.0391 249.175 43.2065 249.444 43.2065C251.848 43.2007 254.252 43.1545 256.65 43.143C257.624 43.143 258.597 43.2007 259.564 43.4949C257.103 43.7026 254.641 43.9103 252.083 44.1238C251.917 45.3931 251.201 45.82 250.205 45.9585C248.07 46.2585 245.941 46.6508 243.817 47.0778C243.331 47.1759 242.884 47.5509 242.449 47.972C243.709 48.7913 245.054 48.099 246.307 48.624C243.8 49.674 241.058 49.0279 238.328 50.1471C239.147 51.2953 239.971 50.776 240.669 51.2895C239.708 51.4799 238.74 51.6645 237.784 51.8664C236.748 52.0857 235.712 52.3165 234.682 52.5645C233.755 52.7896 232.833 53.055 231.929 53.6377C232.381 53.73 232.827 53.8281 233.274 53.9204C233.274 54.0185 233.274 54.1165 233.28 54.2146C231.58 54.33 229.874 54.4396 228.174 54.5723C222.976 54.9704 217.779 55.4089 212.576 55.7781C207.774 56.1185 202.966 56.3782 198.163 56.7186C197.39 56.7763 196.629 57.059 196.045 57.1974C195.341 57.0705 194.775 56.8801 194.208 56.8801C192.256 56.8743 190.304 56.9263 188.352 56.9667C184.912 57.0359 181.472 57.1109 178.032 57.1974C177.763 57.2032 177.5 57.3128 176.956 57.4455C178.221 58.4783 179.223 59.3437 180.264 60.1168C180.533 60.3129 180.945 60.2322 181.289 60.2322C184.597 60.2379 187.9 60.2322 191.209 60.2322H192.29C191.838 60.5783 191.672 60.8091 191.512 60.8091C189.949 60.8091 188.467 61.3168 186.973 61.7899C186.257 62.0149 185.502 62.263 184.884 61.3515C184.781 61.1957 184.414 61.2303 184.197 61.2995C181.781 62.1073 179.308 61.7265 176.87 61.7726C173.27 61.8361 169.664 61.5649 166.057 61.5649C158.645 61.5649 151.232 61.6399 143.82 61.6803C142.469 61.6861 141.113 61.6803 139.762 61.6457C139.453 61.6342 139.143 61.4726 138.852 61.0168C139.825 60.9534 140.798 60.8091 141.765 60.8437C146.419 61.0226 151.061 60.6764 155.709 60.411C160.053 60.1629 164.409 60.1226 168.759 60.0187C170.494 59.9783 172.234 60.0129 174.077 60.0129C174.168 58.2936 174.964 57.3994 176.475 57.3936C176.275 57.3359 176.08 57.232 175.88 57.2263C172.823 57.209 169.767 57.209 166.716 57.1917C164.317 57.1744 161.885 56.7936 159.526 57.1801C156.27 57.7225 153.036 57.4686 149.79 57.5494C143.877 57.6936 137.964 57.7051 132.052 57.809C125.137 57.9244 118.222 58.109 111.314 58.2129C104.651 58.3109 97.994 58.334 91.3313 58.409C86.0195 58.4667 80.7077 58.5706 75.3959 58.6283C74.211 58.6398 73.0262 58.5244 71.5952 59.0206C71.9729 59.4821 72.1561 59.9033 72.408 59.9783C72.9346 60.1341 73.4955 60.1456 74.045 60.1629C76.9471 60.2495 79.8548 60.3187 82.7626 60.4053C82.8942 60.4053 83.0259 60.5149 83.169 60.861C82.3676 60.9245 81.5663 61.0457 80.7592 61.0514C76.4033 61.0861 72.0474 61.0976 67.6914 61.0976C65.2874 61.0976 62.8833 61.1207 60.485 61.0111C55.4307 60.7918 50.3765 60.6072 45.328 60.1976C40.0333 59.7648 34.7558 59.0494 29.4669 58.5186C25.8723 58.1552 22.2719 57.9186 18.6715 57.584C17.149 57.4455 15.6321 57.1974 14.1095 57.0013C14.1095 56.8455 14.1095 56.6897 14.1153 56.5282C14.7621 56.5109 15.4203 56.4359 16.0614 56.482C18.1049 56.6436 20.1483 56.9493 22.1975 57.0013C23.5998 57.0359 25.0079 56.7301 26.4218 56.4301C20.9783 55.3454 15.4776 54.9531 9.6792 54.4396C10.8812 53.6261 11.9688 54.1338 13.1479 53.6492C12.129 52.6222 11.0472 53.2511 10.0913 52.7492C11.0472 52.5876 11.9974 52.4261 13.2967 52.2068C11.8142 51.2606 10.555 51.7799 9.36438 51.5953C8.16235 51.4107 6.94315 51.4395 5.72395 51.0299C7.4812 50.9606 9.23845 50.9145 10.99 50.8106C12.7873 50.701 14.5789 50.5395 16.6223 50.3779C16.2789 50.0491 16.1301 49.7779 15.9641 49.7548C14.1267 49.524 12.2893 49.3106 10.4519 49.1432C7.96201 48.9182 5.46637 48.7336 2.97073 48.5375C1.88318 48.4509 0.784181 48.399 0 46.7893C1.36802 46.6278 2.62729 46.4489 3.89229 46.3393C4.84246 46.2585 5.80408 46.3739 6.74281 46.2124C7.9105 46.0162 9.1526 46.097 10.1543 45.0065C10.4176 44.7238 10.9098 44.7123 11.2991 44.6777C15.5405 44.2969 19.7877 43.9392 24.0349 43.5699C26.1298 43.3853 28.2248 43.1603 30.3198 43.0334C31.2127 42.9757 32.1171 43.1545 33.0157 43.1488C33.9144 43.1372 34.8131 43.0738 35.7003 42.9353C35.975 42.8949 36.2154 42.543 36.4387 42.1333C34.3551 41.5968 32.2888 41.5622 30.1137 41.5852C30.8406 40.2583 31.9167 40.0967 32.9699 39.9063C33.7141 39.7736 34.4639 39.7159 35.2137 39.6121C35.603 39.5602 35.8834 39.3582 35.8205 38.7813C37.0454 39.5428 39.5754 39.5255 40.6229 38.4986C39.0259 38.5966 37.4232 38.6947 35.8262 38.7986L35.8491 38.787ZM49.8842 24.7557C49.8842 24.9461 49.8842 25.1365 49.8899 25.3269C53.7822 25.8115 57.686 25.4076 61.6756 25.5057C61.4752 24.3749 61.086 23.9537 60.2789 24.098C59.386 24.2537 58.4873 24.3749 57.5887 24.3807C55.5509 24.4037 53.5247 25.1249 51.4698 24.4499C50.9947 24.2941 50.4165 24.6403 49.8899 24.7557H49.8842ZM70.3359 26.6365C70.3359 26.4634 70.3359 26.2904 70.3359 26.1173C68.7847 25.725 67.2392 25.3211 65.6823 24.9576C65.4476 24.8999 65.1557 24.9403 64.9554 25.0788C64.7665 25.2057 64.5948 25.4999 64.5375 25.7596C64.5032 25.9211 64.6692 26.2269 64.8066 26.3423C65.0527 26.5442 65.3503 26.775 65.6251 26.775C67.1934 26.7635 68.7618 26.6885 70.3302 26.6308L70.3359 26.6365ZM7.80174 47.222C7.80174 47.0316 7.80747 46.8412 7.81319 46.6508C6.98894 46.6508 6.15897 46.6047 5.33472 46.6624C4.55626 46.7201 3.69195 46.2758 2.8677 47.222H7.80174Z" fill="#C3E098"/>
</svg>
