<svg width="546" height="59" viewBox="0 0 546 59" fill="none" xmlns="http://www.w3.org/2000/svg">
<path d="M74.0975 36.9102C66.0426 37.2287 57.9934 37.602 49.9328 37.8491C46.8453 37.9424 43.7293 37.8271 40.844 36.9651C40.1576 36.762 39.2205 36.8389 38.4031 36.7785C32.8803 36.3502 27.3575 35.922 21.8348 35.4883C21.8291 35.3565 21.8234 35.2302 21.8205 35.0984C22.3275 35.0326 22.8459 34.8898 23.3415 34.9118C25.8081 35.0326 28.2661 35.1973 30.727 35.351C32.9487 35.4883 34.8969 35.0271 36.8024 34.2035C33.6038 34.1376 30.3995 34.1267 27.2094 33.9949C23.9539 33.8576 20.7154 33.5941 17.4712 33.2372C19.727 32.4027 22.7149 33.3635 25.1017 31.9964C24.1219 31.6176 23.3301 31.3101 22.4671 30.9807C22.9342 30.7721 23.3842 30.5744 24.1475 30.234C22.9627 30.0583 22.0655 29.9211 21.1141 29.7783C22.1765 29.0317 22.1851 29.0591 27.7819 28.4936C30.0947 28.2575 32.3619 27.8732 35.2757 27.4724C33.168 26.7367 31.5359 26.6873 29.8498 26.9289C28.6848 27.0991 27.5655 27.3901 26.392 27.5273C25.2527 27.6646 24.0706 27.7085 22.9029 27.7524C18.2488 27.9226 13.5862 28.1148 9.11443 27.0661C8.76694 26.9838 8.49921 26.7916 7.6846 26.4128C12.9653 25.9626 17.7019 25.5618 22.4386 25.161C19.8039 24.299 17.1066 25.1061 14.0704 24.8371C15.5287 23.9696 17.0383 23.4755 18.8156 23.2064C20.7733 22.9063 22.9437 22.1285 25.3267 20.8731C23.4867 20.8401 21.9772 20.9225 20.5559 20.7523C19.1716 20.5876 17.8757 20.1648 16.3889 19.8189C16.8133 19.1546 17.1892 18.5616 17.7247 17.7216C16.6196 17.8808 15.7964 17.9083 15.13 18.106C12.6064 18.8581 12.6263 18.8801 10.886 17.6777C12.2133 15.6298 15.8021 15.3498 18.5365 14.1529C17.7219 14.12 16.9073 14.0816 15.9018 14.0431C15.617 13.6259 15.2838 13.1372 14.8879 12.5553C18.1577 11.6054 21.7977 11.3803 25.8565 11.007C23.6007 9.78814 21.3164 10.4195 18.6988 10.0736C19.9976 9.77167 20.7182 9.61794 21.4189 9.44225C29.6703 7.35593 38.4572 6.52141 47.2697 5.74727C59.2552 4.69313 71.2293 3.59507 83.2347 2.62878C92.5656 1.87661 101.919 1.22326 111.373 1.14091C116.126 1.09698 120.866 0.707173 125.617 0.536973C127.747 0.460109 129.835 0.361283 132.031 0.701682C134.048 1.02012 136.312 0.83894 138.468 0.816979C143.626 0.762076 148.782 0.822469 153.923 0.366774C157.25 0.0702971 160.599 -0.23167 164.048 0.262458C165.786 0.515012 167.751 0.218535 169.614 0.191084C170.819 0.174613 172.023 0.191084 173.371 0.48207C172.374 0.679721 171.374 0.877372 170.189 1.10796C170.591 1.32209 170.782 1.51974 170.981 1.51974C178.31 1.56366 185.638 1.60758 192.967 1.61307C198.865 1.61307 204.767 1.61307 210.663 1.54719C216.436 1.4868 222.204 1.31111 227.978 1.26169C233.762 1.20679 239.55 1.26718 245.338 1.23424C251.305 1.19581 257.269 1.09149 263.236 1.04208C268.411 0.998159 273.59 0.904824 278.759 0.987178C284.339 1.07502 289.91 1.46483 295.49 1.51425C309.27 1.64601 323.055 1.63503 336.838 1.72288C348.339 1.79425 359.841 1.93151 371.342 2.01387C376.728 2.0523 382.117 2.03034 387.506 2.05779C388.409 2.05779 389.477 2.01936 390.155 2.2774C390.619 2.45309 390.479 3.11742 390.724 3.54566C390.824 3.72135 391.223 3.83665 391.459 3.96292C388.417 4.12214 385.452 4.27587 382.487 4.44058C381.977 4.46803 381.371 4.45156 380.983 4.60529C378.437 5.61551 375.654 5.23118 372.897 5.1653C371.011 5.11589 369.097 4.97314 367.331 5.67041C366.816 5.87355 365.825 5.71433 365.064 5.65943C363.503 5.54413 361.957 5.35746 360.393 5.25864C358.963 5.17079 358.3 5.61551 358.337 6.61474C359.596 6.69161 360.889 6.82337 362.182 6.83435C374.922 6.92769 387.665 6.96063 400.405 7.09789C409.517 7.19671 418.62 7.4328 427.729 7.58104C441.497 7.80614 455.263 8.04771 469.029 8.2234C478.456 8.34419 487.887 8.36066 497.312 8.43752C497.779 8.43752 498.24 8.54733 499.009 8.64616C497.887 10.0242 495.691 9.21166 493.837 9.87598C497.147 10.4799 500.183 9.95285 503.142 10.4305C502.553 10.5074 501.969 10.6282 501.373 10.6556C497.249 10.8313 493.122 10.974 489.001 11.1607C487.67 11.2211 486.363 11.4243 485.039 11.5286C483.096 11.6823 481.151 11.8799 479.197 11.9294C469.584 12.1545 459.963 12.3302 450.347 12.5443C449.561 12.5607 448.78 12.7145 447.473 12.8627C449.649 13.6314 451.515 13.3129 453.249 13.3459C462.136 13.5325 471.028 13.6478 479.915 13.8455C480.855 13.8674 482.02 14.131 482.638 14.5208C483.765 15.2235 484.996 15.3224 486.503 15.2839C488.257 15.2345 490.026 15.3114 491.783 15.3498C492.404 15.3608 493.165 15.2894 493.618 15.4651C496.192 16.4644 499.169 16.3655 501.992 16.4314C504.928 16.4973 507.742 16.684 510.2 17.6173C511.442 18.0895 512.664 18.1169 514.02 18.1389C519.298 18.2322 524.57 18.3695 529.845 18.4958C530.127 18.5013 530.403 18.5726 530.682 18.8032C526.732 18.902 522.775 18.9569 518.833 19.1271C517.563 19.1821 516.341 19.5609 515.082 19.764C513.823 19.9672 512.561 20.2362 511.274 20.2911C509.491 20.3734 508.11 20.6919 507.053 21.9052C508.454 22.026 509.605 22.1468 510.767 22.2237C512.695 22.3609 514.549 22.1468 516.378 23.1131C517.591 23.7555 520.081 23.6841 522.015 23.7555C525.698 23.8818 529.397 23.9421 533.083 23.8982C535 23.8763 536.908 23.5853 538.959 23.4096C538.632 23.0143 538.438 22.7782 538.181 22.4653C540.859 22.3774 543.431 22.3005 546 22.2182C544.667 22.3445 543.659 22.6629 542.838 23.3492C542.394 23.7225 541.346 23.8653 540.54 24.0684C540.281 24.1343 539.919 24.0465 539.617 24.0739C535.658 24.4088 531.593 23.9971 527.674 24.881C525.943 25.2708 523.806 25.0731 521.85 25.1171C521.337 25.1281 520.773 24.9743 520.312 25.0567C515.643 25.8363 510.605 25.0622 506.039 26.2206C505.891 26.2591 505.825 26.4073 505.54 26.6708C506.386 26.7367 507.144 26.7422 507.85 26.8575C514.715 27.9885 521.704 27.9501 528.731 27.6426C529.964 27.5877 531.209 27.6371 532.528 27.8622C531.912 27.9611 531.309 28.1367 530.688 28.1532C525.117 28.3069 519.605 28.8175 513.96 28.6034C510.086 28.4552 506.141 28.9768 502.222 29.1744C497.275 29.4215 492.325 29.6356 487.377 29.8827C486.243 29.9376 485.093 29.9925 483.999 30.1572C482.937 30.3164 481.806 30.547 481.738 31.6396C487.864 31.7494 493.871 31.4968 500.257 31.1948C498.688 32.0953 496.93 31.9909 495.392 32.238C493.726 32.5125 491.621 31.9196 490.391 33.0835C490.334 33.1384 489.975 33.1494 489.847 33.1055C487.571 32.26 485.275 32.8913 482.971 33.0341C478.955 33.2812 474.93 33.4733 470.911 33.7039C470.139 33.7478 469.379 33.8576 468.456 33.951C469.86 35.0271 471.219 35.1204 479.314 34.8294C478.878 35.3071 478.499 35.7243 477.887 36.3942C482.464 36.7785 486.779 36.3942 491.743 36.6906C485.993 37.5471 480.575 36.7126 475.631 37.7173C475.389 38.5079 476.052 38.7001 477.004 38.7111C479.177 38.733 481.356 38.766 483.532 38.7605C487.468 38.755 491.41 38.6562 495.344 38.722C499.16 38.7824 502.966 39.0624 506.782 39.1228C511.12 39.1832 515.464 39.1009 519.802 39.0844C524.048 39.0679 528.292 39.0405 532.539 39.0405C533.607 39.0405 534.675 39.1283 535.743 39.1777C535.738 39.2985 535.729 39.4193 535.723 39.5346C528.589 39.8585 521.451 40.1825 514.316 40.5009C514.287 40.6272 514.256 40.7535 514.225 40.8742C514.783 40.9566 515.341 41.1158 515.897 41.1158C520.867 41.1103 525.837 41.0664 530.805 41.0554C532.821 41.0554 534.835 41.1103 536.831 41.3903C531.742 41.588 526.655 41.7856 521.354 41.9888C521.009 43.1966 519.534 43.6029 517.475 43.7347C513.054 44.0202 508.654 44.3935 504.259 44.7998C503.256 44.8932 502.325 45.25 501.428 45.6508C504.037 46.4304 506.816 45.7716 509.403 46.2712C504.222 47.2705 498.542 46.6555 492.9 47.7207C494.589 48.8132 496.295 48.3191 497.739 48.8077C495.748 48.9889 493.754 49.1646 491.769 49.3568C489.627 49.5654 487.488 49.785 485.355 50.0211C483.438 50.2352 481.535 50.4878 479.664 51.0423C480.593 51.1301 481.521 51.2235 482.45 51.3113C482.455 51.4047 482.458 51.498 482.464 51.5913C478.941 51.7011 475.42 51.8055 471.902 51.9317C461.147 52.3106 450.398 52.7278 439.643 53.0792C429.711 53.4031 419.771 53.6502 409.839 53.9741C408.241 54.029 406.663 54.298 405.458 54.4298C403.997 54.309 402.827 54.1278 401.653 54.1278C397.617 54.1224 393.578 54.1718 389.542 54.2102C382.427 54.2761 375.312 54.3475 368.197 54.4298C367.648 54.4353 367.101 54.5396 365.97 54.6659C368.588 55.6487 370.655 56.4722 372.817 57.2079C373.373 57.3946 374.224 57.3177 374.936 57.3177C381.775 57.3232 388.614 57.3177 395.449 57.3177H397.691C396.76 57.6471 396.418 57.8667 396.076 57.8667C392.849 57.8667 389.779 58.3499 386.685 58.8001C385.204 59.0142 383.641 59.2503 382.37 58.3828C382.157 58.2346 381.402 58.2675 380.949 58.3334C375.95 59.1021 370.841 58.7397 365.791 58.7836C358.34 58.844 350.883 58.586 343.426 58.586C328.097 58.586 312.767 58.6574 297.438 58.6958C294.641 58.7013 291.841 58.6958 289.044 58.6628C288.403 58.6519 287.768 58.4981 287.167 58.0644C289.175 58.004 291.189 57.8667 293.194 57.8997C302.821 58.0699 312.417 57.7405 322.027 57.4879C331.016 57.2518 340.02 57.2134 349.02 57.1146C352.612 57.0761 356.203 57.1091 360.023 57.1091C360.208 55.473 361.851 54.622 364.987 54.6165C364.577 54.5616 364.167 54.4628 363.754 54.4573C357.434 54.4408 351.116 54.4408 344.796 54.4243C339.834 54.4079 334.799 54.0455 329.931 54.4133C323.201 54.9294 316.504 54.6879 309.797 54.7647C297.569 54.902 285.339 54.913 273.111 55.0118C258.813 55.1216 244.515 55.2973 230.213 55.3961C216.436 55.4894 202.659 55.5114 188.882 55.5828C177.897 55.6377 166.911 55.7365 155.928 55.7914C153.478 55.8024 151.023 55.6926 148.067 56.1648C148.847 56.604 149.229 57.0048 149.742 57.0761C150.832 57.2244 151.992 57.2354 153.125 57.2518C159.132 57.3342 165.142 57.4001 171.149 57.4824C171.42 57.4824 171.687 57.5867 171.989 57.9162C170.329 57.9766 168.671 58.0919 167.011 58.0973C158.001 58.1303 148.995 58.1413 139.989 58.1413C135.022 58.1413 130.049 58.1632 125.084 58.0589C114.634 57.8503 104.172 57.6746 93.7419 57.2848C82.7932 56.873 71.8758 56.1922 60.9357 55.6871C53.4989 55.3412 46.0478 55.1161 38.611 54.7977C35.4608 54.6659 32.3221 54.4298 29.1804 54.2431C29.1861 54.0949 29.189 53.9467 29.1947 53.7929C30.539 53.7765 31.8891 53.7051 33.2249 53.749C37.4575 53.9027 41.6814 54.1937 45.9139 54.2431C48.8135 54.2761 51.7215 53.9851 54.6524 53.6996C43.3904 52.6674 32.0144 52.2941 20.029 51.8055C22.5155 51.0313 24.7685 51.5145 27.2037 51.0533C25.1017 50.076 22.8601 50.6744 20.8749 50.1968C22.8487 50.0431 24.8226 49.8893 27.5028 49.6807C24.4381 48.7803 21.8262 49.2744 19.3653 49.0987C16.8816 48.923 14.3552 48.9505 11.8402 48.5607C15.4717 48.4948 19.1061 48.4509 22.7348 48.352C26.4489 48.2477 30.1545 48.094 34.3842 47.9403C33.6778 47.6273 33.3674 47.3693 33.0199 47.3473C29.2231 47.1277 25.4179 46.9246 21.6126 46.7654C16.4572 46.5512 11.299 46.3755 6.14085 46.1889C3.88503 46.1065 1.62351 46.0571 0 44.5253C2.83117 44.3716 5.43733 44.2014 8.05203 44.0971C10.0116 44.0202 12.0054 44.13 13.9422 43.9763C16.3604 43.7896 18.9238 43.8665 21.0002 42.8288C21.5442 42.5598 22.5582 42.5488 23.37 42.5159C32.1455 42.1535 40.9266 41.8131 49.7078 41.4617C54.0429 41.286 58.3751 41.0719 62.713 40.9511C64.5615 40.8962 66.4271 41.0664 68.2842 41.0609C70.1384 41.0499 71.9983 40.9895 73.8383 40.8578C74.4051 40.8193 74.9064 40.4844 75.365 40.0946C71.0527 39.584 66.7803 39.5511 62.2886 39.573C63.7868 38.3103 66.0141 38.1565 68.193 37.9754C69.7282 37.8491 71.2834 37.7942 72.8271 37.6954C73.636 37.646 74.2171 37.4538 74.0804 36.9048C76.6153 37.6295 81.8447 37.613 84.0151 36.6357C80.7054 36.7291 77.3986 36.8224 74.0889 36.9212L74.0975 36.9102ZM103.124 23.5578C103.13 23.739 103.135 23.9202 103.138 24.1014C111.185 24.5626 119.259 24.1782 127.511 24.2716C127.098 23.1955 126.292 22.7947 124.62 22.9319C122.78 23.0802 120.911 23.1955 119.054 23.201C114.842 23.2229 110.649 23.9092 106.394 23.2668C105.414 23.1186 104.221 23.448 103.127 23.5578H103.124ZM145.421 25.3477C145.421 25.183 145.424 25.0182 145.424 24.8535C142.216 24.4802 139.015 24.0959 135.799 23.75C135.318 23.6951 134.714 23.7335 134.293 23.8653C133.905 23.9861 133.546 24.2661 133.432 24.5131C133.364 24.6669 133.7 24.9579 133.994 25.0677C134.503 25.2598 135.119 25.4794 135.688 25.4794C138.932 25.4685 142.177 25.3971 145.418 25.3422L145.421 25.3477ZM16.0927 44.9371C16.1012 44.7559 16.1098 44.5747 16.1155 44.3935C14.4065 44.3935 12.6918 44.3496 10.9914 44.4045C9.38786 44.4594 7.59916 44.0367 5.8902 44.9371H16.0927Z" fill="#C3E098"/>
</svg>
