<?xml version="1.0" encoding="UTF-8"?>
<svg id="Calque_1" xmlns="http://www.w3.org/2000/svg" version="1.1" viewBox="0 0 204 139">
  <!-- Generator: Adobe Illustrator 29.2.1, SVG Export Plug-In . SVG Version: 2.1.0 Build 116)  -->
  <defs>
    <style>
      .st0 {
        stroke: #c3e098;
      }

      .st0, .st1 {
        fill: none;
        stroke-linecap: round;
        stroke-width: 2px;
      }

      .st1 {
        stroke: #202020;
      }
    </style>
  </defs>
  <path class="st1" d="M77,80.9c1.8.8,3.7,1.3,5.6,1.8,4.2,1.2,8.1,3.3,12.3,4.4,4,1,7.9.9,11.9,1.2,5.5.5,11,1.2,16.3,2.8,2.8.9,2.2-1.2.4-2.6-1.7-1.3-3.6-2.1-5.4-3.2-.4-.3.5-.3.7-.4,3.1-1.5,5.6-4.5,7.8-7,2.5-2.9-3.2-2.4-4.7-2.2-2.8.3-5.7.6-8.5,1.3-1.2.3-.5,0,.4-.2,1.5-.2,12-.9,11.8-3.2,0-.8-1.3-1.5-1.9-1.9-2.1-1.4-4.3-1.9-6.8-1.6-1.4.1-2.9.3-4.3.5-.3,0,.6,0,.9,0,2.6,0,5.4,0,8-.5.6-.1.3-.7,0-1.1-1.6-1.9-4.5-2.8-6.7-3.6-3.4-1.1-8.5-1.9-11.9-.6-3.2,1.3-6.2,5.3-9.9,4.2-2.3-.7-5.6-2.1-7.2-3.8"/>
  <path class="st1" d="M85.5,83.9c-3.4,1-6.9,2.5-10,4.3-.8.5-2.3,1.4-1.5,2.4,1.2,1.4,3.2,1.9,4.9,2.1,2.1.3,4.4-.2,6.5-.5,4.1-.6,8.2-1,12.3-1.3,2.2-.2,4.3-.4,6.5-.5,1.5-.1,3.1-.1,4.4-.9"/>
  <path class="st1" d="M118.6,86c1.6.7,4.7-.3,6.3-.4,4.8-.6,9.7-1.4,14.5-1.8,1.2-.1,20.2-1.4,20.1-2.3,0-.7-.4-1.2-.8-1.8-.8-1.1-1-2-1.2-3.4,0-.4,0-.8,0-1.2,0-.2.3-.5.2-.5-.8-.4-3,0-3.9,0-4.6-.1-9.2,0-13.8-.2-2.7,0-5.3.1-8,.3-1.8.1-4.1.8-5.7.1"/>
  <path class="st1" d="M144.5,74.1c-.6.3-.3,1.5-.1,1.9.2.6,1.6,6.3,2,6.2"/>
  <path class="st1" d="M157.6,77.2c.2-.7-.2-1.2-.2-1.9,0-2.2.6-3.4,2.4-4.7,1.4-1,2.9-1.3,4.6-1.4,3.8-.4,7.5,0,11.2.9,3.3.8,6.5,2.3,9.7,3.7,1.3.6,3.3,1.2.8,1.1-2.6-.1-5.2-.2-7.8-.4-4.7-.4-9.3-.1-13.9.6-1.5.2-4.5.9-5.1,2.5-1.7,4.5,11.9,1.9,13.3,1.6,3.5-.7,7.5-1.2,10.8-2.8.9-.4,4.2-1.9,1.7-.3-1.9,1.2-3.9,3.1-6,3.9-3.5,1.4-6.2,4.2-9.7,5.5-4.5,1.7-8.8-.6-10.2-5.1"/>
  <path class="st0" d="M182.8,71.6c-.1,0-.9-.4-.4-.2,1.7.8,3.4,1.4,5.3,1.9,3.3,1,9.4,4,12.2,6.3,2.3,1.9-4.6-1.7-5.4-2.2-1.8-1.1-3.6-2.3-5.5-3.3-1.5-.8-3.2-1.3-4.6-2.3-1.2-.9-3.4-1.6-4.9-1.7-.7,0-1.6-.2-2.3-.5-1.2-.5,2.6.4,3.8.8,2.5.7,5,1.8,7.4,2.9,2.7,1.1,5.4,1.7,8,3.3,1.1.7,6.1,3,5.8,5-.2,1.2-4.2-.9-4.8-1.2-2.9-1.2-5.5-3-8-4.9-.6-.5-1.1-.7-1.1-1.4"/>
  <path class="st1" d="M16.7,28c-4-2.6,8.4,4.7,12.5,7.1,12,7.1,25.1,12.4,37,19.6,3.6,2.2,7.4,4.3,11.2,6,.7.3,1.4-.8,2.3-1.2.7-.3.8,0,1.3.4,1.1.7,2.4,1,3.5,1.7.9.5,1.6,1.2,2.5,1.6,1.2.6.4.9-.4,1.5-5.3,3.8-6.4,10.7-9.5,16-.8,1.4-.2,1.9-1.5,1.6-1.4-.4-2.8-1-4.2-1.5-.6-.2-3.1-.7-3.4-1.4-.3-.9.5-2.1.9-2.8,1.5-2.2,3.1-4.3,4.4-6.7.9-1.8,2.1-3.5,3.4-5,.8-.9,4-5.1,3.3-6"/>
  <path class="st1" d="M68.5,78.2c-.4.7-6.9-2-8-2.4-4.6-1.6-9.4-2.7-14.1-3.7-7.4-1.6-14.7-3.6-21.9-5.7-5.9-1.7-11.8-3.6-17.6-5.6-1.1-.4-5.1-1.3-5.4-2.3"/>
</svg>