<svg width="204" height="139" viewBox="0 0 204 139" fill="none" xmlns="http://www.w3.org/2000/svg">
<path d="M77.0188 80.9369C78.8218 81.7547 80.7125 82.2193 82.6188 82.7678C86.8093 83.9737 90.6977 86.0372 94.9029 87.1309C98.9072 88.1724 102.783 88.0173 106.846 88.3737C112.358 88.8573 117.82 89.5704 123.137 91.186C125.983 92.051 125.291 89.9569 123.577 88.5814C121.914 87.2464 119.953 86.4855 118.168 85.3704C117.764 85.1182 118.709 85.0293 118.855 84.9568C121.949 83.4268 124.448 80.5017 126.676 77.9478C129.183 75.0729 123.497 75.5977 122.022 75.7724C119.183 76.1084 116.287 76.4007 113.498 77.0474C112.343 77.3151 113.038 76.9492 113.872 76.8624C115.361 76.7073 125.853 75.9505 125.628 73.6851C125.552 72.9213 124.306 72.2086 123.745 71.8317C121.607 70.3974 119.472 69.9677 116.931 70.2241C115.486 70.3699 114.047 70.5685 112.601 70.7098C112.302 70.7391 113.202 70.7457 113.503 70.7479C116.114 70.7678 118.9 70.7051 121.478 70.2557C122.079 70.1508 121.766 69.5143 121.504 69.2037C119.909 67.3163 117.04 66.3974 114.774 65.6355C111.417 64.5068 106.246 63.7052 102.862 65.0352C99.6706 66.2896 96.6816 70.3369 92.9851 69.2582C90.684 68.5867 87.3903 67.157 85.7741 65.4716" stroke="#202020" stroke-width="2" stroke-linecap="round"/>
<path d="M85.5265 83.9254C82.1548 84.9715 78.6046 86.4219 75.4941 88.2068C74.7094 88.6571 73.1844 89.6259 74.0068 90.5621C75.2277 91.9519 77.1947 92.4462 78.9475 92.6741C81.0409 92.9463 83.3371 92.4747 85.4044 92.1539C89.4898 91.5199 93.5628 91.1912 97.6791 90.8881C99.8354 90.7292 101.994 90.5314 104.148 90.3411C105.675 90.2063 107.275 90.2355 108.554 89.4387" stroke="#202020" stroke-width="2" stroke-linecap="round"/>
<path d="M118.592 85.9644C120.157 86.6746 123.316 85.7141 124.861 85.5276C129.699 84.9435 134.517 84.1614 139.371 83.6984C140.588 83.5823 159.531 82.2734 159.441 81.4133C159.366 80.6986 159.068 80.1962 158.652 79.6087C157.847 78.4739 157.618 77.598 157.501 76.227C157.465 75.811 157.438 75.3963 157.501 74.9823C157.529 74.7992 157.843 74.532 157.672 74.4543C156.886 74.0976 154.625 74.3886 153.728 74.3645C149.144 74.2413 144.546 74.2836 139.954 74.1558C137.268 74.0811 134.616 74.2576 131.943 74.4752C130.193 74.6176 127.813 75.3101 126.215 74.5856" stroke="#202020" stroke-width="2" stroke-linecap="round"/>
<path d="M144.509 74.1274C143.946 74.3829 144.252 75.6071 144.384 76.037C144.555 76.5931 145.988 82.3527 146.352 82.2159" stroke="#202020" stroke-width="2" stroke-linecap="round"/>
<path d="M157.629 77.1772C157.848 76.5047 157.407 75.9551 157.414 75.3067C157.437 73.124 158.031 71.918 159.764 70.5869C161.12 69.5451 162.702 69.3295 164.38 69.1511C168.184 68.7467 171.902 69.1209 175.605 70.0203C178.947 70.8319 182.139 72.339 185.258 73.7539C186.52 74.3265 188.592 74.9584 186.062 74.8598C183.439 74.7576 180.85 74.6625 178.23 74.4665C173.497 74.1123 168.953 74.3457 164.282 75.0862C162.816 75.3187 159.825 75.9415 159.182 77.5914C157.433 82.076 171.054 79.4662 172.464 79.1841C175.972 78.4826 179.98 77.9406 183.229 76.3793C184.113 75.9545 187.419 74.4842 184.939 76.0912C183.023 77.3331 181.064 79.1934 178.947 80.0292C175.462 81.4047 172.772 84.1962 169.229 85.5007C164.72 87.1607 160.404 84.9136 159.053 80.4339" stroke="#202020" stroke-width="2" stroke-linecap="round"/>
<path d="M182.822 71.5855C182.703 71.5314 181.93 71.181 182.395 71.3915C184.116 72.1722 185.843 72.7631 187.657 73.3271C190.973 74.3583 197.105 77.3752 199.856 79.5835C202.206 81.469 195.259 77.9221 194.42 77.4262C192.584 76.3404 190.784 75.1657 188.922 74.1266C187.435 73.2968 185.71 72.8279 184.323 71.8309C183.09 70.9446 180.89 70.245 179.376 70.0869C178.635 70.0095 177.815 69.8617 177.124 69.5809C175.918 69.091 179.706 69.9712 180.956 70.3358C183.469 71.0694 185.906 72.1785 188.315 73.1906C191.039 74.3347 193.755 74.8935 196.29 76.5015C197.423 77.2205 202.407 79.505 202.061 81.4723C201.842 82.7215 197.856 80.535 197.274 80.3003C194.4 79.1401 191.725 77.261 189.26 75.4078C188.657 74.9552 188.143 74.7037 188.115 73.9864" stroke="#BBD3F2" stroke-width="2" stroke-linecap="round"/>
<path d="M16.7188 28.0169C12.6758 25.4384 25.0904 32.6979 29.2189 35.1372C41.2506 42.2459 54.3004 47.5044 66.2198 54.7565C69.7944 56.9314 73.6223 59.0489 77.4435 60.7821C78.1256 61.0915 78.8511 59.9569 79.7117 59.619C80.3643 59.3628 80.4716 59.6822 81.0141 60.0164C82.133 60.7057 83.4252 61.0647 84.5479 61.7482C85.3989 62.2662 86.0979 62.9259 87.0004 63.3763C88.2144 63.9821 87.4437 64.2428 86.6287 64.8355C81.3745 68.6563 80.2041 75.5682 77.1389 80.854C76.3474 82.2191 76.8907 82.7732 75.6425 82.4477C74.2113 82.0745 72.7957 81.492 71.4154 80.9655C70.7975 80.7299 68.3137 80.2651 68.052 79.5689C67.7057 78.6478 68.5246 77.5048 68.9984 76.8071C70.5079 74.5844 72.0942 72.4758 73.3623 70.0997C74.3065 68.3305 75.4855 66.6343 76.7595 65.0973C77.5188 64.1811 80.8009 59.9618 80.0854 59.0794" stroke="#202020" stroke-width="2" stroke-linecap="round"/>
<path d="M68.5132 78.1975C68.0871 78.8922 61.5795 76.1576 60.5404 75.8061C55.9496 74.2533 51.1563 73.1066 46.4348 72.0834C39.0841 70.4906 31.7234 68.4424 24.4964 66.3713C18.5854 64.6773 12.6967 62.793 6.87879 60.7978C5.75962 60.414 1.79611 59.4582 1.43875 58.5076" stroke="#202020" stroke-width="2" stroke-linecap="round"/>
</svg>
