<svg width="172" height="118" viewBox="0 0 172 118" fill="none" xmlns="http://www.w3.org/2000/svg">
<path d="M21.4517 48.563C21.7909 47.3869 21.8986 46.3019 22.1004 45.0055C22.5965 41.8187 23.8161 38.6139 24.7261 35.5259C25.8092 31.8506 27.3453 28.524 28.9009 25.0652C29.1936 24.4142 29.4858 23.734 29.7573 23.0762C29.8544 22.8409 30.325 22.0124 29.8988 22.6321" stroke="#202020" stroke-width="2" stroke-linecap="round"/>
<path d="M17.6079 50.1212C17.2814 49.438 17.7858 47.8408 17.832 47.1956C18.1306 43.0175 19.2783 38.85 20.2142 34.7767C21.1473 30.7157 22.1267 26.6499 22.9408 22.565C23.0358 22.0882 24.1874 19.1234 23.3127 20.2477" stroke="#202020" stroke-width="2" stroke-linecap="round"/>
<path d="M11.9818 47.7725C11.519 46.8045 12.064 45.0073 12.1631 44.1072C12.6659 39.5424 13.2908 35.1173 14.4003 30.6498C15.2752 27.1273 16.3666 23.5215 17.713 20.1425C17.9352 19.5849 19.107 17.0132 17.8458 18.1874" stroke="#202020" stroke-width="2" stroke-linecap="round"/>
<path d="M82.4231 43.1115C82.6514 43.236 83.0593 44.2627 82.774 43.5764C82.5811 43.1124 81.8403 42.8225 81.6377 42.2385C77.9904 31.725 91.7116 27.4024 99.5637 26.503C109.748 25.3363 119.42 28.2814 127.617 34.269C131.091 36.8061 133.889 40.3118 136.832 43.4184C139.734 46.4816 142.557 49.5981 145.342 52.7687" stroke="#202020" stroke-width="2" stroke-linecap="round"/>
<path d="M93.9869 64.3873C95.7098 64.8842 95.2913 67.3416 94.1231 68.3058C92.1485 69.9356 90.4475 72.3025 89.0612 74.416C87.6218 76.6105 85.9411 78.4299 85.095 80.9769C84.0491 84.1255 85.3258 87.1652 86.8526 89.9695C88.8277 93.5968 92.3232 96.2716 95.6207 98.6129C104.917 105.213 115.598 107.441 126.852 107.551C130.233 107.584 133.967 106.923 137.272 106.259C141.321 105.447 145.071 104.34 148.709 102.378C155.088 98.938 159.527 90.9241 159.567 83.7824C159.605 76.9506 157.544 70.1099 154.039 64.2742C152.715 62.069 151.518 59.6954 150.07 57.5802C148.356 55.0779 146.589 52.1958 144.068 50.4617" stroke="#202020" stroke-width="2" stroke-linecap="round"/>
<path d="M116.855 43.0998C115.12 49.118 128.074 54.7938 128.419 48.4008C128.619 44.6883 124.973 42.0464 121.825 41.1387C119.209 40.3842 117.846 42.1809 116.756 44.2836" stroke="#202020" stroke-width="2" stroke-linecap="round"/>
<path d="M131.001 55.4219C129.621 56.3087 130.914 59.5115 131.823 60.3731C133.309 61.7815 141.308 67.605 142.548 63.3041C143.615 59.6031 138.285 55.0871 135.144 54.5556C134.125 54.3832 133.005 54.0964 132.004 54.5123C130.94 54.9547 131.076 56.0082 130.007 56.3474" stroke="#202020" stroke-width="2" stroke-linecap="round"/>
<path d="M140.77 77.8776C140.28 77.8003 140.257 79.0413 140.273 79.3235C140.399 81.5619 141.374 83.9339 142.977 85.545C146.503 89.0878 151.499 84.6133 152.006 80.7671C152.455 77.3565 150.954 72.6628 146.945 72.627C145.543 72.6144 144.007 73.0369 142.892 73.8828C141.64 74.8329 141.28 76.2985 140.387 77.5247" stroke="#202020" stroke-width="2" stroke-linecap="round"/>
<path d="M129.231 98.5524C129.574 98.332 129.23 98.1168 129.061 97.8836C128.341 96.8949 129.16 95.0103 129.699 94.0807C131.451 91.0604 135.036 89.5668 138.293 88.9889C142.382 88.2633 142.79 92.5079 141.024 95.2586C138.788 98.741 132.358 101.147 129.972 96.8262" stroke="#202020" stroke-width="2" stroke-linecap="round"/>
<path d="M119.946 100.482C119.845 100.717 119.343 100.682 119.096 100.722C117.389 100.998 114.999 100.181 113.649 99.1511C111.322 97.3763 109.394 93.6461 112.517 91.8205C115.259 90.2175 118.615 91.4079 120.945 93.281C122.299 94.3699 123.599 95.8319 123.141 97.6721C122.472 100.351 120.043 100.342 117.738 100.573" stroke="#202020" stroke-width="2" stroke-linecap="round"/>
<path d="M9.26039 49.1673C8.17913 48.7036 10.5739 48.954 10.7559 48.9789C11.738 49.1133 24.2266 51.0766 24.1024 51.5074" stroke="#202020" stroke-width="2" stroke-linecap="round"/>
<path d="M17.4302 18.3077C11.0239 16.4604 30.1092 22.4434 36.3868 24.6898C44.7222 27.6726 52.6221 31.6784 60.9289 34.7299C68.0348 37.3402 74.8226 40.7535 81.987 43.2131C83.8571 43.8551 86.8655 44.9651 88.8049 44.5595C90.9503 44.1108 93.1838 44.1611 95.3675 44.1755C98.2459 44.1944 100.942 44.3521 103.57 45.6248C104.386 46.0198 105.056 46.7268 105.662 47.3863C106.012 47.7673 107.199 48.2104 106.759 48.4841C105.652 49.1742 101.577 48.2025 102.845 48.5136C103.652 48.7117 104.517 48.4965 105.349 48.6566C107.023 48.9786 108.375 50.0297 109.967 50.5807C111.089 50.9693 113.912 52.0054 114.342 53.2971C115.243 55.9999 109.737 56.0237 108.459 55.9512C108.362 55.9457 106.82 55.8164 107.602 55.9331C109.408 56.2028 111.032 57.238 112.503 58.2756C114.499 59.6848 114.615 60.9922 111.929 61.6662C110.405 62.0486 108.811 61.8706 107.282 61.6193C106.231 61.4467 107.098 61.6289 107.546 61.8706C109.082 62.6993 110.746 63.3897 112.16 64.4134C112.907 64.9535 112.948 65.4894 112.572 66.3503C112.08 67.4744 109.795 66.9844 108.885 66.8498C107.339 66.6209 105.732 66.1687 104.275 65.6012C104.044 65.5111 102.317 64.798 103.429 65.3574C104.742 66.0178 106.141 66.5105 107.457 67.1787C108.183 67.5473 109.982 68.2264 110.275 69.0825C111.358 72.243 105.225 70.4396 104.119 69.9741C101.761 68.9822 99.9713 67.1576 97.6606 66.1184C95.1427 64.986 92.534 63.6631 89.9445 62.7486C84.3811 60.7837 78.4785 59.9137 72.8197 58.282C66.2029 56.374 59.2991 55.1153 52.561 53.7065C48.083 52.7702 43.6228 51.7514 39.1461 50.808C36.2965 50.2075 33.3181 49.801 30.5232 48.995C29.2518 48.6285 26.5311 47.6383 25.2061 48.1892C24.881 48.3244 25.7605 51.5009 24.4541 51.1242" stroke="#202020" stroke-width="2" stroke-linecap="round"/>
</svg>
