<?xml version="1.0" encoding="UTF-8"?>
<svg id="Calque_1" xmlns="http://www.w3.org/2000/svg" version="1.1" viewBox="0 0 152 91">
  <!-- Generator: Adobe Illustrator 29.2.1, SVG Export Plug-In . SVG Version: 2.1.0 Build 116)  -->
  <defs>
    <style>
      .st0 {
        fill: none;
        stroke: #202020;
        stroke-linecap: round;
        stroke-miterlimit: 4;
        stroke-width: 2px;
      }
    </style>
  </defs>
  <path class="st0" d="M22,85.2c.4.6,0-.2,0-.4-.3-.7-.6-1.3-.9-2-1.6-3.5-3.1-6.7-4.2-10.4-.9-3.1-2.1-6.3-2.6-9.4-.2-1.3-.3-2.4-.6-3.6"/>
  <path class="st0" d="M15.5,87.6c.9,1.1-.3-1.8-.4-2.3-.8-4.1-1.8-8.1-2.7-12.1-.9-4.1-2.1-8.1-2.4-12.3,0-.6-.6-2.2-.2-2.9"/>
  <path class="st0" d="M10.1,89.7c1.3,1.2,0-1.4,0-2-1.3-3.4-2.4-6.9-3.3-10.4-1.1-4.5-1.7-8.8-2.2-13.4,0-.9-.6-2.7-.2-3.7"/>
  <path class="st0" d="M136.6,55.4c-2.8,3.2-5.6,6.3-8.4,9.3-2.9,3.1-5.7,6.5-9.1,9-8.1,6-17.8,8.8-27.9,7.7-7.8-.9-21.4-5.2-17.8-15.6.2-.6.9-.9,1.1-1.3.3-.7,0,.3-.4.5"/>
  <path class="st0" d="M135.3,57.7c2.5-1.7,4.3-4.6,6-7,1.4-2.1,2.6-4.5,4-6.6,3.5-5.8,5.6-12.6,5.5-19.4,0-7-4.5-15.1-10.8-18.5-3.6-2-7.3-3.1-11.3-3.9-3.3-.7-6.9-1.3-10.3-1.3-11.2,0-21.7,2.3-31,8.8-3.3,2.3-6.7,5-8.7,8.5-1.5,2.8-2.8,5.8-1.8,8.9.8,2.5,2.5,4.4,4,6.5,1.4,2.1,3.1,4.5,5.1,6.1,1.2,1,1.6,3.4,0,3.9"/>
  <path class="st0" d="M108.3,63.8c1.1,2.1,2.5,3.9,5.1,3.1,3.1-.9,6.7-3.5,6.5-7.2-.3-6.4-13.2-.7-11.5,5.3"/>
  <path class="st0" d="M121.4,51.8c1.1.3.9,1.4,2,1.8,1,.4,2.1,0,3.1,0,3.1-.5,8.4-5,7.3-8.6-1.2-4.3-9.1,1.5-10.6,2.9-.9.9-2.2,4.1-.8,5"/>
  <path class="st0" d="M131.7,30.8c.9,1.2,1.3,2.7,2.5,3.6,1.1.8,2.7,1.3,4.1,1.3,4,0,5.5-4.7,5.1-8-.5-3.8-5.5-8.2-8.9-4.8-1.6,1.6-2.6,4-2.7,6.2,0,.3,0,1.5.5,1.4"/>
  <path class="st0" d="M121.4,11.6c2.4-4.3,8.7-1.9,11,1.6,1.8,2.8,1.4,6.9-2.7,6.3-3.3-.6-6.7-2.1-8.5-5.1-.5-.9-1.4-2.8-.6-3.8.2-.2.5-.4.2-.7"/>
  <path class="st0" d="M109.2,7.9c2.3.2,4.7.2,5.4,2.9.5,1.8-.8,3.3-2.2,4.4-2.3,1.9-5.7,3.1-8.3,1.5-3.1-1.8-1.2-5.6,1.1-7.2,1.3-1,3.7-1.8,5.4-1.6.2,0,.7,0,.8.2"/>
  <path class="st0" d="M16.3,56.6c0,.4-12.3,2.4-13.2,2.5-.2,0-2.6.3-1.5-.2"/>
  <path class="st0" d="M16.7,57c1.3-.4.4,2.8.8,2.9,1.3.6,4-.4,5.3-.8,2.8-.8,5.8-1.2,8.5-1.8,4.5-.9,8.8-2,13.3-2.9,6.6-1.4,13.5-2.7,20.1-4.6,5.7-1.6,11.5-2.5,17-4.5,2.6-.9,5.2-2.2,7.6-3.4,2.3-1,4.1-2.9,6.5-3.9,1.1-.5,7.1-2.3,6.2.9-.3.9-2.1,1.5-2.8,1.9-1.3.7-2.7,1.2-4,1.8-1.1.6.6-.2.8-.2,1.5-.6,3.1-1,4.6-1.2.9,0,3.2-.6,3.7.5.4.9.3,1.4-.4,1.9-1.4,1-3.1,1.7-4.6,2.5-.4.2-1.3.4-.3.3,1.5-.3,3.1-.4,4.6,0,2.7.7,2.6,2,.6,3.4-1.5,1-3.1,2.1-4.9,2.3-.8,0,.8,0,.9,0,1.3,0,6.7,0,5.9,2.7-.4,1.3-3.3,2.3-4.4,2.7-1.6.6-2.9,1.6-4.6,1.9-.8.2-1.7,0-2.5,0-1.3.3,2.8-.7,3.9,0,.4.3-.7.7-1.1,1.1-.6.7-1.3,1.4-2.1,1.8-2.6,1.3-5.3,1.4-8.1,1.4s-4.4,0-6.5-.4c-1.9-.4-4.9.7-6.7,1.3-7.1,2.5-13.9,5.9-20.9,8.4-8.2,3.1-16.1,7-24.3,9.9-6.3,2.2-25.2,8.1-18.9,6.4"/>
</svg>