<svg width="155" height="95" viewBox="0 0 155 95" fill="none" xmlns="http://www.w3.org/2000/svg">
<path d="M2.39093 38.533C2.1917 38.8858 1.85191 38.4773 1.98355 38.4223C2.18112 38.3398 2.47785 38.5459 2.72694 38.4729C3.39197 38.278 4.71638 38.7015 5.38873 38.7452C6.56458 38.8217 7.73842 38.7776 8.91197 38.9185C11.6275 39.2446 14.7543 39.6429 17.3367 40.5953C20.4236 41.7337 23.946 41.8642 27.1212 42.7172C33.2418 44.3615 39.5727 45.3967 45.4619 47.8152C48.8158 49.1926 52.3185 50.2688 55.8257 51.1798C59.1733 52.0494 62.5975 53.3479 65.9931 53.9543C69.5757 54.5942 73.0104 55.1095 76.6026 55.9623C80.9574 56.996 83.6089 58.9388 86.1169 62.3601C87.2003 63.8379 88.4173 65.5835 89.894 66.6707C91.5686 67.9037 93.9597 68.1375 95.9578 68.4109C97.1209 68.5701 99.6632 68.5448 97.8313 67.1568C96.2614 65.9671 91.4368 62.6869 92.7319 64.171" stroke="#202020" stroke-width="2" stroke-linecap="round"/>
<path d="M97.3485 66.5761C99.3371 67.3928 101.959 69.349 104.144 68.6026C105.794 68.0389 104.014 66.6838 103.315 65.9696C102.146 64.7767 98.4478 61.398 99.6019 62.6052C100.568 63.6159 106.942 66.4356 106.786 64.3387C106.683 62.9417 104.541 61.647 103.649 60.7438C103.171 60.2586 100.538 58.3841 102.185 59.5198C103.276 60.2722 105.351 61.263 106.668 61.3184C107.968 61.3731 108.009 60.121 107.411 59.3027C106.545 58.1162 105.323 56.8897 104.15 56.0105C103.387 55.4382 105.595 56.9073 106.105 57.0397C106.585 57.1644 107.687 57.4738 108.108 56.9851C108.958 55.9994 106.948 54.3901 106.416 53.7997C105.756 53.0664 101.903 48.8533 101.267 49.5908" stroke="#202020" stroke-width="2" stroke-linecap="round"/>
<path d="M69.6671 55.2086C69.9149 55.0851 67.5433 55.5741 67.073 55.7706C65.645 56.3672 71.0772 59.5513 71.663 59.9623C73.7082 61.397 75.9247 61.4863 78.3255 61.6229C79.8944 61.7122 81.4722 61.63 83.0406 61.7196C83.6092 61.7521 85.9718 61.3985 84.9634 61.9998" stroke="#202020" stroke-width="2" stroke-linecap="round"/>
<path d="M107.79 63.4779C107.733 63.4444 110.954 63.7092 111.261 63.7431C111.649 63.7859 114.815 63.7807 114.391 64.151" stroke="#202020" stroke-width="2" stroke-linecap="round"/>
<path d="M109.027 57.3633C109.352 57.4965 109.661 57.438 110.009 57.4549C111.296 57.5176 112.556 57.8103 113.833 57.964C114.412 58.0338 114.827 57.8676 114.27 58.2427" stroke="#202020" stroke-width="2" stroke-linecap="round"/>
<path d="M114.847 71.7248C115.205 70.4766 114.917 68.6497 114.899 67.4298C114.837 63.4025 114.793 59.389 115.055 55.3666C115.143 54.0194 115.069 52.6011 115.239 51.2673C115.313 50.683 115.346 50.0674 115.212 50.9875" stroke="#202020" stroke-width="2" stroke-linecap="round"/>
<path d="M114.621 50.1338C114.83 50.2196 114.987 50.1761 115.21 50.1791C116.877 50.202 118.521 50.2062 120.188 50.2923C124.368 50.5082 128.483 50.9658 132.583 51.8065C135.489 52.4024 138.349 52.9342 141.307 53.2257C142.121 53.3059 142.953 53.3061 143.761 53.4109C144.122 53.4579 144.406 53.4329 143.918 53.6366" stroke="#202020" stroke-width="2" stroke-linecap="round"/>
<path d="M114.924 71.3398C115.118 71.2717 115.218 71.3466 115.406 71.3412C116.545 71.3087 117.745 71.6378 118.879 71.7662C121.904 72.1085 124.916 72.6507 127.941 72.9488C131.589 73.3083 135.29 73.5396 138.921 74.0339C139.293 74.0845 141.626 74.056 141.654 74.4321" stroke="#202020" stroke-width="2" stroke-linecap="round"/>
<path d="M142.198 75.4589C142.063 75.3824 142.033 75.1168 142.006 74.9688C141.868 74.1962 142.134 72.964 142.171 72.2382C142.284 70.0505 142.35 67.8609 142.445 65.6724C142.567 62.8407 142.732 60.0097 143.1 57.1981C143.166 56.6888 143.266 54.1375 143.611 53.9931" stroke="#202020" stroke-width="2" stroke-linecap="round"/>
<path d="M120.309 71.9413C120.033 71.7904 120.165 71.4555 120.134 71.1903C119.784 68.1112 120.075 64.7806 120.135 61.6964C120.195 58.6814 120.37 55.6625 120.347 52.6467C120.345 52.3925 120.543 50.6208 120.281 50.8493" stroke="#202020" stroke-width="2" stroke-linecap="round"/>
<path d="M121.173 52.9865C121.044 52.9139 120.916 52.7199 121.161 52.8205C121.843 53.1007 122.948 53.0725 123.642 53.178C125.577 53.4722 127.539 53.5413 129.47 53.855C129.78 53.9052 131.506 54.2233 131.279 54.2401" stroke="#202020" stroke-width="2" stroke-linecap="round"/>
<path d="M120.957 55.4727C121.083 55.2495 121.466 55.3787 121.664 55.4054C124.258 55.7548 126.878 55.8139 129.474 56.1988C132.42 56.6356 135.42 56.4792 138.358 56.9867" stroke="#202020" stroke-width="2" stroke-linecap="round"/>
<path d="M121.18 58.4596C121.139 58.558 121.325 58.5434 121.468 58.5421C123.199 58.5268 125.015 58.8655 126.746 59.0113C130.566 59.333 134.373 59.8151 138.192 60.1359" stroke="#202020" stroke-width="2" stroke-linecap="round"/>
<path d="M120.873 61.5527C121.07 61.6337 121.17 61.5353 121.343 61.5847C122.623 61.9515 124.263 61.7361 125.583 61.7526C128.695 61.7912 131.816 62.3033 134.906 62.6489" stroke="#202020" stroke-width="2" stroke-linecap="round"/>
<path d="M120.812 65.2285C121.094 64.7307 123.804 65.3643 124.088 65.3937C125.991 65.59 127.934 65.5657 129.76 66.1675" stroke="#202020" stroke-width="2" stroke-linecap="round"/>
<path d="M120.775 69.2373C120.983 69.1645 121.232 69.1586 121.452 69.1575C123.485 69.1471 125.538 69.3583 127.571 69.4532C129.057 69.5225 130.54 69.6384 132.025 69.709C132.195 69.7171 133.008 69.6951 132.711 69.9549" stroke="#202020" stroke-width="2" stroke-linecap="round"/>
<path d="M132.711 69.9541C134.793 70.8091 137.074 71.0943 139.273 71.5223C140.005 71.665 142.186 72.075 141.495 71.7915C140.968 71.5751 140.285 71.5269 139.743 71.4207C138.07 71.0924 136.383 70.7478 134.744 70.2707C134.691 70.2552 133.523 69.8981 133.627 69.749C133.777 69.5333 134.237 69.5468 134.452 69.5247C135.363 69.4307 136.218 69.1743 137.112 68.9901C138.455 68.7134 140.073 68.3376 141.451 68.3941C141.92 68.4133 141.204 68.7555 141.045 68.8173C140.608 68.9872 137.743 69.0885 139.119 69.6535C139.579 69.8422 141.618 69.9287 141.785 70.498C141.86 70.7536 140.616 70.7406 140.476 70.7025C140.214 70.6314 140.506 70.4742 140.597 70.4303C141.275 70.1045 141.584 69.6229 141.536 68.8402C141.49 68.0757 141.087 67.7618 140.443 67.4972C139.349 67.0479 138.256 66.5202 137.126 66.1706C136.675 66.0314 136.165 65.8641 135.691 65.8319C135.167 65.7962 136.698 66.1349 137.212 66.242C138.485 66.507 139.735 66.6707 140.975 67.072" stroke="#202020" stroke-width="2" stroke-linecap="round"/>
<path d="M138.554 74.9279C138.798 74.0306 143.184 75.8778 143.82 76.1249C144.544 76.407 145.297 76.6578 146.085 76.5726C147.713 76.3967 147.448 73.4556 147.312 72.4098C147.076 70.5974 146.09 69.288 145.633 67.5722C145.438 66.8386 145.505 66.3207 145.756 65.6198C146.228 64.3002 146.218 62.8578 146.153 61.4739C146.08 59.9196 145.096 58.8266 144.525 57.4262C144.048 56.2536 144.023 54.9235 144.194 53.7496" stroke="#202020" stroke-width="2" stroke-linecap="round"/>
<path d="M142.456 74.439C142.716 73.9787 146.096 75.6706 146.678 75.654C147.338 75.6352 145.769 74.6916 145.262 74.2681C144.813 73.8924 144.374 73.504 143.924 73.1286C143.758 72.9895 143.257 72.5771 143.443 72.6896C144.28 73.1966 145.219 73.7758 146.196 73.9542C146.927 74.0877 145.886 73.2899 145.796 73.2087C144.996 72.4895 144.332 71.7079 143.661 70.8748C143.553 70.741 146.069 72.3511 146.045 72.0147C146.012 71.5697 144.969 70.7129 144.734 70.4393C144.262 69.8898 143.679 69.273 143.345 68.6174C142.904 67.7507 144.889 69.8919 145.825 70.1544C146.034 70.2129 145.837 69.6964 145.722 69.5131C145.242 68.7486 144.705 68.0191 144.252 67.2375C144.128 67.0242 143.571 66.1929 144.225 66.583C145.082 67.0939 145.004 66.6312 144.695 65.8102C144.526 65.3628 143.04 62.3374 144.41 63.825C145.538 65.0489 145.04 63.9907 144.678 63.0857C144.624 62.9498 143.975 61.6424 144.179 61.4501C144.271 61.363 145.029 62.1121 145.137 62.1654C145.759 62.4743 145.319 61.025 145.319 61.0244C145.255 60.7107 144.95 59.5006 144.882 59.1284C144.205 55.4374 145.079 60.2829 144.976 58.8989" stroke="#202020" stroke-width="2" stroke-linecap="round"/>
<path d="M102.486 50.3465C102.764 49.3208 92.0422 45.4565 90.8876 45.0599C86.2254 43.4582 81.8143 41.0931 77.2527 39.2198C74.757 38.1949 72.1823 37.3923 69.6798 36.3645C68.2172 35.7639 66.7996 35.1648 65.2752 34.7538C55.3392 32.0748 46.2953 26.8239 36.6683 23.3312C32.156 21.6942 27.6352 20.1169 23.1865 18.2899C21.1264 17.4439 19.0061 16.7987 16.9456 15.9817C15.0483 15.2294 13.0342 14.028 11.0195 13.8027" stroke="#202020" stroke-width="2" stroke-linecap="round"/>
</svg>
