<?xml version="1.0" encoding="UTF-8"?>
<svg id="Calque_1" xmlns="http://www.w3.org/2000/svg" version="1.1" viewBox="0 0 147.5 64.8">
  <!-- Generator: Adobe Illustrator 29.2.1, SVG Export Plug-In . SVG Version: 2.1.0 Build 116)  -->
  <defs>
    <style>
      .st0 {
        fill: none;
        stroke: #202020;
        stroke-linecap: round;
        stroke-width: 2px;
      }
    </style>
  </defs>
  <path class="st0" d="M55.7,51.4c1.3-1.5-3.5,1.8-5.1,3-1.8,1.4.7,1.4,1.9,1.3,2-.3,4.4-.5,6.1-1.7,1.5-1.1,2.7-2.8,3.8-4.3,2.5-3.4,5.2-5.4,9.5-6.4,3.6-.9,7-1.4,10.6-2,3.4-.6,6.8-1.9,10.2-2.8,3.5-.9,7-2,10.4-3.4,5.9-2.4,12.2-3.5,18.3-5.1,3.2-.9,6.7-1,9.8-2.1,2.6-1,5.7-1.4,8.4-1.7,1.2-.1,2.3,0,3.5-.2.7,0,2-.5,2.7-.3.2,0,.5-.1.7,0,.1,0-.2.5-.4.1"/>
  <path class="st0" d="M47.1,36.8c-.6-.7-4.5,3.5-5.1,4.2-.5.6-2.5,2.2-1.7,3.2.4.5,1.5.2,2,0,.5-.1,2.7-1.6,2-1-1.2.9-2.4,2.1-3.3,3.3-.6.8-.6,2.1.7,2,1.3,0,3.4-1,4.5-1.8,1.6-1.1-1,.7-1.5,1.2-.9.9-3,2.2-3.1,3.6-.2,2.1,6.2-.7,7.2-1.7,1.2-1.2-2.5,2.2-3.7,3.4-.7.7-2.5,2.1-.8,2.6,2.2.7,4.8-1.2,6.8-2"/>
  <path class="st0" d="M63.5,49.2c-1-.6,1.4-.2,1.9-.3,1.6,0,3.1,0,4.7,0,2.4-.1,4.6-.2,6.7-1.7.6-.4,6-3.6,4.6-4.2-.5-.2-2.8-.7-2.6-.6"/>
  <path class="st0" d="M34,51.3c-.4-.4,2.7-.4,3.1-.4.3,0,3.5-.3,3.5-.3"/>
  <path class="st0" d="M34.1,45.4c-.6-.4-.1-.2.4-.3,1.3-.2,2.5-.4,3.8-.5.3,0,.7,0,1,0"/>
  <path class="st0" d="M33.2,38.2c-.1-.9-.1-.3,0,.3.2,1.3,0,2.8.2,4.1.3,4,.2,8,.2,12.1,0,1.2-.3,3,0,4.3"/>
  <path class="st0" d="M4.5,40.8c-.5-.2-.2-.2.2-.2.8-.1,1.6-.1,2.5-.2,3-.3,5.8-.8,8.7-1.4,4.1-.8,8.2-1.3,12.4-1.5,1.7,0,3.3,0,5-.1.2,0,.4,0,.6,0"/>
  <path class="st0" d="M6.8,61.6c0-.4,2.4-.3,2.7-.4,3.6-.5,7.3-.7,11-1.1,3-.3,6-.8,9.1-1.2,1.1-.1,2.3-.5,3.5-.4.2,0,.3,0,.5,0"/>
  <path class="st0" d="M4.8,41.2c.3.1.4,2.7.5,3.2.4,2.8.5,5.6.7,8.5,0,2.2.2,4.4.3,6.6,0,.7.3,2,.2,2.7,0,.1,0,.4-.2.5"/>
  <path class="st0" d="M28.1,38c-.3-.2,0,1.5,0,1.8,0,3,.2,6,.2,9,0,3.1.4,6.4,0,9.5,0,.3.1.6-.2.8"/>
  <path class="st0" d="M17.1,41.4c-.2,0,1.5-.3,1.8-.4,1.9-.3,3.9-.4,5.8-.7.7-.1,1.8,0,2.5-.4.2-.1.1,0,0,.2"/>
  <path class="st0" d="M10.1,44.2c2.9-.5,5.9-.4,8.9-.8,2.6-.4,5.2-.4,7.8-.8.2,0,.6-.2.7,0"/>
  <path class="st0" d="M10.2,47.3c3.8-.3,7.6-.8,11.4-1.1,1.7-.1,3.5-.5,5.3-.5.1,0,.3,0,.3,0"/>
  <path class="st0" d="M13.5,49.8c3.1-.3,6.2-.9,9.3-.9,1.3,0,3,.2,4.2-.2.2,0,.3,0,.5,0"/>
  <path class="st0" d="M18.7,53.4c1.8-.6,3.8-.6,5.7-.8.3,0,3-.7,3.3-.2"/>
  <path class="st0" d="M15.7,57.2c-.3-.3.5-.2.7-.2,1.5,0,3-.2,4.5-.3,2,0,4.1-.3,6.1-.3.2,0,.5,0,.7,0"/>
  <path class="st0" d="M7.4,54.3c1.2-.4,2.5-.6,3.8-.8.5-.1,2-.4,1.5-.4-.5,0-1,.2-1.4.3-1.1.3-2.2.9-3.3,1.3-.6.3-1,.6-1.1,1.3,0,.8.3,1.3.9,1.6,0,0,.4.2.1.3-.1,0-1.4,0-1.3-.2.2-.6,2.2-.7,2.7-.8,1.4-.6-1.5-.7-1.9-.8-.2,0-.9-.4-.4-.4,1.4,0,3,.3,4.3.6.9.2,1.7.4,2.7.5.2,0,.7,0,.8.2.1.1-1.1.5-1.1.5-1.6.5-3.3.8-5,1.2-.5.1-1.2.2-1.8.4-.7.3,1.5-.1,2.2-.3,2.2-.4,4.5-.7,6.6-1.6"/>
  <path class="st0" d="M4.2,40.9c.2,1.2.1,2.5-.3,3.7-.6,1.4-1.6,2.5-1.6,4,0,1.4,0,2.8.4,4.1.3.7.3,1.2.1,2-.5,1.7-1.4,3-1.7,4.8-.1,1-.4,4,1.2,4.2.8,0,1.5-.2,2.3-.4.6-.2,5-2.1,5.3-1.2"/>
  <path class="st0" d="M3.4,46.1c-.1,1.4.8-3.5,0,.2,0,.4-.4,1.6-.4,1.9,0,0-.4,1.4.2,1.1.1,0,.9-.8,1-.7.2.2-.4,1.5-.5,1.6-.4.9-.9,2,.3.7,1.4-1.5-.1,1.5-.3,2-.3.8-.4,1.3.5.8.7-.4,0,.4,0,.7-.5.8-1,1.5-1.5,2.3-.1.2-.3.7-.1.6.9-.3,2.9-2.4,2.5-1.5-.3.7-.9,1.3-1.4,1.8-.2.3-1.3,1.1-1.3,1.6,0,.3,2.5-1.3,2.4-1.1-.7.8-1.3,1.6-2.1,2.3,0,0-1.1.9-.4.7,1-.2,1.9-.8,2.8-1.3.2-.1-.3.3-.5.4-.4.4-.9.8-1.3,1.1-.5.4-2.1,1.4-1.4,1.4.6,0,4-1.7,4.2-1.2"/>
  <path class="st0" d="M137.4,1c-2,.2-4,1.4-5.9,2.2-2.1.8-4.2,1.5-6.2,2.3-4.4,1.8-9,3.4-13.5,5-9.6,3.5-18.7,8.7-28.6,11.4-1.5.4-2.9,1-4.4,1.6-2.5,1-5.1,1.8-7.6,2.9-4.6,1.9-9,4.2-13.6,5.8-1.2.4-11.9,4.3-11.6,5.3"/>
</svg>