<?xml version="1.0" encoding="UTF-8"?>
<svg width="auto" height="270"  id="Calque_2" data-name="Calque 2" xmlns="http://www.w3.org/2000/svg" viewBox="0 0 168.66 272.08">
  <g id="Calque_1-2" data-name="Calque 1">
    <g>
      <path d="M106.79,20.43c5.61,1.45,11.09,3.38,16.35,5.79,1.22.56,2.29-1.25,1.06-1.81-5.43-2.49-11.07-4.51-16.85-6-1.31-.34-1.87,1.69-.56,2.02h0Z"/>
      <path d="M110.49,18.48c-3.75.26-7.67.82-10.89,2.9-2.86,1.85-4.97,4.76-5.25,8.21-.11,1.35,1.99,1.34,2.1,0,.23-2.83,2.23-5.22,4.6-6.63,2.84-1.69,6.21-2.16,9.45-2.38,1.34-.09,1.35-2.19,0-2.1h0Z"/>
      <path d="M110.21,21.47c3.65,1.45,6.86,3.78,9.91,6.21,2.75,2.2,5.42,4.5,7.84,7.06,4.54,4.81,8.48,11.03,8.14,17.89-.15,3.07-1.23,6.24-3.55,8.35-2.71,2.47-6.71,2.77-10.13,1.87-3.66-.97-6.85-3.24-9.76-5.59s-5.72-4.89-7.32-8.31c-1.9-4.06-2.43-8.83-3.1-13.22-.37-2.45-.69-4.92-.94-7.38-.12-1.12-.22-2.24-.31-3.37-.05-.66-.51-2.64.22-3.12,1.13-.74.07-2.56-1.06-1.81-1.56,1.02-1.43,2.79-1.3,4.45.2,2.49.45,4.97.77,7.45.58,4.61,1.22,9.3,2.4,13.8s3.32,7.81,6.59,10.81c3.04,2.79,6.48,5.53,10.27,7.23,3.52,1.58,7.64,2.26,11.36.94,3.42-1.21,5.83-3.94,7.05-7.31,2.62-7.23-.51-15.06-4.97-20.82-2.69-3.47-5.92-6.48-9.3-9.27-3.77-3.1-7.67-6.08-12.24-7.89-1.26-.5-1.8,1.53-.56,2.02h0Z"/>
      <path d="M101.16,42.43l-1.02-1.36c-.64-.85-2.39-.41-1.92.81,1.24,3.16,2.49,6.37,2.81,9.77l1.79-.74c-2.6-3.23-4.3-7.04-5.07-11.11l-2.02.56c.7,2.95,1.39,5.9,2.09,8.85l1.92-.81c-1.51-2.42-3.02-4.84-4.53-7.25-.61-.98-2.3-.36-1.92.81.45,1.39.57,2.76.41,4.21l1.96-.53c-.59-.97-1.18-1.94-1.77-2.91-.53-.88-1.97-.53-1.96.53.03,3.27-3.87,4.76-6.6,4.93-3.02.18-6-.68-8.55-2.27s-4.79-4.04-5.95-6.89c-.93-2.28-1.68-6.14.51-8,1.77-1.49,4.23.19,5.69,1.35s2.94,2.76,2.97,4.79c.02,1.35,2.12,1.35,2.1,0-.03-2.2-1.15-4.05-2.72-5.53s-3.75-3.1-6.01-3.28c-4.26-.34-5.88,4.33-5.45,7.82.98,7.97,8.83,14.22,16.72,14.13,4.08-.05,9.43-2.26,9.38-7.05l-1.96.53c.59.97,1.18,1.94,1.77,2.91s1.84.46,1.96-.53c.18-1.63.02-3.21-.48-4.77l-1.92.81c1.51,2.42,3.02,4.84,4.53,7.25.63,1.01,2.19.36,1.92-.81-.7-2.95-1.39-5.9-2.09-8.85-.31-1.33-2.27-.76-2.02.56.84,4.44,2.78,8.52,5.61,12.04.56.69,1.87.13,1.79-.74-.34-3.62-1.57-6.97-2.88-10.33l-1.92.81,1.02,1.36c.8,1.06,2.63.02,1.81-1.06h0Z"/>
      <path d="M132.44,42.39c2.44,2.28,5.9.96,8.56-.17,3.29-1.4,6.48-3.33,8.41-6.43,1.8-2.88,2.17-6.35.66-9.44s-4.39-5.49-7.31-6.89c-3.12-1.5-7.45-1.39-9.24,2.05-.62,1.2,1.19,2.26,1.81,1.06,1.81-3.48,6.22-1.66,8.6.06,2.6,1.88,5.18,4.64,5.02,8.07-.17,3.65-2.97,6.5-5.97,8.22-1.51.87-3.14,1.6-4.79,2.15-1.33.44-3.12.91-4.27-.17-.99-.92-2.47.56-1.48,1.48h0Z"/>
      <path d="M122.84,29.14c1.83,1.96,4.28,3.24,6.95,3.59,1.04.14,2.78.44,3.54-.48s1.06-2.32,1.04-3.5c-.09-5.49-5.55-10.03-9.65-12.92-4.73-3.34-10.34-5.59-16.09-6.31-3.08-.39-6.23-.17-9,1.33-2.61,1.42-4.65,3.69-6.82,5.67-9.37,8.57-20.22,15.5-31.91,20.46-2.49,1.06-5.17,2.12-6.8,4.4-1.36,1.91-1.82,4.73-.4,6.74,1.58,2.25,4.62,2.4,7.11,2.34,3-.08,5.99-.61,8.83-1.56,6.23-2.09,11.03-6.15,15.32-11s7.97-9.71,13.67-12.44c1.22-.59.15-2.4-1.06-1.81-8.32,4-12.73,12.59-19.64,18.32-3.89,3.23-8.7,5.32-13.68,6.09-2.3.36-5.33.77-7.54-.16-2.58-1.08-1.97-4.26-.36-5.94s4.13-2.52,6.27-3.44c2.38-1.03,4.73-2.14,7.04-3.33,4.61-2.38,9.06-5.08,13.31-8.07s8.43-6.38,12.29-9.99c1.8-1.69,3.56-3.53,5.8-4.64,2.52-1.25,5.47-1.2,8.19-.77,5.45.87,10.65,3.13,15.08,6.4,2.15,1.59,4.3,3.47,5.89,5.63s2.95,5.03,1.31,7.45l.91-.52c-3.07.31-5.99-.76-8.1-3.02-.92-.99-2.41.5-1.48,1.48h0Z"/>
      <path d="M89.11,21.73c-.94-7.12-2.48-14.12-4.64-20.97-.18-.57-.72-.85-1.29-.73-1.31.26-1.49,1.68-1.3,2.78.34,1.96.83,3.92,1.24,5.87.82,3.84,1.63,7.69,2.45,11.53l2.02-.56c-2.57-6.83-8.67-12.05-15.88-13.35-1.32-.24-1.89,1.79-.56,2.02,6.46,1.16,12.09,5.71,14.41,11.88.47,1.25,2.31.78,2.02-.56-.66-3.1-1.32-6.2-1.97-9.31-.31-1.48-.63-2.97-.94-4.45-.17-.81-.34-1.62-.51-2.43-.08-.39-.11-.85-.26-1.21v-.21c.05-.28,0-.28-.16,0l-1.29-.73c2.1,6.66,3.65,13.49,4.57,20.41.17,1.32,2.28,1.34,2.1,0h0Z"/>
      <path d="M113.87,63.76c2.13,7.96,4.26,15.93,6.39,23.89.35,1.3,2.38.75,2.02-.56-2.13-7.96-4.26-15.93-6.39-23.89-.35-1.3-2.38-.75-2.02.56h0Z"/>
      <path d="M65.58,53.51l.07-.21-.48.63c.44-.31,2.24.52,2.72.68.93.31,1.85.66,2.75,1.05,1.77.78,3.47,1.7,5.1,2.75,3.15,2.04,5.97,4.56,8.4,7.42,5.28,6.22,8.44,13.95,10.05,21.88l2.02-.56c-.27-.89-.55-1.77-.82-2.66-.4-1.29-2.43-.74-2.02.56.27.89.55,1.77.82,2.66.4,1.3,2.29.76,2.02-.56-2.77-13.67-10.53-26.6-23.42-32.81-1.71-.82-3.48-1.53-5.3-2.07-1.33-.4-3.34-1.1-3.94.67-.43,1.28,1.6,1.84,2.02.56h0Z"/>
      <path d="M122.34,85.4c-.96-.24-1.85-.05-2.64.55-.84.64-1.12,1.67-1.85,2.38-1.55,1.51-4.51.74-6.35.32-5.62-1.28-11.23-2.57-16.84-3.86l-.28,2.06c.4.04.8.09,1.2.13,1.34.15,1.33-1.95,0-2.1-.4-.04-.8-.09-1.2-.13-1.18-.13-1.42,1.8-.28,2.06,5.61,1.29,11.22,2.58,16.84,3.86,1.97.45,4.12.86,6.12.37.84-.21,1.66-.61,2.27-1.23.67-.66,1.3-2.68,2.45-2.39,1.31.32,1.87-1.7.56-2.02h0Z"/>
      <path d="M120.78,86.45c5.61,13,9,26.92,10.03,41.03.1,1.34,2.06,1.37,2.1,0,.02-.52.03-1.03.05-1.55.04-1.35-2.06-1.35-2.1,0-.02.52-.03,1.03-.05,1.55h2.1c-1.05-14.52-4.55-28.73-10.32-42.09-.53-1.24-2.34-.17-1.81,1.06h0Z"/>
      <path d="M60.2,52.52c-.22,3.95-1.31,7.75-1.95,11.63s-.56,7.99-.36,12.03c.07,1.35,2.17,1.35,2.1,0-.21-4.14-.3-8.23.44-12.34.68-3.77,1.66-7.48,1.88-11.33.08-1.35-2.02-1.35-2.1,0h0Z"/>
      <path d="M66.37,56.03c7.96,11.31,14.99,26.02,11.79,40.18-.93,4.14-2.78,7.94-5.31,11.33-.81,1.08,1.01,2.13,1.81,1.06,4.54-6.08,6.65-13.46,6.31-21.02s-2.82-14.92-6.19-21.66c-1.91-3.82-4.14-7.47-6.6-10.96-.77-1.1-2.59-.05-1.81,1.06h0Z"/>
      <path d="M130.35,128.31c-19.18-4.32-38.39-8.51-57.62-12.58-1.32-.28-1.88,1.75-.56,2.02,19.23,4.07,38.44,8.26,57.62,12.58,1.32.3,1.88-1.73.56-2.02h0Z"/>
      <path d="M99.74,195.16c-4.79,10.38-10.41,20.34-15.32,30.66-1.11,2.32-2.17,4.67-3.17,7.04-.51,1.21-1.01,2.35-1.21,3.66s-.31,2.52-.34,3.78c-.13,4.74.89,9.4,1.73,14.04,1.01,5.53,1.48,11.02-.39,16.43l1.92-.25c-4.2-8.75-4.52-19.2-.72-28.16l-1.92-.25c.27.89.53,1.78.8,2.67.39,1.29,2.41.74,2.02-.56-.27-.89-.53-1.78-.8-2.67-.23-.78-1.55-1.13-1.92-.25-4.12,9.71-3.84,20.77.72,30.28.42.88,1.65.53,1.92-.25,1.56-4.54,1.63-9.24.97-13.96s-1.89-9.31-2.19-14.06c-.15-2.4-.24-5.16.43-7.49.75-2.57,2.15-5.11,3.28-7.53,2.33-4.99,4.85-9.87,7.38-14.76,2.95-5.72,5.9-11.45,8.6-17.3.56-1.22-1.25-2.29-1.81-1.06h0Z"/>
      <path d="M98.26,199.05c6.73,18.09,14.17,36.22,17.37,55.35.17,1.02,1.83.99,2.02,0,.22-1.13.09-2.11-.45-3.13-.64-1.19-2.45-.13-1.81,1.06.27.51.35.94.24,1.51h2.02c-3.2-19.14-10.64-37.26-17.37-55.35-.47-1.26-2.5-.71-2.02.56h0Z"/>
      <path d="M111.92,238.89c2.94,7.76,4.62,15.96,4.88,24.26.03.98.25,2.18-.97,1.18-.67-.55-1.15-1.29-1.48-2.08-.76-1.81-.66-3.84-.44-5.75.5-4.4,1.2-8.79,1.81-13.18.18-1.32-1.84-1.89-2.02-.56-.57,4.15-1.16,8.3-1.72,12.45-.46,3.41-.66,7.14,1.72,9.94.83.97,2.25,2.09,3.62,1.79,1.67-.36,1.63-2.23,1.59-3.56-.11-3.93-.53-7.85-1.23-11.72-.83-4.55-2.09-9.01-3.73-13.33-.47-1.25-2.5-.71-2.02.56h0Z"/>
      <path d="M96.55,183.42c-5.44,17.73-10.5,35.58-15.19,53.53-.34,1.31,1.68,1.87,2.02.56,4.69-17.95,9.75-35.79,15.19-53.53.4-1.29-1.63-1.85-2.02-.56h0Z"/>
      <path d="M130.91,129.73c13.42,8.12,24.26,20.2,31.02,34.34,1.9,3.98,3.45,8.12,4.66,12.37.37,1.3,2.4.75,2.02-.56-4.42-15.47-13.46-29.53-25.66-40.01-3.44-2.95-7.11-5.61-10.99-7.96-1.16-.7-2.22,1.11-1.06,1.81h0Z"/>
      <path d="M49.97,158.42c-4.54-1.39-10.71-3.88-10.63-9.55.04-3.22,1.78-6.46,3.27-9.23,1.68-3.13,3.72-6.08,6-8.8,2.56-3.05,5.43-5.83,8.49-8.37,1.04-.86-.45-2.34-1.48-1.48-5.97,4.96-11.26,10.9-14.92,17.78-1.63,3.06-3.41,6.58-3.46,10.11-.04,2.67,1.11,5.12,3.04,6.93,2.52,2.36,5.89,3.65,9.14,4.65,1.3.4,1.85-1.63.56-2.02h0Z"/>
      <path d="M126.35,130.14c8.62,13.53,10.82,30.39,12.47,46.02.14,1.33,2.24,1.34,2.1,0-1.7-16-3.93-33.22-12.76-47.08-.72-1.14-2.54-.08-1.81,1.06h0Z"/>
      <path d="M112.04,126.15l-.05-.17-.11.81-.45.25-.74-.31c.47.43.46,2.37.54,2.94.13.97.22,1.95.3,2.92.15,1.97.22,3.95.21,5.93-.01,3.86-.27,7.71-.73,11.54-.92,7.75-2.73,15.39-5.32,22.75-.45,1.28,1.58,1.83,2.02.56,3.12-8.88,5.08-18.14,5.81-27.53.37-4.72.46-9.48.02-14.2-.1-1.11-.24-2.23-.4-3.33-.13-.87-.13-2.05-.69-2.78-.92-1.22-2.91-.33-2.44,1.18.4,1.29,2.43.74,2.02-.56h0Z"/>
      <path d="M90.78,120.93c-2.91,2.25-3.97,6.06-5.01,9.42-1.26,4.08-2.39,8.21-3.38,12.36-2.01,8.45-3.44,17.03-4.34,25.67h2.1c.04-.49.08-.98.13-1.47.11-1.35-1.99-1.34-2.1,0-.04.49-.08.98-.13,1.47-.12,1.35,1.96,1.33,2.1,0,.86-8.29,2.24-16.53,4.16-24.65.94-4.01,2.01-7.98,3.21-11.92,1-3.3,1.89-7.18,4.75-9.4,1.07-.83-.43-2.3-1.48-1.48h0Z"/>
      <path d="M77.36,117.59c-4.47,4.11-7.63,9.53-10.19,14.98-2.9,6.18-5.11,12.67-6.96,19.23-.98,3.49-1.85,7.01-2.63,10.54-.29,1.32,1.73,1.88,2.02.56,2.76-12.47,6.36-25.43,13.19-36.35,1.71-2.73,3.67-5.29,6.05-7.48,1-.92-.49-2.4-1.48-1.48h0Z"/>
      <path d="M65.46,80.28c-11.89-9.3-24.81-17.23-38.53-23.53-3.86-1.77-7.78-3.42-11.74-4.94l-.56,2.02c.47.09.94.18,1.41.27,1.32.25,1.89-1.77.56-2.02-.47-.09-.94-.18-1.41-.27-1.34-.25-1.82,1.54-.56,2.02,17.71,6.8,34.4,16.24,49.34,27.92,1.05.82,2.55-.65,1.48-1.48h0Z"/>
      <path d="M14.01,51.64c4.42-11.21,12.77-20.27,17.76-31.19.23-.5.16-1.14-.38-1.44-.3-.17-.61-.33-.91-.5-1.19-.65-2.25,1.17-1.06,1.81.3.17.61.33.91.5l-.38-1.44c-5.07,11.09-13.48,20.3-17.97,31.69-.5,1.26,1.53,1.8,2.02.56h0Z"/>
      <path d="M55.6,5.5c-5.58-3.68-11.81-1.76-17.36.94-4.72,2.3-9.12,5.68-10.89,10.8-.27.79.56,1.47,1.29,1.29,4.25-1.02,8.4-2.41,12.4-4.17,3.34-1.46,6.83-3.17,8.67-6.49.27-.49.13-1.15-.38-1.44-2.42-1.38-4.99-.17-7.22,1-2.93,1.54-5.85,3.1-8.78,4.64-1.2.63-.14,2.45,1.06,1.81,2.35-1.24,4.7-2.49,7.05-3.73,1.84-.97,4.71-3.13,6.83-1.92l-.38-1.44c-1.72,3.1-5.23,4.59-8.34,5.93-3.7,1.59-7.55,2.83-11.47,3.77l1.29,1.29c1.55-4.45,5.53-7.35,9.59-9.37,4.94-2.46,10.55-4.42,15.58-1.1,1.13.75,2.18-1.07,1.06-1.81h0Z"/>
      <path d="M31.44,14.45c-.16.56-.35,1.1-.57,1.64-.07.16.05-.12-.02.04-.04.08-.07.16-.11.24-.06.13-.12.25-.18.38-.13.27-.27.53-.42.79-.28.5-.6.99-.94,1.46-.08.11-.17.23-.25.34.07-.09,0,0-.03.04-.04.05-.09.11-.13.16-.2.24-.41.48-.62.71-.37.4-.43,1.09,0,1.48.4.37,1.09.43,1.48,0,1.77-1.92,3.08-4.23,3.81-6.73.15-.53-.19-1.17-.73-1.29s-1.13.17-1.29.73h0Z"/>
      <path d="M30.08,15.21C19.17,26.62,9.67,39.26.2,51.86c-.81,1.08,1.01,2.13,1.81,1.06,9.36-12.47,18.76-24.95,29.55-36.23.93-.98-.55-2.46-1.48-1.48h0Z"/>
      <path d="M.54,54.35c20.16,10.6,40,21.8,59.48,33.6,1.38.84,2.76,1.68,4.14,2.52.92.56,2.24,1.73,3.44,1.39,2.15-.62.52-3.56-1.04-2.48-.43.3-.55.68-.48,1.19l.02.13c.18,1.33,2.21.77,2.02-.56l-.02-.13-.48,1.19-.89-.13-.11-.81-.06.15.48-.63c-.22.14-2.56-1.56-2.87-1.75-1.03-.63-2.07-1.26-3.11-1.89-2.14-1.3-4.29-2.59-6.44-3.87-4.23-2.52-8.48-5.02-12.74-7.49-8.46-4.9-16.98-9.68-25.56-14.36-4.89-2.67-9.81-5.29-14.74-7.89-1.2-.63-2.26,1.18-1.06,1.81h0Z"/>
      <path d="M73.25,101.74c2.72-4.64,4.52-9.77,5.59-15.03.27-1.32-1.76-1.88-2.02-.56-1.03,5.09-2.74,10.03-5.37,14.53-.68,1.17,1.13,2.23,1.81,1.06h0Z"/>
      <path d="M78.13,80.37c1.35,7.47-.86,15.3-5.97,20.92-.91,1,.57,2.49,1.48,1.48,5.65-6.2,8-14.72,6.51-22.96-.24-1.33-2.26-.77-2.02.56h0Z"/>
      <path d="M125.4,94.71c-.71,1.87,2.2,3.43,3.35,4.39,1.76,1.47,3.52,2.94,5.29,4.4,3.65,3.04,7.3,6.08,10.95,9.12l.46-1.75c-2.47,1-4.82,2.25-6.97,3.84-1,.74-1.96,1.52-2.86,2.37-.49.46-.97.94-1.43,1.43-.23.25-.46.5-.68.75l-.26.31c-.39.26-.34.47.16.64l.27,1.02-.65.42-1.01-.77.03.12c.37,1.3,2.4.75,2.02-.56l-.03-.12c-.13-.45-.55-.76-1.01-.77-1.25-.03-1.98,1.74-.8,2.43,1.56.91,2.87-1.38,3.73-2.27,2.83-2.95,6.27-5.27,10.06-6.8.65-.26,1.14-1.19.46-1.75-3.21-2.67-6.42-5.35-9.63-8.02-1.57-1.31-3.15-2.62-4.72-3.93-.76-.63-1.51-1.26-2.27-1.89-.25-.21-2.48-1.89-2.43-2.03.48-1.26-1.55-1.81-2.02-.56h0Z"/>
      <path d="M125.4,93.88c7.81,4.72,15.35,9.87,22.57,15.45,1.06.82,2.55-.66,1.48-1.48-7.36-5.69-15.03-10.97-22.99-15.78-1.16-.7-2.22,1.11-1.06,1.81h0Z"/>
      <path d="M145.77,109.65s.09.08.13.13l-.16-.21c.04.06.08.12.11.18l-.11-.25c.03.08.05.16.06.24l-.04-.28c.01.1,0,.2,0,.29l.04-.28c-.02.11-.05.22-.09.33l.11-.25c-.05.11-.11.22-.18.32l.16-.21c-.07.08-.14.16-.22.23l.21-.16c-.07.06-.15.1-.23.14l.25-.11c-.07.03-.13.04-.2.06l.28-.04c-.08.01-.16.01-.24,0l.28.04s-.04,0-.06-.01c-.28-.06-.56-.04-.81.11-.22.13-.43.38-.48.63-.06.27-.05.57.11.81.14.22.36.43.63.48.18.04.37.07.55.05.13-.01.27-.03.39-.06s.25-.09.37-.14c.13-.06.23-.13.34-.22s.22-.17.3-.28c.24-.29.42-.58.53-.95s.1-.72.04-1.09c-.03-.18-.11-.36-.2-.52-.09-.17-.22-.33-.36-.46-.21-.18-.45-.31-.74-.31-.26,0-.57.11-.74.31s-.32.46-.31.74.1.56.31.74h0Z"/>
      <path d="M121.12,84.06c-.65.14-1.16.68-1.32,1.32-.15.59-.04,1.2.22,1.75.24.51.73.95,1.29,1.07.72.15,1.43-.14,1.99-.6.93-.76,1.21-2.14.95-3.28-.32-1.35-1.51-2.22-2.86-2.28s-2.67.71-3.35,1.84-.58,2.75.21,3.85,2.23,1.9,3.59,1.38c1.2-.46,1.88-1.6,1.97-2.84s-.75-2.63-2.09-2.76c-.95-.09-1.88.72-1.88,1.68s.84,1.65,1.74,1.58c.52-.04.99-.29,1.25-.75s.12-1.17-.38-1.44-1.14-.13-1.44.38l-.02.04c.06-.11.14-.19.25-.25.24-.14.21-.07.13-.06.31-.07.2-.01.09-.02.3.02.22.03.14.01-.18-.05.23.13.07.03,0,0,.2.19.1.08l.1.14c-.05-.09-.04-.05.04.13v-.05c.02.11.03.23,0,.34.04-.19-.1.19-.03.08s-.19.2-.04.06c-.2.18-.13.09-.05.05.12-.06-.26.09-.07.03.16-.05-.1.01-.11.02.21-.02-.25-.07-.06,0-.32-.1-.05,0,.05.05.1.05-.03.08-.1-.08.01.03.07.07.1.09.02.01.04.06.06.07-.13-.06-.15-.21-.07-.09.04.06.07.13.11.19.07.11-.1-.28-.05-.11.01.04.03.08.04.13.02.07.02.15.05.22-.09-.24-.02-.23-.02-.1,0,.03,0,.06,0,.09,0,.08,0,.16,0,.23,0,.1-.07.22.01-.09-.01.05-.02.09-.03.14-.02.08-.04.15-.06.23-.01.04-.03.07-.04.11-.04.13.12-.26.04-.1-.04.07-.07.14-.11.21-.02.03-.03.05-.05.08-.13.22.14-.14.02-.02-.05.06-.1.12-.16.17-.02.02-.05.04-.07.06-.12.13.19-.13.08-.07-.07.04-.13.08-.2.12-.11.06-.11-.01.1-.04-.04,0-.09.03-.13.04s-.1.02-.14.03c.23-.08.21-.02.11-.02s-.2,0-.29,0c-.21,0,.26.06.05,0-.04,0-.07-.02-.11-.03-.06-.01-.11-.03-.16-.05-.18-.06.22.11.04.02-.09-.05-.17-.09-.25-.14-.02-.02-.07-.06-.1-.07.2.08.13.1.03.02-.07-.07-.14-.14-.21-.21-.03-.03-.05-.06-.08-.09-.07-.09-.05-.06.05.07-.02-.03-.05-.07-.07-.1-.06-.08-.11-.17-.15-.26-.02-.04-.04-.07-.05-.11-.1-.19.06.19.02.06-.03-.1-.07-.19-.09-.29-.01-.05-.02-.1-.03-.15-.04-.19.01-.07,0,.04.01-.09-.02-.2-.02-.3,0-.06,0-.12,0-.18,0-.11.06-.07-.01.1.04-.08.04-.2.07-.29.02-.05.05-.11.06-.17-.02.11-.09.2,0,.04.05-.09.1-.17.15-.25.09-.14-.05.06-.06.07.04-.04.08-.09.11-.13.07-.07.14-.14.21-.21.02-.02.07-.05.09-.08-.14.1-.16.12-.07.06.03-.02.06-.04.1-.07.07-.05.15-.09.23-.13.04-.02.09-.04.13-.07.18-.1-.2.06-.06.03.19-.06.39-.1.59-.16-.28.08-.16.02-.05.01.04,0,.08,0,.11,0,.09,0,.19.02.28.01-.26.02-.17-.03-.06,0,.04,0,.07.02.11.03.05.01.11.03.16.05.18.05-.22-.12-.04-.02.09.05.17.1.25.15.13.08-.08-.06-.09-.07.03.04.08.07.11.1.02.02.05.05.07.07.08.09.07.17-.04-.06.04.09.11.17.15.26.11.23-.06-.21,0,0,.02.08.05.16.07.24,0,.04.02.08.02.12.04.19-.01-.24-.01-.1,0,.09.01.19.01.28,0,.09-.01.17-.02.25.02-.37,0-.08-.02.02-.02.08-.05.16-.07.24-.06.19.12-.24.03-.07-.02.04-.04.09-.07.13-.02.03-.03.06-.05.08-.06.1-.2.19.02-.01-.06.06-.12.13-.18.19-.07.07-.15.06.08-.06-.04.02-.08.06-.12.08s-.09.04-.13.07c.2-.14.18-.07.06-.03-.04.01-.08.02-.12.03-.18.05-.06-.05.1,0-.02,0-.06,0-.08,0-.17,0,.32.07.1,0-.1-.03.02-.06.15.06-.03-.03-.2-.13-.02,0s-.02-.05-.06-.08c.18.12.14.2.07.08-.02-.04-.04-.07-.06-.11-.02-.04-.08-.17,0,.01s0,.01,0-.03c-.02-.06-.06-.33-.03-.11s0-.04,0-.11c0-.13.08-.11-.02.12.01-.03.02-.08.03-.11.03-.13.1-.07-.05.11.02-.02.05-.07.05-.1-.04.17-.17.2-.1.13.16-.16-.21.13-.07.04.02-.01.06-.03.07-.04-.19.08-.24.1-.14.06.03,0,.06-.02.08-.02.54-.12.9-.77.73-1.29-.18-.56-.72-.86-1.29-.73h0Z"/>
      <path d="M54.27,5.05c-8.15-2.55-17.73-.25-23.61,6.07-1.37,1.47-2.38,3.26-2.61,5.27-.16,1.47.1,3.65,1.77,4.19.85.27,1.65-.16,2.4-.52,1.16-.55,2.32-1.13,3.47-1.69,2.17-1.06,4.34-2.11,6.51-3.17,4.57-2.22,9.29-4.32,13.02-7.86.57-.54.29-1.56-.46-1.75-2.37-.62-5-.13-7.41.12s-4.81.59-7.15,1.23c-3.67,1.01-9.62,3.25-9.67,7.84-.01.96,1.13,1.31,1.79.74,2.98-2.56,6.12-4.91,9.41-7.05l-1.06-1.81c-3.08,2.02-5.89,4.39-8.4,7.1-.77.83.26,2.38,1.27,1.65,3.11-2.25,6.22-4.49,9.33-6.74l-1.27-1.65c-2.45,2.43-4.91,4.85-7.36,7.28-.82.81.3,2.39,1.27,1.65,3.28-2.52,6.56-5.04,9.84-7.56l-1.27-1.65-6.93,6.01c-.78.68.05,2.09,1.02,1.75,4.34-1.51,7-5.62,11.21-7.28l-1.02-1.75c-1.62,1.61-3.33,3.13-5.14,4.52-1.04.8-.1,2.57,1.06,1.81,2.5-1.64,5-3.28,7.51-4.92l-1.27-1.65-2.1,2.12c-.86.87.23,2.19,1.27,1.65l2.55-1.31-1.54-1.19c-.57,2.39-3.28,2.86-5.34,3.24-1.33.25-.76,2.27.56,2.02,2.85-.53,6.04-1.54,6.81-4.71.22-.92-.73-1.6-1.54-1.19l-2.55,1.31,1.27,1.65,2.1-2.12c.82-.83-.25-2.32-1.27-1.65-2.5,1.64-5,3.28-7.51,4.92l1.06,1.81c1.96-1.5,3.82-3.11,5.56-4.85.7-.69,0-2.16-1.02-1.75-4.23,1.67-6.93,5.79-11.21,7.28l1.02,1.75,6.93-6.01c.89-.77-.32-2.38-1.27-1.65-3.28,2.52-6.56,5.04-9.84,7.56l1.27,1.65c2.45-2.43,4.91-4.85,7.36-7.28.82-.81-.28-2.36-1.27-1.65-3.11,2.25-6.22,4.49-9.33,6.74l1.27,1.65c2.39-2.57,5.04-4.84,7.97-6.77,1.12-.74.08-2.55-1.06-1.81-3.44,2.24-6.72,4.71-9.84,7.38l1.79.74c.02-2.03,2.15-3.27,3.73-4.12,1.76-.94,3.67-1.56,5.61-2.01s3.99-.72,6-.92,4.25-.64,6.21-.13l-.46-1.75c-3.47,3.29-7.91,5.25-12.16,7.32-2.17,1.06-4.34,2.11-6.51,3.17-1.16.56-2.32,1.13-3.47,1.69-.59.29-.99.71-1.37.09-.25-.4-.13-1.27-.07-1.71.34-2.4,2.2-4.24,4.05-5.64s3.76-2.55,5.86-3.35c4.38-1.67,9.19-1.75,13.66-.35,1.29.41,1.85-1.62.56-2.02h0Z"/>
      <path d="M42.08,10.66c-2.05.77-4.1,1.63-6.01,2.73-1.67.96-3.23,2.21-4.14,3.94-.52.99.5,1.85,1.44,1.44s1.61-1.25,1.94-2.21c.19-.54-.21-1.15-.73-1.29-.58-.16-1.1.2-1.29.73-.16.47-.53.76-.98.96l1.44,1.44c.77-1.47,2.09-2.46,3.51-3.26,1.71-.97,3.54-1.75,5.38-2.44.53-.2.89-.71.73-1.29-.14-.51-.76-.93-1.29-.73h0Z"/>
      <path d="M12.07,52.55c1.04.5,2.07,1.01,3.11,1.51.26.13.53.18.81.11.24-.07.51-.26.63-.48.25-.47.15-1.18-.38-1.44-1.04-.5-2.07-1.01-3.11-1.51-.26-.13-.53-.18-.81-.11-.24.07-.51.26-.63.48-.25.47-.15,1.18.38,1.44h0Z"/>
      <path d="M79.23,88.75c.38-1.77.76-3.53,1.14-5.3.24-1.1-1.38-1.94-1.92-.81-.88,1.84-1.38,3.72-1.52,5.76-.08,1.17,1.87,1.45,2.06.28.34-2.07.69-4.13,1.03-6.2l-2.06-.28c-.95,7.62-.86,15.98-5.2,22.65-.74,1.14,1.08,2.19,1.81,1.06,4.55-7,4.48-15.71,5.48-23.71.15-1.16-1.87-1.45-2.06-.28-.34,2.07-.69,4.13-1.03,6.2l2.06.28c.12-1.64.53-3.21,1.24-4.7l-1.92-.81c-.38,1.77-.76,3.53-1.14,5.3-.28,1.32,1.74,1.88,2.02.56h0Z"/>
      <path d="M146.47,112.32c.49-.51,1-.99,1.54-1.44.13-.11.26-.21.39-.32.07-.05.13-.1.2-.16.1-.08-.19.14-.04.03.03-.03.07-.05.1-.08.29-.21.58-.42.87-.62l-1.06-1.81c-.95.71-1.98,1.31-3.07,1.78l1.44,1.44c.42-.72.77-1.49,1.07-2.27.13-.34-.03-.78-.27-1.02s-.68-.4-1.02-.27c-.46.18-.84.4-1.22.71-.31.25-.57.57-.79.91l1.92.81c.02-.05.04-.11.06-.16l-.11.25c.11-.26.24-.51.4-.75.04-.06.08-.11.12-.17-.16.26-.05.07,0,0,.1-.11.2-.22.3-.32.4-.38.41-1.11,0-1.48-.2-.18-.46-.32-.74-.31-.29.01-.52.12-.74.31-.43.35-.71.83-.89,1.34s.21,1.17.73,1.29c.59.13,1.09-.18,1.29-.73.01-.03.02-.07.04-.1l-.11.25c.06-.14.14-.27.23-.4.07-.1-.15.17-.06.08.03-.03.05-.05.07-.08.06-.06.12-.11.18-.17l-1.48-1.48c-.61.57-1.04,1.28-1.33,2.06-.09.23-.03.6.11.81s.29.34.5.43c.49.21,1.02.01,1.31-.43.04-.06.09-.12.13-.18-.16.26-.08.11-.02.04.09-.1.19-.2.3-.29.19-.16-.18.12-.02.01.05-.04.11-.07.16-.11.12-.07.24-.14.37-.19l-.25.11s.07-.03.1-.04l-1.29-1.29c-.06.14-.11.29-.17.43l.11-.25c-.23.55-.49,1.08-.79,1.59-.22.39-.18.96.16,1.27.13.12.29.21.46.27.28.09.55,0,.81-.11,1.09-.47,2.12-1.06,3.07-1.78.23-.17.4-.34.48-.63.07-.25.04-.59-.11-.81-.29-.45-.95-.7-1.44-.38-1.26.85-2.43,1.82-3.49,2.91-.38.39-.42,1.1,0,1.48s1.08.42,1.48,0h0Z"/>
      <path d="M132.82,123.03c.52-.58,1.04-1.16,1.56-1.74.19-.21.31-.46.31-.74,0-.26-.11-.57-.31-.74s-.46-.32-.74-.31-.56.1-.74.31c-.52.58-1.04,1.16-1.56,1.74-.19.21-.31.46-.31.74,0,.26.11.57.31.74s.46.32.74.31.56-.1.74-.31h0Z"/>
      <path d="M119.72,85.36c-.1-.02-.21-.04-.31-.04-.19,0-.38.05-.55.15-.25.14-.43.39-.51.66-.06.22-.05.39,0,.61,0,.01,0,.03.01.04.01.05.05.12.06.14.02.04.04.1.06.15.06.1.13.2.22.28.17.16.32.24.54.31.04.01.08.02.13.03.13.02.27.05.41.05.13,0,.27-.03.39-.04.05,0,.09-.02.14-.03.02,0,.04-.02.07-.02.1-.04.2-.08.29-.12.12-.06.22-.15.32-.23.03-.03.06-.05.09-.09.08-.09.17-.2.23-.31.05-.09.09-.2.13-.3,0-.02.01-.04.02-.05s0-.04.01-.06c.02-.11.04-.22.05-.34,0-.04,0-.08,0-.12-.01-.12-.02-.27-.06-.39s-.09-.23-.14-.34c0-.02-.02-.03-.03-.05-.06-.09-.13-.18-.2-.26-.07-.09-.21-.18-.28-.23-.02-.01-.03-.02-.05-.03,0,0-.02-.01-.03-.01-.08-.04-.19-.08-.27-.12-.02,0-.04-.01-.05-.02-.1-.02-.22-.04-.32-.04-.02,0-.04,0-.06,0-.11,0-.22.02-.33.04-.04,0-.07.02-.11.03-.11.04-.25.09-.35.16-.09.06-.21.15-.29.23-.07.08-.13.16-.19.25-.01.02-.03.04-.04.06-.05.09-.09.19-.12.29,0,.02-.01.03-.02.05-.03.13-.05.26-.04.39.02.27.05.37.16.61,0,.01.01.02.02.03,0,0,.01.02.02.02.05.07.12.16.18.23.01.01.02.02.03.03.06.05.15.12.22.17,0,0,.02.01.03.02.1.06.22.11.33.15s.28.05.38.06c.04,0,.07,0,.1,0,.25-.03.49-.06.7-.21.01-.01.18-.12.24-.19,0,0,0-.01.01-.02.06-.07.13-.15.17-.23.06-.1.12-.22.14-.34.04-.14.05-.28.02-.42,0-.14-.05-.27-.12-.39-.07-.12-.16-.22-.27-.29-.1-.09-.22-.16-.36-.19l-.28-.04c-.19,0-.37.05-.53.14l-.21.16c-.13.13-.22.29-.27.46,0,.02,0,.03-.01.05l.11-.25s-.02.04-.03.06l.16-.21s-.03.03-.04.05l.21-.16s-.05.03-.07.04l.25-.11s-.06.02-.09.02l.28-.04s-.08,0-.12,0l.28.04s-.08-.02-.12-.03l.25.11s-.06-.03-.08-.05l.21.16s-.04-.03-.05-.05l.16.21s-.02-.04-.03-.06l.11.25s-.02-.05-.02-.07l.04.28s0-.06,0-.09l-.04.28s.01-.06.02-.09l-.11.25s.03-.06.06-.09l-.16.21s.06-.06.09-.09l-.21.16s.07-.05.11-.06l-.25.11s.08-.03.12-.03l-.28.04s.07,0,.11,0l-.28-.04s.06.01.1.03l-.25-.11s.06.03.09.05l-.21-.16s.06.05.09.09l-.16-.21s.05.07.06.11l-.11-.25c.02.05.04.1.04.16l-.04-.28c0,.06,0,.11,0,.17l.04-.28c0,.05-.02.1-.04.15l.11-.25s-.04.08-.07.11l.16-.21s-.07.08-.11.11l.21-.16s-.09.06-.15.09l.25-.11c-.07.03-.13.05-.21.06l.28-.04c-.07,0-.14,0-.22,0l.28.04c-.06,0-.12-.02-.18-.04l.25.11s-.02-.01-.03-.02l.21.16s-.03-.03-.04-.04l.16.21s-.03-.04-.04-.06l.11.25s-.02-.04-.02-.06l.04.28s0-.03,0-.04l-.04.28s0-.01,0-.02l-.11.25s0,0,0-.01l-.16.21s0,0,0,0l-.21.16s0,0,.01,0l-.25.11s0,0,.01,0l-.28.04s.02,0,.02,0l-.28-.04h0c.14.05.28.05.42.02.14,0,.27-.05.39-.12.12-.07.22-.16.29-.27.09-.1.16-.22.19-.36l.04-.28c0-.19-.05-.37-.14-.53l-.16-.21c-.13-.13-.29-.22-.46-.27h0Z"/>
      <path d="M112.81,60.39c.06.13.12.26.17.39.14.32-.07-.18.06.14.09.23.18.46.27.69.17.46.32.93.46,1.4.28.95.48,1.91.63,2.88.08.55.8.89,1.29.73.59-.19.82-.71.73-1.29-.31-2.08-.93-4.08-1.8-6-.23-.5-.99-.66-1.44-.38-.52.33-.62.9-.38,1.44h0Z"/>
      <path d="M92.93,189.13c.49.71.91,1.47,1.24,2.26l-.11-.25c.1.23.18.46.27.69.09.26.24.48.48.63.23.13.56.19.81.11.51-.16.93-.74.73-1.29-.4-1.13-.93-2.21-1.61-3.2-.16-.23-.35-.41-.63-.48-.25-.07-.59-.04-.81.11-.45.29-.71.95-.38,1.44h0Z"/>
      <path d="M82.73,242l.82-5.59c.08-.54-.13-1.16-.73-1.29-.5-.11-1.21.15-1.29.73-.27,1.86-.54,3.73-.82,5.59-.08.54.13,1.16.73,1.29.5.11,1.21-.15,1.29-.73h0Z"/>
      <path d="M38.86,154.82c13.21,9.04,29.13,13,44.62,16.09,17.63,3.52,35.47,6.21,53.44,7.18,10.22.55,20.47.53,30.69-.22,1.34-.1,1.35-2.2,0-2.1-17.85,1.31-35.78.38-53.51-1.88-8.93-1.14-17.81-2.63-26.65-4.33-7.92-1.52-15.83-3.19-23.55-5.54-8.45-2.57-16.66-6-23.98-11-1.12-.77-2.17,1.05-1.06,1.81h0Z"/>
      <path d="M99.97,172.12c-1.14.23-1.21,1.64-1.4,2.55-.22,1.03-.43,2.07-.65,3.1-.45,2.14-.9,4.29-1.34,6.43-.28,1.32,1.75,1.88,2.02.56.39-1.88.79-3.77,1.18-5.65.19-.92.39-1.85.58-2.77.09-.44.19-.89.28-1.33.05-.22.09-.44.14-.67.03-.15.06-.3.09-.44.05-.18.05-.18,0,0l-.46.27.12-.03c1.32-.27.76-2.29-.56-2.02h0Z"/>
      <path d="M100.74,198.14c3.38-7.66,6.76-15.31,10.14-22.97.54-1.23-1.27-2.29-1.81-1.06-3.38,7.66-6.76,15.31-10.14,22.97-.54,1.23,1.27,2.29,1.81,1.06h0Z"/>
      <path d="M82.75,170.87c3.86,6.25,7.44,12.66,10.74,19.21.61,1.21,2.42.15,1.81-1.06-3.3-6.56-6.88-12.97-10.74-19.21-.71-1.15-2.53-.09-1.81,1.06h0Z"/>
      <path d="M55.87,123.43c3.1-2.82,6.31-5.52,9.63-8.08.45-.35.69-.9.38-1.44-.26-.44-.98-.72-1.44-.38-3.46,2.67-6.82,5.46-10.05,8.4-1,.91.49,2.39,1.48,1.48h0Z"/>
      <path d="M65.3,113.42h-.02c-.33-.14-.79.01-1.02.26l-.02.02c-.33.36-.39.84-.16,1.27.23.46.73.52,1.17.63.38.09.76.18,1.14.28.71.18,1.41.36,2.12.55,1.46.4,2.9.84,4.34,1.3.54.18,1.15-.2,1.29-.73.16-.57-.19-1.12-.73-1.29-2.67-.87-5.39-1.62-8.13-2.26l.63.48v-.02c-.07.42-.12.85-.17,1.27l.02-.02-1.02.27h.02c.53.22,1.15-.22,1.29-.72.16-.6-.2-1.08-.73-1.29h0Z"/>
      <path d="M73.08,97.38c-1.54,3.24-3.9,5.93-6.19,8.65-1.11,1.32-2.35,2.66-3.09,4.25-.53,1.15-1.28,3.96.5,4.43.57.15,1.11-.19,1.29-.73l.02-.06c.44-1.28-1.59-1.83-2.02-.56l-.02.06,1.29-.73.46.34-.02-.23c.04-.14,0-.33.02-.48.05-.38.19-.76.35-1.1.3-.65.72-1.25,1.16-1.82.94-1.21,1.96-2.37,2.95-3.54,1.94-2.3,3.82-4.68,5.12-7.41.58-1.21-1.23-2.28-1.81-1.06h0Z"/>
      <path d="M74.66,104.77c-1.4,3.35-3.44,6.44-5.95,9.06-.93.98.55,2.47,1.48,1.48,2.77-2.91,4.95-6.28,6.49-9.99.22-.52-.24-1.15-.73-1.29-.6-.17-1.07.21-1.29.73h0Z"/>
      <path d="M73.74,100.03c-1.69,2.03-3.26,4.16-4.7,6.38-.69,1.07-1.36,2.16-1.99,3.27-.43.76-.92,2.2-1.84,2.51l1.19,1.54c1.82-3.97,4.77-7.19,7.7-10.36.92-1-.48-2.39-1.48-1.48-3.42,3.07-6.02,6.91-7.67,11.19-.38.97,1.09,1.79,1.75,1.02,3.21-3.72,6.43-7.43,9.64-11.15l-1.48-1.48c-2.98,3.56-5.64,7.37-7.93,11.41-.57,1,.85,2.2,1.65,1.27,2.54-2.95,5.08-5.9,7.63-8.85l-1.65-1.27c-1.69,2.42-3.39,4.84-5.08,7.27-.78,1.11,1.04,2.16,1.81,1.06,1.69-2.42,3.39-4.84,5.08-7.27.68-.97-.87-2.18-1.65-1.27-2.54,2.95-5.08,5.9-7.63,8.85l1.65,1.27c2.2-3.88,4.73-7.56,7.6-10.98.86-1.03-.6-2.51-1.48-1.48-3.21,3.72-6.43,7.43-9.64,11.15l1.75,1.02c1.52-3.94,3.99-7.45,7.13-10.27l-1.48-1.48c-3.05,3.29-6.14,6.67-8.03,10.78-.35.76.24,1.87,1.19,1.54,1.19-.41,1.9-1.34,2.49-2.4.67-1.2,1.35-2.4,2.08-3.57,1.48-2.35,3.1-4.6,4.87-6.73.36-.44.43-1.06,0-1.48-.37-.37-1.12-.44-1.48,0h0Z"/>
      <path d="M70.86,113.08l.11-.78c.04-.28.06-.56-.11-.81-.13-.19-.29-.34-.5-.43-.5-.21-1.02,0-1.31.43-.59.88-1.05,1.83-1.42,2.81l2.06.28c0-.07,0-.13.02-.2l-.04.28c.04-.25.12-.49.22-.73l-.11.25c.17-.39.36-.77.5-1.18.16-.48.18-.96.09-1.45-.04-.24-.27-.52-.48-.63-.24-.13-.54-.2-.81-.11-.74.25-1.31.73-1.83,1.29-.21.22-.41.45-.63.65-.06.05-.11.1-.17.15-.14.13.09-.06.09-.07,0,0-.08.06-.09.07-.13.09-.27.17-.41.23l.25-.11-.04.02,1.33,1.01c.06-.49.13-.99.19-1.48.08-.62-.34-1.18-.96-1.26-.85-.11-1.56.87-1.07,1.63.3.46.95.69,1.44.38.46-.3.7-.94.38-1.44v-.02c-.01.35-.01.71-.01,1.06v-.03c-.11.13-.24.25-.36.38l.03-.02-.81.11h.03c-.21-.16-.42-.32-.63-.48l.03.03-.11-.25v.05c0-.09-.02-.19-.03-.28-.04.54-.14,1.09-.2,1.62-.08.63.74,1.26,1.33,1.01.43-.18.76-.38,1.12-.67.23-.19.44-.41.64-.63s.4-.43.61-.63c.05-.05.1-.09.15-.13.03-.02.16-.12,0,0s-.03.03,0,0c.12-.08.25-.16.39-.22l-.25.11c.06-.02.11-.04.17-.06l-1.29-.73s.01.07.02.1l-.04-.28c.01.13.01.26,0,.39l.04-.28c-.04.25-.12.48-.22.71l.11-.25c-.29.68-.62,1.32-.65,2.08-.02.52.41.96.91,1.03.54.07.97-.26,1.15-.75.06-.16.12-.31.18-.47l-.11.25c.31-.73.69-1.43,1.13-2.1l-1.92-.81-.11.78c-.04.29-.05.54.11.81.13.22.38.43.63.48.27.06.57.05.81-.11.21-.14.45-.36.48-.63h0Z"/>
      <path d="M57.46,86.27c.84,4.78,1.67,9.55,2.51,14.33.79,4.49,1.64,8.93,3.48,13.12.54,1.23,2.35.17,1.81-1.06-1.83-4.15-2.58-8.66-3.36-13.1s-1.62-9.23-2.42-13.85c-.23-1.33-2.26-.77-2.02.56h0Z"/>
      <path d="M62.46,53.33c.06-.02.13-.04.19-.05.18-.05-.04-.02.07-.01.07,0,.13,0,.2,0,.02,0,.22.01.11,0-.12-.01.16.04.16.03.07.02.13.03.19.05s.13.04.19.07c-.1-.04-.03-.01.03.02.13.07.26.15.39.23.06.04.11.08.16.11.13.09-.1-.09.02.02.22.21.45.4.66.62.43.44.83.9,1.23,1.37.2.24.4.48.59.73.05.06.09.12.14.17-.07-.08.02.03.04.05.11.15.22.29.33.44.32.44.93.71,1.44.38.44-.28.72-.96.38-1.44-.87-1.19-1.81-2.37-2.87-3.41s-2.63-1.91-4.2-1.42c-.52.16-.91.74-.73,1.29s.73.91,1.29.73h0Z"/>
      <path d="M78.93,87.72l.45-4.09c.15-1.36.46-2.8.2-4.16-.11-.56-.78-.88-1.29-.73-.58.16-.84.73-.73,1.29s-.02,1.21-.08,1.79l-.21,1.97-.43,3.94c-.06.56.53,1.05,1.05,1.05.62,0,.99-.48,1.05-1.05h0Z"/>
      <path d="M95.4,88.81c3.44.41,6.9.74,10.35,1.02.57.04,1.05-.51,1.05-1.05,0-.61-.48-1-1.05-1.05-3.46-.27-6.91-.61-10.35-1.02-.56-.07-1.05.53-1.05,1.05,0,.62.48.98,1.05,1.05h0Z"/>
    </g>
  </g>
</svg>