<?xml version="1.0" encoding="UTF-8"?>
<svg id="Calque_2" xmlns="http://www.w3.org/2000/svg" version="1.1" viewBox="0 0 168.7 272.1">
  <!-- Generator: Adobe Illustrator 29.2.1, SVG Export Plug-In . SVG Version: 2.1.0 Build 116)  -->
  <g id="Calque_1-2">
    <g>
      <path d="M106.8,20.4c5.6,1.5,11.1,3.4,16.3,5.8,1.2.6,2.3-1.2,1.1-1.8-5.4-2.5-11.1-4.5-16.8-6-1.3-.3-1.9,1.7-.6,2h0Z"/>
      <path d="M110.5,18.5c-3.8.3-7.7.8-10.9,2.9-2.9,1.9-5,4.8-5.2,8.2-.1,1.4,2,1.3,2.1,0,.2-2.8,2.2-5.2,4.6-6.6,2.8-1.7,6.2-2.2,9.4-2.4,1.3,0,1.3-2.2,0-2.1h0Z"/>
      <path d="M110.2,21.5c3.7,1.5,6.9,3.8,9.9,6.2,2.8,2.2,5.4,4.5,7.8,7.1,4.5,4.8,8.5,11,8.1,17.9-.1,3.1-1.2,6.2-3.6,8.4-2.7,2.5-6.7,2.8-10.1,1.9-3.7-1-6.8-3.2-9.8-5.6s-5.7-4.9-7.3-8.3c-1.9-4.1-2.4-8.8-3.1-13.2-.4-2.5-.7-4.9-.9-7.4-.1-1.1-.2-2.2-.3-3.4,0-.7-.5-2.6.2-3.1,1.1-.7,0-2.6-1.1-1.8-1.6,1-1.4,2.8-1.3,4.4.2,2.5.4,5,.8,7.5.6,4.6,1.2,9.3,2.4,13.8s3.3,7.8,6.6,10.8c3,2.8,6.5,5.5,10.3,7.2,3.5,1.6,7.6,2.3,11.4.9,3.4-1.2,5.8-3.9,7.1-7.3,2.6-7.2-.5-15.1-5-20.8-2.7-3.5-5.9-6.5-9.3-9.3-3.8-3.1-7.7-6.1-12.2-7.9-1.3-.5-1.8,1.5-.6,2h0Z"/>
      <path d="M101.2,42.4l-1-1.4c-.6-.8-2.4-.4-1.9.8,1.2,3.2,2.5,6.4,2.8,9.8l1.8-.7c-2.6-3.2-4.3-7-5.1-11.1l-2,.6c.7,3,1.4,5.9,2.1,8.8l1.9-.8c-1.5-2.4-3-4.8-4.5-7.2-.6-1-2.3-.4-1.9.8.4,1.4.6,2.8.4,4.2l2-.5c-.6-1-1.2-1.9-1.8-2.9-.5-.9-2-.5-2,.5,0,3.3-3.9,4.8-6.6,4.9-3,.2-6-.7-8.6-2.3s-4.8-4-5.9-6.9c-.9-2.3-1.7-6.1.5-8,1.8-1.5,4.2.2,5.7,1.3,1.5,1.2,2.9,2.8,3,4.8,0,1.3,2.1,1.3,2.1,0,0-2.2-1.2-4-2.7-5.5s-3.8-3.1-6-3.3c-4.3-.3-5.9,4.3-5.4,7.8,1,8,8.8,14.2,16.7,14.1,4.1,0,9.4-2.3,9.4-7l-2,.5c.6,1,1.2,1.9,1.8,2.9s1.8.5,2-.5c.2-1.6,0-3.2-.5-4.8l-1.9.8c1.5,2.4,3,4.8,4.5,7.2.6,1,2.2.4,1.9-.8-.7-3-1.4-5.9-2.1-8.9-.3-1.3-2.3-.8-2,.6.8,4.4,2.8,8.5,5.6,12,.6.7,1.9.1,1.8-.7-.3-3.6-1.6-7-2.9-10.3l-1.9.8,1,1.4c.8,1.1,2.6,0,1.8-1.1h0Z"/>
      <path d="M132.4,42.4c2.4,2.3,5.9,1,8.6-.2,3.3-1.4,6.5-3.3,8.4-6.4,1.8-2.9,2.2-6.4.7-9.4s-4.4-5.5-7.3-6.9c-3.1-1.5-7.4-1.4-9.2,2-.6,1.2,1.2,2.3,1.8,1.1,1.8-3.5,6.2-1.7,8.6,0,2.6,1.9,5.2,4.6,5,8.1-.2,3.7-3,6.5-6,8.2-1.5.9-3.1,1.6-4.8,2.2-1.3.4-3.1.9-4.3-.2-1-.9-2.5.6-1.5,1.5h0Z"/>
      <path d="M122.8,29.1c1.8,2,4.3,3.2,6.9,3.6,1,.1,2.8.4,3.5-.5s1.1-2.3,1-3.5c0-5.5-5.6-10-9.7-12.9-4.7-3.3-10.3-5.6-16.1-6.3-3.1-.4-6.2-.2-9,1.3-2.6,1.4-4.7,3.7-6.8,5.7-9.4,8.6-20.2,15.5-31.9,20.5-2.5,1.1-5.2,2.1-6.8,4.4-1.4,1.9-1.8,4.7-.4,6.7,1.6,2.2,4.6,2.4,7.1,2.3,3,0,6-.6,8.8-1.6,6.2-2.1,11-6.2,15.3-11s8-9.7,13.7-12.4c1.2-.6.2-2.4-1.1-1.8-8.3,4-12.7,12.6-19.6,18.3-3.9,3.2-8.7,5.3-13.7,6.1-2.3.4-5.3.8-7.5-.2-2.6-1.1-2-4.3-.4-5.9s4.1-2.5,6.3-3.4c2.4-1,4.7-2.1,7-3.3,4.6-2.4,9.1-5.1,13.3-8.1s8.4-6.4,12.3-10c1.8-1.7,3.6-3.5,5.8-4.6,2.5-1.2,5.5-1.2,8.2-.8,5.4.9,10.7,3.1,15.1,6.4,2.2,1.6,4.3,3.5,5.9,5.6s2.9,5,1.3,7.5l.9-.5c-3.1.3-6-.8-8.1-3-.9-1-2.4.5-1.5,1.5h0Z"/>
      <path d="M89.1,21.7c-.9-7.1-2.5-14.1-4.6-21-.2-.6-.7-.9-1.3-.7-1.3.3-1.5,1.7-1.3,2.8.3,2,.8,3.9,1.2,5.9.8,3.8,1.6,7.7,2.4,11.5l2-.6c-2.6-6.8-8.7-12.1-15.9-13.4-1.3-.2-1.9,1.8-.6,2,6.5,1.2,12.1,5.7,14.4,11.9.5,1.2,2.3.8,2-.6-.7-3.1-1.3-6.2-2-9.3-.3-1.5-.6-3-.9-4.4-.2-.8-.3-1.6-.5-2.4,0-.4-.1-.9-.3-1.2v-.2c0-.3,0-.3-.2,0l-1.3-.7c2.1,6.7,3.7,13.5,4.6,20.4.2,1.3,2.3,1.3,2.1,0h0Z"/>
      <path d="M113.9,63.8c2.1,8,4.3,15.9,6.4,23.9.3,1.3,2.4.8,2-.6-2.1-8-4.3-15.9-6.4-23.9-.3-1.3-2.4-.8-2,.6h0Z"/>
      <path d="M65.6,53.5v-.2c0,0-.4.6-.4.6.4-.3,2.2.5,2.7.7.9.3,1.8.7,2.8,1,1.8.8,3.5,1.7,5.1,2.8,3.2,2,6,4.6,8.4,7.4,5.3,6.2,8.4,13.9,10.1,21.9l2-.6c-.3-.9-.6-1.8-.8-2.7-.4-1.3-2.4-.7-2,.6.3.9.6,1.8.8,2.7.4,1.3,2.3.8,2-.6-2.8-13.7-10.5-26.6-23.4-32.8-1.7-.8-3.5-1.5-5.3-2.1-1.3-.4-3.3-1.1-3.9.7-.4,1.3,1.6,1.8,2,.6h0Z"/>
      <path d="M122.3,85.4c-1-.2-1.8,0-2.6.6-.8.6-1.1,1.7-1.8,2.4-1.6,1.5-4.5.7-6.3.3-5.6-1.3-11.2-2.6-16.8-3.9l-.3,2.1c.4,0,.8,0,1.2.1,1.3.2,1.3-1.9,0-2.1-.4,0-.8,0-1.2-.1-1.2-.1-1.4,1.8-.3,2.1,5.6,1.3,11.2,2.6,16.8,3.9,2,.4,4.1.9,6.1.4.8-.2,1.7-.6,2.3-1.2.7-.7,1.3-2.7,2.4-2.4,1.3.3,1.9-1.7.6-2h0Z"/>
      <path d="M120.8,86.4c5.6,13,9,26.9,10,41,.1,1.3,2.1,1.4,2.1,0,0-.5,0-1,0-1.6,0-1.3-2.1-1.3-2.1,0,0,.5,0,1,0,1.6h2.1c-1.1-14.5-4.6-28.7-10.3-42.1-.5-1.2-2.3-.2-1.8,1.1h0Z"/>
      <path d="M60.2,52.5c-.2,4-1.3,7.8-2,11.6-.6,3.9-.6,8-.4,12,0,1.3,2.2,1.3,2.1,0-.2-4.1-.3-8.2.4-12.3.7-3.8,1.7-7.5,1.9-11.3,0-1.3-2-1.3-2.1,0h0Z"/>
      <path d="M66.4,56c8,11.3,15,26,11.8,40.2-.9,4.1-2.8,7.9-5.3,11.3-.8,1.1,1,2.1,1.8,1.1,4.5-6.1,6.7-13.5,6.3-21s-2.8-14.9-6.2-21.7c-1.9-3.8-4.1-7.5-6.6-11-.8-1.1-2.6,0-1.8,1.1h0Z"/>
      <path d="M130.4,128.3c-19.2-4.3-38.4-8.5-57.6-12.6-1.3-.3-1.9,1.8-.6,2,19.2,4.1,38.4,8.3,57.6,12.6,1.3.3,1.9-1.7.6-2h0Z"/>
      <path d="M99.7,195.2c-4.8,10.4-10.4,20.3-15.3,30.7-1.1,2.3-2.2,4.7-3.2,7-.5,1.2-1,2.4-1.2,3.7s-.3,2.5-.3,3.8c-.1,4.7.9,9.4,1.7,14,1,5.5,1.5,11-.4,16.4l1.9-.2c-4.2-8.8-4.5-19.2-.7-28.2l-1.9-.2c.3.9.5,1.8.8,2.7.4,1.3,2.4.7,2-.6-.3-.9-.5-1.8-.8-2.7-.2-.8-1.6-1.1-1.9-.2-4.1,9.7-3.8,20.8.7,30.3.4.9,1.7.5,1.9-.2,1.6-4.5,1.6-9.2,1-14s-1.9-9.3-2.2-14.1c-.2-2.4-.2-5.2.4-7.5.8-2.6,2.2-5.1,3.3-7.5,2.3-5,4.8-9.9,7.4-14.8,2.9-5.7,5.9-11.4,8.6-17.3.6-1.2-1.2-2.3-1.8-1.1h0Z"/>
      <path d="M98.3,199c6.7,18.1,14.2,36.2,17.4,55.3.2,1,1.8,1,2,0,.2-1.1,0-2.1-.4-3.1-.6-1.2-2.4-.1-1.8,1.1.3.5.3.9.2,1.5h2c-3.2-19.1-10.6-37.3-17.4-55.3-.5-1.3-2.5-.7-2,.6h0Z"/>
      <path d="M111.9,238.9c2.9,7.8,4.6,16,4.9,24.3,0,1,.2,2.2-1,1.2-.7-.5-1.2-1.3-1.5-2.1-.8-1.8-.7-3.8-.4-5.8.5-4.4,1.2-8.8,1.8-13.2.2-1.3-1.8-1.9-2-.6-.6,4.1-1.2,8.3-1.7,12.4-.5,3.4-.7,7.1,1.7,9.9.8,1,2.2,2.1,3.6,1.8,1.7-.4,1.6-2.2,1.6-3.6-.1-3.9-.5-7.9-1.2-11.7-.8-4.6-2.1-9-3.7-13.3-.5-1.2-2.5-.7-2,.6h0Z"/>
      <path d="M96.6,183.4c-5.4,17.7-10.5,35.6-15.2,53.5-.3,1.3,1.7,1.9,2,.6,4.7-17.9,9.8-35.8,15.2-53.5.4-1.3-1.6-1.9-2-.6h0Z"/>
      <path d="M130.9,129.7c13.4,8.1,24.3,20.2,31,34.3,1.9,4,3.4,8.1,4.7,12.4.4,1.3,2.4.8,2-.6-4.4-15.5-13.5-29.5-25.7-40-3.4-2.9-7.1-5.6-11-8-1.2-.7-2.2,1.1-1.1,1.8h0Z"/>
      <path d="M50,158.4c-4.5-1.4-10.7-3.9-10.6-9.6,0-3.2,1.8-6.5,3.3-9.2,1.7-3.1,3.7-6.1,6-8.8,2.6-3.1,5.4-5.8,8.5-8.4,1-.9-.5-2.3-1.5-1.5-6,5-11.3,10.9-14.9,17.8-1.6,3.1-3.4,6.6-3.5,10.1,0,2.7,1.1,5.1,3,6.9,2.5,2.4,5.9,3.6,9.1,4.6,1.3.4,1.8-1.6.6-2h0Z"/>
      <path d="M126.4,130.1c8.6,13.5,10.8,30.4,12.5,46,.1,1.3,2.2,1.3,2.1,0-1.7-16-3.9-33.2-12.8-47.1-.7-1.1-2.5,0-1.8,1.1h0Z"/>
      <path d="M112,126.1v-.2c0,0-.2.8-.2.8l-.4.2-.7-.3c.5.4.5,2.4.5,2.9.1,1,.2,1.9.3,2.9.2,2,.2,3.9.2,5.9,0,3.9-.3,7.7-.7,11.5-.9,7.8-2.7,15.4-5.3,22.8-.4,1.3,1.6,1.8,2,.6,3.1-8.9,5.1-18.1,5.8-27.5.4-4.7.5-9.5,0-14.2,0-1.1-.2-2.2-.4-3.3-.1-.9-.1-2.1-.7-2.8-.9-1.2-2.9-.3-2.4,1.2.4,1.3,2.4.7,2-.6h0Z"/>
      <path d="M90.8,120.9c-2.9,2.2-4,6.1-5,9.4-1.3,4.1-2.4,8.2-3.4,12.4-2,8.4-3.4,17-4.3,25.7h2.1c0-.5,0-1,.1-1.5.1-1.4-2-1.3-2.1,0,0,.5,0,1-.1,1.5-.1,1.4,2,1.3,2.1,0,.9-8.3,2.2-16.5,4.2-24.6.9-4,2-8,3.2-11.9,1-3.3,1.9-7.2,4.8-9.4,1.1-.8-.4-2.3-1.5-1.5h0Z"/>
      <path d="M77.4,117.6c-4.5,4.1-7.6,9.5-10.2,15-2.9,6.2-5.1,12.7-7,19.2-1,3.5-1.8,7-2.6,10.5-.3,1.3,1.7,1.9,2,.6,2.8-12.5,6.4-25.4,13.2-36.3,1.7-2.7,3.7-5.3,6.1-7.5,1-.9-.5-2.4-1.5-1.5h0Z"/>
      <path d="M65.5,80.3c-11.9-9.3-24.8-17.2-38.5-23.5-3.9-1.8-7.8-3.4-11.7-4.9l-.6,2c.5,0,.9.2,1.4.3,1.3.2,1.9-1.8.6-2-.5,0-.9-.2-1.4-.3-1.3-.2-1.8,1.5-.6,2,17.7,6.8,34.4,16.2,49.3,27.9,1.1.8,2.6-.7,1.5-1.5h0Z"/>
      <path d="M14,51.6c4.4-11.2,12.8-20.3,17.8-31.2.2-.5.2-1.1-.4-1.4-.3-.2-.6-.3-.9-.5-1.2-.6-2.2,1.2-1.1,1.8.3.2.6.3.9.5l-.4-1.4c-5.1,11.1-13.5,20.3-18,31.7-.5,1.3,1.5,1.8,2,.6h0Z"/>
      <path d="M55.6,5.5c-5.6-3.7-11.8-1.8-17.4.9-4.7,2.3-9.1,5.7-10.9,10.8-.3.8.6,1.5,1.3,1.3,4.2-1,8.4-2.4,12.4-4.2,3.3-1.5,6.8-3.2,8.7-6.5.3-.5.1-1.2-.4-1.4-2.4-1.4-5-.2-7.2,1-2.9,1.5-5.8,3.1-8.8,4.6-1.2.6-.1,2.4,1.1,1.8,2.3-1.2,4.7-2.5,7-3.7,1.8-1,4.7-3.1,6.8-1.9l-.4-1.4c-1.7,3.1-5.2,4.6-8.3,5.9-3.7,1.6-7.5,2.8-11.5,3.8l1.3,1.3c1.5-4.4,5.5-7.4,9.6-9.4,4.9-2.5,10.5-4.4,15.6-1.1,1.1.8,2.2-1.1,1.1-1.8h0Z"/>
      <path d="M31.4,14.4c-.2.6-.4,1.1-.6,1.6,0,.2,0-.1,0,0,0,0,0,.2-.1.2,0,.1-.1.2-.2.4-.1.3-.3.5-.4.8-.3.5-.6,1-.9,1.5,0,.1-.2.2-.2.3,0,0,0,0,0,0,0,0,0,.1-.1.2-.2.2-.4.5-.6.7-.4.4-.4,1.1,0,1.5.4.4,1.1.4,1.5,0,1.8-1.9,3.1-4.2,3.8-6.7.2-.5-.2-1.2-.7-1.3s-1.1.2-1.3.7h0Z"/>
      <path d="M30.1,15.2C19.2,26.6,9.7,39.3.2,51.9c-.8,1.1,1,2.1,1.8,1.1,9.4-12.5,18.8-25,29.5-36.2.9-1-.5-2.5-1.5-1.5h0Z"/>
      <path d="M.5,54.3c20.2,10.6,40,21.8,59.5,33.6,1.4.8,2.8,1.7,4.1,2.5.9.6,2.2,1.7,3.4,1.4,2.2-.6.5-3.6-1-2.5-.4.3-.6.7-.5,1.2h0c.2,1.5,2.2.9,2-.4h0c0-.1-.5,1.1-.5,1.1h-.9c0-.1-.1-.9-.1-.9v.2c0,0,.4-.6.4-.6-.2.1-2.6-1.6-2.9-1.8-1-.6-2.1-1.3-3.1-1.9-2.1-1.3-4.3-2.6-6.4-3.9-4.2-2.5-8.5-5-12.7-7.5-8.5-4.9-17-9.7-25.6-14.4-4.9-2.7-9.8-5.3-14.7-7.9-1.2-.6-2.3,1.2-1.1,1.8h0Z"/>
      <path d="M73.3,101.7c2.7-4.6,4.5-9.8,5.6-15,.3-1.3-1.8-1.9-2-.6-1,5.1-2.7,10-5.4,14.5-.7,1.2,1.1,2.2,1.8,1.1h0Z"/>
      <path d="M78.1,80.4c1.3,7.5-.9,15.3-6,20.9-.9,1,.6,2.5,1.5,1.5,5.7-6.2,8-14.7,6.5-23-.2-1.3-2.3-.8-2,.6h0Z"/>
      <path d="M125.4,94.7c-.7,1.9,2.2,3.4,3.3,4.4,1.8,1.5,3.5,2.9,5.3,4.4,3.6,3,7.3,6.1,10.9,9.1l.5-1.8c-2.5,1-4.8,2.2-7,3.8-1,.7-2,1.5-2.9,2.4-.5.5-1,.9-1.4,1.4-.2.2-.5.5-.7.8l-.3.3c-.4.3-.3.5.2.6l.3,1-.6.4-1-.8h0c.4,1.4,2.4.9,2-.4h0c-.1-.6-.6-.9-1-.9-1.2,0-2,1.7-.8,2.4,1.6.9,2.9-1.4,3.7-2.3,2.8-2.9,6.3-5.3,10.1-6.8.6-.3,1.1-1.2.5-1.8-3.2-2.7-6.4-5.3-9.6-8-1.6-1.3-3.1-2.6-4.7-3.9-.8-.6-1.5-1.3-2.3-1.9-.2-.2-2.5-1.9-2.4-2,.5-1.3-1.6-1.8-2-.6h0Z"/>
      <path d="M125.4,93.9c7.8,4.7,15.3,9.9,22.6,15.4,1.1.8,2.6-.7,1.5-1.5-7.4-5.7-15-11-23-15.8-1.2-.7-2.2,1.1-1.1,1.8h0Z"/>
      <path d="M145.8,109.6s0,0,.1.1l-.2-.2c0,0,0,.1.1.2v-.2c0,0,0,.2,0,.2v-.3c0,0,0,.2,0,.3v-.3c0,.1,0,.2,0,.3v-.2c0,.1,0,.2,0,.3l.2-.2c0,0-.1.2-.2.2l.2-.2c0,0-.1,0-.2.1h.2c0,0-.1,0-.2,0h.3c0,0-.2,0-.2,0h.3s0,0,0,0c-.3,0-.6,0-.8.1-.2.1-.4.4-.5.6,0,.3,0,.6.1.8.1.2.4.4.6.5.2,0,.4,0,.6,0,.1,0,.3,0,.4,0s.2,0,.4-.1c.1,0,.2-.1.3-.2s.2-.2.3-.3c.2-.3.4-.6.5-.9s.1-.7,0-1.1c0-.2-.1-.4-.2-.5,0-.2-.2-.3-.4-.5-.2-.2-.4-.3-.7-.3s-.6.1-.7.3-.3.5-.3.7.1.6.3.7h0Z"/>
      <path d="M121.1,84.1c-.7.1-1.2.7-1.3,1.3-.2.6,0,1.2.2,1.8.2.5.7.9,1.3,1.1.7.2,1.4-.1,2-.6.9-.8,1.2-2.1.9-3.3-.3-1.3-1.5-2.2-2.9-2.3s-2.7.7-3.3,1.8-.6,2.8.2,3.8,2.2,1.9,3.6,1.4c1.2-.5,1.9-1.6,2-2.8s-.8-2.6-2.1-2.8c-.9,0-1.9.7-1.9,1.7s.8,1.7,1.7,1.6c.5,0,1-.3,1.2-.8s.1-1.2-.4-1.4-1.1-.1-1.4.4h0c0,0,.1-.2.2-.2.2-.1.2,0,.1,0,.3,0,.2,0,0,0,.3,0,.2,0,.1,0-.2,0,.2.1,0,0,0,0,.2.2,0,0h0c0,0,0,0,0,.3h0c0,0,0,.2,0,.3,0-.2,0,.2,0,0s-.2.2,0,0c-.2.2-.1,0,0,0,.1,0-.3,0,0,0,.2,0,0,0-.1,0,.2,0-.2,0,0,0-.3,0,0,0,0,0,0,0,0,0,0,0,0,0,0,0,0,0,0,0,0,0,0,0-.1,0-.2-.2,0,0,0,0,0,.1.1.2,0,.1,0-.3,0-.1,0,0,0,0,0,.1,0,0,0,.2,0,.2,0-.2,0-.2,0,0h0v.3c0,0,0,.2,0,0,0,0,0,0,0,.1,0,0,0,.2,0,.2,0,0,0,0,0,.1,0,.1.1-.3,0,0,0,0,0,.1-.1.2,0,0,0,0,0,0-.1.2.1-.1,0,0,0,0,0,.1-.2.2,0,0,0,0,0,0-.1.1.2-.1,0,0,0,0-.1,0-.2.1-.1,0-.1,0,0,0,0,0,0,0-.1,0s0,0-.1,0c.2,0,.2,0,.1,0h-.3c-.2,0,.3,0,0,0,0,0,0,0-.1,0,0,0-.1,0-.2,0-.2,0,.2.1,0,0,0,0-.2,0-.2-.1,0,0,0,0,0,0,.2,0,.1,0,0,0l-.2-.2s0,0,0,0c0,0,0,0,0,0,0,0,0,0,0,0,0,0-.1-.2-.2-.3,0,0,0,0,0-.1,0-.2,0,.2,0,0,0,0,0-.2,0-.3,0,0,0,0,0-.2,0-.2,0,0,0,0,0,0,0-.2,0-.3v-.2c0-.1,0,0,0,0,0,0,0-.2,0-.3,0,0,0-.1,0-.2,0,.1,0,.2,0,0,0,0,0-.2.2-.2,0-.1,0,0,0,0,0,0,0,0,.1-.1l.2-.2s0,0,0,0c-.1,0-.2.1,0,0,0,0,0,0,0,0,0,0,.2,0,.2-.1,0,0,0,0,.1,0,.2,0-.2,0,0,0,.2,0,.4,0,.6-.2-.3,0-.2,0,0,0h.1c0,0,.2,0,.3,0-.3,0-.2,0,0,0,0,0,0,0,.1,0,0,0,.1,0,.2,0,.2,0-.2-.1,0,0,0,0,.2,0,.2.2.1,0,0,0,0,0,0,0,0,0,.1,0h0c0,.2,0,.2,0,0,0,0,.1.2.2.3.1.2,0-.2,0,0,0,0,0,.2,0,.2,0,0,0,0,0,.1,0,.2,0-.2,0,0s0,.2,0,.3,0,.2,0,.2c0-.4,0,0,0,0,0,0,0,.2,0,.2,0,.2.1-.2,0,0,0,0,0,0,0,.1,0,0,0,0,0,0,0,0-.2.2,0,0,0,0-.1.1-.2.2,0,0-.2,0,0,0,0,0,0,0-.1,0s0,0-.1,0c.2-.1.2,0,0,0,0,0,0,0-.1,0-.2,0,0,0,0,0h0c-.2,0,.3,0,0,0,0,0,0,0,.2,0,0,0-.2-.1,0,0s0,0,0,0c.2.1.1.2,0,0,0,0,0,0,0-.1s0-.2,0,0,0,0,0,0c0,0,0-.3,0-.1s0,0,0-.1c0-.1,0-.1,0,.1,0,0,0,0,0-.1,0-.1,0,0,0,.1,0,0,0,0,0,0,0,.2-.2.2,0,.1.2-.2-.2.1,0,0,0,0,0,0,0,0-.2,0-.2,0-.1,0,0,0,0,0,0,0,.5-.1.9-.8.7-1.3-.2-.6-.7-.9-1.3-.7h0Z"/>
      <path d="M54.3,5c-8.1-2.5-17.7-.2-23.6,6.1-1.4,1.5-2.4,3.3-2.6,5.3-.2,1.5.1,3.6,1.8,4.2.9.3,1.6-.2,2.4-.5,1.2-.5,2.3-1.1,3.5-1.7,2.2-1.1,4.3-2.1,6.5-3.2,4.6-2.2,9.3-4.3,13-7.9.6-.5.3-1.6-.5-1.8-2.4-.6-5-.1-7.4.1s-4.8.6-7.2,1.2c-3.7,1-9.6,3.2-9.7,7.8,0,1,1.1,1.3,1.8.7,3-2.6,6.1-4.9,9.4-7.1l-1.1-1.8c-3.1,2-5.9,4.4-8.4,7.1-.8.8.3,2.4,1.3,1.6,3.1-2.2,6.2-4.5,9.3-6.7l-1.3-1.7c-2.5,2.4-4.9,4.8-7.4,7.3-.8.8.3,2.4,1.3,1.6,3.3-2.5,6.6-5,9.8-7.6l-1.3-1.7-6.9,6c-.8.7,0,2.1,1,1.8,4.3-1.5,7-5.6,11.2-7.3l-1-1.8c-1.6,1.6-3.3,3.1-5.1,4.5-1,.8,0,2.6,1.1,1.8,2.5-1.6,5-3.3,7.5-4.9l-1.3-1.7-2.1,2.1c-.9.9.2,2.2,1.3,1.7l2.5-1.3-1.5-1.2c-.6,2.4-3.3,2.9-5.3,3.2-1.3.2-.8,2.3.6,2,2.8-.5,6-1.5,6.8-4.7.2-.9-.7-1.6-1.5-1.2l-2.5,1.3,1.3,1.6,2.1-2.1c.8-.8-.2-2.3-1.3-1.7-2.5,1.6-5,3.3-7.5,4.9l1.1,1.8c2-1.5,3.8-3.1,5.6-4.8.7-.7,0-2.2-1-1.8-4.2,1.7-6.9,5.8-11.2,7.3l1,1.8,6.9-6c.9-.8-.3-2.4-1.3-1.7-3.3,2.5-6.6,5-9.8,7.6l1.3,1.6c2.5-2.4,4.9-4.9,7.4-7.3.8-.8-.3-2.4-1.3-1.7-3.1,2.3-6.2,4.5-9.3,6.7l1.3,1.6c2.4-2.6,5-4.8,8-6.8,1.1-.7,0-2.6-1.1-1.8-3.4,2.2-6.7,4.7-9.8,7.4l1.8.7c0-2,2.2-3.3,3.7-4.1,1.8-.9,3.7-1.6,5.6-2s4-.7,6-.9,4.2-.6,6.2-.1l-.5-1.8c-3.5,3.3-7.9,5.2-12.2,7.3-2.2,1.1-4.3,2.1-6.5,3.2-1.2.6-2.3,1.1-3.5,1.7-.6.3-1,.7-1.4,0-.2-.4-.1-1.3,0-1.7.3-2.4,2.2-4.2,4-5.6s3.8-2.6,5.9-3.3c4.4-1.7,9.2-1.8,13.7-.3,1.3.4,1.8-1.6.6-2h0Z"/>
      <path d="M42.1,10.7c-2,.8-4.1,1.6-6,2.7-1.7,1-3.2,2.2-4.1,3.9-.5,1,.5,1.9,1.4,1.4s1.6-1.2,1.9-2.2c.2-.5-.2-1.1-.7-1.3-.6-.2-1.1.2-1.3.7-.2.5-.5.8-1,1l1.4,1.4c.8-1.5,2.1-2.5,3.5-3.3,1.7-1,3.5-1.8,5.4-2.4.5-.2.9-.7.7-1.3-.1-.5-.8-.9-1.3-.7h0Z"/>
      <path d="M12.1,52.5c1,.5,2.1,1,3.1,1.5.3.1.5.2.8.1.2,0,.5-.3.6-.5.2-.5.1-1.2-.4-1.4-1-.5-2.1-1-3.1-1.5-.3-.1-.5-.2-.8-.1-.2,0-.5.3-.6.5-.2.5-.1,1.2.4,1.4h0Z"/>
      <path d="M79.2,88.7c.4-1.8.8-3.5,1.1-5.3.2-1.1-1.4-1.9-1.9-.8-.9,1.8-1.4,3.7-1.5,5.8,0,1.2,1.9,1.4,2.1.3.3-2.1.7-4.1,1-6.2l-2.1-.3c-.9,7.6-.9,16-5.2,22.7-.7,1.1,1.1,2.2,1.8,1.1,4.6-7,4.5-15.7,5.5-23.7.2-1.2-1.9-1.4-2.1-.3-.3,2.1-.7,4.1-1,6.2l2.1.3c.1-1.6.5-3.2,1.2-4.7l-1.9-.8c-.4,1.8-.8,3.5-1.1,5.3-.3,1.3,1.7,1.9,2,.6h0Z"/>
      <path d="M146.5,112.3c.5-.5,1-1,1.5-1.4.1-.1.3-.2.4-.3,0,0,.1,0,.2-.2.1,0-.2.1,0,0,0,0,0,0,.1,0,.3-.2.6-.4.9-.6l-1.1-1.8c-.9.7-2,1.3-3.1,1.8l1.4,1.4c.4-.7.8-1.5,1.1-2.3.1-.3,0-.8-.3-1s-.7-.4-1-.3c-.5.2-.8.4-1.2.7-.3.2-.6.6-.8.9l1.9.8c0,0,0-.1,0-.2v.2c0-.3.1-.5.3-.8,0,0,0-.1.1-.2-.2.3,0,0,0,0,.1-.1.2-.2.3-.3.4-.4.4-1.1,0-1.5-.2-.2-.5-.3-.7-.3-.3,0-.5.1-.7.3-.4.3-.7.8-.9,1.3s.2,1.2.7,1.3c.6.1,1.1-.2,1.3-.7,0,0,0,0,0,0v.2c0-.1,0-.3.1-.4,0,0-.1.2,0,0s0,0,0,0c0,0,.1-.1.2-.2l-1.5-1.5c-.6.6-1,1.3-1.3,2.1,0,.2,0,.6.1.8s.3.3.5.4c.5.2,1,0,1.3-.4,0,0,0-.1.1-.2-.2.3,0,.1,0,0,0,0,.2-.2.3-.3.2-.2-.2.1,0,0,0,0,.1,0,.2-.1.1,0,.2-.1.4-.2h-.2c0,.1,0,0,.1,0l-1.3-1.3c0,.1-.1.3-.2.4v-.2c-.1.6-.4,1.1-.7,1.6-.2.4-.2,1,.2,1.3.1.1.3.2.5.3.3,0,.6,0,.8-.1,1.1-.5,2.1-1.1,3.1-1.8.2-.2.4-.3.5-.6,0-.2,0-.6-.1-.8-.3-.4-.9-.7-1.4-.4-1.3.8-2.4,1.8-3.5,2.9-.4.4-.4,1.1,0,1.5s1.1.4,1.5,0h0Z"/>
      <path d="M132.8,123c.5-.6,1-1.2,1.6-1.7.2-.2.3-.5.3-.7s-.1-.6-.3-.7-.5-.3-.7-.3-.6,0-.7.3c-.5.6-1,1.2-1.6,1.7-.2.2-.3.5-.3.7s.1.6.3.7.5.3.7.3.6,0,.7-.3h0Z"/>
      <path d="M119.7,85.4c0,0-.2,0-.3,0-.2,0-.4,0-.6.2-.2.1-.4.4-.5.7,0,.2,0,.4,0,.6,0,0,0,0,0,0,0,0,0,.1,0,.1,0,0,0,0,0,.2,0,0,.1.2.2.3.2.2.3.2.5.3,0,0,0,0,.1,0,.1,0,.3,0,.4,0s.3,0,.4,0c0,0,0,0,.1,0,0,0,0,0,0,0,0,0,.2,0,.3-.1.1,0,.2-.2.3-.2,0,0,0,0,0,0,0,0,.2-.2.2-.3,0,0,0-.2.1-.3,0,0,0,0,0,0s0,0,0,0c0-.1,0-.2,0-.3h0c0-.2,0-.4,0-.5s0-.2-.1-.3c0,0,0,0,0,0,0,0-.1-.2-.2-.3,0,0-.2-.2-.3-.2,0,0,0,0,0,0,0,0,0,0,0,0,0,0-.2,0-.3-.1,0,0,0,0,0,0,0,0-.2,0-.3,0h0c-.1,0-.2,0-.3,0,0,0,0,0-.1,0-.1,0-.2,0-.3.2,0,0-.2.2-.3.2,0,0-.1.2-.2.2,0,0,0,0,0,0,0,0,0,.2-.1.3,0,0,0,0,0,0,0,.1,0,.3,0,.4,0,.3,0,.4.2.6,0,0,0,0,0,0,0,0,0,0,0,0,0,0,.1.2.2.2h0c0,0,.2.2.2.2,0,0,0,0,0,0,0,0,.2.1.3.2s.3,0,.4,0h0c.2,0,.5,0,.7-.2,0,0,.2-.1.2-.2,0,0,0,0,0,0,0,0,.1-.2.2-.2,0,0,.1-.2.1-.3,0-.1,0-.3,0-.4,0-.1,0-.3-.1-.4s-.2-.2-.3-.3c0,0-.2-.2-.4-.2h-.3c-.2,0-.4,0-.5,0l-.2.2c-.1.1-.2.3-.3.5,0,0,0,0,0,0v-.2c.1,0,0,0,0,0l.2-.2s0,0,0,0l.2-.2s0,0,0,0h.2c0-.1,0,0,0,0h.3s0,0-.1,0h.3s0,0-.1,0h.2c0,.1,0,0,0,0l.2.2s0,0,0,0l.2.2s0,0,0,0v.2c.1,0,0,0,0,0v.3s0,0,0,0v.3s0,0,0,0v.2c-.1,0,0,0,0,0l-.2.2h0c0,0-.2,0-.2,0,0,0,0,0,.1,0h-.2c0,.1,0,0,.1,0h-.3s0,0,.1,0h-.3s0,0,0,0h-.2c0-.1,0,0,0,0l-.2-.2s0,0,0,0l-.2-.2s0,0,0,.1v-.2c0,0,0,0,0,.2v-.3c0,0,0,.1,0,.2v-.3c0,0,0,0,0,.2v-.2c.1,0,0,0,0,.1l.2-.2s0,0-.1.1l.2-.2s0,0-.2,0h.2c0,0-.1,0-.2,0h.3c0,0-.1,0-.2,0h.3c0,0-.1,0-.2,0h.2c0,.1,0,0,0,0l.2.2h0s.2.2.2.2c0,0,0,0,0,0v.2c.1,0,0,0,0,0v.3s0,0,0,0v.3s0,0,0,0v.2q-.1,0-.1,0l-.2.2h0l-.2.2h0-.2q0,.1,0,.1h-.3s0,0,0,0h-.3c.1,0,.3,0,.4,0,.1,0,.3,0,.4-.1s.2-.2.3-.3c0,0,.2-.2.2-.4v-.3c0-.2,0-.4,0-.5l-.2-.2c-.1-.1-.3-.2-.5-.3h0Z"/>
      <path d="M112.8,60.4c0,.1.1.3.2.4.1.3,0-.2,0,.1,0,.2.2.5.3.7.2.5.3.9.5,1.4.3,1,.5,1.9.6,2.9,0,.6.8.9,1.3.7.6-.2.8-.7.7-1.3-.3-2.1-.9-4.1-1.8-6-.2-.5-1-.7-1.4-.4-.5.3-.6.9-.4,1.4h0Z"/>
      <path d="M92.9,189.1c.5.7.9,1.5,1.2,2.3v-.2c0,.2,0,.5.2.7,0,.3.2.5.5.6.2.1.6.2.8.1.5-.2.9-.7.7-1.3-.4-1.1-.9-2.2-1.6-3.2-.2-.2-.3-.4-.6-.5-.2,0-.6,0-.8.1-.4.3-.7.9-.4,1.4h0Z"/>
      <path d="M82.7,242l.8-5.6c0-.5-.1-1.2-.7-1.3-.5-.1-1.2.1-1.3.7-.3,1.9-.5,3.7-.8,5.6,0,.5.1,1.2.7,1.3.5.1,1.2-.1,1.3-.7h0Z"/>
      <path d="M38.9,154.8c13.2,9,29.1,13,44.6,16.1,17.6,3.5,35.5,6.2,53.4,7.2,10.2.6,20.5.5,30.7-.2,1.3-.1,1.4-2.2,0-2.1-17.9,1.3-35.8.4-53.5-1.9-8.9-1.1-17.8-2.6-26.7-4.3-7.9-1.5-15.8-3.2-23.5-5.5-8.5-2.6-16.7-6-24-11-1.1-.8-2.2,1.1-1.1,1.8h0Z"/>
      <path d="M100,172.1c-1.1.2-1.2,1.6-1.4,2.6-.2,1-.4,2.1-.7,3.1-.4,2.1-.9,4.3-1.3,6.4-.3,1.3,1.8,1.9,2,.6.4-1.9.8-3.8,1.2-5.6.2-.9.4-1.9.6-2.8,0-.4.2-.9.3-1.3,0-.2,0-.4.1-.7,0-.1,0-.3,0-.4q0-.2,0,0l-.5.3h.1c1.3-.3.8-2.3-.6-2.1h0Z"/>
      <path d="M100.7,198.1c3.4-7.7,6.8-15.3,10.1-23,.5-1.2-1.3-2.3-1.8-1.1-3.4,7.7-6.8,15.3-10.1,23-.5,1.2,1.3,2.3,1.8,1.1h0Z"/>
      <path d="M82.8,170.9c3.9,6.2,7.4,12.7,10.7,19.2.6,1.2,2.4.1,1.8-1.1-3.3-6.6-6.9-13-10.7-19.2-.7-1.1-2.5,0-1.8,1.1h0Z"/>
      <path d="M55.9,123.4c3.1-2.8,6.3-5.5,9.6-8.1.4-.3.7-.9.4-1.4-.3-.4-1-.7-1.4-.4-3.5,2.7-6.8,5.5-10,8.4-1,.9.5,2.4,1.5,1.5h0Z"/>
      <path d="M65.3,113.4h0c-.3-.1-.8,0-1,.3h0c-.3.4-.4.9-.2,1.3.2.5.7.5,1.2.6.4,0,.8.2,1.1.3.7.2,1.4.4,2.1.6,1.5.4,2.9.8,4.3,1.3.5.2,1.2-.2,1.3-.7.2-.6-.2-1.1-.7-1.3-2.7-.9-5.4-1.6-8.1-2.3l.6.5h0c0,.4-.1.8-.2,1.2h0s-1,.2-1,.2h0c.5.2,1.2-.2,1.3-.7.2-.6-.2-1.1-.7-1.3h0Z"/>
      <path d="M73.1,97.4c-1.5,3.2-3.9,5.9-6.2,8.7-1.1,1.3-2.3,2.7-3.1,4.2-.5,1.2-1.3,4,.5,4.4.6.2,1.1-.2,1.3-.7h0c.4-1.3-1.6-1.9-2-.6h0c0,0,1.3-.7,1.3-.7l.5.3v-.2c0-.1,0-.3,0-.5,0-.4.2-.8.3-1.1.3-.7.7-1.2,1.2-1.8.9-1.2,2-2.4,2.9-3.5,1.9-2.3,3.8-4.7,5.1-7.4.6-1.2-1.2-2.3-1.8-1.1h0Z"/>
      <path d="M74.7,104.8c-1.4,3.3-3.4,6.4-5.9,9.1-.9,1,.6,2.5,1.5,1.5,2.8-2.9,4.9-6.3,6.5-10,.2-.5-.2-1.2-.7-1.3-.6-.2-1.1.2-1.3.7h0Z"/>
      <path d="M73.7,100c-1.7,2-3.3,4.2-4.7,6.4-.7,1.1-1.4,2.2-2,3.3-.4.8-.9,2.2-1.8,2.5l1.2,1.5c1.8-4,4.8-7.2,7.7-10.4.9-1-.5-2.4-1.5-1.5-3.4,3.1-6,6.9-7.7,11.2-.4,1,1.1,1.8,1.8,1,3.2-3.7,6.4-7.4,9.6-11.2l-1.5-1.5c-3,3.6-5.6,7.4-7.9,11.4-.6,1,.8,2.2,1.7,1.3,2.5-2.9,5.1-5.9,7.6-8.8l-1.7-1.3c-1.7,2.4-3.4,4.8-5.1,7.3-.8,1.1,1,2.2,1.8,1.1,1.7-2.4,3.4-4.8,5.1-7.3.7-1-.9-2.2-1.7-1.3-2.5,2.9-5.1,5.9-7.6,8.8l1.7,1.3c2.2-3.9,4.7-7.6,7.6-11,.9-1-.6-2.5-1.5-1.5-3.2,3.7-6.4,7.4-9.6,11.2l1.8,1c1.5-3.9,4-7.4,7.1-10.3l-1.5-1.5c-3.1,3.3-6.1,6.7-8,10.8-.3.8.2,1.9,1.2,1.5,1.2-.4,1.9-1.3,2.5-2.4.7-1.2,1.3-2.4,2.1-3.6,1.5-2.3,3.1-4.6,4.9-6.7.4-.4.4-1.1,0-1.5-.4-.4-1.1-.4-1.5,0h0Z"/>
      <path d="M70.9,113.1v-.8c.2-.3.2-.6,0-.8-.1-.2-.3-.3-.5-.4-.5-.2-1,0-1.3.4-.6.9-1.1,1.8-1.4,2.8l2.1.3c0,0,0-.1,0-.2v.3c0-.2,0-.5.2-.7v.2c0-.4.2-.8.4-1.2.2-.5.2-1,0-1.4,0-.2-.3-.5-.5-.6-.2-.1-.5-.2-.8-.1-.7.2-1.3.7-1.8,1.3-.2.2-.4.4-.6.7,0,0-.1,0-.2.2-.1.1,0,0,0,0,0,0,0,0,0,0-.1,0-.3.2-.4.2h.2c0-.1,0,0,0,0l1.3,1c0-.5.1-1,.2-1.5,0-.6-.3-1.2-1-1.3-.8-.1-1.6.9-1.1,1.6.3.5.9.7,1.4.4.5-.3.7-.9.4-1.4h0c0,.3,0,.7,0,1h0c-.1,0-.2.2-.4.3h0s-.8,0-.8,0h0c-.2-.2-.4-.3-.6-.5h0s-.1-.2-.1-.2h0s0-.1,0-.2c0,.5-.1,1.1-.2,1.6,0,.6.7,1.3,1.3,1,.4-.2.8-.4,1.1-.7.2-.2.4-.4.6-.6s.4-.4.6-.6c0,0,0,0,.2-.1,0,0,.2-.1,0,0s0,0,0,0c.1,0,.2-.2.4-.2h-.2c0,0,.1,0,.2,0l-1.3-.7s0,0,0,0v-.3c0,.1,0,.3,0,.4v-.3c0,.2,0,.5-.2.7v-.2c-.2.7-.5,1.3-.5,2.1,0,.5.4,1,.9,1,.5,0,1-.3,1.2-.8,0-.2.1-.3.2-.5v.2c.2-.7.6-1.4,1-2.1l-1.9-.8v.8c-.2.3-.2.5,0,.8.1.2.4.4.6.5.3,0,.6,0,.8-.1.2-.1.4-.4.5-.6h0Z"/>
      <path d="M57.5,86.3c.8,4.8,1.7,9.6,2.5,14.3.8,4.5,1.6,8.9,3.5,13.1.5,1.2,2.3.2,1.8-1.1-1.8-4.2-2.6-8.7-3.4-13.1s-1.6-9.2-2.4-13.8c-.2-1.3-2.3-.8-2,.6h0Z"/>
      <path d="M62.5,53.3c0,0,.1,0,.2,0,.2,0,0,0,0,0h.2s.2,0,.1,0c-.1,0,.2,0,.2,0,0,0,.1,0,.2,0s.1,0,.2,0c0,0,0,0,0,0,.1,0,.3.2.4.2,0,0,.1,0,.2.1.1,0,0,0,0,0,.2.2.4.4.7.6.4.4.8.9,1.2,1.4.2.2.4.5.6.7,0,0,0,.1.1.2,0,0,0,0,0,0,.1.2.2.3.3.4.3.4.9.7,1.4.4.4-.3.7-1,.4-1.4-.9-1.2-1.8-2.4-2.9-3.4s-2.6-1.9-4.2-1.4c-.5.2-.9.7-.7,1.3s.7.9,1.3.7h0Z"/>
      <path d="M78.9,87.7l.4-4.1c.2-1.4.5-2.8.2-4.2-.1-.6-.8-.9-1.3-.7-.6.2-.8.7-.7,1.3s0,1.2,0,1.8l-.2,2-.4,3.9c0,.6.5,1.1,1.1,1.1s1-.5,1.1-1.1h0Z"/>
      <path d="M95.4,88.8c3.4.4,6.9.7,10.3,1,.6,0,1.1-.5,1.1-1.1s-.5-1-1.1-1.1c-3.5-.3-6.9-.6-10.3-1-.6,0-1.1.5-1.1,1.1s.5,1,1.1,1.1h0Z"/>
    </g>
  </g>
</svg>