<?xml version="1.0" encoding="UTF-8"?>
<svg id="Calque_2" xmlns="http://www.w3.org/2000/svg" version="1.1" viewBox="0 0 116.8 270">
  <!-- Generator: Adobe Illustrator 29.2.1, SVG Export Plug-In . SVG Version: 2.1.0 Build 116)  -->
  <defs>
    <style>
      .st0 {
        fill: #202020;
      }
    </style>
  </defs>
  <g id="Calque_1-2">
    <g>
      <path class="st0" d="M52.2,154.3h0c-.6.2-1.5,1.2-2.4,1.5-6.4,1.9-12.6.4-19-.9.5,2.4,1.8,4.7-1.7,2.9,1.3-2.7-2.4-4.8-2.4-5.6.3-2.5,9,1.7,10.6,1.9,5.1.8,11.5.6,15.6-2.8,0,1-.4,2-.6,3h1.2c-1,6.6,3.3,25-1.7,29.5-7,6.3-20.9-2.6-26.5-7.5-1.1-1-2.5-2.1-2.7-3.6l-3.2,1.7c-1.9-.6-3.6-4.7-5-5.1-2-.6-5.4-.7-7.3.5-.9-2.6-.8-5.1,0-7.7l-2.4-.6,6.8,57.7,23.5,6.2,14.9,2.1h-12.8c-1.3,0-11.2-2.7-13.4-3.3-4.2-1.1-8.4-2.4-12.5-3.9,0,2.4-.2,5-.6,7.4-.2.9.4,1-1.2.9,0-2.7,0-5.9-.6-8.6-.3-1.5-.5-.9-1.8-.9l1.8-.9c-1.8-17.1-5.3-34-6.6-51.1-.5-6.5-.2-13.1-.6-19.6-.7-11.5-2.6-22.9-1.8-34.5l1.2.9c.9-7.8,1.2-15.6,1.2-23.5s-.7-8.3,0-13.6c1.3-10,5.3-19.9,7.1-29.8-4.7-.5-6.6-4.1-6.4-8.5,0-4.8,9.1-4.3,10.2-6.1,1-1.6-.9-4.2,2.4-6.5,5-3.5,8.4.9,10.5.4,1.3-.3,8.3-6.9,8.1-8.4s-2.1-5-2.6-7S28.7.2,31.5-.4c3.4-.8,5.7,14.7,5.1,17.2,4.7-1.9,8.8-10.4,14-10.7,6.3-.4,16.6,2.3,22.3,5.1,5,2.4,12.9,8.7,10.9,15-1.7,5.3-7.1-1.9-10.3-1.4,1.7,1.8,4,3,5.7,4.5s4.8,6.4,6.2,6.9c2.9,1,9.6-2.9,10.1-6,.6-3.7.4-14-5.3-12.2,0-3.5,3.1-3.1,5.1-1.2,3.1,3,3.6,12.5,1.7,16-1.4,2.5-6.8,5.9-9.8,5.4,1.9,3.6,2.4,6.9,3.4,10.6s3.3,5.3.5,9.6c-1.8,2.9-3.9,1.9-6.2,2.7-1.5.5-3.1,2.1-4.9,2.8-5.5,2-8.9.5-14.1.2,3.7,8.8,4.9,18.4,7.6,27.5,2.2,7.5,5.9,15.5,7.7,22.6,1.8,7.1,1.9,14.6,3.3,21.7,2.4,12.5,7.3,23.9,9.2,37.1,1.1,7.9.6,14.9,1.3,22.5.7,8.7,4.3,19.6,2.9,28.5-.2,1.5-1.4,3.8-2.9,2.3l-.3-1.4-10.3,3,.5,28.5c11,1.8,22.9,4.8,31.5,12.2-.5.9-1.1.8-2,.9-3.8.4-17.4-3.2-21.7-4.5s-8.3-3-12.5-4.5l1.2-1.4,1.1-30.7c-18.1,3.3-36.4.9-54.7,1.2,2.6,8.5,1.9,17.4,1.9,26.1,6.3,2,11.9,5.5,17.8,8.1,2,.9,8,1.6,7.7,4.2,0,.7-2.4.3-3.1.2-4.1-.8-13.9-3.4-17.7-4.9-.8-.3-2.7-1.3-3-2.1h5.9l-10-4.8c-.1-9,.2-18-1.8-26.9-3-.6-6.2-.8-9.3-1.5-1-.2-1.7.6-1.4-1.2,2.7.4,6,1,8.7.6,2.1-.3,3.4-2.7,4.4.3,13.2,0,27,1.1,40.2.3,6-.3,12.5-1.8,17.7-2.4,2.9-.4,6.2-1.6,9.2-1.9,1.9-1.7-.8-17.6-1.1-21-.2-2.7.3-5.6,0-8.3-1.3-13.5-3.8-26.8-6.5-40.1-.5-.6-4.5,2.4-5,2.4h-11c1.9,5.8,4.2,11.5,3.6,17.8h-1.8c-.7-.5-2.4-14.8-3.7-17.4-.5-.9-1.7-.9-1.7-1.4l.6-2c3,1.5,6.9,1.5,10.3,1.1,2-.2,7.7-1.2,7.5-3.8-4.8-11.2-4.5-23.3-6.9-34.8-1.6-7.6-5.1-15.1-7.2-22.6-2.9-10.3-5.2-20.9-8.6-31.1-4-2.4-8.1-5.1-11-8.8-.7-1-1.8-3.7-2.1-3.9-.7-.4-4.6,1.5-4.8-3.2-1.3.5,0,3.1-2.4,1.5-1-.6-1-3.5-2-3.7-3.2.7-5.2,3.2-8.8,3.2s-6.2-.9-7.9-1.5c-2-.7-3.9-2.8-5.4-3-3.1-.5-7.1,1.8-10.4.6l8.3-2.4-2.4-6.5c-5.3,1.3-10.6,1.5-8.7,8.4l5.7,2.3-1.2,4.2c17.6.6,26,21.1,31.8,35.1.8.8,13.4,3.5,15.4,3.6,4,.3,10.3,0,9.8-5.4,1.6-.4,1.3.9,1.2,2.1-1.1,10.1-20.5,4.1-26.2,1.5-.2.2,2.9,5.3,0,4.8-6.3-16.3-13.8-36.3-32.7-41-.6,1,0,6.1,0,7.3-1.6,11.8-4.7,23.9-5.3,35.8-.2,2.3,0,4.6,0,6.9,1.6-.6,1.1-3,1.8-4.4l-1.2-.7c1.2-5.8,1.8-11.8,4-17.4.3-.9-.4-1.6,1.3-1.3,1,10.8-2.9,21.1-3.6,31.8-.4,7.1,1,12.7,1,19.5s-1.2,9,1.4,16.9c1.4,4.1,2.7,8.2,4.2,12.3-3.4,1.2-4.5,5.8-4.7,9.2l7,1.1,4.3,4.3c.2-1.4-1.4-2-1.6-3.3-.2-2,.6-7.4,3.4-7.4l-4.5-3.6-.6,2.4c-.8-.6-.9-1.6-1.1-2.5-3.4-13.7-6.6-60.9-1.7-72.9.5-1.3,1.2-2.3,2.2-3.2l-2,8.1c-.8,16.5-.4,34,1.1,50.5.2,2,1.7,14.6,2.1,15.2.3.4,4.5,2.1,6,4.1,2.4,3.2,1.8,7.5,6.5,9.5,1.1-2.1-.5-3.9-.9-5.9.9-.8,6,2.5,7.1,3.3l-3.6-.9c-.2.2.7,5.6,1,6.4.8,2.4,3.2,4.6,3.2,7s-2.8.6-3,2.1c5.7,1.3,15.9,7,17.7-2.2,1.6-8.6-1.2-14.9.7-23.9l.4-.2h-.1ZM29.3,33.9h0c3.4-3.3,3.6-8.9,7.4-11.9,2.7-2.2,10.4-5.5,13.8-6.4,5.9-1.6,12-2.4,17.4,1l-2.4.9c2.3,4.8,4.7,3.8,8.7,5,2.3.7,4.3,2.5,6.5,3.6,2.5-2.9,0-5.8-2.2-8-5.2-5.4-21.3-11.4-28.7-9.7-2.2.5-8.8,8.2-11.1,10.3-3.6,3.3-7.6,6.3-11.3,9.5,1.2,2,2.3,2.9,1.8,5.6h.1ZM69.4,24.1h0c-3.7-3.1-13.2-10.6-17.6-5.9-.4.3-3.9,5.3-3.9,5.6-.8,2.7,2.2,16.1,3.2,19.5.7,2.6,2.8,8.4,4.3,10.5,6.4,8.9,21.5,13.5,29.4,3.9,3.6-4.4,4-7.3,1.6-12.3-3.5-7-11-16.4-17-21.4h0ZM35,30.9h0c-2.6,3.7-4.3,6-8.3,8.7-1.2.8-2.8,1.3-3.9,2-.6.3-1.1,0-.8,1.3,3,2,11.3,4.6,14.1,1.7.5-.6.4-2,.8-2.2.5-.4,1.8,0,2.2-.2.3-.2.2-2.4,1.6-2.9,1.5-.6.9,2.5,2.1,2.4l.3-4.8,2.1-.6.6,1.8c-.7-1.4,1.2-2,1.2-2.2,0-.8-.6-1.9-.6-2.9,0-2.1.4-12.5-2.7-12-.3,0-4.4,1.9-4.8,2.1-.5.3-3.2,3.1-3.5,3.6-.7,1.5-.3,3.8-.4,4,0,0,0,.2,0,.2ZM22.6,28.8c-3.2-3.1-7.8-1.4-7.1,3.3l7.1-3.3ZM16.8,34h0c-.9,1,1.8,6.1,3.3,6.4l8.5-5-3-1.2c.5-.5,1.2-1.1,1.2-1.8.7-5.2-8,1.9-10.1,1.5h.1ZM2,121.8l1.4.6c2.1,0-.3-12-.3-13.7-1,0-.6,1.4-.6,2.1-.2,3.7,0,7.4-.6,11h.1ZM1.7,122.9h0l2.1,30.4.5,1,6.4,2.5-1.8-7.1-.6,3.6c-.8.2-.9-1-1-1.6-2.1-8.7-3.1-18.8-3.1-27.7l-2.4-1h-.1ZM22.5,169.1h0c.4.6,0,1.7.5,2.2,1,1.4,3.2,4.2,5,4.2l-2.4-2.7,2.4-.3c0-.6.2-1.2,0-1.7-.5-.9-5.8-4.1-6.7-5.5-2,2.3.8,2.8,1.3,3.7h0ZM83.8,258.5h0l-.6,2.4,23.8,5.4-8.4-3.7-14.7-4h0Z"/>
      <path class="st0" d="M10.2,53.4h0c3.2.3,5.3,2,7.4,4.2,6.5,6.9,19.1,26.2,19.9,35.4,0,.7.4,7-1.2,5.1-1.3-12.3-7.8-23.4-15.5-32.7,2.9,8.5,7.3,16.4,8.8,25.4,2.3,13.6-1.3,27.5-10.8,37.6-.9-.5.2-1.5.4-2,4-9.3,8.8-15.7,8.9-26.8,0-10-5.9-26-10.1-35.2-1.9-4.2-4.2-8.1-7.8-10.9h0Z"/>
      <path class="st0" d="M66,98.7h0c1.6-.3,1.1.4,1.5,1.2,3,6.1,6.3,22.3,2.1,28.2-2.6,3.6-9.4,4.1-13.4,3.9-5.5-.2-8.5-1.8-13.3-4.2-.2-1,1.3-.4,1.9-.4,3,.5,5.9,1.9,9.1,2.2,5.4.5,10.4,0,15.2-2.4-1.9-2.1,0-2.9,0-5,.4-8.3-1.5-15.5-3-23.5,0,0,0,0,0,0Z"/>
      <path class="st0" d="M41.1,99.8c1.4.7,1.7,2.9,2.1,4.2.8,2.7,3.9,20.2,2.7,21.4h-1.8l-3-25.6Z"/>
      <path class="st0" d="M45.8,101.1h11.6c1.3,0,6.8-4.8,8.6-3.9-4.9,5.7-10.4,7.4-17.7,5.2-.9-.3-2.2-.2-2.5-1.4h0Z"/>
      <path class="st0" d="M75,175.4c3,1,4,4.3,7.6,4.6,2.7.2,4.8-2.7,7.3-2-5.2,5.7-13.5,6.4-14.9-2.7h0Z"/>
    </g>
  </g>
</svg>