<?xml version="1.0" encoding="UTF-8"?>
<svg id="Calque_2" data-name="Calque 2" xmlns="http://www.w3.org/2000/svg" viewBox="0 0 272.73 310">
  <g id="Calque_1-2" data-name="Calque 1">
    <g>
      <path d="M258.41,11.18c-.18.87-.9.79-1.56.9-5.27.85-14.17,1.3-16.33-4.73l-1.01-.13c-3.9,1.91-10.38,2.67-13.89,4.94-1.12.73-1.15,1.19-.8,2.36,1.68,5.55,13.9,5.42,18.61,5.6.54.02,1.66-.33,1.56.44l-9.22.85c-4.85-.48-12.51-1.7-12.26-8.01-.44-.52-11.95,5.23-12.31,5.81-.71,1.17-.25,3.65.71,4.67,4.33,4.62,18.36,4.19,24.37,3.85,3.34-.19,6.97-1.11,10.28-1.36.49-.04,1.67-.33,1.56.44-8.16,1.75-16.44,3.25-24.85,2.71-4.86-.31-12.48-1.86-13.55-7.53-.19-1.03.89-2.1-.3-1.87l-15.67,9.84c-2.68,4.35,10.3,8.36,13.09,8.83,6.23,1.04,13.07.74,19.18-.72l4.64-.06c-10.49,2.55-22.94,4.93-32.96-.37-2.27-1.2-5.41-3.01-5.52-5.89-.63-.56-10.06,7.69-10.24,8.37-.22.84.33,1.22.83,1.72,2.17,2.18,8.77,2.78,11.86,2.9,6.11.24,12.77-1,18.85-1.78.89-.11.65.11.63.86-8.73.63-17.66,4.03-26.42,2.03-1.34-.31-5.29-1.69-6.12-2.6-.66-.72-.14-2.02-1.46-1.66l-7.43,8.97c4.78,6.59,16.58,7.59,24.19,7.12,1.71-.11,3.6-.81,5.36-.9.49-.03,1.69-.29,1.58.46-10.3,2.92-24.99,3.63-32.44-5.35-1.08,1.84-3.35,2.22-4.02,4.49-.22.74.25,1.35.12,1.88-.36,1.48-1.86,2.01-.35,3.45l-.89.45c3.72,1.89,5.73,6.09,8.98,8.69,1.51,1.2,3.77,2.5,5.48,3.47,5.08,2.88,16.2,5.55,12.48,13.67-1.95,4.26-9.12,1.24-9.95,2.36l.45,1.78c-2.74-.32-4.02,1.23-6.9.86-9.52-1.22-15.74-2.84-22.87-9.34-1.53-1.39-2.93-3.47-4.27-4.68s-3.9-1.82-4.73-3.87c-12.3,2.29-24.8,3.54-37.3,3.61.32,2.37,1.29,5.5,1.25,7.82-.02,1.24-.8,2.99-.75,4.06.03.61.73.98.65,1.56-.29,2.08-4.49,5.06-4.28,5.34,1.69.38,3.28,1.55,4.93,2,5.91,1.62,19.03-2.78,24.29-6.11,2.45-1.55,4.71-4.75,7.35-5.19.64-.11,1.41.47,1.92.17,1.06-.63.9-4.86,3.13-3.61l-.45,2.45c1.22-.7,1.33-2.65,3.13-2.24v1.79c1-.39.57-1.79,2.24-1.34.31,1.63,1.43,2.29.9,4.47l1.58-.02c-.27,2.21.95,2.09,1.48,3.01.36.62.08,1.59.33,1.94.79,1.1,5.17,4.36,6.68,6.25.96,1.21,4.4,7.29,5.3,7.13,4.38-4.22,13.97-16.76,20.53-15.99,3.24.38,2.2,2.31,2.78,4.41,3.08,11.14,7.39,21.46,8.3,33.31.25,3.2-.22,6.63.01,9.83.31,4.27,3.51,23.86,2,26.18-.19.29-.87.33-1,.53-.93,1.49.26,30.03-.11,35.02-.74,10-3.15,20.41-4.02,30.42-.38,4.33-.09,9.15-.46,13.41-.45,5.24-1.56,10.53-2.67,15.67l3.12-.46c-6.42,5.19-14.46,7.88-22.33,10.11l-1.87,22.1c.31,1.98.79,4.3.52,6.29-.11.84-.87.59-.94.94-.2.97.62,2.26.27,2.83-1.09,1.76-23.24,6.8-26.49,7.1-1.22.11-6.03.36-6.01-1.5,1.04-2.31,4.08-3.5,6.3-4.47,7.9-3.47,16.55-5.57,24.56-8.77l.04-23.66c-5.83.84-12.31,2.69-18.13,3.12-3.94.29-9.98.55-13.88.48-6.73-.12-14.86-3.4-21.69-4.05-.23,6.59.29,13.13.9,19.68.78.1.42-1.02.44-1.56.21-5.23-1.37-11.48.24-16.34.26-.77.02-1.07,1.1-.89-1.06,9.06.41,18.22.9,27.28l-2.88-2.72c-10.7,2.34-23.43,2.29-32.46,8.98,1.25-.01,2.5.09,3.75-.05,9.93-1.08,20.59-4.78,30.54-5.7,1.25-.12,2.5-.06,3.74-.06,1.29,1.17-4.33,1.99-4.84,2.09-8.61,1.76-22.89,5.06-31.19,5.5-8.84.47-1.55-5.11,2.37-6.58,8.95-3.35,18.88-3.82,28.29-5.05-2.6-7.9-2.42-16.51-1.85-24.76l-8.88-3.86-.67,4.92c-1.91-2,1.23-5.05-1.12-6.94l.89-.21c.39-6.16.33-12.41.9-18.56.63-6.71,1.7-13.34,2.24-20.13.12-1.48.86-3.65.87-4.99,0-1.2-1.4-2.51-1.66-4.06-1.04-6.14.44-14.6,1.89-20.71.26-1.11.43-2.31,1.36-3.11l-2.05,17.22c.78,4.86.06,10.98,6.94,10.02,1.49-.21,2.47-1.49,3.84-1.08-2.56,3.28-5.67,3.54-9.39,2.02l-3.94,44.2c4.35,2.59,9.65,3.79,14.59,4.87,12.6,2.77,22.68,3.49,35.6,1.86,12.3-1.56,24.41-5.04,35.42-10.66,1.05-5.53.7-11.26,1.11-16.78,1.38-18.48,4.83-37.15,5.38-55.45.31-10.37-.2-19.63.83-30.04.54-5.51-1.24-11.46-1.74-16.95-.66-7.27-.58-13.42-1.92-20.89-1.53-8.51-4.27-16.59-6.35-24.96-.42-.65-.6-.37-1.14-.24-3.25.78-5.92,2.92-8.04,5.4-.46,1.08,2.32.44,3.32,1.14,2.46,1.74-1.14,7.91-3.1,9.36-3.46,2.55-6.16,1.15-10,.96-2.15,4.39-4.57,8.67-6.1,13.36-.43,1.32-1.4,4.38-1.56,5.6-.09.69-.04.77.67.67.85-.13,6.22-2.74,7.4-3.34,2.17-1.1,5.78-3.03,7.74-4.34,1.69-1.14,5.35-5.23,6.43-5.65.49-.19,1.72-.46,1.47.57-16.52,15.86-40.33,21.03-61.28,28.67-1.08.41-2.35.26-2.26-1.15,2.72,0,3-2.16,3.13-4.48-5.38,1.46-10.5,1.16-9.39,8.5h-1.79c-.36-4.44.59-7.17,4.93-8.71,1.96-.7,8.73-1.16,8.96-3.61.48-5.26-8.1,1.05-9.4,2.28l-4.28.65c-.99-2.64-1.82-5.38-.99-8.15,1.44-4.82,9.2-6.62,6.13-12.43-6.33,2.38-5.98,9.28-8.27,14.31-1.18,2.59-2.27,3.02-5.16,2.5-4.11-.74-8.44-5.55-5.99-9.63,1.03-1.72,6.68-3.51,4.91-6.32-.52-.82-1.89.04-2.46.26-4.3,1.62-5.94,4.76-5.34,9.34.38,2.89,3.31,5.29,4.82,7.7l-.87,2.81c-1.39-.52-2.25.95-3.76.96-4.38.03-4.05-7.67-4.92-7.62-3.85,3.49-.47,6.65,2.9,8.73,4.07,2.51,8.55,2.82,12.67,4.33,3.04,1.11,3.22,3.45,7.25,3.52,2.66.04,6.42-1.07,9.1-1.68,21.56-4.87,43.37-12.97,62.04-24.75.45.43.95.61.47,1.35-.31.47-4.18,2.96-5.02,3.48-5.86,3.68-12.85,6.69-19.33,9.08.45,6.94,2.3,14.67,6.88,20.09.73.86,3.6,3.02,3.71,3.23.27.48-.07,1.35.15,1.62.18.23,4.88,1.27,5.6,1.35,6.04.63,11.72-1.89,17.62-2.63.25,1.36-.41.69-1.05.93-5.85,2.24-12.51,3.78-18.74,2.53-11-2.21-14.24-16.92-15.77-26.27l-14.55,4.92,3.83.47c2.9-1.46,1.6-.21,2.28-.02.58.16,2.39-.28,2.4.22l-3.06,1.2c-.87,8.79-3.94,17-6.35,25.42l-1.11-1.34c-5.53,7.14-17.83,9.2-21.25-.9,1.12.4,1.49,1.71,2.28,2.41,4.64,4.14,9.94,3,15.03.36,5.55-2.88,3.93-3.71,5.53-8.78,1.74-5.51,3.76-11.04,4.45-16.8-3.09.54-6.67-.76-9.59-.41-1.27.15-13.19,3.69-13.7,4.2-1.46,5.93-1.39,12.06-1.33,18.13l-1.38-.26c-1.74-5.74.94-11.76.71-17.63-2,5.59-4.02,11.47-5.56,17.26-1.99,7.51-2.48,13.85-3.74,21.31-.08.47-.11,1.78-.76,1.69-.52-4.71-.29-8.86.56-13.52,1.56-8.55,4.78-17.43,7.04-25.84-5.04,1.39-8.56,1.48-13.2-.89-4.73-2.42-10.17-3.7-14.95-6.08-5.47-2.72-8.65-8.03-1.99-11.73,3.71.73,2.08,2.97,2.46,4.94.45,2.33,4.22,3.69,4.82,1.84.64-1.99-3.98-5.32-4.42-8.01-.52-3.25,0-6.65,2.21-9.14-17.56,1.11-35.05,4.35-51.85,9.45.69,4.49.09,9.08.39,13.58.34,5.13,2,10.49,1.34,15.67-.08.62-.34,1.41-.89.66-1.8-11.02-3.27-22.08-2.66-33.3l-1.38-.47,1.74-.95c1.51-13.58,2.43-27.21,2.3-40.87h1.79c.6,13.66-1.92,27.13-2.68,40.71l38.77-6.21c12.56-1.11,27.44-2.14,39.65-5.1,2.07-.5,4.02-1.77,6.17-2.12-1.91-4.62-.7-8.7,1.34-12.97-2.81,2.69-8.11,7.78-12.33,5.39-3.38-1.92-2.19-6.61,1.59-6.73.69.63-3.25,3.1-1.14,4.94,3.53,3.09,9.31-3.95,11.42-6.07,2.8-2.81,2.46-2.14,5.95-2.99,2.54-.62,3.36-4.32,3.45-6.61-2.16,1.66-4.19,3.43-6.57,4.83-6.61,3.91-20.26,8.77-27.68,5.93-1.76-.68-3.31-2.56-4.87-3.19-1.65-.67-3.89-.56-5.55-1.16-3.2-1.17-5.67-3.36-9.81-3.62-1.51-.09-2.36.87-3.59,1.12-7.11,1.43-22.41,5.49-28.52,1.47-3.05-2.01-4.16-6.07-.64-8.26,2.45-1.53,10.43-.33,13.96-.81,11.93-1.61,20.87-9.89,31.34-14.74,4.78-2.22,9.42-5.33,14.48-7.44,2.09-.87,11.66-3.38,12.26-3.85.64-.5.31-1.73.67-2.46,1.71-3.47,12.05-8.72,15.84-9.66,4.88-1.21,11.06-.02,14.35,4.05,1.02,1.27,1.53,3.16,2.91,4.25l.66-1.78c2.26,5.11,6.04,4.25,4.93-1.35l1.34.7c1.2-1.64,2.68-3.01,4.03-4.5,4.57-5.07,9.29-10.44,14.55-14.97,1.83-1.57,4.89-3.15,6.44-4.74.64-.66.88-1.88.99-1.95.14-.1.82.34,1.53.02,2.38-1.08,5.81-4.09,8.3-5.6C223.4,9.42,246.7.86,271.39,0c.12.09-.24.58-.44.67-2.31,1.08-7.67.52-10.3,1.78,2.97,2.23,7.06,2.03,10.51,2.91.62.16,1.4,0,1.57.89h-6.94c-2.56,0-5.89-3.21-7.26-3.49-1.69-.35-5.72,1.45-7.73,1.26-.45.41,1.21,1.99,1.56,2.24,3.07,2.15,8.64,2.24,12.31,2.69-.05.63-2.02.79-2.52.83-3.45.33-7.2.16-10.16-1.81-1.03-.69-2.65-3.03-2.85-3.08-1.4-.32-9.23,1.52-6.4,3.83.64.52,6.58,2.46,7.38,2.46h8.28ZM154.89,51.59c-3.9-3.85-11.52-2.88-16.12-.98-4.03,1.66-9.56,4.96-11.47,8.88l8.28-2.07c1.18.06,3.89,3.96,4.61,5.07,1.75,2.68,5.06,10.95,6.78,12.46.9.78,1.6.44,2.14.77.25.16,4.49,3.22,4.74,3.43.49.41.34,1.29,1.21,2.04,3.63,3.14,21.51,7.19,26.6,7.4,3.03.13,5.95-.65,8.99-.42,2.41-2.07,1.81-4.88-.22-7-2.82-2.93-11.56-5.73-15.64-8.96-3.32-2.63-5.82-6.88-9.22-9.58h-.66s-1.12,2.26-1.12,2.26l-3.36,1.76,2.12-5.15c-.04-.46-3.86-3.8-4.55-4.72-1.02-1.37-1.85-3.97-3.09-5.19ZM136.19,59.09c-11.85,2.13-23.5,5.92-33.5,12.69,1.41,1.09,2.52,3.89,3.55,4.95,1.39,1.43,8.29.27,10.54.64l27.52-3.13-8.11-15.15ZM101.75,72.95c-1.2-.84-7.16,3.32-8.6,4.07-10.73,5.53-17.76,10.14-30.46,10.61-2.61.1-7.74-1.77-9.02,2.26-1.11,3.49,1.68,4.78,4.61,5.28,11.94,2.04,19.67-3.72,30.3-3.49,3.98.09,11.75,5.11,14.24,4.51.68-.17,3.09-3.79,3.47-4.7,1.24-3.01,2.03-9.81.04-12.49-.41-.55-1.26-.21-1.84-.27-.31-.8.89-1.11.71-1.81-.26-1.01-1.72-3.17-2.91-2.22l-.52-1.74ZM171.82,90.8c2.64.22,5.78,0,8.5,0,.07,0,1.31-.44,1.12-.89-7.91.49-15.11-3.06-22.59-4.93-.4.4.84,1.34,1.11,1.58,3.17,2.78,7.69,3.89,11.86,4.24ZM188.15,93.93c-3.54-.57-6.98,1.88-9.61,4.04-1.43,1.17-10.73,10.54-10.53,11.38,2.62,2.65,2.85-.45,4.29-1.96,2.1-2.2,4-4.3,6-6.53,3.38-3.75,4.59-3.83,8.86-5.92.6-.29,1.24.29.98-1.01ZM153.81,113.5c.85.81,8.59,2.71,9.89,2.27,1.84-.63,1.32-6.13.64-7.65-1.94-4.3-7.71-10.89-12.32-12.32-.74-.23-6.63-.79-7.32-.75-7.24.4-14.38,9.22-13.32,16.51.18,1.27,1.97,4.68,3.13,3.12s1.24-3.66,3.85-4.13l2.15,1.71c1.26-1.58,2.9-2.12,4.9-1.76.67.12,1.23.89,1.73.81.79-.12,1.14-1.45,3.09-1.19,2.88.38,2.54,2.39,3.59,3.39ZM177.57,105.27c-.21.13-2.38,1.79-2.64,2.04-.37.35-2.5,2.86-2.66,3.16-.32.6-.3.71.23,1.13,5.53,1.76,8.96-1.6,10.23-6.73-1.47-1.69-3.64-.53-5.15.4ZM168.85,111.88l-2.17-.95c.08,1.58.02,4.61-1.13,5.81s-3.2.55-4.24,1.13c-.89.5-8.45,13.21-8.95,14.76.63.93,3.06,0,2.68,1.56-8.67,1.25-18.78-1.2-24.16-8.5-.32,2.73-1.98,7.01-1.83,9.62.07,1.26.93,1.62,1.18,2.44.31,1.05.09,2.37.62,3.29.21.36,3.68,2.91,4.2,2.89,8.7-2.56,16.99-6.16,25.25-9.85,1.26-5.21,2.86-10.38,5.1-15.26.56-1.23,3.8-6.36,3.45-6.94ZM145.52,112.38c-.26-.26-.63-.34-.99-.36-1.48.02-2.47,1.18-2.92,2.48l4.47-.45c.21-.19-.31-1.43-.57-1.68ZM151.91,113.61c-.37-2.14-3.25-2.56-4.02-.22l4.02.22ZM139.38,115.4l-1.11-3.13c-.84.95-2.26,1.62-2.01,3.13h3.13ZM160.41,117.19c-2.52-.31-4.83-1.58-7.36-1.81-6.82-.63-12.64,2.26-19.28,1.02-.87.16-1.08,5.47-1.1,6.6-.79-.31-.5-2.65-.47-3.38.06-1.17.33-2.19.47-3.33-1.82.07-3.55.06-3.58,2.23l-.85-.05-.28-.87-20.78,3.82c.58.84,1.07.6,1.87.57,3.6-.15,7.47-1.25,10.93-1.64,2.59-.29,5.58-.15,8.23-.49-.54,1.55-5.79.96-6.26,1.34,3.5,5.59-6.2,10.73-6.6,14.14-.11,1,.89,3.04.99,4.2,1.98,2.64,8.19-5.82,11.42-4.03-.28-4.58,2.43-8.66,2.69-12.97l1.6,2.64c4.42,5.73,12.44,7.59,19.35,7.57l9.02-15.58ZM116.11,122.11l-8.09.63c-.52.36-.33,1.85-.84,2.74-.93,1.62-4.99,3.47-5.32,4.54-1.29,4.18,5.4,8.75,7.86,6.72,1.73-1.42,2.87-12.73,6.38-14.64ZM60.62,127.93l-14.31,1.79v2.68s14.31-4.47,14.31-4.47ZM132.66,144.03l-3.3-2.22c-1.56.84-1.19,2.47-1.17,4,.56-.14,4.91-1.15,4.47-1.78ZM172.49,271.07l-1.57.43c-.67,2.65.06,5.39.24,8.06l1.34-8.49ZM169.8,296.56l-26.99,10.36-1.19,1.26c9.97.2,19.15-3.91,28.62-6.28l-.43-5.35Z"/>
      <path d="M15.42,81.41c-.85,6.72-3.7,13.42-4.79,20.03-.6,3.61-.49,7.22-1.02,10.83,11.37-1.9,9.89,7.69,4.11,13.65,1.11,1.41,3.1,3.31,2.52,5.27-.52,1.74-3.54,1.43-3.95,2.33,3.76,1.94,1.39,6.62-1.71,8.09.24,4.26,1.91,8.74,1.71,12.94-.03.69.43,1.77-.66,1.56-1.89-4.08-2.03-9.02-2.66-13.45-.63-.91-6.6.25-7.31-3.88-.65-3.76,2.11-4.84,2.1-6.6,0-1.4-1.64-2.85-1.14-5.16.47-2.19,1.9-1.58,2.96-3.11-2.9.13-7.22-3.38-4.93-6.38.11-.15,2.24-2.33,2.38-2.43,1.27-.96,5.23-1.88,5.6-3.13.59-7.1.96-14.21,2.54-21.17.41-1.81,1.93-7.93,2.88-9.11.41-.51.85-.24,1.37-.28ZM5.58,116.74c-2.14-.83-4.53,2.57-2.89,4.46.85.97,7.6,3.29,8.93,3.15,3.21-.33,6.28-7.88,3.38-10.54-1.98-1.81-6.98.67-9.32,1.24l-.1,1.68ZM6.5,131.91c1.54,1.94,7.66-.81,7.52-2.34-.06-.68-2.02-2.89-2.64-3.19-.29-.14-4.43-1.42-4.67-1.42-2.7.09-3.31,5.68.23,5.65l-.43,1.3ZM10.9,139.96c.14-.08,1.27-2.58,1.31-2.97.34-3.29-2.52-1.96-4.02-2.14-.88-.11-2.87-1.52-3.48-1.08-1.96,3.07-1.83,6.41,2.49,6.68,1.4.09,1.56-.62,2.3-.8.56-.13,1.28.38,1.4.31Z"/>
      <path d="M156.27,196.66c.14-.07.11-.74.37-.75s3.77.45,2.87,1.34l-2.17,1.2c-.86,8.05-2.02,16.08-3.21,24.08-.12.78.24.75-.88.67l2.68-24.6c-5.49.87-13.94,1.86-18.76-1.6-1.1-.79-3.17-3.1-1.38-3.77.15,2.62,3.87,3.71,6.1,3.97,2.77.34,12.08.56,14.38-.54Z"/>
      <path d="M151.91,223.65c0,.6-1.33.96-1.8,1.11-4.51,1.41-10.21.65-14.17-1.91-8.98-5.82-5.01-19.96-2.15-28.27.29,4.14-1.7,8.26-2,12.31-.35,4.7.55,10.82,4.46,13.87.77.6,5.44,2.9,6.05,2.9h9.62Z"/>
      <path d="M49.43,168.19c-.22.59-2.37.78-2.96.83-12.93,1.2-27.89-1.61-36.86-11.57,3.75,1.39,6.99,4.08,10.57,5.76,9.21,4.31,19.2,5,29.25,4.98Z"/>
      <path d="M116.55,216.49c-1.34-.59-.98-3-.84-4.2.26-2.28,5.05-15.8,4.42-16.37-3.62.28-7.91-.79-9.4-4.47,1.19.14,1.81,1.2,2.96,1.74,1.86.87,4.17,1.12,6.2.93.97-.09,1.24-1.47,2.02-.19l-5.37,22.57Z"/>
      <path d="M46.74,89.02c.1.84-.88.31-1.35.24-10.92-1.65-21.26-6.27-31.75-9.41l1.69-.39,31.42,9.56Z"/>
      <path d="M98.49,91.4c.95-.06,6.34.83,5.98,2.3-2.55,2.78-6.31,1.74-8.04-1.34.03-.43,1.55-.93,2.06-.96Z"/>
    </g>
  </g>
</svg>