<?xml version="1.0" encoding="UTF-8"?>
<svg width="auto" height="270" id="Calque_2" data-name="Calque 2" xmlns="http://www.w3.org/2000/svg" viewBox="0 0 190.01 270">
  <g id="Calque_1-2" data-name="Calque 1">
    <g>
      <path d="M151.22,83.04c.8-1.36,2.06-5.89,3.83-6.4,2.04-.58,3.8,1.47,3.63,3.42l2.98-1-.52-2.95-1.96-.52,3.48-1.25c-1.17-1.05-1.46-2.27-.99-3.73-.51-.39-2.99.86-2.48-.99l2.91.06,2.3,4.28,5.23-1.87c-1.09-1.95-1.19-2.45-3.48-2.23l3.73-2.73c.84.74-.75,1.3-.68,2.15.05.59,1.11,2.1,1.72,2.22l7.15-1.89c.14-.18-1.2-1.62-1.51-1.76-1.19-.54-2.09.89-2.95-.47,4.24-3.59,4.2,1.1,6.32,1.67,1.75.47,2.45-2.01,6.63.29,2.28,1.25,3.18,3,3.41,5.56.53,5.95-4.86,3.74-4.44,9.13l-2.98-.5.47-2.17c-.56-2.11-5.22,1.18-6.21,1.67l.78,3.23-2.49.75.47-2.21-1.16-.73-3.79,1.95.99,2.97c-1.26.22-1.54-1.46-2.72-1.48-.87-.01-1.79,1.02-2.75.99,1.55,2.65,5.85.54,7.46,2.47-2.9.12-5.65.03-8.46-.73-1.3-.35-1.92-2.18-3.82-.6-1.51,1.26-.85,3.58-1.51,5.19-1.49,3.6-9.06,6.33-12.55,6.34,1.24-1.45,3.37-1.34,4.96-2,4.67-1.93,8.24-3.85,6.74-9.7-.41-1.6-2.76-5.61-4.76-4.24-1.83,2.37-.26,4.27.02,6.74l-2.51-3.7-3.95-1.27c-.3,2.91.18,5.23.99,7.95-3.65-5.29-9.92-4.66-5.47,2.48l-21.84,8.99.46,2.95-.99-.51.5,7.96,1.98-2.98c.33,1.97-.55,3.82-.54,5.71.15,20.64-1.05,43.94-3.5,64.56-1.41,11.94-4.01,23.77-4.94,35.79l1.02.81c-.37-.05-.83-.09-.98.36-.84,2.54-.26,6.37-1.01,9.1-.64.79-.91-.05-.99-.74-.31-2.49.08-5.21-.5-7.71-3.38,1.22-6.86,2.41-10.33,3.34-7.81,2.09-19.29,5.13-27.22,4.12-.73-.09-1.54-.38-.73-.99,13.2.51,25.69-4.75,38.3-7.81,1.06-4.85.9-9.86,1.54-14.75,1.55-11.88,4.47-25.08,5.4-36.86.29-3.69-.55-7.26-.51-10.95.07-6.3,1.71-13.11,2.03-19.34.28-5.42-.73-9.93-.91-14.94-.09-2.49.88-5.98.39-8.7-3.17,4.3-6.02,12.9-13.07,10.83-1.09-.32-1.47-2.06-2.83-1.88-.81,5.65-.62,12.77-5.8,16.32-9.93,6.81-21.62-1-29.74,5.56-6.48,5.24-1.36,7.15.74,12.91,1.2-.48-.28-3.11,1.48-3.47.37,1.47,1.16,2.82,1.37,4.35.91,6.92-2.41,13.68-.03,21.4,2.32,7.53,13.68,1.48,18.84.62l.71-25.39c-6.17,1.31-18.65,4.85-21.38-2.98.48-.39,4.93,2.25,6.25,2.45,3.35.5,8.78.11,12.04-.82,2.53-.72,4.78-2.59,7.57-2.13.67,2.01-1.15,2.12-1.48,2.87-2.1,4.78-1.11,18.38-1.49,24.24-.08,1.26-.54,2.44-.52,3.71-2.35-1.14-3.76.87-5.97,1.73-4.56,1.76-13.43,3.73-16.29-1.6-2.41-4.51-.69-8.65-1.17-13.5-4.3-.79-7.65-5.21-9.4-9-.18-.13-3.57,2.24-3.72,2.49-.8,1.36.22,6.35-3.23,5.96l-1-2.98-2.03,9.42-1.46.03.49-7.96c-5.15,2.97-10.62,4.1-16.47,4.76-.5,2.3-1.05,4.65-1.37,6.99-1.22,8.89-1.37,17.85-2.06,26.78-.47,6.05-2.27,12.29-1.04,18.35.87,1.22,26.31,4.62,29.62,4.8,9.92.51,25.07.81,34.82-.03.65-.06,2.7-.36,3.11-.62.94-.63,1.57-3.82,2.9.17l10.17-.53c.12.68-.89.75-1.37.86-1.98.43-8.68.66-9.49,1.95-.57.91-1.98,12.5-2.06,14.34-.17,4.09.9,8.01.42,12.11l-10.37,5.29,8.95-.75v1.49c-3.95.48-7.81,1.52-11.65,2.53-3.42.9-10.95,3.65-13.96,3.45-.76-.05-1.44.36-1.25-.76.31-1.82,5.7-2.72,7.46-3.49,6.12-2.66,11.88-6.4,18.35-8.25l.08-5.68c-.96-6.7.53-13.9,1.47-20.61-18.01.36-36.3,1.58-54.2-1-1.74,10.94-.22,21.75-.56,32.74-2.36.23-4.8.83-7.15,1.06-5.75.56-16.99,1.67-22.33.96-3.1-.41-5.44-1.62-1.18-3.08,4.65-1.59,17.5-4.23,22.23-4.17,1.69.02,5.92,1.58,6.78.36.08-9.39-1.06-18.76.75-28.07l-11.45-3.26c0,.69-.24,2.18-1.26,1.96-2.2-1.82-1.83-5.11-1.77-7.73.2-8.4,2.32-15.98,3-23.84.29-3.36-.22-7.03.01-10.43.33-4.78,1.22-9.56,1.51-14.34-4.99-1.51-10.16-2.86-14.4-6.09-19.96-15.16-20.64-48.08,1.79-61.25,8.19-4.81,17.17-5.44,26.51-5.06.02-3.19.57-6.35,1.24-9.45,1.44-6.7,3.23-13.21,8.19-18.16.69-.69,1.76-.67,2.24-1.24.2-.23,2.03-5.04,2.24-5.72s-.02-.87-.71-.71c-4.05.98-6.23,2.13-10.86,1.35-3.05-.52-5.97-3.42-8.3-4.13-2.85-.87-4.57.55-6.1-3.35-1.75-4.45.41-5.89,1.46-9.69.62-2.25.77-4.82,1.62-7.07-.87.03-.25.95-1.44,1.28-2.61.73-11.63,1.48-13.97.45-2.21-.97-3.7-5.55-3.39-7.81.1-.74,1.02-3.94,2.15-2.88,1.93,1.8-.76,7.17,2.34,8.59,1.57.72,10.15.22,11.7-.49,1.04-.48,1.27-1.73,2.08-2.39,3.07-2.51,5.94-4.89,8.96-7.44,2.26-1.91,4.93-3.28,6.97-5.46-.39-.74-1.2.11-1.63.35-1.55.86-6.73,4.29-8.25,3.31-2.3-4.88-.76-8.25,2.72-11.82,5.66-5.78,20.27-10.62,28.29-10.39,7.08.2,9.65,8.33,15.66,10.83-.97-2.54,1.89-18.67,5.22-17.89,1.93,2.09.98,5.08.61,7.56-.66,4.38-2.28,8.37-3.73,12.51,4.75,4.86,10.65,9.79,17.05,12.25,2.89,1.11,14.94,3.4,14.54,7.12-.03.32-.59.71-.61,1.06-.04.76.36,1.54.24,2.45-.37,2.81-3.17,4.95-5.96,4.77,1.97,12.41,7.16,24.26,7.54,36.95l8.37,3.8c-5.11.48-10.07-3.21-13.44-6.69-4.24-4.38-5.31-7.67-6.34-13.56-.17-.96.03-.6.88-.62.06,4.55,2.04,9.17,5.23,12.42.46-.04.26-.83.27-1.25.08-5.98-1.99-15.49-3.5-21.38l1.01-.5-1.3-5.21c-16.38,3.39-23.69,19.91-29.56,33.82l3.98,1.26c1.22-2.22,1.76-4.76,2.97-6.98,2.33-4.26,15.02-22.3,18.45-24.31,1.15-.67,2.34-1.19,3.69-1.29,1.09.82-.07.85-.38,1.14-2.89,2.7-3.3,2.93-6.48,4.8-1.06.62-12.14,18.21-13.36,20.58-1.25,2.44-1.87,4.91-3.19,7.27l9.33,13.86c2.09,1.24,17.05-7.5,20.3-8.12l.45-2.7c-8.79-.81-15.41-9.91-14.87-18.43l4.37,9.29c3.75,7.14,11.12,7.49,18.04,8.87,8.1-3.12,16.54-5.21,24.83-7.73-.36.6-.62,1.13-1.35,1.38-7.22,1.96-13.88,5.47-20.89,7.96-.4.14-1.69.29-.87-.4l.03-.46-7.25,2.71.99,1.23c-4.05,1.01-7.72,3.24-11.66,4.5-.47.15-2.27,1.05-2.26-.01l10.3-3.87.38-1.12-13.04,5.34c-1.45,2.32-5.74,1.3-6.08,4.33l1.43.83-.45,1.44,13.42-4.97c.11-.92-1.01-.39-1.51-.27-1.93.46-3.99,1.59-5.92,2.05-.5.12-1.63.65-1.51-.27l41.47-14.37c.78-5.53,4.01-1.6,5.47-2.06,1.1-.35.46-3.31,3.49-2.97,1.85.21,2.88,1.74,5.47.06l.29-4.03c-1.33.38-2.62.69-3.98.99,2.27-1.58-.4-3.74-1.64-3.43-.98.19-3.28,3.98-2.83,4.42,1.44-.57,2.99-.66,4.47-.99-1.71,1.19-3.91,1.37-5.97,1.99ZM112.93,50.73l-1.48-3.69c2.87-2.89,6.76-1.18,5.93-6.47-.61-3.89-8.77-4.65-12.04-5.86-6.89-2.54-16.19-10.47-21.75-15.54-2.37-2.16-8.13-9.37-10.42-9.96-7.36-1.92-23.49,4.18-28.87,9.45-2.12,2.08-4.85,5.26-2.7,8.23,2.52-.84,4.68-2.9,7.19-3.74,3.91-1.31,6.33-.65,8.94-4.98l-2.98-.73c1.99-.72,3.55-2.14,5.76-2.45,7.42-1.03,24.25,4.31,28.25,10.95,1.98,3.28,2.95,7.72,5.78,10.63,2.8,2.87,9.28,5.06,13.15,6.24,2.22.68,4.48.98,6.73,1.48-.23.72-2.62.97-3.25,1.01-.9.06-2.2-.69-2.72-.31-.77,2.67-.33,4.73-2.97,6.5l7.46-.75ZM72.32,21.73c-1.63-2.28-.88-4.07-4.87-4.34-6.52-.44-16.68,9.21-20.91,13.94-2.71,3.03-10.78,13.76-11.58,17.26-2.28,10.03,9.14,16.62,18.01,15.02,15.91-2.88,20.17-20.26,21.61-34.07.26-2.46.83-4.61-.7-6.64-.46-.61-1.28-.78-1.56-1.16ZM86.27,26.69c-.88-1.19-1.45-2.14-2.82-2.9-1.11-.62-5.23-2.42-6.08-1.39-.9,1.08-1.11,10.2-1.27,12.14-.17,2.07-1.72,2.19.11,4.44.94,1.15,2.39,1.16,1.92,3.31l4.9-2.06.31-1.92c2.61,2.43,2.43,2.96,1.75,6.46l2.23-1.98c1.63,1.21,1.44,3.31,2.51,4.94,2.64,4.03,10.41,4.58,14.1,1.72,5.51-4.27-1.75-5.67-4.59-7.25-1.86-1.04-6.89-3.91-8.08-5.34-.94-1.14-1.43-3.24-2.19-4.64-.23-.43-1.01-.53-1.24-.89-.36-.56.08-2.55-.37-3.61-.29-.69-.96-.72-1.19-1.02ZM101.74,53.22c-2.56.15-5.36,0-7.96,0-2.24,0-5.98-3.41-6.96-5.46-.85-.03-3.06,6.26-5.49,3.99-.65-1.01.55-2.91-1.22-2.51-.39,3.52-3.75,7.19-7.46,6.96l2.54-2.22-.06-1.75-1.79,1.96-1.69-.76c-2.16,2.84-4.64,5.32-7.49,7.46-.97.72-3.81,1.85-4.32,2.39-.88.94-6.98,22.06-7.46,24.61-.51,2.68-.94,8.67-.65,11.33.08.75.05,1.24.77,1.7,1.47-1.44,4.52-.92,4.24-3.47,2.99,1.34,5.9-2.45,7.44-4.73.17-1.08-.16-.58-.71-.75-4.78-1.49-10.21-.15-9.22-7.94,1.88-.08.44,2.05,1.85,3.5,1.77,1.81,7.89,2.53,10.22,1.86.76-.22,2.83-2.2,4.15-2.81,3.19-1.49,7.71-2.25,11.12-1.55,1.8-6.69,5.14-13.81,9.05-19.54,3.12-4.57,7.7-10.16,12.83-12.28,0-1.21-1.42-.01-1.74,0ZM183.55,79.08c-.31.47.43,1.62,1.18,1.44,6.33-2.25,3.63-12.34-2.2-11.19-3.62.71-9.53,2.99-13.29,4.14-.98.3-6.81,1.88-7.01,2.19s-.16,2.77-.03,2.89l1.46.28c-2.27.8-1.39,2.73-1.49,4.72l2.49-.25-2.49.75c-.03,1.71,1.07,4.12,2.98,2.98l.24,1.48,3.18-2.09-.34-1.13.64-.66c.59.27,1.09.4,1.74.21,2.48-.73,7.12-4.1,10.12-5.36,1.18-.5,2.46-.74,3.58-1.39,1.99.16-.72.94-.75.99ZM54.74,139.22c-1-.19-.81-1.05-.99-1.74-3.2-12.58-5.43-41.73-2.34-54.04.9-3.61,3.25-7.29,3.33-11.33-5.33,4.38-6.82,10.43-8.21,16.9-3.12,14.54-1,25.58,1.89,39.88,1.01,4.99,2.91,9.82,3.33,14.81l-3.58-10.08-1.11-.86-24.14,9.94,24.87-10.94-.76-2.49-7.7,2.49c.41-2.75,2.85-1.37,3.4-1.59.07-.03.12-.74.43-.88.76-.34,3.39-1.17,3.5-1.72l-.85-2.56-3,.29,3-1.27c-1.22-6.78-2.39-13.47-2.9-20.35-.06-.84,1.06-2.18-.43-2.66-3.13-1-14.57,1.07-18.07,2.16-31.2,9.71-29.25,56.69-.4,66.01,9.99,3.23,19.02,1.25,27.53-4.63-.5-4.49.41-8.98,1.21-13.41-2.12,2.55-2.67,6.37-4.55,9.11-1.18,1.72-3.97,4.61-6.13,4.82-.95.09-2.81.27-3.17-.83-1.17-3.51,7.04-11.16,9.14-14.09.72.36-.08,1.22-.34,1.64-1.06,1.71-8.68,10.49-7.36,11.77,2.2.56,4.48-1.83,5.73-3.47,1.71-2.23,3.38-7.45,4.96-8.96,1.2-1.15,2.44-.11,2.75,1.27-.65,4.62-1.62,9.25-.5,13.89.18.75-.35.87.98.75l1.5-15.66c.03-.65.54-1.4,1.23-1.24.43.1,2.57,7.05,3.15,8.28,1.03,2.18,9.3,15.04,10.02,7.32.28-2.98-5.84-13.04-7.2-16.61-.57-1.5-.96-3.07-1.28-4.64,2.99-2.06,14.13-9.4,7.68-13.19-2.99-1.76-4.31,3.4-6.64,5.17-.95.72-4.05,2.57-3.99.24,2.27-.05,4.07-1.5,4.97-3.48-3.08.73-5.68,2.39-8.95,1.49v4.47ZM162.13,88.47l-.97-3.93-2.98,1,1.5,3.97,2.45-1.04ZM56.74,112.87c1.62.16,4.14.22,5.6.62,1.29.35,3.75,2.2,4.6,2.19.69,0,1.72-1.14,2.73-.81l-1.99,1,1.79,2.94,13.13-5.42c-1.36,1.53-3.89,1.89-5.59,3-.67.44-1.23,1.71-2.01,2.1-1.81.91-5.85.79-4.59,3.83l29.59-12.66c-.67-.95-1.03-.76-1.98-.53-2.88.68-7.71,3.4-10.82,4.62-2.91,1.14-6.02,2.47-9.07,3.1l20.88-9.2c-.1-2-2.95.77-3.97.25l3.48-1.49c.12-1.19-.65-1.53-1.69-1.48-3.12.15-7.94,3.09-11.24,3.47l11.92-4.71c-4.04-4.49-7.14-14.62-12.8-17.03-5.51-2.34-14.26-.14-18.02,4.6-1.12,1.41-1.83,3.65-3.02,4.93-2.47,2.64-8.32,4.5-11.68,5.73l.28,11.96c1.28.04,2.2-1.13,3.38-1.42,1.09-.27,1.03.43,1.09.43l-4.48,2.34.51,6.11,2.48-.5c-.2,1.05-2,.57-2.41,1.81-.31.94-.2,2.05.67,2.65l14.18-5.46c.06-1.07-.91-2.5-1.93-2.74l-4.53,1.25,3.97-2.23c.01-.92-4.68-1.95-5.75-2.2-1.13-.27-2.95.65-2.69-1.03ZM140.78,92.99c-6.62,1.76-13.13,4.14-19.52,6.58-5.84,2.24-13.13,4.99-18.68,7.68-2.46,1.19-1.81,2.44.41,1.91,11.59-5.41,24.18-9.2,35.78-14.46.84-.38,2.33-.43,2.01-1.71ZM102.49,113.86l38.28-17.16.52-.98-.75-1.24-70.42,29.02c-.49,2.47-.93,4.2-2.44,6.26,3.23-.28,5.23,2.52,4.88,5.59-.44,3.84-6.51,7.84-9.81,9.39l.96,3.42c.41.32,1.82-2.1,2.24-2.48,7.79-7.14,14.82-2.9,23.83-4.02,3.8-.47,10.43-3.49,11.21-7.68.72-3.88,1.26-10.98,1.01-14.88-.13-1.9-.97-3.97-.95-5.9,0-.37.26-2.39.96-2.31l.51,2.98ZM118.9,107.9l-15.83,6.54c-.83,8.04,4.47,14.82,11.11,6.89,3.03-3.62,5.83-8.62,4.72-13.43ZM53.26,128.77c3.69-1.77,11.56-3.37,14.61-5.52,1.29-.91,1.26-2.37-.56-2.07-4.21.69-9.37,4.23-13.76,5.05l-.29,2.54ZM68.17,124.3l-14.37,5.51c-.49,4.3,1.74,4.07,5.11,3.37,4.28-.88,8.96-4.23,9.26-8.88ZM56.24,154.63v6.96l2.51-1.78-2.51-5.18ZM32.87,259.02l-19.4,3.97,26.35-.99-.56-2.42-6.9.43.5-.99Z"/>
      <path d="M45.12,181.79c-2.96,2.74-6.89,1.71-9.94-.41-.47-.33-2.9-2.28-2.31-2.9,6.4,4.01,10.11,2.93,14.91-2.49-.04,1.9-1.29,4.53-2.65,5.79Z"/>
      <path d="M15.46,129.77c2.68,1.52,3.53,4.62,3.98,7.46l17.4-5.47-16.89,6.21c1.56,3.07,3.73,7.86,2.85,11.31-.39,1.53-1.7,2.88-3.35,2.11-3.21-1.49-5.19-16.73-5.47-20.39-.04-.55-.37-1.85.49-1.73.34,2.54,4.06,20.84,5.72,20.87,1.96-1.74.51-6.43-.1-8.84-1.03-4.08-2.94-7.73-4.62-11.53Z"/>
    </g>
  </g>
</svg>