<?xml version="1.0" encoding="UTF-8"?>
<svg id="Calque_2" xmlns="http://www.w3.org/2000/svg" version="1.1" viewBox="0 0 190 270">
  <!-- Generator: Adobe Illustrator 29.2.1, SVG Export Plug-In . SVG Version: 2.1.0 Build 116)  -->
  <defs>
    <style>
      .st0 {
        fill: #202020;
      }
    </style>
  </defs>
  <g id="Calque_1-2">
    <g>
      <path class="st0" d="M38.6,83.6h0c-2.1-.6-4.3-.8-6-2,1.5.3,3.1.4,4.5,1,.5-.4-1.8-4.2-2.8-4.4-1.2-.3-3.9,1.8-1.6,3.4-1.4-.3-2.7-.6-4-1l.3,4c2.6,1.7,3.6.2,5.5,0,3-.3,2.4,2.7,3.5,3,1.5.5,4.7-3.4,5.5,2.1l41.5,14.4c0,1-1,.4-1.5.3-1.9-.5-4-1.6-5.9-2.1-.5,0-1.6-.6-1.5.3l13.4,5-.4-1.4,1.4-.8c-.4-3-4.7-2-6.1-4.3l-13-5.3.4,1.1,10.3,3.9c0,1.1-1.8.2-2.3,0-4-1.3-7.6-3.5-11.7-4.5l1-1.2-7.2-2.7v.5c.8.7-.5.5-.9.4-7-2.5-13.7-6-20.9-8-.8-.3-1-.8-1.4-1.4,8.3,2.5,16.7,4.6,24.8,7.7,6.9-1.4,14.2-1.8,18-8.9l4.4-9.3c.5,8.5-6.1,17.6-14.9,18.4l.4,2.7c3.2.6,18.2,9.3,20.3,8.1l9.3-13.9c-1.3-2.4-2-4.9-3.2-7.3-1.3-2.4-12.3-20-13.4-20.6-3.2-1.9-3.6-2.1-6.5-4.8-.4-.3-1.5-.3-.4-1.1,1.4,0,2.5.6,3.7,1.3,3.5,2,16.2,20,18.5,24.3,1.2,2.2,1.8,4.8,3,7l4-1.3c-5.9-13.9-13.2-30.4-29.6-33.8l-1.3,5.2,1,.5c-1.5,5.9-3.5,15.4-3.5,21.4s-.2,1.2.3,1.2c3.2-3.2,5.2-7.8,5.2-12.4.9,0,1.1-.4.9.6-1,5.9-2.1,9.2-6.3,13.6-3.3,3.5-8.3,7.2-13.4,6.7l8.4-3.8c.3-12.7,5.5-24.6,7.5-37-2.8.2-5.6-2-6-4.8-.2-1,.2-1.7.2-2.5s-.6-.8-.6-1.1c-.4-3.7,11.6-6,14.5-7.1,6.3-2.4,12.2-7.3,17-12.2-1.4-4.1-3-8.1-3.7-12.5-.4-2.5-1.3-5.5.6-7.6,3.3-.8,6.2,15.4,5.2,17.9,6-2.5,8.6-10.6,15.7-10.8,8-.2,22.6,4.6,28.3,10.4,3.5,3.6,5,6.9,2.7,11.8-1.5,1-6.7-2.4-8.2-3.3-.4-.3-1.2-1.1-1.6-.4,2.1,2.2,4.7,3.6,7,5.5,3.1,2.5,5.9,4.9,9,7.4.8.7,1.1,1.9,2.1,2.4,1.6.7,10.1,1.2,11.7.5,3.1-1.4.4-6.8,2.3-8.6,1.2-1,2.1,2.2,2.2,2.9.3,2.3-1.2,6.8-3.4,7.8-2.4,1-11.4.2-14-.5-1.2-.3-.5-1.3-1.4-1.3.8,2.3,1,4.9,1.6,7.1,1.1,3.8,3.3,5.2,1.5,9.7-1.5,3.8-3.3,2.4-6.1,3.3-2.3.7-5.3,3.6-8.3,4.1-4.7.8-6.9-.3-10.9-1.3-.7-.2-.9,0-.7.7s2,5.5,2.2,5.7c.4.5,1.5.5,2.2,1.2,5,5,6.8,11.5,8.2,18.2.6,3.1,1.2,6.2,1.2,9.4,9.3-.3,18.3.3,26.5,5.1,22.4,13.1,21.8,46,1.8,61.2-4.2,3.2-9.4,4.6-14.4,6.1.3,4.7,1.2,9.5,1.5,14.3.2,3.4-.3,7,0,10.4.7,7.8,2.8,15.4,3,23.8,0,2.6.4,5.9-1.8,7.7-1.1.2-1.3-1.3-1.3-2l-11.5,3.3c1.9,9.3.8,18.7.8,28.1.9,1.2,5.1-.4,6.8-.4,4.7,0,17.6,2.6,22.2,4.2,4.2,1.5,1.9,2.7-1.2,3.1-5.3.7-16.5-.4-22.3-1-2.4-.3-4.8-.9-7.2-1.1-.4-10.9,1.1-21.8-.6-32.7-17.9,2.6-36.2,1.4-54.2,1,1,6.7,2.5,13.9,1.6,20.6v5.7c6.4,1.8,12.2,5.5,18.3,8.2,1.8.8,7.2,1.7,7.5,3.5.2,1.2-.4.8-1.2.8-3.1.1-10.6-2.6-14-3.5-3.9-1-7.8-2-11.7-2.5v-1.5l8.9.8-10.4-5.3c-.5-4.1.6-8,.4-12.1,0-1.8-1.5-13.4-2.1-14.3-.8-1.2-7.5-1.5-9.5-1.9-.5,0-1.5-.2-1.4-.9l10.2.5c1.3-4,2-.8,2.9-.2.4.2,2.4.6,3.1.6,9.7.8,24.9.5,34.8,0,3.3-.2,28.7-3.6,29.6-4.8,1.3-6.1-.5-12.3-1-18.4-.7-8.9-.9-17.9-2.1-26.8-.4-2.4-.9-4.7-1.4-7-5.9-.7-11.3-1.8-16.5-4.8l.5,7.9h-1.5l-2-9.4-1,3c-3.4.4-2.4-4.6-3.2-6-.1-.3-3.5-2.6-3.7-2.5-1.7,3.8-5.1,8.2-9.4,9-.5,4.9,1.2,9-1.2,13.5-2.9,5.3-11.7,3.4-16.3,1.6-2.2-.8-3.7-2.8-6-1.7,0-1.3-.5-2.4-.5-3.7-.4-5.8.6-19.4-1.5-24.2-.3-.8-2.2-.9-1.5-2.9,2.8-.5,5.1,1.4,7.6,2.1,3.2.9,8.7,1.3,12,.8,1.3-.2,5.7-2.8,6.2-2.4-2.7,7.9-15.2,4.3-21.4,3l.7,25.4c5.1.9,16.5,6.9,18.8-.6,2.4-7.7-.9-14.5,0-21.4.2-1.6,1-2.9,1.4-4.4,1.8.4.3,3,1.5,3.5,2.1-5.8,7.2-7.7.7-12.9-8.1-6.6-19.8,1.2-29.7-5.6-5.2-3.5-5-10.6-5.8-16.3-1.3-.2-1.7,1.6-2.8,1.9-7.1,2.1-9.9-6.5-13.1-10.8-.5,2.7.4,6.2.4,8.7-.2,5-1.2,9.5-.9,14.9.3,6.2,2,13,2,19.3s-.8,7.2-.5,10.9c.9,11.8,3.8,25,5.4,36.9.6,4.9.4,9.9,1.5,14.8,12.6,3,25.1,8.3,38.3,7.8.8.6,0,1-.7,1-7.9,1-19.4-2-27.2-4.1-3.4-.9-6.9-2.1-10.3-3.3-.5,2.5-.2,5.2-.5,7.7,0,.7-.4,1.5-1,.7-.7-2.7-.2-6.6-1-9.1-.2-.4-.6-.4-1-.4l1-.8c-.9-12-3.5-23.9-4.9-35.8-2.4-20.7-3.7-44-3.5-64.6,0-1.9-.8-3.7-.5-5.7l2,3,.5-8-1,.5.5-2.9-21.8-9c4.4-7.2-1.9-7.8-5.5-2.5.8-2.7,1.3-5,1-7.9l-3.9,1.3-2.5,3.7c.3-2.4,1.8-4.3,0-6.7-2-1.4-4.4,2.6-4.8,4.2-1.5,5.9,2,7.8,6.7,9.7,1.6.7,3.8.6,5,2-3.5,0-11.1-2.7-12.6-6.3-.6-1.6,0-3.9-1.5-5.2-1.9-1.6-2.5.3-3.8.6-2.9.7-5.6.8-8.5.7,1.6-2,5.9.2,7.5-2.5-1,0-1.9-1-2.8-1s-1.4,1.7-2.7,1.5l1-3-3.8-1.9-1.2.7.5,2.2-2.5-.8.8-3.2c-1-.5-5.6-3.8-6.2-1.7l.5,2.2-3,.5c.5-5.4-4.9-3.2-4.4-9.1.2-2.6,1.1-4.4,3.4-5.6,4.2-2.3,4.8.2,6.6-.3,2.1-.6,2.1-5.3,6.3-1.7-.8,1.4-1.7,0-2.9.5-.3.2-1.6,1.6-1.5,1.8l7.1,1.9c.6,0,1.7-1.6,1.7-2.2.1-.9-1.5-1.5-.7-2.2l3.7,2.7c-2.3-.2-2.4.3-3.5,2.2l5.2,1.9,2.3-4.3h2.9c.5,1.9-2,.6-2.5,1,.5,1.4.2,2.6-1,3.7l3.5,1.2-2,.5-.5,2.9,3,1c-.2-1.9,1.6-4,3.6-3.4,1.7.5,3,5,3.8,6.4,0,0,.7.5.7.5ZM76.2,50.6h0l7.5.8c-2.7-1.8-2.2-3.8-3-6.5-.5-.4-1.8.3-2.7.3s-3-.3-3.2-1c2.2-.5,4.5-.8,6.7-1.5,3.9-1.1,10.4-3.3,13.2-6.2,2.9-2.9,3.8-7.3,5.8-10.6,4-6.6,20.8-11.9,28.2-10.9,2.3.3,3.8,1.7,5.8,2.4l-3,.7c2.6,4.4,5,3.7,8.9,5,2.5.8,4.7,2.9,7.2,3.7,2.1-2.9-.6-6.1-2.7-8.2-5.4-5.2-21.5-11.3-28.9-9.4-2.3.6-8,7.8-10.4,10-5.6,5-14.9,13-21.8,15.5-3.2,1.2-11.4,2-12,5.9-.9,5.3,3,3.6,5.9,6.5l-1.5,3.7s0-.2,0-.2ZM116.9,21.8h0c-.3.4-1.1.6-1.6,1.2-1.5,2-1,4.1-.7,6.6,1.4,13.8,5.7,31.2,21.6,34.1,8.9,1.6,20.3-5,18-15-.8-3.5-8.9-14.3-11.6-17.3-4.2-4.7-14.4-14.3-20.9-13.9-4,.2-3.3,2-4.9,4.3h0ZM103,26.7h0c-.2.3-.9.3-1.2,1-.4,1.1,0,3-.4,3.6-.2.4-1,.5-1.2.9-.8,1.4-1.3,3.5-2.2,4.6-1.2,1.4-6.2,4.3-8.1,5.3-2.8,1.5-10.1,2.9-4.6,7.2,3.7,2.9,11.5,2.3,14.1-1.7,1.1-1.6.9-3.7,2.5-4.9l2.2,2c-.6-3.5-.8-4.1,1.8-6.5l.3,1.9,4.9,2.1c-.5-2.1,1-2.1,1.9-3.3,1.8-2.2.3-2.3,0-4.4-.2-1.9-.4-11-1.3-12.1-.9-1-5,.8-6.1,1.4-1.4.8-1.9,1.7-2.8,2.9h.2ZM87.6,53.2h0c-.3,0-1.7-1.2-1.7,0,5.1,2.1,9.7,7.7,12.8,12.3,4,5.7,7.3,12.8,9.1,19.5,3.4-.6,7.9,0,11.1,1.6,1.4.6,3.4,2.6,4.2,2.8,2.3.6,8.4,0,10.2-1.9,1.4-1.4-.1-3.5,1.8-3.5,1,7.7-4.4,6.4-9.2,7.9-.5.2-.9-.3-.7.8,1.5,2.3,4.4,6,7.4,4.7-.3,2.6,2.7,2.1,4.2,3.5.8-.5.8-.9.8-1.7.2-2.6-.2-8.6-.7-11.3-.5-2.5-6.6-23.7-7.5-24.6-.5-.6-3.3-1.7-4.3-2.4-2.9-2.2-5.3-4.7-7.5-7.5l-1.7.8-1.8-2v1.8l2.5,2.2c-3.7.2-7.1-3.5-7.5-7-1.8-.4-.5,1.5-1.2,2.5-2.4,2.3-4.7-4-5.5-4-1,2.1-4.4,5.5-7,5.5s-5.4.2-8,0c0,0,.2,0,.2,0ZM5.6,79.1c0,0-2.8-.8-.8-1,1.1.7,2.4.9,3.6,1.4,3,1.3,7.6,4.7,10.1,5.4.6.2,1.1,0,1.7-.2l.6.7-.3,1.1,3.2,2.1.2-1.5c1.9,1.1,3-1.3,3-3l-2.5-.8,2.5.2c-.1-2,.8-3.9-1.5-4.7l1.5-.3c.2,0,.2-2.6,0-2.9s-6-1.9-7-2.2c-3.8-1.1-9.7-3.4-13.3-4.1-5.8-1.1-8.5,9-2.2,11.2.8.2,1.5-.9,1.2-1.4h0ZM134.3,139.3h0v-4.5c-3.3.9-5.9-.8-9-1.5.9,2,2.7,3.5,5,3.5,0,2.4-3,.5-4-.2-2.3-1.8-3.6-7-6.6-5.2-6.4,3.8,4.7,11.1,7.7,13.2-.3,1.5-.7,3.1-1.3,4.6-1.4,3.6-7.5,13.6-7.2,16.6.7,7.7,9-5.1,10-7.3.6-1.2,2.8-8.2,3.2-8.3.7-.2,1.2.6,1.2,1.2l1.5,15.7c1.3,0,.8,0,1-.8,1.1-4.7.2-9.3-.5-13.9.4-1.4,1.6-2.4,2.8-1.3,1.6,1.6,3.3,6.8,5,9,1.2,1.7,3.5,4.1,5.7,3.5,1.3-1.3-6.3-10.1-7.4-11.8-.3-.4-1-1.2-.3-1.6,2.1,2.9,10.3,10.6,9.1,14.1-.4,1.1-2.2.8-3.2.8-2.1-.2-4.9-3.1-6.1-4.8-1.8-2.7-2.4-6.5-4.5-9.1.8,4.4,1.7,8.9,1.2,13.4,8.5,5.8,17.5,7.8,27.5,4.6,28.8-9.3,30.8-56.3-.4-66-3.5-1.1-15-3.2-18.1-2.2-1.5.5-.4,1.9-.4,2.7-.5,6.8-1.7,13.5-2.9,20.3l3,1.3-3-.3-.8,2.6c0,.5,2.7,1.4,3.5,1.7.3.2.4.9.4.9.6.2,3-1.2,3.4,1.6l-7.7-2.5-.8,2.5,24.9,10.9-24.1-9.9-1.1.9-3.6,10.1c.4-5,2.3-9.8,3.3-14.8,2.9-14.3,5-25.4,1.9-39.9-1.4-6.5-2.9-12.5-8.2-16.9,0,4,2.4,7.7,3.3,11.3,3.1,12.3.9,41.4-2.3,54-.2.6,0,1.5-1,1.7h-.1,0ZM27.1,88.6l2.4,1,1.5-4-3-1-1,3.9h.1ZM132.3,112.8h0c.3,1.7-1.6.7-2.7,1-1.1.3-5.8,1.3-5.8,2.2l4,2.2-4.5-1.2c-1,.2-1.9,1.6-1.9,2.7l14.2,5.5c.9-.6,1-1.8.7-2.7-.4-1.2-2.2-.7-2.4-1.8l2.5.5.5-6.1-4.5-2.3s0-.7,1.1-.4c1.2.3,2.1,1.4,3.4,1.4l.3-12c-3.4-1.2-9.2-3.1-11.7-5.7-1.2-1.2-1.9-3.5-3-4.9-3.7-4.7-12.5-6.9-18-4.6-5.7,2.4-8.8,12.5-12.8,17l11.9,4.7c-3.3-.4-8.1-3.3-11.2-3.5-1,0-1.8.3-1.7,1.5l3.5,1.5c-1.1.6-4-2.2-4-.2l20.9,9.2c-3.1-.6-6.2-2-9.1-3.1-3.1-1.2-7.9-3.9-10.8-4.6-1-.3-1.3-.4-2,.5l29.6,12.7c1.2-3-2.8-2.9-4.6-3.8s-1.3-1.7-2-2.1c-1.7-1.1-4.2-1.5-5.6-3l13.1,5.4,1.8-2.9-2-1c1-.3,2,.8,2.7.8s3.3-1.9,4.6-2.2c1.5-.4,4-.4,5.6-.6h-.1ZM48.3,93c-.3,1.3,1.2,1.3,2,1.7,11.6,5.3,24.2,9.1,35.8,14.5,2.2.5,2.9-.7.4-1.9-5.6-2.7-12.9-5.5-18.7-7.7-6.4-2.5-12.9-4.8-19.5-6.6h0ZM86.5,113.9h0l.5-3c.7,0,1,1.9,1,2.3,0,1.9-.8,4-.9,5.9-.3,3.9.3,11,1,14.9.8,4.2,7.4,7.2,11.2,7.7,9,1.1,16-3.1,23.8,4,.4.4,1.8,2.8,2.2,2.5l1-3.4c-3.3-1.6-9.4-5.6-9.8-9.4-.3-3.1,1.7-5.9,4.9-5.6-1.5-2.1-1.9-3.8-2.4-6.3l-70.4-29-.8,1.2.5,1,38.3,17.2h0ZM74.9,121.3c6.6,7.9,11.9,1.1,11.1-6.9l-15.8-6.5c-1.1,4.8,1.7,9.8,4.7,13.4ZM136,128.8l-.3-2.5c-4.4-.9-9.6-4.4-13.8-5.1-1.9-.3-1.9,1.2-.6,2.1,3,2.1,10.9,3.7,14.6,5.5h.1ZM130.3,133.2c3.4.7,5.6.9,5.1-3.4l-14.4-5.5c.3,4.7,5,8,9.3,8.9ZM132.9,154.7l-2.5,5.2,2.5,1.8v-7h0ZM156.3,259l.5,1-6.9-.4-.6,2.4,26.4,1-19.4-4h0Z"/>
      <path class="st0" d="M144,181.8h0c-1.4-1.3-2.7-3.9-2.7-5.8,4.8,5.4,8.5,6.5,14.9,2.5.6.6-1.8,2.6-2.3,2.9-3,2.1-6.9,3.1-9.9.4h0Z"/>
      <path class="st0" d="M173.7,129.9h0c-1.7,3.8-3.6,7.4-4.6,11.5-.6,2.4-2.1,7.1-.1,8.8,1.6,0,5.4-18.4,5.7-20.9.9-.2.5,1.1.5,1.7-.3,3.7-2.3,18.9-5.5,20.4-1.7.8-3-.6-3.4-2.1-.8-3.4,1.3-8.2,2.9-11.3l-16.9-6.2,17.4,5.5c.5-2.9,1.3-6,4-7.5h0Z"/>
    </g>
  </g>
</svg>