<svg width="173" height="88" viewBox="0 0 173 88" fill="none" xmlns="http://www.w3.org/2000/svg">
<g clip-path="url(#clip0_943_4799)">
<path d="M124.318 9.96289C122.654 9.45981 120.084 8.6366 119.674 6.65479C119.202 4.36046 121.81 2.52348 123.665 1.8832C128.317 0.282507 132.969 2.77502 136.474 5.72486C139.978 8.67471 143.11 12.402 146.918 15.1842C150.727 17.9664 155.607 19.5747 160.191 21.1754C164.068 22.5321 169.982 24.1481 171.335 28.6376C172.597 32.8376 169.571 37.0603 165.565 38.1503C160.966 39.408 156.375 37.2509 153.266 33.8818C150.157 30.5127 148.948 25.5735 145.383 22.4407C143.292 20.6113 140.905 19.0792 138.549 17.6234C136.192 16.1675 133.554 14.7269 130.947 13.4844C127.017 11.6169 121.468 10.0315 119.841 5.48095C119.544 4.64249 118.199 5.00836 118.503 5.85444C120.039 10.1458 124.41 12.059 128.271 13.7817C133.532 16.1294 138.655 18.9954 143.247 22.4864C144.417 23.3782 145.52 24.3615 146.379 25.5658C147.154 26.6406 147.762 27.8373 148.37 29.0111C149.533 31.2445 150.833 33.3711 152.589 35.1929C155.926 38.6382 160.708 40.6886 165.512 39.591C169.853 38.6 173.228 34.6745 172.977 30.1011C172.696 24.9789 167.846 22.5931 163.657 20.9619C158.519 18.9649 153.03 17.6538 148.408 14.5363C143.786 11.4188 140.594 7.11975 136.329 3.83452C132.498 0.884673 127.458 -1.19623 122.699 0.770338C120.73 1.58593 118.693 3.2476 118.305 5.45808C117.941 7.5466 119.309 9.17779 121.034 10.1306C121.954 10.6413 122.95 10.9919 123.953 11.2968C124.812 11.556 125.177 10.2144 124.326 9.95527L124.318 9.96289Z" fill="#202020"/>
<path d="M140.837 18.5599C133.585 15.6177 125.284 12.4392 117.446 15.0003C113.79 16.197 110.574 18.5599 107.625 20.9838C104.926 23.2096 102.752 25.8774 101.908 29.3303C100.35 35.6645 103.223 42.334 109.289 44.9561C116.131 47.9136 123.634 45.3067 129.084 40.741C135.318 35.5197 139.255 27.8592 140.16 19.8024C140.259 18.9106 138.875 18.9182 138.769 19.8024C138.024 26.4109 135.067 32.7375 130.468 37.5396C125.869 42.3417 119.164 46.0156 112.338 44.4912C109.259 43.7975 106.378 42.0825 104.675 39.3613C103.132 36.8993 102.592 33.8656 102.988 30.9996C103.429 27.8211 105.04 25.1837 107.366 23.0342C109.951 20.6408 113.022 18.3617 116.253 16.9287C124.158 13.4072 132.999 16.8678 140.464 19.8938C141.293 20.2292 141.65 18.8877 140.837 18.5523V18.5599Z" fill="#202020"/>
<path d="M129.655 38.5771C130.469 48.6996 121.453 56.4287 121.187 66.4139C121.096 69.9126 122.221 73.2741 123.338 76.544C123.627 77.3825 124.965 77.0243 124.676 76.1706C123.657 73.1902 122.593 70.1413 122.57 66.9551C122.548 64.516 123.14 62.1378 123.969 59.8664C125.664 55.2548 128.332 51.0702 129.921 46.4129C130.78 43.8899 131.259 41.245 131.039 38.5771C130.97 37.6929 129.579 37.6853 129.648 38.5771H129.655Z" fill="#202020"/>
<path d="M153.92 36.1374C154.383 39.3617 154.269 42.6774 153.555 45.8559C153.152 47.6472 152.019 53.0209 149.108 51.405C148.051 50.8181 147.337 49.6671 146.584 48.7524C145.771 47.7615 144.813 46.9154 143.741 46.2218C141.59 44.8269 138.96 44.118 136.398 44.301C133.38 44.5144 130.537 45.8483 128.416 48.0054L129.602 48.5009C129.518 46.3133 129.944 43.9351 131.16 42.0752C131.837 41.031 132.909 40.7566 133.859 41.6636C134.71 42.4716 134.87 43.8055 135.022 44.9108C135.113 45.6044 136.223 45.9474 136.383 45.0937C136.633 43.7903 137.485 41.8542 138.929 41.4655C140.944 40.9167 140.868 44.1485 140.792 45.2614C140.746 45.9322 141.795 46.237 142.084 45.612C142.456 44.804 144.448 41.6179 145.603 42.868C146.105 43.4092 145.687 44.5525 145.565 45.1775C145.368 46.1608 145.178 47.1441 144.98 48.1274C144.805 49.004 146.143 49.3775 146.318 48.5009C146.607 47.0526 146.995 45.5815 147.162 44.1104C147.276 43.0814 147.071 41.9457 146.052 41.4502C143.847 40.3831 141.666 43.2034 140.883 44.9031L142.175 45.2538C142.32 43.2491 141.977 40.0858 139.302 40.0172C137.014 39.9639 135.417 42.7765 135.045 44.7126L136.405 44.8955C136.208 43.4473 135.995 41.8694 134.938 40.7642C134.034 39.8114 132.566 39.3236 131.35 39.9715C130.134 40.6194 129.427 42.2048 128.956 43.493C128.378 45.0861 128.142 46.7935 128.211 48.4856C128.234 49.0726 128.963 49.4156 129.397 48.9811C133.722 44.5906 140.936 44.6059 145.14 49.1869C146.637 50.8181 148.173 53.646 150.826 52.9904C153.479 52.3349 154.231 48.9354 154.764 46.7325C155.645 43.1348 155.775 39.4227 155.25 35.7639C155.121 34.8797 153.783 35.2532 153.912 36.1374H153.92Z" fill="#202020"/>
<path d="M137.174 26.3432C137.029 27.0673 136.931 27.8829 137.204 28.5994C137.562 29.5369 138.443 29.9561 139.416 29.8113C141.104 29.5674 142.442 28.3097 143.43 26.9987C143.985 26.2669 144.456 25.4742 144.912 24.6815C145.369 23.8888 144.16 23.2027 143.711 23.9802C142.913 25.3751 142.047 26.9072 140.678 27.8219C140.177 28.1573 139.219 28.7289 138.626 28.3402C138.702 28.3936 138.557 28.2487 138.611 28.325C138.588 28.2945 138.489 28.0963 138.512 28.1573C138.459 28.0201 138.436 27.8829 138.428 27.7914C138.398 27.4103 138.443 27.0597 138.512 26.7166C138.588 26.3508 138.405 25.962 138.025 25.8629C137.683 25.7715 137.242 25.9773 137.174 26.3508V26.3432Z" fill="#202020"/>
<path d="M143.87 24.1554C143.231 25.2606 142.844 26.4802 142.722 27.7531C142.608 28.9193 142.654 30.3904 143.604 31.2213C144.554 32.0521 145.854 32.075 147.009 31.7396C147.58 31.5719 148.362 31.3966 148.72 30.8859C149.153 30.2761 148.857 29.5749 148.119 29.4758C147.747 29.4224 147.427 29.834 147.427 30.1694C147.427 30.5886 147.747 30.8173 148.119 30.863H148.18C148.066 30.8402 147.944 30.8097 147.83 30.7792L147.868 30.8021L147.618 30.5505L147.64 30.5886L147.549 30.238C147.542 30.0551 147.815 29.9788 147.473 30.1084C147.26 30.1923 147.04 30.2761 146.819 30.3447C146.416 30.4743 146.014 30.5734 145.588 30.5581C144.972 30.5429 144.372 30.2532 144.189 29.6282C143.976 28.8736 144.037 27.997 144.174 27.2348C144.334 26.3887 144.622 25.596 145.056 24.8566C145.489 24.1173 144.303 23.3779 143.855 24.1554H143.87Z" fill="#202020"/>
<path d="M141.575 42.2584C143.301 40.9245 145.285 40.0098 147.428 39.5906C148.462 39.3848 149.511 39.3085 150.56 39.339C151.123 39.3543 151.685 39.4076 152.24 39.4991C152.514 39.5448 152.788 39.5982 153.061 39.6668C153.198 39.6973 153.335 39.7354 153.464 39.7659C153.715 39.9031 153.859 39.7888 153.913 39.4076C153.069 39.682 153.426 41.0236 154.285 40.7492C154.855 40.5662 155.197 40.0022 155.03 39.4C154.848 38.7216 154.133 38.493 153.525 38.3481C152.081 37.9975 150.583 37.8755 149.101 37.9746C146.128 38.1728 143.232 39.2323 140.876 41.0617C140.176 41.6029 140.876 42.8072 141.575 42.266V42.2584Z" fill="#202020"/>
<path d="M138.952 19.155C139.013 19.8029 138.99 20.4431 138.854 21.0758C138.664 21.9524 139.918 22.303 140.191 21.4493C140.359 20.9233 140.534 20.3974 140.701 19.8715C140.944 19.1092 139.827 18.6671 139.431 19.3379C138.854 20.3288 138.39 21.3731 138.04 22.4707C137.835 23.1262 138.732 23.6598 139.203 23.1491C139.963 22.3182 140.724 21.4798 141.484 20.6489L140.397 19.8029C139.948 20.7023 139.5 21.6093 139.051 22.5088C138.717 23.1872 139.568 23.9494 140.138 23.3549C140.769 22.6993 141.4 22.0438 142.039 21.3883L140.952 20.5422C140.176 21.9371 139.393 23.3244 138.618 24.7193C138.245 25.3824 139.188 26.1904 139.705 25.5653C140.754 24.3077 141.932 23.1643 143.217 22.1582L142.236 21.1749C140.906 22.8213 139.576 24.4677 138.245 26.1142C137.698 26.7925 138.595 27.7606 139.226 27.0974C140.769 25.4739 142.396 23.7436 144.593 23.0576L144.061 21.7847C141.628 23.5378 139.401 25.5425 137.424 27.7987C137.12 28.1493 137.174 28.8734 137.728 28.9649C138.587 29.1021 139.287 28.5762 139.363 27.7072C139.439 26.8383 138.055 26.823 137.972 27.7072C137.979 27.6005 137.995 27.6081 138.093 27.6234L138.397 28.7896C140.29 26.6249 142.419 24.6735 144.76 22.989C145.361 22.5545 145.026 21.4645 144.228 21.7161C141.788 22.4783 139.963 24.3 138.245 26.1142L139.226 27.0974C140.556 25.451 141.887 23.8046 143.217 22.1582C143.787 21.4569 142.936 20.6261 142.236 21.1749C140.952 22.1886 139.773 23.3244 138.724 24.5821L139.811 25.4281C140.587 24.0333 141.37 22.646 142.145 21.2511C142.525 20.5727 141.613 19.8257 141.058 20.405C140.427 21.0605 139.796 21.7161 139.158 22.3716L140.245 23.2177C140.693 22.3182 141.142 21.4112 141.59 20.5117C141.925 19.841 141.058 19.0559 140.503 19.6656C139.743 20.4965 138.983 21.3349 138.223 22.1658L139.386 22.8442C139.697 21.8609 140.115 20.931 140.632 20.0468L139.363 19.5132C139.196 20.0391 139.021 20.5651 138.854 21.091L140.191 21.4645C140.359 20.7099 140.419 19.9401 140.343 19.1702C140.305 18.7967 140.047 18.4766 139.652 18.4766C139.302 18.4766 138.922 18.7967 138.96 19.1702L138.952 19.155Z" fill="#202020"/>
<path d="M140.458 22.4634C140.116 26.0383 143.209 28.4317 146.273 29.3998C149.336 30.3678 152.78 30.2687 155.813 29.1559C158.329 28.2336 162.335 26.1145 162.252 22.9436C162.168 19.5669 157.273 18.8886 154.802 19.5517C153.244 19.9709 151.845 21.0533 151.252 22.5854C150.766 23.8507 151.138 25.4514 152.636 25.6496C153.221 25.7258 153.571 24.8264 153.13 24.4605C152.894 24.2623 152.651 24.0718 152.415 23.8736C151.731 23.3095 150.743 24.2928 151.435 24.8569C151.67 25.055 151.913 25.2456 152.149 25.4438L152.643 24.2547C151.967 24.1632 152.803 22.5625 152.932 22.3796C153.373 21.7698 153.996 21.3125 154.696 21.0381C156.125 20.4816 157.98 20.6036 159.378 21.221C159.971 21.4802 160.587 21.8994 160.792 22.5473C161.058 23.3781 160.572 24.2166 160.055 24.834C159.12 25.9392 157.782 26.7548 156.49 27.3646C153.897 28.5918 150.864 28.9729 148.052 28.4089C145.239 27.8448 141.507 25.985 141.849 22.4482C141.932 21.5564 140.549 21.564 140.458 22.4482V22.4634Z" fill="#202020"/>
<path d="M129.496 14.3754C129.443 14.3754 129.39 14.3754 129.336 14.3754L129.519 14.3982C129.466 14.3906 129.405 14.3754 129.352 14.3525L129.519 14.4211C129.458 14.3982 129.412 14.3678 129.359 14.3296L129.496 14.4364C129.435 14.3906 129.39 14.3373 129.336 14.2763L129.443 14.4135C129.382 14.3373 129.336 14.2534 129.298 14.1619L129.367 14.3296C129.329 14.2382 129.306 14.1391 129.291 14.04L129.314 14.2229C129.298 14.1315 129.298 14.04 129.314 13.9485L129.291 14.1315C129.298 14.0552 129.321 13.979 129.352 13.9028L129.283 14.0705C129.306 14.0171 129.336 13.9714 129.367 13.9257L129.26 14.0629C129.298 14.0171 129.336 13.979 129.382 13.9409L129.245 14.0476C129.245 14.0476 129.306 14.0019 129.344 13.9866C129.663 13.8113 129.793 13.3464 129.595 13.0338C129.39 12.7061 128.987 12.5994 128.645 12.7823C128.166 13.0415 127.9 13.5979 127.93 14.1391C127.96 14.6803 128.219 15.1986 128.675 15.5264C128.789 15.6102 128.926 15.6712 129.063 15.7093C129.2 15.7474 129.359 15.7703 129.504 15.755C129.694 15.7398 129.853 15.6864 129.998 15.5492C130.119 15.4273 130.211 15.2291 130.203 15.0538C130.195 14.8785 130.135 14.6879 129.998 14.5583C129.869 14.4364 129.686 14.3373 129.504 14.3525L129.496 14.3754Z" fill="#202020"/>
<path d="M162.974 39.1785C164.517 43.6833 165.703 48.3024 166.486 52.9978C166.881 55.3759 167.17 57.7617 167.353 60.1628C167.444 61.3519 167.52 62.5486 167.512 63.7453C167.505 64.942 167.535 66.2073 167.17 67.2973L167.49 66.8781L167.353 66.9772H168.052L167.969 66.9238L168.311 67.526V67.4193C168.136 67.6403 167.969 67.869 167.794 68.09L167.862 68.0672C168.698 67.7699 168.333 66.4207 167.49 66.7256L167.421 66.7485C167.14 66.8476 166.897 67.0991 166.912 67.4193C166.927 67.7775 167.049 67.9833 167.345 68.1815C167.528 68.3034 167.862 68.3187 168.045 68.1815C168.805 67.6098 168.744 66.4055 168.82 65.5289C168.926 64.2179 168.904 62.9068 168.835 61.5958C168.698 59.0728 168.417 56.5574 168.045 54.0573C167.277 48.8741 166.015 43.7671 164.312 38.8126C164.023 37.9741 162.685 38.3324 162.974 39.1861V39.1785Z" fill="#202020"/>
<path d="M165.3 49.6137C158.306 53.1581 153.54 60.4222 153.008 68.2504C152.947 69.1422 154.338 69.1422 154.399 68.2504C154.901 60.8948 159.462 54.1338 166.007 50.8105C166.805 50.4065 166.106 49.2021 165.307 49.6061L165.3 49.6137Z" fill="#202020"/>
<path d="M123.779 61.7489L123.726 61.6726C123.483 61.3449 123.156 61.261 122.776 61.4211C122.51 61.5354 122.365 61.726 122.312 62.008C122.259 62.29 122.342 62.6483 122.631 62.7931C123.118 63.0447 123.422 62.9532 123.946 62.8312C124.63 62.6712 125.307 62.5111 125.999 62.4044C127.435 62.191 128.895 62.1452 130.339 62.1986C133.175 62.2977 135.972 62.7931 138.747 63.3267C144.471 64.4243 150.073 65.6667 155.349 68.2583C156.147 68.6471 156.854 67.4504 156.048 67.054C150.773 64.4624 145.201 63.159 139.461 62.0461C136.732 61.5202 133.988 61.0171 131.214 60.8418C129.815 60.7503 128.416 60.7503 127.017 60.8799C125.619 61.0095 124.342 61.4059 122.988 61.604L123.521 61.6726L123.323 61.5735L123.642 62.3586L123.665 62.2367L123.346 62.6559L123.467 62.6026L122.517 62.351L122.57 62.4272C123.095 63.1361 124.304 62.4425 123.771 61.726L123.779 61.7489Z" fill="#202020"/>
<path d="M145.169 13.3543C145.686 14.2462 146.644 14.5892 147.609 14.7721C148.742 14.9855 149.897 15.0465 151.045 14.9398C153.311 14.7187 155.5 13.9184 157.332 12.554C158.039 12.0281 157.446 10.9381 156.633 11.3497C155.211 12.0662 153.873 12.9199 152.619 13.9031C152.003 14.3834 151.403 14.8864 150.848 15.4352C150.293 15.984 149.996 16.5862 150.323 17.3332C150.559 17.8668 151.243 17.6915 151.524 17.3332C151.995 16.7234 152.467 16.106 152.938 15.4962C153.273 15.0617 152.809 14.452 152.338 14.452C151.334 14.4443 150.407 14.8331 149.707 15.5572C149.084 16.1975 150.049 17.1655 150.688 16.5405C151.327 15.9154 151.486 14.4672 150.278 14.4138C149.388 14.3757 149.388 15.763 150.278 15.8087L149.837 15.3666C149.837 15.3666 149.829 15.3971 149.821 15.4124C149.852 15.4276 149.669 15.6029 149.715 15.5648L150.696 16.5481C151.152 16.0831 151.691 15.8468 152.345 15.8545L151.745 14.8102C151.273 15.42 150.802 16.0374 150.331 16.6472H151.532C151.608 16.8301 151.6 16.6929 151.714 16.5633C151.821 16.449 151.942 16.3423 152.056 16.2356C152.269 16.0374 152.49 15.8392 152.71 15.6487C153.181 15.2371 153.668 14.8483 154.177 14.4901C155.181 13.7659 156.245 13.1333 157.347 12.5692L156.648 11.3649C155.112 12.5083 153.318 13.2629 151.418 13.5144C150.49 13.6364 149.54 13.644 148.613 13.5373C147.898 13.4534 146.788 13.3543 146.378 12.6607C145.929 11.8832 144.728 12.5845 145.177 13.362L145.169 13.3543Z" fill="#202020"/>
<path d="M103.3 46.8468C90.8717 32.7302 76.4208 19.3301 58.017 13.842C49.5791 11.3267 40.5863 10.6788 31.9659 12.6301C23.3456 14.5814 15.9643 18.6365 10.3694 25.0012C-0.660672 37.5552 -3.8762 58.6996 5.57274 73.0524C15.6906 88.4191 36.9526 90.4771 53.2279 85.7665C71.1072 80.5986 85.3832 67.8997 97.0899 53.867C98.557 52.1062 99.9937 50.3226 101.4 48.5237C101.947 47.8301 100.967 46.8392 100.419 47.5404C89.4806 61.5122 76.626 74.897 60.0087 81.8944C51.814 85.3473 42.8592 87.1995 33.95 86.5516C25.5653 85.9418 17.0209 83.0377 10.8255 77.1761C-1.6489 65.3691 -0.713884 44.3619 7.89887 30.6264C17.2566 15.7095 35.9416 10.5416 52.521 13.8954C70.6359 17.5617 85.4592 29.5746 97.7816 42.7993C99.3172 44.4534 100.83 46.1303 102.32 47.8225C102.913 48.4932 103.893 47.51 103.3 46.8392V46.8468Z" fill="#202020"/>
<path d="M101.543 46.7703C101.452 46.9075 101.353 47.0371 101.262 47.1667C101.171 47.2963 101.353 47.0447 101.255 47.182C101.232 47.2048 101.217 47.2353 101.194 47.2582C101.141 47.3192 101.095 47.3878 101.042 47.4487C100.829 47.7003 100.601 47.9518 100.365 48.1805C100.13 48.4091 99.8863 48.6226 99.6354 48.8284C99.605 48.8512 99.5746 48.8817 99.5366 48.9046C99.4378 48.9885 99.6126 48.8512 99.5366 48.9046C99.4682 48.9503 99.4073 49.0037 99.3389 49.0494C99.2021 49.1485 99.0577 49.2476 98.9132 49.3391C98.6092 49.5373 98.4571 49.9641 98.6624 50.2919C98.86 50.5968 99.2857 50.7568 99.6126 50.5434C100.852 49.7354 101.901 48.6988 102.737 47.4868C102.942 47.1896 102.805 46.7017 102.486 46.5341C102.136 46.3435 101.756 46.4655 101.536 46.7856L101.543 46.7703Z" fill="#202020"/>
</g>
<defs>
<clipPath id="clip0_943_4799">
<rect width="173" height="88" fill="white"/>
</clipPath>
</defs>
</svg>
