<svg width="126" height="157" viewBox="0 0 126 157" fill="none" xmlns="http://www.w3.org/2000/svg">
<path d="M82.1787 121.622C82.3071 124.483 82.4538 127.325 82.6005 130.295C82.8572 130.387 83.2423 130.497 83.609 130.626C83.6273 130.717 83.6457 130.809 83.6824 130.901C83.2973 131.029 82.9305 131.212 82.5455 131.304C79.5748 132.019 76.6226 132.734 73.6519 133.394C72.5334 133.651 71.3965 133.89 70.2595 133.871C69.3427 133.853 69.141 133.138 69.8928 132.569C70.718 131.964 71.6898 131.542 72.6617 131.194C75.3573 130.259 78.0895 129.452 80.7851 128.535C81.0968 128.425 81.5186 127.985 81.5186 127.71C81.4452 125.216 81.2802 122.722 81.1335 120.357C77.1543 119.458 73.1201 118.578 69.1226 117.606C65.1251 116.634 61.6777 114.434 57.9186 112.453V129.47C58.102 129.452 58.5054 129.379 58.9088 129.324C58.9638 129.434 59.0372 129.525 59.0922 129.635C58.7438 129.91 58.4321 130.314 58.047 130.442C56.0482 131.121 54.0128 131.744 51.9957 132.386C49.6486 133.119 47.3014 133.89 44.9176 134.568C43.9457 134.843 42.9371 134.806 41.9836 133.871C42.4604 133.578 42.8455 133.248 43.2672 133.083C47.118 131.689 50.9505 130.295 54.8196 128.994C56.745 128.352 56.9101 128.278 56.9284 126.353C56.9834 122.722 57.0568 119.073 57.0934 115.442C57.0934 114.25 57.0934 113.059 57.0934 111.793C56.7634 111.628 56.4333 111.426 56.0849 111.316C54.4346 110.785 53.0226 109.886 51.9407 108.511C51.4639 107.906 50.8771 107.631 50.052 107.631C47.7782 107.667 45.486 107.594 43.1939 107.557C42.8271 107.557 42.4787 107.484 42.1303 107.227H50.5654C50.5837 106.842 50.6204 106.439 50.6571 105.779C48.6217 105.907 46.6779 105.98 44.7342 106.145C40.8467 106.494 36.9592 106.897 33.0534 107.227C32.3016 107.282 32.1182 107.557 32.0082 108.254C30.6696 116.543 29.386 124.831 27.8823 133.083C26.5437 140.418 24.9484 147.697 23.4631 154.996C23.408 155.252 23.1513 155.472 22.9863 155.711C22.8029 155.637 22.6195 155.582 22.4362 155.509C26.0119 139.611 28.7625 123.566 31.1097 107.301C29.9361 107.411 28.8358 107.521 27.6073 107.631C26.5254 117.771 21.9044 126.976 20.5841 137.044C19.869 135.65 19.9973 134.183 20.3641 132.826C21.5376 128.352 22.8763 123.896 24.0682 119.422C25.0767 115.626 25.9569 111.793 26.9471 107.796C26.3053 107.851 25.9752 107.869 25.5718 107.906C25.7552 108.658 25.9019 109.336 26.0669 109.996C25.9569 110.051 25.8469 110.088 25.7369 110.143C25.3518 109.446 25.1134 108.493 24.5083 108.144C23.9031 107.796 22.9496 108.071 22.1061 107.851C22.8212 107.704 23.5547 107.539 24.3616 107.374C23.5914 105.045 22.7296 102.826 22.0878 100.534C20.5474 95.0697 19.2088 89.5502 17.6135 84.1041C16.4766 80.1799 14.9363 76.3475 13.7994 72.4233C12.1673 66.8305 10.9388 61.1276 10.1503 55.3331C9.61848 51.4823 8.60993 47.6865 7.76642 43.8723C6.35446 37.546 5.73099 31.128 4.97917 24.7283C4.48407 20.4558 3.16379 16.2932 2.19192 12.0757C1.88018 10.737 1.44009 9.41677 1 7.89478C2.55866 7.54638 3.91561 7.21631 5.2909 6.90457C6.94125 6.53783 8.7933 6.50115 10.2236 5.71266C12.8458 4.28235 15.6147 4.35571 18.3836 4.154C21.3176 3.93395 24.2515 3.84226 27.1855 3.67723C30.3945 3.51219 33.6035 3.31048 36.8125 3.14545C41.3051 2.9254 45.7794 2.63201 50.272 2.50365C54.5629 2.39363 58.8722 2.50365 63.1631 2.4303C65.0334 2.39362 66.8488 2.2836 68.6459 1.45843C69.6911 0.981663 71.0297 1.12836 72.24 1C72.2766 1.11002 72.3133 1.22005 72.3316 1.33007C71.3231 1.67848 70.3329 2.00855 69.141 2.41197C69.7094 7.76643 70.2962 13.1575 70.883 18.5487C71.0297 18.567 71.1764 18.5854 71.3231 18.622C71.5615 18.347 71.7815 18.0719 72.0199 17.8152C72.8268 16.935 74.092 16.77 74.9355 17.5401C75.1739 17.7602 75.1372 18.2736 75.2289 18.6587C74.9355 18.567 74.6421 18.4203 74.3304 18.3837C73.872 18.3103 73.2118 18.0719 72.9734 18.292C72.0749 19.0805 71.4698 20.089 71.8182 21.3726C72.0933 22.3812 72.405 23.3714 72.7351 24.3616C73.0285 25.2417 73.7253 25.4801 74.3121 25.4985C74.092 24.6366 73.6703 23.8298 73.6886 23.0046C73.6886 21.9777 74.7338 21.721 75.504 21.2809C77.7411 20.034 80.0516 19.2638 82.6738 19.2638C84.3058 19.2638 85.9378 18.8421 87.5698 18.7504C88.6334 18.6954 89.752 18.7504 90.7605 19.0255C91.6774 19.3005 92.3559 19.0438 93.016 18.567C93.7678 18.0352 94.4463 17.4118 95.1981 16.7883C95.8583 17.2834 95.8766 17.7785 95.1981 18.2186C92.8693 19.7406 92.796 20.089 94.4096 22.8579C95.5282 24.7833 96.8668 26.5804 98.1687 28.3958C98.8289 29.3126 99.6174 30.1194 100.369 30.9996C100.406 30.9079 100.498 30.7062 100.589 30.4678C101.103 28.9642 102.331 28.1023 103.725 28.2857C105.632 28.5241 106.659 29.551 106.879 31.2747C107.264 34.392 104.147 37.601 100.571 37.8027C99.7641 37.8394 98.9572 37.7477 98.1321 37.7294C97.747 37.7294 97.3436 37.6744 96.9952 37.7844C95.8949 38.1144 95.1614 37.9127 94.3179 36.9042C93.4194 37.5093 93.3827 37.5093 93.0893 36.7942C92.3008 37.1609 91.5307 37.5277 90.7605 37.8944C90.7972 38.0228 90.8339 38.1511 90.8522 38.2795C91.604 38.2795 92.3559 38.2795 93.1077 38.2795C94.2813 38.2978 94.9231 38.8663 95.0514 40.0949C95.2348 41.8919 95.5649 43.6706 95.7299 45.4677C95.8949 47.1547 95.8399 48.8784 96.06 50.5654C96.225 51.7757 96.5184 53.0042 97.0135 54.1045C98.5171 57.4052 100.021 60.7242 101.8 63.8782C102.661 65.4185 104.165 66.6104 105.375 67.9491C105.559 68.1508 105.742 68.3525 105.925 68.5725C105.834 68.6825 105.742 68.7742 105.65 68.8842C104.697 68.1141 103.56 67.4723 102.826 66.5188C101.396 64.6667 100.039 62.723 98.9389 60.6509C97.0868 57.1668 95.6382 53.481 94.9597 49.5752C94.813 48.6767 95.0881 47.7048 95.1064 46.7696C95.1064 46.0361 95.0514 45.3026 94.9597 44.5875C94.8497 43.7807 94.6847 42.9921 94.538 42.1853C94.2079 40.4249 94.0245 40.3149 92.3375 40.8467C91.0539 41.2501 90.1004 41.9836 89.4036 43.1388C87.8632 45.651 86.4513 48.1816 86.0112 51.1889C85.6628 53.591 85.0393 55.9565 84.5442 58.2853C84.5442 57.9003 84.5442 57.4235 84.5442 56.9284C84.5442 56.4333 84.5809 55.9199 84.5992 55.4248C84.6542 53.8294 84.7092 52.2341 84.8009 50.6387C84.8193 50.2353 85.0393 49.8319 85.2227 49.4468C86.543 46.6229 87.6615 43.5973 89.972 41.4335C91.0723 40.4066 92.7043 39.8381 94.4646 40.2049C94.593 39.3981 94.1896 38.958 93.3461 38.7746C91.5857 38.3712 90.1921 38.7929 88.7984 40.0582C86.2312 42.4054 84.0124 44.9726 82.3804 48.0532C81.6653 49.4285 81.1885 50.6571 81.867 52.2891C82.6555 54.1961 83.0039 56.3049 83.664 58.267C83.9208 59.0555 84.5442 59.734 84.911 60.5042C85.1493 60.9993 85.3511 61.5677 85.4244 62.1178C86.1029 66.5004 87.2031 70.7546 89.5136 74.5871C90.4671 76.1641 91.6774 77.5761 92.8326 79.1347C94.0062 78.0528 94.7947 77.1176 94.7947 75.5773C94.7947 72.8634 95.1064 70.1678 95.0881 67.4539C95.0881 65.7302 94.6847 64.0066 94.5747 62.2829C94.5013 61.1276 94.648 59.9724 94.648 58.8171C94.648 58.4504 94.538 58.0653 94.3729 57.7352C93.5111 56.0482 92.5209 54.4162 91.8057 52.6742C91.3656 51.6473 91.3473 50.437 91.0906 49.0984C91.5123 49.3001 91.6224 49.3185 91.6224 49.3552C91.8241 51.7573 93.1994 53.646 94.2996 55.6815C95.8216 58.5054 97.2152 61.3843 98.5722 64.2999C99.544 66.3904 100.681 68.3341 102.35 69.9661C102.643 70.2595 102.881 70.6079 103.065 71.0114C101.598 70.5346 100.626 69.4344 99.7824 68.2425C98.9389 67.0505 98.2237 65.7669 97.5269 64.465C96.8301 63.1447 96.2617 61.7694 95.7849 60.7242C95.6382 66.6288 95.4732 72.7901 95.3081 79.0247C95.4182 78.7863 95.5098 78.5663 95.6565 78.2545C95.9133 78.3829 96.17 78.5113 96.2983 78.5846C96.0783 79.5565 95.8399 80.4367 95.6749 81.3168C94.9597 85.461 94.2629 89.6236 93.5478 93.7678C93.4011 94.5563 93.1077 95.3081 92.906 96.0783C92.8693 96.1883 92.9793 96.335 93.126 96.7201C93.5478 95.0697 93.9145 93.6944 94.2813 92.3192C94.3913 92.3375 94.483 92.3742 94.593 92.3925C94.1896 94.2629 93.5844 96.115 93.4561 98.0037C93.3277 99.8374 93.7128 101.689 93.8778 103.523C93.7311 103.56 93.5844 103.578 93.4377 103.615C93.3461 103.34 93.181 103.083 93.1443 102.808C92.4842 96.8118 91.329 90.9072 89.807 85.0576C88.285 79.1531 87.1481 73.1385 85.6078 67.2339C84.1408 61.6777 82.4721 56.1582 80.6934 50.6938C77.9245 42.1303 74.8622 33.6585 72.1483 25.0767C70.3512 19.4105 68.9026 13.6343 69.1226 7.56471C69.1777 5.91437 68.8476 4.26402 68.7192 2.77871C64.3916 2.83372 60.1924 2.83372 55.9932 2.96208C49.6852 3.14545 43.3772 3.38384 37.0692 3.64056C31.4581 3.8606 25.8652 4.08064 20.254 4.39238C18.2186 4.5024 16.0182 4.46573 14.1844 5.19922C10.7187 6.5745 7.06961 6.81289 3.51219 7.58306C1.55012 8.00481 1.44009 8.1515 2.10023 9.96688C4.04397 15.2113 5.21755 20.6391 5.84102 26.1953C6.15275 28.9275 6.09774 31.7148 6.5745 34.392C7.6564 40.4066 9.01335 46.3479 10.1869 52.3441C10.7554 55.2231 10.9938 58.1753 11.6356 61.0359C12.5708 65.1801 13.6527 69.2877 14.8262 73.3768C17.6318 83.2239 20.4924 93.0527 23.3714 102.881C23.7564 104.165 24.2699 105.43 24.8383 106.659C24.9667 106.952 25.5535 107.227 25.8469 107.172C26.2136 107.099 26.7454 106.696 26.8188 106.365C27.3139 103.78 27.6439 101.176 28.1574 98.6088C29.1292 93.7678 30.3212 88.9451 31.2013 84.0858C31.8065 80.7484 31.9715 77.3194 32.3749 73.9453C32.9617 69.1043 33.4385 64.2633 34.1903 59.4406C35.6206 50.1987 37.1609 40.9751 38.7379 31.7515C39.2147 29.0192 39.9482 26.342 40.6267 23.6464C40.7734 23.078 41.1401 22.5645 41.6352 22.0694C41.6535 22.2528 41.7636 22.4728 41.6902 22.6379C39.2514 29.1109 39.0313 36.024 37.8027 42.7538C36.6842 48.8417 35.5473 54.9296 34.6304 61.0359C34.0253 65.1251 33.8052 69.2693 33.4018 73.3952C32.7967 79.6298 31.8798 85.8095 30.5045 91.9341C29.4776 96.5367 28.7075 101.194 27.8456 105.834C27.7723 106.2 27.7723 106.585 27.7356 107.062C28.7625 106.989 29.6794 106.989 30.5779 106.806C30.8713 106.751 31.2197 106.237 31.2747 105.87C32.3016 100.277 33.2734 94.6847 34.2637 89.0918C35.1438 84.0674 36.1524 79.0614 36.8492 74.0003C37.6194 68.4808 38.0778 62.9247 38.7013 57.3868C39.5264 50.0153 40.4066 42.6437 41.2134 35.2539C41.5802 31.8798 41.8552 28.4874 42.1853 25.1134C42.3137 23.7198 42.4971 22.3261 42.6437 20.8958C43.2489 20.9142 43.7073 21.0976 43.5606 21.9961C43.4873 22.4178 43.634 22.9129 43.744 23.353C45.541 30.1745 48.3099 36.6291 50.9872 43.1572C54.5079 51.7206 57.7536 60.4308 60.7609 69.1776C64.9968 81.5002 70.4062 93.2727 76.1091 104.953C76.4392 105.632 76.8426 105.669 77.4661 105.614C81.2068 105.265 84.9293 104.898 88.6701 104.678C89.972 104.605 91.3106 104.953 92.3742 105.064C92.0991 106.274 91.8057 107.301 91.6407 108.346C91.0356 111.885 90.4488 115.424 89.8437 119.091C89.9537 119.146 90.2104 119.275 90.4671 119.385C90.4671 119.513 90.4671 119.623 90.4671 119.752C88.0466 119.898 85.6078 120.045 82.8389 120.21C84.9843 124.776 87.0564 129.214 89.1285 133.651C88.1383 134.293 87.9916 133.706 87.7532 133.211C86.0295 129.452 84.2875 125.693 82.5638 121.952C82.5088 121.824 82.4171 121.714 82.3621 121.585C82.2887 121.604 82.2154 121.64 82.1237 121.659L82.1787 121.622ZM43.3222 24.8017C43.3222 24.8017 43.1389 24.8383 43.0472 24.8567C43.0105 25.3151 42.9922 25.7735 42.9555 26.2136C42.7538 28.9825 42.6254 31.7698 42.3137 34.5387C41.6352 40.5716 40.81 46.5862 40.1315 52.6008C39.5448 57.8269 39.2147 63.0897 38.5546 68.2975C37.9128 73.3218 37.0142 78.2912 36.2074 83.2973C35.2722 89.0551 34.3553 94.813 33.4018 100.571C33.0717 102.57 32.6683 104.55 32.2832 106.714C34.5937 106.475 36.7392 106.274 38.8846 106.017C43.8173 105.43 48.7317 105.119 53.7011 105.394C59.7707 105.742 65.8403 105.925 71.9099 106.127C73.0835 106.164 74.2571 105.925 75.5773 105.797C75.3023 105.21 75.1189 104.825 74.9355 104.458C73.2118 100.919 71.3781 97.4169 69.7828 93.8228C67.1789 87.9733 64.5383 82.1237 62.2645 76.1274C58.6338 66.5187 55.3698 56.7817 51.794 47.1547C49.7952 41.7636 47.4848 36.5008 45.3943 31.128C44.5875 29.0559 44.0007 26.8921 43.3222 24.765V24.8017ZM51.9957 107.759C51.9407 107.851 51.8857 107.942 51.849 108.034C52.7109 108.639 53.5177 109.318 54.4162 109.831C55.8649 110.638 57.3685 111.335 58.8355 112.105C60.1191 112.783 61.366 113.517 62.6496 114.232C63.3831 114.636 64.1349 115.039 64.8867 115.424C65.4919 115.736 66.097 116.139 66.7388 116.323C69.2143 117.038 71.7082 117.753 74.2204 118.321C76.5309 118.853 78.8964 119.201 81.2252 119.623C81.2985 119.275 81.3535 119.201 81.3169 119.128C79.5748 115.039 77.8328 110.968 76.0541 106.897C75.9441 106.659 75.449 106.439 75.1739 106.457C69.9111 106.952 64.6667 106.879 59.4223 106.457C56.8917 106.255 54.3429 106.127 51.7023 105.98C51.6656 106.402 51.629 106.806 51.5923 107.264C52.3991 107.301 53.0959 107.356 53.7928 107.392C53.7928 107.484 53.7928 107.557 53.7928 107.649C53.206 107.686 52.6192 107.722 52.014 107.759H51.9957ZM90.6322 28.5791C90.7422 27.3689 90.1187 25.7002 88.2483 24.655C87.5698 24.2699 86.9464 23.8115 86.2312 23.5181C85.7728 23.3347 85.1127 23.188 84.7276 23.408C82.7472 24.4899 80.8034 25.6818 78.878 26.8554C77.6494 27.5889 76.8609 28.6891 76.1274 29.9177C75.2473 31.3847 75.8341 32.6683 76.2008 34.0069C76.8059 36.2807 77.411 38.5546 78.1079 40.7917C78.2179 41.1768 78.768 41.5252 79.1898 41.6719C79.6482 41.8186 80.235 41.5985 80.7301 41.7085C84.966 42.7354 89.862 39.5814 89.917 35.1622C89.9353 33.2551 90.3204 31.348 90.6322 28.5975V28.5791ZM89.1468 119.422C89.3302 117.881 89.4036 116.726 89.6053 115.589C90.1737 112.27 90.7972 108.951 91.4207 105.54C86.4513 104.825 81.757 105.779 77.026 106.329C77.026 106.512 77.0076 106.604 77.026 106.659C78.8413 110.748 80.6751 114.837 82.5271 118.908C82.6371 119.165 83.0956 119.385 83.4073 119.385C85.296 119.422 87.1848 119.403 89.1468 119.403V119.422ZM93.0343 32.3749C94.1162 31.7148 94.3729 32.1915 94.5196 32.8333C94.703 33.6035 94.8314 34.4103 95.0331 35.1805C95.3448 36.3541 96.4634 36.3541 97.3436 36.6291C98.4805 36.9959 99.3973 36.5191 99.8924 35.4372C100.736 33.6585 99.6541 32.2099 98.8656 30.8713C97.747 28.9275 96.2617 27.1855 95.0147 25.3151C94.1896 24.0682 93.5294 22.7296 92.7226 21.4643C92.4475 21.0242 92.0074 20.5658 91.549 20.3824C90.5221 20.0157 89.4036 19.5572 88.3583 19.6122C86.0112 19.7039 83.6824 20.144 81.3352 20.2907C79.0431 20.4191 77.136 21.5193 75.1739 22.4912C74.2754 22.9496 74.2754 23.8848 75.1189 24.4349C75.9257 24.9667 76.8059 25.3518 77.6128 25.7735C78.5113 25.2418 79.1531 24.0498 80.345 25.04C80.5834 24.875 80.7484 24.71 80.9501 24.6183C82.6922 23.8114 84.3608 22.7296 86.1946 22.2895C88.8351 21.666 91.4207 24.1965 91.5857 27.0755C91.6224 27.7539 91.8974 28.5424 92.3375 29.0192C93.1444 29.9177 93.6761 30.8163 93.0527 32.3933L93.0343 32.3749ZM89.6786 81.2435C90.6138 85.3877 91.494 89.3669 92.3925 93.3461C92.4842 93.3461 92.5759 93.3277 92.6859 93.3094C93.3277 88.7434 93.9695 84.1775 94.6297 79.6115C93.1444 80.7851 91.6957 81.5919 89.697 81.2435H89.6786ZM100.498 31.9165C101.213 33.7135 101.543 35.4005 99.9474 36.9409C101.066 36.7392 102.203 36.5558 103.156 36.0607C104.733 35.2539 106.641 32.7783 105.76 30.8163C105.284 29.7527 104.403 29.0742 103.248 29.1659C102.13 29.2393 101.781 30.1011 101.469 30.9446C101.855 31.238 102.185 31.4947 102.496 31.7331C102.46 31.8431 102.405 31.9532 102.368 32.0632C101.8 32.0265 101.231 31.9898 100.479 31.9348L100.498 31.9165ZM78.658 42.5337C79.3548 44.6792 80.125 47.0263 80.8034 49.1351C82.2887 46.8246 83.7741 44.5141 85.0393 42.5337H78.658ZM92.4475 79.5565C90.9256 77.5394 89.4769 75.5773 88.0283 73.6702C88.395 75.3206 88.8168 77.081 89.1835 78.823C89.697 81.2068 90.1004 81.3535 92.0991 79.8682C92.2825 79.7399 92.4292 79.5748 92.4292 79.5565H92.4475ZM46.3662 132.826L46.4579 133.083C50.107 132.038 53.7561 130.974 57.3868 129.929C57.3868 129.782 57.3685 129.617 57.3502 129.47C56.9834 129.452 56.5983 129.342 56.2499 129.434C55.3147 129.672 54.4162 129.984 53.4994 130.314C51.1155 131.157 48.7317 132.001 46.3479 132.844L46.3662 132.826ZM76.5675 27.974C76.0358 26.4337 74.8438 26.4153 73.4135 26.4887C74.037 27.8456 74.6238 29.0926 75.2473 30.4495C75.724 29.5693 76.1641 28.7625 76.5675 27.974ZM81.5369 129.47C78.1445 130.534 74.7705 131.579 71.3964 132.643C71.4331 132.734 71.4515 132.808 71.4881 132.899C74.8255 132.074 78.1812 131.231 81.5919 130.387C81.5736 130.02 81.5553 129.617 81.5369 129.489V129.47Z" fill="#202020" stroke="#202020" stroke-width="0.75" stroke-miterlimit="10"/>
<path d="M124.832 75.5228C125.694 80.2538 123.145 83.2611 119.716 85.5716C117.02 87.387 114.068 88.9273 111.061 90.1559C109.685 90.706 107.87 90.3026 106.275 90.1009C102.79 89.6791 100.022 88.0288 98.2979 84.8565C96.6108 81.7758 96.3725 78.7135 98.3529 75.6512C99.013 74.6426 99.8198 73.9458 101.085 73.7258C102.204 73.5241 103.267 72.8273 104.386 72.7356C106.476 72.5522 106.715 70.9202 107.136 69.4899C108.383 65.2723 111.684 63.3836 115.993 64.4655C118.854 65.1807 121.458 66.2259 123.365 68.7014C124.52 70.2051 124.997 71.8004 124.942 73.6341C124.923 74.2943 124.868 74.9544 124.832 75.5045V75.5228ZM100.883 85.9017C100.755 86.085 100.645 86.2868 100.517 86.4701C101.58 87.2036 102.534 88.2855 103.707 88.5789C107.136 89.4224 110.675 90.2843 113.939 87.9371C114.306 87.6804 114.783 87.552 115.186 87.332C117.644 85.9934 120.064 84.5997 121.879 82.4176C123.218 80.8039 124.373 79.0986 124.043 76.7698C123.823 75.2111 123.695 73.6158 123.713 72.0204C123.732 70.5351 123.145 69.4349 122.118 68.4813C118.964 65.5657 115.37 64.1905 111.079 65.364C109.392 65.8225 108.255 67.2344 108.182 68.9398C108.402 68.8664 108.603 68.7748 108.823 68.7014C110.639 68.1513 111.702 69.0315 111.556 70.9019C111.519 71.4703 111.556 72.0388 111.537 72.6072C111.537 73.5424 110.254 74.8994 109.41 74.8627C108.402 74.8444 107.723 73.7258 107.833 72.4422C107.87 71.9471 107.686 71.4337 107.595 70.9386C106.898 72.4605 105.706 73.3957 104.331 74.0192C102.864 74.6793 101.305 75.1194 99.8015 75.7062C99.4898 75.8162 99.1414 76.0363 98.9947 76.3113C97.6377 78.6952 97.4177 82.546 99.3798 84.7464C99.5631 84.1413 99.5815 83.1144 100.095 82.7293C100.883 82.1242 101.213 81.3907 101.672 80.6206C102.039 80.0155 102.864 79.557 103.579 79.3553C104.331 79.1353 104.973 79.5937 105.266 80.4189C105.321 80.6022 105.614 80.7489 105.816 80.8223C106.916 81.2074 108.86 84.288 108.713 85.4616C108.713 85.4983 108.713 85.5349 108.677 85.5716C108.255 86.7269 107.375 87.387 106.275 87.7354C105.211 88.0838 104.184 88.0838 103.212 87.2953C102.515 86.7269 101.654 86.3418 100.865 85.8833L100.883 85.9017ZM103.762 80.0338C102.625 80.1255 102.277 80.8406 101.965 81.6841C101.819 82.1242 101.452 82.5093 101.158 82.9127C100.883 83.2978 100.37 83.6645 100.315 84.068C100.223 84.7281 100.682 85.0948 101.379 85.3332C102.24 85.6083 103.102 86.0851 103.836 86.6352C104.899 87.442 107.301 86.8185 107.668 85.5349C107.723 85.3699 107.668 85.1865 107.631 85.0032C107.21 82.9677 105.559 81.7942 104.386 80.2722C104.257 80.0888 103.909 80.0705 103.744 80.0155L103.762 80.0338ZM108.878 71.8187C108.75 72.0021 108.493 72.2038 108.53 72.3689C108.603 72.919 108.787 73.4691 108.915 74.0009C109.41 73.8542 110.07 73.8541 110.382 73.5241C111.097 72.7356 110.62 71.8187 110.18 71.0852C109.759 70.3884 109.007 70.4434 108.2 70.7368C108.457 71.1403 108.677 71.452 108.897 71.8004L108.878 71.8187ZM110.767 70.2967C110.235 69.1048 109.41 68.9948 108.658 69.9116C109.319 70.04 109.997 70.15 110.767 70.2967Z" fill="#202020" stroke="#202020" stroke-width="0.75" stroke-miterlimit="10"/>
<path d="M18.5312 5.32778C24.9493 5.01605 31.3856 4.70431 38.042 4.39258C36.8318 5.19941 26.1962 5.7312 18.5312 5.32778Z" fill="#202020" stroke="#202020" stroke-width="0.75" stroke-miterlimit="10"/>
<path d="M117.77 76.44C118.375 76.8801 119.145 77.2101 119.567 77.7969C121.034 79.814 119.512 82.9497 117.018 83.2064C116.138 83.2981 115.276 83.5731 114.396 83.6282C112.617 83.7749 111.939 82.7296 112.672 81.1159C112.782 80.8776 112.856 80.6208 113.002 80.2358C112.544 80.0707 112.141 79.8874 111.719 79.759C110.582 79.3739 110.307 78.8605 110.949 77.8703C112.049 76.2016 113.626 75.2847 115.661 75.248C113.901 76.0182 111.957 76.55 111.242 78.8421C111.737 79.0255 112.177 79.2456 112.636 79.3556C113.644 79.6123 113.828 80.1441 113.424 81.0793C113.241 81.5194 113.278 82.0695 113.204 82.5646C113.736 82.6013 114.286 82.693 114.818 82.6563C115.35 82.6196 115.881 82.3629 116.413 82.3446C117.532 82.3079 118.504 82.0512 118.852 80.8226C119.219 79.5756 119.31 78.3654 118.045 77.5035C117.807 77.3385 117.642 77.0818 117.44 76.8617C117.55 76.715 117.642 76.5867 117.752 76.44H117.77Z" fill="#202020" stroke="#202020" stroke-width="0.75" stroke-miterlimit="10"/>
<path d="M117.918 67.2344C119.22 66.6842 120.742 67.2343 121.219 68.3346C121.787 69.6365 121.659 70.9201 120.76 72.0571C119.752 73.3223 118.376 73.7807 116.836 73.5057C115.626 73.2856 115.296 72.5521 115.626 71.0852C115.773 70.4067 115.791 69.9849 115.094 69.5632C114.416 69.1414 114.287 68.3713 114.984 67.8211C115.736 67.216 116.616 66.7759 117.441 66.2441C117.515 66.3542 117.57 66.4642 117.643 66.5742C117.02 66.9593 116.378 67.3077 115.773 67.7111C114.819 68.3713 114.801 68.8113 115.809 69.3981C116.451 69.7649 116.323 70.1683 116.268 70.7368C116.213 71.3786 116.176 72.3504 116.524 72.6071C117.02 72.9372 117.918 72.8455 118.578 72.6988C119.623 72.4788 120.32 71.727 120.559 70.6451C120.87 69.2515 120.559 68.628 119.257 67.9678C118.853 67.7661 118.45 67.5278 117.918 67.2344Z" fill="#202020" stroke="#202020" stroke-width="0.75" stroke-miterlimit="10"/>
</svg>
