<?xml version="1.0" encoding="UTF-8"?>
<svg id="Calque_2" xmlns="http://www.w3.org/2000/svg" version="1.1" viewBox="0 0 382.1 209.8">
  <!-- Generator: Adobe Illustrator 29.2.1, SVG Export Plug-In . SVG Version: 2.1.0 Build 116)  -->
  <g id="Calque_1-2">
    <g>
      <path d="M106.6,98.5c-12.5-2.1-20.1,11.8-24.6,21.2-2.6,5.3-4.6,11-5.2,16.9-.6,5.5-.1,11.9,2.8,16.8,3,5,8.4,6,13.8,5.9,6.1,0,12.3-.5,17.9-3,4.8-2.1,9-5.9,10.9-10.9,1.8-5.1,1.7-11.1,1-16.4-1.5-11.5-7.1-22.5-16.6-29.4l-1.1,1.8c13,8.9,22.4,27.7,40.6,25.8,7.4-.8,14.1-5.1,17.2-11.9,2.6-5.7,2.6-15.1-4.2-18-3.3-1.4-7.4-.3-9.5,2.6s-1.7,7.4.8,10.1c.9,1,2.4-.5,1.5-1.5-2.1-2.2-2.2-6,0-8.1s5.8-2.2,8-.2c4.7,4.2,3.3,11.9.1,16.6-3.9,5.8-10.7,8.7-17.5,8.3s-13.2-4.6-18.2-9.2c-6-5.4-11-11.8-17.7-16.4-1.1-.8-2.1,1-1.1,1.8,7.6,5.6,12.6,14.1,14.8,23.3,1.1,4.7,1.5,9.5,1.1,14.3-.2,2.7-.8,5.5-2.1,7.9-1.2,2.2-3,4-5,5.4-4.5,3.1-9.9,4.3-15.3,4.7-4.8.4-11,1.1-15.1-1.9s-5.2-9.5-5.2-14.3c0-5.4,1.3-10.7,3.2-15.7,2.2-5.7,5.3-11.3,8.9-16.3s8.9-9.4,15.3-8.3c1.3.2,1.9-1.8.6-2h0Z"/>
      <path d="M87.7,107.9c-6.2,9.6-16.8,16.8-28.2,18.1-6,.7-12.6-.7-16.2-5.9-1.6-2.4-2.3-5.1-1.7-8,.6-3,2.2-6,4-8.5,1.7-2.3,4.4-5.1,7.5-4.2s4,4.4,4.4,7.1c.2,1.3,2.3.8,2-.6-.5-2.8-1.5-5.8-3.9-7.5s-5.5-1.5-7.9.2c-2.8,1.9-4.7,4.8-6.2,7.7-1.6,3.1-2.8,6.6-2.1,10.1,1.2,6.5,7.4,10.8,13.6,11.7,6.8,1,14-1.1,20.1-4.2,6.7-3.4,12.3-8.6,16.4-14.9.7-1.1-1.1-2.2-1.8-1.1h0Z"/>
      <path d="M67.9,126.8c-.4,1.3-.2,2.7.6,3.9.4.6,1.5.8,1.8,0,.5-1.2,1-2.4,1.6-3.7l-2-.5c.2,2.3.4,4.6.6,6.9,0,1,1.4,1.5,2,.5,1.7-3,3.3-6.1,5-9.1l-2-.5c-.2,1.9-.5,3.7-.7,5.6-.1,1,1.5,1.4,2,.5,1.2-2.4,2.2-4.8,3.1-7.2.2-.5-.2-1.2-.7-1.3-.6-.2-1.1.2-1.3.7-.8,2.3-1.8,4.6-2.9,6.8l2,.5c.2-1.9.5-3.7.7-5.6.1-1.1-1.5-1.4-2-.5-1.7,3-3.3,6-5,9.1l2,.5c-.2-2.3-.4-4.6-.6-6.9,0-.5-.3-.9-.8-1-.4-.1-1,0-1.2.5-.5,1.2-1,2.4-1.6,3.7h1.8c-.4-.7-.6-1.4-.3-2.2.4-1.3-1.7-1.9-2-.6h0Z"/>
      <path d="M123,118.3c.2,5.7.4,11.4.6,17.2,0,1.1,1.8,1.5,2.1.3.9-3.8,1.9-7.7,2.8-11.5l-2.1-.3c0,2.6-.2,5.3-.3,7.9,0,1.1,1.4,1.4,2,.5,1-1.5,1.9-3.1,2.8-4.7l-1.8-1.1c-.8,1.7-1.6,3.3-2.5,5-.5,1,.8,2.1,1.7,1.3,1.5-1.5,3.2-3.3,5.4-3.7,1.2-.2,2.2.2,3.4.2s2.1-.4,3-1.2c1-.9-.5-2.4-1.5-1.5s-2.1.5-3.2.3-2.2,0-3.2.4c-2.1.8-3.8,2.4-5.4,3.9l1.6,1.3c.8-1.7,1.6-3.3,2.5-5,.6-1.2-1.2-2.3-1.8-1.1-.9,1.6-1.8,3.2-2.8,4.7l2,.5c.1-2.6.2-5.3.3-7.9,0-1.2-1.8-1.4-2.1-.3-.9,3.8-1.9,7.7-2.8,11.5l2.1.3c-.2-5.7-.4-11.4-.6-17.2,0-1.3-2.1-1.3-2.1,0h0Z"/>
      <path d="M74.8,126.9c-.5,3.5-4.9,1.8-6.8.8-2.1-1.1-4.2-2.3-6-3.9-1.7-1.4-3.3-3.1-4-5.3-.9-2.8.3-5.3,1.8-7.6,5.7-8.6,13.6-16,22.4-21.5,4.5-2.8,9.3-5.2,14.3-7,5.5-2,11.7-3.2,17.2-.6,4.9,2.3,8.6,6.6,12.3,10.5,4.2,4.4,8.5,8.6,12.4,13.2,3.6,4.2,6.6,9.7,4.7,15.3-.8,2.4-2.6,4.4-5,4.9-2.2.5-4.6-.1-5.7-2.2-.6-1.2-2.5-.1-1.8,1.1,2.3,4.2,8.4,4.2,11.7,1.2,4-3.5,4.3-9.8,2.4-14.5-2.4-6-7.5-10.5-11.9-15.1-2.4-2.6-4.9-5.1-7.3-7.7-2.1-2.3-4.3-4.5-6.8-6.4s-5.2-3.3-8.2-3.8c-3.2-.6-6.6-.4-9.8.4-6,1.4-11.9,4.1-17.2,7.2s-10,6.6-14.4,10.7-8.5,8.7-11.6,13.8c-1.7,2.8-2.5,5.9-1.3,9.1,1,2.7,3.1,4.7,5.3,6.4,2.4,1.9,5.4,3.9,8.4,4.7,2.7.8,6.3-.2,6.8-3.4.2-1.3-1.8-1.9-2-.6h0Z"/>
      <path d="M109.6,81.3c-.7-4.5.6-9.3,3.4-12.8.4-.4.4-1.1,0-1.5-.4-.4-1.1-.4-1.5,0-3.4,4.2-4.8,9.6-3.9,14.9,0,.6.8.9,1.3.7.6-.2.8-.7.7-1.3h0Z"/>
      <path d="M77,148.2c-13.8,12.4-27.4,25.1-37.2,40.9-3,4.8-5.6,9.9-8,15-.6,1.2,1.2,2.3,1.8,1.1,4-8.6,8.8-16.9,14.5-24.5,5.4-7.1,11.6-13.6,18.1-19.7,4-3.8,8.2-7.6,12.3-11.3,1-.9-.5-2.4-1.5-1.5h0Z"/>
      <path d="M120.4,145.7c5.8,7,11.9,13.8,17.2,21.1,3.8,5.2,6.6,11,8.9,17,2.1,5.5,4,11.1,5.9,16.6.4,1.3,2.5.7,2-.6-2.9-8.6-5.6-17.3-9.7-25.5-3-6-7.1-11.2-11.3-16.4-3.8-4.7-7.7-9.3-11.6-13.9-.9-1-2.3.4-1.5,1.5h0Z"/>
      <path d="M62.8,162.3c-3.8,14.9-4.7,30.4-2.5,45.7l2-.6c-.2-1.3-.5-2.6-.7-3.8s-2.3-.8-2,.6.5,2.6.7,3.8c.2,1.3,2.2.8,2-.6-2.1-14.8-1.3-30,2.5-44.6.3-1.3-1.7-1.9-2-.6h0Z"/>
      <path d="M66,160.5c.6,12.3,1.2,24.5,1.8,36.8,0,1.4,2,1.3,2.1,0,0-.9.2-1.8.3-2.8.1-1.3-2-1.3-2.1,0,0,.9-.2,1.8-.3,2.8h2.1c-.6-12.3-1.2-24.5-1.8-36.8,0-1.4-2.2-1.4-2.1,0h0Z"/>
      <path d="M130.8,155.1c-2.6,14.4-5.2,28.8-7.8,43.2-.2,1.3,1.7,1.9,2,.6s.7-2.6,1-3.9-1.7-1.9-2-.6-.7,2.6-1,3.9l2,.6c2.6-14.4,5.2-28.8,7.8-43.2.2-1.3-1.8-1.9-2-.6h0Z"/>
      <path d="M138,166.4c-3.5,11.1-5.8,22.5-6.9,34.1h2.1c0-1.3-.1-2.6-.2-3.9s-2.2-1.4-2.1,0,.1,2.6.2,3.9c0,1.4,2,1.3,2.1,0,1.1-11.4,3.4-22.6,6.8-33.5.4-1.3-1.6-1.8-2-.6h0Z"/>
      <path d="M125,192.1c-13.9-6.3-30-7.1-44.5-2.4-4.1,1.3-8,3.1-11.7,5.3-1.2.7-.1,2.5,1.1,1.8,12.6-7.4,27.9-9.8,42.2-6.8,4.1.9,8.1,2.2,11.9,3.9,1.2.6,2.3-1.2,1.1-1.8h0Z"/>
      <path d="M1,209.8c32.8-2.4,65.6-4.7,98.4-6.3,32.8-1.5,65.3-2.2,98-1.1,18.5.6,36.9,1.7,55.3,3.5,1.3.1,1.3-2,0-2.1-32.7-3.2-65.5-4.3-98.3-4s-65.4,1.9-98,4c-18.5,1.2-36.9,2.5-55.4,3.9-1.3.1-1.4,2.2,0,2.1h0Z"/>
      <path d="M179.7,97.7c-2.2,1.6-2.6,4.2-2.2,6.8s1.3,5.8,3,7.9,4.8,2.6,7.3,1.8c2.8-.9,4.9-3.1,6.1-5.8.6-1.4,1.1-2.9,1.5-4.4s.9-3.2.8-4.8c0-3.3-3.2-4.6-5.9-5.2-5.2-1.2-11.9-.4-15.1,4.4-2.8,4.1-2.2,11.1,2.8,13.3,1.2.5,2.3-1.3,1.1-1.8-3.4-1.5-4.1-5.8-2.8-8.9,1.6-4.2,6.6-5.6,10.7-5.4,1.1,0,2.3.2,3.4.5,1.1.3,2.2.6,3.1,1.3,1,.9.9,2.2.6,3.4-.3,1.3-.5,2.6-.9,3.9-.6,2.3-1.6,4.8-3.6,6.3-1.6,1.2-3.9,2-5.9,1.2-2.3-1-3.1-4.1-3.7-6.4-.5-1.9-1-4.9.9-6.3,1.1-.8,0-2.6-1.1-1.8h0Z"/>
      <path d="M211.7,76.2c-5.5,3.5-4.9,11.2-2.6,16.5,1.3,3,3.6,6.2,7,6.9,3.7.8,7.3-1.5,9.7-4.1,4.9-5.2,7.9-13.2,4.1-19.8-1.7-3-4.6-5.1-8.1-5.5-3.8-.4-7.7,1-10.9,3.1s-6.3,5.4-7,9.4c-.6,3.6.6,7.5,3.8,9.5,1.1.7,2.2-1.1,1.1-1.8-2.3-1.5-3.3-4.5-2.8-7.2.5-3,2.6-5.5,4.9-7.3,4.6-3.6,12.3-5.9,16.5-.4,3.8,5,2.1,11.6-1.3,16.3-1.7,2.4-4.1,5-7.1,5.7-3.3.8-5.7-1.6-7.2-4.2-2.4-4.3-4-12,1-15.2,1.1-.7,0-2.6-1.1-1.8h0Z"/>
      <path d="M243.7,73c.6,14.5,9.6,27.5,21.7,35.2,13.8,8.7,30.9,10.9,46.8,9.4s31.4-6.5,44.4-15.5c11.1-7.8,20.6-18.7,24-32.1,3.9-15.1-.6-31.6-9.8-44-7.9-10.6-19.3-18.5-31.8-22.7-12.6-4.2-26.5-4.5-39.2-.3-12.8,4.3-23.9,12.7-32.3,23.1-8.4,10.4-14.6,23.2-17.6,36.5-2.7,12-3.2,26.8,4.5,37.2,1.8,2.4,4,4.4,6.5,6,1.1.7,2.2-1.1,1.1-1.8-10.8-6.8-12.7-21.1-11.5-32.8,1.3-12.8,6.2-25.5,13.2-36.3s16.5-20.3,28-26.2c11.5-5.9,24.5-7.9,37.2-5.7s24.5,8,33.6,16.9c10.4,10,17.3,24.1,17.3,38.7s-6.9,26.3-16.8,35.5c-10.6,9.9-24.2,16.1-38.2,19.3-15.4,3.5-32.2,3.7-47.3-1.6-13.5-4.8-25.4-14.9-30-28.8-1.1-3.2-1.7-6.6-1.9-10,0-1.3-2.2-1.3-2.1,0h0Z"/>
    </g>
  </g>
</svg>