<?xml version="1.0" encoding="UTF-8"?>
<svg id="Calque_2" xmlns="http://www.w3.org/2000/svg" version="1.1" viewBox="0 0 272.7 310">
  <!-- Generator: Adobe Illustrator 29.2.1, SVG Export Plug-In . SVG Version: 2.1.0 Build 116)  -->
  <defs>
    <style>
      .st0 {
        fill: #202020;
      }
    </style>
  </defs>
  <g id="Calque_1-2">
    <g>
      <path class="st0" d="M14.3,11.2h8.3c.8,0,6.8-2,7.4-2.5,2.8-2.3-5-4.1-6.4-3.8-.3,0-1.9,2.4-2.9,3.1-3,2-6.7,2.1-10.2,1.8-.5,0-2.5-.2-2.5-.8,3.7-.5,9.2-.6,12.3-2.7.4-.2,2-1.8,1.6-2.2-2,.2-6-1.6-7.7-1.3-1.4.3-4.7,3.5-7.3,3.5H0c.2-.9,1-.7,1.6-.9,3.4-.9,7.5-.7,10.5-2.9C9.5,1.2,4.1,1.8,1.8.7c-.2,0-.5-.7-.4-.7,24.7.9,48,9.4,69.7,22.6,2.5,1.5,5.9,4.5,8.3,5.6.7.3,1.4-.1,1.5,0s.4,1.3,1,2c1.5,1.6,4.6,3.1,6.4,4.7,5.3,4.6,10,9.9,14.6,15,1.3,1.5,2.8,2.9,4,4.5l1.3-.7c-1.1,5.5,2.6,6.4,4.9,1.3l.7,1.8c1.4-1,1.9-2.9,2.9-4.2,3.3-4,9.5-5.2,14.4-4,3.8,1,14.1,6.2,15.8,9.7.4.8,0,2,.7,2.5.6.4,10.2,2.9,12.3,3.8,5.1,2.1,9.7,5.2,14.5,7.4,10.4,4.8,19.4,13.1,31.3,14.7,3.6.5,11.5-.7,14,.8,3.6,2.2,2.4,6.3-.6,8.3-6.1,4-21.4,0-28.5-1.5-1.2-.2-2.1-1.1-3.6-1.1-4.1.2-6.6,2.4-9.8,3.6-1.7.6-3.9.5-5.6,1.2-1.6.6-3.1,2.5-4.9,3.2-7.4,2.9-21.1-2-27.7-5.9-2.4-1.4-4.4-3.1-6.6-4.8,0,2.3.9,6,3.4,6.6,3.4.9,3.1.2,5.9,3,2.1,2.2,7.9,9.2,11.4,6.1,2.1-1.8-1.8-4.3-1.1-4.9,3.8,0,5,4.8,1.6,6.7-4.2,2.4-9.5-2.7-12.3-5.4,2,4.3,3.2,8.4,1.3,13,2.2.3,4.1,1.6,6.2,2.1,12.3,3,27.1,4,39.7,5.1l38.8,6.2c-.8-13.6-3.3-27-2.7-40.7h1.8c-.1,13.7.8,27.3,2.3,40.9l1.7.9-1.4.5c.6,11.2-.9,22.3-2.7,33.3-.6.7-.9,0-.9-.7-.7-5.2,1-10.6,1.3-15.7.4-4.5-.3-9.1.4-13.6-16.8-5-34.2-8.3-51.8-9.4,2.2,2.4,2.7,5.9,2.2,9.1-.4,2.7-5,6-4.4,8,.6,1.9,4.4.5,4.8-1.8.4-1.9-1.2-4.2,2.5-4.9,6.7,3.7,3.5,9-2,11.7-4.7,2.4-10.2,3.7-14.9,6.1-4.6,2.4-8.2,2.3-13.2.9,2.2,8.4,5.4,17.2,7,25.8.9,4.6,1.1,8.8.6,13.5-.7.1-.8-1.2-.8-1.7-1.2-7.4-1.7-13.8-3.7-21.3-1.6-5.8-3.6-11.7-5.6-17.3-.2,5.8,2.4,11.9.7,17.6l-1.4.3c0-6,.2-12.2-1.3-18.1-.5-.5-12.4-4.1-13.7-4.2-2.9-.4-6.5.9-9.6.4.6,5.8,2.7,11.3,4.4,16.8,1.6,5.1,0,5.9,5.5,8.8,5.1,2.6,10.4,3.7,15-.4.8-.7,1.2-2,2.3-2.4-3.4,10.1-15.7,8-21.2.9l-1.1,1.3c-2.5-8.4-5.5-16.6-6.4-25.4l-3.1-1.2c0-.5,1.8,0,2.4-.2.7-.2-.6-1.5,2.3,0l3.8-.5-14.6-4.9c-1.6,9.4-4.8,24.1-15.8,26.3-6.2,1.3-12.8-.3-18.7-2.5-.7-.2-1.3.5-1.1-.9,5.9.7,11.6,3.2,17.6,2.6.7,0,5.4-1.2,5.6-1.4,0-.2-.2-1.1,0-1.6,0-.2,3-2.3,3.7-3.2,4.6-5.4,6.5-13.2,6.9-20.1-6.4-2.4-13.4-5.4-19.3-9.1-.8-.5-4.7-3-5-3.5-.4-.7,0-.9.5-1.3,18.6,11.8,40.4,19.9,62,24.8,2.7.6,6.4,1.7,9.1,1.7,4-.1,4.2-2.4,7.2-3.5,4.1-1.5,8.6-1.8,12.7-4.3,3.4-2.1,6.7-5.2,2.9-8.7-.8,0-.5,7.6-4.9,7.6-1.6-.1-2.4-1.5-3.8-1l-.9-2.8c1.5-2.4,4.4-4.8,4.8-7.7.6-4.5-1-7.7-5.3-9.3-.6-.3-2-1.1-2.5-.3-1.8,2.8,3.9,4.6,4.9,6.3,2.4,4-1.9,8.9-6,9.6-2.9.5-4,.1-5.2-2.5-2.3-5-2-11.9-8.3-14.3-3.1,5.8,4.7,7.6,6.1,12.4.8,2.7,0,5.5-1,8.1l-4.3-.6c-1.3-1.2-9.9-7.6-9.4-2.3.3,2.4,7,2.9,9,3.6,4.3,1.5,5.3,4.3,4.9,8.7h-1.8c1.1-7.3-4-7-9.4-8.5,0,2.3.4,4.5,3.1,4.5,0,1.4-1.2,1.5-2.3,1.1-21-7.7-44.8-12.8-61.3-28.7-.2-1.1,1-.8,1.5-.6,1,.5,4.7,4.6,6.4,5.7,1.9,1.3,5.5,3.2,7.7,4.3,1.2.6,6.5,3.2,7.4,3.3.7.1.7,0,.7-.7-.2-1.2-1.2-4.3-1.6-5.6-1.5-4.7-4-9-6.1-13.4-3.8.2-6.5,1.6-10-1-2-1.5-5.6-7.7-3.1-9.4,1-.7,3.8,0,3.3-1.1-2.1-2.5-4.8-4.6-8-5.4-.5-.2-.7-.5-1.1.2-2.1,8.4-4.9,16.5-6.4,25-1.3,7.5-1.2,13.6-1.9,20.9-.5,5.4-2.2,11.4-1.7,16.9,1,10.4.5,19.6.8,30,.6,18.3,4,36.9,5.4,55.4.4,5.5,0,11.3,1.1,16.8,11,5.7,23.1,9.1,35.4,10.7,12.9,1.6,23,.9,35.6-1.9,4.9-1.1,10.3-2.3,14.6-4.9l-3.9-44.2c-3.7,1.5-6.8,1.3-9.4-2,1.3-.4,2.3.9,3.8,1.1,6.9,1,6.1-5.1,6.9-10l-2.1-17.2c1,.8,1.1,2,1.4,3.1,1.5,6.1,2.9,14.6,1.9,20.7-.3,1.6-1.7,2.9-1.7,4.1s.8,3.5.9,5c.5,6.8,1.6,13.4,2.2,20.1.6,6.2.5,12.4.9,18.6l.9.2c-2.3,1.9.8,4.9-1.1,6.9l-.7-4.9-8.9,3.9c.6,8.3.8,16.9-1.8,24.8,9.4,1.2,19.4,1.6,28.3,5,4,1.5,11.2,7.1,2.4,6.6-8.3-.4-22.6-3.7-31.2-5.5-.5-.1-6.1-.9-4.8-2.1,1.2,0,2.5-.1,3.7,0,9.9.9,20.6,4.6,30.5,5.7h3.8c-9.1-6.7-21.8-6.7-32.5-9l-2.9,2.7c.5-9.1,2-18.2.9-27.3,1.1-.2.8.1,1.1.9,1.6,4.8,0,11.1.2,16.3,0,.6-.4,1.7.4,1.6.6-6.6,1.1-13.1.9-19.7-6.8.6-15,3.9-21.7,4-3.9,0-10-.2-13.9-.5-5.8-.4-12.3-2.3-18.1-3.1v23.7c8,3.2,16.7,5.3,24.6,8.8,2.2,1,5.3,2.2,6.3,4.5,0,1.9-4.8,1.6-6,1.5-3.3-.3-25.4-5.3-26.5-7.1-.3-.5.5-1.8.3-2.8,0-.3-.8-.1-.9-.9-.3-2,.2-4.3.5-6.3l-1.9-22.1c-7.8-2.2-15.9-4.9-22.3-10.1l3.1.5c-1.1-5.2-2.3-10.5-2.7-15.7-.5-4.3,0-9.1-.5-13.4-.9-10-3.3-20.4-4-30.4-.4-5,.8-33.5,0-35,0-.2-.8-.2-1-.5-1.5-2.3,1.7-21.9,2-26.2.2-3.2-.2-6.6,0-9.8.9-11.8,5.2-22.2,8.3-33.3.6-2.1-.4-4,2.8-4.4,6.5-.8,16.1,11.8,20.5,16,.9.2,4.3-5.9,5.3-7.1,1.5-1.8,5.9-5.1,6.7-6.2.3-.3,0-1.3.3-1.9.6-.9,1.8-.8,1.5-3h1.6c-.5-2.2.6-2.9.9-4.5,1.6-.5,1.2.9,2.2,1.3v-1.8c1.8-.5,1.9,1.5,3.1,2.2l-.4-2.4c2.2-1.3,2,3,3.1,3.6.5.3,1.3-.3,1.9-.2,2.7.4,5,3.6,7.4,5.2,5.3,3.3,18.4,7.7,24.3,6.1,1.6-.4,3.2-1.6,4.9-2,.2-.2-4-3.2-4.3-5.3,0-.6.7-1,.7-1.6,0-1.1-.8-2.9-.8-4.1-.1-2.3.9-5.4,1.2-7.8-12.5,0-25-1.3-37.3-3.6-.8,2.1-3.3,2.7-4.7,3.9s-2.8,3.3-4.3,4.7c-7.2,6.5-13.4,8.1-22.9,9.3-2.9.3-4.2-1.2-6.9-.9l.4-1.8c-.8-1.2-8,1.9-9.9-2.4-3.7-8.1,7.4-10.8,12.5-13.7,1.7-1,4-2.3,5.5-3.5,3.3-2.6,5.3-6.8,9-8.7l-.9-.5c1.5-1.5,0-2-.4-3.5,0-.6.3-1.2,0-1.9-.6-2.3-2.9-2.7-4-4.5-7.4,8.9-22.1,8.2-32.4,5.3,0-.8,1.1-.5,1.6-.5,1.8,0,3.7.8,5.4.9,7.6.5,19.4-.5,24.2-7.1l-7.4-9c-1.4-.3-.8,1-1.5,1.7-.8.9-4.8,2.3-6.1,2.6-8.7,2-17.7-1.4-26.4-2,0-.8-.3-1,.6-.9,6.1.8,12.8,2,18.9,1.8,3.1,0,9.7-.7,11.9-2.9.5-.5,1-.9.8-1.7,0-.7-9.6-9-10.2-8.4,0,2.9-3.2,4.7-5.5,5.9-10.1,5.3-22.5,2.9-33,.4h4.6c6.1,1.4,13,1.7,19.2.7,2.8-.4,15.8-4.5,13.1-8.8l-15.7-9.8c-1.2-.2,0,.9-.3,1.9-1.1,5.6-8.7,7.2-13.6,7.5-8.5.5-16.7-.9-24.9-2.7,0-.7,1.1-.4,1.6-.4,3.3.3,7,1.2,10.3,1.4,6,.3,20.1.7,24.4-3.9.9-1.1,1.4-3.5.7-4.7-.4-.6-11.9-6.3-12.3-5.8.2,6.3-7.4,7.5-12.3,8l-9.2-.9c0-.7,1.1-.4,1.6-.4,4.7-.2,16.9,0,18.6-5.6.3-1.2.3-1.7-.8-2.4-3.5-2.3-10-3-13.9-4.8h-1c-2.1,6-11,5.6-16.3,4.7-.7,0-1.4,0-1.6-.9h-.1,0ZM118,51.6h0c-1.2,1.2-2.1,3.8-3.1,5.2-.7.9-4.6,4.2-4.6,4.7l2.1,5.2-3.4-1.8-1.1-2.3h-.7c-3.4,2.7-5.9,7-9.2,9.6-4,3.3-12.8,6.1-15.6,9-2,2.1-2.6,4.9-.2,7,3.1-.3,6,.5,9,.4,5.1-.2,23-4.3,26.6-7.4.9-.7.7-1.6,1.2-2,.2-.2,4.5-3.2,4.7-3.4.5-.4,1.2,0,2.1-.8,1.7-1.5,5-9.8,6.8-12.5.7-1.1,3.4-5.1,4.6-5.1l8.3,2.1c-1.9-3.9-7.5-7.2-11.5-8.9-4.6-1.9-12.2-2.8-16.1,1h0ZM136.6,59.1c0,0-8.1,15.1-8.1,15.1l27.5,3.1c2.2-.3,9.1.8,10.5-.6,1.1-1,2.2-3.8,3.6-4.9-10-6.8-21.7-10.6-33.5-12.7h0ZM171.1,73h0l-.5,1.7c-1.2-1-2.6,1.2-2.9,2.2-.2.7,1,1,.7,1.8-.5,0-1.4-.3-1.8.3-2,2.7-1.2,9.5,0,12.5.4.9,2.8,4.5,3.5,4.7,2.4.6,10.2-4.5,14.2-4.5,10.6-.2,18.4,5.5,30.3,3.5,2.9-.5,5.7-1.8,4.6-5.3-1.3-4.1-6.4-2.3-9-2.3-12.7-.5-19.8-5.1-30.5-10.6-1.4-.8-7.4-4.9-8.6-4.1h0ZM112.9,86.6c.3-.3,1.5-1.2,1.1-1.6-7.5,1.8-14.7,5.4-22.6,4.9-.2.5-1.6.9,1.1.9s5.9.2,8.5,0c4.2-.3,8.7-1.4,11.9-4.2ZM84.6,93.9h0c-.2,1.3.4.7,1,1,4.3,2.1,5.5,2.1,8.9,5.9,2,2.2,3.9,4.3,6,6.5,1.4,1.6,1.7,4.7,4.3,2,.2-.9-9.1-10.2-10.5-11.4-2.6-2.1-6.1-4.6-9.6-4h-.1ZM119,113.4h0c1.1-1,.7-3,3.6-3.4,2-.2,2.3,1.1,3.1,1.2.5,0,1-.7,1.7-.8,2-.3,3.6.2,4.9,1.8l2.1-1.7c2.7.4,2.8,2.5,3.9,4.1s2.9-1.8,3.1-3.1c1.1-7.3-6.1-16.1-13.3-16.5-.7,0-6.6.6-7.3.8-4.6,1.4-10.4,8-12.3,12.3-.7,1.6-1.2,7.1.6,7.7,1.3.4,9-1.5,9.9-2.3h0ZM95.2,105.3h0c-1.5-.9-3.6-2.1-5.1-.4,1.2,5.1,4.7,8.5,10.2,6.7.5-.4.5-.5.2-1.1-.2-.3-2.3-2.9-2.7-3.2-.2-.2-2.4-1.9-2.6-2h0ZM104,111.9c-.4.5,2.8,5.7,3.4,6.9,2.2,4.9,3.8,10.1,5.1,15.3,8.2,3.7,16.5,7.3,25.2,9.9.5,0,4-2.5,4.2-2.9.6-.9.3-2.2.6-3.3.3-.8,1.2-1.1,1.2-2.4.2-2.6-1.5-6.9-1.8-9.6-5.4,7.3-15.5,9.7-24.2,8.5-.4-1.6,2.1-.7,2.7-1.6-.5-1.6-8-14.3-8.9-14.8-1-.5-3.1,0-4.2-1.1s-1.1-4.2-1.1-5.8l-2.2.9h0ZM127.3,112.4c-.3.3-.8,1.5-.6,1.7l4.5.4c-.4-1.3-1.4-2.5-2.9-2.5s-.7,0-1,.4h0ZM124.9,113.4c-.8-2.4-3.6-1.9-4,.2l4-.2ZM133.4,115.4h3.1c.3-1.5-1.2-2.2-2-3.1l-1.1,3.1h0ZM112.6,117.1h0l9,15.6c7,0,15-1.9,19.4-7.6l1.6-2.6c.3,4.3,3,8.4,2.7,13,3.2-1.8,9.4,6.6,11.4,4,0-1.2,1.1-3.2,1-4.2-.4-3.4-10.1-8.5-6.6-14.1-.5-.3-5.8.3-6.3-1.3,2.6.3,5.6.2,8.2.5,3.4.4,7.3,1.4,10.9,1.6.8,0,1.3.2,1.9-.6l-20.8-3.8-.3.9h-.9c0-2.2-1.8-2.2-3.6-2.2.2,1.1.5,2.1.5,3.3s.3,3.1-.5,3.4c0-1.1-.2-6.4-1.1-6.6-6.7,1.3-12.5-1.6-19.3-1-2.6.2-4.9,1.5-7.4,1.8h.2ZM156.6,122h0c3.5,1.9,4.7,13.2,6.4,14.6,2.5,2.1,9.2-2.5,7.9-6.7-.3-1-4.4-2.9-5.3-4.5-.5-.9-.3-2.3-.8-2.7l-8.1-.6h0ZM226.5,132.4v-2.7l-14.3-1.8,14.3,4.5ZM144.6,145.8c0-1.5.4-3.2-1.2-4l-3.3,2.2c-.4.7,3.9,1.7,4.5,1.8ZM100.4,271.1h0l1.3,8.5c.2-2.7.9-5.5.2-8.1l-1.6-.4h0ZM103,296.6h0l-.4,5.4c9.5,2.4,18.6,6.5,28.6,6.3l-1.2-1.3-27-10.4h0Z"/>
      <path class="st0" d="M257.3,81.4c.5,0,1-.2,1.4.3,1,1.2,2.5,7.3,2.9,9.1,1.5,7,1.9,14.1,2.5,21.2.4,1.2,4.3,2.1,5.6,3.1.2,0,2.3,2.2,2.4,2.4,2.3,3-2,6.5-4.9,6.4,1.1,1.5,2.5.9,3,3.1.5,2.3-1.1,3.8-1.1,5.2s2.7,2.8,2.1,6.6c-.7,4.1-6.7,3-7.3,3.9-.7,4.4-.8,9.3-2.7,13.4-1.1.2-.7-.9-.7-1.6-.2-4.2,1.5-8.6,1.7-12.9-3.1-1.5-5.5-6.2-1.7-8.1-.4-.9-3.4-.6-3.9-2.3-.6-2,1.4-3.9,2.5-5.3-5.8-6-7.3-15.6,4.1-13.7-.5-3.6-.4-7.2-1-10.8-1.1-6.6-3.9-13.3-4.8-20h-.1ZM267.2,116.8h0v-1.7c-2.3-.5-7.3-3-9.3-1.2-2.9,2.6.2,10.2,3.4,10.5,1.3,0,8-2.2,8.9-3.2,1.6-1.9-.8-5.3-2.9-4.5h-.1ZM266.3,131.9l-.4-1.3c3.5.1,2.9-5.6.2-5.6s-4.4,1.3-4.7,1.4c-.6.3-2.6,2.5-2.6,3.2-.2,1.5,6,4.2,7.5,2.3h0ZM261.9,140h0s.8-.4,1.4-.3c.7.2.9.8,2.3.8,4.3-.3,4.5-3.6,2.5-6.7-.6-.4-2.6,1-3.5,1.1-1.5.1-4.3-1.2-4,2.1,0,.4,1.2,3,1.3,3h0Z"/>
      <path class="st0" d="M116.5,196.7h0c2.3,1.1,11.6.8,14.4.5,2.2-.3,6-1.4,6.1-4,1.8.7-.3,3-1.4,3.8-4.9,3.5-13.3,2.5-18.8,1.6l2.7,24.6c-1.1.1-.8.1-.9-.7-1.2-8-2.3-16-3.2-24.1l-2.2-1.2c-.9-.9,2.6-1.4,2.9-1.3s.3.8.4.8h0Z"/>
      <path class="st0" d="M120.8,223.6h9.6c.7,0,5.3-2.3,6.1-2.9,3.9-3.1,4.9-9.2,4.5-13.9-.3-4-2.3-8.2-2-12.3,2.9,8.3,6.9,22.5-2.1,28.3-4,2.5-9.7,3.3-14.2,1.9-.5-.1-1.8-.5-1.8-1.1h-.1Z"/>
      <path class="st0" d="M223.5,168.2c10,0,20-.7,29.2-5,3.6-1.7,6.8-4.4,10.6-5.8-9,10-24,12.8-36.9,11.6-.6,0-2.8-.2-3-.8h.1Z"/>
      <path class="st0" d="M156.3,216.4h0l-5.4-22.6c.8-1.3,1,.2,2,.2,2,.2,4.3,0,6.2-.9,1.2-.5,1.8-1.6,3-1.7-1.5,3.7-5.8,4.8-9.4,4.5-.7.6,4.1,14.1,4.4,16.4.2,1.2.5,3.6-.8,4.2h0Z"/>
      <path class="st0" d="M226.1,89l31.4-9.6,1.7.4c-10.5,3.1-20.9,7.7-31.8,9.4-.4,0-1.3.6-1.3-.2h0Z"/>
      <path class="st0" d="M174.2,91.4c.5,0,2.1.6,2.1,1-1.7,3-5.4,4.1-8,1.3-.3-1.5,5.1-2.3,6-2.3h-.1Z"/>
    </g>
  </g>
</svg>