<svg width="156" height="176" viewBox="0 0 156 176" fill="none" xmlns="http://www.w3.org/2000/svg">
<path d="M81.4239 55.2388C79.4644 54.2794 77.6681 52.9731 75.8922 51.8708C75.7289 53.81 76.6271 54.7489 78.6275 55.3C79.6481 55.5858 80.4646 56.6473 81.3627 57.3617C82.6691 58.3823 83.955 59.4233 85.2818 60.4031C85.588 60.6276 86.0779 60.7093 86.4658 60.6889C87.7109 60.6276 88.0987 59.7499 87.4047 58.7293C87.2006 58.4231 86.9761 58.1169 86.6903 57.7087C87.0577 57.6474 87.3231 57.6066 87.5884 57.5454C87.7721 57.7291 87.9763 57.9332 88.16 58.1169C89.2622 59.26 88.956 61.0155 87.4047 61.4441C86.5882 61.6687 85.486 61.6074 84.7511 61.24C83.3631 60.546 82.1588 59.5254 81.0565 58.7905C81.3219 59.7091 81.8118 60.8318 81.9342 62.0157C82.0567 63.1792 81.7914 64.3835 81.7097 65.7103C82.8324 66.0777 84.1183 66.6697 85.4655 66.8534C92.7527 67.874 99.999 69.2212 107.347 69.8744C114.124 70.4663 120.82 71.9768 127.556 73.0587C127.984 73.1199 128.433 73.1607 129.086 73.2424C128.862 70.5684 128.617 68.0781 128.433 65.5878C128.107 60.8318 127.821 56.0553 127.576 51.2993C127.576 50.9522 127.882 50.5644 128.045 50.197C128.168 50.2582 128.29 50.2991 128.413 50.3603C128.454 50.6461 128.515 50.9318 128.535 51.2176C128.964 58.3211 129.372 65.4245 129.821 72.528C129.862 73.0179 130.189 73.4669 130.352 73.8548C130.25 74.1609 130.046 74.5488 130.046 74.9162C130.23 79.7947 129.842 84.6324 129.046 89.4293C128.862 90.5315 128.637 91.6542 128.413 92.7565C128.27 92.7565 128.148 92.736 128.005 92.7156C128.005 92.287 127.984 91.8583 128.005 91.4297C128.311 86.7144 128.597 81.9788 128.944 77.2636C129.025 76.2634 128.76 75.8347 127.739 75.5286C121.391 73.6302 114.88 72.4871 108.348 71.4665C105.633 71.0379 102.877 70.8337 99.9582 70.5071C100.142 70.9154 100.224 71.0991 100.326 71.2624C101.55 73.3649 101.571 75.4673 100.203 77.529C99.8153 78.1209 99.2642 78.5904 98.8764 79.1823C98.6927 79.4477 98.5906 79.9784 98.7335 80.1825C98.9376 80.4683 99.4071 80.652 99.7745 80.6724C100.713 80.7132 101.346 79.5702 101.367 78.4067C101.367 77.8147 101.714 77.0391 102.183 76.7125C102.469 76.5083 103.387 76.8349 103.775 77.2024C105.47 78.7333 105.082 80.999 102.755 82.3462C100.979 83.3873 99.0397 84.1425 97.1618 84.9794C96.7943 85.1427 96.3453 85.1223 95.9574 85.2652C95.1409 85.5509 94.2632 85.7551 93.5488 86.2245C92.3445 87.0206 91.1401 87.6942 89.65 87.5718C88.4253 87.4697 87.1802 87.3064 85.9758 87.1839C87.1393 91.5726 88.3233 95.8795 89.4051 100.207C90.14 103.085 90.487 106.004 89.9154 108.984C89.4459 106.453 89.2214 103.881 88.7111 101.37C88.2212 98.8801 87.5068 96.4102 86.8128 93.9608C86.1187 91.5317 85.3226 89.1435 84.5674 86.7144C84.4653 86.7553 84.3429 86.7757 84.2408 86.8165C84.3837 87.7555 84.547 88.6944 84.6287 89.6538C84.792 91.5726 84.9552 93.4913 84.9961 95.3896C84.9961 95.8183 84.5878 96.2469 84.2612 96.9001C83.9959 93.4913 83.7101 90.4907 83.5264 87.4901C83.4651 86.5511 83.0569 86.2041 82.2404 85.9796C80.587 85.5305 78.9132 85.1019 77.3211 84.4895C74.9329 83.5506 72.5446 84.5303 70.0543 84.1629C70.1768 84.7753 70.2585 85.1835 70.3605 85.5918C71.2178 88.7353 72.2589 91.8379 72.8916 95.0222C73.2999 97.043 74.4225 98.0636 76.1167 98.7781C76.7291 99.0434 77.3619 99.268 77.9743 99.5333C80.485 100.534 82.8936 99.9211 84.6491 97.8799C84.8736 97.6146 85.1185 97.39 85.3431 97.1247C84.894 99.023 83.6693 100.248 81.873 100.717C78.4233 101.615 75.8106 100.003 73.5856 97.635C73.3815 97.8799 73.2182 98.0841 72.7896 98.6352C71.6873 94.2261 70.6463 90.1437 69.6869 86.0408C69.4215 84.9182 69.5236 83.6526 67.7682 83.5301C67.8294 83.4077 67.8906 83.2852 67.9723 83.1831H72.463C69.5032 82.1421 66.87 81.2236 64.1552 80.2642C64.0531 80.7949 63.9103 81.2644 63.849 81.7543C63.2366 86.0408 62.1752 90.1641 58.7868 93.2055C58.0111 93.8995 57.0109 94.4915 56.0311 94.7977C53.398 95.5733 50.724 95.3488 48.1112 94.5936C46.8252 94.2261 45.5597 93.7975 44.2941 93.4097C44.3349 93.2668 44.3758 93.1239 44.4166 92.981C45.7842 93.3076 47.1314 93.6954 48.499 93.9608C52.0099 94.614 55.6025 95.655 58.3785 92.2053C58.848 91.6134 59.4196 91.1235 59.8686 90.5315C62.0527 87.5718 62.8488 84.1221 63.2979 80.5704C63.3387 80.2642 62.8692 79.7539 62.5018 79.5702C59.9095 78.3046 57.2355 77.2024 54.6635 75.8756C52.8264 74.9366 51.1322 73.7323 49.3768 72.6504C49.4584 72.4667 49.5401 72.283 49.6013 72.0993C49.9891 72.2218 50.4178 72.2626 50.7648 72.4463C52.9489 73.6915 55.0309 75.0999 57.2763 76.2226C67.1762 81.1623 77.7293 84.2854 88.4866 86.6736C89.895 86.9798 91.283 86.8573 92.4874 85.7551C93.0793 85.2039 93.8958 84.8365 94.6715 84.5712C96.5086 83.918 98.4273 83.5097 100.203 82.7341C101.305 82.2442 102.306 81.3869 103.163 80.5091C104.184 79.4885 103.796 78.2842 102.306 77.6514C102.306 78.0188 102.346 78.325 102.306 78.6516C101.979 80.8153 100.836 82.5095 98.4477 81.244C97.3863 80.6724 97.1618 79.9172 97.8966 78.9578C98.4273 78.2842 98.9376 77.5902 99.4071 76.8758C100.407 75.304 100.264 73.6506 99.5296 72.0789C98.8764 70.6704 97.0189 69.7519 95.2838 69.9968C95.6104 70.6296 95.8146 71.242 96.2024 71.6911C96.6106 72.1605 97.2026 72.4463 97.7129 72.8137C98.6518 73.5077 98.9988 74.4671 98.7131 75.5898C98.2028 77.6106 95.937 79.1823 93.855 78.917C93.3855 78.8557 92.7323 78.4883 92.569 78.1005C91.9566 76.6512 91.4667 75.1407 90.9973 73.6302C90.4257 71.8135 89.4868 70.3438 87.6497 69.5478C86.8944 71.0991 86.9761 71.7931 88.0579 72.8954C88.507 73.3444 88.9969 73.7323 89.4255 74.1814C91.4463 76.2634 91.6913 78.57 90.2828 80.9174C87.9558 81.1827 86.5678 79.5906 84.9348 78.5087C84.894 78.4883 84.8532 78.4679 84.8328 78.4475C84.0979 78.2026 83.2406 77.9372 82.8528 78.7945C82.4241 79.7131 83.1794 80.2029 83.9346 80.4275C85.0165 80.7541 86.1391 80.9582 87.221 81.2236C89.4867 81.7951 90.4257 82.8361 90.487 84.9182C90.487 85.3672 90.1808 85.8163 90.0175 86.2654C89.8542 85.8571 89.5888 85.4693 89.548 85.0406C89.4255 83.9996 89.2622 82.9178 88.2008 82.5299C86.9761 82.0809 85.6493 81.8767 84.3021 81.5502C84.1796 83.0402 84.9144 83.8159 86.1187 84.4079C85.5472 84.5916 85.0573 84.6732 84.6491 84.5303C78.9541 82.6116 73.1978 80.7745 67.564 78.6516C62.9509 76.9166 58.4194 74.8754 54.3777 71.9972C52.9081 70.9562 51.5813 69.7111 50.1932 68.568C50.3157 68.4047 50.4382 68.2414 50.5607 68.0781C52.5406 69.507 54.439 71.0583 56.521 72.3238C58.7051 73.6506 61.073 74.6917 63.6449 75.998C63.5224 75.3653 63.4816 75.1203 63.4408 74.8958C62.7876 71.5278 61.2567 68.5067 59.6849 65.5061C59.2971 64.7509 58.9093 64.5468 58.0315 64.7713C54.1532 65.7511 52.3365 63.4853 51.5609 60.4439C51.2955 59.4233 51.7854 58.7293 52.8876 58.6068C53.1734 58.566 53.4388 58.5456 53.8266 58.5048C52.6427 56.5044 50.8464 55.6879 48.8052 55.198C48.4174 56.586 47.9887 57.9332 47.6417 59.3008C46.8252 62.4239 45.8454 65.5062 45.3147 68.6701C44.6615 72.7117 44.3758 76.8145 43.9879 80.8766C43.5797 84.9998 42.6816 89.0618 43.3143 93.2872C43.7634 96.2469 43.4776 99.3088 43.5389 102.33C43.6205 106.433 43.3347 110.597 43.9063 114.638C45.4576 125.436 46.2741 136.275 47.0089 147.135C47.0702 147.91 47.2947 148.298 48.0091 148.625C52.6835 150.809 57.5212 152.503 62.6447 153.381C69.5644 154.565 76.4638 155.544 83.4243 153.687C84.0367 153.524 84.6695 153.544 85.2818 153.381C88.262 152.585 91.2422 151.789 94.202 150.952C95.1205 150.707 95.3246 150.074 95.2226 149.135C94.6102 143.175 94.0591 137.214 93.508 131.254C93.3242 129.356 93.1814 127.457 93.0181 125.538C90.2828 126.416 89.2622 126.171 87.7313 124.191C88.1395 124.334 88.4049 124.416 88.6498 124.518C91.5076 125.845 93.4059 124.844 93.5488 121.721C93.6509 119.558 93.5488 117.374 93.3651 115.21C93.2222 113.393 92.8548 111.597 92.5894 109.78C92.8956 109.964 93.0793 110.188 93.1406 110.433C93.4467 111.74 93.7529 113.046 93.9774 114.353C94.549 117.904 95.6104 121.497 93.6509 124.987C93.5488 125.171 93.6508 125.477 93.6917 125.722C94.4061 133.397 95.1205 141.052 95.8349 148.727C95.8758 149.176 96.2432 149.625 96.2432 150.074C96.2432 150.992 96.1003 151.911 96.0187 152.83C95.9982 153.136 95.9574 153.442 95.9166 153.748C95.835 153.748 95.7533 153.748 95.6716 153.728C95.5696 152.911 95.4471 152.095 95.3451 151.258C93.6509 151.952 92.0179 152.585 90.2828 153.299C90.8135 157.933 90.5482 162.587 89.5276 167.241C90.9564 167.424 92.324 167.628 93.6917 167.771C97.57 168.139 101.408 168.812 105.102 170.098C106.715 170.67 108.307 171.343 109.062 173.16C108.062 174.017 106.96 173.854 105.898 173.67C99.8766 172.629 93.855 171.568 87.8538 170.486C87.3231 170.384 86.8128 170.16 86.3025 169.976C86.3229 169.853 86.3433 169.731 86.3637 169.629C87.1189 169.629 87.8946 169.506 88.609 169.629C94.1203 170.629 99.6316 171.67 105.163 172.67C105.919 172.813 106.694 172.772 107.45 172.834C107.49 172.67 107.552 172.507 107.592 172.323C106.204 171.731 104.857 170.956 103.408 170.609C99.4275 169.67 95.3859 168.955 91.3851 168.098C90.0175 167.812 88.7315 167.588 87.9354 169.18C88.1804 164.097 88.4253 159.035 88.6703 153.952C89.0377 155.034 89.2826 156.177 89.3234 157.3C89.3643 158.423 89.1806 159.545 89.1397 160.688C89.0989 161.811 89.1397 162.934 89.1397 164.036C89.2418 164.036 89.3643 164.036 89.4663 164.036C89.6501 160.505 89.8338 156.994 90.0379 153.095C79.8114 156.483 69.8502 155.973 59.7666 153.646C59.7666 158.239 59.7666 162.587 59.7666 166.934C64.0735 168.486 68.3601 169.996 72.6263 171.588C73.8714 172.058 75.0757 172.691 76.2188 173.364C76.6066 173.589 76.77 174.201 77.0353 174.63C76.6067 174.814 76.178 175.14 75.7289 175.161C74.8512 175.222 73.9326 175.283 73.0957 175.079C68.6663 174.017 64.2573 172.874 59.8482 171.731C59.4196 171.629 59.0317 171.364 58.746 171.221C58.8072 170.649 59.0113 170.078 58.848 169.894C58.0111 169.016 58.4398 168.016 58.4602 167.077C58.4602 166.322 58.6235 165.567 58.5623 164.832C58.2969 161.28 57.9499 157.729 57.6641 154.197C57.6029 153.503 57.3783 153.197 56.7252 152.972C54.092 152.013 51.4588 151.074 48.8869 149.951C47.5396 149.36 46.3353 148.421 45.0494 147.624C45.1106 147.522 45.1514 147.441 45.2127 147.339C45.6617 147.502 46.1108 147.665 46.7232 147.89C46.6211 147.257 46.5395 146.726 46.4782 146.196C46.0904 142.828 45.6821 139.48 45.3351 136.112C45.0902 133.663 45.0494 131.172 44.7432 128.723C43.8655 121.456 42.5999 114.271 42.7224 106.882C42.804 102.513 43.498 98.0841 42.1508 93.7158C41.7018 92.2666 42.0488 90.5519 42.1917 88.9598C42.4978 85.5101 43.151 82.0605 43.2123 78.5904C43.2939 73.4057 44.0696 68.3435 45.4576 63.3833C46.2741 60.4847 47.2947 57.6474 48.05 54.7285C48.4786 53.0751 49.091 52.4015 50.6627 53.0751C52.2753 53.7691 53.847 54.7285 55.2147 55.8308C57.3988 57.5862 59.3992 59.5458 61.4608 61.4441C61.5833 61.4441 61.9099 60.9746 62.2773 60.5256C63.7674 58.6885 65.0737 56.6473 66.8292 55.0959C67.7477 54.2794 67.7477 53.1159 68.6459 52.4219C69.0133 52.1362 69.1766 51.585 69.4216 51.1768C69.442 51.1768 69.4828 51.2176 69.5032 51.238C69.7686 50.5032 70.0339 49.7683 70.3401 48.8702C70.8096 49.1764 71.0954 49.3601 71.2995 49.503C72.2997 47.7679 72.5446 49.9112 73.157 49.8704C73.1162 49.4417 73.0753 49.0335 73.0549 48.6048C73.1978 48.5436 73.3407 48.4824 73.4836 48.4211C73.9122 49.1968 74.3409 49.9725 74.6471 50.544C75.3615 50.7073 76.0147 50.6869 76.4638 50.9727C77.6681 51.7483 78.7499 52.6873 79.9338 53.4834C83.4447 55.8512 87.4864 56.5656 91.5484 57.1576C93.3039 57.4229 94.8144 56.5248 96.3657 55.6879C95.141 54.5652 93.8754 53.7895 94.2428 51.7483C94.6102 49.7071 94.3245 47.5638 94.3245 45.7063C87.6701 44.9306 80.934 44.1346 74.198 43.3793C73.9326 43.3385 73.5652 43.5018 73.3407 43.6855C71.8302 44.9919 70.3605 46.3391 68.8704 47.6863C67.9723 48.5028 67.1762 49.503 66.1352 50.0949C61.7262 52.626 56.9905 53.6262 51.867 52.8302C52.1936 51.6463 51.6833 51.5442 50.8056 51.7075C47.8458 52.2382 46.3353 51.2993 46.1924 48.8906C46.1312 47.7271 46.5599 46.7269 47.4988 46.0533C48.4174 45.4001 49.3972 44.8082 50.3974 44.3387C53.8266 42.7057 57.1742 41.0115 59.4808 37.8272C59.889 37.2556 60.5014 36.827 60.9709 36.2963C61.175 36.0513 61.42 35.6635 61.3791 35.3777C61.2158 34.3163 61.1342 33.1936 60.6851 32.2547C60.2973 31.4586 59.44 30.887 58.7868 30.193C55.1942 34.3367 45.8659 35.7656 40.8445 33.0099C40.9873 32.9895 41.0894 32.9283 41.2119 32.9283C41.4568 32.9283 41.7222 32.9691 41.9671 33.0099C45.1718 33.6427 48.3766 33.6631 51.5609 32.9283C53.6021 32.4588 55.6433 31.9281 57.2559 30.4788C57.7049 30.0705 58.4398 29.5807 57.7662 28.8254C56.4394 27.3353 55.0718 25.9065 53.8062 24.5388C53.153 25.0491 52.6835 25.6615 52.112 25.8248C50.3565 26.3555 48.5603 27.07 46.7844 27.0291C43.7838 26.9679 40.8036 26.3964 37.8234 26.0085C36.8437 25.886 35.8639 25.6615 34.8841 25.4778C34.8841 25.3757 34.9249 25.2737 34.9249 25.1716C35.8639 25.2737 36.8232 25.3553 37.7622 25.4982C41.8038 26.0698 45.8454 26.4168 49.8871 25.6003C50.7852 25.4166 51.6425 24.8858 52.4386 24.396C52.6427 24.2735 52.7448 23.457 52.5611 23.2937C50.9077 21.722 49.1726 20.2115 47.5805 18.7826C46.8456 19.6807 46.3966 20.6809 45.6413 21.0688C43.743 22.069 41.763 23.11 39.681 23.5591C35.8231 24.3755 31.9243 23.7836 28.1072 22.9875C27.3724 22.8242 26.6784 22.6201 25.964 22.4364C30.0056 22.6813 34.0064 22.9059 38.0072 22.8446C40.7424 22.8038 43.1918 21.5995 45.4576 20.1094C46.417 19.4766 46.764 18.2315 46.1108 17.8028C43.2531 15.8841 40.3545 14.047 37.2111 12.0057C37.3948 13.9041 36.8028 14.9859 35.5985 15.8432C34.0268 16.9659 32.2713 17.3333 30.4138 17.4966C25.4945 17.9661 20.6772 17.3129 15.962 15.9453C16.2477 15.8841 16.5539 15.8636 16.8193 15.9045C21.31 16.721 25.8211 16.721 30.3526 16.4964C32.3326 16.3944 34.2513 15.8636 35.8231 14.5573C36.8232 13.7204 36.9661 12.1078 36.0476 11.6179C33.9655 10.4952 31.8018 9.47462 29.5565 8.35195C29.5973 10.3932 28.4951 11.4138 27.005 12.067C24.0044 13.3938 20.9221 12.9447 17.8603 12.3527C18.5951 12.2099 19.3504 12.2303 20.1056 12.2099C22.3714 12.1282 24.678 12.1895 26.7192 11.0668C27.4949 10.6381 28.1685 9.96452 28.6992 9.2705C29.0462 8.82143 29.087 8.12742 28.2909 7.84165C25.5557 6.84145 22.8205 5.84125 20.024 4.82064C19.4116 6.49444 18.4522 7.53546 16.8193 7.71917C15.615 7.86206 14.3902 7.96412 13.1859 7.96412C12.1857 7.96412 11.1651 7.82124 10.1649 7.71917C10.1649 7.57629 10.1649 7.41299 10.1649 7.27011C11.1855 7.27011 12.2265 7.41299 13.2063 7.22928C14.9618 6.90269 16.6764 6.41279 18.391 5.9229C18.6156 5.86166 18.9422 5.41259 18.9013 5.20847C18.8401 4.9227 18.5339 4.57569 18.2481 4.47363C17.4316 4.16745 16.5743 3.96333 15.717 3.77962C15.4517 3.71838 15.0434 3.84085 14.8801 4.04498C12.7572 6.39238 9.4913 7.22928 6.654 6.14743C9.18511 5.45342 12.1653 5.90249 14.3698 3.4122C13.0838 3.14684 12.0632 3.00395 11.063 2.73859C10.1853 2.51406 9.53212 2.69777 8.75645 3.22849C6.71523 4.65734 4.36782 4.67775 2 4.37157C4.10246 3.53467 6.49069 3.69797 8.42985 2.28953C6.49069 1.98334 4.57195 1.65675 2.63279 1.35056C2.87774 1.04438 3.08185 0.983144 3.26556 1.00356C4.02081 1.04438 4.77607 1.08521 5.53132 1.14644C12.2061 1.84046 18.7176 3.31014 25.0454 5.57589C32.3734 8.18866 41.6201 13.2917 47.5601 17.8232C52.6223 21.6811 56.9497 26.1922 61.073 30.9891C61.2567 31.2136 61.6037 31.2749 61.7261 31.3361C62.0732 32.173 62.4202 33.0303 62.9305 34.2551C63.747 33.214 64.3185 32.4792 64.9513 31.6627C65.1554 32.1322 65.2575 32.3363 65.4003 32.7037C65.7678 32.1322 66.1352 31.7239 66.3597 31.234C67.4824 28.8458 70.7075 27.5598 73.259 27.8252C77.0149 28.2334 80.1175 30.091 82.9753 32.418C83.4243 32.7854 83.9142 33.3977 83.9551 33.9285C84.0367 34.7041 84.3837 34.8878 85.0165 35.0511C88.8948 36.0309 92.5894 37.4394 96.0187 39.5214C96.6923 39.9296 97.2434 40.5216 97.9374 40.8686C99.1213 41.4606 100.448 41.7872 101.591 42.4199C103.551 43.5222 105.388 44.8694 107.368 45.9308C112.083 48.4824 117.002 50.1562 122.493 49.503C124.351 49.2784 125.596 50.2378 125.902 51.7483C126.147 52.9118 125.126 54.4836 123.555 54.8714C122.003 55.2592 120.309 55.6879 118.758 55.4633C114.839 54.9122 110.96 54.0141 107.062 53.2792C106.735 53.218 106.388 53.1159 106.082 53.218C103.183 54.0957 100.305 54.9734 97.4067 55.892C97.1209 55.9941 96.9168 56.3615 96.6106 56.5044C95.5696 56.9943 94.5286 57.7699 93.4467 57.8516C91.4667 57.9945 89.4663 57.7087 87.4864 57.5862C85.4247 56.8106 83.2814 56.1982 81.3219 55.2388H81.4239ZM82.7303 33.0916C80.2808 30.9279 77.5864 29.2132 74.3001 28.6213C70.8708 27.9885 68.4009 29.2132 66.6659 32.1934C66.1148 33.1528 65.237 33.9285 64.441 34.7245C63.9307 35.2144 63.7061 35.6023 64.1144 36.3167C64.4614 36.9291 64.6247 37.6843 64.8696 38.3579C64.7676 38.4396 64.6655 38.5212 64.5634 38.6029C63.7469 37.8884 62.9101 37.174 61.9711 36.3575C61.7057 36.6025 61.2158 36.9086 60.8892 37.3577C57.9091 41.2973 53.8674 43.7263 49.4992 45.7471C48.6419 46.1554 47.8254 47.0127 47.3559 47.8496C46.5395 49.3193 47.4784 50.3807 49.1114 50.5644C52.5815 50.9522 55.9903 50.6052 59.3175 49.7275C62.1752 48.9723 64.9513 47.9312 67.6661 46.7473C68.8704 46.237 69.7073 44.9511 70.8708 44.257C73.3611 42.7669 74.0959 40.0929 75.4227 37.8272C76.178 36.5208 77.0353 35.2961 77.913 34.0713C78.3009 33.4998 78.7704 33.2344 79.5868 33.561C80.7708 34.0305 82.0567 34.2142 83.6489 34.6021C83.2406 33.8876 83.0773 33.3977 82.7507 33.0916H82.7303ZM94.9776 46.6657C94.3653 49.0743 94.7123 51.4013 95.9574 53.565C96.7739 54.9734 97.5087 55.3 99.0192 54.7489C100.183 54.3203 101.305 53.7283 102.469 53.2792C105.429 52.1157 108.409 52.7281 111.328 53.4425C114.573 54.2386 117.799 55.1776 121.207 54.606C122.024 54.4631 122.84 54.2998 123.657 54.0957C124.575 53.8712 125.086 53.2996 125.045 52.2994C125.004 51.2788 124.616 50.4011 123.555 50.2786C121.779 50.0949 119.983 50.1153 118.186 50.0541C113.798 49.8704 109.94 48.2987 106.266 45.9308C103.959 44.4612 101.428 43.3181 98.9376 42.1138C98.6518 41.9709 98.0803 42.2566 97.7129 42.4812C97.223 42.8078 96.7331 43.1956 96.3861 43.6651C96.1616 43.9713 96.182 44.4612 96.1207 44.7673C95.6717 45.4818 95.1205 46.0125 94.9776 46.6453V46.6657ZM80.6483 66.0981C80.7707 67.6086 80.8524 68.7517 80.934 69.9152C80.832 69.9152 80.7503 69.9356 80.6483 69.956C80.485 68.8742 80.3217 67.7719 80.1788 66.7513C76.6067 66.4655 73.0957 66.0777 69.5848 65.9756C68.0947 65.9348 66.5843 66.5064 65.0125 66.8125C66.523 69.3641 67.9315 71.7523 69.3399 74.1609C70.3401 75.8756 70.3197 75.8551 72.3405 75.549C75.4023 75.0795 78.3417 74.3446 80.485 71.8543C80.934 71.3236 81.3015 70.7317 81.7505 70.1193C82.3425 72.4259 82.9344 74.7529 83.4243 76.6921C84.894 77.529 86.1391 78.2638 87.4047 78.9986C87.8334 79.2436 88.2416 79.5906 88.6907 79.7335C88.9764 79.8151 89.4867 79.6926 89.6704 79.4885C90.2828 78.7945 90.2828 76.8758 89.6704 76.1001C88.8948 75.0999 88.0987 74.1405 87.2618 73.2016C86.2412 72.0585 85.9554 70.8133 86.6086 69.2824C85.4451 69.0987 84.3429 68.915 83.2406 68.7517C83.2406 68.6088 83.2814 68.4863 83.3018 68.3435C85.2206 68.568 87.1189 68.7925 89.0377 69.0171C90.8952 69.2416 92.7731 69.4457 94.651 69.4253C90.7115 68.6292 86.8128 67.6086 82.7099 67.2616C82.1384 66.9554 81.4852 66.588 80.6279 66.1185L80.6483 66.0981ZM83.0977 43.8284C86.7719 44.155 90.4461 44.2774 94.1203 44.5224C94.896 44.5836 95.3246 44.2979 95.7125 43.6243C96.1207 42.869 96.7127 42.1954 97.3455 41.3177C95.7941 40.4195 94.304 39.4602 92.7323 38.6641C88.9764 36.7453 84.9756 35.5818 80.8728 34.6837C78.6479 34.1938 78.6071 34.153 77.4844 36.1534C76.3005 38.2558 75.2186 40.4195 74.0347 42.6649C77.1578 43.0731 80.1176 43.5426 83.0977 43.808V43.8284ZM79.7297 65.6286C80.9136 65.5061 81.1177 64.5468 81.281 63.6691C81.873 60.2806 78.9745 55.8716 75.6064 55.0347C70.0135 53.6262 66.4618 55.6675 63.6245 60.4031C62.7876 61.7707 62.1344 63.0975 62.4406 64.7305C62.6855 66.0165 63.155 66.4043 64.4206 66.0981C65.7269 65.7919 66.9925 65.3837 68.2581 64.955C68.503 64.8734 68.7071 64.5264 68.85 64.261C69.5644 63.0159 70.7279 62.6076 72.0343 63.1792C72.2793 63.2812 72.6059 63.4037 72.81 63.3016C74.1164 62.6484 75.1574 63.0771 76.1167 64.1181C77.5048 62.628 78.158 62.9138 79.7297 65.6082V65.6286ZM67.9519 76.0797C68.4622 75.9368 68.8704 75.8143 69.5644 75.6102C68.3397 73.5077 67.1762 71.4869 65.9719 69.4661C65.7065 68.9966 65.3391 68.5884 65.0533 68.1189C64.6655 67.4861 64.2573 67.0575 63.3795 67.0983C62.4406 67.1595 61.8078 66.6084 61.6241 65.649C61.5016 64.955 61.3995 64.261 61.2771 63.4037C60.8892 63.5874 60.5218 63.7711 60.1748 63.9344C61.1546 66.0165 62.1752 68.0169 63.0325 70.0785C63.6857 71.6502 64.2981 73.2832 64.6043 74.957C64.8084 76.1817 65.4412 76.6104 66.421 76.9982C70.3197 78.4883 74.198 80.0397 78.0967 81.5093C79.7909 82.1421 81.6281 80.8765 81.8118 79.0395C82.2812 74.61 82.2404 73.8752 81.4239 71.7523C77.9947 75.549 71.2382 77.7127 67.9315 76.0797H67.9519ZM92.0587 73.8752C92.3241 74.5692 92.4057 75.3448 92.6915 76.0389C93.0793 76.9778 93.0997 78.3659 94.7123 78.0597C96.5494 77.7127 98.1415 75.998 97.8966 74.5692C97.815 74.1405 97.4067 73.7119 97.0597 73.4057C96.0595 72.5075 94.6102 72.0177 94.5286 70.3438C94.5286 70.2214 94.1612 70.0173 93.9366 69.9968C92.6507 69.854 91.3851 69.7519 90.2216 69.6702C90.8544 71.1603 91.4872 72.5075 92.0179 73.8956L92.0587 73.8752ZM59.3992 170.568C64.6247 172.14 69.6257 174.324 75.3207 173.936C74.9737 173.711 74.6471 173.426 74.2797 173.283C69.442 171.466 64.6043 169.67 59.6645 167.833C59.5829 168.71 59.4808 169.608 59.3787 170.588L59.3992 170.568ZM50.9281 54.8102C52.9693 55.4225 54.2757 56.8718 55.4188 58.566C55.827 59.1784 56.4394 59.6683 56.9497 60.2194C57.807 61.1175 58.6439 62.0361 59.6237 63.0771C59.8686 62.9546 60.2565 62.7709 60.6239 62.5668C58.6643 58.5048 52.0916 53.4629 49.3563 54.1774C49.8871 54.4019 50.3974 54.6673 50.9281 54.8306V54.8102ZM54.8472 59.954C54.4594 59.6478 53.847 59.5254 53.3367 59.5254C53.0714 59.5254 52.6019 60.0765 52.6223 60.3214C52.8672 63.1587 55.7454 64.7305 58.7255 63.3629C57.3171 62.1177 56.1332 60.9746 54.8472 59.9336V59.954ZM53.153 51.5442C55.827 53.1568 63.6857 51.3809 66.1556 48.6048C61.7261 49.9316 57.7662 51.6871 53.153 51.5442ZM128.944 75.4061V73.9568C126.433 73.6098 123.922 73.2628 121.432 72.8954C121.432 72.9362 121.391 72.977 121.391 73.0178C123.881 73.7935 126.372 74.5692 128.964 75.3857L128.944 75.4061ZM83.1998 83.0607C82.9957 82.1217 82.8324 81.3869 82.6487 80.4479C81.8322 81.244 81.3014 81.7543 80.7095 82.3258C81.526 82.5708 82.2404 82.7749 83.2202 83.0607H83.1998ZM58.6439 153.381C58.4602 153.401 58.2969 153.422 58.1132 153.442C58.3173 154.932 58.501 156.402 58.7051 157.892C58.8276 156.34 59.6441 154.748 58.6439 153.381ZM75.4023 65.3224C75.4023 65.3224 75.5248 65.1183 75.586 65.0163C75.0553 64.6693 74.5654 64.2202 73.9939 64.0569C73.7285 63.9752 73.2794 64.4651 72.9324 64.6897C72.9937 64.8121 73.0549 64.9346 73.1162 65.0571C73.8918 65.1591 74.6471 65.2408 75.4227 65.3428L75.4023 65.3224ZM78.7703 65.7715C78.2804 65.0979 77.913 64.608 77.4436 63.9548C77.1374 64.6693 76.9536 65.1387 76.6883 65.7715H78.7703ZM71.8506 64.8325L71.9935 64.5876C71.6669 64.3427 71.3403 63.8936 71.0341 63.914C70.5851 63.9548 70.1564 64.3018 69.7277 64.5264C69.7685 64.6284 69.8094 64.7101 69.8502 64.8121H71.871L71.8506 64.8325Z" fill="#202020" stroke="#202020" stroke-width="0.75" stroke-miterlimit="10"/>
<path d="M146.865 46.665C147.049 46.9508 147.274 47.2162 147.396 47.5428C147.763 48.5226 148.233 49.4819 148.396 50.5025C149.049 54.6666 149.641 58.8511 150.131 63.0356C150.254 64.0154 150.621 64.4237 151.458 64.8727C152.642 65.4851 153.765 66.322 154.704 67.261C155.03 67.5876 155.01 68.7306 154.683 69.1185C154.071 69.8737 153.132 70.3636 152.356 70.9556C153.887 72.3028 153.928 72.609 153.173 74.8135C153.05 75.2013 153.234 75.732 153.377 76.1607C153.622 76.8547 154.152 77.5079 154.193 78.2019C154.275 79.8961 153.397 80.733 151.274 80.9167C150.233 81.0188 149.988 81.427 149.886 82.366C149.641 84.3052 149.254 86.2443 148.886 88.1835C148.845 88.408 148.621 88.5917 148.498 88.7959C148.396 88.7754 148.274 88.755 148.172 88.7142C148.172 87.9794 148.09 87.2445 148.172 86.5301C148.376 84.9992 148.621 83.4683 148.927 81.9578C149.131 80.9576 148.988 80.1819 147.947 79.7124C147.682 79.5899 147.498 79.1817 147.396 78.8755C146.967 77.7733 147.008 76.7118 148.11 75.8953C145.375 75.0788 145.253 74.2419 147.437 71.7108C147.151 71.3842 146.743 71.078 146.559 70.6902C145.967 69.5063 145.232 68.3224 144.987 67.0772C144.62 65.3218 145.661 64.1991 147.478 64.0358C148.172 63.9746 148.866 64.0358 149.907 64.0358C149.417 61.0148 149.029 58.1163 148.437 55.279C147.845 52.4417 147.049 49.6656 146.355 46.8692C146.539 46.8079 146.702 46.7263 146.886 46.665H146.865ZM146.028 67.1181C146.416 68.3428 147.192 69.4655 147.866 70.5882C147.988 70.7923 148.478 70.976 148.723 70.8943C150.152 70.4861 151.601 70.0983 152.948 69.5267C154.112 69.0368 154.255 68.1183 153.438 67.2201C151.928 65.5463 149.948 64.8727 147.866 64.6074C146.722 64.6074 145.641 65.9138 146.028 67.0977V67.1181ZM152.458 73.2826C152.642 72.956 152.213 72.2211 151.968 71.6904C151.887 71.5067 151.499 71.2822 151.356 71.3434C150.05 71.8741 148.457 71.8129 147.539 73.2009C147.11 73.8541 147.11 74.3644 147.866 74.7114C148.58 75.038 149.294 75.3238 149.968 75.6096C151.356 75.3238 151.887 74.2419 152.438 73.2826H152.458ZM149.499 76.671C149.09 76.7526 148.417 77.1405 148.417 77.4058C148.417 78.059 148.56 78.8551 148.968 79.3246C149.641 80.1002 151.356 80.0798 152.315 79.5083C153.54 78.7734 153.54 78.059 152.417 76.3852C151.315 76.4873 150.397 76.5077 149.519 76.671H149.499Z" fill="#202020" stroke="#202020" stroke-width="0.75" stroke-miterlimit="10"/>
<path d="M79.0152 109.842C78.2599 111.271 76.8719 111.638 75.5247 111.781C72.7282 112.067 69.8909 112.455 67.1148 111.332C66.6658 111.148 66.033 111.393 65.3594 111.556C67.1556 112.128 66.6862 113.577 66.8495 114.802C67.4006 118.578 67.9517 122.334 68.5233 126.11C68.5233 126.212 68.6253 126.314 68.9723 126.376C68.4825 121.865 67.9926 117.353 67.5027 112.679C68.5029 112.802 69.401 112.904 70.2787 113.026C72.5649 113.353 74.7898 113.087 76.9535 112.312C78.0762 111.903 79.0356 111.271 78.9947 109.862L79.0152 109.842Z" fill="#202020" stroke="#202020" stroke-width="0.75" stroke-miterlimit="10"/>
<path d="M79.7703 110.638C80.1582 112.679 80.6889 114.72 80.893 116.782C81.1584 119.395 81.24 122.109 79.3621 124.293C77.8924 125.988 75.8716 126.661 73.6671 126.784C72.4219 126.845 71.1972 126.784 69.9316 126.886C71.8708 127.968 73.9324 127.947 76.0145 127.417C79.3009 126.6 81.9136 124.089 81.7707 119.966C81.6482 116.741 81.1379 113.597 79.7703 110.658V110.638Z" fill="#202020" stroke="#202020" stroke-width="0.75" stroke-miterlimit="10"/>
<path d="M129 94.0216C135.022 95.6954 145.922 93.7562 150.617 88C144.125 92.6132 136.838 94.3074 129 94.0216Z" fill="#202020" stroke="#202020" stroke-width="0.75" stroke-miterlimit="10"/>
<path d="M87.5675 111.168C89.7108 111.045 91.7724 111.005 92.7318 108.657C90.9559 109.923 89.0984 110.658 86.5469 109.657C87.4042 114.107 88.5881 118.333 89.5883 122.599L90.0986 122.558C90.0578 121.66 90.1598 120.721 89.9353 119.884C89.2617 117.251 88.4656 114.658 87.7308 112.066C87.6696 111.821 87.6491 111.576 87.5675 111.168Z" fill="#202020" stroke="#202020" stroke-width="0.75" stroke-miterlimit="10"/>
<path d="M129.25 51.544C135.292 49.7273 141.314 47.9106 147.356 46.0939C147.295 45.8898 147.233 45.6857 147.172 45.502C141.13 47.3186 135.108 49.1149 129.066 50.9316C129.128 51.1357 129.189 51.3603 129.25 51.5644V51.544Z" fill="#202020" stroke="#202020" stroke-width="0.75" stroke-miterlimit="10"/>
<path d="M59.6647 167.812C59.583 168.69 59.481 169.588 59.3789 170.568C64.6044 172.14 69.6054 174.324 75.3004 173.936C74.9534 173.712 74.6268 173.426 74.2594 173.283C69.4217 171.466 64.584 169.67 59.6443 167.833L59.6647 167.812Z" fill="#202020" stroke="#202020" stroke-width="0.75" stroke-miterlimit="10"/>
<path d="M49.3574 54.1562C49.8881 54.3807 50.3984 54.6461 50.9292 54.8094C52.9704 55.4217 54.2768 56.871 55.4199 58.5652C55.8281 59.1776 56.4405 59.6675 56.9508 60.2186C57.8081 61.1168 58.645 62.0353 59.6248 63.0763C59.8697 62.9539 60.2575 62.7701 60.625 62.566C58.6654 58.504 52.0927 53.4622 49.3574 54.1766V54.1562Z" fill="#202020" stroke="#202020" stroke-width="0.75" stroke-miterlimit="10"/>
<path d="M58.725 63.3628C57.3165 62.1176 56.1326 60.9746 54.8467 59.9335C54.4588 59.6274 53.8465 59.5049 53.3362 59.5049C53.0708 59.5049 52.6013 60.056 52.6217 60.301C52.8667 63.1383 55.7448 64.71 58.725 63.3424V63.3628Z" fill="#202020" stroke="#202020" stroke-width="0.75" stroke-miterlimit="10"/>
<path d="M66.1549 48.6045C61.7255 49.9313 57.7655 51.6867 53.1523 51.5439C55.8263 53.1564 63.685 51.3806 66.1549 48.6045Z" fill="#202020" stroke="#202020" stroke-width="0.75" stroke-miterlimit="10"/>
<path d="M58.7052 157.892C58.8277 156.341 59.6442 154.748 58.644 153.381C58.4603 153.401 58.297 153.422 58.1133 153.442C58.3174 154.932 58.5011 156.402 58.7052 157.892Z" fill="#202020" stroke="#202020" stroke-width="0.75" stroke-miterlimit="10"/>
<path d="M100.733 52.2393C99.3043 52.5454 98.0591 52.77 96.8548 53.0762C96.6915 53.117 96.6099 53.5661 96.5078 53.8314C97.2018 54.0764 97.9571 54.5867 98.6103 54.4846C99.5288 54.3417 100.733 54.158 100.733 52.2393Z" fill="#202020" stroke="#202020" stroke-width="0.75" stroke-miterlimit="10"/>
</svg>
