<svg width="193" height="115" viewBox="0 0 193 115" fill="none" xmlns="http://www.w3.org/2000/svg">
<path d="M86.4379 63.7775C91.6022 64.2878 96.4399 64.7777 101.196 65.2472C101.339 63.9612 101.359 62.6548 101.645 61.4097C101.931 60.1441 102.359 58.8785 102.972 57.7355C104.339 55.2043 105.809 52.7141 107.34 50.2646C108.279 48.7541 108.769 47.1007 109.32 45.4473C110.463 42.0589 111.157 38.5888 111.81 35.0983C111.912 34.486 112.525 33.9757 112.913 33.4245C113.607 32.4856 114.199 31.4241 115.056 30.6485C116.485 29.3421 116.628 27.7704 116.423 26.0557C116.383 25.7904 116.362 25.525 116.321 25.1371C115.321 25.6475 114.362 26.1578 113.382 26.6477C112.688 26.9947 111.994 27.3213 111.28 27.607C107.544 29.1584 104.054 28.3011 100.706 26.4231C99.6651 25.8516 99.1343 24.9126 98.9302 23.7491C98.4607 21.0547 98.522 18.4215 100.563 16.3803C101.91 15.0127 103.564 13.9309 105.136 12.8082C105.585 12.4816 105.891 12.2979 105.87 11.6855C105.87 11.2569 106.136 10.8282 106.299 10.3791C104.727 8.60327 105.299 6.76618 107.585 5.82721C109.259 5.1332 110.953 5.07195 112.708 5.05154C113.219 5.05154 113.831 4.84742 114.26 4.56165C117.934 2.05095 121.996 0.867037 126.425 1.05075C127.936 1.11198 129.324 1.62229 130.365 2.82662C131.141 3.70434 131.998 4.50041 132.712 5.41896C134.162 7.3173 134.652 9.50141 134.427 11.8692C134.407 12.1142 134.713 12.3999 134.876 12.6653C134.897 12.7061 134.999 12.7265 135.06 12.747C138.836 14.2166 139.081 18.0745 138.714 20.8302C138.591 21.6467 138.591 22.3407 139.204 23.0347C140.122 24.1165 139.673 25.3821 139.285 26.5864C142.327 26.3415 145.327 26.0149 148.348 25.8516C151.635 25.6679 154.758 26.3823 157.656 27.9949C158.085 28.2398 158.718 28.2194 159.228 28.1582C161.249 27.9336 162.718 28.8522 163.964 30.3014C165.617 32.2406 166.331 34.6697 167.046 37.0375C169.516 45.3452 170.475 53.8367 169.72 62.4711C169.414 66.0024 168.72 69.5133 168.189 73.065C176.17 74.3306 184.335 75.6166 192.479 76.9025C192.479 77.025 192.479 77.1271 192.479 77.2495C191.908 77.2699 191.316 77.2495 190.744 77.3516C190.397 77.4128 189.907 77.5761 189.805 77.8211C188.683 80.4951 186.682 82.4955 184.417 84.108C179.905 87.3332 175.313 90.4358 170.618 93.3956C166.27 96.1308 161.739 98.5803 157.268 101.132C156.84 101.377 156.268 101.397 155.778 101.52C155.737 101.397 155.697 101.275 155.656 101.152C155.982 100.969 156.309 100.785 156.656 100.601C161.31 97.9883 166.107 95.5797 170.597 92.6812C175.598 89.4561 180.334 85.8635 185.111 82.3118C186.825 81.0258 188.172 79.3112 189.111 77.2291C184.906 76.5351 180.783 75.8207 176.64 75.2083C170.761 74.3306 164.862 73.4733 158.963 72.718C154.288 72.1261 149.593 71.7178 144.919 71.1667C139.285 70.4931 133.651 69.7378 127.997 69.0642C125.201 68.7376 122.363 68.5539 119.567 68.2273C115.464 67.7579 111.361 67.1659 107.258 66.6964C102.951 66.2065 98.624 65.7779 94.3171 65.3288C91.9492 65.0634 89.5814 64.7777 87.2136 64.4919C86.6625 64.4307 86.4175 64.5327 86.2134 65.1451C85.7643 66.5535 85.1928 67.9008 84.6621 69.2684C86.1318 69.5337 87.5606 69.7787 88.969 70.044V70.4931C88.5404 70.5543 88.1526 70.6156 87.7443 70.6768C87.7035 70.7585 87.6423 70.8197 87.6014 70.9014C88.8466 71.6158 90.0713 72.3302 91.3369 73.0242C92.4391 73.6366 93.7047 74.0448 94.6437 74.8409C96.3991 76.3514 95.8888 78.6988 93.7455 79.5357C93.4597 79.6378 93.1944 79.7806 92.929 79.9031C93.3781 81.087 93.8067 82.2505 94.2762 83.3936C95.1539 85.6186 96.9094 87.0066 98.9914 88.0068C102.768 89.8643 106.626 91.5177 110.3 93.5385C115.138 96.1717 119.751 99.2539 124.629 101.805C129.344 104.275 134.243 106.439 139.142 108.562C142.776 110.134 146.531 111.42 150.226 112.828C150.553 112.951 150.879 113.155 151.185 113.318C151.145 113.44 151.104 113.563 151.063 113.665C149.981 113.4 148.879 113.236 147.838 112.848C144.164 111.44 140.571 109.848 136.877 108.541C131.794 106.766 127.324 103.785 122.465 101.56C117.995 99.4988 113.933 96.7432 109.667 94.3141C105.87 92.1709 101.89 90.3542 98.0117 88.3538C97.2564 87.9659 96.5828 87.4761 95.848 87.0678C94.1946 86.1289 93.5618 84.5163 92.9903 82.8221C92.7045 81.9648 92.6228 80.8217 92.0309 80.3522C91.4798 79.9031 90.3367 80.2706 89.459 80.1481C85.9685 79.699 82.4984 80.1072 79.0283 80.3522C77.7423 80.4338 76.538 80.1889 75.3133 79.699C74.4151 79.352 73.3333 79.3112 72.3331 79.3316C70.3735 79.3724 68.6793 78.5151 66.9647 77.7803C65.0255 76.9434 64.6581 74.9022 66.189 73.4529C68.1282 71.5954 70.5981 70.6768 73.0679 69.7787C73.3129 69.697 73.5987 69.7787 73.9865 69.942C73.5374 70.2278 73.1088 70.5952 72.6393 70.8197C71.19 71.5341 69.6999 72.1465 68.2711 72.8813C67.7403 73.1467 67.2505 73.5549 66.9035 74.0244C65.8624 75.392 66.189 76.6372 67.8016 77.1883C73.0475 79.005 78.4363 79.7602 83.9681 78.76C85.499 78.4947 87.0299 78.2702 88.5404 78.0048C88.7649 77.964 88.969 77.8823 89.2548 77.8007C88.4587 77.1475 87.7443 76.9434 86.7849 77.1679C83.9476 77.8007 81.0695 78.1681 78.2118 77.372C77.5382 77.1883 76.9054 76.8413 76.3135 76.3922C79.804 76.4126 83.2536 77.3924 86.9074 76.4739C85.0499 75.2083 83.0699 74.2898 82.6004 71.9424C82.4984 71.9424 82.3963 71.9015 82.2943 71.9015C82.2126 72.3506 82.0289 72.7997 82.0697 73.2283C82.1514 74.2694 81.9677 74.5551 80.7021 74.7388C80.9266 73.5549 81.1716 72.3914 81.4165 71.0851C76.783 72.0444 72.8434 75.0859 67.9036 74.7184C68.3119 73.7591 68.7814 73.065 69.6591 72.6364C73.2721 70.8401 77.1096 69.9828 81.0899 69.5541C81.6207 69.4929 82.0085 69.3704 82.0697 68.7989C82.233 67.3088 82.3963 65.8187 82.58 64.2061C81.7431 65.043 81.2532 64.9614 80.9879 64.0429C80.845 64.1041 80.6817 64.1449 80.5388 64.2266C79.1712 65.0839 78.7017 65.043 77.5178 64.0224C77.2933 63.8183 76.9667 63.6754 76.6605 63.6346C71.7616 62.9814 66.8422 62.4303 61.9637 61.6546C56.1462 60.7565 50.3696 59.6746 44.5929 58.654C43.9193 58.5316 43.3478 58.4907 42.7354 58.9602C36.673 63.553 30.5493 68.064 24.5277 72.6976C20.629 75.6778 16.9139 78.8825 13.056 81.9035C10.1575 84.1897 7.1569 86.3534 4.21754 88.5783C3.93177 88.7824 3.66641 89.007 3.25817 89.3336C8.52452 90.4971 13.6276 91.6198 18.7102 92.7424C18.7919 93.661 18.3224 93.5793 17.7713 93.4364C14.5053 92.6404 11.2597 91.8239 7.97338 91.0686C6.27917 90.6604 4.56455 90.3338 2.84993 90.0072C2.54374 89.9459 2.21715 90.0276 1.66602 89.8847C2.1355 89.354 2.54373 88.7212 3.09486 88.313C6.13628 86.0268 9.23895 83.8631 12.2395 81.5361C13.5255 80.5359 14.5053 79.1275 15.8117 78.1273C24.3236 71.6566 32.8763 65.2471 41.429 58.8173C41.6535 58.6336 41.8781 58.4499 42.2251 58.1641C41.6127 57.96 41.1024 57.8375 40.6329 57.6334C40.4288 57.5518 40.3063 57.2864 40.1635 57.1027C40.388 57.0006 40.6125 56.8577 40.8575 56.8169C41.0412 56.7965 41.2453 56.919 41.4494 56.9598C42.6129 57.2048 43.7968 57.6538 44.797 56.5107C44.8991 56.3883 45.1644 56.3474 45.3686 56.3474C45.5319 56.3474 45.6952 56.4291 45.8585 56.4699C45.7972 56.6332 45.7768 56.8169 45.6543 56.9394C45.4502 57.1435 45.1849 57.2864 44.7766 57.5722C55.3501 59.8583 65.8216 61.6954 76.3135 62.6752C75.9257 61.3076 75.5378 59.94 75.1092 58.5724C75.0479 58.3682 74.7213 58.2458 74.4968 58.0825C74.7417 57.2864 74.558 56.4087 75.4562 55.7147C80.2939 51.9996 85.0295 48.1213 89.8672 44.4267C91.4593 43.2224 93.2352 42.263 95.3173 41.9568C97.5626 41.6302 100.073 42.7529 100.359 44.9166C100.604 46.6516 100.379 48.5704 99.5017 50.285C98.3995 52.4079 96.8073 53.9388 94.909 55.3472C92.235 57.3068 89.6631 59.4297 87.1524 61.6138C86.7033 62.0016 86.7645 62.9814 86.5604 63.7571L86.4379 63.7775ZM140.551 69.9828C149.022 70.983 157.534 72.0036 165.964 73.0038C165.964 71.6362 165.862 70.4523 165.964 69.3092C166.393 65.4104 166.944 61.5117 167.332 57.5926C167.924 51.7547 167.985 45.9168 166.433 40.181C164.576 33.2612 160.146 28.8726 153.206 27.2396C148.369 26.0965 143.531 26.6068 138.795 28.1377C138.101 28.3623 138.04 28.9542 137.999 29.5054C137.979 29.8932 138.162 30.3014 138.224 30.6893C139.02 35.1391 139.918 39.589 140.571 44.0797C140.939 46.672 140.939 49.3052 141.102 51.918C141.326 55.4085 141.755 58.899 141.694 62.369C141.653 64.8185 140.959 67.268 140.51 69.9624L140.551 69.9828ZM136.55 28.8522C135.713 29.3013 134.856 29.6483 134.08 30.1586C130.324 32.6284 127.691 36.0781 125.609 39.9768C124.813 41.4873 124.201 43.0999 123.588 44.6921C123.18 45.7739 122.915 46.8966 122.588 47.9989C122.466 47.9989 122.363 47.9784 122.241 47.958C122.2 47.4477 122.159 46.917 122.118 46.4271C120.833 46.7945 119.628 47.2028 118.383 47.4681C116.526 47.8764 114.607 48.1009 112.913 46.9578C111.994 46.325 111.218 45.5086 110.586 44.9574C109.728 46.8558 108.891 48.897 107.871 50.8157C106.36 53.653 104.625 56.3679 103.176 59.246C102.196 61.1647 101.747 63.2876 102.359 65.5738C113.26 66.8189 124.119 68.0844 135.223 69.35C136.019 60.2053 136.611 51.1831 134.223 42.2018C134.55 42.2834 134.794 42.3855 134.835 42.5284C135.284 44.0389 135.958 45.5494 136.06 47.0803C136.366 51.9996 136.53 56.9394 136.591 61.8791C136.611 64.349 136.264 66.8189 136.08 69.3908C136.366 69.4317 136.754 69.4929 137.101 69.5337C138.122 66.8189 138.979 64.1857 138.795 61.3076C138.673 59.6338 138.53 57.9396 138.612 56.2658C138.795 51.7955 138.081 47.4273 137.285 43.0591C137.183 42.5284 137.285 41.9568 137.285 41.4261C137.387 41.4261 137.468 41.4261 137.571 41.4261C138.693 44.7533 139.101 48.2234 139.367 51.7139C139.591 54.7349 139.53 57.7559 139.632 60.7973C139.693 62.8181 139.734 64.8389 138.999 66.7781C138.632 67.717 138.224 68.6152 137.815 69.5949C138.53 69.6766 139.224 69.7583 140.142 69.8807C140.428 66.5331 140.939 63.2876 140.939 60.0625C140.939 56.919 140.347 53.7755 140.224 50.6116C140 45.6719 139.551 40.7525 138.612 35.8944C138.203 33.8328 137.836 31.7507 137.428 29.5666C136.979 29.9136 136.652 30.1382 136.346 30.3831C130.835 35.1187 129.059 41.3649 128.997 48.3254C128.957 53.6326 129.814 58.8377 131.059 63.9816C131.202 64.5531 131.202 65.1451 131.284 65.7166C131.161 65.7166 131.059 65.7575 130.937 65.7575C130.324 63.3692 129.569 61.0014 129.12 58.5724C128.283 53.898 127.956 49.1828 128.446 44.4267C128.875 40.3239 130.161 36.5476 132.61 33.2408C133.753 31.7099 135.182 30.3831 136.55 28.9134V28.8522ZM124.445 16.3191C123.996 15.6659 123.425 15.074 123.098 14.3799C122.057 12.1346 120.383 11.3385 117.873 11.1752C113.198 10.869 108.83 11.6243 104.789 13.89C103.421 14.6657 102.196 15.8088 101.114 16.9723C99.3793 18.8094 99.2976 21.116 99.6855 23.5042C99.8896 24.8106 100.624 25.6475 101.768 26.1374C102.788 26.5864 103.829 26.9947 104.891 27.2192C106.973 27.6479 109.075 27.9132 111.075 26.811C112.831 25.8516 114.668 24.9943 116.301 23.892C117.995 22.7489 119.628 21.4426 121.077 20.0137C121.874 19.2176 122.241 18.0133 122.833 16.9927C123.16 16.4212 123.527 15.87 124.425 16.3191H124.445ZM114.648 32.6489C114.648 32.6489 114.546 32.506 114.505 32.4243C113.423 33.9757 112.586 35.6495 112.117 37.4661C111.627 39.4053 111.198 41.3649 110.769 43.304C110.728 43.4673 110.769 43.7123 110.871 43.8552C112.464 46.0189 114.423 47.4273 117.301 46.8149C118.75 46.5088 120.179 46.1822 121.588 45.7535C122.016 45.631 122.465 45.2024 122.67 44.7941C123.956 42.2222 125.017 39.5278 126.446 37.0375C128.099 34.1594 130.385 31.7915 133.1 29.832C134.162 29.0767 135.223 28.3011 136.203 27.607C135.203 26.9539 134.305 26.3619 133.386 25.77C132.61 26.0149 131.794 26.4231 130.957 26.464C129.977 26.5048 129.896 26.913 129.957 27.7091C130.141 30.526 128.936 32.853 127.324 35.0167C126.752 35.7719 125.099 35.9148 124.384 35.3841C123.384 34.6697 122.894 33.4041 121.282 33.3633C119.996 33.3429 118.75 32.5672 117.444 32.2202C116.913 32.0773 116.301 32.1998 115.75 32.2814C115.382 32.3222 115.015 32.506 114.668 32.6285L114.648 32.6489ZM91.7247 56.4903C94.1742 54.6124 96.4807 52.7957 98.1954 50.3871C99.2772 48.8562 99.6038 47.0599 99.5426 45.2228C99.5017 43.9981 98.624 43.0387 97.3993 42.8958C96.4807 42.7937 95.4601 42.6712 94.6232 42.9366C93.1331 43.4061 91.3777 43.6102 90.6633 45.3453C90.3775 45.3248 89.9897 45.1615 89.806 45.3044C87.7851 46.7741 85.8052 48.2846 83.5802 49.9584C87.6627 50.6728 90.602 52.3671 91.7043 56.4699L91.7247 56.4903ZM134.223 13.4001C133.713 14.3391 133.529 15.0944 134.284 16.0742C134.815 16.7682 135.039 17.8704 134.999 18.7889C134.937 20.1566 132.61 21.9937 131.222 21.8508C130.488 21.7691 129.569 21.4222 129.12 20.8914C128.099 19.6259 128.61 16.6661 130.018 15.8088C131.386 14.9719 131.182 13.7267 131.467 12.5224C129.365 12.6449 127.916 13.788 127.119 15.3597C126.14 17.2376 125.936 19.4421 126.466 21.565C127.017 23.8308 128.181 24.9739 130.753 24.9943C132.835 25.0147 134.713 24.2799 136.244 22.8306C136.815 22.2795 137.468 21.6671 137.693 20.9731C138.428 18.6257 138.081 14.5432 134.243 13.4206L134.223 13.4001ZM129.998 8.86863C130.018 9.01151 130.059 9.1544 130.079 9.29728C128.814 10.1954 127.528 11.0731 126.221 11.9917C126.936 12.6041 127.548 12.6041 128.201 12.1346C129.12 11.461 130.12 11.216 131.243 11.563C131.671 8.76657 130.202 5.92926 127.385 4.54123C123.547 2.66331 119.934 3.56146 116.219 5.68433C116.893 5.88845 117.322 6.01092 117.771 6.1538C119.71 6.74575 121.567 7.43977 122.833 9.19522C123.466 10.0729 124.303 10.8078 125.058 11.6243C126.507 10.6853 127.793 9.84842 129.099 9.03193C129.344 8.88904 129.691 8.88905 129.977 8.82781L129.998 8.86863ZM126.466 13.1348C125.854 12.8082 125.323 12.2571 124.752 12.2366C123.466 12.1958 123.241 11.216 122.731 10.42C121.812 8.97069 120.628 7.95007 118.914 7.52142C117.852 7.25606 116.832 6.78658 115.77 6.43957C113.035 5.52102 110.3 5.54143 107.605 6.64369C106.524 7.09276 105.85 8.35833 106.299 9.11358C106.83 9.99131 109.361 11.0323 110.422 10.8282C113.607 10.2362 116.811 9.97089 120.036 10.5628C120.669 10.6853 121.424 10.8894 121.833 11.3181C122.71 12.1958 123.404 13.2777 124.16 14.2575C124.384 14.5432 124.588 14.829 124.813 15.1148C125.384 14.4208 125.895 13.8084 126.446 13.1144L126.466 13.1348ZM132.304 20.1158H131.835C131.773 19.8096 131.61 19.483 131.692 19.1972C132.161 17.3805 132.692 15.5843 133.161 13.7676C133.794 11.3793 133.835 9.09317 132.549 6.78659C131.692 5.25567 130.569 4.09217 129.304 3.03073C128.712 2.54084 127.936 2.05095 127.201 1.96931C122.568 1.37735 118.261 2.21425 114.464 5.09237C115.219 5.45979 115.219 5.48019 115.954 4.96989C118.995 2.90825 122.323 2.35713 125.854 3.11239C129.161 3.82681 131.733 6.92947 132.161 10.2567C132.427 12.3387 131.957 14.3391 131.733 16.3395C131.631 17.2376 131.284 18.0949 131.039 18.9523C130.937 18.9318 130.835 18.9114 130.732 18.891C130.732 18.4419 130.712 17.9929 130.732 17.5438C130.773 17.0743 130.875 16.6049 130.977 15.9925C129.671 16.9927 129.099 18.6053 129.589 19.9321C129.732 20.3199 130.12 20.6873 130.488 20.8914C131.508 21.4426 132.284 20.6465 133.059 20.2178C134.692 19.2993 134.774 17.5642 133.202 16.2579C132.896 17.5847 132.59 18.8502 132.304 20.1158ZM125.078 24.0145C123.119 25.525 122.629 25.4433 121.322 23.5858C119.567 24.7902 119.302 24.8106 118.138 23.6471C117.791 24.0961 117.179 24.5044 117.138 24.9534C117.015 26.5048 117.097 28.0765 117.097 29.6279H118.648C120.281 27.1988 125.078 26.464 129.059 28.7297C129.079 28.3011 129.059 27.9132 129.14 27.5254C129.304 26.7702 128.875 26.4027 128.263 26.3415C126.752 26.1578 125.548 25.5862 125.078 23.9941V24.0145ZM82.4984 62.4711C83.0087 61.4913 83.4373 60.532 82.1922 59.7359C82.0901 59.6542 82.0901 59.1235 82.1922 59.0418C83.0495 58.3886 82.7842 57.5926 82.6004 56.7557C82.2943 55.286 84.2947 53.5918 85.7439 53.9592C86.0705 54.0409 86.4788 53.7551 86.8666 53.6326C86.4584 52.4895 87.3769 52.6528 88.2342 52.5508C87.6627 52.1833 87.2952 51.8772 86.887 51.6935C85.0091 50.8157 83.1312 49.938 81.3961 51.9792C81.192 52.2242 80.8246 52.3466 80.5796 52.5712C79.5386 53.4693 78.518 54.3879 77.4566 55.3268C80.5796 56.8169 82.1105 59.246 82.4984 62.4711ZM122.241 31.9957C125.058 31.1588 125.956 31.8528 125.772 35.0779C126.344 34.6084 126.854 34.3635 127.14 33.9552C127.671 33.1796 128.079 32.3223 128.508 31.5058C129.181 30.2402 128.997 29.7299 127.732 29.0155C125.711 27.8928 123.568 28.0765 121.445 28.5868C120.751 28.7501 120.179 29.4237 119.567 29.8932C119.465 29.9748 119.383 30.1994 119.424 30.3014C119.465 30.4239 119.71 30.5872 119.791 30.5464C121.159 30.0361 121.629 31.0771 122.221 31.9957H122.241ZM77.0483 56.4495C76.2522 56.4699 75.7828 57.0006 75.7828 57.6947C75.8236 60.0216 76.6401 62.0833 78.2935 63.7775C78.4568 63.9408 78.865 64.1245 79.0079 64.0429C79.804 63.553 80.6817 63.0835 81.2532 62.3894C81.539 62.0628 81.2941 61.226 81.1716 60.6544C80.7021 58.4091 78.9058 56.6332 77.0279 56.4699L77.0483 56.4495ZM89.0099 74.8817C88.7241 74.6164 88.2954 74.3714 88.0505 74.004C87.5402 73.2487 88.1934 72.9426 89.0099 72.4935C87.7035 71.8607 86.6829 71.2484 85.5602 70.8605C84.2538 70.4115 83.8048 70.7176 83.6006 72.0852C83.5394 72.4935 83.7435 73.1059 84.0497 73.3712C84.7846 74.0244 85.6419 74.596 86.4992 75.1063C88.3771 76.2289 88.7241 76.1473 90.3571 74.6572C90.4796 74.5551 90.6429 74.4735 91.0715 74.2081C90.2959 73.8815 89.8264 73.6774 89.3569 73.4733C89.2548 73.8611 89.1528 74.2489 89.0099 74.8613V74.8817ZM168.556 50.3666C168.393 53.1835 168.332 56.0208 168.046 58.8173C167.719 62.0628 167.168 65.2676 166.821 68.5131C166.699 69.7378 166.862 71.0034 166.903 72.2485C169.026 65.0226 169.312 57.715 168.536 50.3666H168.556ZM134.121 25.4025C134.978 25.8924 135.672 26.4027 136.448 26.6681C137.326 26.9742 138.448 26.464 138.632 25.77C138.897 24.8106 138.938 23.8512 138.183 23.2184C136.856 23.9124 135.611 24.586 134.1 25.3821L134.121 25.4025ZM89.0303 57.8784C88.9691 57.3681 88.9691 56.6332 88.0709 56.4291C87.0911 56.225 86.2951 56.4699 85.7235 57.3476C85.4786 57.7355 85.2744 58.1437 85.8256 58.4295C86.4379 58.7561 87.0095 59.3684 87.8055 58.8581C88.173 58.6132 88.4996 58.2866 89.0303 57.8579V57.8784ZM165.168 34.4451C164.066 31.0159 161.718 28.8318 159.044 28.7093C160.126 29.5666 161.269 30.4035 162.29 31.3425C163.31 32.3019 164.208 33.4041 165.147 34.4451H165.168ZM91.7247 78.2089C92.0717 79.1479 92.6433 79.1275 93.3373 78.76C94.4191 78.1681 95.3785 76.8005 94.5824 76.0248C93.9496 75.4124 93.2352 74.9021 92.5616 74.3306C93.97 77.0658 93.9292 77.3108 91.7451 78.1885L91.7247 78.2089ZM77.1504 71.4729C77.1504 71.4729 77.0891 71.3096 77.0687 71.2279C74.7622 71.3504 70.4756 72.718 69.802 74.1877C72.2514 73.2896 74.7213 72.371 77.1708 71.4729H77.1504ZM91.5002 75.045C90.7041 75.6574 90.0305 76.1881 89.1323 76.8617C90.3163 76.9025 91.0511 78.6376 92.1942 77.2087C93.0311 76.1473 91.8472 75.7391 91.5002 75.045ZM87.2748 53.4693C88.4996 54.6532 89.7039 55.8167 90.9899 57.0415C90.847 55.633 90.2959 54.3675 89.2344 53.5101C88.7853 53.1631 87.826 53.4489 87.2952 53.4489L87.2748 53.4693ZM123.323 21.463C123.119 22.4019 121.2 22.9326 122.792 24.1574C123.18 24.4636 124.343 23.8104 124.609 23.2184C124.833 22.6877 124.201 21.7692 123.323 21.463ZM83.9272 64.349C83.8252 65.7779 83.7231 67.1455 83.6211 68.5131C83.7027 68.5131 83.7639 68.5539 83.8456 68.5743C84.3763 67.2067 84.907 65.8391 85.4786 64.3694H83.9272V64.349ZM118.934 31.567C118.689 30.6689 118.465 30.4035 117.812 30.4239C116.954 30.4239 116.199 30.7097 115.444 31.4037C116.73 31.465 117.791 31.5262 118.934 31.5874V31.567ZM123.017 32.4039C123.017 32.4039 123.017 32.5672 122.996 32.6693C123.588 33.302 124.16 33.9553 124.813 34.6697C125.14 33.8736 125.282 33.1592 124.629 32.7101C124.221 32.4447 123.588 32.506 123.037 32.4039H123.017ZM121.996 21.7283C120.69 21.4017 119.097 22.7489 119.424 23.9737C120.302 23.198 121.077 22.5244 121.996 21.7283ZM106.421 12.1958C107.177 11.91 107.891 11.6651 108.769 11.3385C106.646 10.6037 106.564 10.6445 106.421 12.1958ZM85.6623 62.5323C85.6623 62.5323 85.499 62.3691 85.4173 62.2874C84.9478 62.6344 84.4988 63.0018 84.0293 63.3488C84.5192 63.4917 84.9887 63.6346 85.5806 63.8183C85.6215 63.2264 85.6419 62.8794 85.6623 62.5119V62.5323ZM86.3971 54.939C85.2744 54.7757 84.2538 54.8982 83.3965 56.1637C84.56 55.6943 85.4786 55.3268 86.3971 54.939ZM121.261 32.3223C121.261 32.3223 121.404 32.1794 121.486 32.1182C121.159 31.8324 120.894 31.4445 120.506 31.2812C120.363 31.22 120.016 31.6078 119.608 31.8936C120.322 32.0977 120.792 32.2202 121.261 32.3427V32.3223ZM126.058 15.523C125.058 16.564 124.935 17.156 125.589 17.4009C125.752 16.7682 125.915 16.1354 126.058 15.523Z" fill="#202020" stroke="#202020" stroke-width="0.75" stroke-miterlimit="10"/>
<path d="M146.797 58.3686C146.409 59.1034 145.94 59.6954 144.715 59.3688C145.45 58.8585 146.021 58.4502 146.593 58.042C146.654 58.1441 146.736 58.2665 146.797 58.3686Z" fill="#202020" stroke="#202020" stroke-width="0.75" stroke-miterlimit="10"/>
<path d="M111.627 49.2852C112.668 50.7957 113.933 51.6326 115.526 51.7754C117.199 51.9183 118.873 51.8367 120.547 51.8571C120.955 51.8571 121.364 51.8571 121.772 52.0408C120.078 52.8165 118.302 52.8165 116.526 52.7144C114.648 52.6124 113.076 51.9183 111.729 50.1425C111.443 51.6121 111.178 52.7552 110.994 53.9187C110.586 56.5315 110.137 59.1443 109.892 61.7775C109.729 63.5533 110.218 63.9207 111.913 64.5127C114.525 65.4312 116.995 65.1454 119.363 63.7982C119.628 63.6349 119.935 63.5533 120.22 63.4308C120.282 63.5329 120.343 63.635 120.404 63.7166C119.853 64.1453 119.343 64.676 118.73 64.9822C115.873 66.4314 113.056 65.9007 110.28 64.6964C109.463 64.3494 109.075 63.5941 109.116 62.7368C109.177 61.0222 109.137 59.2871 109.443 57.6133C109.871 55.1639 110.525 52.7756 111.117 50.367C111.198 50.02 111.464 49.6934 111.668 49.3056L111.627 49.2852Z" fill="#202020" stroke="#202020" stroke-width="0.75" stroke-miterlimit="10"/>
<path d="M122.955 52.0605C122.342 54.9795 122.955 58.0413 122.036 61.144C121.22 59.7764 121.934 53.122 122.955 52.0605Z" fill="#202020" stroke="#202020" stroke-width="0.75" stroke-miterlimit="10"/>
<path d="M126.711 29.9954C125.343 30.2404 124.241 30.4445 122.873 30.6894C123.894 29.5463 125.343 29.281 126.711 29.9954Z" fill="#202020" stroke="#202020" stroke-width="0.75" stroke-miterlimit="10"/>
</svg>
