<?xml version="1.0" encoding="UTF-8"?>
<svg id="Calque_2" xmlns="http://www.w3.org/2000/svg" version="1.1" viewBox="0 0 441.7 262.4">
  <!-- Generator: Adobe Illustrator 29.2.1, SVG Export Plug-In . SVG Version: 2.1.0 Build 116)  -->
  <defs>
    <style>
      .st0 {
        fill: #202020;
      }
    </style>
  </defs>
  <g id="Calque_1-2">
    <g>
      <path class="st0" d="M123.3,61.3h0l-.2.9h0c-.7-2.2-1.2-4-.9-6.3.3-2,2.1-3,2.3-4.3.3-2.1-.7-6.4-.5-9.3.1-1.6,1.3-5.7,2.1-7.2,1.5-2.9,5.5-4,7.9-6,.6-4.2-.4-7.2,1.3-11.3,2.8-6.2,9.4-14.2,16.5-14.9,5.9-.6,14.7.8,20.2,3.1,3,1.1,8.5,5.5,10.4,6,2.5.5,6.4-.3,9.2,0,4.1.6,12.2,4.5,9.5,9.9-.3.8-2.2,2.2-2.2,2.4s1.1.8,1.3,1.5c.3.8-.2,2.1.3,2.9.3.3,4.5,2.3,5.4,3,8,5.9,11.7,11.1,10.8,21.5-.4,6.1-4.1,8.5-9.5,10.5-10.6,3.7-16.3,1.7-25.8-2.8-1.6-.8-3.4-2.1-5.1-2.9-.8,2.8-.9,7.6.5,10.2.8,1.4,3.7,4,4.9,5.5,4.8,6.4,5.3,8.7,6.9,16.5,1.9,8.8,3.7,18.1,8.6,26.4,4.9,8.2,13.7,20.2,14,30,0,1.5-.6,2.9-.5,4.4l34.1-3.3v-5c-6.4-3.1-11.1-8.6-16.5-13.1-2.9-2.5-7.6-5-9.8-8-3.8-5.2-5.2-10.5-5.4-17,5.9-14.3,19.4-5.7,28,.5,9.2,6.7,18.2,14.6,26.8,21.9,1.6,1.5,4.3,2.1,5.6,4.3l-.9.9.9,2.6-1.4-.5c-.3,4-1.9,7.6-3.3,11.2,10.8-2.2,21.9-2.7,32.8-4.3,11.7-1.7,28-4.4,39.3-7.4.5-.1,1.3-.1,1.3-.8l-2.6-1.4c0-3.6,4.2,1.1,5.7,1.3.7.1,9.1-2.6,7.4.1-1,1.1-2.5.9-3.8,1.4-.7.2-.7-.3-.7.9,14.2,9.3,27.2,20.2,40.7,30.6,8.1,6.3,17.4,11.8,24.3,19.2,2.7,2.9,6.8,6,9.9,8.4,4.6,3.5,13.7,8.5,17.2,12.2.4.4,1.7,2.7,1.4,3l-2.4-.3-36.8,8.3v-1.9s35.5-8.3,35.5-8.3c-4.2-3.3-8.6-6.1-12.8-9.2-6.8-5.2-13.1-11.2-19.7-16.4-19.8-15.7-40.3-30.5-60.4-45.7-8.4,2.1-17.3,2.8-25.9,4.2-5,.8-9.9,2.2-14.8,3-11.3,1.7-23.6,2.2-34.8,4.4-.8.1-2,.3-2.7.6-1.5.8-2.4,3.1-5.2,2.4-1.4-.5-4.1-4.2-3.6,0-.7-.8-2.3,0-2.3,0,0-.2,0-1.9-.9-1.9l1.4,12.6c7.6.5,15.8,2,23,4.8,3.5,1.3,8.6,3,9.2,7.3-11,.8-20.3-6.4-30.8-8.4l1.4,8.4c-.6.5-3.2-1.2-3.5-1.9-.1-.4,1-3.5.2-4.7h-1.4c-.1,5.1-6.2,7.8-9.8,10.7,8.3,1.3,16.5,0,24.8-.9,1.2.9-3.7,2.6-4.4,2.8-3.5.9-8.1,1.1-11.6.9s-10.3-2.9-13-.8c-.6.4-1,.5-.8,1.3,8.5.7,16.8,3.3,25.5,2.8,4.4-.2,10.4-1.2,14.8-2.1,3.2-.7,12.3-2.5,12.6-6.2.7-7-11.7-9.1-16.1-12-.5-.2-1.8-1.1-1.5-1.7,3.4,0,7.1,1.9,10.1,3.4,4.6,2.3,11.7,5.8,9.1,12.1-1,2.4-7.1,5-9.7,5.7-4,1.1-9.1.8-13.3,1.6-1.2.3-2,1.1-3.4,1.3-5.9.8-13.3-.9-18.6-.9s-11,.9-16.5.6c-1.7,3.8-2.5,9-4.7,12.4-4.1,6.2-26.5,15.1-33.9,19.1-7.4,3.8-13.9,8.9-21.2,12.9-19.7,10.7-41.1,21.2-62.2,29-4.9,1.8-9.7,3.5-14.8,4.2-.2-1,.7-1.3,1.4-1.6,5.9-2.9,15.5-5.2,22-7.9,9.4-3.8,20-8.5,29.2-12.9,16.2-7.9,30.8-18.8,47-26.9,8.8-4.3,25-9.4,30.4-17.3,2.4-3.8,2.8-7.6,5.2-11.2-4.3-1.6-7.1-2.3-6.5-7.9.6-6.2,8-7,12.1-9,2.1-1,4.2-3.4,6.4-4.4.5-1.1-2.5-.3-3-.5v-1.4s9.8-1.4,9.8-1.4l-3.7-11.2c-9.6,0-19.2,2.3-28.7,3.3-30.5,3.3-60.7,7.1-91.2,10.7-14.4,1.7-29,2.6-43.4,4.3-25,3.1-49.8,7.4-74.7,11.2,3.7,7.8,11.1,14,18,19.1,8.7,6.4,19.2,13.5,28.7,19.4s20.1,10.7,29.9,16.4c.6.4,1.1-.1.9,1.2-1.3.2-2.3.2-3.6-.3-5.1-2-14.1-7.8-19.2-10.8-15.4-9-46.3-26.6-55.3-41.1-.5-.9-1.2-3.1-1.5-3.3-1.1-.8-4.6.5-6-.9l57-9.1c-6.6-25.3-6.1-53.2.6-78.6,2.2-8.4,7-25.7,17.9-25.7s2.6.8,3.5.7c1.4-.2,6.1-3,8.3-3.8,6.7-2.3,15.7-2.5,22.8-2,4.6.4,9,2.2,13.3,1.9h0ZM140.6,45.8h-.1c-.4.4-1.5,0-1.7-.8-.5-1.2-1.3-7.8-1.5-8.1-2.1.5-3.2,4.2-2.7,6.2.5,2.2,5.8,5.1,7.9,4.9,5.1-.7,3.7-10.4-.6-11.6l.9,7c-.7-.1-1-.8-1.2-1.4-1.4-2.9-2.7-13.2-2.6-16.6.7-18,20.1-24.1,34.6-16.8,2.1,1.1,5.1,4.8,7.1,2.1-6-2.9-10.7-6.1-17.6-7-9.3-1.1-17.5,0-23,8.3-8.7,13.5-.8,19.6.7,32,0,.5-.1,1.9-.2,1.9h0ZM141.1,26.3h-.1s.1,0,.1,0c1.5-.2,2.7-.5,4.3-.3,3,.4,4.4,3.9,7.8,1.7.2-1-.3-.8-.6-1-1.3-1.1-7.4-4.6-8-5.5-.4-.6,0-1.4.5-1.4,1.2-.3,8.7,5.8,10.7,6.4,3.7-2.1,5.4-6.3,8.5-8.7,3.5-2.6,7-2.9,10.7-4.3.5-.2,1.2-.2,1.2-.9-6.9-4-15.9-6.2-23.7-3.4-3.8,1.2-10.2,7.6-10.8,11.6-.3,2,.2,4-.6,5.7h0ZM152.9,29.5h0l3.5,5.1c1.8-1,1.8-3,2.7-4.4,1.2-1.7,4.3-5,6.3-5.8,4.6-1.8,14.9-1.5,20-.9,1.7,0,4.4,1.3,6,1.3,2.2-.1,9-3.1,8.5-6-1-6.2-14.4-6.2-19.1-5.5-1.8.3-12.9,4.2-14.5,5.1-3.6,2.1-5.2,7.4-7.1,8.8-.8.7-1.5,0-2.1.2-1.3.6-2.6,2.1-4.2,2.1h0ZM194,25.4h-.1c.2.9,5.4,2.5,5.6,2.3-.4-1.1-.4-3-1.7-3.3l-3.8.9h0ZM157.5,37.5h0c3.9-1.9,4.9,4.6,6.5,7.2,3.7,5.8,21.3,17,27.9,18.4,5.7,1.2,20.3-1.4,22.5-7.8,1.8-5.6.5-12.7-3.3-17.1-9.1-10.3-24.2-13.6-37.6-12.9-1.7.1-5.6.4-7.2.7-.9.2-1.7.6-2.3,1.4l-6.5,10h0ZM141.2,28.2h-.1c-.2.2,1,5.5,1.2,6,1.3,2.3,4.2,1.4,5.1,7,1.4,8.6-3.9,10.9-10.8,6.6-3.7-2.4-4.9-5.5-3-9.8,1.4-3,3.8-3.3,1.5-7.7-7.4,1.8-9.7,9.1-8.8,16.1.7,5,8.7,9.8,13.4,10.5,10.6,1.6,14.4-4.6,13.6-14.5-.7-7.9-4.2-12.7-12.1-14.3h0ZM153.8,35h.1l.9,4.7h1.4c.3-.3-.9-3.1-1.2-3.7-.4-.7,0-1.1-1.2-.9h0ZM156.6,45.4c.1-1.2.3-1.8-.9-2.1v-1.2s.9.5.9.5v-2.3c-2.1.8-1.3,3.4-1.4,5.1h1.4ZM163.6,49.1c-.6.5,3,3.9,3.5,4.2,1.6,1.2,3.1,1.8,2.4-.8-2.3-1-2.9-4.1-5.9-3.4h0ZM161.9,51.1c-.3-.4-1.8,0-1.7-2-4.9.6-3.8,6.2.6,6.5,1.8-.4,2.2-3.5,1.2-4.5h-.1ZM134.6,57.5h-.2c-2.9-1.3-6.3-2.3-8.6-4.7-3.2,3.3-2.1,8.7,3.3,8.4,1.2-.1,6.2-2.8,5.5-3.7h0ZM155.6,55.3h-.3c-.4,4.6-4.4,4.2-7.4,5.4s-1.1,2.8-1.4,5.4c1.8-.7,3.5-1.7,5.4-2.3,5.4-1.5,12.3-1.3,16.8,2.3.7.4,1.9,2.3,2,2.3,1,0,2.6-.9,4,0-1-4.2-1-7.9,0-12.1l-3-1.9c-2.3,3-4.6,1.5-7-.6-2,4.3-5,4.8-8.4,1.4h-.7s0,0,0,0ZM136.1,59.1h-.3c-1.2,2.2-4,2.9-6.2,3.8,1.9.9,3.2,3.1,4.5,4,1.9,1.4,4.2,2.4,6.3,4.1,10.6,9,17,21.3,21.8,34,6,1.7,15.4,5.2,21.1,1.7.6-.5,5.5-5.1,5.7-5.6.6-1.2-1.2-3.5-1.5-5-1-3.6-.9-7.6-1.9-11.3-.5-1.8-4.3-10.7-5.9-10.4l-1,.8c-.4-.2-.5-1.3-1-1.4-2.1-.4-10.1.8-12,2-.5.4-.6,1.3-1,1.3s-.9-.5-1.4-.5c-2,0-2.1,1.9-5.1,4.2s-6.6,1.1-8.7-2c-.8-1.1-3-5.3-3.5-6.7-1.3-3.3-1.3-7.3-1.3-10.9l-8.6-2.2h0ZM70.7,73h-.1c-13.2,13.5-14.2,36.1-13.3,53.9.6,11.5,4,23.5,4.2,35,.1,2.3-.2,4.1-.9,6.3l59.4-7.2c.6-.3.1-.7.1-1-.5-4.7-2.6-10-2.9-14.9-.7-9.1,1.2-18,1.9-27.1,1.1-13,1.7-24.2,4-37.2.7-3.8,3.1-10,3.1-13.3s-.6-2.4-.6-2.4c-.6-.6-6-1.9-7.3-2.2-16-3.8-35.6-2-47.6,10.2h0ZM148.3,67.5h-.2c-1.5,1.6-1.1,2.8-.3,4.5.5,1.4,4.6,9.6,6.7,7.9-1.4-3.4.2-7.6,4.4-7.4,1.1,0,2.8.9,3.3.9.6,0,1.9-2.8,3.3-3.4,1.6-.7,2.6.7,3.6-.6.3-1.2-3.9-4-5.1-4.2-1.6-.4-6.5-.7-8.1-.6-1.9.2-6.2,1.5-7.6,2.9h0ZM63,79.6h0l7.7-8.7,7.3-5.4c-7.7,1-13,6.8-15,14h0ZM128.9,66.5v.3h0c.9,1.1,2.3,1.7,3.3,2.6,14.8,13,17.6,32.8,16.4,51.4-.4,8.5-2.7,22.2-5.8,30.1-.4.7,0,1.1-1.2.9,1.1-8.4,3.8-16.6,4.7-25,2.1-20,.4-44.4-16.9-57.5-.5-.5-1.6-1.6-2.1-.8-2,11.8-4.8,23.9-5.8,35.8-.8,10.2-1.8,21.1-2.3,31.3-.4,9,1,16.8,2.3,25.5l5.1-.5c.4-.2-1.9-4.2-2.2-5-3.2-8.5-1.7-15.1-1.5-23.7.1-4.7-.3-9.6,0-14.1.5-7.5,2.3-15.5,4.2-22.7.8.2.9,2.4.9,3-.2,2.6-1.6,6.2-1.9,9-1.5,11.4-3.5,34.4-.8,45.1.7,2.7,2,5.3,2.7,8.1l2.9-.6c-1.1-6-1.5-12.1-1.7-18.1-.3-11-.6-33.7,4.1-43.2.9-2.1,2-2.1,1.7.3-.4,2.6-2.1,6.2-2.7,9.5-2,12.1-1.8,29.1-1,41.5.2,3.2,1.1,6.8,1.4,10.1l76.1-9.3c.6-2.3.4-4.8.1-7.2-1.5-9.5-9.3-19.8-14.2-27.9-2.4-3.9-3.9-8.5-4.5-13-1.8,1.4-2.8,3.6-4.7,4.9-7.1,5-15.5,1.6-22.9-.7-.3.3,1.3,4-.9,3.7-.5-1.5-.7-3.1-1.3-4.5-.2-.6-1,3-1-.8s-.7-5-2.2-8.5c-5.4-12-15.3-25.6-28.2-30h-.1ZM178.1,71.8c-2.2-2-7.6-3.7-7.9.7l7.9-.7ZM168.3,72.8c-1-2.1-3.9-.4-3.7,1.6.4-.6,4.2-.6,3.7-1.6ZM161.2,74.9h0c-3.5-1.5-6.1.4-4.9,4.2.6.8.7.1,1.2-.2.4-.4,3.8-3.8,3.7-4h0ZM251.5,115.6h0c.2-1-.5-1-.8-1.3-1.2-1.3-12.7-10.4-13.5-10.4s-1,.6-1.3.9c-1-.4-.4-1.6-1-2.3-.6-.6-4.6-2.5-5.6-2.8-6.6-2.5-14.9-2.4-14.3,6.7.7,11,10.3,17.3,18,23.6,1.1-1.9,1.7-3.8,2.7-5.7,3.1-5.1,9.9-8.7,15.8-8.7h0ZM58.4,167.1h.2s-.1,0-.1,0c.8,0,.9-1.5.9-2.1.9-10.9-2.4-21.2-3.3-31.8-.5-5.2-.3-11-.5-16.4l-.5-1.6c-.5,4.5-.5,8.9-.5,13.3-.2,7.9-.2,15.8,1,23.7.7,5,2.2,9.8,2.8,14.8h0ZM241.3,120.7h-.2s.1,0,.1,0l2.9.5.8,1.2c-1.1,1.7-4.8,0-5.8.7-.8.4-2.3,2.8-2.8,3.7-.7,1.1-2.3,4.6-.7,5.1,1.7-4,4.6-6.7,8.6-8.4.8,2.4,3.6,0,4.2,0s3.5,2.3,4,2.6c3.6,2.7.9,5.1,1.4,7.9.3,1.3,1.9,1.8,1.9,2.8l-2.3,3.3,1.4,4.4c-.3-4.4,2.5-10,5.4-13.1,1.6-1.6,4.2-2.5,5.4-3.5.5-.4.6-.5.5-1.2-1.2-.6-3-1.9-4-2.8-2.1-1.8-2.8-2.6-5.4-4.5-1.1-.8-1.8-2.1-3.1-2.9-4.6,0-8.2,2.2-12.3,4.2h0ZM252.4,129.1c-1.5-2.7-4.6-3-7.4-2.8l7.4,2.8ZM257.2,144h0l5.4,3.7c4-1.3,6.8-8.2,7.4-12.4,1.1-8-6.2-5.5-9.7-1.3-2.1,2.7-3.4,6.6-3.1,10h0ZM243.8,136.1c10.4-1-3.5-12.5-4.4-1.9,3.5-.7,1.6,2.1,4.4,1.9ZM250.8,146.9c1-2-2.2-2.4-3.5-3.3v3.3s3.5,0,3.5,0ZM247.8,148.3h0l2.1,6,2.1,4.2-.5-10.2h-3.7s0,0,0,0ZM239.9,167.9h.1s2.3.5,2.3.5c0,2.2-.7,4.3-3.3,4.2.5-.9,1-3-.2-3.3-.7-.2-3.2,1.4-3,2.1,1,1.3,4.6,4,5.8,4s9-5.1,10-6.3c1.7-1.9.4-3.3-.2-5.4-1.8-2.1-10.2,1.9-11.5,4.2h0ZM267,164.3h0l4.1,2.2c4.4,1.9,8.8,3.8,13.7,4.3l-3.7-2.6c-4.6-1.9-9.2-3.5-14.1-4h0ZM233.4,179.9h0c-5.9-.7-4.5-4.7-1.4-8.1.1-.3-.5-.2-.7-.2-1.1.5-4.9,3.5-5.2,4.7-1,3,6.1,9.1,7.3,3.7h0ZM238.8,177.2h0l-.3-.9-4.5-3.3c-1.6,1.4-3.7,3.3-1.6,5.4,2.3,2.4,4.1-.7,6.5-1.2h0Z"/>
      <path class="st0" d="M110.3,137.1h0c-2.5.4-3.7-.5-4.7-2.6l1.4-.5,3.3,3h0Z"/>
      <path class="st0" d="M186.6,113.6h-.1c.5-.4,1.8,1.1,1.9,1.3,2.5,6.2,5.5,23.4,4.8,29.8-.5,4.6-5.7,5.8-9.7,6.6-5.8,1.2-12.9,0-16.5-5,4.3.7,7.5,3.7,12.3,3.7s10.5-1.6,11.5-4.4c2.7-6.9-2.8-22.4-3.7-29.8-2,1.1-3.6,3.4-5.5,4.2-3.9,1.7-11.5,1.7-15.7.9-.9,0-2.4-.4-2.2-1.7,6.6.3,14.3,1.7,20.1-2.1,1.1-.7,3-2.1,2.8-3.5h0Z"/>
      <path class="st0" d="M160.7,119.2h0c2.2,1.7,2.5,5.3,2.8,8.1s.7,8.7.5,11.3c0,.8,0,1.5-.7,2.1-1.7,0-1.6-12.6-1.6-14.2-.1-2.3-.9-4.9-.9-7.2h0Z"/>
      <path class="st0" d="M152.7,67.9c2.5,0,4.7-.4,6.9.9.7.4,1.4.4,1.2,1.4l-7.9-.9v-1.4s-.2,0-.2,0Z"/>
    </g>
  </g>
</svg>