<?xml version="1.0" encoding="UTF-8"?>
<svg width="380" height="auto" id="Calque_2" data-name="Calque 2" xmlns="http://www.w3.org/2000/svg" viewBox="0 0 382.1 193.61">
  <g id="Calque_1-2" data-name="Calque 1">
    <g>
      <path d="M274.62,22c-3.71-1.1-8.76-2.78-10.34-6.72-2-4.97,3.23-9.55,7.24-11.4,9.94-4.59,20.82.29,28.77,6.53,8.59,6.74,15.51,15.35,24.3,21.87,8.92,6.63,19.56,9.98,29.92,13.6,5.06,1.77,10.2,3.55,14.91,6.13,4.28,2.34,8.4,5.66,9.92,10.48,2.85,9.07-3.31,18.61-11.97,21.45-9.89,3.24-20.28-.76-27.44-7.79-3.74-3.67-6.59-8.01-9.02-12.63s-5-9.62-9.07-13.38-9.1-7.01-13.89-10.04-9.95-5.97-15.14-8.58c-4.6-2.31-9.37-4.26-14-6.52-4.02-1.96-8.04-4.24-11.07-7.59-1.49-1.64-2.64-3.54-3.38-5.63-.44-1.27-2.47-.72-2.02.56,3.31,9.42,13.21,13.57,21.64,17.32,11.37,5.06,22.3,11.26,32.31,18.66,2.4,1.77,4.72,3.7,6.64,6s3.44,5.07,4.86,7.78c2.56,4.87,5.18,9.59,8.88,13.7,7.04,7.83,17.23,12.8,27.9,11,4.92-.83,9.65-3.24,12.85-7.12,2.94-3.57,4.7-8.15,4.69-12.79-.04-11.32-10.7-16.8-19.88-20.4-11.06-4.34-22.87-7.16-33.01-13.56s-17.36-15.79-26.45-23.21c-8.26-6.74-18.99-12.1-29.8-8.63-4.64,1.49-9.54,4.91-10.89,9.84s1.84,8.52,5.77,10.65c1.96,1.06,4.08,1.82,6.22,2.45,1.3.39,1.85-1.64.56-2.02h0Z"/>
      <path d="M311.21,41.01c-15.92-6.45-34.13-13.44-51.35-7.94-8.05,2.57-15.1,7.75-21.57,13.03-5.96,4.86-10.79,10.67-12.68,18.25-1.63,6.54-1.17,13.61,1.51,19.82,2.86,6.64,8.31,11.66,14.95,14.43,15.14,6.31,31.66.27,43.52-9.89,11.83-10.14,20.03-24.49,22.95-39.78.36-1.86.63-3.74.83-5.62.15-1.34-1.95-1.33-2.1,0-1.64,14.78-8.31,28.92-18.62,39.62s-25.14,18.72-40.32,15.43c-6.84-1.48-13.3-5.21-17.2-11.14-3.59-5.46-4.92-12.18-4.18-18.63.81-7.08,4.25-13.14,9.38-18,2.94-2.79,6.21-5.26,9.5-7.62s6.67-4.53,10.32-6.22c15.72-7.24,33.34-1.96,48.56,3.92,1.99.77,3.97,1.56,5.95,2.36,1.25.51,1.8-1.52.56-2.02h0Z"/>
      <path d="M287.05,84.75c.93,11.05-3.92,21.27-8.63,30.94-4.65,9.54-9.74,19.43-10.11,30.27-.27,7.8,2.24,15.28,4.74,22.55.44,1.27,2.47.72,2.02-.56-2.28-6.64-4.65-13.45-4.69-20.55-.03-5.3,1.22-10.49,3.02-15.45,3.72-10.25,9.67-19.53,13.23-29.85,1.92-5.57,3.02-11.44,2.52-17.34-.11-1.34-2.21-1.35-2.1,0h0Z"/>
      <path d="M340.8,79.23c1.04,7.09.79,14.36-.73,21.35-.69,3.17-1.51,6.53-3,9.43-1.2,2.34-3.28,4.76-6.21,4.08-2.58-.6-4.42-3.15-5.98-5.11-1.81-2.27-3.7-4.34-6.06-6.06-4.75-3.48-10.72-5.36-16.62-5.1-6.78.29-13.3,3.23-18.03,8.08l1.79.74c-.12-2.76.14-5.49.87-8.16.68-2.49,1.66-5.33,3.4-7.3s4.3-1.72,6.09.08c1.9,1.92,2.28,4.88,2.61,7.43.14,1.05,1.83,1.57,2.06.28.32-1.75.94-3.39,1.94-4.87s2.66-3.36,4.52-3.59,3.32,1.38,3.9,2.95c.7,1.9.5,4.02.36,5.99-.07,1.01,1.53,1.48,1.96.53.85-1.88,1.99-3.56,3.5-4.96,1.1-1.02,3.31-2.62,4.83-1.52s.69,3.75.4,5.23c-.48,2.4-.95,4.8-1.43,7.2-.26,1.32,1.76,1.88,2.02.56.61-3.06,1.36-6.13,1.8-9.21.31-2.13.1-4.62-2.03-5.75-1.99-1.06-4.45-.07-6.1,1.18-2.1,1.6-3.74,3.82-4.82,6.22l1.96.53c.19-2.52.32-5.18-.83-7.51-.96-1.92-2.89-3.5-5.1-3.56-2.37-.07-4.47,1.75-5.88,3.48-1.55,1.89-2.59,4.13-3.02,6.53l2.06.28c-.42-3.13-.89-6.57-3.23-8.91-1.95-1.95-5-2.87-7.49-1.4-2.62,1.55-3.97,4.93-4.93,7.66-1.19,3.39-1.68,7.01-1.52,10.6.04.88,1.13,1.42,1.79.74,4.54-4.64,10.83-7.41,17.34-7.49s12.41,2.4,16.95,6.66c3.6,3.37,6.7,10.32,12.57,9.71s7.96-8.56,9.16-13.34c1.98-7.93,2.33-16.17,1.15-24.26-.2-1.33-2.22-.77-2.02.56h0Z"/>
      <path d="M303.68,57.86c-.3,1.52-.52,3.23.06,4.72.7,1.81,2.43,2.6,4.3,2.34,3.61-.5,6.49-3.2,8.6-5.98,1.23-1.62,2.27-3.37,3.28-5.13.67-1.17-1.14-2.23-1.81-1.06-1.81,3.16-3.79,6.6-6.9,8.66-.75.5-1.55.91-2.41,1.18-.8.26-1.89.55-2.63-.03-1.1-.88-.71-2.97-.48-4.14.26-1.32-1.76-1.88-2.02-.56h0Z"/>
      <path d="M318.48,53.15c-1.37,2.37-2.21,4.99-2.47,7.71-.23,2.44-.2,5.58,1.82,7.31s4.69,1.71,7.08,1.02c.67-.19,1.32-.44,1.97-.69.61-.24,1.13-.44,1.53-.98.74-1.01.38-2.22-.91-2.39-.57-.08-1.04.54-1.05,1.05,0,.63.49.98,1.05,1.05-.21-.89-.48-1.19-.79-.92-.02.02-.02.02.01-.01-.17.02-.37.16-.53.22-.48.18-.95.36-1.44.52-.93.3-1.88.52-2.86.5-1.59-.04-3.09-.81-3.57-2.41-.52-1.73-.36-3.8-.03-5.55.36-1.9,1.03-3.7,2-5.37.68-1.17-1.14-2.23-1.81-1.06h0Z"/>
      <path d="M312.94,92.3c3.86-2.99,8.44-4.96,13.23-5.86,2.32-.43,4.7-.59,7.06-.48,1.23.05,2.46.18,3.68.39.59.1,1.17.22,1.76.36s1.24.49,1.77.34c-1.3.37-.75,2.4.56,2.02,1.09-.31,1.66-1.47,1.25-2.54-.52-1.37-2.16-1.66-3.41-1.94-3.14-.7-6.38-.93-9.58-.67-6.49.52-12.65,2.9-17.79,6.88-1.07.83.43,2.3,1.48,1.48h0Z"/>
      <path d="M307.65,41.84c.14,1.48.08,2.93-.24,4.38-.29,1.32,1.61,1.85,2.02.56.38-1.16.75-2.32,1.13-3.48s-1.32-1.82-1.92-.81c-1.27,2.15-2.28,4.42-3.03,6.8-.31.99,1.05,1.79,1.75,1.02,1.68-1.84,3.37-3.69,5.05-5.53l-1.65-1.27c-1,1.99-1.99,3.99-2.99,5.98-.51,1.03.78,2.17,1.65,1.27,1.4-1.45,2.8-2.9,4.2-4.35l-1.65-1.27c-1.72,3.08-3.45,6.15-5.17,9.23-.56,1,.86,2.22,1.65,1.27,2.33-2.78,4.93-5.3,7.78-7.53l-1.48-1.48c-2.95,3.63-5.9,7.27-8.85,10.9-.83,1.03.53,2.48,1.48,1.48,3.48-3.65,7.16-7.5,12.1-9.05l-.81-1.92c-5.35,3.84-10.26,8.26-14.61,13.21-.47.53-.38,1.62.46,1.75,1.57.25,2.86-.72,3-2.31.12-1.35-1.98-1.34-2.1,0-.01.14-.19.31-.34.29l.46,1.75c4.23-4.81,8.98-9.15,14.19-12.89.91-.65.41-2.3-.81-1.92-5.32,1.66-9.29,5.65-13.03,9.59l1.48,1.48c2.95-3.63,5.9-7.27,8.85-10.9.86-1.06-.42-2.32-1.48-1.48-2.85,2.23-5.45,4.75-7.78,7.53l1.65,1.27c1.72-3.08,3.45-6.15,5.17-9.23.57-1.02-.8-2.15-1.65-1.27-1.4,1.45-2.8,2.9-4.2,4.35l1.65,1.27c1-1.99,1.99-3.99,2.99-5.98.51-1.01-.8-2.2-1.65-1.27-1.68,1.84-3.37,3.69-5.05,5.53l1.75,1.02c.7-2.21,1.64-4.3,2.81-6.3l-1.92-.81c-.38,1.16-.75,2.32-1.13,3.48l2.02.56c.36-1.63.48-3.27.32-4.94-.13-1.33-2.23-1.35-2.1,0h0Z"/>
      <path d="M310.97,49.15c-.85,7.55,5.86,12.68,12.28,14.78s13.56,2,19.99-.07c3.24-1.04,6.35-2.58,9.1-4.6s5.38-4.5,5.87-7.9c1.07-7.43-9.19-9.29-14.51-8.44-3.5.56-6.91,2.64-8.5,5.9-1.17,2.4-1.19,6.6,2.28,6.89.87.07,1.44-1.23.74-1.79-.53-.43-1.05-.86-1.58-1.29-1.04-.85-2.53.63-1.48,1.48.53.43,1.05.86,1.58,1.29l.74-1.79c-.97-.08-1.04-1.67-.93-2.38.21-1.29,1.03-2.53,1.93-3.45,1.97-2.02,4.72-2.92,7.5-2.98s5.82.42,8.09,1.99c2.51,1.73,2.56,4.52.97,6.94s-3.99,4.04-6.36,5.43-4.86,2.41-7.48,3.12c-5.23,1.41-10.83,1.46-16.06.02-6.03-1.67-12.85-5.99-12.05-13.15.15-1.34-1.95-1.33-2.1,0h0Z"/>
      <path d="M286.21,31.77c-.12.01-.24,0-.36,0l.28.04c-.1-.02-.19-.04-.29-.07-.17-.05.26.13.08.03-.04-.02-.08-.04-.12-.07-.05-.03-.21-.15-.03-.02s.03.02-.01-.02-.08-.07-.11-.11-.16-.2-.03-.03.02.02-.01-.02-.06-.09-.09-.14c-.02-.04-.05-.08-.07-.13-.03-.05-.11-.24-.02-.04s.01.02,0-.03-.03-.1-.05-.16c-.03-.11-.05-.21-.07-.32l.04.28c-.03-.2-.03-.41,0-.61l-.04.28c.02-.12.04-.23.07-.34.01-.03.02-.06.03-.1.04-.12-.06.16-.07.16,0,0,.08-.15.09-.17.01-.02.03-.05.05-.07.08-.12-.17.2-.09.12.04-.04.08-.09.12-.13.02-.02.04-.04.07-.06.11-.1-.21.15-.11.09.06-.04.11-.07.17-.11.48-.26.68-.97.38-1.44-.32-.49-.92-.66-1.44-.38-.92.5-1.41,1.55-1.34,2.57s.54,2.03,1.41,2.65c.44.32,1.04.49,1.58.44.28-.03.53-.1.74-.31.18-.18.32-.48.31-.74-.02-.53-.46-1.1-1.05-1.05h0Z"/>
      <path d="M360.85,85.96c5.35,15.49,8.7,31.66,9.83,48.02.16,2.34.27,4.68.23,7.03-.02,1.13-.07,2.26-.16,3.38-.06.71-.13,1.42-.23,2.12-.03.2-.14,1.41-.19,1.44h1.06l-.16-.07.48.63-.02.22-1.01.77h.13c1.33-.15,1.34-2.25,0-2.11h-.13c-.46.06-.89.31-1.01.78-.37,1.47,1.41,2.35,2.32,1.09.52-.72.51-1.84.62-2.68.16-1.21.28-2.43.34-3.65.25-4.8-.15-9.63-.62-14.4-.92-9.35-2.54-18.63-4.84-27.74-1.31-5.2-2.86-10.33-4.61-15.4-.44-1.27-2.47-.72-2.02.56h0Z"/>
      <path d="M365.78,109.57c-11.9,5.98-20.99,17-24.95,29.69-1.12,3.6-1.79,7.31-2.05,11.07-.09,1.35,2.01,1.34,2.1,0,.87-12.72,7.2-24.76,16.9-32.98,2.77-2.35,5.82-4.33,9.06-5.96,1.21-.61.15-2.42-1.06-1.81h0Z"/>
      <path d="M273.23,136.45l-.03-.14c-.11-.49-.56-.71-1.01-.77-1.72-.22-1.95,2.34-.26,2.64.94.17,2.01-.34,2.92-.55,1.42-.34,2.85-.6,4.3-.79,5.19-.67,10.46-.43,15.64.18s10.61,1.69,15.88,2.72,10.85,2.16,16.17,3.68c5.81,1.66,11.46,3.85,16.88,6.52,1.21.59,2.27-1.22,1.06-1.81-8.85-4.36-18.18-7.23-27.81-9.26s-19.23-4.15-28.98-4.49c-2.64-.09-5.29-.03-7.91.25-1.33.14-2.65.33-3.96.58-.61.12-1.22.25-1.82.39-.22.05-1.91.48-1.77.61l.31.74-.02-.17-.31.74-.31.12-1.01-.77.03.14c.3,1.32,2.33.76,2.02-.56h0Z"/>
      <path d="M321.36,28.78c1.07,1.85,3.11,2.54,5.11,2.91,2.46.47,4.99.59,7.48.35,4.94-.48,9.69-2.24,13.68-5.2,1.07-.79.17-2.43-1.06-1.81-3.11,1.57-6.04,3.43-8.79,5.57-1.36,1.06-2.69,2.18-3.92,3.39-1.05,1.03-1.72,2.17-1.09,3.6.36.81,1.4.54,1.81,0,1.04-1.35,2.08-2.7,3.12-4.06.51-.66-.19-1.57-.91-1.58-2.1-.02-4.03.79-5.49,2.29-.94.97.51,2.43,1.48,1.48,1.15-1.12,1.67-3.77-.57-3.87-1.35-.06-1.35,2.04,0,2.1l-.5-.49c0,.1-.03.2-.08.29-.12.1-.22.37-.34.49l1.48,1.48c1.09-1.12,2.44-1.69,4-1.68l-.91-1.58c-1.04,1.35-2.08,2.7-3.12,4.06h1.81c-.25-.58,2.27-2.45,2.68-2.8,1.08-.93,2.19-1.81,3.35-2.64,2.22-1.6,4.58-3.01,7.02-4.24l-1.06-1.81c-3.46,2.56-7.49,4.24-11.77,4.81-2.07.28-4.19.3-6.27.06-1.78-.21-4.37-.46-5.36-2.18-.68-1.17-2.49-.11-1.81,1.06h0Z"/>
      <path d="M227.83,103.38c-13.85-15.69-28.52-30.77-45.1-43.61-16.27-12.59-34.42-22.94-54.17-28.94-18.78-5.71-38.82-7.26-58.06-2.98-18.04,4.01-35.2,13.05-47.57,26.94S2.53,88.23.52,107.43s1.34,37.83,11.65,53.37c10.48,15.8,27.69,25.67,45.86,30.01,19.65,4.69,40.4,3.2,59.69-2.45s37.44-15.61,53.48-27.97c16.03-12.35,30.15-26.97,43.1-42.47,3.17-3.8,6.28-7.65,9.33-11.54.82-1.05-.65-2.55-1.48-1.48-12.2,15.56-25.27,30.53-40.03,43.72s-31.44,24.68-49.84,32.36c-18.3,7.65-38.28,11.74-58.15,10.22-18.67-1.43-37.65-7.96-51.39-21.05S2.85,139.05,2.17,120.76c-.71-18.84,4.3-38.17,14.42-54.11s25.21-27.16,42.67-33.39,37.27-7.27,55.86-3.63c19.82,3.89,38.49,12.52,55.2,23.74,17.01,11.43,32.07,25.51,46.03,40.45,3.39,3.63,6.71,7.31,10,11.03.9,1.02,2.38-.47,1.48-1.48h0Z"/>
      <path d="M224.71,103.1c-.78,1.13-1.65,2.17-2.71,3.21-.52.5-1.05.98-1.61,1.43-.07.06-.14.11-.21.17l-.09.07c.06-.04.06-.04,0,0-.14.11-.29.22-.43.32-.31.22-.62.43-.94.64-.46.3-.69.94-.38,1.44.3.46.94.7,1.44.38,2.67-1.73,4.95-3.96,6.75-6.58.31-.45.1-1.19-.38-1.44-.53-.28-1.1-.11-1.44.38h0Z"/>
    </g>
  </g>
</svg>