<svg width="63" height="145" viewBox="0 0 63 145" fill="none" xmlns="http://www.w3.org/2000/svg">
<path d="M57.8075 24.4906C56.417 24.3979 55.0079 24.231 53.636 24.2681C52.7646 24.3052 51.7634 24.4535 51.0774 24.917C48.4632 26.6783 44.7366 26.9008 42.1039 25.3434C41.696 25.1024 41.1398 25.0653 40.6763 24.9541C39.8234 25.3063 40.1942 27.4756 38.3031 26.6042C37.5986 27.593 36.8075 27.9205 35.93 27.5868C34.6692 30.5533 32.2219 32.3517 29.6077 34.0203C29.1442 34.3169 28.7734 34.9473 28.6065 35.5035C26.085 43.791 23.4709 52.06 21.2089 60.4032C20.2078 64.1112 20.0409 68.0418 19.2993 71.8425C18.7245 74.7534 17.8902 77.6271 17.0745 80.5009C16.7963 81.4835 16.8334 82.2437 17.9273 82.4105C20.2819 82.7628 22.6551 83.0038 25.0282 83.2448C25.3249 83.2634 25.6401 82.9296 26.0294 82.7072C26.53 83.1336 26.4929 83.3375 26.1592 84.1348C25.3249 86.1371 24.9912 88.3434 24.4535 90.457C24.1754 91.5694 23.8787 92.6818 23.5079 94.1651C22.5624 92.1442 22.6551 91.5509 24.676 84.6168C21.9691 84.2275 19.2437 83.8196 16.1474 83.3561C15.3131 88.2878 14.2378 93.5903 13.5518 98.9485C12.8287 104.659 12.4765 110.406 11.9573 116.135C11.9573 116.191 11.9573 116.247 11.9573 116.284C11.7163 119.287 11.8275 119.51 14.7755 120.084C16.0547 120.325 17.3896 120.214 18.6875 120.4C22.1545 120.9 25.603 121.79 29.07 121.92C34.9844 122.161 40.8988 121.957 46.8131 121.864C47.4249 121.864 48.0368 121.327 48.6857 121.011C50.3729 122.458 52.5235 121.123 54.4703 121.846C53.0612 122.068 51.6521 122.383 50.2431 122.458C49.1492 122.532 48.7784 123.032 48.7228 123.996C48.5374 127.705 48.2963 131.394 48.1851 135.102C48.148 136.27 47.9812 136.975 46.7204 137.438C45.367 137.92 44.1804 138.81 42.5118 139.756C43.8652 139.626 44.7181 139.552 45.5709 139.478C45.608 139.607 45.6265 139.756 45.6636 139.885C41.7702 141.684 37.543 142.296 33.5012 143.519C33.3899 143.315 33.2972 143.111 33.186 142.889C33.6124 142.555 34.0018 142.147 34.4838 141.925C38.3031 140.238 42.1595 138.606 45.9603 136.882C46.3867 136.697 46.7946 135.992 46.8317 135.51C46.9985 131.338 47.0912 127.167 47.2025 122.828C38.0806 122.754 28.6251 123.885 18.8914 122.179C19.1139 127.964 19.3178 133.563 19.5403 139.422C13.7928 141.702 7.65597 143.278 1.33373 144.076C1.22248 143.853 1.11124 143.649 1 143.427C1.50059 143 1.9641 142.5 2.52031 142.147C6.5621 139.57 11.0489 138.217 15.7025 137.308C17.1857 137.03 17.6863 136.474 17.6307 134.861C17.4638 130.634 17.575 126.407 17.575 121.957C16.1289 121.512 14.349 120.974 12.5692 120.418C12.2169 120.696 11.8646 120.993 11.5124 121.271C11.2343 120.752 10.7151 120.214 10.7337 119.695C10.7707 116.914 10.8634 114.133 11.0859 111.37C11.4382 107.051 11.9759 102.749 12.3096 98.4293C12.8287 91.8846 14.2934 85.5438 16.0918 79.2401C17.1672 75.4394 18.0015 71.5274 18.5206 67.5968C19.1324 62.869 20.8196 58.4935 22.2101 53.9882C23.4338 50.0577 24.435 46.0344 25.5474 42.0668C26.1963 39.7678 26.8452 37.4688 27.5127 35.1698C26.1221 35.3367 24.7316 35.7075 23.3596 35.6333C21.9876 35.5406 20.6342 35.0586 19.3178 34.6507C18.1869 34.2984 17.1301 33.7607 16.0177 33.427C14.2749 32.9079 13.2181 30.9426 13.8299 28.9959C14.553 26.6227 15.3687 24.2681 16.1474 21.932C15.3502 21.5612 14.4232 21.2089 13.6074 20.7084C10.4556 18.8358 9.58417 13.4035 11.9388 10.5853C13.181 9.10212 14.0524 9.1392 14.8311 10.678C13.0327 10.9376 12.1427 11.9202 11.9573 13.7928C11.5865 17.7048 12.7916 19.7813 15.9806 20.4302C16.5924 20.56 17.5194 20.3932 17.9644 19.9853C18.9099 19.1139 19.5589 17.9088 20.4859 17.0003C21.4129 16.0918 22.5253 15.3873 23.3967 14.3119C22.4882 14.794 21.5798 15.276 20.6527 15.7766C18.8914 16.7222 17.8531 16.166 18.02 14.1636C18.1127 13.1254 18.4464 11.8461 19.151 11.1972C20.8011 9.65833 22.5995 8.13802 24.6018 7.1183C27.8278 5.48676 31.3505 4.5412 35.0029 4.65244C36.0968 4.68952 37.3019 5.31989 38.1919 6.00588C39.8234 7.28517 41.251 8.82401 42.9567 10.437C43.3275 6.95144 43.3275 3.68834 45.4041 1.03708C45.608 1.03708 45.8119 1.01854 46.0159 1C46.1642 1.87139 46.5536 2.79841 46.3867 3.63272C45.9417 5.8761 45.367 8.11948 44.6254 10.2887C44.3102 11.2343 44.44 11.7348 45.1445 12.2725C45.6451 12.6619 46.09 13.1068 46.535 13.5518C47.8143 14.7755 49.0009 15.5356 51.0218 14.6457C53.3022 13.626 55.1006 15.0906 55.3973 17.5565C55.4529 18.0015 55.972 18.4835 56.3799 18.7802C56.7878 19.0768 57.3626 19.1324 57.8446 19.3178C59.1239 19.7999 60.8481 19.9482 60.8296 21.7837C60.7925 24.8243 60.2734 25.4176 57.5109 26.1963C58.3267 29.3667 59.1053 32.5556 59.9397 35.726C61.0892 40.0459 61.701 44.4029 61.46 48.9082C61.2746 52.5606 61.1448 56.3428 61.9049 59.847C62.4611 62.4241 62.4241 64.927 62.4982 67.4485C62.5724 70.1554 62.146 72.8808 61.942 75.5877C61.2189 84.7281 60.5515 93.8499 59.7172 102.972C59.3464 107.143 58.5121 111.259 58.1413 115.431C57.9744 117.248 57.4923 119.028 57.5294 120.863C57.5294 121.29 57.3811 121.716 56.9547 122.124C56.8249 120.752 56.6951 119.38 56.5653 117.934C49.9464 119.695 43.5129 122.235 36.4862 121.327C38.4885 121.141 40.5465 121.178 42.4932 120.733C46.9244 119.751 51.337 118.583 55.7125 117.396C56.1204 117.285 56.6024 116.58 56.658 116.098C57.4182 110.555 58.1227 104.993 58.7902 99.4305C59.2907 95.2775 59.6986 91.1245 60.1621 86.9529C58.9756 87.0827 59.0312 87.0827 59.1054 88.4547C59.161 89.2519 59.0126 90.0677 58.9385 91.0132C56.5468 90.2716 54.6371 90.3829 53.3393 92.5891C52.6348 93.7943 51.6892 93.6274 50.9105 92.8302C47.6104 95.7595 44.44 98.726 39.9161 99.4491C36.0041 100.079 33.7978 98.0956 33.9461 94.128C34.0574 90.8278 34.1686 87.5276 34.3355 84.2275C34.354 83.7825 34.7248 83.3375 34.9288 82.9111L34.8917 82.8555C35.9114 85.0803 35.3367 87.3608 35.2069 89.6598C35.0956 91.6251 35.1698 93.6274 35.4294 95.5927C35.7075 97.6507 37.0053 98.5777 39.1189 98.2069C40.9358 97.8917 42.6972 97.2613 44.7551 96.7051C42.7528 95.6668 42.827 95.6298 43.6983 93.887C44.477 92.3481 44.9962 90.6795 45.7934 88.6586C44.7551 88.844 44.2546 88.9367 43.754 89.048L43.6427 88.7328C44.7551 88.1951 45.8861 87.6574 47.2395 87.0085C46.9058 88.3805 46.6833 89.3075 46.3496 90.6239C47.8514 89.5485 49.0936 88.9182 49.3531 87.231C49.6312 85.414 51.0959 84.487 52.5421 83.5786C52.9685 83.3005 53.432 82.7072 53.4691 82.2251C54.0624 74.605 54.6371 66.985 55.0636 59.3649C55.249 56.0276 55.1933 52.6719 55.0265 49.3346C54.9338 47.666 54.359 45.9973 53.9882 44.2731C55.4158 45.7192 55.8423 47.5918 55.972 49.4273C56.6951 59.643 56.2687 69.8402 54.8596 79.9817C54.6001 81.8914 54.2849 83.7825 53.636 85.6736C53.5247 85.377 53.3949 85.0803 53.2281 84.6354C52.4865 85.1359 51.819 85.5809 51.1145 86.063C52.8016 87.6203 53.0612 89.4002 52.2454 92.0886C52.9685 91.3099 53.5433 90.2716 54.4332 89.7896C55.3973 89.2704 56.6395 89.2704 57.9373 89.0294C57.5665 87.4535 57.4553 85.8405 55.935 84.7466C55.6754 84.5612 55.5827 83.801 55.731 83.4302C56.4912 81.3908 57.5665 79.4626 58.0856 77.3676C58.5862 75.3652 58.6048 73.2145 58.6789 71.138C58.7531 69.2284 58.4008 67.2816 58.6233 65.3905C59.2537 59.9953 58.4379 54.7669 57.4738 49.5015C57.0103 46.9985 56.9732 44.4029 57.0474 41.8258C58.8829 45.6451 59.7543 49.6498 59.4762 53.8955C59.6986 53.877 59.9211 53.8399 60.1436 53.8214C60.0138 51.7078 59.9397 49.5942 59.7172 47.4806C59.4947 45.2928 59.0868 43.1236 58.7902 40.9544C58.4935 38.8222 58.2525 36.6901 57.9744 34.5765C57.6963 32.4444 57.3996 30.3122 57.0474 27.7908C55.1748 28.6807 53.3022 29.274 51.7634 30.3679C49.2419 32.1477 47.0171 34.3726 45.6265 37.1907C43.8096 40.8988 42.1224 44.6624 40.3611 48.389C40.1757 48.7969 39.9717 49.1863 39.7678 49.5756L39.3599 49.4644C39.4897 48.7228 39.638 47.9997 39.7493 47.3508C37.4873 47.9255 35.2069 48.6301 32.8893 49.0565C31.5915 49.2975 30.1639 49.2048 28.8476 48.9823C26.6598 48.6115 25.9923 47.5733 26.2148 45.0147C27.7722 49.0936 30.887 48.0739 33.7607 47.6845C35.4108 47.462 37.0238 46.9429 38.6739 46.6648C39.8605 46.4608 40.4538 45.849 40.8246 44.7366C42.4376 39.7307 45.0518 35.3181 48.6301 31.4432C50.8734 28.9959 53.5989 27.6981 57.0288 27.5312C56.8063 26.8637 56.6024 26.289 56.3985 25.7142C56.8805 25.2878 57.3811 24.8614 57.8817 24.435C58.4194 24.1012 59.4576 23.7304 59.4205 23.4523C59.3278 22.5624 59.0868 21.3758 58.4564 20.9308C57.5109 20.2448 56.176 20.078 55.045 19.6886C54.4517 20.8752 53.9326 21.8764 53.3393 23.0444C54.9152 23.5265 56.417 23.99 57.9002 24.472L57.8075 24.4906ZM24.5462 34.558C26.4373 34.3911 28.9959 33.4085 31.1095 31.4617C32.0179 30.6274 33.1118 29.7189 33.4826 28.6251C34.7063 24.8614 35.6889 21.0235 36.6345 17.1857C37.098 15.3131 37.1165 13.5703 35.5406 11.8646C33.7793 9.93643 32.7966 9.28752 30.4976 10.6595C28.5509 11.809 26.734 13.2366 24.9726 14.6642C21.0792 17.8161 18.2981 21.8393 16.0918 26.289C15.7766 26.9379 15.721 27.8278 15.8508 28.5324C16.5368 32.0921 19.7999 34.595 24.5462 34.558ZM47.4806 16.3328C44.0877 13.0697 40.6948 9.73249 37.1907 6.50647C36.5974 5.9688 35.6148 5.65362 34.799 5.598C30.6089 5.31989 26.9194 7.06268 23.3596 8.91671C21.932 9.65833 20.7269 10.9747 19.6516 12.2169C19.1324 12.8287 19.188 13.9041 18.9285 15.0721C21.005 14.1822 22.5253 13.2551 24.1754 12.94C25.844 12.6248 26.8452 11.8646 27.5868 10.437C27.1975 10.3629 26.9194 10.2887 26.4002 10.196C29.0886 8.23072 31.7955 8.52737 34.4097 9.36168C37.0238 10.196 39.5824 11.2343 42.0668 12.4208C44.7366 13.6816 44.8478 16.9261 46.4609 18.8914C46.8131 18.0015 47.1468 17.1672 47.462 16.3328H47.4806ZM50.651 23.5265C50.0391 23.1928 49.5942 22.9146 49.1307 22.7107C46.535 21.6354 44.5512 19.5959 43.8467 17.1486C43.1607 14.7198 41.9185 13.6445 39.842 12.7916C38.4514 12.2169 38.0806 12.5692 38.0065 13.9041C37.8952 15.6098 37.6542 17.3155 37.543 19.0397C37.5059 19.6886 37.7098 20.3561 37.784 20.9865C38.3587 20.7084 38.6554 20.5786 38.952 20.4302C39.2301 21.1904 39.5082 21.9506 39.7307 22.5438C40.1201 22.4326 40.7134 22.0989 40.9358 22.2472C41.6033 22.7292 42.0483 23.5265 42.7157 24.0085C43.4759 24.5462 44.3473 25.2136 45.2001 25.2693C47.0912 25.3991 48.9267 24.9726 50.6324 23.5079L50.651 23.5265ZM61.3858 66.5215C61.1448 66.4473 60.9223 66.3731 60.6813 66.2804C60.4773 66.7439 60.1436 67.2075 60.1065 67.6895C59.9211 69.5065 59.9026 71.3419 59.6616 73.1404C59.2351 76.1624 58.6975 79.1845 58.1969 82.188C58.0856 82.188 57.9744 82.188 57.8817 82.188C57.8075 81.8172 57.7519 81.4279 57.6221 80.7419C57.1772 82.0583 56.8249 83.0594 56.3428 84.4685C57.4923 83.8937 58.234 83.4117 59.0312 83.1892C59.9026 82.9482 60.2363 82.5032 60.2178 81.6504C60.2178 81.1869 60.2548 80.7048 60.2919 80.2413C60.6627 75.6618 61.0335 71.1009 61.4229 66.5215H61.3858ZM46.9429 19.8926C47.8143 20.5044 48.389 20.9679 49.0009 21.3387C51.7448 22.9703 52.3567 22.7292 53.3949 19.7257C53.432 19.633 53.3949 19.5218 53.3578 19.4291C52.06 18.7616 50.7807 18.0756 49.4644 17.4638C49.1677 17.334 48.6115 17.334 48.4076 17.5194C48.1666 17.7419 48.0924 18.2425 48.0924 18.6133C48.0924 18.9099 48.352 19.2066 48.5559 19.6516C47.9997 19.7443 47.6104 19.7999 46.9244 19.8926H46.9429ZM17.538 137.883C13.5333 139.162 9.67687 140.405 5.82048 141.647L6.00589 142.259C10.0291 141.257 14.0338 140.238 18.0571 139.237C17.8717 138.755 17.7419 138.421 17.538 137.883ZM47.4806 93.9611C49.3531 93.2195 51.4482 89.9564 51.0218 88.7142C49.7425 89.7896 48.5003 90.8278 47.0541 92.0329C47.6474 92.3296 48.0182 92.515 48.3705 92.6818C48.148 93.0156 47.907 93.3493 47.4806 93.9797V93.9611ZM50.1318 16.4812C51.4482 17.093 52.5792 17.6307 53.7287 18.1683L54.1736 17.779C53.8399 17.1857 53.6545 16.3885 53.1539 16.0177C52.2269 15.3317 51.2257 15.6098 50.1318 16.4812ZM59.9953 65.7799C60.8481 65.4214 61.0088 63.314 60.4773 59.4576C60.3105 61.5712 60.1621 63.6848 59.9953 65.7799Z" fill="#202020" stroke="#202020" stroke-width="0.75" stroke-miterlimit="10"/>
<path d="M51.0971 36.0047C47.0553 41.0477 43.7366 46.4244 42.9764 53.0432C42.8096 53.0062 42.6427 52.9876 42.4758 52.9505C42.4758 51.8752 42.1977 50.7072 42.5314 49.7431C43.477 47.0547 44.3855 44.2737 45.8316 41.8449C47.8154 38.4706 50.2628 35.3743 52.5432 32.1854C53.5259 30.8134 54.8051 29.7752 56.9743 29.4785C52.8213 32.7972 51.9314 37.5065 50.3184 41.7707C49.1318 44.9226 48.1492 48.2228 47.6857 51.5415C47.0182 56.1951 48.1677 60.6819 50.4296 64.8349C51.1156 66.1142 51.7831 67.412 52.5432 68.8952C49.5582 67.2266 45.8872 59.3099 46.1839 52.8949C46.462 46.8508 48.8722 41.4741 51.0971 36.0047Z" fill="#202020" stroke="#202020" stroke-width="0.75" stroke-miterlimit="10"/>
<path d="M27.3267 53.3389C26.4368 58.4375 24.7311 63.2765 26.2885 68.6346C30.2932 71.0078 34.7614 69.6358 39.415 68.4121C36.5413 71.4342 29.5145 71.5455 26.9745 70.2106C25.4727 69.4319 24.7311 68.1897 24.5272 66.6137C23.9153 62.0714 24.8609 57.7885 26.7335 53.6726C26.7891 53.5614 26.9745 53.5243 27.3267 53.3389Z" fill="#202020" stroke="#202020" stroke-width="0.75" stroke-miterlimit="10"/>
<path d="M34.8183 82.9852C34.7626 82.5774 34.7256 82.188 34.707 82.0768C36.4684 82.3734 38.3224 82.9667 40.1393 82.8925C42.2344 82.7998 44.2924 82.0768 46.3689 81.6689C46.888 81.5576 47.4628 81.6133 48.0004 81.5762C47.7965 82.0211 47.574 82.4476 47.3886 82.9111C47.2588 83.2448 47.2588 83.6342 47.1105 83.9493C46.888 84.4314 46.5728 84.8764 46.3133 85.3399C46.1649 85.2842 46.0166 85.2101 45.8683 85.1545C45.9054 84.5612 45.961 83.9864 45.9981 83.4858C43.7547 83.7269 41.5484 84.1533 39.3421 84.1162C37.8218 84.0791 36.3015 83.356 34.7812 82.9482L34.8183 83.0038V82.9852Z" fill="#202020" stroke="#202020" stroke-width="0.75" stroke-miterlimit="10"/>
<path d="M38.0077 67.5044C37.7296 62.9435 38.7864 58.605 40.0657 54.2852C40.2511 54.3037 40.4365 54.3408 40.6033 54.3593C40.01 58.7719 39.3982 63.203 38.8049 67.6156C38.5454 67.5786 38.2673 67.5415 38.0077 67.4859V67.5044Z" fill="#202020" stroke="#202020" stroke-width="0.75" stroke-miterlimit="10"/>
<path d="M27.6055 52.3936C30.6461 55.0077 34.2429 54.8223 38.2105 54.5071C34.2244 56.8061 29.8859 56.1202 27.6055 52.3936Z" fill="#202020" stroke="#202020" stroke-width="0.75" stroke-miterlimit="10"/>
<path d="M14.7754 95.1287C17.7233 97.0198 20.3004 96.9456 22.3584 93.5527C22.4325 95.3141 21.5241 96.9642 20.3004 97.3906C17.9643 98.2064 16.3328 96.9085 14.7939 95.1287H14.7754Z" fill="#202020" stroke="#202020" stroke-width="0.75" stroke-miterlimit="10"/>
</svg>
