<?xml version="1.0" encoding="UTF-8"?>
<svg id="Calque_2" xmlns="http://www.w3.org/2000/svg" version="1.1" viewBox="0 0 441.7 262.4">
  <!-- Generator: Adobe Illustrator 29.2.1, SVG Export Plug-In . SVG Version: 2.1.0 Build 116)  -->
  <g id="Calque_1-2">
    <g>
      <path d="M318.3,61.2c4.3.3,8.7-1.5,13.3-1.9,7.1-.5,16.1-.3,22.8,2,2.2.8,6.9,3.6,8.3,3.8.9.1,2.2-.7,3.5-.7,10.9,0,15.7,17.3,17.9,25.7,6.7,25.4,7.2,53.3.6,78.6l57,9.1c-1.4,1.4-4.9.1-6,.9-.3.2-1,2.4-1.5,3.3-9,14.5-39.9,32.1-55.3,41.1-5.1,3-14.1,8.8-19.2,10.8-1.3.5-2.3.5-3.6.3-.2-1.3.3-.8.9-1.2,9.8-5.7,20.4-10.5,29.9-16.4s20-13,28.7-19.4c6.9-5.1,14.3-11.3,18-19.1-24.9-3.8-49.7-8.1-74.7-11.2-14.4-1.7-29-2.6-43.4-4.3-30.5-3.6-60.7-7.4-91.2-10.7-9.5-1-19.1-3.3-28.7-3.3l-3.7,11.2,9.8,1.4v1.4c-.5.2-3.5-.6-3,.5,2.2,1,4.3,3.4,6.4,4.4,4.1,2,11.5,2.8,12.1,9,.6,5.6-2.2,6.3-6.5,7.9,2.4,3.6,2.8,7.4,5.2,11.2,5.4,7.9,21.6,13,30.4,17.3,16.2,8.1,30.8,19,47,26.9,9.2,4.4,19.8,9.1,29.2,12.9,6.5,2.7,16.1,5,22,7.9.7.3,1.6.6,1.4,1.6-5.1-.7-9.9-2.4-14.8-4.2-21.1-7.8-42.5-18.3-62.2-29-7.3-4-13.8-9.1-21.2-12.9-7.4-4-29.8-12.9-33.9-19.1-2.2-3.4-3-8.6-4.7-12.4-5.5.3-11.2-.6-16.5-.6s-12.7,1.7-18.6.9c-1.4-.2-2.2-1-3.4-1.3-4.2-.8-9.3-.5-13.3-1.6-2.6-.7-8.7-3.3-9.7-5.7-2.6-6.3,4.5-9.8,9.1-12.1,3-1.5,6.7-3.4,10.1-3.4.3.6-1,1.5-1.5,1.7-4.4,2.9-16.8,5-16.1,12,.3,3.7,9.4,5.5,12.6,6.2,4.4.9,10.4,1.9,14.8,2.1,8.7.5,17-2.1,25.5-2.8.2-.8-.2-.9-.8-1.3-2.7-2.1-9.5.6-13,.8s-8.1,0-11.6-.9c-.7-.2-5.6-1.9-4.4-2.8,8.3.8,16.5,2.2,24.8.9-3.6-2.9-9.7-5.6-9.8-10.7h-1.4c-.8,1.2.3,4.3.2,4.7-.3.7-2.9,2.4-3.5,1.9l1.4-8.4c-10.5,2-19.8,9.2-30.8,8.4.6-4.3,5.7-6,9.2-7.3,7.2-2.8,15.4-4.3,23-4.8l1.4-12.6c-.8,0-.8,1.7-.9,1.9,0,0-1.6-.8-2.3,0,.5-4.2-2.2-.5-3.6,0-2.8.7-3.7-1.6-5.2-2.4-.7-.3-1.9-.5-2.7-.6-11.2-2.2-23.5-2.7-34.8-4.4-4.9-.8-9.8-2.2-14.8-3-8.6-1.4-17.5-2.1-25.9-4.2-20.1,15.2-40.6,30-60.4,45.7-6.6,5.2-12.9,11.2-19.7,16.4-4.2,3.1-8.6,5.9-12.8,9.2l35.5,8.3v1.9l-36.8-8.3-2.4.3c-.3-.3,1-2.6,1.4-3,3.5-3.7,12.6-8.7,17.2-12.2,3.1-2.4,7.2-5.5,9.9-8.4,6.9-7.4,16.2-12.9,24.3-19.2,13.5-10.4,26.5-21.3,40.7-30.6,0-1.2,0-.7-.7-.9-1.3-.5-2.8-.3-3.8-1.4-1.7-2.7,6.7,0,7.4-.1,1.5-.2,5.6-4.9,5.7-1.3l-2.6,1.4c0,.7.8.7,1.3.8,11.3,3,27.6,5.7,39.3,7.4,10.9,1.6,22,2.1,32.8,4.3-1.4-3.6-3-7.2-3.3-11.2l-1.4.5.9-2.6-.9-.9c1.3-2.2,4-2.8,5.6-4.3,8.6-7.3,17.6-15.2,26.8-21.9,8.6-6.2,22.1-14.8,28-.5-.2,6.5-1.6,11.8-5.4,17-2.2,3-6.9,5.5-9.8,8-5.4,4.5-10.1,10-16.5,13.1v5l34.1,3.3c.1-1.5-.5-2.9-.5-4.4.3-9.8,9.1-21.8,14-30,4.9-8.3,6.7-17.6,8.6-26.4,1.6-7.8,2.1-10.1,6.9-16.5,1.2-1.5,4.1-4.1,4.9-5.5,1.4-2.6,1.3-7.4.5-10.2-1.7.8-3.5,2.1-5.1,2.9-9.5,4.5-15.2,6.5-25.8,2.8-5.4-2-9.1-4.4-9.5-10.5-.9-10.4,2.8-15.6,10.8-21.5.9-.7,5.1-2.7,5.4-3,.5-.8,0-2.1.3-2.9.2-.7,1.3-1.3,1.3-1.5s-1.9-1.6-2.2-2.4c-2.7-5.4,5.4-9.3,9.5-9.9,2.8-.3,6.7.5,9.2,0,1.9-.5,7.4-4.9,10.4-6,5.5-2.3,14.3-3.7,20.2-3.1,7.1.7,13.7,8.7,16.5,14.9,1.7,4.1.7,7.1,1.3,11.3,2.4,2,6.4,3.1,7.9,6,.8,1.5,2,5.6,2.1,7.2.2,2.9-.8,7.2-.5,9.3.2,1.3,2,2.3,2.3,4.3.3,2.3-.2,4.1-.9,6.3h0l-.2-.9h0ZM301.1,45.9c-.1,0-.3-1.4-.2-1.9,1.5-12.4,9.4-18.5.7-32-5.5-8.4-13.7-9.4-23-8.3-6.9.9-11.6,4.1-17.6,7,2,2.7,5-1,7.1-2.1,14.5-7.3,33.9-1.2,34.6,16.8.1,3.4-1.2,13.7-2.6,16.6-.2.6-.5,1.3-1.2,1.4l.9-7c-4.3,1.2-5.7,10.9-.6,11.6,2.1.2,7.4-2.7,7.9-4.9.5-2-.6-5.7-2.7-6.2-.2.3-1,6.9-1.5,8.1-.2.8-1.3,1.2-1.7.8h-.1,0ZM300.6,26.2c-.8-1.7-.3-3.7-.6-5.7-.6-4-7-10.4-10.8-11.6-7.8-2.8-16.8-.6-23.7,3.4,0,.7.7.7,1.2.9,3.7,1.4,7.2,1.7,10.7,4.3,3.1,2.4,4.8,6.6,8.5,8.7,2-.6,9.5-6.7,10.7-6.4.5,0,.9.8.5,1.4-.6.9-6.7,4.4-8,5.5-.3.2-.8,0-.6,1,3.4,2.2,4.8-1.3,7.8-1.7,1.6-.2,2.8.1,4.3.3h.1-.1ZM288.8,29.5c-1.6,0-2.9-1.5-4.2-2.1-.6-.2-1.3.5-2.1-.2-1.9-1.4-3.5-6.7-7.1-8.8-1.6-.9-12.7-4.8-14.5-5.1-4.7-.7-18.1-.7-19.1,5.5-.5,2.9,6.3,5.9,8.5,6,1.6,0,4.3-1.2,6-1.3,5.1-.6,15.4-.9,20,.9,2,.8,5.1,4.1,6.3,5.8.9,1.4.9,3.4,2.7,4.4l3.5-5.1h0ZM247.7,25.3l-3.8-.9c-1.3.3-1.3,2.2-1.7,3.3.2.2,5.4-1.4,5.6-2.3h-.1ZM284.2,37.4l-6.5-10c-.6-.8-1.4-1.2-2.3-1.4-1.6-.3-5.5-.6-7.2-.7-13.4-.7-28.5,2.6-37.6,12.9-3.8,4.4-5.1,11.5-3.3,17.1,2.2,6.4,16.8,9,22.5,7.8,6.6-1.4,24.2-12.6,27.9-18.4,1.6-2.6,2.6-9.1,6.5-7.2h0ZM300.5,28.1c-7.9,1.6-11.4,6.4-12.1,14.3-.8,9.9,3,16.1,13.6,14.5,4.7-.7,12.7-5.5,13.4-10.5.9-7-1.4-14.3-8.8-16.1-2.3,4.4.1,4.7,1.5,7.7,1.9,4.3.7,7.4-3,9.8-6.9,4.3-12.2,2-10.8-6.6.9-5.6,3.8-4.7,5.1-7,.2-.5,1.4-5.8,1.2-6h-.1ZM287.9,35.1c-1.2-.2-.8.2-1.2.9-.3.6-1.5,3.4-1.2,3.7h1.4l.9-4.7h.1ZM286.5,45.4c-.1-1.7.7-4.3-1.4-5.1v2.3l.9-.5v1.2c-1.2.3-1,.9-.9,2.1h1.4ZM278.1,49.1c-3-.7-3.6,2.4-5.9,3.4-.7,2.6.8,2,2.4.8.5-.3,4.1-3.7,3.5-4.2h0ZM279.7,51.1c-1,1-.6,4.1,1.2,4.5,4.4-.3,5.5-5.9.6-6.5.1,2.1-1.4,1.6-1.7,2h-.1ZM307.1,57.5c-.7.9,4.3,3.6,5.5,3.7,5.4.3,6.5-5.1,3.3-8.4-2.3,2.4-5.7,3.4-8.6,4.7h-.2ZM286.1,55.2h-.7c-3.4,3.4-6.4,2.9-8.4-1.4-2.4,2.1-4.7,3.6-7,.6l-3,1.9c1,4.2,1,7.9,0,12.1,1.4-.9,3,.1,4,0,.1,0,1.3-1.9,2-2.3,4.5-3.6,11.4-3.8,16.8-2.3,1.9.6,3.6,1.6,5.4,2.3-.3-2.6,1.6-4.2-1.4-5.4s-7-.8-7.4-5.4h-.3ZM305.6,59l-8.6,2.2c0,3.6,0,7.6-1.3,10.9-.5,1.4-2.7,5.6-3.5,6.7-2.1,3.1-5.7,4.3-8.7,2s-3.1-4.1-5.1-4.2c-.5,0-1,.5-1.4.5s-.5-.9-1-1.3c-1.9-1.2-9.9-2.4-12-2-.5.1-.6,1.2-1,1.4l-1-.8c-1.6-.3-5.4,8.6-5.9,10.4-1,3.7-.9,7.7-1.9,11.3-.3,1.5-2.1,3.8-1.5,5,.2.5,5.1,5.1,5.7,5.6,5.7,3.5,15.1,0,21.1-1.7,4.8-12.7,11.2-25,21.8-34,2.1-1.7,4.4-2.7,6.3-4.1,1.3-.9,2.6-3.1,4.5-4-2.2-.9-5-1.6-6.2-3.8h-.3ZM371,73.1c-12-12.2-31.6-14-47.6-10.2-1.3.3-6.7,1.6-7.3,2.2,0,0-.6,2.3-.6,2.4,0,3.3,2.4,9.5,3.1,13.3,2.3,13,2.9,24.2,4,37.2.7,9.1,2.6,18,1.9,27.1-.3,4.9-2.4,10.2-2.9,14.9,0,.3-.5.7.1,1l59.4,7.2c-.7-2.2-1-4-.9-6.3.2-11.5,3.6-23.5,4.2-35,.9-17.8-.1-40.4-13.3-53.9h-.1ZM293.4,67.5c-1.4-1.4-5.7-2.7-7.6-2.9-1.6-.1-6.5.2-8.1.6-1.2.2-5.4,3-5.1,4.2,1,1.3,2-.1,3.6.6,1.4.6,2.7,3.3,3.3,3.4.5,0,2.2-.8,3.3-.9,4.2-.2,5.8,4,4.4,7.4,2.1,1.7,6.2-6.5,6.7-7.9.8-1.7,1.2-2.9-.3-4.5h-.2ZM378.7,79.5c-2-7.2-7.3-13-15-14l7.3,5.4,7.7,8.7h0ZM312.7,66.5c-12.9,4.4-22.8,18-28.2,30-1.5,3.5-2.2,4.7-2.2,8.5s-.8.2-1,.8c-.6,1.4-.8,3-1.3,4.5-2.2.3-.6-3.4-.9-3.7-7.4,2.3-15.8,5.7-22.9.7-1.9-1.3-2.9-3.5-4.7-4.9-.6,4.5-2.1,9.1-4.5,13-4.9,8.1-12.7,18.4-14.2,27.9-.3,2.4-.5,4.9.1,7.2l76.1,9.3c.3-3.3,1.2-6.9,1.4-10.1.8-12.4,1-29.4-1-41.5-.6-3.3-2.3-6.9-2.7-9.5-.3-2.4.8-2.4,1.7-.3,4.7,9.5,4.4,32.2,4.1,43.2-.2,6-.6,12.1-1.7,18.1l2.9.6c.7-2.8,2-5.4,2.7-8.1,2.7-10.7.7-33.7-.8-45.1-.3-2.8-1.7-6.4-1.9-9,0-.6.1-2.8.9-3,1.9,7.2,3.7,15.2,4.2,22.7.3,4.5-.1,9.4,0,14.1.2,8.6,1.7,15.2-1.5,23.7-.3.8-2.6,4.8-2.2,5l5.1.5c1.3-8.7,2.7-16.5,2.3-25.5-.5-10.2-1.5-21.1-2.3-31.3-1-11.9-3.8-24-5.8-35.8-.5-.8-1.6.3-2.1.8-17.3,13.1-19,37.5-16.9,57.5.9,8.4,3.6,16.6,4.7,25-1.2.2-.8-.2-1.2-.9-3.1-7.9-5.4-21.6-5.8-30.1-1.2-18.6,1.6-38.4,16.4-51.4,1-.9,2.4-1.5,3.3-2.6h0v-.3ZM271.5,72.5c-.3-4.4-5.7-2.7-7.9-.7l7.9.7ZM277.1,74.4c.2-2-2.7-3.7-3.7-1.6-.5,1,3.3,1,3.7,1.6ZM280.5,74.9c-.1.2,3.3,3.6,3.7,4,.5.3.6,1,1.2.2,1.2-3.8-1.4-5.7-4.9-4.2h0ZM190.2,115.6c5.9,0,12.7,3.6,15.8,8.7,1,1.9,1.6,3.8,2.7,5.7,7.7-6.3,17.3-12.6,18-23.6.6-9.1-7.7-9.2-14.3-6.7-1,.3-5,2.2-5.6,2.8-.6.7,0,1.9-1,2.3-.3-.3-.8-.9-1.3-.9-.8,0-12.3,9.1-13.5,10.4-.3.3-1,.3-.8,1.3h0ZM383.3,167c.6-5,2.1-9.8,2.8-14.8,1.2-7.9,1.2-15.8,1-23.7,0-4.4,0-8.8-.5-13.3l-.5,1.6c-.2,5.4,0,11.2-.5,16.4-.9,10.6-4.2,20.9-3.3,31.8,0,.6.1,2.1.9,2.1h-.1.2ZM200.4,120.7c-4.1-2-7.7-4.1-12.3-4.2-1.3.8-2,2.1-3.1,2.9-2.6,1.9-3.3,2.7-5.4,4.5-1,.9-2.8,2.2-4,2.8-.1.7,0,.8.5,1.2,1.2,1,3.8,1.9,5.4,3.5,2.9,3.1,5.7,8.7,5.4,13.1l1.4-4.4-2.3-3.3c0-1,1.6-1.5,1.9-2.8.5-2.8-2.2-5.2,1.4-7.9.5-.3,3.7-2.6,4-2.6.6,0,3.4,2.4,4.2,0,4,1.7,6.9,4.4,8.6,8.4,1.6-.5,0-4-.7-5.1-.5-.9-2-3.3-2.8-3.7-1-.7-4.7,1-5.8-.7l.8-1.2,2.9-.5h.1-.2ZM196.7,126.3c-2.8-.2-5.9.1-7.4,2.8l7.4-2.8ZM184.5,144c.3-3.4-1-7.3-3.1-10-3.5-4.2-10.8-6.7-9.7,1.3.6,4.2,3.4,11.1,7.4,12.4l5.4-3.7h0ZM202.3,134.2c-.9-10.6-14.8.9-4.4,1.9,2.8.2.9-2.6,4.4-1.9ZM194.4,146.9v-3.3c-1.3.9-4.5,1.3-3.5,3.3h3.5ZM193.9,148.3h-3.7l-.5,10.2,2.1-4.2,2.1-6h0ZM201.8,167.9c-1.3-2.3-9.7-6.3-11.5-4.2-.6,2.1-1.9,3.5-.2,5.4,1,1.2,8.8,6.3,10,6.3s4.8-2.7,5.8-4c.2-.7-2.3-2.3-3-2.1-1.2.3-.7,2.4-.2,3.3-2.6.1-3.4-2-3.3-4.2l2.3-.5h.1,0ZM174.7,164.2c-4.9.5-9.5,2.1-14.1,4l-3.7,2.6c4.9-.5,9.3-2.4,13.7-4.3l4.1-2.2h0ZM208.3,180c1.2,5.4,8.3-.7,7.3-3.7-.3-1.2-4.1-4.2-5.2-4.7-.2,0-.8-.1-.7.2,3.1,3.4,4.5,7.4-1.4,8.1h0ZM202.8,177.2c2.4.5,4.2,3.6,6.5,1.2,2.1-2.1,0-4-1.6-5.4l-4.5,3.3-.3.9h0Z"/>
      <path d="M331.4,137l3.3-3,1.4.5c-1,2.1-2.2,3-4.7,2.6h0Z"/>
      <path d="M255.1,113.6c-.2,1.4,1.7,2.8,2.8,3.5,5.8,3.8,13.5,2.4,20.1,2.1.2,1.3-1.3,1.6-2.2,1.7-4.2.8-11.8.8-15.7-.9-1.9-.8-3.5-3.1-5.5-4.2-.9,7.4-6.4,22.9-3.7,29.8,1,2.8,8.7,4.4,11.5,4.4,4.8,0,8-3,12.3-3.7-3.6,5-10.7,6.2-16.5,5-4-.8-9.2-2-9.7-6.6-.7-6.4,2.3-23.6,4.8-29.8.1-.2,1.4-1.7,1.9-1.3h-.1,0Z"/>
      <path d="M280.9,119.3c0,2.3-.8,4.9-.9,7.2,0,1.6.1,14.2-1.6,14.2-.8-.6-.7-1.3-.7-2.1-.2-2.6.2-8.5.5-11.3s.6-6.4,2.8-8.1h0Z"/>
      <path d="M288.8,67.9v1.4l-7.9.9c-.2-1,.5-1,1.2-1.4,2.2-1.3,4.4-.9,6.9-.9h-.2Z"/>
    </g>
  </g>
</svg>