<?xml version="1.0" encoding="UTF-8"?>
<svg id="Calque_2" data-name="Calque 2" xmlns="http://www.w3.org/2000/svg" viewBox="0 0 381.87 542.64">
  <g id="Calque_1-2" data-name="Calque 1">
    <g>
      <path d="M303.93,166.9c1.61-2.73,4.15-11.85,7.7-12.86,4.09-1.17,7.65,2.95,7.3,6.87l5.99-2.02-1.05-5.93-3.94-1.04,6.98-2.5c-2.35-2.11-2.93-4.56-1.99-7.49-1.02-.78-6.01,1.72-4.99-2l5.86.13,4.62,8.6,10.51-3.75c-2.19-3.92-2.39-4.93-6.99-4.48l7.5-5.49c1.68,1.49-1.51,2.61-1.36,4.32.11,1.18,2.22,4.21,3.46,4.45l14.38-3.8c.27-.35-2.41-3.25-3.04-3.53-2.38-1.08-4.19,1.8-5.94-.95,8.51-7.21,8.44,2.22,12.7,3.36,3.52.95,4.93-4.04,13.32.58,4.57,2.52,6.4,6.03,6.86,11.17,1.07,11.97-9.77,7.52-8.91,18.35l-5.99-1.01.94-4.36c-1.12-4.25-10.49,2.36-12.49,3.36l1.56,6.48-5,1.51.94-4.43-2.33-1.47-7.61,3.93,1.99,5.97c-2.54.44-3.1-2.94-5.47-2.98-1.74-.03-3.6,2.05-5.52,2,3.12,5.32,11.75,1.08,14.99,4.97-5.84.25-11.35.07-17.01-1.47-2.62-.71-3.87-4.39-7.69-1.2-3.03,2.53-1.71,7.2-3.04,10.42-2.98,7.23-18.2,12.71-25.23,12.74,2.5-2.92,6.77-2.7,9.97-4.02,9.39-3.88,16.55-7.73,13.54-19.49-.82-3.21-5.54-11.28-9.57-8.52-3.68,4.76-.53,8.59.04,13.54l-5.05-7.43-7.93-2.56c-.61,5.85.36,10.5,1.98,15.99-7.33-10.62-19.93-9.37-10.99,4.98l-43.9,18.07.92,5.92-1.98-1.02,1,15.99,3.98-5.99c.66,3.95-1.11,7.68-1.09,11.48.3,41.49-2.12,88.3-7.03,129.76-2.84,24-8.06,47.78-9.93,71.92l2.04,1.62c-.74-.1-1.67-.19-1.97.72-1.69,5.1-.52,12.8-2.03,18.29-1.29,1.59-1.82-.11-2-1.48-.63-5.01.17-10.47-1.01-15.5-6.79,2.46-13.78,4.84-20.76,6.71-15.69,4.2-38.76,10.31-54.71,8.28-1.46-.19-3.1-.76-1.48-1.99,26.53,1.03,51.62-9.54,76.98-15.69,2.13-9.74,1.81-19.81,3.1-29.64,3.12-23.88,8.99-50.41,10.85-74.08.58-7.43-1.11-14.6-1.02-22.01.15-12.66,3.43-26.34,4.08-38.88.56-10.89-1.47-19.96-1.83-30.02-.18-5,1.77-12.01.78-17.48-6.37,8.63-12.1,25.93-26.27,21.77-2.2-.64-2.95-4.13-5.7-3.78-1.62,11.36-1.25,25.66-11.66,32.8-19.96,13.69-43.46-2.02-59.78,11.18-13.02,10.52-2.72,14.38,1.49,25.94,2.41-.96-.57-6.24,2.97-6.98.74,2.96,2.34,5.67,2.75,8.75,1.83,13.91-4.84,27.49-.05,43.02,4.67,15.12,27.49,2.97,37.86,1.25l1.42-51.02c-12.4,2.63-37.48,9.75-42.97-5.98.97-.78,9.9,4.52,12.56,4.92,6.73,1.01,17.64.22,24.21-1.66,5.08-1.45,9.61-5.21,15.21-4.27,1.35,4.03-2.31,4.27-2.97,5.77-4.22,9.61-2.23,36.94-2.99,48.72-.16,2.53-1.09,4.91-1.05,7.46-4.73-2.3-7.56,1.76-12.01,3.47-9.17,3.55-27,7.5-32.73-3.21-4.85-9.06-1.38-17.39-2.35-27.13-8.64-1.59-15.38-10.47-18.9-18.09-.37-.26-7.18,4.5-7.47,5-1.6,2.73.45,12.77-6.49,11.98l-2-5.98-4.08,18.92-2.92.06.99-15.99c-10.34,5.97-21.34,8.24-33.09,9.56-1.01,4.62-2.11,9.35-2.75,14.04-2.45,17.87-2.75,35.88-4.13,53.82-.94,12.17-4.57,24.7-2.09,36.87,1.76,2.45,52.87,9.29,59.53,9.64,19.93,1.03,50.38,1.62,69.98-.06,1.31-.11,5.44-.72,6.24-1.26,1.89-1.26,3.15-7.68,5.83.34l20.43-1.06c.25,1.37-1.78,1.51-2.75,1.72-3.98.86-17.44,1.32-19.08,3.92-1.16,1.84-3.98,25.11-4.14,28.82-.35,8.22,1.8,16.11.85,24.33l-20.85,10.63,17.99-1.5v2.99c-7.93.96-15.71,3.05-23.41,5.08-6.88,1.81-22,7.33-28.06,6.94-1.52-.1-2.9.73-2.51-1.53.62-3.66,11.46-5.47,14.99-7.01,12.31-5.35,23.88-12.87,36.88-16.58l.16-11.42c-1.94-13.46,1.07-27.94,2.95-41.42-36.2.72-72.95,3.17-108.94-2.01-3.5,22-.43,43.71-1.14,65.8-4.74.46-9.65,1.67-14.37,2.13-11.56,1.12-34.15,3.35-44.87,1.93-6.23-.83-10.94-3.26-2.36-6.18,9.34-3.19,35.18-8.49,44.69-8.38,3.4.04,11.89,3.18,13.62.72.15-18.87-2.13-37.71,1.5-56.41l-23-6.55c-.02,1.39-.48,4.37-2.54,3.95-4.43-3.66-3.68-10.26-3.56-15.53.39-16.87,4.65-32.11,6.03-47.92.59-6.76-.44-14.13.03-20.95.66-9.6,2.45-19.2,3.03-28.82-10.02-3.04-20.41-5.75-28.94-12.23-40.12-30.48-41.48-96.64,3.61-123.1,16.46-9.66,34.51-10.93,53.28-10.18.05-6.4,1.15-12.77,2.48-19,2.89-13.46,6.5-26.55,16.47-36.49,1.39-1.39,3.53-1.34,4.51-2.49.4-.47,4.09-10.12,4.51-11.49s-.04-1.76-1.42-1.42c-8.14,1.97-12.52,4.27-21.82,2.7-6.13-1.04-11.99-6.88-16.68-8.31-5.74-1.75-9.18,1.11-12.26-6.72-3.51-8.94.83-11.84,2.94-19.47,1.25-4.51,1.55-9.7,3.26-14.21-1.75.06-.5,1.9-2.88,2.57-5.25,1.47-23.37,2.98-28.08.91-4.45-1.96-7.43-11.15-6.82-15.7.2-1.49,2.05-7.92,4.33-5.79,3.87,3.62-1.53,14.41,4.71,17.27,3.16,1.45,20.41.44,23.52-.99,2.09-.97,2.56-3.47,4.19-4.8,6.17-5.04,11.93-9.82,18.02-14.96,4.55-3.84,9.91-6.58,14-10.98-.78-1.49-2.41.22-3.29.71-3.12,1.74-13.52,8.62-16.58,6.66-4.62-9.8-1.54-16.58,5.48-23.75,11.38-11.63,40.74-21.34,56.87-20.88,14.23.41,19.4,16.74,31.48,21.77-1.96-5.11,3.81-37.52,10.48-35.96,3.89,4.2,1.97,10.21,1.22,15.19-1.32,8.8-4.59,16.82-7.5,25.14,9.55,9.77,21.41,19.67,34.26,24.63,5.81,2.24,30.02,6.83,29.22,14.3-.07.64-1.19,1.42-1.22,2.14-.08,1.53.73,3.09.49,4.92-.74,5.64-6.36,9.96-11.99,9.6,3.96,24.93,14.39,48.75,15.15,74.27l16.83,7.64c-10.27.97-20.24-6.45-27.01-13.45-8.51-8.81-10.67-15.42-12.74-27.25-.34-1.93.05-1.2,1.77-1.25.12,9.14,4.11,18.42,10.5,24.97.92-.09.52-1.67.53-2.52.16-12.01-4-31.14-7.03-42.98l2.04-1.01-2.6-10.47c-32.92,6.82-47.62,40.01-59.41,67.97l8.01,2.52c2.45-4.45,3.53-9.57,5.97-14.03,4.67-8.56,30.19-44.83,37.07-48.86,2.3-1.35,4.7-2.39,7.41-2.58,2.2,1.66-.14,1.71-.77,2.3-5.8,5.44-6.64,5.9-13.03,9.64-2.13,1.25-24.4,36.6-26.84,41.36-2.52,4.89-3.76,9.86-6.42,14.61l18.76,27.85c4.19,2.48,34.26-15.06,40.81-16.31l.9-5.42c-17.67-1.63-30.97-19.92-29.88-37.05l8.79,18.67c7.53,14.35,22.34,15.05,36.25,17.83,16.28-6.28,33.24-10.47,49.9-15.53-.72,1.21-1.26,2.26-2.71,2.77-14.52,3.93-27.91,10.99-41.98,16.01-.81.29-3.4.59-1.75-.8l.05-.93-14.56,5.45,1.98,2.47c-8.13,2.02-15.51,6.51-23.44,9.05-.94.3-4.57,2.12-4.53-.03l20.7-7.77.77-2.25-26.2,10.73c-2.91,4.66-11.54,2.6-12.22,8.69l2.87,1.66-.91,2.9,26.98-10c.23-1.86-2.03-.79-3.04-.54-3.87.93-8.02,3.19-11.89,4.11-1.01.24-3.27,1.31-3.04-.54l83.34-28.88c1.56-11.12,8.07-3.21,10.99-4.15,2.22-.71.93-6.66,7.01-5.96,3.73.43,5.8,3.49,10.99.12l.59-8.1c-2.66.77-5.27,1.39-7.99,1.99,4.56-3.18-.8-7.52-3.29-6.89-1.97.39-6.59,8-5.7,8.88,2.9-1.15,6.01-1.34,8.99-1.99-3.44,2.4-7.87,2.74-11.99,4ZM226.97,101.95l-2.98-7.41c5.76-5.8,13.58-2.38,11.92-13-1.22-7.81-17.63-9.35-24.21-11.77-13.85-5.11-32.54-21.04-43.71-31.24-4.76-4.34-16.33-18.82-20.95-20.03-14.78-3.86-47.2,8.4-58.02,18.99-4.27,4.18-9.75,10.56-5.43,16.54,5.07-1.69,9.42-5.83,14.45-7.52,7.87-2.63,12.72-1.31,17.98-10.01l-5.99-1.47c4-1.46,7.13-4.31,11.58-4.92,14.91-2.06,48.74,8.67,56.77,22,3.97,6.6,5.92,15.52,11.61,21.36,5.62,5.77,18.66,10.16,26.44,12.54,4.46,1.36,9,1.97,13.53,2.97-.46,1.44-5.27,1.95-6.54,2.03-1.81.11-4.43-1.39-5.48-.62-1.55,5.37-.66,9.5-5.96,13.06l14.99-1.51ZM145.34,43.68c-3.28-4.58-1.77-8.17-9.78-8.72-13.11-.89-33.53,18.51-42.03,28.01-5.45,6.09-21.66,27.66-23.26,34.69-4.59,20.16,18.36,33.41,36.19,30.18,31.98-5.79,40.53-40.72,43.43-68.48.52-4.95,1.67-9.26-1.41-13.35-.93-1.24-2.58-1.57-3.13-2.34ZM173.38,53.63c-1.77-2.39-2.91-4.3-5.68-5.83-2.23-1.24-10.51-4.86-12.23-2.79-1.81,2.18-2.22,20.51-2.55,24.39-.35,4.16-3.46,4.4.23,8.93,1.88,2.3,4.8,2.34,3.85,6.65l9.85-4.13.63-3.86c5.25,4.89,4.88,5.96,3.51,12.98l4.49-3.98c3.27,2.43,2.9,6.64,5.05,9.92,5.31,8.1,20.92,9.21,28.35,3.46,11.08-8.58-3.52-11.4-9.23-14.58-3.75-2.09-13.85-7.86-16.24-10.74-1.9-2.29-2.87-6.52-4.4-9.32-.47-.86-2.04-1.06-2.5-1.78-.72-1.12.15-5.13-.74-7.26-.58-1.39-1.94-1.44-2.4-2.06ZM204.48,106.95c-5.15.31-10.77,0-15.99,0-4.51,0-12.03-6.85-13.99-10.97-1.7-.06-6.15,12.58-11.04,8.02-1.31-2.02,1.11-5.84-2.44-5.04-.79,7.07-7.54,14.45-15,13.98l5.11-4.46-.12-3.51-3.59,3.95-3.39-1.53c-4.34,5.7-9.33,10.7-15.06,14.99-1.94,1.46-7.65,3.72-8.67,4.81-1.77,1.88-14.02,44.34-14.99,49.46-1.02,5.39-1.88,17.43-1.3,22.77.16,1.5.1,2.49,1.54,3.42,2.96-2.89,9.08-1.84,8.51-6.98,6.02,2.69,11.85-4.92,14.96-9.5.35-2.17-.33-1.16-1.43-1.5-9.61-3-20.52-.3-18.54-15.95,3.78-.17.89,4.12,3.73,7.03,3.56,3.64,15.86,5.08,20.54,3.74,1.52-.44,5.69-4.42,8.34-5.66,6.41-2.99,15.5-4.53,22.36-3.12,3.61-13.45,10.33-27.76,18.19-39.28,6.27-9.19,15.47-20.41,25.79-24.68-.01-2.44-2.86-.03-3.49.01ZM368.9,158.92c-.63.95.87,3.26,2.38,2.89,12.72-4.51,7.29-24.8-4.42-22.49-7.27,1.43-19.15,6.01-26.72,8.33-1.97.6-13.69,3.77-14.08,4.4s-.31,5.56-.07,5.8l2.93.56c-4.55,1.6-2.79,5.48-3,9.49l5-.5-5.01,1.51c-.07,3.45,2.15,8.27,5.99,5.99l.49,2.98,6.4-4.2-.69-2.27,1.29-1.34c1.18.53,2.19.81,3.49.42,4.97-1.47,14.31-8.23,20.33-10.77,2.38-1,4.95-1.48,7.2-2.8,3.99.33-1.45,1.89-1.52,2ZM110.02,279.79c-2-.38-1.64-2.11-1.99-3.5-6.43-25.29-10.91-83.86-4.7-108.6,1.82-7.25,6.52-14.65,6.69-22.77-10.72,8.81-13.71,20.97-16.49,33.96-6.27,29.22-2.01,51.42,3.8,80.14,2.03,10.04,5.84,19.75,6.69,29.76l-7.2-20.26-2.24-1.73-48.52,19.99,49.98-21.98-1.52-5-15.48,5c.83-5.52,5.73-2.76,6.84-3.2.14-.06.25-1.49.86-1.77,1.53-.69,6.82-2.35,7.03-3.46l-1.7-5.15-6.04.59,6.03-2.56c-2.44-13.62-4.81-27.08-5.83-40.89-.12-1.69,2.13-4.39-.86-5.34-6.3-2.01-29.28,2.16-36.32,4.35-62.71,19.52-58.8,113.93-.81,132.67,20.07,6.49,38.23,2.52,55.32-9.31-1.01-9.02.82-18.05,2.44-26.96-4.27,5.13-5.37,12.8-9.15,18.32-2.37,3.46-7.99,9.26-12.32,9.69-1.91.19-5.64.53-6.38-1.67-2.36-7.06,14.14-22.43,18.37-28.33,1.44.73-.16,2.45-.69,3.31-2.14,3.44-17.44,21.08-14.8,23.66,4.41,1.13,9.01-3.69,11.51-6.96,3.43-4.48,6.79-14.96,9.97-18.01,2.41-2.31,4.91-.22,5.52,2.56-1.3,9.29-3.26,18.6-1.01,27.92.37,1.51-.7,1.75,1.97,1.5l3.01-31.47c.07-1.31,1.08-2.81,2.48-2.5.87.2,5.17,14.16,6.34,16.65,2.07,4.38,18.69,30.23,20.14,14.72.56-5.98-11.73-26.2-14.46-33.38-1.15-3.01-1.93-6.17-2.58-9.32,6.01-4.14,28.41-18.89,15.43-26.51-6.01-3.53-8.65,6.83-13.35,10.38-1.91,1.45-8.14,5.17-8.02.49,4.57-.09,8.18-3.01,10-6.99-6.18,1.46-11.42,4.8-17.99,2.99v8.99ZM325.85,177.8l-1.94-7.9-5.98,2.01,3.01,7.98,4.92-2.09ZM114.03,226.84c3.25.32,8.32.45,11.26,1.24,2.58.7,7.53,4.41,9.24,4.4,1.38-.01,3.45-2.29,5.49-1.63l-3.99,2,3.6,5.9,26.38-10.9c-2.74,3.08-7.81,3.8-11.23,6.03-1.34.87-2.48,3.44-4.04,4.22-3.64,1.82-11.75,1.58-9.23,7.71l59.47-25.45c-1.34-1.91-2.06-1.52-3.98-1.06-5.79,1.37-15.49,6.84-21.74,9.29-5.85,2.3-12.1,4.96-18.24,6.23l41.96-18.49c-.2-4.02-5.92,1.55-7.98.5l6.99-3c.24-2.39-1.31-3.08-3.39-2.98-6.28.3-15.95,6.2-22.59,6.97l23.96-9.48c-8.12-9.02-14.35-29.38-25.72-34.22-11.07-4.71-28.66-.28-36.22,9.24-2.25,2.83-3.67,7.34-6.08,9.91-4.96,5.3-16.71,9.04-23.47,11.51l.56,24.03c2.57.08,4.42-2.28,6.8-2.86,2.19-.53,2.07.86,2.19.87l-9.01,4.7,1.02,12.29,4.98-1c-.4,2.1-4.03,1.15-4.85,3.64-.63,1.9-.39,4.13,1.35,5.32l28.49-10.98c.13-2.15-1.82-5.03-3.89-5.51l-9.1,2.51,7.97-4.49c.02-1.86-9.41-3.91-11.56-4.42-2.28-.54-5.92,1.32-5.41-2.07ZM282.93,186.89c-13.31,3.53-26.38,8.32-39.22,13.23-11.75,4.5-26.39,10.02-37.54,15.43-4.94,2.4-3.64,4.9.82,3.84,23.29-10.86,48.59-18.49,71.91-29.07,1.7-.77,4.68-.86,4.03-3.43ZM205.99,228.84l76.93-34.49,1.04-1.97-1.51-2.48-141.53,58.32c-.99,4.96-1.86,8.44-4.9,12.58,6.49-.57,10.51,5.06,9.81,11.23-.88,7.72-13.08,15.76-19.72,18.88l1.93,6.86c.82.65,3.65-4.21,4.49-4.98,15.66-14.36,29.78-5.83,47.88-8.08,7.64-.95,20.97-7.02,22.53-15.44,1.44-7.8,2.54-22.08,2.02-29.92-.25-3.81-1.95-7.98-1.92-11.86,0-.74.53-4.81,1.92-4.64l1.02,5.99ZM238.96,216.85l-31.81,13.14c-1.67,16.17,8.99,29.78,22.33,13.84,6.1-7.28,11.72-17.32,9.48-26.98ZM107.04,258.81c7.41-3.56,23.24-6.77,29.37-11.09,2.58-1.82,2.54-4.76-1.13-4.15-8.45,1.39-18.84,8.5-27.66,10.14l-.59,5.1ZM137.01,249.83l-28.88,11.07c-.99,8.64,3.5,8.18,10.28,6.78,8.6-1.78,18-8.51,18.6-17.85ZM113.03,310.77v13.99l5.05-3.58-5.05-10.4ZM66.06,520.58l-38.98,7.97,52.96-1.99-1.12-4.85-13.87.86,1.01-1.98Z"/>
      <path d="M90.69,365.37c-5.95,5.51-13.84,3.43-19.98-.81-.94-.65-5.83-4.58-4.65-5.83,12.86,8.06,20.31,5.88,29.96-5-.07,3.81-2.6,9.11-5.33,11.64Z"/>
      <path d="M31.08,260.81c5.38,3.04,7.09,9.29,8,14.99l34.96-10.98-33.95,12.47c3.14,6.17,7.49,15.79,5.72,22.74-.78,3.07-3.43,5.78-6.73,4.24-6.46-3-10.43-33.62-11-40.98-.09-1.1-.73-3.72.98-3.47.69,5.1,8.15,41.89,11.51,41.94,3.94-3.49,1.02-12.92-.2-17.76-2.06-8.2-5.92-15.53-9.28-23.18Z"/>
    </g>
  </g>
</svg>