<?xml version="1.0" encoding="UTF-8"?>
<svg id="Calque_2" data-name="Calque 2" xmlns="http://www.w3.org/2000/svg" viewBox="0 0 110.81 270">
  <g id="Calque_1-2" data-name="Calque 1">
    <g>
      <path d="M93.59,217.01s0,.36-.33.53c-.91.45-3.41.58-3.21,1.73.32,1.86,7.47,9.93,6.83,11.37-2.14,2.34-5.39,3.44-7.79,5.33-1.52,1.19-4.42,4.97-5.86,5.24-2.99-.56-12.87,1.94-12.15-3.03.85-5.86,11.92-5.62,16.36-6.88,2.05-.58,3.48-2.36,5.64-2.69l-5.11-9.03c-2.8.79-5.56,1.71-8.42,2.33-9.27,2-18.18,2.91-27.59,2.17-1.55-.12-6.43-1.45-7.36-.79-2.42,7.83-5.2,15.72-8.62,23.17s-6.9,14.82-10.41,21.91c-.21.43-.11,1.13-.12,1.63-.57.02-1.01.1-1.53-.24-.35-.23-3.77-6.11-4.43-7.18-3.52-5.67-8.28-12.55-8.17-19.33,1.35.03,2.74-.19,4.07.23,4.5,1.41,9.22,15.04,10.32,19.45,6-13.24,12.88-26.02,16.92-40.09-8.97-3.53-20.27-3.14-27.02-10.86-.79.65-.19,2.43-1.76,2.01-.61-16.63,1.43-33.22,4.12-49.6,1.48-9.02,3.79-17.86,5.94-25.94s4.34-16.3,6.1-24.58c-1.8.35-2.69,1.52-4.76,1.25-7.55-.99-5.17-13.42-3.1-18.18l3.31-4c-7.81-.16-14.72.34-13-9.72.64-3.75,7.17-12.36,9.96-15.27,1.51-1.57,9.12-8.37,10.62-9.06,1.11-.51,2.36-.22,3.52-.26l-9.59,7.81c-4.24,4.22-15.24,15.34-12.24,21.83,1.59,3.44,8.49,2.2,11.49,3.16,1.32-.1,2.77-4.35,4.02-5.58,2.35-2.33,4.99-2.86,6.58.52l4.18-11.98-.39-4.67,1.53-.32c1.45-3.74,1.67-9.5,3.03-12.94.25-.63,1.18-.06.99-.86-3.32.47-6.4,2.13-9.84,2.05-10.96-.27-18.52-9.29-15.02-20.1.82-2.52,2.57-4.17,3.16-6.67-5.67,6.36-20.01,6.58-23.8-1.68-2.34-5.1,2.15-7.88,5.89-10.42.45-.03.75.49.25,1.25-2,3.05-7.8,5.99-2.85,10.67,3.62,3.42,10.77,3.69,15.13,1.61,2.18-1.04,4.08-4.03,5.93-4.71.85-.31,1.57.24,2.25-.2,1.6-1.02,3.59-5.69,5.78-6.87-4.81-.5-8.23-1.84-5.81-7.32S41.06,1.93,46.55.74c10.6-2.3,23.69.8,31.14,8.93,1.94-2.92,3.99-7.82,8.32-6.55.6.86-2.45,5.69-3.26,6.57s-3.79,2.1-3.08,3.51c.18.35,5.49,5.17,5.85,5.32.63.27,1.42-.32,1.47-.26.06.07.06,1.16.51,1.77,2.75,3.71,13.54,5.7,17.85,8.9,5.83,4.32.74,9.98-4.21,11.78.06.8.75,1.37.9,2.12.94,4.89,2.01,10.69,2.57,15.6.93,8.27.66,16.63,2.1,24.9.88.12.47-1.15.5-1.76.29-7.13-.69-14.32-1-21.44.75-.13.63.95.75,1.5.47,2.07,1.09,5.26,1.25,7.33,3.64,47.55,4.9,93.27-6.18,140.1-.12.52-1.77,2.88-.13,2.39.97-.29,2.53-2.11,3.79-1.26-3.33,2.59-6.64,3.42-7.07,8.32l-1.01-1.51-.5,1.01-.77-.5.27-1.51c-.13-.12-2.56.8-3.03,1.01.17-.07,1.81-2.17,2.55-2.74,3.31-2.53,2.94-.53,4.36-5.73,4.13-15.08,5.78-34.14,7.22-49.79,1.59-17.24,4.78-50.79-.96-66.24-2.36-6.34-2.34-22.24-3.08-29.61-.6-5.98-1.44-12-2.52-17.91-.38-.39-6.98,6.91-7.82,7.57-2.68,2.13-5.48,2.76-7.74,5.88-3.27,4.52-3.92,9.99-6.12,13.97-.33.59-1.23.07-1.55.65-.94,1.74-2.38,11.69-2.5,14.06-.75,14.51,5.89,28.07,21.19,30.52,5.36-18.82,3.23-38.47-1.02-57.27.13-1.33,1.42-1.81,1.92-.39.67,6.75,3.59,13.95,4.14,20.58.71,8.67.23,21.02-1.15,29.61-.4,2.51-1.07,5.05-1.87,7.46.56.4,3.02-.87,2.52,1.01-.68.12-2.55.25-2.92.62-.41.41-2.97,9.09-3.88,11-1.27,2.64-8.49,12.99-8.62,14.34-.12,1.23.63,6.99.91,8.47.42,2.24,1.64,5.4,4.44,4.72,2.97-.72,1.49-6.66.56-8.72-.99-2.19-4.04-4.12-4.14-5.95-.13-2.44,3.07.96,3.54,1.51,3.22,3.72,7.02,12.52.89,14.99-2.9,1.17-3.87-.55-5.92-2.14-.19,1.56-2.92,6.19-4.59,5.83-4.44-2.29-2.04-8.92-1.47-12.89-2.04,1.35-3.37,3.86-5.92,4.43-2.84.63-.9-1.26-2.65-2.41v8.83c0,.77-.94,3.82-1.28,4.78-.29.8-.53,2.37-1.74,2.03l1.29-17.18c-.57-.8-15.2-3.5-17.72-4.49-1.07-.42-2.3-.84-2.75-2.04l21.34,4.54c2.53-2.84,2.59-5.84,6.58-7.66,3.61-1.65,4.85.23,8.41-.15,4.5-6.95,8.77-13.74,10.6-21.96-11.14-.72-20.14-10.34-22.08-21.07-2.29-12.65,2.33-33.77,11.79-42.95,1.79-1.74,4.16-2.58,5.99-4.1s7.31-6.07,8.39-7.8c.5-.81-.12-1.44-.05-2.28-9.32,4.46-16.28,11.52-22.96,19.17-.76-.39.15-1.22.34-1.68,3.07-7.33,12.28-12.42,18.08-17.48-2.11-.54-3.02,1.27-4.42,1.88-7.26,3.18-12.4,2.76-17.27-3.9-.48,1.95-1.64,2.89-3.53,2.01-.07,1.47-1.37,4.34-3.04,3.28l-.5-2.77c-.21,2.42-3.31,9.76-4.8,4.54-.42,1.17-2.09.57-2.31.75-.55.42-.41,2.68-2.49,2.27l-.5-2.52c-.1,1.6-1.76,1.48-2.82,2.48-3.16,3.01-5.79,8.28-7.3,12.37-.55,1.5-3.5,11.27-3.37,12.05.73,4.48,14.6,9.83,18.99,9.87,1.39-4.59,8-19.26,12.42-20.64.37-.08.34.53.25.75-.62,1.35-3.54,4.65-4.62,6.48-1.02,1.72-7.09,13.12-6.48,13.95l4.04,1.02c-.75,1.87-2.95.66-4.3.74-.42.02-.98.88-1.48.77-.46-.1-.47-1.26-1.15-1.51-6.9-2.49-10.28-1.7-16.6-7.25-.67-.59-.84-2.12-2.19-1.84-.75,3.71-3.61,8.9-3.78,12.55-.08,1.67,1.17,2.89.65,5.25-.38,1.7-2,2.25-2.63,3.42-1.99,3.69,2.31,8.5-1.11,12.04l-2.2-.47-7.56,31.58c.04,1.15,4.65,3.58,5.79,3.75,1.85.27-.45-3.56,1.76-3.03.42,1.75.17,3.02,2.02,3.79.41,1-.88.58-1.01,1.08-.26.98.13,2.62-.06,3.9-.66,4.37-1.6,10.99-4.98,13.94.6-5.81,3.58-11.29,2.95-17.34l-.41-.59c-3.1.09-4.52-2.23-7.09-3.25-.34,3.16-5.5,18.8-4.44,20.58,3.69,2.45,6.94,4.07,11.5,2.62v1.5c-4.92,1.91-8.23.84-12.1-2.51-1.74,14.7-4.24,29.59-3.82,44.43.35,1.05,5.78,5.51,7.01,6.11,2.61,1.28,17.02,5.14,19.91,5.37,1.97.16,1.04-1.94,3.14-1.43-.25,2.29,0,1.96,1.91,2.37,6.17,1.33,17.14,1.42,23.44.52,3.87-.55,19.7-3.64,22.6-4.91ZM90.56,26.32c-4.28-5.31-9.56-8.98-14.64-13.36-4.38-3.79-6.68-7.81-12.61-9.59-11.04-3.31-22.34-.57-31.02,6.82-3.05,2.59-6.55,7.73-.4,8.96,3.36.67,3.75-1.69,5.95-3.41,6.21-4.86,15.18-11.77,23.12-6.49,1.6,1.07,2.43,2.97,3.4,3.67.87.62,2.56.75,3.69,1.36,8.95,4.83,7.37,12.1,13.67,18.12,2.99,2.86,7.49,4.69,11.37,6.03,1.01-2.68,1.39-4.88-2.3-5.01-1.47-.05-4.09,1.66-4.25-1.04,5.97-1.95,11.63-.13,8.58,7.06.37.51,5.08-.58,5.92-.89,2.77-1.02,6.9-4.73,3.65-7.42-1.39-1.14-13.56-6.92-14.11-6.33v1.52ZM61.62,13.88c-.65-.76-4.08-3.52-5-3.82-8.12-2.67-20.25,9.28-25.08,15.01-5.72,6.79-13.89,18.61-5.52,26.67,1.72,1.65,8.52,4.31,10.82,4.25,3.1-.07,11.81-3.66,14.14-5.95,7.4-7.27,8.44-16.22,9.98-25.84.51-3.21,2.8-7.86.67-10.32ZM91.57,39.94c-5.6-1.93-11.62-5.03-14.72-10.26-3.3-5.59-4-12.32-11.52-14.46-.67.5-3.03,12.25-3.05,13.86-.03,2,1.89-.76,3.04-.24l-.5,4.03c1.42-.86,1.21-4.5,3.53-3.27l-.5,3.78c1.19-.66,1.06-3.21,3.02-3.02l-.5,7.06,5.04-2.02c1.2,8.38,10.58,9.4,16.15,4.55ZM29.5,91.39c2.42-.19,2.48,3.32,5.24,3,2.42-2.93,1.88-6-.94-8.44-1.38-.11-4.83,4.93-4.3,5.44ZM30.72,95.22c-.54-.76-.95-2.04-1.72-2.31-.31,1.53-.58,2.44-.3,4.05.33,1.87,3.12,10.21,5.58,9.57,1.2-.86.24-3.19-.1-4.43-.8-2.9-1.84-4.58-3.46-6.87ZM24.09,112.43c3.45,2.86,6.74-3.48,5.82-6.55-.21-.69-1.16-1.23-1.52-2.02-1.11-2.43-2.49-5.24-2.42-7.92-.68.44-1.77,1.98-2.12,2.67-1.66,3.28-2.93,11.2.25,13.83ZM81.98,142.85c-2.7-1.08-5.51.54-7.06,2.77-1.71,2.46-.35,4.06-1.01,6.81,2.17.1,8.75-8.83,8.07-9.58ZM81.48,160.51c5.17-3.32,1.76-9.6,2.51-14.63-.73-.12-.66.85-.87,1.38-1.69,4.27-2.93,8.64-1.64,13.24ZM91.57,231.64c-1.63.31-2.88,1.3-4.53,1.77-2.83.8-11.68,1.5-13.17,3.49-.46.61-.57,1.04-.47,1.8,2.08-.09,4.91,1.06,6.83,1.03,3.02-.05,8.61-6.26,11.34-8.08ZM21.42,256.86c-.87-3.19-2.44-6.93-5.04-9.08,1.27,3.01,2.56,6.94,5.04,9.08Z"/>
      <path d="M63.31,91.4l-1.49,17.82-1.98,1.15c.25,6.42-2.31,14.15-8.96,16.29l-.93-.97c-7,5.32-14.29-1.45-14.9-8.82l1.51.25c.85-7.11,1.95-14.22,3.19-21.28.53-3.02,2.7-6.48.36-8.74.56-.61.62-.96,1.51-.51,3.58,1.82,3.3,4.13,8.89,4.74,3.99.43,8.74,0,12.8.06ZM61.8,92.91c-4.84.38-10.76,1.41-15.34-.57-1.13-.49-2.06-1.46-3.07-1.98-.49-.25-.38-.82-1.03.01l-3.86,26.93-1.42.85c1.12,1.96,1.69,4.31,3.55,5.75,4.11,3.18,5.15,1.12,8.94.37.9-.18,1.74.4,2.33.3.7-.13,3.35-3.47,3.77-4.25,2.14-3.97,2.78-9.92,2.1-14.3l1.56.29.96,2.23c.07-5.2-.31-10.73,1.52-15.63Z"/>
      <path d="M47.66,145.37l-.94,25.14c3.77,2.97,7.65,3.22,12.32,3.14,1.07-.02,4.38-1.31,3.26.74-6.54,2.53-16.07,1.31-18.66-6.08l1.51-1.47,1-21.46h1.51Z"/>
    </g>
  </g>
</svg>