<?xml version="1.0" encoding="UTF-8"?>
<svg id="Calque_2" xmlns="http://www.w3.org/2000/svg" version="1.1" viewBox="0 0 280.2 328.7">
  <!-- Generator: Adobe Illustrator 29.2.1, SVG Export Plug-In . SVG Version: 2.1.0 Build 116)  -->
  <defs>
    <style>
      .st0 {
        fill: #202020;
      }
    </style>
  </defs>
  <g id="Calque_1-2">
    <g>
      <path class="st0" d="M167.9,240.9h15c1,0,3.4-1.1,5-.5v1.1h-18.7c-3,0-5.4,4.5-8,6.2-1.3.9-7.2,2.8-7.5,3.6l.5,36.6c3.6,2.7,8.3,2.6,12.4,4,5,1.7,12.4,4.5,17.1,6.6,1.5.7,3.1,1.3,4.2,2.6-4.6,4.4-11.9-.5-17.3-2.1-7-2.1-15.3-2.9-21-7.4-.3-1.3,1-.9,1.7-.7,2.8.8,5.9,2.4,8.8,3.3,6.1,1.8,12.4,3,18.4,5l-12.6-5.5c-2.4-.7-4.8-1-7.2-1.7-2.6-.7-3.2-2.5-5.9-.7l-1.3-38.9c-1.9,1.1-3.3,2.8-5.2,3.8-8.7,4.4-17.6,8-27.2,10.2-6.6,1.5-13.3,2.7-20,3.4.8,6.1-.5,12.3-.3,18.4.3.5,7.6,3.4,8.8,3.8,3.9,1.3,16.3,3.1,18,6.7.7,1.7-.8,2.4-2.2,2.6-3.6.5-14.2-3.9-18.7-4.9-1.9-.4-10-1.2-10.7-1.9-1.1-1.7,1.6-1,1.9-1.3l.4-.6.3-20.2-12.8,28.6-2.1.3c-1.9-1.7,13.3-27,13.1-31.5-2.9.5-5.7-.3-8.6-.5-2.9-.2-5.5.8-8.2-.5-.4-1.9,1.3-.6,2.1-1.3-2.7-9.8-4.3-19.8-5.2-29.9l-1.6-.3v-1.6s12.9-1.1,12.9-1.1l23.8,2.6c3.2-7.1,6.9-14,10.2-21.1,16.7-35.7,27.3-71,41.6-107.2,7.3-18.5,19.1-40,22.6-59.4.3-1.3-.3-2.3,0-3.5l2.3-.6c0,6.3,1.2,12.4,1.8,18.7,1.2,12.7,3.3,25.1,4.7,37.8,2.2,20.6,2.8,41.3,5.9,61.9l13.2,75.1.8.8,7,.6v-2.8c-1.9-17-7.8-35.1-10.4-52.1-2.7-17.5-3-35.3-5.5-52.9-3.2-21.5-7-45.4-11.1-66.7-.9-5-4.2-12.4-4.5-16.5,0-1.1-.3-1.5,1-1.3,6.6,16.9,7.7,35.8,10.7,53.7,4,24.1,7.1,45.9,9.8,70.1,1.8,16.2,5.6,30.7,8.7,46.5,1.4,7,2.4,14.1,3.5,21.2.5,1.4,2.8,1.7,4,1.4,6.8-16.5,10-34.3,15-51.4,4.4-14.9,10.3-30,13.8-45.1,1.9-8.2,2.4-16.7,4-24.9,2.4-12.4,6-24.6,8.1-37.1,2.6-15.5,2.3-31.4,6.2-46.9.8-2.9,6.4-17.4,5.5-18.9-5.7-2.3-12-2.1-17.9-3.4-3.5-.8-7.1-2.6-10.3-3.4-10.3-2.5-20.9-1.3-31.4-1.7-16.6-.7-33.2-2.8-49.9-3.2-11.7-.3-24.3.8-35.8,0-2-.2-4-.9-6-1.1-1.5,8.6-.5,17.4-1.6,26-3.3,25.3-16.2,53.9-24.1,78.4-12.8,39.7-22.7,80.7-29.4,121.9-.1.9.2,1.8-.8,2.4-1.3.3-.8-1-.8-1.8,0-3.2,1.2-6.8,1.1-9.9-.1-4.3-2.7-9.4-2.6-13.9.8,0,1,1.6,1.2,2.2s1.7,8.9,2.5,7.8c1-2.9-.6-3.3-1.1-5-3.2-10-3.4-20.8-5.4-30.9-.3-1.3-.6-4.2-2-4.1l2.6-1.6.5,2.1c.7-5.2-.7-10.4-1-15.5-.3-4.4-.6-9.2-.6-13.6s1.5-9.1,1.1-13.9l-9,17.5c-2.3,3.2-4.9,5.5-8.1,7.7-.3,0-.3-.6-.2-.8.8-2,5.3-5.8,6.9-8.3,4.5-7.2,8.2-17.3,12.2-25.1,3.2-6.2,4.5-7.4,6.6-14.5.2-.7.1-1.6,1.1-1.8.2,3.1-.2,5.6-1.2,8.6s-6.6,11.2-6.7,12.8c-.1.9.5,2,.5,3.1,0,6.8-1,13.4-1.1,20-.1,5.6-.2,12.4.5,17.9,0,1.3,3.1,5.6,4.2,5.2,8.2-7.6,12.6-18.4,15.2-29,1.2-4.9.7-11.2,4.7-14.3l6.3-20.8c-.1-2.6-6.7-13.2-8.6-15.6-1.6-2-8.5-8.6-10.5-10-3.3-2.3-10.7-2.5-10.8,2.6,3.3-1.8,9.5,1,11.8,3.7,2.1,2.4,10,16.4,10.2,19.2,0,.7-.4,1.4-.4,2.1.4,5.5,1.1,11,.9,16.5l-1-4.5c-.6-8.6-2.9-18.2-7.1-26-2.6-4.9-4.9-9.2-10.8-10.3-2.4-.5-2.8-.7-3.5,1.8-.6,1.9-1.9,9.6-1.8,11.3,0,.8.9,1.4,1,2.6,1.1,8.7-10.8,34.7-16.9,41.5-2,2.2-5.6,5.3-8.4,6.1l8.8-9.8c4-5.5,12.8-24,13.7-30.4.3-2.9-.2-6.4,0-9.4.4-4.9,1.6-10.1,2.1-15.2.6-5.8,5.4-3.2,9.5-4.2l-1.8-2.2-1.6.9-1.6-2.6-.3,2.1-3.1-1.1.5,1c-1.4,0-2.8,1.5-4,1.6s-2-1-3.1-1c-2.2,0-5.4.9-8.3.5-6.9-.9-13.6-7.7-12.9-14.9.6-6.6,9.2-9.2,13.1-3.7l2.1,3.9c.4-1.4,1.1-3.1,1.9-4.2,3.8-5.1,8.8-10.1,11.8-16,.8-1.6,1.2-3.3,1.9-5,.2-2-5.3-4.5-5.5-4.8-.6-.8,0-3.7,2.2-1.9,1.4,1.2,3,2.9,4.6,3.8.5.4,1,0,1.4,0,0,0,0,.9.4.9,1.1.2,4.9-1.4,6.8-1.4,4.9-.1,19.7,1.6,24,3.1,5.6,2,15.4,6.4,7.8,12.5,1,.4,3.4-.6,4-1.2.6-.5,2.6-7.1,2.7-8.2.5-4.7-3.4-11-7-5.4-3.1-4,3.5-5.4,6.2-3.2,1.1.9,1,2.9,2.5,2.6l4.2-36.5v-.8s-6.8-1.9-6.8-1.9c-.8-.4,0-1.3.3-1.3.9-.1,4.6,1.1,5.9,1.4,1.1.2,2.1.6,2.6.6,11,2.1,22.3,1.3,33.5,1.6,25.4.6,51,1.8,76.3,3.7,6.4.4,14.3,0,20.4,2.2.4,0,.9.4.9.9l-1.6.5,22.6,4.7c-.4,5.1-2.8,9.7-4.1,14.4-4.4,16.7-4.7,30.5-7.1,47.1-2.1,14.6-6.6,29.3-9.2,43.8-1.1,5.9-1.3,12.1-2.5,18-3.4,17.2-9.6,32.5-14.6,49-5.2,17.3-8,35.5-15.1,52.2l.8.8,5,1.1-6.3.3c-1.2.8-.8,4.6-3.1,4.5l1-4.4-2.6-.8c1.9,16.4,8.4,31.9,12.4,47.8,1.6,6,3.3,12.2,2.4,18.4h-1.6c-.5-14.4-6.5-27.5-10-41.3-2.1-8.3-4-16.9-5.3-25.4l-7.9-.6,9.6,61.6c1.5,8.2,3.8,16.3,5.5,24.5.6,2.8.2.4-.4,1.4-.5.7-1.2.5-1.9.5l-4.8-22.7-10.1-65.3c-14.1-.5-28-3.4-42.1-3.1l-.5,3.1v.2ZM64.6,59.5h0c-2.2,3.1-7.9,11.8-8.1,15.3-.4,7.1,6.4,7.1,11,4.2,1.3-1.8,0-3.1,0-4.1s1.1-.4,1.5-1.2.4-2.3.6-3.3l2.6.5c-2.4-4.6,2.5-6.4,3.4-9.4,1.1-3.6,0-5.4,2.9-9.2,4.5-5.9,9.6-4.3,15.4-1.8,1.6.7,6.2,3.7,7.1,3.9s1.6-.9,2.8-.7c1.1.3,2.7,2.4,3.4,2.5.5.1,6-2.7,6.5-3.3.9-1.1.7-3.1-.4-4-.8-.7-8.8-4.2-10.1-4.5-3-.8-6.3-.4-9.2-.8-6-.8-11-3.1-17.1-.2-4.3,2-3.9,4.6-6.1,8.1-1.8,2.8-4.8,5.8-6.4,8.1h.2ZM105.6,91.6h0c.2-.3,2.3-5.8,2.5-6.7,1.3-4.8,1.7-10.3,3.8-15.1.2-1.6-2.5-6.7-3.6-8.1-2.3-2.7-14.4-10.9-17.8-11.3-2.9-.3-11,5-12,7.8-1.9,5.7.2,9,.8,14,.4,3-.2,6.4.7,9.3,1.7,5.3,7.8,10.3,13.3,10.9,3.6.4,6.4-.8,9.2-.8s1.9,1.5,3.1.2v-.2ZM112.2,237.5h0c2.1-.3,4,.5,6,.6,21.9,1.3,44.1-3.2,66.3-1.6,3.3.2,24.5,3.4,25.5,2.6l-13.1-75c-3.2-22.5-3.8-45.2-6.4-67.7-.9-7.4-2.9-14.7-3.7-22.1-.8-6.9-.8-13.9-1.1-20.8-.9.2-.9,1-1.2,1.7-2.8,6.7-4.6,15-7.3,22.1-5.1,13.6-11.4,26.6-16.6,40.2-12.9,34-22.8,66.1-38.4,99.3-3.3,7-7.2,13.6-10.1,20.7h0ZM110.5,58.2h0c1,1.6-1.1,2.3-.9,3.2,0,.3,2,3.7,2.4,4.5.3.6-.3,1,1.1.8.3-3.3,3.1-5.5,3.7-8.9l-6.3.5h0ZM57.3,81.5h0c-.1-.9-1.1-.7-1.8-1.6-3-3.9,0-9.6-.3-10l-4.2.5.4-1.6,1.7-.8c-.4-5.2-7.5-5.4-9.3-.9-3,7.7,6.3,15,13.6,14.3h0ZM101.8,95h0c-1.8-1.4-.6-.4-3-.4-3.5,0-6.3,0-9.7-1.1l3.1,2.9c3.1,4.2,5.8,8.5,7.6,13.4l5.5-16c-.9-.7-3,1.6-3.6,1.2h0ZM79.9,180.7l3.7-16.8-4.5,7.3-6,6.1c1.7,1.9,4.1,3.6,6.8,3.4h0ZM73.2,209.6h0l6.8-27.8c-4.4.7-8.1-1.1-11-4.2l4.2,32.1h0ZM76.4,236.5h0l4.7,31,14.7.3,13.1-29.2c-10.8-1.5-21.7-3.4-32.6-2.1h.1ZM111,238.5h0l-12.2,29.4c4.6.2,9.2-.9,13.7-1.8,16-3.2,24.9-7.3,38.5-15.6,3.7-2.2,8.6-3.3,11.9-6,.9-.6,2.2-1.6,2.2-2.8-.2-.2-6.2.4-4.2-1.1h5.3s-.2-2.7-.2-2.7c-.8-1.1-8.3.5-10,.6-10.5.7-22.1,1.5-32.6,1.1-1.8-.1-11.8-1.3-12.3-1h-.1ZM98.3,290h0l-.5,3.1,24.2,5.3c-.4-.9-2.4-1.4-3.3-1.7-4.1-1.3-8.4-1.6-12.6-3.1-2.6-.9-5-2.7-7.7-3.5h0Z"/>
      <path class="st0" d="M37.2,147.3h0c3.2,3.2,3,12.2,6.7,14.6,1,.6,1.7-.1,2.4.2,1.3.4,2.3,1.3,3.6,1.7,4.3,1.4,7,.5,10.1,4.6,8.2,11.1.6,28-11.6,32.1-8.8,3-15.2,2.6-23.5-1.2C15.5,195,0,185.3,0,173.7c0-1.4.6-2.7.6-4.2-.2-8.1-1.7-10.8,4.4-17.6,6.8-7.5,24.5-12.5,32.2-4.6h0ZM56.1,192.3h0c-1.2.4-3.3.7-4.3,1.2-1.4.6-2,2.1-3.1,2.7-4.1,2.3-10.9-.9-11.4-5.6,2.4-3.7,1.2-6.9,5.4-9.4.8-.5,2.1-.4,2.3-.6.8-.7-.7-3.1,3.5-3.1s4,3.2,5.8,5.8c.7,1.1,3.6,1.3,3.9,3.5v3.9c2.6-4.6,3.8-8.5,3.2-13.9-.9-7.4-5.5-8.7-11.6-11.1-1.2-.4-2.4-.1-3.9-.8-2.2-1.1-5.2-4.3-5.6-6.8-.6,0-1.3,2.5-1.3,2.9-.3,2.5,1.3,4.1-2.2,6-1.9,1-4.6-1.2-5.5-2.8-.5-.8-.6-5.7-.6-6.9.2-5,4.2-5,7.9-3.4-2.4-13.3-20.7-9.7-28.9-3.9-1.2.9-5.6,5.5-6.1,6.6-.6,1.3-1.4,12.2-1.4,14.4-.3,12.3,10.6,19.5,20.5,24.7,8.1,4.3,10.9,5.4,20.2,3.9,5.6-.9,9.5-2.5,12.9-7.3h.3ZM32.1,157.6l2.2-1.2,3.1-.6c-1.8-1.7-5.6-1.1-5.2,1.8h-.1ZM32.9,164.3h0c.1.1,2.2,1.6,2.3,1.6,1.6.1,2.9-1.8,2.7-3.2-.2-.9-1.2-1.6-1.3-2.2-.2-1.2,2.1-1.3,1.4-2.9-3.9-1.5-7,4.1-5.1,6.7h0ZM49.6,179.4h0c-3.7-1.1-3.2,1.7-4.6,3-.6.6-1.5.6-2.1,1.1-2.4,1.8-2.4,5-3.9,7.5.8,2.5,4.4,4.4,6.9,3.9,1.7-.4,2.4-2.1,3.6-2.8,2.1-1.2,6.7-.6,6.6-4.2-.1-2.2-2.8-2.2-3.5-3.1-.9-1.2-.3-4.7-2.9-5.5h-.1Z"/>
      <path class="st0" d="M197.1,7.9h0c5,.5,10.1.2,15,.5,4.2.3,9.1,1.5,13.1,1.6,4.4.2,8.7-.9,13.2-.5.6,0,2.9.2,2.9,1-7.9-.2-15.9.3-23.9,0-2.6-.1-5.8-.8-8.4-1-3.7-.3-7.1,0-11-.6-.8,0-.9.4-.8-1h0Z"/>
      <path class="st0" d="M21.2,168.2c5.6-1.2,17.9,9.6,6.8,10.8l-.5.6c2.5,5.4,1.6,8.3-5,7.5-1.3,0-4.9-.9-6.1-1.2-7.1-2.1-6.8-14.5,1.1-14.5-.7,1.4-2.4,2.2-3.2,3.4-2.1,3.2-.6,8.4,3.3,9.4,1.2.3,5.9,1.2,7.1,1.3,5.2.4,0-5.3,1.2-7.2l5.2-1.7c.2-2.5-2.2-4-3.7-5.5l-6.3-2.9h.1Z"/>
      <path class="st0" d="M16.4,148.3h0c2.3,0,7.3,3,7.3,5s-2.2,2.3-2.5,3.2c-.7,2,2.4,5.9-1.8,7.6-6.9,2.8-15.3-6.8-10.1-12.7,1.1-1.3,5.8-3.6,6.3-1.1-10.5,3.1-4.9,15.2,4.4,12l-.5-6.4c.1-.7,3.8-1.3,3.1-3.1l-6.2-4.6h0Z"/>
    </g>
  </g>
</svg>