<?xml version="1.0" encoding="UTF-8"?>
<svg id="Calque_2" xmlns="http://www.w3.org/2000/svg" version="1.1" viewBox="0 0 280.2 328.7">
  <!-- Generator: Adobe Illustrator 29.2.1, SVG Export Plug-In . SVG Version: 2.1.0 Build 116)  -->
  <g id="Calque_1-2">
    <g>
      <path d="M112.5,240.7l-.5-3.1c-14.1-.3-28,2.6-42.1,3.1l-10.1,65.3-4.8,22.7c-.7,0-1.4.2-1.9-.5-.6-1-1,1.4-.4-1.4,1.7-8.2,4-16.3,5.5-24.5l9.6-61.6-7.9.6c-1.3,8.5-3.2,17.1-5.3,25.4-3.5,13.8-9.5,26.9-10,41.3h-1.6c-.9-6.2.8-12.4,2.4-18.4,4-15.9,10.5-31.4,12.4-47.8l-2.6.8,1,4.4c-2.3.1-1.9-3.7-3.1-4.5l-6.3-.3,5-1.1.8-.8c-7.1-16.7-9.9-34.9-15.1-52.2-5-16.5-11.2-31.8-14.6-49-1.2-5.9-1.4-12.1-2.5-18-2.6-14.5-7.1-29.2-9.2-43.8-2.4-16.6-2.7-30.4-7.1-47.1C2.8,25.5.4,20.9,0,15.8l22.6-4.7-1.6-.5c0-.5.5-.8.9-.9,6.1-2.1,14-1.8,20.4-2.2,25.3-1.9,50.9-3.1,76.3-3.7,11.2-.3,22.5.5,33.5-1.6.5,0,1.5-.4,2.6-.6,1.3-.3,5-1.5,5.9-1.4.3,0,1.1.9.3,1.3l-6.8,1.9v.8c0,0,4.2,36.5,4.2,36.5,1.5.3,1.4-1.7,2.5-2.6,2.7-2.2,9.3-.8,6.2,3.2-3.6-5.6-7.5.7-7,5.4.1,1.1,2.1,7.7,2.7,8.2.6.6,3,1.6,4,1.2-7.6-6.1,2.2-10.5,7.8-12.5,4.3-1.5,19.1-3.2,24-3.1,1.9,0,5.7,1.6,6.8,1.4.4,0,.4-.9.4-.9.4-.1.9.4,1.4,0,1.6-.9,3.2-2.6,4.6-3.8,2.1-1.8,2.8,1.1,2.2,1.9-.2.3-5.7,2.8-5.5,4.8.7,1.7,1.1,3.4,1.9,5,3,5.9,8,10.9,11.8,16,.8,1.1,1.5,2.8,1.9,4.2l2.1-3.9c3.9-5.5,12.5-2.9,13.1,3.7.7,7.2-6,14-12.9,14.9-2.9.4-6.1-.6-8.3-.5-1.1,0-1.9,1.1-3.1,1s-2.6-1.5-4-1.6l.5-1-3.1,1.1-.3-2.1-1.6,2.6-1.6-.9-1.8,2.2c4.1,1,8.9-1.6,9.5,4.2.5,5.1,1.7,10.3,2.1,15.2.2,3-.3,6.5,0,9.4.9,6.4,9.7,24.9,13.7,30.4l8.8,9.8c-2.8-.8-6.4-3.9-8.4-6.1-6.1-6.8-18-32.8-16.9-41.5.1-1.2,1-1.8,1-2.6.1-1.7-1.2-9.4-1.8-11.3-.7-2.5-1.1-2.3-3.5-1.8-5.9,1.1-8.2,5.4-10.8,10.3-4.2,7.8-6.5,17.4-7.1,26l-1,4.5c-.2-5.5.5-11,.9-16.5,0-.7-.4-1.4-.4-2.1.2-2.8,8.1-16.8,10.2-19.2,2.3-2.7,8.5-5.5,11.8-3.7-.1-5.1-7.5-4.9-10.8-2.6-2,1.4-8.9,8-10.5,10-1.9,2.4-8.5,13-8.6,15.6l6.3,20.8c4,3.1,3.5,9.4,4.7,14.3,2.6,10.6,7,21.4,15.2,29,1.1.4,4.1-3.9,4.2-5.2.7-5.5.6-12.3.5-17.9-.1-6.6-1.1-13.2-1.1-20,0-1.1.6-2.2.5-3.1-.1-1.6-5.7-9.8-6.7-12.8s-1.4-5.5-1.2-8.6c1,.2.9,1.1,1.1,1.8,2.1,7.1,3.4,8.3,6.6,14.5,4,7.8,7.7,17.9,12.2,25.1,1.6,2.5,6.1,6.3,6.9,8.3.1.2.1.9-.2.8-3.2-2.2-5.8-4.5-8.1-7.7l-9-17.5c-.4,4.8,1.1,9.2,1.1,13.9,0,4.4-.3,9.2-.6,13.6-.3,5.1-1.7,10.3-1,15.5l.5-2.1,2.6,1.6c-1.4-.1-1.7,2.8-2,4.1-2,10.1-2.2,20.9-5.4,30.9-.5,1.7-2.1,2.1-1.1,5,.8,1.1,2.3-7.2,2.5-7.8.2-.6.4-2.2,1.2-2.2.1,4.5-2.5,9.6-2.6,13.9-.1,3.1,1.2,6.7,1.1,9.9,0,.8.5,2.1-.8,1.8-1-.6-.7-1.5-.8-2.4-6.7-41.2-16.6-82.2-29.4-121.9-7.9-24.5-20.8-53.1-24.1-78.4-1.1-8.6-.1-17.4-1.6-26-2,.2-4,.9-6,1.1-11.5.8-24.1-.3-35.8,0-16.7.4-33.3,2.5-49.9,3.2-10.5.4-21.1-.8-31.4,1.7-3.2.8-6.8,2.6-10.3,3.4-5.9,1.3-12.2,1.1-17.9,3.4-.9,1.5,4.7,16,5.5,18.9,3.9,15.5,3.6,31.4,6.2,46.9,2.1,12.5,5.7,24.7,8.1,37.1,1.6,8.2,2.1,16.7,4,24.9,3.5,15.1,9.4,30.2,13.8,45.1,5,17.1,8.2,34.9,15,51.4,1.2.3,3.5,0,4-1.4,1.1-7.1,2.1-14.2,3.5-21.2,3.1-15.8,6.9-30.3,8.7-46.5,2.7-24.2,5.8-46,9.8-70.1,3-17.9,4.1-36.8,10.7-53.7,1.3-.2,1.1.2,1,1.3-.3,4.1-3.6,11.5-4.5,16.5-4.1,21.3-7.9,45.2-11.1,66.7-2.5,17.6-2.8,35.4-5.5,52.9-2.6,17-8.5,35.1-10.4,52.1,0,.9,0,1.9,0,2.8l7-.6.8-.8,13.2-75.1c3.1-20.6,3.7-41.3,5.9-61.9,1.4-12.7,3.5-25.1,4.7-37.8.6-6.3,1.9-12.4,1.8-18.7l2.3.6c.3,1.2-.3,2.2,0,3.5,3.5,19.4,15.3,40.9,22.6,59.4,14.3,36.2,24.9,71.5,41.6,107.2,3.3,7.1,7,14,10.2,21.1l23.8-2.6,12.9,1.1v1.6l-1.6.3c-.9,10.1-2.5,20.1-5.2,29.9.8.7,2.5-.6,2.1,1.3-2.7,1.3-5.3.3-8.2.5s-5.7,1-8.6.5c-.2,4.5,15,29.8,13.1,31.5l-2.1-.3-12.8-28.6.3,20.2.4.6c.3.3,3-.4,1.9,1.3-.7.7-8.8,1.5-10.7,1.9-4.5,1-15.1,5.4-18.7,4.9-1.4-.2-2.9-.9-2.2-2.6,1.7-3.6,14.1-5.4,18-6.7,1.2-.4,8.5-3.3,8.8-3.8.2-6.1-1.1-12.3-.3-18.4-6.7-.7-13.4-1.9-20-3.4-9.6-2.2-18.5-5.8-27.2-10.2-1.9-1-3.3-2.7-5.2-3.8l-1.3,38.9c-2.7-1.8-3.3,0-5.9.7-2.4.7-4.8,1-7.2,1.7l-12.6,5.5c6-2,12.3-3.2,18.4-5,2.9-.9,6-2.5,8.8-3.3.7-.2,2-.6,1.7.7-5.7,4.5-14,5.3-21,7.4-5.4,1.6-12.7,6.5-17.3,2.1,1.1-1.3,2.7-1.9,4.2-2.6,4.7-2.1,12.1-4.9,17.1-6.6,4.1-1.4,8.8-1.3,12.4-4l.5-36.6c-.3-.8-6.2-2.7-7.5-3.6-2.6-1.7-5-6.2-8-6.2h-18.7v-1.1c1.6-.6,4,.5,5,.5h15,0ZM215.9,59.6c-1.6-2.3-4.6-5.3-6.4-8.1-2.2-3.5-1.8-6.1-6.1-8.1-6.1-2.9-11.1-.6-17.1.2-2.9.4-6.2,0-9.2.8-1.3.3-9.3,3.8-10.1,4.5-1.1.9-1.3,2.9-.4,4,.5.6,6,3.4,6.5,3.3.7-.1,2.3-2.2,3.4-2.5,1.2-.2,1.9.9,2.8.7s5.5-3.2,7.1-3.9c5.8-2.5,10.9-4.1,15.4,1.8,2.9,3.8,1.8,5.6,2.9,9.2.9,3,5.8,4.8,3.4,9.4l2.6-.5c.2,1,.2,2.5.6,3.3s1.5.8,1.5,1.2c0,1-1.3,2.3,0,4.1,4.6,2.9,11.4,2.9,11-4.2-.2-3.5-5.9-12.2-8.1-15.3h0ZM174.7,91.8c1.2,1.3,2.2-.2,3.1-.2,2.8,0,5.6,1.2,9.2.8,5.5-.6,11.6-5.6,13.3-10.9.9-2.9.3-6.3.7-9.3.6-5,2.7-8.3.8-14-1-2.8-9.1-8.1-12-7.8-3.4.4-15.5,8.6-17.8,11.3-1.1,1.4-3.8,6.5-3.6,8.1,2.1,4.8,2.5,10.3,3.8,15.1.2.9,2.3,6.4,2.5,6.7h0ZM168.2,237.5c-2.9-7.1-6.8-13.7-10.1-20.7-15.6-33.2-25.5-65.3-38.4-99.3-5.2-13.6-11.5-26.6-16.6-40.2-2.7-7.1-4.5-15.4-7.3-22.1-.3-.7-.3-1.5-1.2-1.7-.3,6.9-.3,13.9-1.1,20.8-.8,7.4-2.8,14.7-3.7,22.1-2.6,22.5-3.2,45.2-6.4,67.7l-13.1,75c1,.8,22.2-2.4,25.5-2.6,22.2-1.6,44.4,2.9,66.3,1.6,2-.1,3.9-.9,6-.6h0ZM169.8,58.3l-6.3-.5c.6,3.4,3.4,5.6,3.7,8.9,1.4.2.8-.2,1.1-.8.4-.8,2.3-4.2,2.4-4.5.2-.9-1.9-1.6-.9-3.2h0ZM222.9,81.4c7.3.7,16.6-6.6,13.6-14.3-1.8-4.5-8.9-4.3-9.3.9l1.7.8.4,1.6-4.2-.5c-.4.4,2.7,6.1-.3,10-.7.9-1.7.7-1.8,1.6h0ZM178.6,95c-.6.4-2.7-1.9-3.6-1.2l5.5,16c1.8-4.9,4.5-9.2,7.6-13.4l3.1-2.9c-3.4,1.1-6.2,1.1-9.7,1.1-2.4,0-1.2-1-3,.4h0ZM200.4,180.7c2.7.2,5.1-1.5,6.8-3.4l-6-6.1-4.5-7.3,3.7,16.8h0ZM207.1,209.7l4.2-32.1c-2.9,3.1-6.6,4.9-11,4.2l6.8,27.8h0ZM204,236.5c-10.9-1.3-21.8.6-32.6,2.1l13.1,29.2,14.7-.3,4.7-31h0ZM169.2,238.6c-.5-.3-10.5.9-12.3,1-10.5.4-22.1-.4-32.6-1.1-1.7-.1-9.2-1.7-10-.6l-.2,2.7h5.3c2,1.5-4,.9-4.2,1.1,0,1.2,1.3,2.2,2.2,2.8,3.3,2.7,8.2,3.8,11.9,6,13.6,8.3,22.5,12.4,38.5,15.6,4.5.9,9.1,2,13.7,1.8l-12.2-29.4h0ZM181.9,290.1c-2.7.8-5.1,2.6-7.7,3.5-4.2,1.5-8.5,1.8-12.6,3.1-.9.3-2.9.8-3.3,1.7l24.2-5.3-.5-3.1h0Z"/>
      <path d="M243.1,147.3c7.7-7.9,25.4-2.9,32.2,4.6,6.1,6.8,4.6,9.5,4.4,17.6,0,1.5.6,2.8.6,4.2,0,11.6-15.5,21.3-24.9,25.6-8.3,3.8-14.7,4.2-23.5,1.2-12.2-4.1-19.8-21-11.6-32.1,3.1-4.1,5.8-3.2,10.1-4.6,1.3-.4,2.3-1.3,3.6-1.7.7-.3,1.4.4,2.4-.2,3.7-2.4,3.5-11.4,6.7-14.6h0ZM224.5,192.3c3.4,4.8,7.3,6.4,12.9,7.3,9.3,1.5,12.1.4,20.2-3.9,9.9-5.2,20.8-12.4,20.5-24.7,0-2.2-.8-13.1-1.4-14.4-.5-1.1-4.9-5.7-6.1-6.6-8.2-5.8-26.5-9.4-28.9,3.9,3.7-1.6,7.7-1.6,7.9,3.4,0,1.2-.1,6.1-.6,6.9-.9,1.6-3.6,3.8-5.5,2.8-3.5-1.9-1.9-3.5-2.2-6,0-.4-.7-2.8-1.3-2.9-.4,2.5-3.4,5.7-5.6,6.8-1.5.7-2.7.4-3.9.8-6.1,2.4-10.7,3.7-11.6,11.1-.6,5.4.6,9.3,3.2,13.9v-3.9c.3-2.2,3.2-2.4,3.9-3.5,1.8-2.6.2-5.8,5.8-5.8,4.2,0,2.7,2.4,3.5,3.1.2.2,1.5.1,2.3.6,4.2,2.5,3,5.7,5.4,9.4-.5,4.7-7.3,7.9-11.4,5.6-1.1-.6-1.7-2.1-3.1-2.7-1-.5-3.1-.8-4.3-1.2h0ZM248.1,157.6c.4-2.9-3.4-3.5-5.2-1.8l3.1.6,2.2,1.2ZM247.4,164.3c1.9-2.6-1.2-8.2-5.1-6.7-.7,1.6,1.6,1.7,1.4,2.9-.1.6-1.1,1.3-1.3,2.2-.2,1.4,1.1,3.3,2.7,3.2.1,0,2.2-1.5,2.3-1.6h0ZM230.6,179.3c-2.6.8-2,4.3-2.9,5.5-.7.9-3.4.9-3.5,3.1-.1,3.6,4.5,3,6.6,4.2,1.2.7,1.9,2.4,3.6,2.8,2.5.5,6.1-1.4,6.9-3.9-1.5-2.5-1.5-5.7-3.9-7.5-.6-.5-1.5-.5-2.1-1.1-1.4-1.3-.9-4.1-4.6-3h0Z"/>
      <path d="M83.1,7.9c.1,1.4,0,.9-.8,1-3.9.7-7.3.3-11,.6-2.6.2-5.8.9-8.4,1-8,.3-16-.2-23.9,0,0-.8,2.3-1,2.9-1,4.5-.4,8.8.7,13.2.5,4-.1,8.9-1.3,13.1-1.6,4.9-.3,10,0,15-.5h0Z"/>
      <path d="M259.2,168.2l-6.3,2.9c-1.5,1.5-3.9,3-3.7,5.5l5.2,1.7c1.2,1.9-4,7.6,1.2,7.2,1.2-.1,5.9-1,7.1-1.3,3.9-1,5.4-6.2,3.3-9.4-.8-1.2-2.5-2-3.2-3.4,7.9,0,8.2,12.4,1.1,14.5-1.2.3-4.8,1.1-6.1,1.2-6.6.8-7.5-2.1-5-7.5l-.5-.6c-11.1-1.2,1.2-12,6.8-10.8Z"/>
      <path d="M263.9,148.2l-6.2,4.6c-.7,1.8,3,2.4,3.1,3.1l-.5,6.4c9.3,3.2,14.9-8.9,4.4-12,.5-2.5,5.2-.2,6.3,1.1,5.2,5.9-3.2,15.5-10.1,12.7-4.2-1.7-1.1-5.6-1.8-7.6-.3-.9-2.5-1.2-2.5-3.2s5-5,7.3-5h0Z"/>
    </g>
  </g>
</svg>