<?xml version="1.0" encoding="UTF-8"?>
<svg id="Calque_2" xmlns="http://www.w3.org/2000/svg" version="1.1" viewBox="0 0 110.8 270">
  <!-- Generator: Adobe Illustrator 29.2.1, SVG Export Plug-In . SVG Version: 2.1.0 Build 116)  -->
  <g id="Calque_1-2">
    <g>
      <path d="M93.6,217s0,.4-.3.5c-.9.4-3.4.6-3.2,1.7.3,1.9,7.5,9.9,6.8,11.4-2.1,2.3-5.4,3.4-7.8,5.3-1.5,1.2-4.4,5-5.9,5.2-3-.6-12.9,1.9-12.2-3,.8-5.9,11.9-5.6,16.4-6.9,2.1-.6,3.5-2.4,5.6-2.7l-5.1-9c-2.8.8-5.6,1.7-8.4,2.3-9.3,2-18.2,2.9-27.6,2.2-1.5-.1-6.4-1.4-7.4-.8-2.4,7.8-5.2,15.7-8.6,23.2s-6.9,14.8-10.4,21.9c-.2.4-.1,1.1-.1,1.6-.6,0-1,.1-1.5-.2-.4-.2-3.8-6.1-4.4-7.2-3.5-5.7-8.3-12.6-8.2-19.3,1.4,0,2.7-.2,4.1.2,4.5,1.4,9.2,15,10.3,19.5,6-13.2,12.9-26,16.9-40.1-9-3.5-20.3-3.1-27-10.9-.8.6-.2,2.4-1.8,2-.6-16.6,1.4-33.2,4.1-49.6,1.5-9,3.8-17.9,5.9-25.9s4.3-16.3,6.1-24.6c-1.8.3-2.7,1.5-4.8,1.2-7.6-1-5.2-13.4-3.1-18.2l3.3-4c-7.8-.2-14.7.3-13-9.7.6-3.8,7.2-12.4,10-15.3,1.5-1.6,9.1-8.4,10.6-9.1,1.1-.5,2.4-.2,3.5-.3l-9.6,7.8c-4.2,4.2-15.2,15.3-12.2,21.8,1.6,3.4,8.5,2.2,11.5,3.2,1.3,0,2.8-4.3,4-5.6,2.3-2.3,5-2.9,6.6.5l4.2-12-.4-4.7,1.5-.3c1.5-3.7,1.7-9.5,3-12.9.2-.6,1.2,0,1-.9-3.3.5-6.4,2.1-9.8,2-11-.3-18.5-9.3-15-20.1.8-2.5,2.6-4.2,3.2-6.7-5.7,6.4-20,6.6-23.8-1.7-2.3-5.1,2.2-7.9,5.9-10.4.4,0,.8.5.2,1.2-2,3-7.8,6-2.8,10.7,3.6,3.4,10.8,3.7,15.1,1.6,2.2-1,4.1-4,5.9-4.7.9-.3,1.6.2,2.2-.2,1.6-1,3.6-5.7,5.8-6.9-4.8-.5-8.2-1.8-5.8-7.3S41,1.9,46.5.7c10.6-2.3,23.7.8,31.1,8.9,1.9-2.9,4-7.8,8.3-6.6.6.9-2.4,5.7-3.3,6.6s-3.8,2.1-3.1,3.5c.2.4,5.5,5.2,5.8,5.3.6.3,1.4-.3,1.5-.3,0,0,0,1.2.5,1.8,2.8,3.7,13.5,5.7,17.8,8.9,5.8,4.3.7,10-4.2,11.8,0,.8.8,1.4.9,2.1.9,4.9,2,10.7,2.6,15.6.9,8.3.7,16.6,2.1,24.9.9.1.5-1.2.5-1.8.3-7.1-.7-14.3-1-21.4.8-.1.6,1,.8,1.5.5,2.1,1.1,5.3,1.2,7.3,3.6,47.5,4.9,93.3-6.2,140.1-.1.5-1.8,2.9-.1,2.4,1-.3,2.5-2.1,3.8-1.3-3.3,2.6-6.6,3.4-7.1,8.3l-1-1.5-.5,1-.8-.5.3-1.5c-.1-.1-2.6.8-3,1,.2,0,1.8-2.2,2.6-2.7,3.3-2.5,2.9-.5,4.4-5.7,4.1-15.1,5.8-34.1,7.2-49.8,1.6-17.2,4.8-50.8-1-66.2-2.4-6.3-2.3-22.2-3.1-29.6-.6-6-1.4-12-2.5-17.9-.4-.4-7,6.9-7.8,7.6-2.7,2.1-5.5,2.8-7.7,5.9-3.3,4.5-3.9,10-6.1,14-.3.6-1.2,0-1.6.7-.9,1.7-2.4,11.7-2.5,14.1-.8,14.5,5.9,28.1,21.2,30.5,5.4-18.8,3.2-38.5-1-57.3.1-1.3,1.4-1.8,1.9-.4.7,6.7,3.6,14,4.1,20.6.7,8.7.2,21-1.2,29.6-.4,2.5-1.1,5.1-1.9,7.5.6.4,3-.9,2.5,1-.7.1-2.6.2-2.9.6-.4.4-3,9.1-3.9,11-1.3,2.6-8.5,13-8.6,14.3-.1,1.2.6,7,.9,8.5.4,2.2,1.6,5.4,4.4,4.7,3-.7,1.5-6.7.6-8.7-1-2.2-4-4.1-4.1-5.9-.1-2.4,3.1,1,3.5,1.5,3.2,3.7,7,12.5.9,15-2.9,1.2-3.9-.6-5.9-2.1-.2,1.6-2.9,6.2-4.6,5.8-4.4-2.3-2-8.9-1.5-12.9-2,1.4-3.4,3.9-5.9,4.4-2.8.6-.9-1.3-2.7-2.4v8.8c0,.8-.9,3.8-1.3,4.8-.3.8-.5,2.4-1.7,2l1.3-17.2c-.6-.8-15.2-3.5-17.7-4.5-1.1-.4-2.3-.8-2.8-2l21.3,4.5c2.5-2.8,2.6-5.8,6.6-7.7,3.6-1.6,4.8.2,8.4-.1,4.5-6.9,8.8-13.7,10.6-22-11.1-.7-20.1-10.3-22.1-21.1-2.3-12.7,2.3-33.8,11.8-43,1.8-1.7,4.2-2.6,6-4.1s7.3-6.1,8.4-7.8c.5-.8-.1-1.4,0-2.3-9.3,4.5-16.3,11.5-23,19.2-.8-.4.2-1.2.3-1.7,3.1-7.3,12.3-12.4,18.1-17.5-2.1-.5-3,1.3-4.4,1.9-7.3,3.2-12.4,2.8-17.3-3.9-.5,2-1.6,2.9-3.5,2,0,1.5-1.4,4.3-3,3.3l-.5-2.8c-.2,2.4-3.3,9.8-4.8,4.5-.4,1.2-2.1.6-2.3.8-.5.4-.4,2.7-2.5,2.3l-.5-2.5c0,1.6-1.8,1.5-2.8,2.5-3.2,3-5.8,8.3-7.3,12.4-.5,1.5-3.5,11.3-3.4,12.1.7,4.5,14.6,9.8,19,9.9,1.4-4.6,8-19.3,12.4-20.6.4,0,.3.5.2.8-.6,1.3-3.5,4.7-4.6,6.5-1,1.7-7.1,13.1-6.5,13.9l4,1c-.8,1.9-2.9.7-4.3.7-.4,0-1,.9-1.5.8-.5,0-.5-1.3-1.2-1.5-6.9-2.5-10.3-1.7-16.6-7.2-.7-.6-.8-2.1-2.2-1.8-.8,3.7-3.6,8.9-3.8,12.6,0,1.7,1.2,2.9.7,5.2-.4,1.7-2,2.2-2.6,3.4-2,3.7,2.3,8.5-1.1,12l-2.2-.5-7.6,31.6c0,1.1,4.6,3.6,5.8,3.8,1.8.3-.5-3.6,1.8-3,.4,1.8.2,3,2,3.8.4,1-.9.6-1,1.1-.3,1,.1,2.6,0,3.9-.7,4.4-1.6,11-5,13.9.6-5.8,3.6-11.3,3-17.3l-.4-.6c-3.1,0-4.5-2.2-7.1-3.2-.3,3.2-5.5,18.8-4.4,20.6,3.7,2.4,6.9,4.1,11.5,2.6v1.5c-4.9,1.9-8.2.8-12.1-2.5-1.7,14.7-4.2,29.6-3.8,44.4.4,1.1,5.8,5.5,7,6.1,2.6,1.3,17,5.1,19.9,5.4,2,.2,1-1.9,3.1-1.4-.2,2.3,0,2,1.9,2.4,6.2,1.3,17.1,1.4,23.4.5,3.9-.6,19.7-3.6,22.6-4.9h0ZM90.5,26.3c-4.3-5.3-9.6-9-14.6-13.4-4.4-3.8-6.7-7.8-12.6-9.6-11-3.3-22.3-.6-31,6.8-3,2.6-6.5,7.7-.4,9,3.4.7,3.8-1.7,5.9-3.4,6.2-4.9,15.2-11.8,23.1-6.5,1.6,1.1,2.4,3,3.4,3.7.9.6,2.6.8,3.7,1.4,8.9,4.8,7.4,12.1,13.7,18.1,3,2.9,7.5,4.7,11.4,6,1-2.7,1.4-4.9-2.3-5-1.5,0-4.1,1.7-4.2-1,6-2,11.6-.1,8.6,7.1.4.5,5.1-.6,5.9-.9,2.8-1,6.9-4.7,3.7-7.4-1.4-1.1-13.6-6.9-14.1-6.3v1.5h0ZM61.6,13.9c-.7-.8-4.1-3.5-5-3.8-8.1-2.7-20.2,9.3-25.1,15-5.7,6.8-13.9,18.6-5.5,26.7,1.7,1.7,8.5,4.3,10.8,4.2,3.1,0,11.8-3.7,14.1-6,7.4-7.3,8.4-16.2,10-25.8.5-3.2,2.8-7.9.7-10.3h0ZM91.6,39.9c-5.6-1.9-11.6-5-14.7-10.3-3.3-5.6-4-12.3-11.5-14.5-.7.5-3,12.2-3,13.9,0,2,1.9-.8,3-.2l-.5,4c1.4-.9,1.2-4.5,3.5-3.3l-.5,3.8c1.2-.7,1.1-3.2,3-3l-.5,7.1,5-2c1.2,8.4,10.6,9.4,16.2,4.5h0ZM29.5,91.4c2.4-.2,2.5,3.3,5.2,3,2.4-2.9,1.9-6-.9-8.4-1.4-.1-4.8,4.9-4.3,5.4ZM30.7,95.2c-.5-.8-1-2-1.7-2.3-.3,1.5-.6,2.4-.3,4.1.3,1.9,3.1,10.2,5.6,9.6,1.2-.9.2-3.2,0-4.4-.8-2.9-1.8-4.6-3.5-6.9h0ZM24.1,112.4c3.5,2.9,6.7-3.5,5.8-6.6-.2-.7-1.2-1.2-1.5-2-1.1-2.4-2.5-5.2-2.4-7.9-.7.4-1.8,2-2.1,2.7-1.7,3.3-2.9,11.2.2,13.8h0ZM82,142.8c-2.7-1.1-5.5.5-7.1,2.8-1.7,2.5-.3,4.1-1,6.8,2.2.1,8.8-8.8,8.1-9.6ZM81.5,160.5c5.2-3.3,1.8-9.6,2.5-14.6-.7-.1-.7.9-.9,1.4-1.7,4.3-2.9,8.6-1.6,13.2h0ZM91.6,231.6c-1.6.3-2.9,1.3-4.5,1.8-2.8.8-11.7,1.5-13.2,3.5-.5.6-.6,1-.5,1.8,2.1,0,4.9,1.1,6.8,1,3,0,8.6-6.3,11.3-8.1h0ZM21.4,256.9c-.9-3.2-2.4-6.9-5-9.1,1.3,3,2.6,6.9,5,9.1Z"/>
      <path d="M63.3,91.4l-1.5,17.8-2,1.2c.2,6.4-2.3,14.2-9,16.3l-.9-1c-7,5.3-14.3-1.4-14.9-8.8l1.5.2c.8-7.1,2-14.2,3.2-21.3.5-3,2.7-6.5.4-8.7.6-.6.6-1,1.5-.5,3.6,1.8,3.3,4.1,8.9,4.7,4,.4,8.7,0,12.8,0h0ZM61.8,92.9c-4.8.4-10.8,1.4-15.3-.6-1.1-.5-2.1-1.5-3.1-2-.5-.2-.4-.8-1,0l-3.9,26.9-1.4.8c1.1,2,1.7,4.3,3.5,5.8,4.1,3.2,5.2,1.1,8.9.4.9-.2,1.7.4,2.3.3.7-.1,3.3-3.5,3.8-4.2,2.1-4,2.8-9.9,2.1-14.3l1.6.3,1,2.2c0-5.2-.3-10.7,1.5-15.6h0Z"/>
      <path d="M47.6,145.4l-.9,25.1c3.8,3,7.7,3.2,12.3,3.1,1.1,0,4.4-1.3,3.3.7-6.5,2.5-16.1,1.3-18.7-6.1l1.5-1.5,1-21.5h1.5Z"/>
    </g>
  </g>
</svg>