<?xml version="1.0" encoding="UTF-8"?>
<svg width="auto" height="270"  id="Calque_2" data-name="Calque 2" xmlns="http://www.w3.org/2000/svg" viewBox="0 0 116.75 270">
  <g id="Calque_1-2" data-name="Calque 1">
    <g>
      <path d="M64.22,154.6c1.88,8.99-.94,15.34.73,23.94,1.79,9.18,11.99,3.54,17.7,2.21-.16-1.54-3.05-.28-3-2.06.07-2.42,2.44-4.55,3.19-6.96.26-.84,1.19-6.17.99-6.43l-3.56.89c1.06-.83,6.22-4.09,7.13-3.27-.36,1.97-2.04,3.83-.89,5.94,4.74-2.02,4.13-6.33,6.52-9.53,1.47-1.97,5.72-3.7,6-4.11.42-.64,1.88-13.24,2.05-15.19,1.47-16.47,1.88-34.01,1.13-50.46l-2.02-8.09c1,.86,1.71,1.93,2.2,3.15,4.87,12.01,1.68,59.2-1.69,72.86-.22.89-.28,1.86-1.11,2.46l-.59-2.37-4.46,3.56c2.77.06,3.64,5.36,3.4,7.37-.16,1.33-1.78,1.93-1.61,3.33l4.32-4.3,6.98-1.05c-.19-3.43-1.31-7.96-4.73-9.25,1.47-4.07,2.82-8.17,4.19-12.28,2.63-7.92,1.27-9.31,1.37-16.91.09-6.76,1.39-12.43.96-19.51-.65-10.73-4.6-20.95-3.56-31.81,1.68-.3.98.4,1.34,1.3,2.21,5.55,2.85,11.58,4.03,17.38l-1.23.67c.72,1.45.21,3.85,1.8,4.42-.1-2.27.15-4.59.03-6.86-.62-11.89-3.71-24.04-5.26-35.78-.15-1.16.52-6.33-.13-7.3-18.94,4.66-26.42,24.7-32.71,41.02-2.92.47.22-4.57,0-4.75-5.74,2.56-25.12,8.56-26.18-1.48-.13-1.24-.43-2.47,1.2-2.09-.5,5.36,5.79,5.67,9.84,5.37,1.95-.14,14.56-2.78,15.44-3.59,5.84-14.01,14.15-34.5,31.82-35.07l-1.19-4.15,5.69-2.35c1.89-6.92-3.42-7.11-8.65-8.36l-2.39,6.53,8.32,2.38c-3.33,1.22-7.3-1.09-10.36-.58-1.47.25-3.44,2.31-5.36,3-1.66.59-6.2,1.54-7.87,1.53-3.61-.02-5.6-2.49-8.85-3.2-1.04.2-1.03,3.11-2.03,3.74-2.51,1.59-1.13-1.04-2.39-1.5-.2,4.66-4.12,2.75-4.78,3.21-.31.22-1.36,2.92-2.11,3.87-2.93,3.69-6.96,6.42-10.96,8.82-3.38,10.2-5.67,20.77-8.63,31.06-2.14,7.47-5.6,14.96-7.16,22.57-2.37,11.54-2.14,23.62-6.85,34.83-.19,2.59,5.5,3.55,7.54,3.78,3.4.38,7.32.42,10.34-1.12l.64,2.01c-.04.47-1.25.46-1.7,1.36-1.29,2.61-3.01,16.87-3.7,17.44h-1.77c-.57-6.29,1.72-12.03,3.57-17.83h-11c-.54,0-4.45-3-5.05-2.38-2.7,13.33-5.24,26.57-6.54,40.14-.26,2.68.2,5.6-.01,8.31-.26,3.35-3.03,19.31-1.07,21,3.03.26,6.26,1.54,9.2,1.86,5.21.57,11.66,2.08,17.73,2.43,13.2.77,27.04-.37,40.19-.33.99-2.98,2.27-.56,4.41-.26,2.69.39,5.98-.21,8.65-.62.29,1.79-.43.96-1.44,1.2-3.06.74-6.27.88-9.33,1.52-2.01,8.86-1.73,17.9-1.79,26.94l-10.04,4.83h5.94c-.28.83-2.21,1.76-2.97,2.07-3.75,1.54-13.58,4.14-17.69,4.91-.67.12-3.04.48-3.13-.16-.35-2.58,5.67-3.26,7.72-4.17,5.94-2.62,11.53-6.11,17.77-8.1.05-8.73-.71-17.58,1.86-26.07-18.27-.27-36.62,2.12-54.71-1.2l1.14,30.66,1.24,1.44c-4.16,1.48-8.23,3.23-12.49,4.47s-17.86,4.93-21.74,4.49c-.9-.1-1.48-.06-2.04-.92,8.55-7.35,20.52-10.43,31.51-12.19l.54-28.47-10.34-3.04-.3,1.36c-1.51,1.52-2.71-.76-2.94-2.27-1.38-8.93,2.17-19.84,2.93-28.51.66-7.55.19-14.6,1.3-22.48,1.86-13.19,6.8-24.61,9.24-37.13,1.4-7.15,1.47-14.57,3.32-21.65s5.53-15.13,7.71-22.61c2.66-9.13,3.94-18.68,7.57-27.51-5.25.35-8.63,1.82-14.08-.18-1.8-.66-3.42-2.26-4.92-2.81-2.34-.85-4.35.24-6.25-2.67-2.81-4.3-.54-5.9.46-9.61s1.52-7.02,3.39-10.58c-3.04.49-8.39-2.94-9.76-5.4-1.94-3.47-1.38-13.05,1.72-16.01,2.02-1.93,5.24-2.3,5.07,1.2-5.71-1.79-5.92,8.47-5.31,12.16.51,3.09,7.24,6.98,10.1,6.04,1.43-.48,4.54-5.35,6.21-6.91s3.99-2.72,5.66-4.45c-3.2-.51-8.62,6.69-10.32,1.38-2.03-6.34,5.91-12.61,10.93-15.04,5.74-2.79,15.99-5.5,22.28-5.1,5.23.33,9.28,8.78,13.98,10.74-.63-2.51,1.73-18.01,5.05-17.24,2.78.65.53,9.27.02,11.3s-2.39,5.51-2.6,6.98,6.8,8.06,8.07,8.4c2.07.54,5.51-3.89,10.49-.43,3.34,2.32,1.39,4.85,2.44,6.48,1.14,1.76,10.06,1.35,10.25,6.09.18,4.39-1.71,8.02-6.37,8.46,1.78,9.92,5.82,19.82,7.07,29.79.66,5.29.03,8.72.05,13.57.02,7.86.28,15.74,1.22,23.51l1.19-.89c.78,11.59-1.09,22.98-1.78,34.49-.39,6.5-.11,13.09-.61,19.61-1.31,17.15-4.75,34.03-6.55,51.12l1.79.89c-1.3.02-1.46-.58-1.79.89-.6,2.66-.59,5.9-.59,8.63-1.56.13-.99.08-1.17-.89-.45-2.41-.68-4.97-.62-7.43-4.07,1.46-8.29,2.8-12.48,3.87-2.21.56-12.1,3.27-13.39,3.27h-12.79l14.88-2.07,23.51-6.22,6.81-57.69-2.38.6c.82,2.62.89,5.1,0,7.72-1.86-1.17-5.27-1.1-7.31-.48-1.39.43-3.11,4.48-4.96,5.14l-3.17-1.69c-.2,1.49-1.61,2.61-2.7,3.55-5.63,4.86-19.53,13.79-26.5,7.49-5.01-4.52-.74-22.87-1.73-29.48.38.04.86-.08,1.19,0-.21-.99-.47-1.97-.59-2.97,4.14,3.43,10.46,3.56,15.6,2.82,1.64-.24,10.32-4.36,10.55-1.93.07.79-3.71,2.95-2.45,5.56-3.49,1.84-2.18-.47-1.7-2.88-6.4,1.3-12.57,2.83-19.03.88-.91-.28-1.75-1.33-2.38-1.48ZM86.82,33.91c-.54-2.67.58-3.61,1.79-5.64-3.72-3.2-7.7-6.21-11.31-9.52-2.29-2.09-8.88-9.78-11.12-10.29-7.38-1.66-23.46,4.32-28.66,9.74-2.08,2.17-4.66,5.13-2.15,7.95,2.16-1.08,4.19-2.9,6.52-3.58,4-1.18,6.37-.25,8.65-5.03l-2.37-.88c5.43-3.42,11.46-2.56,17.38-1.03,3.43.88,11.11,4.22,13.84,6.38,3.84,3.02,4.03,8.62,7.43,11.89ZM46.6,24.04c-5.95,4.99-13.54,14.4-16.98,21.37-2.44,4.96-2,7.92,1.58,12.29,7.89,9.63,22.97,5.02,29.44-3.87,1.55-2.13,3.55-7.86,4.33-10.53,1-3.4,4-16.81,3.15-19.51-.1-.33-3.54-5.26-3.9-5.64-4.4-4.74-13.9,2.76-17.63,5.89ZM80.99,30.8c-.12-.17.33-2.51-.45-3.97-.27-.5-3.03-3.34-3.51-3.63-.38-.23-4.52-2.1-4.78-2.14-3.08-.49-2.64,9.91-2.67,11.96-.02.98-.72,2.09-.62,2.89.03.22,1.86.75,1.22,2.17l.59-1.79,2.09.59.29,4.76c1.25.13.57-2.97,2.07-2.37,1.36.54,1.34,2.68,1.59,2.88.44.35,1.68-.16,2.19.17.37.23.29,1.63.82,2.16,2.83,2.86,11.07.26,14.14-1.66.31-1.38-.18-.95-.76-1.32-1.12-.72-2.7-1.15-3.94-1.99-3.98-2.68-5.67-5.05-8.26-8.71ZM100.49,32.13c.72-4.69-3.93-6.36-7.13-3.27l7.13,3.27ZM99.28,33.95c-2.12.44-10.75-6.69-10.1-1.55.09.74.66,1.34,1.2,1.81l-2.96,1.18,8.53,4.96c1.46-.27,4.2-5.41,3.33-6.41ZM114.15,121.86c-.61-3.64-.41-7.29-.56-10.97-.03-.72.45-2.21-.59-2.07.03,1.73-2.44,13.6-.3,13.66l1.45-.62ZM114.18,123.09l-2.4,1c.03,8.91-1.01,18.99-3.12,27.67-.14.6-.17,1.79-1.01,1.65l-.59-3.56-1.79,7.13,6.4-2.51.47-1,2.05-30.37ZM93.54,169.04c.52-.87,3.26-1.37,1.31-3.74-.87,1.39-6.22,4.62-6.71,5.46-.29.51-.08,1.12-.14,1.67l2.38.3-2.38,2.67c1.81.07,4.04-2.78,5.03-4.2.37-.52.14-1.56.5-2.16ZM32.08,258.65l-14.72,3.98-8.45,3.73,23.79-5.35-.62-2.36Z"/>
      <path d="M105.85,53.54c-3.6,2.84-5.95,6.73-7.84,10.88-4.21,9.24-10.16,25.22-10.05,35.19.12,11.08,4.91,17.49,8.86,26.85.23.54,1.29,1.51.4,1.98-9.48-10.06-13.14-23.98-10.84-37.59,1.51-8.96,5.86-16.94,8.75-25.43-7.73,9.32-14.24,20.4-15.46,32.7-1.56,1.89-1.23-4.41-1.18-5.05.85-9.21,13.44-28.46,19.91-35.39,2.09-2.24,4.18-3.93,7.44-4.15Z"/>
      <path d="M49.94,98.72c-1.51,8.03-3.37,15.19-2.99,23.5.09,2.08,1.93,2.86.02,5.03,4.81,2.37,9.81,2.88,15.16,2.38,3.2-.3,6.1-1.74,9.08-2.22.63-.1,2.07-.63,1.92.44-4.79,2.38-7.79,3.97-13.35,4.19-4,.16-10.85-.28-13.43-3.87-4.2-5.86-.92-22.07,2.13-28.25.42-.85-.13-1.49,1.45-1.19Z"/>
      <path d="M71.94,125.47h-1.77c-1.22-1.16,1.89-18.66,2.67-21.4.37-1.31.74-3.51,2.08-4.16l-2.98,25.56Z"/>
      <path d="M70.17,101.09c-.27,1.2-1.56,1.12-2.48,1.39-7.35,2.17-12.77.46-17.74-5.25,1.83-.93,7.28,3.87,8.62,3.87h11.6Z"/>
      <path d="M41.02,175.41c-1.44,9.05-9.68,8.36-14.86,2.67,2.52-.66,4.57,2.21,7.29,1.96,3.56-.33,4.57-3.62,7.57-4.63Z"/>
    </g>
  </g>
</svg>