<?xml version="1.0" encoding="UTF-8"?>
<svg id="Calque_2" xmlns="http://www.w3.org/2000/svg" version="1.1" viewBox="0 0 382.1 193.6">
  <!-- Generator: Adobe Illustrator 29.2.1, SVG Export Plug-In . SVG Version: 2.1.0 Build 116)  -->
  <g id="Calque_1-2">
    <g>
      <path d="M274.7,22c-3.7-1.1-8.8-2.8-10.3-6.7-2-5,3.2-9.6,7.2-11.4,9.9-4.6,20.8.3,28.8,6.5,8.6,6.7,15.5,15.4,24.3,21.9,8.9,6.6,19.6,10,29.9,13.6,5.1,1.8,10.2,3.5,14.9,6.1,4.3,2.3,8.4,5.7,9.9,10.5,2.9,9.1-3.3,18.6-12,21.4-9.9,3.2-20.3-.8-27.4-7.8-3.7-3.7-6.6-8-9-12.6s-5-9.6-9.1-13.4-9.1-7-13.9-10-10-6-15.1-8.6c-4.6-2.3-9.4-4.3-14-6.5-4-2-8-4.2-11.1-7.6-1.5-1.6-2.6-3.5-3.4-5.6-.4-1.3-2.5-.7-2,.6,3.3,9.4,13.2,13.6,21.6,17.3,11.4,5.1,22.3,11.3,32.3,18.7,2.4,1.8,4.7,3.7,6.6,6s3.4,5.1,4.9,7.8c2.6,4.9,5.2,9.6,8.9,13.7,7,7.8,17.2,12.8,27.9,11,4.9-.8,9.6-3.2,12.9-7.1,2.9-3.6,4.7-8.2,4.7-12.8,0-11.3-10.7-16.8-19.9-20.4-11.1-4.3-22.9-7.2-33-13.6s-17.4-15.8-26.5-23.2c-8.3-6.7-19-12.1-29.8-8.6-4.6,1.5-9.5,4.9-10.9,9.8s1.8,8.5,5.8,10.7c2,1.1,4.1,1.8,6.2,2.5,1.3.4,1.9-1.6.6-2h0Z"/>
      <path d="M311.2,41c-15.9-6.5-34.1-13.4-51.4-7.9-8.1,2.6-15.1,7.8-21.6,13-6,4.9-10.8,10.7-12.7,18.2-1.6,6.5-1.2,13.6,1.5,19.8,2.9,6.6,8.3,11.7,14.9,14.4,15.1,6.3,31.7.3,43.5-9.9,11.8-10.1,20-24.5,23-39.8.4-1.9.6-3.7.8-5.6.1-1.3-2-1.3-2.1,0-1.6,14.8-8.3,28.9-18.6,39.6s-25.1,18.7-40.3,15.4c-6.8-1.5-13.3-5.2-17.2-11.1-3.6-5.5-4.9-12.2-4.2-18.6.8-7.1,4.2-13.1,9.4-18,2.9-2.8,6.2-5.3,9.5-7.6s6.7-4.5,10.3-6.2c15.7-7.2,33.3-2,48.6,3.9,2,.8,4,1.6,6,2.4,1.2.5,1.8-1.5.6-2h0Z"/>
      <path d="M287.1,84.7c.9,11.1-3.9,21.3-8.6,30.9-4.6,9.5-9.7,19.4-10.1,30.3-.3,7.8,2.2,15.3,4.7,22.6.4,1.3,2.5.7,2-.6-2.3-6.6-4.6-13.4-4.7-20.6,0-5.3,1.2-10.5,3-15.4,3.7-10.2,9.7-19.5,13.2-29.8,1.9-5.6,3-11.4,2.5-17.3-.1-1.3-2.2-1.3-2.1,0h0Z"/>
      <path d="M340.8,79.2c1,7.1.8,14.4-.7,21.3-.7,3.2-1.5,6.5-3,9.4-1.2,2.3-3.3,4.8-6.2,4.1-2.6-.6-4.4-3.2-6-5.1-1.8-2.3-3.7-4.3-6.1-6.1-4.8-3.5-10.7-5.4-16.6-5.1-6.8.3-13.3,3.2-18,8.1l1.8.7c-.1-2.8.1-5.5.9-8.2.7-2.5,1.7-5.3,3.4-7.3s4.3-1.7,6.1,0c1.9,1.9,2.3,4.9,2.6,7.4.1,1.1,1.8,1.6,2.1.3.3-1.8.9-3.4,1.9-4.9s2.7-3.4,4.5-3.6,3.3,1.4,3.9,2.9c.7,1.9.5,4,.4,6,0,1,1.5,1.5,2,.5.9-1.9,2-3.6,3.5-5,1.1-1,3.3-2.6,4.8-1.5s.7,3.8.4,5.2c-.5,2.4-1,4.8-1.4,7.2-.3,1.3,1.8,1.9,2,.6.6-3.1,1.4-6.1,1.8-9.2.3-2.1.1-4.6-2-5.8-2-1.1-4.5,0-6.1,1.2-2.1,1.6-3.7,3.8-4.8,6.2l2,.5c.2-2.5.3-5.2-.8-7.5-1-1.9-2.9-3.5-5.1-3.6-2.4,0-4.5,1.8-5.9,3.5-1.5,1.9-2.6,4.1-3,6.5l2.1.3c-.4-3.1-.9-6.6-3.2-8.9-2-1.9-5-2.9-7.5-1.4-2.6,1.6-4,4.9-4.9,7.7-1.2,3.4-1.7,7-1.5,10.6,0,.9,1.1,1.4,1.8.7,4.5-4.6,10.8-7.4,17.3-7.5s12.4,2.4,17,6.7c3.6,3.4,6.7,10.3,12.6,9.7s8-8.6,9.2-13.3c2-7.9,2.3-16.2,1.1-24.3-.2-1.3-2.2-.8-2,.6h0Z"/>
      <path d="M303.7,57.9c-.3,1.5-.5,3.2,0,4.7.7,1.8,2.4,2.6,4.3,2.3,3.6-.5,6.5-3.2,8.6-6,1.2-1.6,2.3-3.4,3.3-5.1.7-1.2-1.1-2.2-1.8-1.1-1.8,3.2-3.8,6.6-6.9,8.7-.8.5-1.5.9-2.4,1.2-.8.3-1.9.5-2.6,0-1.1-.9-.7-3-.5-4.1.3-1.3-1.8-1.9-2-.6h0Z"/>
      <path d="M318.5,53.1c-1.4,2.4-2.2,5-2.5,7.7-.2,2.4-.2,5.6,1.8,7.3s4.7,1.7,7.1,1c.7-.2,1.3-.4,2-.7.6-.2,1.1-.4,1.5-1,.7-1,.4-2.2-.9-2.4-.6,0-1,.5-1,1.1,0,.6.5,1,1,1.1-.2-.9-.5-1.2-.8-.9t0,0c-.2,0-.4.2-.5.2-.5.2-1,.4-1.4.5-.9.3-1.9.5-2.9.5-1.6,0-3.1-.8-3.6-2.4-.5-1.7-.4-3.8,0-5.5.4-1.9,1-3.7,2-5.4.7-1.2-1.1-2.2-1.8-1.1h0Z"/>
      <path d="M313,92.3c3.9-3,8.4-5,13.2-5.9,2.3-.4,4.7-.6,7.1-.5,1.2,0,2.5.2,3.7.4.6,0,1.2.2,1.8.4s1.2.5,1.8.3c-1.3.4-.8,2.4.6,2,1.1-.3,1.7-1.5,1.2-2.5-.5-1.4-2.2-1.7-3.4-1.9-3.1-.7-6.4-.9-9.6-.7-6.5.5-12.6,2.9-17.8,6.9-1.1.8.4,2.3,1.5,1.5h0Z"/>
      <path d="M307.7,41.8c.1,1.5,0,2.9-.2,4.4-.3,1.3,1.6,1.8,2,.6.4-1.2.8-2.3,1.1-3.5s-1.3-1.8-1.9-.8c-1.3,2.2-2.3,4.4-3,6.8-.3,1,1,1.8,1.8,1,1.7-1.8,3.4-3.7,5-5.5l-1.6-1.3c-1,2-2,4-3,6-.5,1,.8,2.2,1.6,1.3,1.4-1.5,2.8-2.9,4.2-4.3l-1.6-1.3c-1.7,3.1-3.5,6.2-5.2,9.2-.6,1,.9,2.2,1.6,1.3,2.3-2.8,4.9-5.3,7.8-7.5l-1.5-1.5c-3,3.6-5.9,7.3-8.9,10.9-.8,1,.5,2.5,1.5,1.5,3.5-3.7,7.2-7.5,12.1-9l-.8-1.9c-5.4,3.8-10.3,8.3-14.6,13.2-.5.5-.4,1.6.5,1.8,1.6.2,2.9-.7,3-2.3.1-1.3-2-1.3-2.1,0,0,.1-.2.3-.3.3l.5,1.8c4.2-4.8,9-9.1,14.2-12.9.9-.7.4-2.3-.8-1.9-5.3,1.7-9.3,5.7-13,9.6l1.5,1.5c3-3.6,5.9-7.3,8.9-10.9.9-1.1-.4-2.3-1.5-1.5-2.9,2.2-5.5,4.8-7.8,7.5l1.6,1.3c1.7-3.1,3.5-6.2,5.2-9.2.6-1-.8-2.2-1.6-1.3-1.4,1.5-2.8,2.9-4.2,4.3l1.6,1.3c1-2,2-4,3-6,.5-1-.8-2.2-1.6-1.3-1.7,1.8-3.4,3.7-5,5.5l1.8,1c.7-2.2,1.6-4.3,2.8-6.3l-1.9-.8c-.4,1.2-.8,2.3-1.1,3.5l2,.6c.4-1.6.5-3.3.3-4.9-.1-1.3-2.2-1.3-2.1,0h0Z"/>
      <path d="M311,49.1c-.9,7.5,5.9,12.7,12.3,14.8s13.6,2,20,0c3.2-1,6.4-2.6,9.1-4.6s5.4-4.5,5.9-7.9c1.1-7.4-9.2-9.3-14.5-8.4-3.5.6-6.9,2.6-8.5,5.9-1.2,2.4-1.2,6.6,2.3,6.9.9,0,1.4-1.2.7-1.8-.5-.4-1-.9-1.6-1.3-1-.8-2.5.6-1.5,1.5.5.4,1,.9,1.6,1.3l.7-1.8c-1,0-1-1.7-.9-2.4.2-1.3,1-2.5,1.9-3.5,2-2,4.7-2.9,7.5-3s5.8.4,8.1,2c2.5,1.7,2.6,4.5,1,6.9s-4,4-6.4,5.4-4.9,2.4-7.5,3.1c-5.2,1.4-10.8,1.5-16.1,0-6-1.7-12.9-6-12-13.1.1-1.3-2-1.3-2.1,0h0Z"/>
      <path d="M286.2,31.8c-.1,0-.2,0-.4,0h.3c-.1,0-.2,0-.3,0-.2,0,.3.1,0,0,0,0,0,0-.1,0,0,0-.2-.1,0,0s0,0,0,0,0,0-.1-.1-.2-.2,0,0,0,0,0,0,0,0,0-.1c0,0,0,0,0-.1,0,0-.1-.2,0,0s0,0,0,0,0-.1,0-.2c0-.1,0-.2,0-.3v.3c0-.2,0-.4,0-.6v.3c0-.1,0-.2,0-.3,0,0,0,0,0-.1,0-.1,0,.2,0,.2,0,0,0-.1,0-.2s0,0,0,0c0-.1-.2.2,0,.1,0,0,0,0,.1-.1,0,0,0,0,0,0,.1-.1-.2.1-.1,0,0,0,.1,0,.2-.1.5-.3.7-1,.4-1.4-.3-.5-.9-.7-1.4-.4-.9.5-1.4,1.5-1.3,2.6s.5,2,1.4,2.6c.4.3,1,.5,1.6.4.3,0,.5,0,.7-.3.2-.2.3-.5.3-.7,0-.5-.5-1.1-1-1h0Z"/>
      <path d="M360.9,86c5.4,15.5,8.7,31.7,9.8,48,.2,2.3.3,4.7.2,7,0,1.1,0,2.3-.2,3.4,0,.7-.1,1.4-.2,2.1,0,.2-.1,1.4-.2,1.4h1.1-.2c0,0,.5.6.5.6v.2s-1,.8-1,.8h.1c1.3-.1,1.3-2.2,0-2.1h-.1c-.5,0-.9.3-1,.8-.4,1.5,1.4,2.4,2.3,1.1.5-.7.5-1.8.6-2.7.2-1.2.3-2.4.3-3.6.2-4.8-.1-9.6-.6-14.4-.9-9.3-2.5-18.6-4.8-27.7-1.3-5.2-2.9-10.3-4.6-15.4-.4-1.3-2.5-.7-2,.6h0Z"/>
      <path d="M365.8,109.6c-11.9,6-21,17-25,29.7-1.1,3.6-1.8,7.3-2,11.1,0,1.4,2,1.3,2.1,0,.9-12.7,7.2-24.8,16.9-33,2.8-2.3,5.8-4.3,9.1-6,1.2-.6.1-2.4-1.1-1.8h0Z"/>
      <path d="M273.3,136.4h0c-.1-.6-.6-.9-1-.9-1.7-.2-2,2.3-.3,2.6.9.2,2-.3,2.9-.6,1.4-.3,2.9-.6,4.3-.8,5.2-.7,10.5-.4,15.6.2s10.6,1.7,15.9,2.7,10.9,2.2,16.2,3.7c5.8,1.7,11.5,3.9,16.9,6.5,1.2.6,2.3-1.2,1.1-1.8-8.9-4.4-18.2-7.2-27.8-9.3s-19.2-4.1-29-4.5c-2.6,0-5.3,0-7.9.2-1.3.1-2.6.3-4,.6-.6.1-1.2.2-1.8.4-.2,0-1.9.5-1.8.6l.3.7v-.2s-.3.7-.3.7h-.3c0,.1-1-.7-1-.7h0c.3,1.5,2.3.9,2-.4h0Z"/>
      <path d="M321.4,28.8c1.1,1.9,3.1,2.5,5.1,2.9,2.5.5,5,.6,7.5.4,4.9-.5,9.7-2.2,13.7-5.2,1.1-.8.2-2.4-1.1-1.8-3.1,1.6-6,3.4-8.8,5.6-1.4,1.1-2.7,2.2-3.9,3.4-1,1-1.7,2.2-1.1,3.6.4.8,1.4.5,1.8,0,1-1.3,2.1-2.7,3.1-4.1.5-.7-.2-1.6-.9-1.6-2.1,0-4,.8-5.5,2.3-.9,1,.5,2.4,1.5,1.5,1.1-1.1,1.7-3.8-.6-3.9-1.4,0-1.4,2,0,2.1l-.5-.5c0,0,0,.2,0,.3-.1,0-.2.4-.3.5l1.5,1.5c1.1-1.1,2.4-1.7,4-1.7l-.9-1.6c-1,1.3-2.1,2.7-3.1,4.1h1.8c-.2-.6,2.3-2.5,2.7-2.8,1.1-.9,2.2-1.8,3.4-2.6,2.2-1.6,4.6-3,7-4.2l-1.1-1.8c-3.5,2.6-7.5,4.2-11.8,4.8-2.1.3-4.2.3-6.3,0-1.8-.2-4.4-.5-5.4-2.2-.7-1.2-2.5-.1-1.8,1.1h0Z"/>
      <path d="M227.9,103.4c-13.9-15.7-28.5-30.8-45.1-43.6-16.3-12.6-34.4-22.9-54.2-28.9-18.8-5.7-38.8-7.3-58.1-3-18,4-35.2,13.1-47.6,26.9C10.6,68.7,2.6,88.2.6,107.4s1.3,37.8,11.7,53.4c10.5,15.8,27.7,25.7,45.9,30,19.7,4.7,40.4,3.2,59.7-2.4,19.3-5.6,37.4-15.6,53.5-28,16-12.4,30.1-27,43.1-42.5,3.2-3.8,6.3-7.7,9.3-11.5.8-1.1-.6-2.6-1.5-1.5-12.2,15.6-25.3,30.5-40,43.7s-31.4,24.7-49.8,32.4c-18.3,7.6-38.3,11.7-58.2,10.2-18.7-1.4-37.7-8-51.4-21.1S2.9,139,2.2,120.8c-.7-18.8,4.3-38.2,14.4-54.1,10.1-15.9,25.2-27.2,42.7-33.4,17.5-6.2,37.3-7.3,55.9-3.6,19.8,3.9,38.5,12.5,55.2,23.7,17,11.4,32.1,25.5,46,40.5,3.4,3.6,6.7,7.3,10,11,.9,1,2.4-.5,1.5-1.5h0Z"/>
      <path d="M224.7,103.1c-.8,1.1-1.6,2.2-2.7,3.2-.5.5-1.1,1-1.6,1.4,0,0-.1.1-.2.2h0q0,0,0,0c-.1.1-.3.2-.4.3-.3.2-.6.4-.9.6-.5.3-.7.9-.4,1.4.3.5.9.7,1.4.4,2.7-1.7,4.9-4,6.8-6.6.3-.4.1-1.2-.4-1.4-.5-.3-1.1-.1-1.4.4h0Z"/>
    </g>
  </g>
</svg>