<?xml version="1.0" encoding="UTF-8"?>
<svg width="380" height="auto"  id="Calque_2" data-name="Calque 2" xmlns="http://www.w3.org/2000/svg" viewBox="0 0 380 223.97">
  <g id="Calque_1-2" data-name="Calque 1">
    <g>
      <path d="M273.86,51.15c3.74.32,7.54-1.35,11.44-1.62,6.12-.42,13.84-.26,19.62,1.72,1.89.65,5.85,3.11,7.1,3.32.75.12,1.93-.63,3.05-.63,9.35-.07,13.45,14.9,15.37,22.05,5.83,21.77,6.22,45.78.52,67.6l49.05,7.84c-1.18,1.19-4.25.11-5.24.79-.31.21-.85,2.07-1.27,2.75-7.71,12.51-34.3,27.62-47.5,35.31-4.39,2.56-12.09,7.61-16.46,9.26-1.07.41-1.99.36-3.1.31-.22-1.07.27-.69.79-1,8.39-4.89,17.46-9.02,25.71-14.11s17.23-11.21,24.69-16.72c5.94-4.38,12.31-9.67,15.55-16.4-21.35-3.27-42.72-6.96-64.18-9.6-12.41-1.52-24.93-2.19-37.34-3.67-26.16-3.11-52.18-6.4-78.4-9.24-8.23-.89-16.42-2.76-24.71-2.79l-3.23,9.63,8.44,1.22v1.2c-.38.23-2.96-.5-2.62.41,1.87.89,3.71,2.93,5.47,3.78,3.5,1.69,9.89,2.35,10.43,7.67.49,4.78-1.89,5.36-5.64,6.83,2.14,3.07,2.39,6.42,4.49,9.58,4.55,6.84,18.61,11.17,26.08,14.93,13.86,6.97,26.48,16.31,40.45,23.07,7.85,3.8,17,7.79,25.09,11.1,5.64,2.3,13.84,4.27,18.89,6.84.63.32,1.36.5,1.2,1.41-4.39-.58-8.55-2.09-12.67-3.61-18.14-6.68-36.51-15.73-53.54-24.86-6.27-3.36-11.93-7.76-18.22-11.13-6.4-3.43-25.62-11.14-29.06-16.37-1.93-2.93-2.63-7.42-3.97-10.7-4.73.33-9.6-.52-14.25-.46-5.05.06-10.94,1.53-16.03.78-1.21-.18-1.92-.94-2.89-1.13-3.65-.7-7.97-.45-11.43-1.44-2.21-.63-7.46-2.84-8.32-4.94-2.19-5.37,3.88-8.42,7.85-10.43,2.59-1.31,5.83-2.88,8.73-2.93.27.54-.91,1.31-1.27,1.54-3.82,2.51-14.38,4.34-13.84,10.32.29,3.22,8.09,4.72,10.82,5.29,3.79.79,8.88,1.57,12.72,1.75,7.47.35,14.55-1.79,21.93-2.43.16-.73-.22-.79-.67-1.14-2.28-1.76-8.17.51-11.2.73s-7.01.03-10.02-.82c-.55-.16-4.76-1.56-3.84-2.39,7.07.7,14.19,1.93,21.31.8-3.08-2.54-8.31-4.75-8.44-9.24h-1.2c-.67.99.33,3.72.2,4.04-.27.63-2.54,2.05-3.01,1.59l1.2-7.23c-9.03,1.72-17.03,7.89-26.53,7.23.5-3.66,4.87-5.16,7.93-6.33,6.19-2.37,13.16-3.66,19.77-4.15l1.24-10.81c-.73-.09-.66,1.51-.81,1.6-.09.06-1.35-.67-2,0,.36-3.55-1.95-.37-3.12-.08-2.37.59-3.17-1.45-4.54-2.11-.6-.29-1.6-.37-2.31-.51-9.57-1.86-20.23-2.35-29.92-3.85-4.21-.65-8.45-1.9-12.69-2.59-7.45-1.2-15-1.8-22.35-3.61-17.34,13.06-34.87,25.83-51.92,39.28-5.71,4.51-11.13,9.63-16.91,14.05-3.59,2.74-7.42,5.15-11.04,7.85l30.51,7.07.04,1.56-31.69-7.15-2.08.32c-.31-.31.91-2.23,1.24-2.58,3.03-3.24,10.84-7.48,14.81-10.52,2.71-2.08,6.22-4.73,8.49-7.2,5.85-6.36,13.86-11.14,20.86-16.52,11.57-8.89,22.79-18.3,35.02-26.29.13-.97,0-.64-.55-.84-1.05-.38-2.37-.3-3.28-1.15-1.49-2.35,5.82-.06,6.4-.12,1.34-.16,4.8-4.17,4.89-1.09l-2.23,1.21c-.1.58.71.56,1.12.67,9.71,2.64,23.66,4.9,33.77,6.44,9.38,1.43,18.92,1.83,28.23,3.73-1.19-3.13-2.64-6.23-2.82-9.64l-1.2.4.8-2.23-.8-.78c1.13-1.9,3.38-2.45,4.78-3.66,7.35-6.33,15.06-13.11,23-18.81,7.4-5.31,18.98-12.68,24.07-.43-.24,5.58-1.37,10.08-4.64,14.63-1.85,2.58-5.89,4.72-8.41,6.87-4.6,3.93-8.73,8.55-14.2,11.32l-.09,4.34,29.35,2.81c.13-1.32-.45-2.46-.41-3.79.26-8.44,7.81-18.73,12-25.82s5.78-15.06,7.42-22.73c1.43-6.72,1.82-8.65,5.94-14.16,1-1.33,3.54-3.51,4.18-4.66,1.24-2.23,1.05-6.4.44-8.81-1.46.68-2.96,1.81-4.35,2.48-8.17,3.94-13.11,5.61-22.2,2.36-4.65-1.67-7.79-3.85-8.24-9.04-.77-8.88,2.37-13.37,9.29-18.48.81-.6,4.39-2.27,4.6-2.63.41-.7.05-1.75.27-2.54.17-.58,1.12-1.13,1.12-1.28,0-.14-1.58-1.43-1.91-2.1-2.26-4.56,4.6-8.02,8.18-8.51,2.36-.33,5.8.43,7.91-.13,1.58-.42,6.43-4.19,8.87-5.2,4.73-1.97,12.28-3.25,17.36-2.74,6.13.62,11.82,7.48,14.16,12.77,1.53,3.47.59,6.1,1.13,9.73,2.12,1.71,5.55,2.7,6.84,5.22.66,1.29,1.66,4.78,1.8,6.24.25,2.5-.74,6.21-.39,8.02.21,1.07,1.72,1.98,1.98,3.65.31,2.01-.22,3.55-.77,5.4ZM258.98,37.89c-.14-.09-.28-1.25-.24-1.62,1.29-10.68,8.14-15.92.57-27.46-4.72-7.2-11.83-8.07-19.79-7.05-5.85.75-9.99,3.48-15.13,5.98,1.67,2.29,4.33-.89,6.08-1.77,12.53-6.28,29.08-.97,29.7,14.43.12,2.87-1,11.8-2.21,14.26-.23.47-.4,1.11-1,1.21l.8-6.02c-3.73,1.04-4.93,9.42-.49,9.97,1.77.22,6.41-2.3,6.84-4.24.37-1.67-.48-4.88-2.33-5.34-.24.26-.93,5.92-1.29,6.95-.24.69-1.12.97-1.52.69ZM258.58,21c-.73-1.54-.26-3.25-.51-4.92-.52-3.45-6.02-8.86-9.26-10.03-6.68-2.42-14.43-.48-20.39,2.9.06.61.61.61,1.03.78,3.2,1.24,6.23,1.5,9.16,3.71,2.74,2.07,4.12,5.66,7.3,7.47,1.68-.5,8.18-5.8,9.24-5.54.41.1.76.69.42,1.21-.48.75-5.75,3.76-6.94,4.7-.32.25-.74-.01-.51.91,2.85,1.86,4.07-1.09,6.73-1.51,1.45-.23,2.36.11,3.72.3ZM248.52,23.83c-1.36-.09-2.51-1.32-3.61-1.76-.48-.19-1.06.36-1.84-.21-1.65-1.22-2.98-5.79-6.07-7.62-1.39-.82-10.86-4.13-12.5-4.38-3.98-.62-15.55-.6-16.43,4.71-.41,2.47,5.43,5.1,7.3,5.22,1.42.1,3.73-.98,5.25-1.15,4.35-.46,13.18-.77,17.16.84,1.71.69,4.45,3.45,5.45,5,.75,1.16.75,2.88,2.28,3.75l3.01-4.41ZM213.14,20.21l-3.34-.75c-1.09.26-1.05,1.9-1.49,2.75.21.17,4.58-1.23,4.82-2ZM244.5,30.65l-5.63-8.64c-.49-.67-1.19-1.05-1.98-1.23-1.35-.32-4.68-.51-6.24-.59-11.47-.57-24.52,2.2-32.32,11.13-3.33,3.81-4.39,9.94-2.77,14.71,1.86,5.46,14.4,7.66,19.31,6.65,5.74-1.18,20.78-10.85,24.02-15.78,1.44-2.19,2.16-7.75,5.62-6.24ZM258.57,22.62c-6.79,1.35-9.83,5.54-10.4,12.31-.72,8.46,2.62,13.82,11.7,12.5,3.98-.58,10.94-4.67,11.53-8.97.83-6.02-1.18-12.27-7.6-13.83-1.98,3.82.14,3.96,1.28,6.56,1.61,3.66.61,6.37-2.61,8.39-5.87,3.68-10.54,1.67-9.34-5.73.78-4.81,3.27-4.05,4.43-6.02.21-.35,1.2-5.01,1.02-5.21ZM247.72,28.65c-1.04-.21-.7.23-1.01.78-.27.48-1.32,2.94-1,3.23h1.2s.8-4.01.8-4.01ZM246.51,37.49c-.1-1.54.6-3.66-1.2-4.42v2.01s.8-.41.8-.41v1.01c-1.02.27-.86.81-.8,1.81h1.2ZM239.28,40.7c-2.55-.57-3.12,2.06-5.13,2.9-.58,2.24.66,1.74,2.12.72.42-.3,3.46-3.23,3.01-3.61ZM240.59,42.39c-.91.86-.53,3.48.98,3.88,3.75-.33,4.68-5.14.52-5.57.12,1.83-1.19,1.4-1.5,1.69ZM264.21,47.94c-.61.83,3.68,3.12,4.67,3.19,4.56.34,5.58-4.38,2.77-7.21-1.99,2.1-4.85,2.94-7.44,4.02ZM246.11,45.93h-.59c-2.85,2.88-5.54,2.46-7.24-1.2-2.08,1.83-3.96,3.13-6.03.49l-2.58,1.58c.89,3.61.93,6.8-.04,10.39,1.19-.8,2.6.12,3.36.03.13-.02,1.06-1.56,1.67-2.04,3.89-3.07,9.82-3.33,14.45-1.99,1.64.48,3.08,1.36,4.64,1.99-.33-2.17,1.36-3.64-1.2-4.63s-6.01-.66-6.44-4.61ZM262.93,49.21l-7.4,1.91c-.09,3.06.06,6.48-1.06,9.39-.44,1.16-2.34,4.77-3.04,5.81-1.77,2.65-4.91,3.68-7.54,1.71-1.3-.98-2.74-3.46-4.41-3.56-.4-.02-.9.38-1.18.36-.29-.02-.35-.81-.9-1.14-1.63-.96-8.54-2.13-10.31-1.69-.45.11-.46.96-.88,1.21l-.89-.74c-1.4-.26-4.63,7.4-5.07,8.86-.95,3.16-.84,6.6-1.6,9.66-.33,1.33-1.75,3.33-1.31,4.32.17.37,4.35,4.43,4.91,4.77,4.9,3.03,13.01.09,18.05-1.52,4.06-10.94,9.6-21.53,18.67-29.17,1.77-1.49,3.78-2.27,5.38-3.47,1.12-.83,2.2-2.71,3.87-3.36-1.87-.76-4.3-1.43-5.3-3.34ZM319.15,61.34c-10.27-10.53-27.16-11.98-40.88-8.79-1.11.26-5.78,1.36-6.34,1.88-.08.07-.48,1.97-.48,2.08.05,2.77,2.08,8.24,2.67,11.44,2.05,11.2,2.49,20.81,3.35,32.02.6,7.76,2.2,15.46,1.6,23.31-.32,4.21-2.13,8.8-2.54,12.76-.04.34-.42.56.12.92l51.08,6.21c-.56-1.9-.87-3.42-.82-5.44.23-9.87,3.1-20.21,3.63-30.13.81-15.28-.14-34.74-11.39-46.28ZM252.41,56.52c-1.16-1.19-4.88-2.35-6.54-2.51-1.43-.14-5.62.2-7.01.55-.97.24-4.6,2.6-4.41,3.62.94,1.07,1.67-.11,3.11.5,1.22.52,2.33,2.76,2.76,2.87.41.1,1.9-.72,2.79-.77,3.65-.22,4.99,3.42,3.81,6.45,1.76,1.48,5.3-5.59,5.83-6.83.66-1.55.96-2.55-.34-3.88ZM325.72,66.83c-1.68-6.2-6.29-11.18-12.86-12.05l6.29,4.56,6.57,7.49ZM269.03,55.58c-11.07,3.76-19.62,15.46-24.19,25.85-1.34,3.04-1.9,3.98-1.94,7.27,0,.27-.7.2-.92.73-.52,1.24-.73,2.63-1.09,3.92-1.93.27-.51-2.89-.8-3.21-6.39,2.03-13.56,4.92-19.67.58-1.6-1.13-2.54-2.99-4.04-4.19-.53,3.95-1.81,7.82-3.86,11.22-4.19,6.97-10.86,15.84-12.18,23.99-.34,2.08-.4,4.15.13,6.2l65.36,8.02c.33-2.8,1.03-5.85,1.2-8.65.66-10.67.91-25.29-.85-35.71-.47-2.77-1.96-5.92-2.27-8.19-.29-2.09.7-2.07,1.54-.33,3.99,8.21,3.76,27.74,3.45,37.06-.17,5.22-.48,10.44-1.49,15.57l2.46.47c.65-2.35,1.69-4.63,2.28-6.98,2.29-9.18.61-29.03-.74-38.82-.33-2.43-1.47-5.48-1.57-7.71-.02-.52.12-2.43.81-2.59,1.6,6.17,3.18,13.12,3.62,19.49.27,3.9-.11,8.12-.01,12.07.18,7.41,1.48,13.09-1.29,20.38-.26.7-2.17,4.07-1.91,4.31l4.42.41c1.07-7.54,2.31-14.19,2.01-21.9-.35-8.83-1.27-18.12-2.01-26.93-.87-10.25-3.33-20.61-5.01-30.76-.35-.69-1.38.35-1.78.65-14.94,11.29-16.31,32.23-14.51,49.39.76,7.25,3.14,14.28,4.02,21.5-1.02.18-.72-.16-.98-.8-2.71-6.76-4.57-18.61-5.04-25.93-1.04-16.05,1.37-33.05,14.06-44.21.87-.77,2.14-1.31,2.82-2.2ZM233.65,60.8c-.29-3.75-4.95-2.33-6.83-.6l6.83.6ZM238.47,62.4c.17-1.71-2.33-3.21-3.21-1.4-.45.93,2.78.88,3.21,1.4ZM241.29,62.81c-.14.19,2.83,3.11,3.22,3.41.43.34.49.9,1.01.21,1-3.28-1.2-4.86-4.23-3.62ZM163.69,97.77c5.12-.02,10.91,3.08,13.59,7.52.95,1.58,1.43,3.32,2.29,4.93,6.64-5.44,14.87-10.84,15.47-20.29.49-7.75-6.63-7.88-12.26-5.83-.88.32-4.27,1.86-4.75,2.38-.52.56-.08,1.57-.87,2.04-.29-.3-.68-.81-1.14-.75-.73.1-10.6,7.79-11.65,8.87-.34.35-.88.33-.68,1.13ZM329.74,141.98c.53-4.28,1.76-8.45,2.35-12.72.95-6.83.99-13.64.88-20.43-.07-3.83-.07-7.63-.41-11.45l-.4,1.4c-.22,4.55-.03,9.57-.41,14.07-.77,9.14-3.56,18.05-2.81,27.34.04.47.12,1.8.8,1.8ZM172.53,102.2c-3.46-1.71-6.55-3.48-10.57-3.56-1.07.66-1.73,1.78-2.73,2.52-2.18,1.61-2.82,2.28-4.57,3.86-.86.78-2.35,1.94-3.43,2.41-.13.57.05.65.42.98,1.02.94,3.3,1.62,4.62,3.01,2.54,2.68,4.89,7.52,4.61,11.27l1.22-3.79-2.04-2.84c0-.91,1.45-1.31,1.63-2.43.37-2.37-1.87-4.46,1.22-6.79.36-.27,3.25-2.16,3.45-2.19.52-.09,2.94,2.07,3.55-.05,3.42,1.54,5.9,3.78,7.45,7.24,1.44-.4-.06-3.39-.59-4.44-.43-.83-1.69-2.78-2.42-3.24-.93-.58-4.01.89-5.03-.57l.66-1.02,2.54-.38ZM169.32,107.02c-2.4-.18-5.14.14-6.43,2.4l6.43-2.4ZM158.78,122.21c.34-2.9-.87-6.31-2.74-8.55-3-3.6-9.27-5.85-8.33,1.09.48,3.56,2.92,9.5,6.44,10.71l4.62-3.25ZM174.14,113.85c-.77-9.12-12.72.83-3.81,1.62,2.4.21.75-2.25,3.81-1.62ZM167.31,124.7v-2.82c-1.1.77-3.91,1.14-3.02,2.82h3.02ZM166.9,125.91h-3.22s-.4,8.84-.4,8.84l1.8-3.62,1.81-5.22ZM173.74,142.78c-1.07-2-8.33-5.45-9.86-3.62-.51,1.77-1.63,3.01-.2,4.64.87.99,7.57,5.39,8.65,5.39,1.35,0,4.11-2.34,5.02-3.4.21-.55-2.04-1.96-2.59-1.79-.96.28-.65,2.14-.21,2.81-2.2.15-2.93-1.66-2.78-3.58l1.98-.44ZM150.42,139.58c-4.16.36-8.25,1.75-12.08,3.4l-3.2,2.22c4.17-.38,7.98-2.15,11.8-3.67l3.47-1.95ZM179.37,153.24c1.02,4.56,7.09-.6,6.27-3.23-.31-1.01-3.53-3.61-4.47-4.01-.18-.08-.66-.1-.59.19,2.68,2.86,3.89,6.38-1.21,7.04ZM174.55,150.82c2.08.37,3.58,3.13,5.64,1.03,1.77-1.79-.04-3.39-1.42-4.63l-3.94,2.81-.28.79Z"/>
      <path d="M285.11,116.26l2.81-2.62,1.2.41c-.93,1.79-1.9,2.56-4.01,2.21Z"/>
      <path d="M219.57,96.16c-.17,1.15,1.51,2.37,2.44,2.99,4.96,3.32,11.64,2.1,17.26,1.84.16,1.05-1.14,1.37-1.9,1.51-3.62.65-10.14.73-13.53-.75-1.64-.72-3.02-2.72-4.66-3.58-.76,6.36-5.53,19.74-3.25,25.55.93,2.37,7.49,3.8,9.88,3.82,4.09.03,6.93-2.63,10.65-3.24-3.14,4.27-9.22,5.27-14.17,4.32-3.38-.65-7.89-1.71-8.34-5.73-.63-5.52,1.96-20.32,4.06-25.6.1-.25,1.2-1.51,1.56-1.13Z"/>
      <path d="M241.69,100.99c.02,2.04-.66,4.24-.8,6.23-.09,1.37.12,12.22-1.41,12.25-.74-.48-.56-1.06-.62-1.78-.18-2.25.2-7.27.42-9.66s.54-5.48,2.4-7.04Z"/>
      <path d="M248.53,56.78v1.2s-6.84.8-6.84.8c-.18-.89.44-.91.99-1.22,1.86-1.06,3.79-.8,5.85-.79Z"/>
    </g>
  </g>
</svg>