<?xml version="1.0" encoding="UTF-8"?>
<svg id="Calque_2" xmlns="http://www.w3.org/2000/svg" version="1.1" viewBox="0 0 382.1 193.6">
  <!-- Generator: Adobe Illustrator 29.2.1, SVG Export Plug-In . SVG Version: 2.1.0 Build 116)  -->
  <defs>
    <style>
      .st0 {
        fill: #202020;
      }
    </style>
  </defs>
  <g id="Calque_1-2">
    <g>
      <path class="st0" d="M107.5,22.2h0c-1.3.4-.7,2.4.6,2,2.1-.7,4.2-1.4,6.2-2.5,4-2.2,7.2-5.8,5.8-10.7-1.4-4.9-6.3-8.3-10.9-9.8-10.8-3.5-21.5,1.9-29.8,8.6-9.1,7.4-16.4,16.8-26.5,23.2s-21.9,9.3-33,13.6C10.7,50.2,0,55.7,0,67s1.8,9.2,4.7,12.8c3.3,3.9,8,6.3,12.9,7.1,10.7,1.8,20.9-3.2,27.9-11,3.7-4.1,6.3-8.8,8.9-13.7,1.5-2.7,3-5.5,4.9-7.8s4.2-4.2,6.6-6c10-7.4,20.9-13.6,32.3-18.7,8.4-3.7,18.3-7.9,21.6-17.3.5-1.3-1.6-1.9-2-.6-.8,2.1-1.9,4-3.4,5.6-3.1,3.4-7.1,5.6-11.1,7.6-4.6,2.2-9.4,4.2-14,6.5-5.1,2.6-10.3,5.6-15.1,8.6s-9.8,6.2-13.9,10-6.7,8.8-9.1,13.4-5.3,8.9-9,12.6c-7.1,7-17.5,11-27.4,7.8C6.1,81.1,0,71.6,2.8,62.5c1.5-4.8,5.6-8.2,9.9-10.5,4.7-2.6,9.8-4.3,14.9-6.1,10.3-3.6,21-7,29.9-13.6,8.8-6.5,15.7-15.2,24.3-21.9,8-6.2,18.9-11.1,28.8-6.5,4,1.8,9.2,6.4,7.2,11.4-1.5,3.9-6.6,5.6-10.3,6.7v.2Z"/>
      <path class="st0" d="M71,41h0c-1.2.5-.6,2.5.6,2,2-.8,4-1.6,6-2.4,15.3-5.9,32.9-11.1,48.6-3.9,3.6,1.7,7,3.9,10.3,6.2s6.6,4.8,9.5,7.6c5.2,4.9,8.6,10.9,9.4,18,.7,6.4-.6,13.1-4.2,18.6-3.9,5.9-10.4,9.6-17.2,11.1-15.2,3.3-30-4.7-40.3-15.4s-17-24.8-18.6-39.6c-.1-1.3-2.2-1.3-2.1,0,.2,1.9.4,3.7.8,5.6,3,15.3,11.2,29.7,23,39.8,11.8,10.2,28.4,16.2,43.5,9.9,6.6-2.7,12-7.8,14.9-14.4,2.7-6.2,3.1-13.3,1.5-19.8-1.9-7.5-6.7-13.3-12.7-18.2-6.5-5.2-13.5-10.4-21.6-13-17.3-5.5-35.5,1.4-51.4,7.9h0Z"/>
      <path class="st0" d="M95.2,84.8h0c.1-1.3-2-1.3-2.1,0-.5,5.9.6,11.7,2.5,17.3,3.5,10.3,9.5,19.6,13.2,29.8,1.8,4.9,3,10.1,3,15.4-.1,7.2-2.4,14-4.7,20.6-.5,1.3,1.6,1.9,2,.6,2.5-7.3,5-14.8,4.7-22.6-.4-10.9-5.5-20.8-10.1-30.3-4.7-9.6-9.5-19.8-8.6-30.9h.1Z"/>
      <path class="st0" d="M41,78.8h0c.2-1.4-1.8-1.9-2-.6-1.2,8.1-.9,16.4,1.1,24.3,1.2,4.7,3.3,12.7,9.2,13.3s9-6.3,12.6-9.7c4.6-4.3,10.5-6.8,17-6.7,6.5,0,12.8,2.9,17.3,7.5.7.7,1.8.2,1.8-.7.2-3.6-.3-7.2-1.5-10.6-.9-2.8-2.3-6.1-4.9-7.7-2.5-1.5-5.5-.5-7.5,1.4-2.3,2.3-2.8,5.8-3.2,8.9l2.1-.3c-.4-2.4-1.5-4.6-3-6.5-1.4-1.7-3.5-3.5-5.9-3.5-2.2,0-4.1,1.7-5.1,3.6-1.1,2.3-1,5-.8,7.5l2-.5c-1.1-2.4-2.7-4.6-4.8-6.2-1.6-1.2-4.1-2.3-6.1-1.2-2.1,1.2-2.3,3.7-2,5.8.4,3.1,1.2,6.1,1.8,9.2.2,1.3,2.3.7,2-.6-.4-2.4-.9-4.8-1.4-7.2-.3-1.4-1.1-4.1.4-5.2s3.7.5,4.8,1.5c1.5,1.4,2.6,3.1,3.5,5,.5,1,2,.5,2-.5-.1-2-.3-4.1.4-6,.6-1.5,2.1-3.1,3.9-2.9s3.5,2.1,4.5,3.6,1.6,3.1,1.9,4.9c.3,1.3,2,.8,2.1-.3.3-2.5.7-5.5,2.6-7.4,1.8-1.7,4.4-2,6.1,0s2.7,4.8,3.4,7.3c.8,2.7,1,5.4.9,8.2l1.8-.7c-4.7-4.9-11.2-7.8-18-8.1-5.9-.3-11.8,1.6-16.6,5.1-2.4,1.8-4.3,3.8-6.1,6.1-1.6,1.9-3.4,4.5-6,5.1-2.9.7-5-1.8-6.2-4.1-1.5-2.9-2.3-6.2-3-9.4-1.5-6.9-1.7-14.2-.7-21.3l-.4-.4Z"/>
      <path class="st0" d="M78.5,57.9c-.2-1.3-2.3-.7-2,.6.2,1.1.6,3.2-.5,4.1-.7.5-1.8.3-2.6,0-.9-.3-1.6-.7-2.4-1.2-3.1-2.1-5.1-5.5-6.9-8.7-.7-1.1-2.5-.1-1.8,1.1,1,1.7,2.1,3.5,3.3,5.1,2.1,2.8,5,5.5,8.6,6,1.9.3,3.6-.5,4.3-2.3.5-1.5.3-3.2,0-4.7h0Z"/>
      <path class="st0" d="M63.7,53.1h0c-.7-1.1-2.5-.1-1.8,1.1,1,1.7,1.6,3.5,2,5.4.4,1.7.5,3.8,0,5.5-.5,1.6-2,2.4-3.6,2.4s-2-.2-2.9-.5c-.4,0-.9-.3-1.4-.5-.1,0-.3-.2-.5-.2q.2.2,0,0c-.3-.3-.6,0-.8.9.5,0,1-.5,1-1.1s-.4-1.1-1-1.1c-1.3.2-1.6,1.4-.9,2.4.4.6.9.8,1.5,1,.7.3,1.3.5,2,.7,2.4.7,5.1.7,7.1-1s2-4.9,1.8-7.3c-.3-2.7-1.1-5.3-2.5-7.7h0Z"/>
      <path class="st0" d="M69.1,92.3h0c1.1.8,2.6-.7,1.5-1.5-5.2-4-11.3-6.4-17.8-6.9-3.2-.2-6.5,0-9.6.7-1.2.2-2.9.5-3.4,1.9-.5,1,.1,2.2,1.2,2.5,1.4.4,1.9-1.6.6-2,.6.2,1.2,0,1.8-.3s1.2-.4,1.8-.4c1.2-.2,2.5-.4,3.7-.4,2.4,0,4.8,0,7.1.5,4.8.9,9.3,2.9,13.2,5.9h-.1Z"/>
      <path class="st0" d="M74.2,42.1h0c.1-1.3-2-1.3-2.1,0-.2,1.6-.1,3.3.3,4.9l2-.6c-.3-1.2-.7-2.3-1.1-3.5l-1.9.8c1.2,2,2.1,4.1,2.8,6.3l1.8-1c-1.6-1.8-3.3-3.7-5-5.5-.8-.9-2.1.3-1.6,1.3l3,6,1.6-1.3c-1.4-1.4-2.8-2.8-4.2-4.3-.8-.9-2.2.3-1.6,1.3,1.7,3,3.5,6.1,5.2,9.2l1.6-1.3c-2.3-2.7-4.9-5.3-7.8-7.5-1.1-.8-2.4.4-1.5,1.5,3,3.6,5.9,7.3,8.9,10.9l1.5-1.5c-3.7-3.9-7.7-7.9-13-9.6-1.2-.4-1.7,1.2-.8,1.9,5.2,3.8,10,8.1,14.2,12.9l.5-1.8c0,0-.3-.2-.3-.3-.1-1.3-2.2-1.3-2.1,0,.1,1.6,1.4,2.5,3,2.3.9-.2,1-1.3.5-1.8-4.3-4.9-9.2-9.4-14.6-13.2l-.8,1.9c4.9,1.5,8.6,5.3,12.1,9,1,1,2.3-.5,1.5-1.5-3-3.6-5.9-7.3-8.9-10.9l-1.5,1.5c2.9,2.2,5.5,4.7,7.8,7.5.7.9,2.2-.3,1.6-1.3-1.7-3-3.5-6.1-5.2-9.2l-1.6,1.3c1.4,1.4,2.8,2.8,4.2,4.3.8.9,2.1-.3,1.6-1.3l-3-6-1.6,1.3c1.6,1.8,3.3,3.7,5,5.5.8.8,2.1,0,1.8-1-.7-2.4-1.7-4.6-3-6.8-.6-1-2.2-.4-1.9.8s.7,2.3,1.1,3.5,2.3.7,2-.6c-.2-1.5-.3-2.9-.2-4.4l-.3.3Z"/>
      <path class="st0" d="M71.2,49.1c-.1-1.3-2.2-1.3-2.1,0,.9,7.1-6,11.4-12,13.1-5.3,1.5-10.9,1.4-16.1,0-2.6-.7-5.1-1.7-7.5-3.1s-4.8-3-6.4-5.4-1.5-5.2,1-6.9c2.3-1.6,5.3-2.1,8.1-2s5.5,1,7.5,3c.9,1,1.7,2.2,1.9,3.5.1.7.1,2.4-.9,2.4l.7,1.8c.6-.4,1.1-.9,1.6-1.3,1-.9-.5-2.3-1.5-1.5-.6.4-1.1.9-1.6,1.3-.7.6-.2,1.8.7,1.8,3.5-.3,3.5-4.5,2.3-6.9-1.6-3.3-5-5.3-8.5-5.9-5.3-.9-15.6,1-14.5,8.4.5,3.4,3.2,5.9,5.9,7.9s5.9,3.6,9.1,4.6c6.4,2,13.6,2.1,20,0,6.4-2.1,13.2-7.3,12.3-14.8h0Z"/>
      <path class="st0" d="M95.7,32.3h0c-.5,0-1,.5-1,1s0,.5.3.7c.2.3.4.3.7.3.6,0,1.2-.1,1.6-.4.9-.6,1.3-1.5,1.4-2.6s-.4-2.1-1.3-2.6c-.5-.3-1.1-.1-1.4.4-.3.4-.1,1.1.4,1.4.1.1.2.1.2.1.1.1-.2-.1-.1,0h.1c.2.2,0-.1,0,0,0,0,0-.1,0,0v.2s0-.3,0-.2h0v.4s0-.3,0-.3v.6s0-.3,0-.3v.5s-.1.2,0,0,0,0,0,0h0v.2s-.2.2,0,0,.1-.1,0,0h-.1c0,.1-.2.2,0,.1s0,0,0,0h-.1c-.3.1.2,0,0,0h-.3s.3,0,.3,0h-.4s-.3.5-.3.5Z"/>
      <path class="st0" d="M21.3,86.1h0c.5-1.3-1.6-1.9-2-.6-1.7,5.1-3.3,10.2-4.6,15.4-2.3,9.1-3.9,18.4-4.8,27.7-.5,4.8-.8,9.6-.6,14.4,0,1.2,0,2.4.3,3.6.1.9.1,2,.6,2.7.9,1.3,2.7.4,2.3-1.1-.1-.5-.5-.8-1-.8h-.1c-1.3,0-1.3,2,0,2.1h.1s-1-.8-1-.8v-.2l.5-.6h-.2s1.1,0,1.1,0c-.1,0-.2-1.2-.2-1.4-.1-.7-.2-1.4-.2-2.1-.2-1.1-.2-2.3-.2-3.4,0-2.3,0-4.7.2-7,1.1-16.3,4.4-32.5,9.8-48h0Z"/>
      <path class="st0" d="M16.4,109.6c-1.2-.6-2.3,1.2-1.1,1.8,3.3,1.7,6.3,3.7,9.1,6,9.7,8.2,16,20.3,16.9,33,.1,1.3,2.1,1.4,2.1,0-.2-3.8-.9-7.5-2-11.1-4-12.7-13.1-23.7-25-29.7h0Z"/>
      <path class="st0" d="M108.9,136.1h0c-.3,1.3,1.7,1.9,2,.4h0s-1,.8-1,.7h-.3l-.3-.7v.2s.3-.7.3-.7c.1-.1-1.6-.6-1.8-.6-.6-.2-1.2-.3-1.8-.4-1.4-.3-2.7-.5-4-.6-2.6-.2-5.3-.2-7.9-.2-9.8.4-19.4,2.4-29,4.5-9.6,2.1-18.9,4.9-27.8,9.3-1.2.6-.1,2.4,1.1,1.8,5.4-2.6,11.1-4.8,16.9-6.5,5.3-1.5,10.9-2.7,16.2-3.7,5.3-1,10.8-2.1,15.9-2.7,5.1-.6,10.4-.9,15.6-.2,1.4.2,2.9.5,4.3.8.9.3,2,.8,2.9.6,1.7-.3,1.4-2.8-.3-2.6-.4,0-.9.3-1,.9h0v-.3Z"/>
      <path class="st0" d="M60.8,28.9h0c.7-1.2-1.1-2.3-1.8-1.1-1,1.7-3.6,2-5.4,2.2-2.1.3-4.2.3-6.3,0-4.3-.6-8.3-2.2-11.8-4.8l-1.1,1.8c2.4,1.2,4.8,2.6,7,4.2,1.2.8,2.3,1.7,3.4,2.6.4.3,2.9,2.2,2.7,2.8h1.8c-1-1.4-2.1-2.8-3.1-4.1l-.9,1.6c1.6,0,2.9.6,4,1.7l1.5-1.5c0,0-.2-.5-.3-.5v-.3s-.5.5-.5.5c1.4,0,1.4-2.1,0-2.1-2.3.1-1.7,2.8-.6,3.9,1,.9,2.4-.5,1.5-1.5-1.5-1.5-3.4-2.3-5.5-2.3s-1.4.9-.9,1.6c1,1.4,2.1,2.8,3.1,4.1.4.5,1.4.8,1.8,0,.6-1.4-.1-2.6-1.1-3.6-1.2-1.2-2.5-2.3-3.9-3.4-2.8-2.2-5.7-4-8.8-5.6-1.3-.6-2.2,1-1.1,1.8,4,3,8.8,4.7,13.7,5.2,2.5.2,5,0,7.5-.4,2-.4,4-1,5.1-2.9h0Z"/>
      <path class="st0" d="M154.3,103.4h0c-.9,1,.6,2.5,1.5,1.5,3.3-3.7,6.6-7.4,10-11,13.9-15,29-29.1,46-40.5,16.7-11.2,35.4-19.8,55.2-23.7,18.6-3.7,38.4-2.6,55.9,3.6,17.5,6.2,32.6,17.5,42.7,33.4,10.1,15.9,15.1,35.3,14.4,54.1-.7,18.2-7,36.2-20.7,49.3s-32.7,19.7-51.4,21.1c-19.9,1.5-39.9-2.6-58.2-10.2-18.4-7.7-35.1-19.2-49.8-32.4-14.7-13.2-27.8-28.1-40-43.7-.9-1.1-2.3.4-1.5,1.5,3,3.8,6.1,7.7,9.3,11.5,13,15.5,27.1,30.1,43.1,42.5,16.1,12.4,34.2,22.4,53.5,28,19.3,5.6,40,7.1,59.7,2.4,18.2-4.3,35.4-14.2,45.9-30,10.4-15.6,13.7-34.2,11.7-53.4-2-19.2-10-38.7-22.3-52.6-12.4-13.8-29.6-22.9-47.6-26.9-19.3-4.3-39.3-2.7-58.1,3-19.8,6-37.9,16.3-54.2,28.9-16.6,12.8-31.2,27.9-45.1,43.6h0Z"/>
      <path class="st0" d="M157.3,103h0c-.3-.5-.9-.7-1.4-.4-.5.2-.7,1-.4,1.4,1.9,2.6,4.1,4.9,6.8,6.6.5.3,1.1,0,1.4-.4s.1-1.1-.4-1.4c-.3-.2-.6-.4-.9-.6,0-.1-.3-.2-.4-.3h0c0,0-.2-.2-.2-.2-.5-.4-1.1-.9-1.6-1.4-1.1-1-1.9-2.1-2.7-3.2h-.2Z"/>
    </g>
  </g>
</svg>