<?xml version="1.0" encoding="UTF-8"?>
<svg id="Calque_2" data-name="Calque 2" xmlns="http://www.w3.org/2000/svg" viewBox="0 0 382.05 209.82">
  <g id="Calque_1-2" data-name="Calque 1">
    <g>
      <path d="M106.58,98.55c-12.48-2.08-20.1,11.8-24.62,21.18-2.58,5.34-4.56,11-5.24,16.92-.63,5.51-.14,11.91,2.78,16.77,2.98,4.97,8.36,6.01,13.76,5.95,6.05-.08,12.34-.54,17.94-3.01,4.85-2.14,9.04-5.88,10.87-10.94,1.84-5.08,1.7-11.06,1.01-16.35-1.49-11.53-7.13-22.49-16.6-29.44l-1.06,1.81c13,8.86,22.43,27.72,40.61,25.81,7.35-.77,14.1-5.07,17.24-11.88,2.63-5.69,2.57-15.11-4.22-17.99-3.3-1.4-7.45-.28-9.54,2.64s-1.72,7.43.81,10.14c.92.99,2.41-.5,1.48-1.48-2.06-2.2-2.21-5.97,0-8.13s5.78-2.22,8.04-.2c4.72,4.22,3.26,11.94.13,16.59-3.87,5.75-10.68,8.69-17.52,8.3s-13.17-4.56-18.23-9.19c-5.96-5.44-11.02-11.84-17.74-16.42-1.13-.77-2.13,1.03-1.06,1.81,7.63,5.6,12.6,14.14,14.75,23.27,1.09,4.66,1.46,9.49,1.06,14.26-.23,2.72-.77,5.48-2.11,7.89-1.2,2.17-2.96,4-4.98,5.43-4.46,3.15-9.91,4.32-15.27,4.73-4.75.37-10.97,1.13-15.08-1.85s-5.15-9.49-5.2-14.27c-.06-5.4,1.28-10.71,3.24-15.7,2.24-5.7,5.28-11.3,8.87-16.27s8.94-9.42,15.31-8.35c1.32.22,1.89-1.8.56-2.02h0Z"/>
      <path d="M87.65,107.91c-6.17,9.62-16.77,16.78-28.22,18.08-5.96.68-12.59-.65-16.2-5.87-1.64-2.37-2.31-5.14-1.74-7.99.6-3.01,2.2-6.02,4-8.49,1.65-2.26,4.42-5.1,7.52-4.23s3.96,4.42,4.44,7.08c.24,1.33,2.26.77,2.02-.56-.49-2.77-1.49-5.8-3.86-7.54s-5.53-1.46-7.94.16c-2.78,1.86-4.67,4.76-6.18,7.68-1.62,3.13-2.75,6.55-2.12,10.09,1.16,6.54,7.41,10.81,13.64,11.7,6.85.97,14.03-1.05,20.1-4.17,6.65-3.42,12.33-8.6,16.37-14.89.73-1.14-1.09-2.2-1.81-1.06h0Z"/>
      <path d="M67.88,126.8c-.36,1.31-.17,2.71.55,3.86.37.6,1.49.77,1.81,0,.52-1.23,1.04-2.45,1.55-3.68l-1.96-.53c.21,2.31.42,4.61.63,6.92.09.97,1.42,1.51,1.96.53,1.66-3.02,3.33-6.05,4.99-9.07l-1.96-.53c-.25,1.87-.49,3.74-.74,5.62-.14,1.04,1.52,1.42,1.96.53,1.16-2.36,2.19-4.78,3.09-7.25.19-.53-.22-1.15-.73-1.29-.58-.16-1.1.2-1.29.73-.83,2.3-1.79,4.55-2.88,6.75l1.96.53c.25-1.87.49-3.74.74-5.62.14-1.06-1.49-1.38-1.96-.53-1.66,3.02-3.33,6.05-4.99,9.07l1.96.53c-.21-2.31-.42-4.61-.63-6.92-.04-.47-.3-.88-.77-1.01-.41-.11-1.01.06-1.19.48-.52,1.23-1.04,2.45-1.55,3.68h1.81c-.43-.69-.56-1.45-.34-2.25.36-1.3-1.67-1.86-2.02-.56h0Z"/>
      <path d="M122.99,118.35c.19,5.72.38,11.44.57,17.16.04,1.15,1.77,1.47,2.06.28.94-3.84,1.87-7.68,2.81-11.51l-2.06-.28c-.1,2.63-.2,5.27-.3,7.9-.04,1.09,1.42,1.37,1.96.53.98-1.53,1.91-3.09,2.78-4.69l-1.81-1.06c-.82,1.66-1.64,3.32-2.46,4.98-.51,1.03.77,2.15,1.65,1.27,1.52-1.52,3.24-3.26,5.43-3.7,1.17-.24,2.25.23,3.41.25s2.15-.44,2.98-1.19c1.01-.91-.48-2.39-1.48-1.48s-2.06.46-3.22.31-2.21-.01-3.25.39c-2.1.81-3.79,2.37-5.36,3.94l1.65,1.27c.82-1.66,1.64-3.32,2.46-4.98.59-1.2-1.16-2.26-1.81-1.06-.87,1.6-1.79,3.16-2.78,4.69l1.96.53c.1-2.63.2-5.27.3-7.9.04-1.18-1.78-1.43-2.06-.28-.94,3.84-1.87,7.68-2.81,11.51l2.06.28c-.19-5.72-.38-11.44-.57-17.16-.04-1.35-2.14-1.35-2.1,0h0Z"/>
      <path d="M74.81,126.87c-.51,3.45-4.88,1.79-6.76.78-2.08-1.12-4.15-2.35-5.96-3.88-1.68-1.41-3.29-3.13-3.96-5.27-.86-2.75.29-5.27,1.8-7.55,5.75-8.64,13.62-16.01,22.38-21.53,4.5-2.83,9.29-5.24,14.3-7.04,5.5-1.97,11.7-3.18,17.22-.6,4.95,2.31,8.63,6.63,12.32,10.52,4.15,4.38,8.51,8.64,12.42,13.24,3.59,4.22,6.61,9.69,4.73,15.35-.78,2.36-2.55,4.39-5.03,4.95-2.16.49-4.61-.12-5.73-2.15-.65-1.18-2.47-.13-1.81,1.06,2.32,4.22,8.37,4.17,11.69,1.25,4.03-3.54,4.3-9.8,2.4-14.49-2.4-5.96-7.52-10.49-11.85-15.06-2.43-2.56-4.86-5.13-7.29-7.69-2.14-2.26-4.33-4.48-6.83-6.36s-5.2-3.27-8.21-3.85c-3.24-.62-6.55-.36-9.75.37-6.04,1.37-11.9,4.14-17.23,7.23s-10.01,6.61-14.38,10.69-8.49,8.7-11.63,13.77c-1.71,2.76-2.54,5.93-1.33,9.06,1.03,2.66,3.12,4.73,5.35,6.43,2.44,1.86,5.4,3.86,8.37,4.7,2.68.76,6.31-.22,6.78-3.38.2-1.32-1.83-1.89-2.02-.56h0Z"/>
      <path d="M109.59,81.27c-.71-4.49.57-9.28,3.41-12.82.36-.45.43-1.05,0-1.48-.36-.37-1.13-.44-1.48,0-3.36,4.19-4.79,9.56-3.95,14.86.09.56.79.87,1.29.73.6-.17.82-.73.73-1.29h0Z"/>
      <path d="M77.01,148.23c-13.79,12.39-27.37,25.06-37.2,40.95-2.98,4.82-5.62,9.85-8.01,14.99-.57,1.22,1.24,2.29,1.81,1.06,4.01-8.63,8.77-16.89,14.51-24.48,5.39-7.13,11.6-13.58,18.06-19.74,4.03-3.84,8.16-7.57,12.31-11.3,1.01-.9-.48-2.39-1.48-1.48h0Z"/>
      <path d="M120.44,145.73c5.76,7,11.91,13.78,17.21,21.14,3.79,5.25,6.56,10.99,8.87,17.02,2.11,5.5,3.99,11.08,5.88,16.65.43,1.27,2.46.73,2.02-.56-2.91-8.56-5.63-17.34-9.67-25.46-2.98-5.98-7.06-11.22-11.28-16.36-3.83-4.66-7.72-9.26-11.56-13.91-.86-1.04-2.34.45-1.48,1.48h0Z"/>
      <path d="M62.76,162.28c-3.83,14.9-4.65,30.44-2.46,45.66l2.02-.56c-.22-1.28-.45-2.55-.67-3.83s-2.26-.77-2.02.56.45,2.55.67,3.83c.24,1.34,2.21.75,2.02-.56-2.13-14.84-1.27-30.03,2.46-44.55.34-1.31-1.69-1.87-2.02-.56h0Z"/>
      <path d="M66,160.54c.58,12.26,1.17,24.51,1.75,36.77.07,1.37,1.96,1.33,2.1,0,.09-.92.19-1.83.28-2.75.14-1.34-1.96-1.33-2.1,0-.09.92-.19,1.83-.28,2.75h2.1c-.58-12.26-1.17-24.51-1.75-36.77-.06-1.35-2.16-1.35-2.1,0h0Z"/>
      <path d="M130.75,155.08c-2.6,14.39-5.19,28.79-7.79,43.18-.24,1.31,1.7,1.89,2.02.56s.65-2.63.98-3.95-1.7-1.87-2.02-.56-.65,2.63-.98,3.95l2.02.56c2.6-14.39,5.19-28.79,7.79-43.18.24-1.32-1.79-1.89-2.02-.56h0Z"/>
      <path d="M137.98,166.39c-3.52,11.07-5.82,22.48-6.91,34.05h2.1c-.07-1.28-.13-2.57-.2-3.85s-2.17-1.35-2.1,0,.13,2.57.2,3.85c.07,1.37,1.97,1.33,2.1,0,1.07-11.38,3.37-22.6,6.83-33.49.41-1.29-1.62-1.84-2.02-.56h0Z"/>
      <path d="M124.98,192.13c-13.88-6.3-30-7.14-44.5-2.41-4.08,1.33-8.02,3.1-11.72,5.27-1.17.68-.11,2.5,1.06,1.81,12.6-7.39,27.92-9.77,42.2-6.75,4.09.86,8.09,2.16,11.9,3.89,1.22.55,2.29-1.25,1.06-1.81h0Z"/>
      <path d="M1.01,209.82c32.79-2.37,65.58-4.74,98.42-6.26s65.31-2.17,97.96-1.14c18.46.58,36.89,1.71,55.27,3.51,1.34.13,1.33-1.97,0-2.1-32.66-3.21-65.49-4.26-98.29-3.96s-65.37,1.91-98,4c-18.46,1.18-36.91,2.52-55.37,3.85-1.34.1-1.35,2.2,0,2.1h0Z"/>
      <path d="M179.65,97.7c-2.24,1.61-2.59,4.24-2.23,6.82s1.27,5.8,3.02,7.88,4.75,2.63,7.34,1.78c2.82-.93,4.85-3.11,6.06-5.77.65-1.43,1.11-2.92,1.47-4.44s.86-3.18.83-4.76c-.07-3.32-3.16-4.56-5.95-5.18-5.25-1.16-11.85-.36-15.12,4.42-2.81,4.11-2.22,11.13,2.75,13.33,1.22.54,2.29-1.27,1.06-1.81-3.39-1.5-4.06-5.77-2.8-8.95,1.65-4.18,6.58-5.56,10.67-5.36,1.15.06,2.29.24,3.4.51,1.05.26,2.24.56,3.09,1.27,1.03.86.85,2.19.62,3.37-.26,1.3-.54,2.61-.9,3.88-.65,2.31-1.64,4.77-3.58,6.3-1.58,1.24-3.95,1.99-5.88,1.15-2.33-1.01-3.12-4.14-3.69-6.36-.5-1.94-1.01-4.89.9-6.26,1.09-.78.04-2.6-1.06-1.81h0Z"/>
      <path d="M211.72,76.23c-5.5,3.54-4.92,11.19-2.56,16.46,1.34,2.99,3.56,6.17,6.97,6.9,3.74.79,7.26-1.49,9.71-4.12,4.87-5.23,7.92-13.16,4.12-19.85-1.71-3.01-4.63-5.08-8.09-5.48-3.83-.45-7.74,1.01-10.89,3.12s-6.3,5.37-7.01,9.37c-.64,3.61.63,7.49,3.79,9.52,1.14.73,2.2-1.09,1.06-1.81-2.34-1.5-3.26-4.48-2.83-7.15.48-2.98,2.57-5.46,4.87-7.27,4.64-3.64,12.3-5.94,16.5-.41,3.81,5.01,2.13,11.6-1.26,16.32-1.73,2.41-4.13,4.97-7.12,5.67-3.3.77-5.71-1.59-7.21-4.25-2.44-4.34-4.01-11.99,1-15.21,1.13-.73.08-2.55-1.06-1.81h0Z"/>
      <path d="M243.69,72.97c.62,14.51,9.63,27.53,21.68,35.17,13.76,8.72,30.85,10.9,46.81,9.41s31.43-6.47,44.42-15.52c11.14-7.77,20.59-18.74,24.04-32.11,3.9-15.13-.59-31.6-9.78-43.96-7.92-10.65-19.26-18.5-31.82-22.66-12.64-4.19-26.49-4.5-39.16-.27-12.79,4.28-23.87,12.69-32.28,23.14s-14.56,23.24-17.55,36.52c-2.72,12.05-3.23,26.82,4.54,37.22,1.8,2.4,3.98,4.43,6.52,6.03,1.15.72,2.2-1.09,1.06-1.81-10.82-6.85-12.68-21.13-11.46-32.85,1.33-12.83,6.24-25.52,13.16-36.35s16.46-20.29,27.99-26.24c11.45-5.92,24.5-7.92,37.19-5.73s24.45,8.05,33.63,16.88c10.42,10.02,17.26,24.13,17.28,38.71s-6.85,26.29-16.82,35.55c-10.62,9.87-24.18,16.08-38.21,19.3-15.41,3.54-32.25,3.71-47.27-1.63-13.51-4.81-25.4-14.94-30.01-28.81-1.08-3.23-1.71-6.58-1.85-9.98-.06-1.35-2.16-1.35-2.1,0h0Z"/>
    </g>
  </g>
</svg>