<svg width="auto" height="250" viewBox="0 0 97 157" fill="none" xmlns="http://www.w3.org/2000/svg">
<g clip-path="url(#clip0_1755_27518)">
<path d="M61.4393 11.7064C64.6721 12.5394 67.8308 13.655 70.8708 15.0532C71.5233 15.3507 72.0869 14.3838 71.4344 14.0863C68.3053 12.6435 65.0725 11.4833 61.7507 10.6206C61.0537 10.4421 60.7571 11.513 61.4541 11.6915L61.4393 11.7064Z" fill="#202020"/>
<path d="M63.5595 10.6654C61.4092 10.8141 59.1551 11.1413 57.3162 12.3313C55.685 13.3874 54.4838 15.0533 54.3206 17.0316C54.2613 17.7456 55.3735 17.7456 55.4329 17.0316C55.5663 15.3806 56.723 13.9824 58.1022 13.1643C59.7483 12.1826 61.6909 11.9148 63.5595 11.781C64.2713 11.7363 64.2713 10.6207 63.5595 10.6654Z" fill="#202020"/>
<path d="M63.397 12.3013C67.1786 13.8334 70.5894 16.8231 73.3922 19.7237C76.0466 22.4903 78.4045 26.0453 78.3452 30.0317C78.3156 31.9207 77.6927 33.9288 76.2542 35.208C74.5489 36.74 72.0575 36.8144 69.9665 36.1599C67.8756 35.5055 65.9774 34.0626 64.2868 32.6496C62.5962 31.2365 61.054 29.6449 60.2532 27.5476C59.4524 25.4503 59.0965 22.8919 58.7406 20.5715C58.5181 19.1138 58.3402 17.6561 58.1919 16.1835C58.1177 15.4696 57.5097 13.0301 58.1919 12.5393C58.7554 12.1228 58.1919 11.1411 57.6284 11.5724C57.0648 12.0038 56.8572 12.5393 56.8424 13.2533C56.8276 14.7705 57.0945 16.3472 57.2724 17.8495C57.5987 20.512 57.9694 23.2192 58.5923 25.8371C59.7341 30.6564 63.6195 34.3899 67.9794 36.5318C71.924 38.4804 76.9512 37.93 78.7901 33.4528C80.4807 29.3474 78.8346 24.781 76.3136 21.4045C74.7268 19.2625 72.7693 17.433 70.7228 15.7522C68.5577 13.9672 66.3333 12.2715 63.7085 11.2155C63.0411 10.9477 62.7594 12.0187 63.4119 12.2864L63.397 12.3013Z" fill="#202020"/>
<path d="M58.146 24.4685L57.5528 23.6802C57.2117 23.234 56.2774 23.472 56.5295 24.1116C57.2414 25.9411 57.9532 27.8004 58.146 29.7639L59.095 29.3622C57.5973 27.4881 56.6185 25.2866 56.1588 22.9216L55.0911 23.2191C55.4915 24.9148 55.8919 26.6253 56.2923 28.321L57.3155 27.8897C56.4406 26.4915 55.5804 25.0933 54.7055 23.6951C54.3793 23.1745 53.4895 23.5017 53.6823 24.1264C53.9344 24.9445 54.0085 25.718 53.9195 26.5658L54.9576 26.2832C54.6165 25.718 54.2754 25.1676 53.9344 24.6024C53.6526 24.1264 52.8963 24.3198 52.8963 24.885C52.8963 27.3691 49.5597 27.964 47.6615 27.7409C45.437 27.4881 43.3609 26.2684 41.9224 24.5578C40.6323 23.0108 39.5645 20.5566 40.4247 18.5634C41.7 15.6182 45.9709 19.2476 46.0302 21.3598C46.0451 22.0738 47.1573 22.0738 47.1424 21.3598C47.0831 19.0096 44.5176 16.5851 42.2339 16.3322C39.9501 16.0793 38.8824 18.5783 39.0455 20.5417C39.4163 25.242 44.1172 28.9755 48.6995 28.9011C51.0278 28.8565 54.0085 27.5922 54.0085 24.8702L52.9705 25.1528C53.3115 25.718 53.6526 26.2684 53.9937 26.8336C54.3051 27.3393 54.9724 27.0865 55.0318 26.551C55.1356 25.6139 55.0318 24.7065 54.75 23.8141L53.7268 24.2454C54.6017 25.6436 55.4618 27.0418 56.3368 28.44C56.6778 28.9755 57.4935 28.6334 57.36 28.0087C56.9596 26.313 56.5592 24.6024 56.1588 22.9067C55.9957 22.2076 54.9576 22.5051 55.0911 23.2042C55.5805 25.7626 56.6778 28.0979 58.3091 30.1357C58.6057 30.5076 59.3027 30.2101 59.2582 29.7341C59.0506 27.6517 58.3536 25.718 57.5973 23.7843L56.574 24.2157L57.1672 25.004C57.5973 25.5693 58.5612 25.004 58.1311 24.4388L58.146 24.4685Z" fill="#202020"/>
<path d="M76.2241 24.3938C77.6032 25.6879 79.5904 24.9293 81.0881 24.2897C82.9715 23.4865 84.7955 22.3709 85.9077 20.586C86.931 18.9349 87.1534 16.9566 86.2933 15.1865C85.4332 13.4165 83.7723 12.0332 82.0965 11.2299C80.317 10.3821 77.8701 10.4267 76.8469 12.3901C76.5206 13.0297 77.4697 13.595 77.8108 12.9554C78.8637 10.9176 81.4292 11.9588 82.8232 12.9702C84.3358 14.071 85.8336 15.6774 85.7298 17.6706C85.626 19.7976 84.0096 21.4487 82.2745 22.4602C81.3996 22.9659 80.4653 23.3824 79.5014 23.7096C78.7154 23.9773 77.6773 24.2302 76.9952 23.6055C76.4762 23.1146 75.6902 23.903 76.2092 24.3938H76.2241Z" fill="#202020"/>
<path d="M70.6927 16.7482C71.8642 17.9233 75.9275 20.3924 76.9655 17.9976C78.1816 15.2161 75.4678 12.3007 73.5844 10.6199C68.9279 6.49967 60.7717 3.01905 55.4182 7.64501C52.2299 10.4117 49.2195 13.2229 45.6901 15.5731C42.1606 17.9233 38.6905 19.7677 34.9386 21.3741C32.7142 22.3261 29.2441 24.2895 30.6826 27.3239C31.8541 29.808 35.8729 29.1089 37.9787 28.6775C41.7899 27.904 45.0376 25.8216 47.692 23.0252C50.5393 20.0206 52.8972 16.4953 56.6936 14.6063C57.3312 14.279 56.7677 13.3271 56.13 13.6394C51.6515 15.8706 49.1305 20.3032 45.5418 23.5904C43.3322 25.6134 40.6184 27.0264 37.6821 27.6065C36.3919 27.8594 34.6124 28.2015 33.3074 27.8297C29.9114 26.8777 32.1952 23.8879 34.1675 22.9211C39.4913 20.3329 44.6223 17.8935 49.3974 14.2939C51.5626 12.6577 53.5645 10.8728 55.5517 9.02833C56.7381 7.92762 57.9541 6.94591 59.5705 6.61867C61.2759 6.27656 63.1444 6.64842 64.7905 7.09465C67.9195 7.9425 70.841 9.57869 73.2137 11.795C74.4742 12.9849 76.0016 14.5765 76.1054 16.4061C76.2537 19.2025 72.4129 16.9118 71.449 15.945C70.9448 15.4392 70.1588 16.2276 70.663 16.7333L70.6927 16.7482Z" fill="#202020"/>
<path d="M51.1919 12.4946C50.6432 8.38921 49.7683 4.34335 48.5226 0.401618C48.4336 0.104128 48.137 -0.0446162 47.8404 0.0148817C47.1138 0.163626 47.0248 0.951973 47.1286 1.56183C47.3214 2.69229 47.6031 3.82275 47.8404 4.9532C48.315 7.1695 48.7747 9.3858 49.2492 11.617L50.3169 11.3195C48.8488 7.39262 45.3491 4.38798 41.2116 3.64425C40.5146 3.51038 40.218 4.59622 40.915 4.71521C44.6521 5.38456 47.8997 8.03222 49.2492 11.6021C49.5013 12.2714 50.4652 12.0186 50.3169 11.3046C49.9314 9.51967 49.5606 7.71986 49.1751 5.93492C48.9971 5.0722 48.8192 4.22436 48.6264 3.36164C48.5226 2.90053 48.4336 2.42455 48.3298 1.96344C48.2853 1.74032 48.1963 1.48745 48.1815 1.26434V1.13047C48.2112 0.966848 48.1815 0.951973 48.1222 1.08584L47.44 0.699107C48.656 4.55159 49.5458 8.49333 50.0648 12.4946C50.1538 13.1937 51.266 13.2085 51.1771 12.4946H51.1919Z" fill="#202020"/>
<path d="M65.5463 36.7547C66.7772 41.3509 67.9932 45.9471 69.2241 50.5434C69.402 51.2425 70.4846 50.945 70.2918 50.2459C69.0609 45.6497 67.8449 41.0534 66.6141 36.4572C66.4361 35.7581 65.3536 36.0556 65.5463 36.7547Z" fill="#202020"/>
<path d="M37.5931 30.9685C37.5931 30.9685 40.2327 31.8758 40.4997 31.9948C41.4784 32.4113 42.4275 32.917 43.3173 33.4823C45.2006 34.6722 46.8912 36.1597 48.3445 37.8554C51.429 41.4699 53.2679 45.962 54.217 50.5879L55.2847 50.2904C55.1216 49.7847 54.9733 49.2641 54.8102 48.7584C54.6026 48.0741 53.52 48.3716 53.7424 49.0558C53.9056 49.5616 54.0539 50.0822 54.217 50.5879C54.4246 51.2721 55.433 50.9895 55.2847 50.2904C54.217 45.0546 51.9926 40.0122 48.2852 36.1299C46.5649 34.3301 44.563 32.7981 42.3534 31.6527C41.2708 31.0875 40.1289 30.6115 38.9722 30.2545C38.3197 30.0463 37.0296 29.5108 36.6292 30.4181C36.3474 31.0726 37.3113 31.6378 37.5931 30.9834V30.9685Z" fill="#202020"/>
<path d="M70.3653 49.3093C69.8167 49.1903 69.3273 49.2796 68.8676 49.6217C68.3634 50.0084 68.2151 50.6629 67.7405 51.0645C66.8063 51.8528 65.1602 51.4215 64.0925 51.1835C60.8596 50.4546 57.6416 49.696 54.4088 48.9523L54.2605 50.053C54.4829 50.0828 54.7202 50.0976 54.9426 50.1274C55.6544 50.2018 55.6544 49.0862 54.9426 49.0118C54.7202 48.9821 54.4829 48.9672 54.2605 48.9374C53.6376 48.8631 53.5042 49.8894 54.1122 50.0381C57.345 50.7819 60.563 51.5256 63.7959 52.2693C64.8932 52.5222 66.0648 52.7453 67.177 52.5073C67.6664 52.4032 68.1409 52.1949 68.5117 51.8528C68.9417 51.4512 69.3273 50.2166 70.0539 50.3803C70.7806 50.5439 71.0475 49.458 70.3505 49.3093H70.3653Z" fill="#202020"/>
<path d="M69.5217 49.8442C72.7546 57.3707 74.6972 65.3881 75.3053 73.5542C75.3646 74.2681 76.4026 74.283 76.4175 73.5542C76.4175 73.2567 76.4323 72.9592 76.4471 72.6617C76.462 71.9477 75.3497 71.9477 75.3349 72.6617C75.3349 72.9592 75.3201 73.2567 75.3053 73.5542H76.4175C75.7946 65.1798 73.7926 56.984 70.4857 49.279C70.2039 48.6245 69.24 49.1898 69.5217 49.8442Z" fill="#202020"/>
<path d="M34.656 30.2691C34.5225 32.5449 33.8997 34.7463 33.529 36.9924C33.1582 39.2384 33.2027 41.6034 33.3214 43.9239C33.351 44.6378 34.4632 44.6378 34.4336 43.9239C34.3149 41.5291 34.2556 39.164 34.6857 36.7841C35.0712 34.6124 35.6348 32.4705 35.7682 30.2542C35.8127 29.5403 34.7005 29.5403 34.656 30.2542V30.2691Z" fill="#202020"/>
<path d="M38.2002 32.2772C44.1765 40.8152 48.8182 52.685 41.9224 62.0708C41.4924 62.6509 42.4563 63.2013 42.8863 62.636C50.0045 52.9379 45.348 40.5772 39.1641 31.712C38.7637 31.1319 37.785 31.6823 38.2002 32.2772Z" fill="#202020"/>
<path d="M74.979 74.0893C63.931 71.5904 52.883 69.1807 41.8054 66.8305C41.1084 66.6818 40.8118 67.7528 41.5088 67.9015C52.5864 70.2517 63.6344 72.6762 74.6824 75.1602C75.3794 75.3239 75.676 74.238 74.979 74.0893Z" fill="#202020"/>
<path d="M57.4058 112.659C53.9802 120.052 49.8279 127.102 46.684 134.614C45.3939 137.723 45.8684 141.233 46.4468 144.461C47.1586 148.477 47.9594 152.3 46.6544 156.286L47.6776 156.152C45.2456 150.931 45.1269 145.041 47.3217 139.716H46.254C46.4023 140.236 46.5654 140.742 46.7137 141.263C46.9213 141.947 47.989 141.649 47.7814 140.965C47.6331 140.445 47.47 139.939 47.3217 139.418C47.1586 138.853 46.4468 138.927 46.254 139.418C43.9406 145.026 44.163 151.229 46.7285 156.717C46.951 157.178 47.6035 157 47.7518 156.583C48.7898 153.415 48.6267 150.247 48.0632 147.004C47.4255 143.345 46.2095 139.121 47.5293 135.491C50.3618 127.772 54.9441 120.662 58.3845 113.209C58.6811 112.555 57.7321 111.99 57.4206 112.644L57.4058 112.659Z" fill="#202020"/>
<path d="M56.5597 114.876C60.4451 125.333 64.6863 135.789 66.5548 146.841C66.6735 147.525 67.5781 147.258 67.6522 146.692C67.7264 146.068 67.6374 145.636 67.3705 145.071C67.0739 144.417 66.1248 144.982 66.4065 145.636L66.5252 146.692L67.6226 146.544C65.754 135.492 61.498 125.035 57.6274 114.578C57.3753 113.909 56.3076 114.207 56.5597 114.876Z" fill="#202020"/>
<path d="M64.4198 137.871C66.1103 142.349 67.0743 147.064 67.2226 151.838C67.2374 152.314 67.3857 153.207 66.6739 152.671C66.2586 152.359 65.9621 151.928 65.7544 151.452C65.2947 150.41 65.3392 149.235 65.4578 148.12C65.7396 145.547 66.1548 142.988 66.5107 140.415C66.6145 139.716 65.532 139.403 65.443 140.117C65.2206 141.783 64.9833 143.434 64.7609 145.1C64.5681 146.513 64.2715 147.971 64.2715 149.414C64.2715 150.634 64.5532 151.883 65.3096 152.85C65.8286 153.504 66.8963 154.427 67.7861 153.891C68.6759 153.356 68.3496 151.66 68.2903 150.797C68.2013 149.295 68.0382 147.778 67.8157 146.29C67.3412 143.3 66.5552 140.385 65.4875 137.559C65.2354 136.89 64.1677 137.187 64.4198 137.856V137.871Z" fill="#202020"/>
<path d="M55.5819 105.876C52.4528 116.11 49.5314 126.418 46.8324 136.785C46.6545 137.484 47.7222 137.782 47.9002 137.083C50.5991 126.715 53.5205 116.422 56.6496 106.174C56.8572 105.49 55.7895 105.192 55.5819 105.876Z" fill="#202020"/>
<path d="M75.3336 74.819C85.2694 80.8729 92.6842 90.6157 95.9022 101.816C96.095 102.5 97.1775 102.218 96.9699 101.519C93.6778 90.0356 86.0702 80.0548 75.8972 73.8522C75.2891 73.4803 74.7256 74.4472 75.3336 74.819Z" fill="#202020"/>
<path d="M28.6955 91.4782C26.8715 90.913 24.8547 90.1842 23.5645 88.6967C22.0519 86.9564 22.5413 84.7996 23.342 82.851C25.344 78.0168 28.8141 73.9561 32.7736 70.6391C33.3223 70.178 32.5364 69.3897 31.9877 69.8508C27.5981 73.5248 23.4459 78.359 21.7553 83.9369C21.1769 85.8557 21.3697 87.8489 22.7044 89.3958C24.1428 91.0766 26.3524 91.9245 28.3989 92.5492C29.0811 92.7574 29.3777 91.6865 28.6955 91.4782Z" fill="#202020"/>
<path d="M72.7241 75.0715C77.6772 82.9252 78.9525 92.6085 79.9164 101.667C79.9906 102.366 81.1028 102.381 81.0286 101.667C80.0499 92.4152 78.7449 82.5385 73.688 74.5063C73.3024 73.8964 72.3385 74.4617 72.7241 75.0715Z" fill="#202020"/>
<path d="M64.4038 72.796V72.6621C64.3297 72.8406 64.2852 73.0191 64.2407 73.1976C63.7365 73.1084 63.6178 73.3017 63.8848 73.7629C63.9441 74.0752 63.9886 74.3876 64.0182 74.7148C64.1072 75.3693 64.1665 76.0387 64.2259 76.6931C64.3 77.7195 64.3297 78.7607 64.3297 79.8019C64.3297 82.0331 64.1814 84.2642 63.9293 86.4805C63.3954 91.0024 62.3425 95.4498 60.8447 99.7485C60.6074 100.433 61.6752 100.715 61.9124 100.046C63.8996 94.364 65.0711 88.4142 65.3677 82.4049C65.516 79.5193 65.4419 76.6039 64.9822 73.748C64.8932 73.1679 64.8339 72.1415 64.0182 72.1564C63.4695 72.1564 63.2471 72.6324 63.3213 73.1084C63.4251 73.8224 64.5076 73.51 64.389 72.8109L64.4038 72.796Z" fill="#202020"/>
<path d="M52.2449 69.8062C50.8065 70.9813 50.1688 72.7216 49.6201 74.4471C48.8193 76.9608 48.1075 79.5193 47.4995 82.0777C46.3131 87.0457 45.4678 92.0882 44.934 97.1752H46.0462C46.0758 96.8926 46.0907 96.61 46.1203 96.3274C46.1796 95.6134 45.0674 95.6134 45.0081 96.3274C44.9785 96.61 44.9636 96.8926 44.934 97.1752C44.8746 97.8892 45.972 97.8743 46.0462 97.1752C46.5504 92.3559 47.3512 87.5812 48.4486 82.8809C48.9824 80.6348 49.5756 78.4185 50.2429 76.2022C50.8361 74.2091 51.3551 71.963 53.0309 70.5946C53.5944 70.1483 52.7936 69.36 52.2449 69.8062Z" fill="#202020"/>
<path d="M44.5184 67.8875C41.1966 70.9813 39.0908 75.2206 37.4151 79.3854C35.5465 84.0114 34.2119 88.8456 33.1293 93.7095C32.981 94.4086 34.0488 94.7061 34.1971 94.007C35.2203 89.3959 36.4808 84.8146 38.1862 80.3969C39.8916 75.9792 41.9232 71.7994 45.2747 68.6758C45.7937 68.1849 45.0078 67.3966 44.4887 67.8875H44.5184Z" fill="#202020"/>
<path d="M37.5933 46.3493C28.7994 39.4773 19.0712 33.944 8.67574 29.9279L8.37915 30.9988C8.64608 31.0435 8.91302 31.103 9.19478 31.1476C9.89177 31.2814 10.1884 30.2105 9.49137 30.0766C9.22444 30.032 8.9575 29.9725 8.67574 29.9279C7.96393 29.794 7.71182 30.746 8.37915 30.9988C18.5819 34.9406 28.1766 40.3846 36.8074 47.1376C37.3709 47.569 38.1569 46.7955 37.5933 46.3493Z" fill="#202020"/>
<path d="M7.96405 29.7494C10.5147 23.279 15.3047 18.0283 18.1964 11.7364C18.3151 11.4687 18.2854 11.1266 18.0036 10.9778C17.8257 10.8886 17.6477 10.7845 17.4846 10.6952C16.8618 10.3531 16.2982 11.3199 16.9211 11.662C17.099 11.7513 17.277 11.8554 17.4401 11.9447L17.2473 11.1861C14.3259 17.5821 9.49149 22.9071 6.91115 29.4668C6.64422 30.1361 7.72678 30.4187 7.97888 29.7643L7.96405 29.7494Z" fill="#202020"/>
<path d="M31.9282 3.1686C28.725 1.05642 25.1659 2.15713 21.9924 3.70408C19.2786 5.02791 16.7575 6.96159 15.7343 9.90673C15.586 10.3232 16.0309 10.6802 16.4165 10.591C18.8782 9.99598 21.2954 9.19276 23.6088 8.15155C25.507 7.31857 27.4645 6.33686 28.5025 4.4478C28.6508 4.18006 28.5767 3.83795 28.3098 3.6892C26.9306 2.90086 25.4625 3.59996 24.1871 4.26931C22.5114 5.16178 20.8208 6.05424 19.1451 6.94671C18.5074 7.28883 19.071 8.24079 19.7086 7.91355C21.0433 7.19958 22.3779 6.50048 23.7126 5.7865C24.81 5.2064 26.5006 3.9272 27.7611 4.64117L27.5683 3.88257C26.5747 5.66751 24.5875 6.53023 22.808 7.3037C20.6577 8.24079 18.4185 8.95477 16.1347 9.50512L16.8169 10.1893C17.7066 7.60119 20.0052 5.93525 22.3483 4.74529C25.2104 3.31734 28.4581 2.18688 31.3646 4.10569C31.9578 4.5073 32.5213 3.54046 31.9282 3.13885V3.1686Z" fill="#202020"/>
<path d="M18.0927 8.29983C17.8999 8.96918 17.6775 9.48979 17.3364 10.0996C17.1733 10.3971 16.9953 10.6797 16.8025 10.9475C16.6987 11.0962 16.6691 11.1409 16.5504 11.2747C16.4318 11.4086 16.3132 11.5573 16.1945 11.6912C15.9869 11.9143 15.9721 12.2564 16.1945 12.4796C16.4021 12.6878 16.7729 12.7027 16.9805 12.4796C17.9889 11.3788 18.7452 10.055 19.1604 8.61219C19.2346 8.32958 19.0566 7.98747 18.7749 7.92797C18.4931 7.86847 18.1817 8.01721 18.0927 8.3147V8.29983Z" fill="#202020"/>
<path d="M17.2916 8.76127C11.0187 15.3655 5.5614 22.6391 0.104135 29.9276C-0.325922 30.5077 0.637998 31.0581 1.06805 30.4929C6.46601 23.2936 11.8788 16.0795 18.0775 9.56449C18.5669 9.04388 17.7809 8.25554 17.2916 8.77614V8.76127Z" fill="#202020"/>
<path d="M0.281102 31.296C7.19167 34.9402 14.0281 38.7035 20.8052 42.6006C24.1418 44.5194 27.4636 46.468 30.7558 48.4314C32.4019 49.4131 34.048 50.4097 35.694 51.4211C36.6283 51.9864 37.8295 53.1912 38.9862 52.864C39.1938 52.8045 39.4162 52.5665 39.4014 52.3285V52.15C39.3421 51.8674 39.2235 51.7186 38.9714 51.6145L38.7786 51.5401C38.5561 51.4509 38.2595 51.5996 38.1557 51.793L38.0964 51.912C37.7553 52.5516 38.7193 53.102 39.0603 52.4772L39.1197 52.3582L38.4968 52.6111L38.6896 52.6855L38.2744 52.15V52.3285C38.4375 52.15 38.571 51.9715 38.7044 51.793C38.1409 51.9566 36.4503 50.5882 35.961 50.2758C35.1453 49.7701 34.3149 49.2792 33.4993 48.7735C32.0608 47.9108 30.6075 47.0332 29.169 46.1853C26.0697 44.3409 22.9555 42.5262 19.8264 40.7413C13.5684 37.1714 7.23615 33.7057 0.859454 30.3292C0.221784 30.0019 -0.341739 30.9539 0.295932 31.296H0.281102Z" fill="#202020"/>
<path d="M42.0705 58.6648C43.6276 55.9874 44.6657 53.0274 45.2885 49.993C45.4368 49.2939 44.3543 48.9964 44.2208 49.6955C43.6276 52.6407 42.634 55.4966 41.1214 58.0996C40.7655 58.7243 41.7146 59.2895 42.0853 58.6648H42.0705Z" fill="#202020"/>
<path d="M44.9789 46.3485C45.7648 50.6769 44.4895 55.2137 41.5236 58.4712C41.049 59.0067 41.8202 59.795 42.3096 59.2595C45.5572 55.6896 46.9067 50.7811 46.0466 46.051C45.9131 45.3519 44.8454 45.6494 44.9789 46.3485Z" fill="#202020"/>
<path d="M72.1895 54.649C71.8039 55.6753 73.3017 56.4637 73.9394 56.9992C74.9923 57.8768 76.0452 58.7692 77.1129 59.6468C79.2187 61.4169 81.3393 63.1721 83.4451 64.9421L83.6972 64.005C82.2736 64.5852 80.9241 65.2991 79.6932 66.2213C79.1297 66.6378 78.581 67.0841 78.062 67.5749C77.7654 67.8575 77.4688 68.155 77.187 68.4525C77.0387 68.6161 76.6087 69.3152 76.3714 69.2855L76.846 69.5681L76.7866 69.4789L76.846 69.9102L76.6532 70.1036L75.971 69.7168L76.0007 69.7912C76.2676 70.4457 77.3353 70.1631 77.0684 69.4937L77.0387 69.4194C76.9201 69.1219 76.668 68.9582 76.3566 69.0326C75.6893 69.1814 75.5261 70.1333 76.2083 70.3862C77.0832 70.7134 77.8099 69.3896 78.2993 68.8839C79.9157 67.2477 81.8435 65.9536 83.979 65.0909C84.32 64.957 84.587 64.4513 84.2311 64.1538C82.3774 62.6069 80.5385 61.0599 78.6848 59.513C77.7802 58.7544 76.8756 57.9958 75.971 57.2372C75.5113 56.8653 75.0664 56.4786 74.6067 56.1067C74.4881 56.0026 73.2127 55.0506 73.2572 54.9316C73.5093 54.2623 72.4416 53.9648 72.1895 54.6341V54.649Z" fill="#202020"/>
<path d="M72.1598 54.113C76.6532 56.835 80.9982 59.8099 85.1653 63.0377C85.7288 63.469 86.5148 62.6807 85.9513 62.2493C81.7249 58.9621 77.3057 55.9277 72.7233 53.1461C72.1153 52.7743 71.5518 53.7411 72.1598 54.113Z" fill="#202020"/>
<path d="M83.8901 63.2317C83.8901 63.2317 83.9346 63.2763 83.9643 63.3061L83.8753 63.1871C83.8753 63.1871 83.9198 63.2615 83.9346 63.2912L83.8753 63.1573C83.8753 63.1573 83.905 63.2466 83.905 63.2912V63.1425C83.905 63.1425 83.905 63.2615 83.8901 63.3061V63.1573C83.8901 63.1573 83.8901 63.2912 83.8605 63.3507L83.9198 63.2168C83.9198 63.2168 83.8605 63.3358 83.816 63.3953L83.905 63.2763C83.905 63.2763 83.8308 63.3656 83.7715 63.4102L83.8901 63.321C83.8901 63.321 83.8012 63.3805 83.7567 63.3953L83.8901 63.3358C83.8901 63.3358 83.816 63.3656 83.7715 63.3656H83.9198C83.9198 63.3656 83.8308 63.3656 83.7863 63.3507H83.9346C83.9346 63.3507 83.905 63.3656 83.905 63.3507C83.7567 63.321 83.6084 63.3358 83.4749 63.4102C83.3563 63.4846 83.2525 63.6036 83.2228 63.7374C83.1932 63.8862 83.1932 64.0349 83.2821 64.1688C83.3563 64.2878 83.4749 64.3919 83.6084 64.4217C83.7122 64.4366 83.816 64.4663 83.905 64.4514C83.9791 64.4514 84.0533 64.4514 84.1126 64.4217C84.1719 64.3919 84.2461 64.377 84.3202 64.3473C84.3944 64.3176 84.4537 64.2729 84.513 64.2283C84.5723 64.1837 84.6316 64.1391 84.6761 64.0796C84.8096 63.9159 84.8986 63.7523 84.9727 63.559C85.0468 63.3656 85.032 63.1573 85.0024 62.964C84.9875 62.8599 84.943 62.7557 84.8986 62.6665C84.8541 62.5772 84.7799 62.488 84.6909 62.4136C84.5723 62.3095 84.4537 62.25 84.2905 62.25C84.1571 62.25 83.994 62.3095 83.8901 62.4136C83.7863 62.5177 83.727 62.6665 83.727 62.8152C83.727 62.964 83.7863 63.1127 83.8901 63.2168V63.2317Z" fill="#202020"/>
<path d="M69.6833 48.5357C69.3274 48.6101 69.0456 48.9075 68.9566 49.2645C68.8677 49.5918 68.927 49.9339 69.0753 50.2314C69.2087 50.514 69.4757 50.7668 69.7871 50.8263C70.1875 50.9156 70.5731 50.7371 70.8845 50.4991C71.4035 50.0678 71.5666 49.2943 71.4183 48.6547C71.2404 47.8961 70.5731 47.4052 69.8168 47.3755C69.0604 47.3457 68.319 47.7771 67.9334 48.4167C67.5478 49.0563 67.6072 49.9636 68.052 50.5884C68.4969 51.2131 69.2977 51.6593 70.0689 51.3618C70.7362 51.109 71.1218 50.4694 71.1662 49.7703C71.2107 49.0712 70.7658 48.2977 70.0095 48.2233C69.4905 48.1787 68.9715 48.6249 68.9715 49.1455C68.9715 49.6513 69.4312 50.0529 69.9206 50.0082C70.2023 49.9934 70.4544 49.8446 70.6027 49.6066C70.751 49.3686 70.662 48.9819 70.4099 48.848C70.1578 48.7142 69.8019 48.7737 69.6536 49.0414V49.0712C69.6536 49.0712 69.7129 48.967 69.7574 48.9373C69.8761 48.8629 69.8612 48.9075 69.8168 48.9075C69.9799 48.8778 69.9057 48.9075 69.8612 48.9075C70.0095 48.9075 69.9651 48.9224 69.9206 48.9075C69.8168 48.8778 70.0392 48.9819 69.9502 48.9075C69.9502 48.9075 70.054 49.0117 69.9947 48.9373L70.054 49.0117C70.054 49.0117 70.0392 48.9819 70.0689 49.0712V49.0414C70.0689 49.0414 70.0689 49.1604 70.0689 49.2199C70.0985 49.1158 70.0244 49.3092 70.0689 49.2497C70.1133 49.1902 69.9651 49.3538 70.054 49.2794C69.9502 49.3687 69.9947 49.324 70.0392 49.2943C70.1133 49.2645 69.9057 49.3389 70.0095 49.2943C70.0985 49.2645 69.965 49.2943 69.965 49.2943C70.0837 49.2943 69.8316 49.2645 69.9502 49.2943C69.7871 49.2348 69.9502 49.2943 69.9947 49.324C70.054 49.3538 69.9502 49.3538 69.9502 49.2794C69.9502 49.2794 69.9947 49.324 70.0095 49.3389C70.0095 49.3389 70.0392 49.3687 70.0392 49.3835C69.9947 49.3835 69.965 49.2645 70.0095 49.3389C70.0244 49.3686 70.054 49.4133 70.0689 49.443C70.0985 49.5025 70.0244 49.2943 70.054 49.3984C70.054 49.4281 70.0689 49.443 70.0837 49.4728C70.0837 49.5025 70.0837 49.562 70.1133 49.6066C70.0689 49.5174 70.1133 49.4876 70.1133 49.562C70.1133 49.5769 70.1133 49.5918 70.1133 49.6215C70.1133 49.6661 70.1133 49.7108 70.1133 49.7554C70.1133 49.8149 70.0689 49.8744 70.1133 49.7108C70.1133 49.7405 70.1133 49.7703 70.0985 49.7851C70.0985 49.8298 70.0837 49.8744 70.0689 49.919C70.0689 49.9339 70.054 49.9636 70.0392 49.9785C70.0244 50.0529 70.0985 49.8446 70.054 49.9339C70.0392 49.9785 70.0095 50.0083 69.9947 50.0529C69.9947 50.0678 69.9799 50.0826 69.965 50.0975C69.8909 50.2165 70.0392 50.0231 69.965 50.0975C69.9354 50.1272 69.9057 50.1719 69.8761 50.2016C69.8761 50.2016 69.8464 50.2314 69.8316 50.2314C69.7574 50.3057 69.9354 50.1719 69.8761 50.2016C69.8316 50.2165 69.8019 50.2462 69.7574 50.276C69.6981 50.3057 69.7129 50.2611 69.8019 50.2611C69.7723 50.2611 69.7426 50.276 69.7278 50.2909C69.6981 50.2909 69.6685 50.2909 69.6536 50.3057C69.7574 50.2611 69.7574 50.3057 69.6981 50.3057C69.6388 50.3057 69.5795 50.3057 69.535 50.3057C69.4164 50.3057 69.6685 50.3355 69.5498 50.3057C69.535 50.3057 69.5053 50.3057 69.4905 50.2909C69.4608 50.2909 69.4312 50.276 69.4015 50.2611C69.2977 50.2314 69.5053 50.3206 69.4015 50.2611C69.357 50.2314 69.2977 50.2016 69.2532 50.1719C69.2532 50.1719 69.2087 50.1272 69.1939 50.1272L69.2532 50.1719C69.2532 50.1719 69.2236 50.1421 69.2087 50.1272C69.1643 50.0826 69.1198 50.0529 69.0901 50.0082C69.0753 49.9934 69.0604 49.9785 69.0456 49.9488C69.016 49.9041 69.016 49.919 69.0753 49.9785C69.0753 49.9636 69.0456 49.9339 69.0308 49.919C69.0011 49.8744 68.9715 49.8149 68.9418 49.7703C68.9418 49.7554 68.927 49.7256 68.9122 49.7108C68.8528 49.6066 68.9418 49.8 68.9122 49.7256C68.9122 49.6661 68.8677 49.6215 68.8528 49.562C68.8528 49.5323 68.8528 49.5025 68.838 49.4728C68.8083 49.3686 68.8528 49.4281 68.838 49.4728C68.838 49.4281 68.838 49.3538 68.838 49.2943C68.838 49.2645 68.838 49.2199 68.838 49.1902C68.838 49.1158 68.8677 49.1902 68.838 49.2348C68.8677 49.205 68.8677 49.1009 68.8825 49.0712C68.8825 49.0414 68.9122 48.9968 68.9122 48.9819C68.8677 49.086 68.9122 49.0414 68.9122 48.9819C68.9418 48.9373 68.9715 48.8927 69.0011 48.8332C69.0456 48.7588 68.9863 48.8629 68.9715 48.8629C68.9863 48.8629 69.016 48.8034 69.0308 48.7885C69.0753 48.7439 69.1049 48.7142 69.1494 48.6696C69.1494 48.6696 69.1939 48.6398 69.1939 48.6249C69.1198 48.6695 69.1198 48.6844 69.1643 48.6547C69.1791 48.6547 69.1939 48.6249 69.2236 48.6101C69.2681 48.5803 69.3125 48.5506 69.357 48.5357C69.3867 48.5357 69.4015 48.5059 69.4312 48.4911C69.535 48.4316 69.3274 48.5208 69.4015 48.4911C69.4608 48.4911 69.5053 48.4464 69.5647 48.4316C69.624 48.4167 69.6833 48.4167 69.7426 48.3869C69.624 48.4316 69.6536 48.3869 69.7278 48.3869C69.7426 48.3869 69.7723 48.3869 69.7871 48.3869C69.8316 48.3869 69.9057 48.4018 69.9502 48.3869H69.8612C69.8612 48.3869 69.9057 48.3869 69.9206 48.3869C69.9354 48.3869 69.965 48.3869 69.9799 48.4018C70.0095 48.4018 70.0392 48.4167 70.0689 48.4316C69.965 48.3721 70.1727 48.4613 70.0689 48.4316C70.1133 48.4613 70.1578 48.4911 70.2171 48.5208C70.2913 48.5654 70.1875 48.4911 70.1727 48.4911C70.1727 48.5059 70.2172 48.5357 70.232 48.5506C70.232 48.5506 70.2616 48.5803 70.2765 48.5952C70.321 48.6398 70.3061 48.6844 70.2616 48.5654C70.2765 48.6101 70.321 48.6695 70.3506 48.7142C70.3506 48.729 70.3654 48.7439 70.3803 48.7737C70.3061 48.6547 70.3506 48.6844 70.3654 48.729C70.3803 48.7737 70.3951 48.8183 70.4099 48.8629C70.4099 48.8927 70.4099 48.9075 70.4099 48.9373C70.4248 49.0414 70.4099 48.8183 70.4099 48.8927C70.4099 48.9522 70.4099 48.9968 70.4099 49.0563C70.4099 49.1009 70.4099 49.1604 70.4099 49.205C70.4099 49.0117 70.4099 49.1753 70.4099 49.2348C70.4099 49.2794 70.3803 49.324 70.3654 49.3686C70.3358 49.4728 70.4248 49.2497 70.3654 49.3389C70.3654 49.3686 70.3358 49.3835 70.321 49.4133C70.321 49.4281 70.3061 49.443 70.2913 49.4579C70.2913 49.4728 70.2765 49.4876 70.2616 49.5025C70.232 49.5471 70.2468 49.5323 70.2913 49.4579C70.2468 49.4876 70.2172 49.5323 70.1875 49.562C70.143 49.6066 70.1133 49.5918 70.2171 49.5323C70.1875 49.5323 70.1727 49.562 70.143 49.5769C70.1133 49.5918 70.0837 49.6066 70.0689 49.6215C70.1578 49.5471 70.1578 49.5918 70.0985 49.6215C70.0689 49.6215 70.054 49.6215 70.0244 49.6364H69.9947C69.9354 49.6364 69.965 49.6364 70.0689 49.6364C70.0689 49.6364 70.0392 49.6364 70.0244 49.6364C69.9354 49.6364 70.1875 49.681 70.0689 49.6364C70.0095 49.6215 70.0837 49.6066 70.143 49.6661C70.143 49.6661 70.0392 49.5918 70.1282 49.6661C70.2172 49.7405 70.1133 49.6364 70.0837 49.6215C70.1727 49.6661 70.1578 49.7256 70.1133 49.6661C70.1133 49.6513 70.0837 49.6215 70.0837 49.6066C70.0392 49.5174 70.0837 49.5918 70.0837 49.6066C70.1282 49.6959 70.0837 49.6066 70.0837 49.5769C70.0837 49.5471 70.054 49.3984 70.0689 49.5025C70.0837 49.6066 70.0689 49.4728 70.0689 49.4281C70.0689 49.3538 70.1133 49.3835 70.0689 49.4876C70.0689 49.4876 70.0689 49.443 70.0837 49.4281C70.0985 49.3538 70.143 49.3984 70.054 49.4728C70.054 49.4728 70.0837 49.4281 70.0837 49.4133C70.0837 49.4876 69.9947 49.5174 70.0392 49.4728C70.1282 49.3835 69.9354 49.5323 70.0095 49.4876C70.0095 49.4876 70.0392 49.4728 70.054 49.4728C69.9502 49.5174 69.9354 49.5174 69.9799 49.5025C69.9947 49.5025 70.0095 49.5025 70.0244 49.5025C70.3061 49.443 70.4989 49.086 70.4099 48.8183C70.3061 48.5208 70.0244 48.3572 69.7278 48.4316L69.6833 48.5357Z" fill="#202020"/>
<path d="M31.1725 2.91578C26.5012 1.4432 20.9994 2.76703 17.6331 6.41128C16.862 7.24425 16.2688 8.27059 16.1502 9.43079C16.0612 10.2489 16.1947 11.4983 17.1437 11.7958C17.6183 11.9446 18.078 11.6917 18.4932 11.4983C19.1902 11.1711 19.8724 10.829 20.5694 10.4869C21.8595 9.86215 23.1645 9.22255 24.4547 8.59782C27.0054 7.34837 29.6302 6.15841 31.7212 4.18011C32.0178 3.89749 31.8695 3.34714 31.4691 3.24302C30.1048 2.88603 28.5921 3.16864 27.213 3.31739C25.8339 3.46613 24.4547 3.6595 23.1052 4.03136C21.0143 4.61147 17.6035 5.89067 17.5738 8.50858C17.5738 9.01431 18.167 9.20768 18.5229 8.91019C20.2431 7.42274 22.0523 6.06916 23.9505 4.83458L23.387 3.86774C21.6223 5.02795 20.0058 6.3964 18.5674 7.95822C18.167 8.40446 18.7008 9.22255 19.2347 8.83581C21.0291 7.54174 22.8086 6.24766 24.603 4.9387L23.9357 4.06111L19.6944 8.25571C19.2644 8.68707 19.8575 9.52004 20.3618 9.1333L26.0266 4.77509L25.3593 3.89749L21.3702 7.36324C20.9549 7.72023 21.3998 8.47883 21.904 8.30033C24.3954 7.42274 25.9377 5.0577 28.3549 4.09086L27.821 3.15377C26.8867 4.09086 25.8932 4.96845 24.8551 5.77167C24.3064 6.18816 24.7958 7.14013 25.4186 6.73852C26.8571 5.78655 28.2956 4.84946 29.734 3.89749L29.0667 3.0199L27.8655 4.2396C27.4058 4.70071 27.9841 5.39981 28.5328 5.1172L30.0009 4.3586L29.1853 3.73387C28.8442 5.13207 27.2871 5.41469 26.0711 5.6378C25.3741 5.77167 25.6707 6.84264 26.3677 6.70877C27.9841 6.41128 29.823 5.83117 30.2531 4.01649C30.3717 3.52563 29.8675 3.16864 29.4374 3.39176L27.9693 4.15036L28.6366 5.02795L29.8378 3.80825C30.2679 3.36201 29.7044 2.57366 29.1705 2.93065C27.732 3.88262 26.2936 4.81971 24.8551 5.77167L25.4186 6.73852C26.5457 5.8758 27.6134 4.95358 28.607 3.94212C28.9777 3.57025 28.607 2.79678 28.0731 3.00502C25.6411 3.97186 24.084 6.35178 21.6223 7.2145L22.1561 8.15159L26.1453 4.68584C26.6198 4.28423 25.9821 3.42151 25.4779 3.80825L19.8131 8.16646L20.4804 9.04406L24.7216 4.84946C25.1517 4.4181 24.5733 3.6 24.0543 3.97186C22.2599 5.26594 20.4804 6.56002 18.686 7.86897L19.3533 8.74657C20.7325 7.25912 22.2599 5.95017 23.9505 4.83458C24.5437 4.44785 23.995 3.48101 23.387 3.86774C21.4147 5.16182 19.5313 6.5749 17.7369 8.12184L18.686 8.52345C18.686 7.33349 19.9317 6.60464 20.866 6.09891C21.8892 5.54856 22.9866 5.19157 24.1136 4.9387C25.2407 4.68584 26.4122 4.52222 27.5837 4.40322C28.7553 4.28423 30.0454 4.03136 31.1725 4.32885L30.9204 3.39176C28.9777 5.23619 26.516 6.35178 24.1285 7.51199C22.8383 8.13671 21.5333 8.77632 20.2431 9.40104C19.5461 9.74316 18.864 10.0704 18.167 10.4125C17.7962 10.591 17.5293 10.8439 17.292 10.4423C17.1437 10.2043 17.2179 9.77291 17.2476 9.50517C17.4255 8.06234 18.5081 6.97651 19.6054 6.14354C20.6435 5.35519 21.7854 4.65609 23.0162 4.19498C25.5373 3.24302 28.3104 3.19839 30.8759 4.00161C31.5581 4.20986 31.8546 3.13889 31.1725 2.93065V2.91578Z" fill="#202020"/>
<path d="M24.186 6.15796C23.0145 6.60419 21.8281 7.09505 20.7456 7.73465C19.7965 8.28501 18.9067 8.99898 18.3877 9.99557C18.1208 10.5162 18.6546 10.9773 19.144 10.7542C19.6779 10.5162 20.0486 10.0551 20.2414 9.50471C20.3452 9.2221 20.1227 8.89486 19.8558 8.82049C19.5444 8.73124 19.2775 8.92461 19.1737 9.20722C19.0698 9.48984 18.8622 9.66833 18.5953 9.78733L19.3516 10.5459C19.7965 9.68321 20.5676 9.11798 21.3981 8.64199C22.3917 8.07676 23.4446 7.63053 24.4975 7.22892C24.7792 7.1248 24.972 6.85706 24.883 6.54469C24.8089 6.27695 24.4826 6.05384 24.2009 6.15796H24.186Z" fill="#202020"/>
<path d="M6.92554 30.2542L8.71992 31.1318C8.85338 31.1913 9.00168 31.2359 9.14997 31.1913C9.28344 31.1615 9.4169 31.0574 9.47622 30.9384C9.60969 30.6856 9.55037 30.3137 9.28344 30.1798L7.48907 29.3022C7.3556 29.2427 7.2073 29.1981 7.05901 29.2427C6.92554 29.2725 6.79208 29.3766 6.73276 29.4956C6.59929 29.7485 6.65861 30.1203 6.92554 30.2542Z" fill="#202020"/>
<path d="M45.5128 51.1831L46.1653 48.1189C46.2839 47.5388 45.4386 47.0926 45.1421 47.6876C44.6379 48.7437 44.3561 49.8295 44.2671 50.9897C44.2226 51.6144 45.2607 51.7632 45.3645 51.1385C45.5573 49.9485 45.7649 48.7437 45.9577 47.5537L44.8603 47.405C44.3116 51.8078 44.3561 56.642 41.8647 60.5094C41.4792 61.1192 42.4431 61.6696 42.8286 61.0746C45.4386 57.0436 45.409 52.0161 45.9725 47.405C46.0467 46.7802 44.9789 46.6315 44.8751 47.2562C44.6823 48.4462 44.4747 49.651 44.2819 50.841L45.3793 50.9897C45.4535 50.0377 45.6907 49.1155 46.0911 48.2528L45.0679 47.8215L44.4154 50.8856C44.2671 51.5847 45.3348 51.8822 45.4831 51.1831H45.5128Z" fill="#202020"/>
<path d="M84.2327 64.7782C84.5145 64.4807 84.8111 64.2129 85.1225 63.9452C85.1966 63.8857 85.2708 63.8262 85.3449 63.7667C85.3894 63.7369 85.4191 63.7072 85.4636 63.6774C85.3746 63.7518 85.5229 63.6328 85.4636 63.6774C85.4784 63.6774 85.5081 63.6477 85.5229 63.6328C85.686 63.5138 85.8491 63.3948 86.0271 63.2758L85.4636 62.309C84.9149 62.7255 84.3217 63.0676 83.6989 63.3353L84.4552 64.0939C84.6924 63.6774 84.9 63.2461 85.0632 62.7999C85.1373 62.6214 85.0632 62.3834 84.9149 62.2644C84.7666 62.1454 84.559 62.0561 84.381 62.1156C83.9065 62.309 83.5357 62.6065 83.254 63.023L84.2772 63.4543C84.2772 63.4543 84.292 63.4097 84.3069 63.3948C84.2772 63.4692 84.2624 63.4841 84.292 63.4395C84.3069 63.3948 84.3365 63.3651 84.3514 63.3205C84.3958 63.2461 84.4403 63.1717 84.4848 63.0973C84.4996 63.0676 84.5293 63.0378 84.559 62.9932C84.5886 62.9486 84.5886 62.9635 84.5293 63.023C84.5293 63.0081 84.559 62.9932 84.5738 62.9783C84.6331 62.904 84.6924 62.8445 84.7666 62.785C84.9742 62.5916 84.989 62.19 84.7666 61.9966C84.6628 61.8925 84.5145 61.833 84.3662 61.833C84.2179 61.833 84.0992 61.8925 83.9658 61.9966C83.7285 62.19 83.5654 62.4577 83.4616 62.7552C83.3578 63.0527 83.5802 63.38 83.8471 63.4395C84.1586 63.5138 84.4255 63.3502 84.5293 63.0527C84.559 62.9783 84.5145 63.0825 84.5145 63.0973C84.5145 63.0825 84.5441 63.0527 84.5441 63.023C84.5738 62.9783 84.5886 62.9486 84.6183 62.904C84.6628 62.8445 84.6183 62.9337 84.5886 62.9486C84.6035 62.9486 84.6183 62.9188 84.6331 62.904C84.6628 62.8593 84.7073 62.8296 84.7518 62.7999L83.9658 62.0115C83.6247 62.3387 83.3726 62.7404 83.2095 63.1717C83.165 63.2907 83.2095 63.4989 83.2688 63.6031C83.3281 63.7072 83.4171 63.7816 83.5357 63.8262C83.8027 63.9303 84.0844 63.8262 84.2327 63.6031C84.2624 63.5733 84.292 63.5287 84.3069 63.4989C84.2475 63.5733 84.2475 63.5882 84.2772 63.5436C84.2772 63.5287 84.3069 63.5138 84.3217 63.4989C84.3662 63.4394 84.4255 63.3948 84.4848 63.3502C84.5293 63.3205 84.5145 63.3205 84.4403 63.38C84.4552 63.38 84.47 63.3502 84.4848 63.3502C84.5145 63.3353 84.5441 63.3205 84.559 63.3056C84.5886 63.2907 84.6331 63.261 84.6628 63.2461C84.6776 63.2461 84.7073 63.2312 84.7221 63.2163C84.6331 63.2461 84.6183 63.261 84.6776 63.2312L83.9954 62.547C83.9954 62.547 83.9658 62.6362 83.9361 62.6957C83.9361 62.7255 83.9213 62.7404 83.9065 62.7701C83.9065 62.7404 83.951 62.6809 83.9065 62.7404C83.862 62.8445 83.8175 62.9337 83.773 63.0378C83.684 63.2312 83.5802 63.4097 83.4764 63.5882C83.3578 63.7964 83.3874 64.0939 83.5654 64.2575C83.6395 64.317 83.7137 64.3765 83.8175 64.4063C83.9658 64.4509 84.1141 64.4063 84.2475 64.3468C84.8704 64.0791 85.4636 63.7369 86.0123 63.3205C86.1309 63.2312 86.2199 63.142 86.2644 62.9932C86.294 62.8593 86.2792 62.6809 86.205 62.5619C86.0568 62.3239 85.7008 62.19 85.4487 62.3685C84.7221 62.8593 84.0548 63.4097 83.4468 64.0344C83.2391 64.2427 83.2243 64.6145 83.4468 64.8228C83.6692 65.031 84.0103 65.0459 84.2327 64.8228V64.7782Z" fill="#202020"/>
<path d="M76.3721 70.9507L77.2767 69.9541C77.3805 69.85 77.4399 69.7161 77.4399 69.5525C77.4399 69.4187 77.3805 69.255 77.2767 69.1509C77.1729 69.0468 77.0246 68.9873 76.8763 68.9873C76.728 68.9873 76.5797 69.0468 76.4759 69.1509L75.5713 70.1475C75.4675 70.2516 75.4082 70.3855 75.4082 70.5491C75.4082 70.683 75.4675 70.8466 75.5713 70.9507C75.6751 71.0549 75.8234 71.1144 75.9717 71.1144C76.12 71.1144 76.2683 71.0549 76.3721 70.9507Z" fill="#202020"/>
<path d="M68.8544 49.2941C68.8544 49.2941 68.7506 49.2792 68.6912 49.2792C68.5874 49.2792 68.4836 49.309 68.3946 49.3536C68.2612 49.428 68.1574 49.5619 68.1277 49.7106C68.0981 49.8296 68.0981 49.9188 68.1277 50.0378C68.1277 50.0378 68.1277 50.0527 68.1277 50.0676C68.1277 50.0973 68.1574 50.1271 68.1574 50.142C68.1574 50.1717 68.1722 50.2015 68.187 50.2163C68.2167 50.2758 68.2612 50.3205 68.3057 50.3651C68.3946 50.4543 68.4836 50.4989 68.5874 50.5287C68.6171 50.5287 68.6319 50.5287 68.6616 50.5436C68.7357 50.5436 68.8099 50.5733 68.884 50.5733C68.9582 50.5733 69.0323 50.5733 69.0916 50.5436C69.1213 50.5436 69.151 50.5436 69.1658 50.5287C69.2251 50.5138 69.2992 50.4841 69.3586 50.4543C69.4179 50.4246 69.4772 50.3799 69.5365 50.3353C69.5513 50.3205 69.5662 50.3056 69.5958 50.2907C69.6403 50.2461 69.6848 50.1866 69.7145 50.1271C69.7441 50.0825 69.759 50.023 69.7886 49.9635C69.7886 49.9635 69.7886 49.9486 69.7886 49.9337C69.7886 49.9188 69.7886 49.9188 69.7886 49.904C69.7886 49.8445 69.8035 49.785 69.8183 49.7255C69.8183 49.6957 69.8183 49.6809 69.8183 49.6511C69.8183 49.5916 69.8183 49.5024 69.7886 49.4429C69.7441 49.2941 69.6848 49.2049 69.5958 49.0859C69.5514 49.0412 69.492 48.9966 69.4475 48.952C69.4475 48.952 69.4327 48.952 69.4179 48.9371C69.3734 48.9074 69.3141 48.8925 69.2548 48.8628C69.2548 48.8628 69.2399 48.8628 69.2251 48.8628C69.1658 48.8628 69.1065 48.8479 69.0471 48.833H69.0175C68.9582 48.833 68.8988 48.833 68.8395 48.8628C68.8247 48.8628 68.795 48.8628 68.7802 48.8776C68.7209 48.9074 68.6467 48.9222 68.5874 48.9669C68.5429 48.9966 68.4688 49.0412 68.4243 49.1007C68.3946 49.1454 68.3502 49.19 68.3205 49.2346C68.3205 49.2346 68.3205 49.2495 68.3057 49.2644C68.2464 49.3834 68.2019 49.5172 68.2019 49.666C68.2019 49.8147 68.2315 49.8593 68.2908 49.9932C68.2908 49.9932 68.2908 49.9932 68.2908 50.0081C68.3205 50.0527 68.3502 50.0973 68.3798 50.1271C68.3798 50.1271 68.3798 50.1271 68.3946 50.142C68.4391 50.1717 68.4836 50.2163 68.5281 50.2461C68.5874 50.2758 68.6468 50.3056 68.7061 50.3205C68.7654 50.3353 68.8544 50.3502 68.9137 50.3502C68.9285 50.3502 68.9582 50.3502 68.973 50.3502C69.1065 50.3502 69.2399 50.3205 69.3586 50.2312C69.3586 50.2312 69.4475 50.1717 69.492 50.1271C69.5217 50.0973 69.5662 50.0527 69.581 50.0081C69.6107 49.9486 69.6403 49.8891 69.6552 49.8296C69.6848 49.7552 69.6848 49.6808 69.6552 49.6065C69.6552 49.5321 69.6255 49.4577 69.5958 49.3982C69.5662 49.3387 69.5069 49.2792 69.4475 49.2346C69.3882 49.19 69.3289 49.1454 69.2548 49.1305H69.1065C69.0027 49.1156 68.9137 49.1305 68.8247 49.19C68.7061 49.2644 68.6023 49.3834 68.5726 49.5172C68.5726 49.5172 68.5726 49.5321 68.5726 49.547L68.6319 49.4131C68.6319 49.4131 68.6319 49.4429 68.6171 49.4429L68.7061 49.3239C68.7061 49.3239 68.6912 49.3387 68.6764 49.3536L68.795 49.2644C68.795 49.2644 68.7654 49.2792 68.7506 49.2941L68.884 49.2346C68.884 49.2346 68.8544 49.2346 68.8247 49.2346H68.973C68.973 49.2346 68.9285 49.2197 68.8988 49.2197H69.0471C69.0471 49.2197 69.0027 49.2197 68.9878 49.2197L69.1213 49.2792C69.1213 49.2792 69.0916 49.2644 69.0768 49.2495L69.1954 49.3387C69.1954 49.3387 69.1806 49.3239 69.1658 49.309L69.2548 49.428C69.2548 49.428 69.2548 49.4131 69.2399 49.3982L69.2992 49.5321C69.2992 49.5321 69.2992 49.5024 69.2992 49.4875V49.6362C69.2992 49.6362 69.3141 49.6065 69.3141 49.5916V49.7403C69.3141 49.7403 69.3141 49.7106 69.3141 49.6809L69.2548 49.8147C69.2548 49.8147 69.2696 49.785 69.2844 49.7552L69.1954 49.8742C69.1954 49.8742 69.2251 49.8445 69.2399 49.8296L69.1213 49.9188C69.1213 49.9188 69.1658 49.8891 69.1806 49.8891L69.0471 49.9486C69.0471 49.9486 69.0916 49.9337 69.1213 49.9337H68.973C68.973 49.9337 69.0175 49.9486 69.0323 49.9486H68.884C68.884 49.9486 68.9285 49.9486 68.9433 49.9486L68.8099 49.8891C68.8099 49.8891 68.8395 49.904 68.8544 49.9188L68.7357 49.8296C68.7357 49.8296 68.7654 49.8593 68.7802 49.8742L68.6912 49.7552C68.6912 49.7552 68.7209 49.7998 68.7209 49.8147L68.6616 49.6809C68.6616 49.6809 68.6764 49.7403 68.6912 49.7701V49.6214C68.6912 49.6214 68.6764 49.6808 68.6764 49.7106V49.5619C68.6764 49.5619 68.6764 49.6214 68.6764 49.6511L68.7357 49.5172C68.7357 49.5172 68.7061 49.5619 68.6912 49.5767L68.7802 49.4577C68.7802 49.4577 68.7357 49.5024 68.7209 49.5172L68.8395 49.428C68.8395 49.428 68.7802 49.4577 68.7506 49.4726L68.884 49.4131C68.884 49.4131 68.8099 49.4429 68.7654 49.4429H68.9137C68.9137 49.4429 68.8247 49.4429 68.795 49.428H68.9433C68.9433 49.428 68.8692 49.428 68.8395 49.428L68.973 49.4875C68.973 49.4875 68.973 49.4875 68.9582 49.4875L69.0768 49.5767C69.0768 49.5767 69.062 49.5619 69.0471 49.547L69.1361 49.666L69.1213 49.6362L69.1806 49.7701C69.1806 49.7701 69.1806 49.7403 69.1806 49.7255V49.8742C69.1806 49.8742 69.1954 49.8593 69.1954 49.8445V49.9932H69.1806L69.1213 50.1271L69.0323 50.2461L68.9137 50.3353L68.7802 50.3948H68.6319V50.4097H68.4836V50.3948C68.5578 50.4246 68.6319 50.4246 68.7061 50.3948C68.7802 50.3948 68.8544 50.3651 68.9137 50.3353C68.973 50.3056 69.0323 50.2461 69.0768 50.1866C69.1213 50.1271 69.1658 50.0676 69.1806 49.9932V49.8445C69.1954 49.7403 69.1806 49.6511 69.1213 49.5619L69.0323 49.4429C69.0323 49.4429 68.884 49.3239 68.7802 49.2941H68.8544Z" fill="#202020"/>
<path d="M64.9394 34.7909C65.147 35.2371 65.3398 35.7726 65.5029 36.3081C65.666 36.8436 65.7847 37.4088 65.8588 37.9741C65.9033 38.2567 66.2741 38.45 66.541 38.3608C66.8524 38.2567 66.971 37.9889 66.9266 37.6766C66.7486 36.4866 66.3927 35.3264 65.8885 34.2257C65.7698 33.9579 65.3546 33.8687 65.1322 34.0323C64.8504 34.2108 64.8059 34.5083 64.9394 34.7909Z" fill="#202020"/>
<path d="M53.4902 109.134C53.7719 109.551 54.0092 109.982 54.202 110.443L54.1427 110.309C54.202 110.443 54.2465 110.577 54.291 110.711C54.3355 110.845 54.4096 110.964 54.5431 111.038C54.6617 111.113 54.8397 111.142 54.9731 111.098C55.2401 111.008 55.4625 110.711 55.3587 110.413C55.1363 109.759 54.8248 109.149 54.4393 108.569C54.3503 108.45 54.2465 108.346 54.113 108.316C53.9796 108.286 53.8016 108.301 53.683 108.376C53.4457 108.524 53.3122 108.881 53.4902 109.134Z" fill="#202020"/>
<path d="M47.5279 139.671L48.0025 136.443C48.047 136.161 47.9283 135.833 47.6169 135.759C47.35 135.699 46.9792 135.833 46.9347 136.146L46.4602 139.373C46.4157 139.656 46.5343 139.983 46.8458 140.058C47.1127 140.117 47.4834 139.983 47.5279 139.671Z" fill="#202020"/>
<path d="M22.3477 89.3067C32.3873 96.1192 44.9627 98.2165 56.6929 100.195C69.817 102.396 83.134 103.571 96.4361 102.604C97.1479 102.56 97.1479 101.444 96.4361 101.489C83.2378 102.441 70.0098 101.296 56.9895 99.109C45.3631 97.1604 32.8618 95.0929 22.9112 88.3399C22.318 87.9383 21.7545 88.9051 22.3477 89.3067Z" fill="#202020"/>
<path d="M57.5091 99.376C56.8715 99.5098 56.8418 100.313 56.738 100.819C56.6194 101.414 56.4859 102.009 56.3673 102.604C56.1152 103.838 55.8482 105.073 55.5961 106.322C55.4478 107.021 56.5156 107.319 56.6638 106.62C56.8863 105.534 57.1236 104.448 57.346 103.362C57.4498 102.827 57.5684 102.291 57.6723 101.756C57.7316 101.503 57.7761 101.25 57.8354 100.982C57.865 100.849 57.8947 100.73 57.9095 100.596C57.9244 100.506 57.9392 100.432 57.9688 100.343C57.9985 100.239 57.9985 100.239 57.9688 100.328L57.7167 100.477H57.7909C58.4879 100.313 58.1913 99.2421 57.4943 99.3909L57.5091 99.376Z" fill="#202020"/>
<path d="M57.8945 114.34L63.7373 101.072C64.0191 100.417 63.07 99.8521 62.7734 100.507L56.9306 113.775C56.6488 114.429 57.5979 114.994 57.8945 114.34Z" fill="#202020"/>
<path d="M47.6322 98.5881C49.8566 102.188 51.918 105.891 53.8161 109.684C54.1424 110.324 55.0915 109.759 54.78 109.119C52.8819 105.326 50.8206 101.637 48.5961 98.0229C48.2254 97.413 47.2615 97.9783 47.6322 98.5881Z" fill="#202020"/>
<path d="M32.0766 71.1889C33.8709 69.5527 35.7098 67.9909 37.6228 66.5183C37.8601 66.3398 37.9935 66.0423 37.8156 65.7597C37.6821 65.5217 37.2966 65.373 37.0593 65.5664C35.0721 67.0984 33.1443 68.7197 31.2758 70.4154C30.7419 70.9063 31.5279 71.6798 32.0617 71.2038L32.0766 71.1889Z" fill="#202020"/>
<path d="M37.5339 65.4924C37.3559 65.418 37.1186 65.4924 37 65.6262C36.822 65.8345 36.7924 66.0873 36.911 66.3105C37.0445 66.5633 37.3114 66.5931 37.5487 66.6526C37.7711 66.6972 37.9788 66.7567 38.2012 66.8162C38.6016 66.9203 39.0168 67.0244 39.4172 67.1434C40.2625 67.3814 41.093 67.6194 41.9086 67.902C42.1903 67.9913 42.5166 67.7979 42.5907 67.5153C42.6797 67.2178 42.4869 66.9203 42.2052 66.8311C40.6629 66.3253 39.1058 65.894 37.5339 65.5221L37.8601 65.775C37.8305 65.9832 37.8008 66.2063 37.7711 66.4443C37.5932 66.4741 37.4152 66.5336 37.2373 66.5782C37.519 66.6972 37.8453 66.4592 37.9194 66.1915C38.0084 65.8791 37.8156 65.6114 37.5339 65.5072V65.4924Z" fill="#202020"/>
<path d="M42.0561 56.1954C41.1663 58.0696 39.802 59.6314 38.4822 61.1933C37.8445 61.9519 37.1327 62.7253 36.7175 63.6327C36.4209 64.2723 35.9908 65.8638 36.9844 66.1167C37.281 66.1911 37.5776 66.0126 37.6666 65.73V65.6854C37.9038 65.0011 36.8361 64.7185 36.6137 65.3879V65.4325C36.8361 65.2986 37.0585 65.1796 37.281 65.0457L37.5183 65.2094V65.0606C37.5183 64.9714 37.5183 64.8673 37.5183 64.778C37.5479 64.5549 37.6221 64.3318 37.7259 64.1235C37.9038 63.7517 38.1411 63.3947 38.3932 63.0674C38.9419 62.3683 39.5203 61.699 40.0986 61.0148C41.2108 59.6909 42.2934 58.3225 43.0349 56.7458C43.3463 56.1062 42.3824 55.541 42.0709 56.1806L42.0561 56.1954Z" fill="#202020"/>
<path d="M42.9759 60.4497C42.1751 62.3983 40.9887 64.1832 39.5354 65.7004C39.046 66.221 39.832 67.0094 40.3214 66.4888C41.9081 64.8228 43.1538 62.8743 44.0436 60.7472C44.1622 60.4646 43.925 60.1374 43.658 60.063C43.3318 59.9737 43.0945 60.1671 42.9759 60.4497Z" fill="#202020"/>
<path d="M42.428 57.7426C41.4641 58.9177 40.5595 60.1374 39.729 61.4166C39.3286 62.0413 38.9431 62.6661 38.5871 63.3057C38.335 63.7668 38.0385 64.5997 37.5046 64.7782L38.1274 65.5963C39.1803 63.3057 40.8857 61.4464 42.5763 59.6019C43.0657 59.0664 42.3242 58.3376 41.7903 58.8136C39.8328 60.5836 38.335 62.7851 37.3859 65.2542C37.1932 65.7748 37.9643 66.2062 38.3202 65.7897C40.1739 63.6478 42.0128 61.5059 43.8665 59.3491L43.0805 58.5607C41.3603 60.6134 39.8328 62.8148 38.5278 65.1352C38.2312 65.6707 38.9727 66.3103 39.4028 65.8046L43.7923 60.7026L42.9174 60.0333L39.9959 64.2279C39.5807 64.8229 40.5446 65.3732 40.9599 64.7931L43.8813 60.5985C44.2372 60.0779 43.4216 59.4383 43.0063 59.9292L38.6168 65.0311L39.4917 65.7004C40.7523 63.4544 42.2204 61.3274 43.8813 59.3491C44.341 58.7987 43.5699 58.0104 43.0953 58.5607C41.2416 60.7026 39.4028 62.8446 37.5491 65.0014L38.4833 65.5368C39.3583 63.261 40.7819 61.2232 42.5911 59.587L41.8052 58.7987C40.0553 60.7026 38.2757 62.6363 37.1932 65.0162C37.0152 65.4178 37.3266 66.0128 37.816 65.8343C38.4833 65.5963 38.8837 65.0757 39.2248 64.4659C39.6104 63.7668 39.9959 63.0825 40.426 62.4132C41.2713 61.0596 42.2204 59.7507 43.2436 58.5161C43.7033 57.9657 42.9174 57.1774 42.4577 57.7277L42.428 57.7426Z" fill="#202020"/>
<path d="M40.6932 65.239L40.7525 64.7927C40.7673 64.644 40.7822 64.4952 40.6932 64.3614C40.6339 64.2573 40.5449 64.1829 40.4262 64.1383C40.1593 64.0193 39.8924 64.1383 39.7293 64.3614C39.3882 64.8671 39.1212 65.4026 38.9136 65.9678L40.011 66.1166C40.011 66.1166 40.011 66.0422 40.011 65.9976V66.1463C40.011 66.0124 40.0703 65.8786 40.1 65.7596C40.0555 65.9232 40.0703 65.8191 40.1 65.7893C40.1148 65.7596 40.1297 65.715 40.1445 65.6852C40.1741 65.6108 40.2186 65.5365 40.2483 65.4472C40.3076 65.3133 40.3669 65.1646 40.3966 65.0307C40.4411 64.8076 40.4411 64.6142 40.3966 64.3911C40.3521 64.1085 39.9814 63.9151 39.7144 64.0044C39.2992 64.1531 38.973 64.4209 38.6764 64.7332C38.5577 64.8671 38.4391 64.9861 38.3205 65.1051C38.2908 65.1349 38.2611 65.1646 38.2166 65.1944C38.1425 65.2538 38.2463 65.1944 38.2611 65.1646C38.2611 65.1646 38.2315 65.1943 38.2018 65.2092C38.1722 65.239 38.1277 65.2538 38.098 65.2836C38.0535 65.3133 37.8904 65.3728 38.0832 65.2985L38.7802 65.8339C38.8098 65.5513 38.8543 65.2687 38.884 64.9861C38.9285 64.6589 38.706 64.3465 38.3798 64.3019C37.9349 64.2424 37.5493 64.763 37.8162 65.1646C37.9794 65.4026 38.3205 65.5365 38.5726 65.358C38.8098 65.1943 38.9433 64.8522 38.7653 64.5994V65.1497C38.7653 65.1497 38.6319 65.2687 38.5726 65.3282H38.5874C38.4391 65.3282 38.3056 65.358 38.1573 65.3728H38.1722C38.0684 65.2836 37.9497 65.2092 37.8459 65.12L37.8162 65.0307V64.882C37.7718 65.1943 37.7124 65.5067 37.6828 65.8191C37.6383 66.1463 38.0832 66.4884 38.3798 66.3546C38.617 66.2504 38.8247 66.1314 39.0174 65.9678C39.1509 65.8488 39.2695 65.715 39.403 65.596C39.5365 65.477 39.6403 65.3431 39.7737 65.2241C39.7886 65.2092 39.9072 65.1051 39.8331 65.1795C39.8479 65.1795 39.8627 65.1497 39.8924 65.1497C39.922 65.12 39.9665 65.1051 40.011 65.0902C40.1 65.0456 39.9814 65.0902 39.9665 65.1051C39.9814 65.1051 40.0259 65.0902 40.0407 65.0754L39.3585 64.6886C39.3585 64.6886 39.3585 64.7332 39.3585 64.7481V64.5994C39.3585 64.6737 39.3585 64.7481 39.3289 64.8225V64.6737C39.3289 64.7927 39.2992 64.8969 39.2547 65.001C39.2547 65.0307 39.1954 65.1349 39.2547 64.9712C39.2547 65.001 39.2251 65.0307 39.2251 65.0605C39.1954 65.12 39.1806 65.1646 39.1509 65.2241C39.0174 65.5216 38.9136 65.8042 38.8988 66.1314C38.8988 66.4141 39.1212 66.6372 39.3882 66.6818C39.6699 66.7264 39.9072 66.5479 39.9962 66.2802C40.0258 66.2058 40.0407 66.1463 40.0703 66.0719C40.1148 65.9827 40.0407 66.1463 40.0703 66.0868C40.0703 66.0571 40.1 66.0273 40.1 65.9976C40.1593 65.8637 40.2186 65.7447 40.278 65.6257C40.3966 65.3877 40.5449 65.1497 40.6932 64.9266L39.6699 64.4952L39.6106 64.9415C39.5958 65.0902 39.581 65.2241 39.6699 65.3728C39.7441 65.4918 39.8627 65.596 39.9962 65.6257C40.1445 65.6555 40.2928 65.6555 40.4262 65.5662C40.5449 65.4918 40.6635 65.3728 40.6784 65.239H40.6932Z" fill="#202020"/>
<path d="M33.07 49.7547C33.5593 52.566 34.0487 55.3624 34.5381 58.1737C34.983 60.7172 35.4724 63.231 36.5104 65.596C36.7922 66.2505 37.7561 65.6853 37.4743 65.0308C36.4363 62.6658 36.0062 60.1074 35.5613 57.5787C35.0868 54.8715 34.6122 52.1644 34.1377 49.4572C34.0191 48.7581 32.9365 49.0556 33.07 49.7547Z" fill="#202020"/>
<path d="M35.8879 30.7011C35.8879 30.7011 35.962 30.6863 35.9917 30.6714H36.051C36.0955 30.6714 36.1251 30.6714 36.1696 30.6714C36.1696 30.6714 36.2883 30.6714 36.2438 30.6714C36.1993 30.6714 36.3476 30.6863 36.3476 30.6863C36.3921 30.6863 36.4217 30.7011 36.4662 30.716C36.5107 30.7309 36.5404 30.7458 36.57 30.7606C36.5107 30.7309 36.57 30.7606 36.5997 30.7755C36.6738 30.8201 36.748 30.8648 36.8221 30.9094C36.8518 30.9243 36.8814 30.954 36.9111 30.9689C36.9852 31.0284 36.8666 30.9243 36.9408 30.9838C37.0742 31.1028 37.1929 31.2218 37.3263 31.3407C37.8157 31.8465 38.2754 32.4117 38.6758 32.9472C38.8538 33.1852 39.1652 33.3191 39.4321 33.1406C39.6694 32.9918 39.8177 32.6348 39.6249 32.382C39.1207 31.6977 38.5868 31.0135 37.9788 30.4185C37.3708 29.8236 36.4959 29.3327 35.6061 29.6153C35.3243 29.7046 35.1167 30.002 35.2205 30.2995C35.3243 30.597 35.6061 30.7755 35.9027 30.6863L35.8879 30.7011Z" fill="#202020"/>
<path d="M45.3329 50.6027L45.585 48.2376C45.674 47.4642 45.852 46.6312 45.7037 45.8577C45.6444 45.5602 45.2884 45.3966 45.0215 45.471C44.7101 45.5602 44.5766 45.8577 44.6359 46.1552C44.6953 46.4973 44.6359 46.8543 44.5915 47.1964L44.4728 48.3269L44.2207 50.6027C44.1911 50.9002 44.5025 51.1679 44.7842 51.1679C45.1105 51.1679 45.3033 50.915 45.3478 50.6027H45.3329Z" fill="#202020"/>
<path d="M54.8702 51.1832C56.8573 51.4212 58.8445 51.6146 60.8316 51.7782C61.1282 51.8079 61.3952 51.5104 61.3952 51.213C61.3952 50.8857 61.1431 50.6775 60.8316 50.6477C58.8445 50.4841 56.8573 50.2907 54.8702 50.0528C54.5736 50.023 54.3066 50.3354 54.3066 50.618C54.3066 50.9452 54.5587 51.1386 54.8702 51.1832Z" fill="#202020"/>
</g>
<defs>
<clipPath id="clip0_1755_27518">
<rect width="97" height="157" fill="white"/>
</clipPath>
</defs>
</svg>
