<svg width="214" height="118" viewBox="0 0 214 118" fill="none" xmlns="http://www.w3.org/2000/svg">
<g clip-path="url(#clip0_943_4798)">
<path d="M59.7002 54.3904C52.3102 53.2704 47.9202 60.8604 45.1902 66.5304C42.4602 72.2004 40.3002 80.0904 43.8102 85.9904C45.5502 88.9104 48.6602 89.6904 51.8702 89.6804C55.2902 89.6804 58.8702 89.4004 62.0502 88.0804C64.8702 86.9004 67.3802 84.8604 68.5902 81.9904C69.8002 79.1204 69.8202 75.6904 69.4902 72.6304C68.7302 65.7104 65.4702 59.2404 59.8202 55.0704L58.5402 57.2604C62.6802 60.1104 65.6502 64.2504 69.5402 67.4004C73.4302 70.5504 77.7402 72.4504 82.6502 71.6104C86.8902 70.8804 90.5702 67.9904 92.1202 63.9504C93.4802 60.4204 92.8002 54.8004 88.5502 53.5804C86.4002 52.9604 83.8702 53.8704 82.7202 55.8204C81.5702 57.7704 81.9502 60.3304 83.4602 62.0204C84.5502 63.2404 86.3402 61.4404 85.2502 60.2304C84.2502 59.1204 84.3102 57.2304 85.6102 56.3704C87.0502 55.4204 88.7002 56.0804 89.5202 57.4704C91.1302 60.2104 89.9502 63.7804 87.9602 65.9804C85.5802 68.6004 81.8802 69.7704 78.4102 69.1404C74.7102 68.4704 71.6402 66.0804 69.0002 63.5304C65.9902 60.6304 63.2802 57.4504 59.8202 55.0704C58.4602 54.1304 57.2602 56.3104 58.5402 57.2604C62.6402 60.3004 65.3002 64.9104 66.4602 69.8404C67.6202 74.7704 67.9302 81.3004 63.3502 84.5104C61.0102 86.1504 58.1502 86.7804 55.3402 87.0104C52.8602 87.2104 49.4702 87.6804 47.3002 86.1704C45.1302 84.6604 44.6302 81.2004 44.6002 78.7504C44.5602 75.8604 45.2702 73.0204 46.3002 70.3304C47.4802 67.2504 49.1302 64.2504 51.0202 61.5404C52.9102 58.8304 55.6302 56.3304 59.0402 56.8404C60.6302 57.0804 61.3202 54.6404 59.7102 54.4004L59.7002 54.3904Z" fill="#202020"/>
<path d="M48.3693 59.9204C46.3193 63.1004 43.4793 65.6804 40.1393 67.4404C36.7993 69.2004 32.1993 70.5504 28.3493 69.3104C26.6493 68.7604 25.1393 67.6104 24.3093 66.0104C23.2793 64.0104 23.9093 61.9304 24.8993 60.0604C25.6593 58.6204 26.8393 56.5204 28.5993 56.1604C30.5593 55.7704 31.1793 58.2304 31.4393 59.6604C31.7393 61.2604 34.1793 60.5804 33.8793 58.9904C33.5793 57.4004 32.9593 55.5804 31.5793 54.5004C30.1293 53.3704 28.2393 53.3704 26.6593 54.2404C25.0793 55.1104 23.8093 56.8004 22.9193 58.4004C21.8993 60.2404 21.0393 62.3004 21.2593 64.4504C21.6493 68.3604 25.0293 71.2704 28.7293 72.0304C32.7793 72.8604 37.0693 71.7604 40.7293 69.9804C44.7493 68.0304 48.1393 64.9404 50.5593 61.2004C51.4493 59.8304 49.2593 58.5604 48.3693 59.9204Z" fill="#202020"/>
<path d="M37.2706 70.6302C37.0206 71.5302 37.1506 72.5102 37.6406 73.3102C37.8806 73.6902 38.2806 73.9402 38.7306 73.9402C39.1306 73.9402 39.6606 73.7102 39.8206 73.3102C40.1106 72.6302 40.4006 71.9402 40.6906 71.2602L38.3306 70.6202C38.4506 71.9102 38.5606 73.1902 38.6806 74.4802C38.7306 75.0202 39.0406 75.5702 39.6106 75.7002C40.1506 75.8202 40.7606 75.6202 41.0406 75.1202C41.9706 73.4302 42.9006 71.7502 43.8206 70.0602L41.4606 69.4202C41.3206 70.4602 41.1806 71.5102 41.0506 72.5502C40.9806 73.0702 41.4906 73.6602 41.9806 73.7702C42.5006 73.8902 43.1606 73.7002 43.4106 73.1902C44.0906 71.8202 44.6806 70.4202 45.2006 68.9802C45.4306 68.3602 44.9506 67.5702 44.3206 67.4202C43.6106 67.2602 43.0006 67.6402 42.7606 68.3002C42.6506 68.6202 42.5306 68.9302 42.4106 69.2402C42.3406 69.4102 42.2706 69.5902 42.2006 69.7602C42.1706 69.8302 42.1406 69.9002 42.1106 69.9702L42.0706 70.0702C42.1206 69.9602 42.1206 69.9402 42.0906 70.0202C41.8106 70.6502 41.5306 71.2802 41.2206 71.9002L43.5806 72.5402C43.7206 71.5002 43.8606 70.4502 43.9906 69.4102C44.0606 68.8902 43.5506 68.3002 43.0606 68.1902C42.5206 68.0702 41.9106 68.2702 41.6306 68.7702C40.7006 70.4602 39.7706 72.1402 38.8506 73.8302L41.2106 74.4702C41.0906 73.1802 40.9806 71.9002 40.8606 70.6102C40.8106 70.0702 40.5006 69.5202 39.9306 69.3902C39.4306 69.2802 38.7206 69.4502 38.5006 69.9702C38.2106 70.6502 37.9206 71.3402 37.6306 72.0202H39.8206C39.7906 71.9702 39.7506 71.9102 39.7206 71.8602C39.6606 71.7302 39.6606 71.7502 39.7306 71.9102C39.6906 71.8702 39.6206 71.6002 39.6406 71.5502C39.6606 71.7302 39.6706 71.7502 39.6606 71.6102C39.6606 71.5502 39.6606 71.4902 39.6606 71.4202C39.6706 71.2802 39.6606 71.3002 39.6606 71.4802C39.6706 71.4202 39.6906 71.3602 39.7106 71.3002C39.8906 70.6602 39.4906 69.8902 38.8306 69.7402C38.1706 69.5902 37.4606 69.9402 37.2706 70.6202V70.6302Z" fill="#202020"/>
<path d="M68.0005 66.1001C68.1105 69.2901 68.2105 72.4801 68.3205 75.6801C68.3705 77.0701 70.4605 77.4501 70.8105 76.0201C71.3305 73.8801 71.8505 71.7401 72.3805 69.5901L69.8905 69.2501C69.8305 70.7201 69.7805 72.1901 69.7205 73.6601C69.6705 74.9701 71.4305 75.3101 72.0805 74.3001C72.6305 73.4501 73.1405 72.5801 73.6305 71.6801L71.4405 70.4001C70.9805 71.3301 70.5205 72.2501 70.0605 73.1801C69.7805 73.7401 69.8605 74.4201 70.3905 74.8101C70.9205 75.2001 71.6005 75.1701 72.0505 74.7101C72.8505 73.9101 73.7205 73.0301 74.7805 72.8201C75.1805 72.7401 75.9205 72.9701 76.5005 72.9801C77.3205 72.9901 78.0505 72.6601 78.6505 72.1201C79.1605 71.6601 79.1205 70.7901 78.6505 70.3301C78.1405 69.8201 77.3705 69.8701 76.8605 70.3301C76.9405 70.2601 76.6905 70.4401 76.6505 70.4601C76.7905 70.4101 76.4305 70.4601 76.5905 70.4601C76.3005 70.4701 76.0105 70.3801 75.7305 70.3401C74.9905 70.2301 74.2505 70.2901 73.5505 70.5601C72.2605 71.0501 71.2205 71.9701 70.2605 72.9301L72.2505 74.4601C72.7105 73.5301 73.1705 72.6101 73.6305 71.6801C73.9305 71.0701 73.7905 70.3101 73.1805 69.9501C72.6005 69.6101 71.7805 69.8001 71.4505 70.4001C70.9705 71.2901 70.4505 72.1601 69.9005 73.0201L72.2605 73.6601C72.3205 72.1901 72.3705 70.7201 72.4305 69.2501C72.4905 67.7801 70.2805 67.5201 69.9405 68.9101C69.4205 71.0501 68.9005 73.1901 68.3705 75.3401L70.8605 75.6801C70.7505 72.4901 70.6505 69.3001 70.5405 66.1001C70.5205 65.4201 69.9705 64.8301 69.2705 64.8301C68.5705 64.8301 67.9805 65.4101 68.0005 66.1001Z" fill="#202020"/>
<path d="M41.1393 70.6697C40.6893 72.9197 35.3393 68.8397 34.5493 68.0697C33.7593 67.2997 33.1093 66.4197 33.0093 65.3397C32.8793 63.9197 33.8093 62.6897 34.5893 61.5897C37.7793 57.0997 41.9193 53.2697 46.5893 50.3797C48.9393 48.9197 51.4393 47.6597 54.0493 46.7197C56.8593 45.6997 60.0493 44.9697 62.9293 46.1397C65.5293 47.1997 67.4793 49.4097 69.3693 51.3997C71.6293 53.7797 73.9393 56.1397 76.1493 58.5697C78.1293 60.7597 80.1893 63.5197 79.5493 66.6597C79.3093 67.8097 78.6593 69.0097 77.5193 69.4697C76.4993 69.8797 75.1893 69.7297 74.6093 68.7197C73.7893 67.3097 71.5993 68.5897 72.4193 69.9997C73.8593 72.4697 77.3093 72.8197 79.5393 71.2197C82.1093 69.3697 82.6893 65.7397 81.8093 62.8597C80.6893 59.2097 77.6893 56.4897 75.1393 53.8097C72.5893 51.1297 69.9493 47.8897 66.8593 45.5497C63.7693 43.2097 60.1493 42.5797 56.3493 43.3997C52.7793 44.1697 49.2993 45.8297 46.1693 47.6797C43.0393 49.5297 40.2293 51.6797 37.6693 54.1597C35.2693 56.4897 32.5893 59.2997 31.1393 62.3597C29.3893 66.0297 31.5893 69.2197 34.5593 71.3497C36.0293 72.3997 37.8493 73.6197 39.6693 73.8597C41.3893 74.0897 43.2293 73.1497 43.5893 71.3597C43.9093 69.7697 41.4693 69.0897 41.1493 70.6897L41.1393 70.6697Z" fill="#202020"/>
<path d="M61.86 45.2198C61.84 45.0698 61.83 45.0598 61.86 45.1898C61.85 45.1098 61.84 45.0198 61.83 44.9398C61.81 44.7698 61.8 44.6098 61.8 44.4398C61.79 44.1098 61.79 43.7798 61.8 43.4398C61.8 43.2698 61.83 43.1098 61.84 42.9398C61.87 42.6698 61.81 43.0798 61.86 42.7798C61.92 42.4498 61.98 42.1298 62.07 41.7998C62.16 41.4698 62.26 41.1598 62.37 40.8498C62.37 40.8498 62.52 40.4798 62.43 40.6898C62.5 40.5398 62.57 40.3898 62.64 40.2398C62.79 39.9398 62.95 39.6498 63.13 39.3698C63.22 39.2298 63.31 39.0898 63.41 38.9598C63.46 38.8898 63.51 38.8198 63.56 38.7598C63.49 38.8498 63.5 38.8398 63.59 38.7198C64 38.1998 64.13 37.4298 63.59 36.9298C63.13 36.5098 62.24 36.3798 61.8 36.9298C59.76 39.4798 58.91 42.6598 59.42 45.8898C59.52 46.5498 60.38 46.9698 60.98 46.7698C61.69 46.5398 61.98 45.9198 61.86 45.2098V45.2198Z" fill="#202020"/>
<path d="M42.5399 82.2895C37.4899 86.8295 32.4199 91.3995 28.0199 96.5895C23.6199 101.78 20.0699 107.5 17.2099 113.65C16.5299 115.12 18.7099 116.41 19.3999 114.93C22.2199 108.88 25.6999 103.2 30.0399 98.1195C34.3799 93.0395 39.3699 88.5495 44.3399 84.0795C45.5599 82.9895 43.7599 81.1995 42.5499 82.2895H42.5399Z" fill="#202020"/>
<path d="M66.7807 81.8597C70.5307 86.4197 74.7607 90.8097 77.8507 95.8697C80.9407 100.93 82.5807 106.65 84.4407 112.15C84.9607 113.69 87.4107 113.03 86.8807 111.48C85.2407 106.66 83.7107 101.72 81.4407 97.1497C79.7807 93.7997 77.4907 90.8597 75.1307 87.9797C72.9607 85.3297 70.7507 82.7197 68.5707 80.0797C67.5307 78.8197 65.7507 80.6197 66.7807 81.8697V81.8597Z" fill="#202020"/>
<path d="M35.0305 90.5998C32.9005 98.9398 32.4505 107.59 33.6605 116.11L34.8805 115.77C34.7505 115.06 34.6305 114.34 34.5005 113.63C34.3605 112.83 33.1405 113.17 33.2805 113.97C33.4105 114.68 33.5305 115.4 33.6605 116.11C33.8005 116.92 34.9905 116.56 34.8805 115.77C33.7005 107.48 34.1805 99.0398 36.2505 90.9298C36.4505 90.1398 35.2305 89.7998 35.0305 90.5898V90.5998Z" fill="#202020"/>
<path d="M36.8291 89.6396C37.1591 96.4796 37.479 103.32 37.809 110.16C37.849 110.99 38.9891 110.96 39.0791 110.16C39.1291 109.65 39.1891 109.14 39.2391 108.63C39.3191 107.82 38.059 107.83 37.969 108.63C37.919 109.14 37.859 109.65 37.809 110.16H39.0791C38.7491 103.32 38.429 96.4796 38.099 89.6396C38.059 88.8296 36.7891 88.8196 36.8291 89.6396Z" fill="#202020"/>
<path d="M72.9691 86.5804C71.5191 94.6104 70.0691 102.64 68.6191 110.68C68.4791 111.47 69.6391 111.82 69.8391 111.02C70.0191 110.29 70.1991 109.55 70.3891 108.82C70.5891 108.03 69.3691 107.69 69.1691 108.48C68.9891 109.21 68.8091 109.95 68.6191 110.68L69.8391 111.02C71.2891 102.99 72.7391 94.9604 74.1891 86.9203C74.3291 86.1203 73.1091 85.7804 72.9691 86.5804Z" fill="#202020"/>
<path d="M77.0002 92.89C75.0402 99.07 73.7502 105.44 73.1402 111.9H74.4102C74.3702 111.18 74.3402 110.47 74.3002 109.75C74.2602 108.94 72.9902 108.93 73.0302 109.75C73.0702 110.47 73.1002 111.18 73.1402 111.9C73.1802 112.72 74.3302 112.7 74.4102 111.9C75.0102 105.55 76.2902 99.3 78.2202 93.22C78.4702 92.44 77.2402 92.11 77.0002 92.88V92.89Z" fill="#202020"/>
<path d="M69.8205 107.23C59.8005 102.71 47.9105 103.29 38.4005 108.83C37.7005 109.24 38.3305 110.33 39.0405 109.92C48.1305 104.63 59.5905 103.99 69.1805 108.32C69.9205 108.65 70.5605 107.56 69.8205 107.23Z" fill="#202020"/>
<path d="M0.609453 117.19C18.8995 115.87 37.1995 114.54 55.5195 113.7C73.8395 112.86 91.9794 112.49 110.199 113.06C120.499 113.38 130.789 114.02 141.049 115.02C141.859 115.1 141.859 113.83 141.049 113.75C122.829 111.97 104.509 111.37 86.2094 111.54C67.9095 111.71 49.7195 112.61 31.5095 113.77C21.2095 114.43 10.9095 115.17 0.609453 115.92C-0.200547 115.98 -0.200547 117.25 0.609453 117.19Z" fill="#202020"/>
<path d="M100.279 54.5299C99.0095 55.4399 98.8095 56.9299 99.0195 58.3899C99.2295 59.8499 99.7395 61.6399 100.719 62.8099C101.699 63.9799 103.399 64.2899 104.859 63.8099C106.449 63.2899 107.589 62.0599 108.269 60.5699C108.629 59.7699 108.889 58.9299 109.099 58.0799C109.309 57.2299 109.579 56.2999 109.559 55.4099C109.519 53.5299 107.789 52.8199 106.199 52.4699C103.249 51.8199 99.5495 52.2699 97.7095 54.9599C96.1295 57.2699 96.4595 61.2299 99.2595 62.4699C99.9995 62.7999 100.639 61.7099 99.8995 61.3799C98.0295 60.5499 97.6595 58.1899 98.3595 56.4399C99.2695 54.1299 102.009 53.3699 104.269 53.4799C104.909 53.5099 105.539 53.6099 106.159 53.7699C106.739 53.9099 107.399 54.0699 107.859 54.4699C108.419 54.9399 108.319 55.6599 108.189 56.3099C108.049 57.0399 107.889 57.7599 107.689 58.4799C107.329 59.7599 106.779 61.1299 105.709 61.9699C104.839 62.6499 103.539 63.0699 102.479 62.6099C101.189 62.0599 100.759 60.3199 100.439 59.0899C100.169 58.0299 99.8695 56.3999 100.919 55.6499C101.579 55.1799 100.949 54.0799 100.279 54.5599V54.5299Z" fill="#202020"/>
<path d="M118.18 42.5495C115.09 44.5395 115.4 48.8295 116.73 51.7895C117.47 53.4395 118.68 55.1895 120.55 55.6495C122.67 56.1695 124.71 54.8695 126.1 53.3795C128.87 50.4295 130.59 45.8895 128.37 42.1295C127.38 40.4495 125.72 39.3295 123.77 39.1295C121.65 38.9095 119.5 39.7295 117.76 40.8895C115.92 42.1195 114.22 43.9295 113.83 46.1795C113.48 48.2095 114.2 50.3695 115.97 51.5095C116.66 51.9495 117.29 50.8595 116.61 50.4195C115.3 49.5795 114.8 47.9095 115.07 46.4195C115.36 44.8095 116.47 43.4695 117.73 42.4695C120.27 40.4595 124.48 39.1495 126.85 42.1295C129.03 44.8695 128.12 48.5595 126.26 51.1895C125.28 52.5695 123.9 54.0795 122.17 54.4295C120.44 54.7795 119.12 53.5095 118.31 52.0895C116.94 49.6895 116.06 45.4195 118.83 43.6295C119.51 43.1895 118.88 42.0895 118.19 42.5395L118.18 42.5495Z" fill="#202020"/>
<path d="M136.001 40.7696C136.381 48.7995 141.251 55.9995 147.901 60.2896C155.551 65.2296 165.091 66.5096 174.011 65.7196C189.701 64.3296 208.281 55.6395 212.521 39.0396C214.671 30.6096 212.181 21.4495 207.071 14.5495C202.661 8.59955 196.331 4.19955 189.311 1.85955C182.291 -0.480451 174.411 -0.680451 167.301 1.71955C160.191 4.11955 153.941 8.85955 149.251 14.7295C144.471 20.7095 141.111 27.8296 139.471 35.3096C138.001 42.0096 137.791 50.1796 142.151 55.9296C143.141 57.2396 144.351 58.3296 145.731 59.2196C146.421 59.6595 147.051 58.5695 146.371 58.1296C140.341 54.2596 139.311 46.3495 140.001 39.7795C140.751 32.6595 143.471 25.6296 147.311 19.6196C151.151 13.5996 156.391 8.38955 162.741 5.05955C169.091 1.72955 176.401 0.539549 183.511 1.73955C198.411 4.24955 211.831 16.6895 212.041 32.4395C212.261 49.0995 196.121 59.8695 181.541 63.2696C165.931 66.9096 144.151 63.8796 138.301 46.3796C137.691 44.5695 137.351 42.6996 137.261 40.7896C137.221 39.9795 135.961 39.9696 135.991 40.7896L136.001 40.7696Z" fill="#202020"/>
</g>
<defs>
<clipPath id="clip0_943_4798">
<rect width="213.3" height="117.19" fill="white"/>
</clipPath>
</defs>
</svg>
