<?xml version="1.0" encoding="UTF-8"?>
<svg id="Calque_2" data-name="Calque 2" xmlns="http://www.w3.org/2000/svg" viewBox="0 0 280.25 328.71">
  <g id="Calque_1-2" data-name="Calque 1">
    <g>
      <path d="M112.51,240.67l-.53-3.15c-14.1-.32-27.98,2.6-42.06,3.15l-10.13,65.28-4.81,22.73c-.66.02-1.44.17-1.86-.52-.6-.98-.95,1.38-.38-1.41,1.68-8.19,3.97-16.27,5.45-24.5l9.63-61.58-7.86.55c-1.29,8.52-3.16,17.07-5.32,25.42-3.55,13.75-9.51,26.93-9.95,41.29h-1.57c-.86-6.24.83-12.36,2.36-18.4,4.04-15.91,10.45-31.35,12.36-47.81l-2.61.82,1.03,4.43c-2.27.13-1.91-3.74-3.14-4.47l-6.32-.26,4.99-1.06.8-.77c-7.11-16.72-9.92-34.95-15.12-52.16-4.97-16.47-11.22-31.79-14.61-48.98-1.17-5.92-1.41-12.09-2.49-18.01-2.63-14.47-7.12-29.18-9.25-43.83-2.42-16.58-2.7-30.39-7.05-47.07C2.78,25.45.37,20.89,0,15.76l22.61-4.74-1.57-.53c0-.54.48-.75.93-.91,6.12-2.13,14.03-1.78,20.36-2.25,25.3-1.86,50.86-3.06,76.26-3.65,11.19-.26,22.5.52,33.49-1.64.46-.09,1.48-.37,2.63-.6,1.29-.26,5.03-1.51,5.92-1.44.31.02,1.12.9.26,1.3l-6.8,1.87-.08.75,4.25,36.53c1.54.26,1.38-1.69,2.51-2.63,2.67-2.23,9.33-.81,6.17,3.15-3.63-5.58-7.54.7-6.96,5.39.14,1.11,2.13,7.65,2.66,8.15.63.59,3.03,1.56,4.03,1.18-7.62-6.13,2.25-10.51,7.75-12.48,4.3-1.54,19.13-3.17,23.97-3.08,1.93.04,5.72,1.63,6.84,1.39.35-.08.35-.87.45-.9.36-.11.95.37,1.43.1,1.56-.88,3.22-2.63,4.6-3.81,2.09-1.78,2.81,1.06,2.2,1.91-.23.32-5.66,2.84-5.49,4.82.66,1.65,1.05,3.38,1.86,4.98,3.01,5.93,7.96,10.9,11.82,16.04.82,1.09,1.49,2.85,1.87,4.17l2.09-3.94c3.85-5.46,12.48-2.93,13.15,3.68.73,7.16-6.01,14.02-12.92,14.94-2.95.39-6.12-.63-8.34-.47-1.07.08-1.85,1.11-3.14,1.03s-2.58-1.52-3.98-1.61l.52-1.01-3.15,1.05-.26-2.1-1.59,2.63-1.57-.93-1.84,2.24c4.13,1.02,8.85-1.64,9.47,4.21.54,5.14,1.72,10.28,2.1,15.25.23,3.03-.34,6.46.05,9.41.85,6.44,9.73,24.94,13.72,30.43l8.84,9.81c-2.82-.77-6.42-3.86-8.39-6.06-6.06-6.76-18.02-32.81-16.87-41.53.15-1.15.98-1.84,1.03-2.57.1-1.73-1.23-9.39-1.76-11.35-.67-2.46-1.13-2.27-3.46-1.84-5.88,1.06-8.16,5.45-10.76,10.26-4.23,7.81-6.47,17.41-7.09,26.02l-1.04,4.47c-.19-5.54.49-11.04.91-16.54.05-.66-.43-1.41-.37-2.08.25-2.77,8.1-16.76,10.22-19.22,2.3-2.67,8.47-5.47,11.83-3.67-.12-5.13-7.53-4.86-10.78-2.63-1.99,1.36-8.85,8.03-10.47,10.03-1.92,2.38-8.5,13-8.59,15.55l6.29,20.82c3.96,3.1,3.46,9.35,4.66,14.26,2.6,10.63,7.02,21.43,15.21,28.96,1.05.45,4.05-3.87,4.23-5.25.74-5.52.57-12.3.48-17.91-.11-6.61-1.1-13.18-1.05-19.97,0-1.1.62-2.23.54-3.11-.15-1.61-5.69-9.84-6.71-12.75s-1.42-5.51-1.16-8.55c1.03.18.86,1.11,1.07,1.82,2.14,7.1,3.38,8.28,6.56,14.46,4.04,7.84,7.69,17.86,12.24,25.08,1.57,2.49,6.11,6.3,6.93,8.31.1.24.14.86-.25.78-3.18-2.24-5.83-4.49-8.06-7.71l-9.02-17.51c-.37,4.77,1.14,9.18,1.07,13.95-.07,4.4-.31,9.19-.55,13.63-.27,5.14-1.66,10.28-1.04,15.5l.52-2.1,2.62,1.57c-1.4-.15-1.7,2.83-1.96,4.09-2.02,10.13-2.17,20.87-5.36,30.9-.54,1.69-2.11,2.07-1.09,4.96.76,1.14,2.31-7.22,2.47-7.77.18-.61.43-2.22,1.2-2.21.12,4.5-2.5,9.64-2.64,13.95-.1,3.08,1.17,6.66,1.07,9.95-.02.8.47,2.09-.79,1.84-1.02-.63-.66-1.49-.8-2.36-6.71-41.22-16.61-82.2-29.43-121.93-7.9-24.49-20.76-53.11-24.13-78.36-1.15-8.61-.1-17.36-1.65-25.95-2.04.17-3.97.93-6.02,1.07-11.47.81-24.13-.34-35.79-.04-16.68.42-33.31,2.52-49.9,3.2-10.47.43-21.13-.84-31.43,1.69-3.23.8-6.75,2.64-10.27,3.39-5.93,1.27-12.24,1.07-17.93,3.36-.94,1.47,4.73,15.99,5.46,18.85,3.94,15.46,3.63,31.37,6.19,46.88,2.06,12.46,5.67,24.73,8.1,37.09,1.6,8.16,2.09,16.68,3.99,24.92,3.49,15.11,9.45,30.21,13.78,45.09,4.99,17.15,8.17,34.92,15.05,51.43,1.24.28,3.55-.02,4.04-1.35,1.08-7.07,2.13-14.17,3.51-21.19,3.11-15.82,6.89-30.32,8.68-46.5,2.68-24.25,5.84-46.04,9.83-70.05,2.97-17.88,4.14-36.79,10.69-53.7,1.35-.19,1.09.16,1,1.26-.35,4.12-3.57,11.46-4.53,16.5-4.07,21.3-7.95,45.24-11.05,66.73-2.54,17.55-2.8,35.36-5.46,52.87-2.59,17.02-8.53,35.11-10.39,52.15-.1.94-.1,1.89-.06,2.83l7.03-.59.76-.82,13.17-75.12c3.05-20.55,3.65-41.31,5.86-61.93,1.36-12.69,3.51-25.14,4.73-37.83.6-6.27,1.92-12.43,1.84-18.67l2.3.6c.27,1.21-.32,2.25-.1,3.5,3.47,19.42,15.35,40.91,22.63,59.36,14.3,36.24,24.94,71.51,41.57,107.16,3.3,7.07,6.97,13.99,10.16,21.11l23.82-2.57,12.91,1.07v1.57s-1.6.32-1.6.32c-.94,10.11-2.54,20.11-5.22,29.91.76.72,2.51-.56,2.09,1.3-2.71,1.26-5.27.34-8.17.51s-5.7.96-8.65.55c-.23,4.51,14.99,29.77,13.14,31.52l-2.15-.31-12.83-28.6.32,20.16.45.6c.32.31,2.99-.39,1.87,1.32-.73.73-8.8,1.48-10.7,1.91-4.5,1.02-15.05,5.37-18.7,4.89-1.4-.18-2.94-.92-2.16-2.6,1.66-3.57,14.12-5.43,18.03-6.7,1.2-.39,8.5-3.31,8.8-3.81.22-6.1-1.14-12.26-.27-18.4-6.68-.7-13.45-1.87-19.99-3.41-9.55-2.25-18.51-5.83-27.16-10.16-1.94-.97-3.32-2.67-5.17-3.76l-1.32,38.87c-2.72-1.79-3.34-.05-5.89.67-2.39.68-4.84,1.01-7.22,1.72l-12.64,5.49c6.03-1.98,12.32-3.19,18.39-4.99,2.95-.87,5.99-2.55,8.8-3.29.7-.19,1.96-.6,1.71.66-5.74,4.55-14,5.32-21.02,7.37-5.37,1.56-12.65,6.49-17.34,2.1,1.11-1.32,2.7-1.93,4.2-2.62,4.68-2.14,12.12-4.92,17.06-6.6,4.1-1.39,8.77-1.33,12.4-4.01l.47-36.62c-.27-.82-6.15-2.68-7.5-3.58-2.55-1.69-4.96-6.22-7.97-6.22h-18.66v-1.05c1.56-.58,4.01.52,4.99.52h14.98ZM215.89,59.55c-1.6-2.33-4.59-5.35-6.35-8.1-2.25-3.49-1.82-6.12-6.08-8.11-6.13-2.86-11.11-.6-17.14.21-2.89.39-6.21.03-9.18.81-1.31.34-9.27,3.79-10.11,4.47-1.07.86-1.26,2.87-.36,3.96.52.63,6,3.44,6.48,3.35.71-.14,2.28-2.25,3.36-2.46,1.23-.24,1.91.92,2.8.74s5.5-3.2,7.13-3.9c5.84-2.5,10.95-4.06,15.42,1.78,2.94,3.84,1.76,5.58,2.87,9.22.91,2.96,5.81,4.75,3.45,9.42l2.62-.52c.18.96.23,2.52.64,3.33s1.46.81,1.49,1.19c.07,1.02-1.29,2.32.02,4.13,4.57,2.94,11.41,2.94,11.02-4.15-.19-3.53-5.93-12.18-8.09-15.34ZM174.67,91.82c1.22,1.27,2.19-.17,3.07-.15,2.81.07,5.6,1.21,9.16.81,5.5-.62,11.63-5.61,13.3-10.91.91-2.88.33-6.35.69-9.27.62-5.04,2.73-8.29.76-14-.97-2.82-9.06-8.13-11.97-7.76-3.41.44-15.49,8.58-17.76,11.33-1.13,1.37-3.76,6.49-3.58,8.13,2.06,4.77,2.46,10.3,3.83,15.14.24.87,2.27,6.42,2.52,6.67ZM168.23,237.51c-2.9-7.1-6.83-13.73-10.08-20.66-15.56-33.18-25.52-65.34-38.42-99.28-5.16-13.57-11.48-26.63-16.56-40.2-2.66-7.11-4.47-15.36-7.35-22.08-.28-.65-.28-1.55-1.19-1.7-.31,6.89-.32,13.89-1.06,20.75-.8,7.38-2.81,14.69-3.67,22.08-2.6,22.47-3.23,45.25-6.39,67.71l-13.07,74.96c.97.83,22.21-2.37,25.5-2.62,22.16-1.65,44.36,2.86,66.26,1.59,1.98-.11,3.93-.9,6.02-.55ZM169.81,58.32l-6.3-.52c.61,3.41,3.4,5.61,3.68,8.93,1.37.24.81-.19,1.09-.75.41-.81,2.32-4.24,2.38-4.48.21-.86-1.95-1.57-.85-3.18ZM222.91,81.43c7.32.74,16.58-6.55,13.55-14.33-1.77-4.55-8.9-4.28-9.33.89l1.71.83.37,1.58-4.2-.52c-.4.45,2.72,6.12-.28,9.97-.67.86-1.71.74-1.83,1.58ZM178.64,94.98c-.56.43-2.74-1.92-3.57-1.19l5.51,16.03c1.84-4.9,4.47-9.25,7.64-13.38l3.14-2.9c-3.38,1.05-6.2,1.13-9.72,1.05-2.41-.05-1.17-1.01-3.01.4ZM200.35,180.72c2.71.25,5.05-1.5,6.78-3.38l-5.99-6.09-4.51-7.31,3.72,16.77ZM207.13,209.66l4.21-32.05c-2.9,3.11-6.61,4.86-11.03,4.21l6.83,27.84ZM203.98,236.46c-10.87-1.34-21.84.63-32.6,2.11l13.12,29.18,14.74-.29,4.74-31ZM169.21,238.64c-.52-.33-10.51.94-12.26.99-10.47.35-22.12-.4-32.61-1.08-1.7-.11-9.24-1.69-10.03-.55l-.23,2.66h5.26c1.96,1.49-4.02.9-4.2,1.05-.05,1.23,1.3,2.16,2.15,2.84,3.31,2.66,8.22,3.75,11.88,5.99,13.58,8.3,22.48,12.4,38.53,15.61,4.5.9,9.07,2,13.67,1.83l-12.17-29.35ZM181.9,290.07c-2.73.82-5.07,2.57-7.74,3.55-4.22,1.54-8.49,1.77-12.64,3.13-.89.29-2.88.82-3.26,1.72l24.18-5.26-.53-3.15Z"/>
      <path d="M243.06,147.3c7.72-7.86,25.41-2.89,32.16,4.55,6.13,6.75,4.56,9.49,4.43,17.63-.02,1.51.6,2.81.6,4.18,0,11.62-15.54,21.34-24.92,25.58-8.29,3.75-14.68,4.19-23.51,1.24-12.22-4.08-19.82-21.04-11.55-32.07,3.06-4.08,5.83-3.25,10.11-4.61,1.31-.42,2.34-1.27,3.55-1.71.71-.26,1.44.44,2.39-.19,3.68-2.44,3.54-11.35,6.73-14.6ZM224.49,192.32c3.36,4.78,7.3,6.42,12.93,7.3,9.31,1.46,12.11.37,20.2-3.87,9.85-5.17,20.81-12.4,20.51-24.74-.05-2.16-.82-13.08-1.36-14.41-.45-1.12-4.91-5.74-6.06-6.56-8.16-5.79-26.46-9.37-28.88,3.91,3.74-1.61,7.72-1.61,7.93,3.42.05,1.24-.13,6.14-.55,6.86-.95,1.64-3.62,3.82-5.46,2.8-3.53-1.95-1.92-3.49-2.18-6-.04-.42-.69-2.81-1.32-2.87-.35,2.52-3.42,5.74-5.6,6.76-1.5.7-2.72.38-3.89.84-6.13,2.45-10.73,3.67-11.56,11.05-.61,5.41.64,9.29,3.16,13.93l-.02-3.91c.35-2.25,3.22-2.39,3.93-3.46,1.76-2.65.23-5.83,5.8-5.8,4.25.02,2.68,2.38,3.51,3.1.25.21,1.52.12,2.3.58,4.16,2.46,2.99,5.66,5.4,9.37-.47,4.73-7.33,7.94-11.44,5.61-1.15-.65-1.72-2.07-3.07-2.71-1.04-.49-3.11-.77-4.33-1.18ZM248.14,157.64c.35-2.91-3.43-3.52-5.25-1.83l3.06.59,2.19,1.24ZM247.45,164.31c1.89-2.6-1.2-8.19-5.09-6.67-.67,1.6,1.57,1.71,1.4,2.89-.1.63-1.15,1.27-1.27,2.17-.18,1.43,1.09,3.31,2.68,3.25.14-.03,2.18-1.51,2.28-1.65ZM230.64,179.29c-2.62.79-2.04,4.29-2.95,5.46-.7.91-3.44.9-3.52,3.09-.13,3.56,4.47,3.04,6.59,4.25,1.21.69,1.9,2.42,3.58,2.76,2.52.51,6.06-1.35,6.88-3.94-1.52-2.46-1.54-5.66-3.85-7.53-.59-.48-1.52-.51-2.08-1.07-1.35-1.34-.93-4.14-4.64-3.03Z"/>
      <path d="M83.06,7.87c.12,1.37.07.87-.79,1.03-3.88.72-7.27.27-11.03.55-2.61.19-5.85.94-8.42,1.04-7.95.33-15.95-.21-23.91,0,.08-.84,2.26-.99,2.9-1.04,4.53-.38,8.82.67,13.16.54,4.04-.12,8.94-1.3,13.12-1.59,4.95-.34,10.03.09,14.98-.53Z"/>
      <path d="M259.18,168.15l-6.27,2.92c-1.54,1.54-3.87,3-3.69,5.46l5.16,1.67c1.23,1.93-4.04,7.61,1.25,7.17,1.18-.1,5.86-.96,7.11-1.28,3.89-.99,5.36-6.23,3.28-9.38-.81-1.22-2.52-2-3.16-3.41,7.85-.06,8.25,12.39,1.07,14.46-1.19.34-4.84,1.09-6.1,1.25-6.62.83-7.48-2.08-4.98-7.52l-.5-.58c-11.11-1.21,1.18-11.98,6.83-10.76Z"/>
      <path d="M263.91,148.18l-6.25,4.56c-.7,1.79,2.99,2.41,3.13,3.15l-.49,6.4c9.27,3.24,14.9-8.86,4.39-12.01.49-2.46,5.16-.19,6.28,1.09,5.16,5.9-3.16,15.48-10.08,12.7-4.21-1.7-1.08-5.64-1.77-7.65-.33-.94-2.53-1.2-2.53-3.25,0-2.54,4.97-5.01,7.32-4.99Z"/>
    </g>
  </g>
</svg>