<?xml version="1.0" encoding="UTF-8"?>
<svg id="Calque_2" xmlns="http://www.w3.org/2000/svg" version="1.1" viewBox="0 0 272.7 310">
  <!-- Generator: Adobe Illustrator 29.2.1, SVG Export Plug-In . SVG Version: 2.1.0 Build 116)  -->
  <g id="Calque_1-2">
    <g>
      <path d="M258.4,11.2c-.2.9-.9.8-1.6.9-5.3.9-14.2,1.3-16.3-4.7h-1c-3.9,1.8-10.4,2.5-13.9,4.8-1.1.7-1.1,1.2-.8,2.4,1.7,5.6,13.9,5.4,18.6,5.6.5,0,1.7-.3,1.6.4l-9.2.9c-4.9-.5-12.5-1.7-12.3-8-.4-.5-11.9,5.2-12.3,5.8-.7,1.2-.2,3.6.7,4.7,4.3,4.6,18.4,4.2,24.4,3.9,3.3-.2,7-1.1,10.3-1.4.5,0,1.7-.3,1.6.4-8.2,1.8-16.4,3.2-24.9,2.7-4.9-.3-12.5-1.9-13.6-7.5-.2-1,.9-2.1-.3-1.9l-15.7,9.8c-2.7,4.3,10.3,8.4,13.1,8.8,6.2,1,13.1.7,19.2-.7h4.6c-10.5,2.5-22.9,4.9-33-.4-2.3-1.2-5.4-3-5.5-5.9-.6-.6-10.1,7.7-10.2,8.4-.2.8.3,1.2.8,1.7,2.2,2.2,8.8,2.8,11.9,2.9,6.1.2,12.8-1,18.9-1.8.9-.1.6.1.6.9-8.7.6-17.7,4-26.4,2-1.3-.3-5.3-1.7-6.1-2.6-.7-.7-.1-2-1.5-1.7l-7.4,9c4.8,6.6,16.6,7.6,24.2,7.1,1.7-.1,3.6-.8,5.4-.9.5,0,1.7-.3,1.6.5-10.3,2.9-25,3.6-32.4-5.3-1.1,1.8-3.4,2.2-4,4.5-.2.7.2,1.3.1,1.9-.4,1.5-1.9,2-.4,3.5l-.9.5c3.7,1.9,5.7,6.1,9,8.7,1.5,1.2,3.8,2.5,5.5,3.5,5.1,2.9,16.2,5.6,12.5,13.7-1.9,4.3-9.1,1.2-9.9,2.4l.4,1.8c-2.7-.3-4,1.2-6.9.9-9.5-1.2-15.7-2.8-22.9-9.3-1.5-1.4-2.9-3.5-4.3-4.7s-3.9-1.8-4.7-3.9c-12.3,2.3-24.8,3.5-37.3,3.6.3,2.4,1.3,5.5,1.2,7.8,0,1.2-.8,3-.8,4.1,0,.6.7,1,.7,1.6-.3,2.1-4.5,5.1-4.3,5.3,1.7.4,3.3,1.6,4.9,2,5.9,1.6,19-2.8,24.3-6.1,2.4-1.6,4.7-4.8,7.4-5.2.6-.1,1.4.5,1.9.2,1.1-.6.9-4.9,3.1-3.6l-.4,2.4c1.2-.7,1.3-2.7,3.1-2.2v1.8c1-.4.6-1.8,2.2-1.3.3,1.6,1.4,2.3.9,4.5h1.6c-.3,2.2.9,2.1,1.5,3,.4.6,0,1.6.3,1.9.8,1.1,5.2,4.4,6.7,6.2,1,1.2,4.4,7.3,5.3,7.1,4.4-4.2,14-16.8,20.5-16,3.2.4,2.2,2.3,2.8,4.4,3.1,11.1,7.4,21.5,8.3,33.3.2,3.2-.2,6.6,0,9.8.3,4.3,3.5,23.9,2,26.2-.2.3-.9.3-1,.5-.9,1.5.3,30-.1,35-.7,10-3.1,20.4-4,30.4-.4,4.3,0,9.1-.5,13.4-.4,5.2-1.6,10.5-2.7,15.7l3.1-.5c-6.4,5.2-14.5,7.9-22.3,10.1l-1.9,22.1c.3,2,.8,4.3.5,6.3-.1.8-.9.6-.9.9-.2,1,.6,2.3.3,2.8-1.1,1.8-23.2,6.8-26.5,7.1-1.2.1-6,.4-6-1.5,1-2.3,4.1-3.5,6.3-4.5,7.9-3.5,16.6-5.6,24.6-8.8v-23.7c-5.8.8-12.3,2.7-18.1,3.1-3.9.3-10,.5-13.9.5-6.7-.1-14.9-3.4-21.7-4-.2,6.6.3,13.1.9,19.7.8.1.4-1,.4-1.6.2-5.2-1.4-11.5.2-16.3.3-.8,0-1.1,1.1-.9-1.1,9.1.4,18.2.9,27.3l-2.9-2.7c-10.7,2.3-23.4,2.3-32.5,9,1.2,0,2.5,0,3.8,0,9.9-1.1,20.6-4.8,30.5-5.7,1.2-.1,2.5,0,3.7,0,1.3,1.2-4.3,2-4.8,2.1-8.6,1.8-22.9,5.1-31.2,5.5-8.8.5-1.6-5.1,2.4-6.6,8.9-3.4,18.9-3.8,28.3-5-2.6-7.9-2.4-16.5-1.8-24.8l-8.9-3.9-.7,4.9c-1.9-2,1.2-5-1.1-6.9l.9-.2c.4-6.2.3-12.4.9-18.6.6-6.7,1.7-13.3,2.2-20.1.1-1.5.9-3.6.9-5,0-1.2-1.4-2.5-1.7-4.1-1-6.1.4-14.6,1.9-20.7.3-1.1.4-2.3,1.4-3.1l-2.1,17.2c.8,4.9,0,11,6.9,10,1.5-.2,2.5-1.5,3.8-1.1-2.6,3.3-5.7,3.5-9.4,2l-3.9,44.2c4.3,2.6,9.7,3.8,14.6,4.9,12.6,2.8,22.7,3.5,35.6,1.9,12.3-1.6,24.4-5,35.4-10.7,1.1-5.5.7-11.3,1.1-16.8,1.4-18.5,4.8-37.1,5.4-55.4.3-10.4-.2-19.6.8-30,.5-5.5-1.2-11.5-1.7-16.9-.7-7.3-.6-13.4-1.9-20.9-1.5-8.5-4.3-16.6-6.4-25-.4-.7-.6-.4-1.1-.2-3.2.8-5.9,2.9-8,5.4-.5,1.1,2.3.4,3.3,1.1,2.5,1.7-1.1,7.9-3.1,9.4-3.5,2.6-6.2,1.2-10,1-2.1,4.4-4.6,8.7-6.1,13.4-.4,1.3-1.4,4.4-1.6,5.6,0,.7,0,.8.7.7.9-.1,6.2-2.7,7.4-3.3,2.2-1.1,5.8-3,7.7-4.3,1.7-1.1,5.4-5.2,6.4-5.7.5-.2,1.7-.5,1.5.6-16.5,15.9-40.3,21-61.3,28.7-1.1.4-2.3.3-2.3-1.1,2.7,0,3-2.2,3.1-4.5-5.4,1.5-10.5,1.2-9.4,8.5h-1.8c-.4-4.4.6-7.2,4.9-8.7,2-.7,8.7-1.2,9-3.6.5-5.3-8.1,1.1-9.4,2.3l-4.3.6c-1-2.6-1.8-5.4-1-8.1,1.4-4.8,9.2-6.6,6.1-12.4-6.3,2.4-6,9.3-8.3,14.3-1.2,2.6-2.3,3-5.2,2.5-4.1-.7-8.4-5.6-6-9.6,1-1.7,6.7-3.5,4.9-6.3-.5-.8-1.9,0-2.5.3-4.3,1.6-5.9,4.8-5.3,9.3.4,2.9,3.3,5.3,4.8,7.7l-.9,2.8c-1.4-.5-2.2.9-3.8,1-4.4,0-4.1-7.7-4.9-7.6-3.8,3.5-.5,6.6,2.9,8.7,4.1,2.5,8.6,2.8,12.7,4.3,3,1.1,3.2,3.4,7.2,3.5,2.7,0,6.4-1.1,9.1-1.7,21.6-4.9,43.4-13,62-24.8.4.4.9.6.5,1.3-.3.5-4.2,3-5,3.5-5.9,3.7-12.9,6.7-19.3,9.1.4,6.9,2.3,14.7,6.9,20.1.7.9,3.6,3,3.7,3.2.3.5,0,1.4.1,1.6.2.2,4.9,1.3,5.6,1.4,6,.6,11.7-1.9,17.6-2.6.2,1.4-.4.7-1.1.9-5.9,2.2-12.5,3.8-18.7,2.5-11-2.2-14.2-16.9-15.8-26.3l-14.6,4.9,3.8.5c2.9-1.5,1.6-.2,2.3,0,.6.2,2.4-.3,2.4.2l-3.1,1.2c-.9,8.8-3.9,17-6.4,25.4l-1.1-1.3c-5.5,7.1-17.8,9.2-21.2-.9,1.1.4,1.5,1.7,2.3,2.4,4.6,4.1,9.9,3,15,.4,5.6-2.9,3.9-3.7,5.5-8.8,1.7-5.5,3.8-11,4.4-16.8-3.1.5-6.7-.8-9.6-.4-1.3.1-13.2,3.7-13.7,4.2-1.5,5.9-1.4,12.1-1.3,18.1l-1.4-.3c-1.7-5.7.9-11.8.7-17.6-2,5.6-4,11.5-5.6,17.3-2,7.5-2.5,13.9-3.7,21.3,0,.5-.1,1.8-.8,1.7-.5-4.7-.3-8.9.6-13.5,1.6-8.6,4.8-17.4,7-25.8-5,1.4-8.6,1.5-13.2-.9-4.7-2.4-10.2-3.7-14.9-6.1-5.5-2.7-8.7-8-2-11.7,3.7.7,2.1,3,2.5,4.9.4,2.3,4.2,3.7,4.8,1.8.6-2-4-5.3-4.4-8-.5-3.2,0-6.7,2.2-9.1-17.6,1.1-35,4.4-51.8,9.4.7,4.5,0,9.1.4,13.6.3,5.1,2,10.5,1.3,15.7,0,.6-.3,1.4-.9.7-1.8-11-3.3-22.1-2.7-33.3l-1.4-.5,1.7-.9c1.5-13.6,2.4-27.2,2.3-40.9h1.8c.6,13.7-1.9,27.1-2.7,40.7l38.8-6.2c12.6-1.1,27.4-2.1,39.7-5.1,2.1-.5,4-1.8,6.2-2.1-1.9-4.6-.7-8.7,1.3-13-2.8,2.7-8.1,7.8-12.3,5.4-3.4-1.9-2.2-6.6,1.6-6.7.7.6-3.2,3.1-1.1,4.9,3.5,3.1,9.3-3.9,11.4-6.1,2.8-2.8,2.5-2.1,5.9-3,2.5-.6,3.4-4.3,3.4-6.6-2.2,1.7-4.2,3.4-6.6,4.8-6.6,3.9-20.3,8.8-27.7,5.9-1.8-.7-3.3-2.6-4.9-3.2-1.7-.7-3.9-.6-5.6-1.2-3.2-1.2-5.7-3.4-9.8-3.6-1.5,0-2.4.9-3.6,1.1-7.1,1.4-22.4,5.5-28.5,1.5-3-2-4.2-6.1-.6-8.3,2.5-1.5,10.4-.3,14-.8,11.9-1.6,20.9-9.9,31.3-14.7,4.8-2.2,9.4-5.3,14.5-7.4,2.1-.9,11.7-3.4,12.3-3.8.6-.5.3-1.7.7-2.5,1.7-3.5,12-8.7,15.8-9.7,4.9-1.2,11.1,0,14.4,4,1,1.3,1.5,3.2,2.9,4.2l.7-1.8c2.3,5.1,6,4.2,4.9-1.3l1.3.7c1.2-1.6,2.7-3,4-4.5,4.6-5.1,9.3-10.4,14.6-15,1.8-1.6,4.9-3.1,6.4-4.7.6-.7.9-1.9,1-2,.1-.1.8.3,1.5,0,2.4-1.1,5.8-4.1,8.3-5.6C223.4,9.4,246.7.9,271.4,0c.1,0-.2.6-.4.7-2.3,1.1-7.7.5-10.3,1.8,3,2.2,7.1,2,10.5,2.9.6.2,1.4,0,1.6.9h-6.9c-2.6,0-5.9-3.2-7.3-3.5-1.7-.3-5.7,1.5-7.7,1.3-.4.4,1.2,2,1.6,2.2,3.1,2.1,8.6,2.2,12.3,2.7,0,.6-2,.8-2.5.8-3.5.3-7.2.2-10.2-1.8-1-.7-2.6-3-2.9-3.1-1.4-.3-9.2,1.5-6.4,3.8.6.5,6.6,2.5,7.4,2.5h8.3ZM154.9,51.6c-3.9-3.8-11.5-2.9-16.1-1-4,1.7-9.6,5-11.5,8.9l8.3-2.1c1.2,0,3.9,4,4.6,5.1,1.8,2.7,5.1,11,6.8,12.5.9.8,1.6.4,2.1.8.2.2,4.5,3.2,4.7,3.4.5.4.3,1.3,1.2,2,3.6,3.1,21.5,7.2,26.6,7.4,3,.1,5.9-.7,9-.4,2.4-2.1,1.8-4.9-.2-7-2.8-2.9-11.6-5.7-15.6-9-3.3-2.6-5.8-6.9-9.2-9.6h-.7l-1.1,2.3-3.4,1.8,2.1-5.2c0-.5-3.9-3.8-4.6-4.7-1-1.4-1.9-4-3.1-5.2h0ZM136.2,59.1c-11.8,2.1-23.5,5.9-33.5,12.7,1.4,1.1,2.5,3.9,3.6,4.9,1.4,1.4,8.3.3,10.5.6l27.5-3.1s-8.1-15.2-8.1-15.1ZM101.7,72.9c-1.2-.8-7.2,3.3-8.6,4.1-10.7,5.5-17.8,10.1-30.5,10.6-2.6,0-7.7-1.8-9,2.3-1.1,3.5,1.7,4.8,4.6,5.3,11.9,2,19.7-3.7,30.3-3.5,4,0,11.8,5.1,14.2,4.5.7-.2,3.1-3.8,3.5-4.7,1.2-3,2-9.8,0-12.5-.4-.6-1.3-.2-1.8-.3-.3-.8.9-1.1.7-1.8-.3-1-1.7-3.2-2.9-2.2l-.5-1.7h0ZM171.8,90.8c2.6.2,5.8,0,8.5,0s1.3-.4,1.1-.9c-7.9.5-15.1-3.1-22.6-4.9-.4.4.8,1.3,1.1,1.6,3.2,2.8,7.7,3.9,11.9,4.2ZM188.1,93.9c-3.5-.6-7,1.9-9.6,4-1.4,1.2-10.7,10.5-10.5,11.4,2.6,2.7,2.9-.4,4.3-2,2.1-2.2,4-4.3,6-6.5,3.4-3.8,4.6-3.8,8.9-5.9.6-.3,1.2.3,1-1h0ZM153.8,113.5c.9.8,8.6,2.7,9.9,2.3,1.8-.6,1.3-6.1.6-7.7-1.9-4.3-7.7-10.9-12.3-12.3-.7-.2-6.6-.8-7.3-.8-7.2.4-14.4,9.2-13.3,16.5.2,1.3,2,4.7,3.1,3.1s1.2-3.7,3.9-4.1l2.1,1.7c1.3-1.6,2.9-2.1,4.9-1.8.7.1,1.2.9,1.7.8.8-.1,1.1-1.4,3.1-1.2,2.9.4,2.5,2.4,3.6,3.4h0ZM177.6,105.3c-.2.1-2.4,1.8-2.6,2-.4.3-2.5,2.9-2.7,3.2-.3.6-.3.7.2,1.1,5.5,1.8,9-1.6,10.2-6.7-1.5-1.7-3.6-.5-5.1.4h0ZM168.8,111.9l-2.2-.9c0,1.6,0,4.6-1.1,5.8s-3.2.6-4.2,1.1c-.9.5-8.4,13.2-8.9,14.8.6.9,3.1,0,2.7,1.6-8.7,1.2-18.8-1.2-24.2-8.5-.3,2.7-2,7-1.8,9.6,0,1.3.9,1.6,1.2,2.4.3,1.1,0,2.4.6,3.3.2.4,3.7,2.9,4.2,2.9,8.7-2.6,17-6.2,25.2-9.9,1.3-5.2,2.9-10.4,5.1-15.3.6-1.2,3.8-6.4,3.4-6.9h0ZM145.5,112.4c-.3-.3-.6-.3-1-.4-1.5,0-2.5,1.2-2.9,2.5l4.5-.4c.2-.2-.3-1.4-.6-1.7h0ZM151.9,113.6c-.4-2.1-3.2-2.6-4-.2l4,.2ZM139.4,115.4l-1.1-3.1c-.8.9-2.3,1.6-2,3.1h3.1,0ZM160.4,117.2c-2.5-.3-4.8-1.6-7.4-1.8-6.8-.6-12.6,2.3-19.3,1-.9.2-1.1,5.5-1.1,6.6-.8-.3-.5-2.7-.5-3.4,0-1.2.3-2.2.5-3.3-1.8,0-3.6,0-3.6,2.2h-.9c0,0-.3-.9-.3-.9l-20.8,3.8c.6.8,1.1.6,1.9.6,3.6-.2,7.5-1.2,10.9-1.6,2.6-.3,5.6-.2,8.2-.5-.5,1.6-5.8,1-6.3,1.3,3.5,5.6-6.2,10.7-6.6,14.1-.1,1,.9,3,1,4.2,2,2.6,8.2-5.8,11.4-4-.3-4.6,2.4-8.7,2.7-13l1.6,2.6c4.4,5.7,12.4,7.6,19.4,7.6l9-15.6h0ZM116.1,122.1l-8.1.6c-.5.4-.3,1.8-.8,2.7-.9,1.6-5,3.5-5.3,4.5-1.3,4.2,5.4,8.8,7.9,6.7,1.7-1.4,2.9-12.7,6.4-14.6h0ZM60.6,127.9l-14.3,1.8v2.7s14.3-4.5,14.3-4.5ZM132.7,144l-3.3-2.2c-1.6.8-1.2,2.5-1.2,4,.6-.1,4.9-1.1,4.5-1.8ZM172.5,271.1l-1.6.4c-.7,2.6,0,5.4.2,8.1l1.3-8.5h0ZM169.8,296.6l-27,10.4-1.2,1.3c10,.2,19.1-3.9,28.6-6.3l-.4-5.4h0Z"/>
      <path d="M15.4,81.4c-.9,6.7-3.7,13.4-4.8,20-.6,3.6-.5,7.2-1,10.8,11.4-1.9,9.9,7.7,4.1,13.7,1.1,1.4,3.1,3.3,2.5,5.3-.5,1.7-3.5,1.4-3.9,2.3,3.8,1.9,1.4,6.6-1.7,8.1.2,4.3,1.9,8.7,1.7,12.9,0,.7.4,1.8-.7,1.6-1.9-4.1-2-9-2.7-13.4-.6-.9-6.6.2-7.3-3.9-.6-3.8,2.1-4.8,2.1-6.6,0-1.4-1.6-2.9-1.1-5.2.5-2.2,1.9-1.6,3-3.1-2.9.1-7.2-3.4-4.9-6.4.1-.2,2.2-2.3,2.4-2.4,1.3-1,5.2-1.9,5.6-3.1.6-7.1,1-14.2,2.5-21.2.4-1.8,1.9-7.9,2.9-9.1.4-.5.9-.2,1.4-.3ZM5.6,116.7c-2.1-.8-4.5,2.6-2.9,4.5.9,1,7.6,3.3,8.9,3.2,3.2-.3,6.3-7.9,3.4-10.5-2-1.8-7,.7-9.3,1.2v1.7c0,0-.1,0-.1,0ZM6.5,131.9c1.5,1.9,7.7-.8,7.5-2.3,0-.7-2-2.9-2.6-3.2-.3-.1-4.4-1.4-4.7-1.4-2.7,0-3.3,5.7.2,5.6l-.4,1.3h0ZM10.9,140c.1,0,1.3-2.6,1.3-3,.3-3.3-2.5-2-4-2.1-.9-.1-2.9-1.5-3.5-1.1-2,3.1-1.8,6.4,2.5,6.7,1.4,0,1.6-.6,2.3-.8.6-.1,1.3.4,1.4.3h0Z"/>
      <path d="M156.3,196.7c.1,0,.1-.7.4-.8s3.8.4,2.9,1.3l-2.2,1.2c-.9,8.1-2,16.1-3.2,24.1-.1.8.2.8-.9.7l2.7-24.6c-5.5.9-13.9,1.9-18.8-1.6-1.1-.8-3.2-3.1-1.4-3.8.1,2.6,3.9,3.7,6.1,4,2.8.3,12.1.6,14.4-.5h0Z"/>
      <path d="M151.9,223.6c0,.6-1.3,1-1.8,1.1-4.5,1.4-10.2.6-14.2-1.9-9-5.8-5-20-2.1-28.3.3,4.1-1.7,8.3-2,12.3-.4,4.7.6,10.8,4.5,13.9.8.6,5.4,2.9,6.1,2.9h9.6,0Z"/>
      <path d="M49.4,168.2c-.2.6-2.4.8-3,.8-12.9,1.2-27.9-1.6-36.9-11.6,3.8,1.4,7,4.1,10.6,5.8,9.2,4.3,19.2,5,29.2,5Z"/>
      <path d="M116.5,216.5c-1.3-.6-1-3-.8-4.2.3-2.3,5.1-15.8,4.4-16.4-3.6.3-7.9-.8-9.4-4.5,1.2.1,1.8,1.2,3,1.7,1.9.9,4.2,1.1,6.2.9,1,0,1.2-1.5,2-.2l-5.4,22.6h0Z"/>
      <path d="M46.7,89c0,.8-.9.3-1.3.2-10.9-1.7-21.3-6.3-31.8-9.4l1.7-.4,31.4,9.6h0Z"/>
      <path d="M98.5,91.4c.9,0,6.3.8,6,2.3-2.6,2.8-6.3,1.7-8-1.3,0-.4,1.6-.9,2.1-1Z"/>
    </g>
  </g>
</svg>