<svg width="124" height="121" viewBox="0 0 124 121" fill="none" xmlns="http://www.w3.org/2000/svg">
<path d="M53.8079 99.9878C52.1765 100.249 51.2642 99.8738 49.6754 99.2515C39.0853 95.1036 27.0287 89.3459 21.8279 78.583C20.3018 75.4249 18.6295 70.0306 20.5223 66.5666C23.5626 61.0026 32.7968 60.9221 37.7766 61.644C47.6349 63.0733 54.6293 66.2983 63.0305 71.718C68.4892 75.2395 81.4404 85.6494 75.0917 87.0253C70.0022 88.1283 62.3714 81.8507 59.0337 79.1703C51.9198 73.4572 45.5503 66.5137 40.5937 58.84C33.3667 47.6512 25.1158 28.3025 34.5476 15.8779C45.4412 1.52786 67.7764 13.1628 77.8021 21.8861C88.5607 31.2472 97.0282 43.5435 102.302 56.7356C103.186 58.9463 104.029 61.1878 105.268 63.2316C105.432 63.5016 106.057 64.1916 105.791 64.0217C104.144 62.9706 102.761 61.3356 101.257 60.1004C100.007 59.0734 91.09 51.9633 96.7868 56.676C101.327 60.4316 105.018 64.8577 109.258 68.8979C113.057 72.5176 109.747 67.516 108.957 66.2713C106.409 62.2533 99.5773 46.8433 107.311 45.1365" stroke="#202020" stroke-width="2" stroke-linecap="round"/>
</svg>
