<?xml version="1.0" encoding="UTF-8"?>
<svg id="Calque_1" xmlns="http://www.w3.org/2000/svg" version="1.1" viewBox="0 0 52.6 53.9">
  <!-- Generator: Adobe Illustrator 29.2.1, SVG Export Plug-In . SVG Version: 2.1.0 Build 116)  -->
  <defs>
    <style>
      .st0 {
        fill: #202020;
      }
    </style>
  </defs>
  <path class="st0" d="M52.1,14.8c.5,3.5,1,7.3-.5,10.6-2.6,5.5-9.1,6.7-14.4,5.3-.2.4-.5.8-.7,1.1-1.3,1.8-2.8,3.5-4.3,5-6.7,6.5-15.1,10.6-23.9,13.3-1,.3-1.4-1.3-.4-1.6,3.8-1.1,7.5-2.6,11.1-4.4,3.4-1.7,6.8-3.8,9.7-6.2,2.6-2.3,5.3-4.8,7.1-7.7-2.1-.8-4-1.9-5.7-3.4-1.5-1.3-3-3.1-3.3-5-.3-2,.6-3.7,2.3-4.6,1.1-.6,2.5-1.1,3.8-.8,1.3.3,2.6,1.2,3.5,2.3,1.6,2,3.2,5,2.8,7.7-.1,1-.5,1.9-.9,2.8.1,0,.2,0,.4,0,2.5.6,5.3.6,7.6-.6,1.3-.6,2.7-1.6,3.5-2.8,1.1-1.7,1.5-3.7,1.5-5.7s-.4-6-1.2-8.7c-1.1-3.9-3.3-7.3-6.2-10-.8-.7.4-1.8,1.1-1.1,1.8,1.6,3.5,3.6,4.7,5.8,1.5,2.7,2.3,5.7,2.8,8.8h0ZM31.5,26c1.5,1.1,3.1,2.1,4.9,2.7.5-1,1-2.1.9-3.1,0-1-.3-2.1-.7-3-.9-2.2-3.1-5.7-5.9-4.6-.8.3-1.8.8-2.3,1.5-.4.6-.5,1.2-.4,1.8.4,1.9,1.9,3.5,3.4,4.7h0Z"/>
  <path class="st0" d="M18.6,51.1c1,.3.6,1.8-.4,1.6-1.1-.3-2.1-.3-3.2-.3-1.6,0-3.1,0-4.6.1-3.1.2-6.3.6-9.4,1.3-.8.2-1.4-.8-.8-1.3,2-1.8,3.5-4.3,5-6.6,1.7-2.6,3.3-5.3,4.9-8.1.5-.9,1.9,0,1.4.9-1.6,2.8-3.3,5.6-5,8.3-1.1,1.6-2.1,3.3-3.3,4.8,2.4-.4,4.8-.7,7.2-.9,2.6-.1,5.6-.5,8.2.1h0Z"/>
</svg>