<svg width="74" height="77" viewBox="0 0 74 77" fill="none" xmlns="http://www.w3.org/2000/svg">
<path d="M0.706905 20.8984C1.31094 16.568 2.5328 12.3819 4.61822 8.53522C6.30631 5.41885 8.60303 2.64667 11.2328 0.304735C12.3398 -0.681342 13.9705 0.955918 12.8566 1.94897C8.60532 5.73746 5.60811 10.5376 4.03486 16.0424C2.92554 19.9309 2.33298 24.2473 2.29853 28.2824C2.27327 31.1499 2.79692 33.9918 4.39774 36.3989C5.57366 38.1687 7.47305 39.4874 9.34717 40.392C12.6407 41.9828 16.5221 41.9921 20.0223 41.2153C20.1946 41.1781 20.3645 41.1362 20.5368 41.0944C19.9075 39.792 19.4229 38.4245 19.2414 37.071C18.7293 33.2476 20.8974 28.987 23.2331 26.1427C24.4826 24.6218 26.1752 23.3403 28.1114 22.9194C29.9786 22.5124 31.8206 23.1334 33.4467 24.0427C35.872 25.3985 37.1605 27.787 36.7356 30.5661C36.3038 33.3941 34.1196 35.864 32.0663 37.6617C29.6892 39.7432 26.9079 41.3362 23.9635 42.4456C26.5542 46.6713 30.3048 50.1342 33.991 53.3552C38.0562 56.9042 42.8471 59.7415 47.6266 62.1764C52.6266 64.723 57.8815 66.7184 63.2305 68.3627C64.643 68.7976 64.0413 71.0418 62.6196 70.6046C50.1898 66.7859 38.38 60.9136 28.8785 51.8226C26.6231 49.6644 24.5308 47.3364 22.7371 44.7736C22.3857 44.2735 22.0343 43.741 21.6943 43.1898C14.2782 45.2178 5.01096 43.4782 1.43497 35.8221C-0.740028 31.1638 0.0247803 25.8079 0.709202 20.8984H0.706905ZM34.4963 30.0824C34.6754 29.1824 34.4917 28.287 33.9405 27.4544C33.2721 26.4404 31.9308 25.7823 30.7871 25.366C26.8 23.9194 23.7017 28.801 22.4454 31.915C21.9125 33.2313 21.4945 34.657 21.4647 36.0896C21.4325 37.5245 22.0687 39.0501 22.7945 40.4176C25.2657 39.5455 27.6176 38.2664 29.6709 36.657C31.7655 35.0128 33.9519 32.8081 34.4963 30.0824Z" fill="#202020"/>
<path d="M47.748 72.1323C51.4342 71.2299 55.5867 71.6369 59.3212 71.8857C62.7043 72.1113 66.1402 72.4393 69.5003 73.0695C67.7984 70.9578 66.3101 68.6252 64.8494 66.3972C62.3575 62.5948 60.0148 58.69 57.7594 54.741C57.0176 53.441 59.0019 52.2689 59.7415 53.5666C61.9395 57.4179 64.2293 61.218 66.6431 64.9367C68.724 68.1414 70.8645 71.5578 73.6504 74.1905C74.5094 75.0021 73.616 76.4254 72.5342 76.1347C68.2348 74.9812 63.7447 74.5207 59.3212 74.2137C57.1715 74.0649 55.0171 73.9835 52.8628 73.9998C51.3699 74.0114 49.8151 74.0184 48.3566 74.3765C46.9166 74.7277 46.308 72.4858 47.7457 72.1346L47.748 72.1323Z" fill="#202020"/>
</svg>
