<?xml version="1.0" encoding="UTF-8"?>
<svg id="Calque_1" xmlns="http://www.w3.org/2000/svg" version="1.1" viewBox="0 0 67.4 66.9">
  <!-- Generator: Adobe Illustrator 29.2.1, SVG Export Plug-In . SVG Version: 2.1.0 Build 116)  -->
  <defs>
    <style>
      .st0 {
        fill: none;
        stroke: #202020;
        stroke-linecap: round;
        stroke-width: 1.4px;
      }
    </style>
  </defs>
  <path class="st0" d="M3.4,26.7c5.5,1.2.6,12.3-1.2,15.2-.6.9-2.9,4.5-.2,1.9,3-2.9,5.7-6.1,9-8.8,4.1-3.4-2.3,1.7-3.2,2.4-1.1.9-2.1,2.1-3.2,2.8-.2.1.3-.4.4-.6.9-1.4,1.5-3.1,2.2-4.7,3.8-9.5,9.9-18.3,17.6-25,7.2-6.3,23.3-14.7,31.1-4.3,6.8,8.9.9,22.9-4.3,30.9-3.6,5.5-8.1,10.5-13.2,14.6-2.4,1.9-7.9,6.5-11.6,5.7-4.5-1,4.7-8.5,8.7-11,6-3.9,11.1-6.2,18.2-7.3,3.6-.5,10.2-.4,12.4,3.5,1.4,2.5.1,6.4-.9,8.6-3.7,7.8-12.4,11.9-20,14.9-1.2.4-1.8.7-2.9.5"/>
</svg>