<?xml version="1.0" encoding="UTF-8"?>
<svg id="Calque_1" xmlns="http://www.w3.org/2000/svg" version="1.1" viewBox="0 0 43.9 67.7">
  <!-- Generator: Adobe Illustrator 29.2.1, SVG Export Plug-In . SVG Version: 2.1.0 Build 116)  -->
  <defs>
    <style>
      .st0 {
        fill: none;
        stroke: #202020;
        stroke-linecap: round;
        stroke-width: 1.4px;
      }
    </style>
  </defs>
  <path class="st0" d="M41.7,58.1c.2.3.7-.3-1.1.6-3.2,1.7-5.5,4-7.6,6.2-.3.3-.6.7-.9,1.1-.1.2.3.7,0,.7-.5,0-.8-3.4-.9-3.6,0-.5,0-2.7,0-1.1v4.1c0,1.4-.5,1.1.2,0,1.4-2.5,2.7-5.1,3.5-7.7,3.3-10.3,6.1-20.8,7.7-31.2,1.2-7.5,1.6-16.6-5.1-23.4-2.5-2.5-6.9-3.4-11.5-2.9-7,.7-11,3.5-14.3,7.2C7,13.4,4.1,19.5,2,25.4c-.7,1.8-1.3,3.5-1.3,5.3"/>
</svg>