<svg width="65" height="100" viewBox="0 0 65 100" fill="none" xmlns="http://www.w3.org/2000/svg">
<path d="M64 45.4778C64 42.7866 63.0917 40.2015 62.1221 37.5678C58.9274 28.89 54.6807 19.727 47.7251 11.8603C42.8505 6.3472 36.9323 2.19572 26.5817 1.17343C19.701 0.49384 13.1922 1.78562 9.54173 5.50709C-0.313373 15.5538 0.259186 28.9617 2.03024 40.0923C4.48063 55.4923 8.49388 71.1097 13.4366 86.29C14.695 90.1551 16.5673 94.0194 18.6529 97.7343C19.6109 99.4408 18.9311 99.4029 18.9311 97.7343C18.9311 95.7172 18.8385 93.6917 18.9311 91.6756C19.038 89.3471 18.9743 92.6398 18.9311 93.3585C18.9084 93.7365 18.5282 98.702 17.6792 98.702C17.1439 98.702 17.7574 98.0301 17.5401 97.7343C17.149 97.202 16.7704 96.6404 16.2882 96.1354C13.1348 92.8339 9.69882 89.458 4.95137 86.9211C2.3012 85.505 2.94281 86.4061 3.28215 85.9955" stroke="#202020" stroke-width="2" stroke-linecap="round"/>
</svg>
