<?xml version="1.0" encoding="UTF-8"?>
<svg id="Calque_2" data-name="Calque 2" xmlns="http://www.w3.org/2000/svg" viewBox="0 0 97.61 82.47">
  <g id="Calque_1-2" data-name="Calque 1">
    <g>
      <path d="M34.53,46.08c-3.46-2.74-4.7-7.28-5.17-11.5-.54-4.93.81-9.34,3.98-13.14,1.42-1.71,3.06-3.34,4.85-4.67,2.01-1.5,4.17-1.93,6.61-2.22,4.75-.55,9.5-.62,13.5,2.37,7.34,5.49,9.68,15.57,6.08,23.9-1.81,4.19-4.97,7.79-9.23,9.58s-9.74,2.4-14.39,1.42c-2.61-.55-4.99-1.57-6.79-3.6s-3.14-4.25-4.29-6.56c-2.42-4.87-3.27-10.74-.53-15.67.47-.84-.82-1.6-1.3-.76-2.54,4.56-2.36,10.02-.52,14.8.95,2.46,2.26,4.75,3.77,6.91,1.4,2,2.95,3.86,5.19,4.96,4.79,2.35,10.62,2.24,15.71,1.07s9.1-3.88,11.93-8.17c5.43-8.23,4.7-19.38-2.04-26.64-1.63-1.75-3.59-3.31-5.8-4.25-2.38-1.02-4.99-1.26-7.55-1.17s-5.51.25-7.98,1.07c-2.25.75-4.1,2.33-5.79,3.94-4.16,3.94-7.14,8.8-7.05,14.69.08,5.17,1.49,11.33,5.74,14.7.75.59,1.82-.46,1.06-1.06h0Z"/>
      <path d="M32.42,31.19c.11-2.97,1.44-5.67,3.39-7.87s4.6-4.35,7.48-5.13c6.04-1.64,13.46.82,16.8,6.21,1.76,2.84,2.01,6.03,1.52,9.28s-1.61,6.5-3.96,8.96c-2.12,2.22-5.39,4.38-8.52,4.66-1.64.15-3.22-.41-4.74-.97-1.65-.61-3.28-1.27-4.83-2.11-2.94-1.61-5.33-3.92-6.45-7.14-1.05-3.03-.97-6.4.37-9.33.33-.73-.55-1.56-1.18-.91-.98,1.02-.94,2.46-1.03,3.79-.12,1.77-.15,3.56.05,5.33.33,2.93,1.28,5.79,3.18,8.08,2.01,2.41,4.98,3.56,7.96,4.27,3.24.77,6.64.89,9.8-.27.9-.33.51-1.78-.4-1.45-2.7.99-5.56,1-8.36.41s-5.5-1.44-7.44-3.46c-1.73-1.8-2.7-4.21-3.12-6.64-.27-1.53-.31-3.1-.27-4.65.03-1.17-.2-3.46.67-4.36l-1.18-.91c-2.7,5.88-.99,13,4.17,16.93,1.5,1.15,3.18,2.02,4.91,2.76s3.53,1.52,5.37,1.91c3.58.76,7.16-.96,9.97-3.07s4.86-5.11,5.83-8.6,1.41-7.58.03-11.07c-2.64-6.71-9.87-10.01-16.79-9.55-7.3.49-14.5,7.45-14.77,14.87-.04.97,1.46.96,1.5,0h0Z"/>
      <path d="M7.02,53.3c8.44,8.96,15.4,19.21,24.02,28.01.68.69,1.74-.37,1.06-1.06-8.62-8.8-15.58-19.05-24.02-28.01-.66-.7-1.72.36-1.06,1.06h0Z"/>
      <path d="M31.51,81.42c13.82-14.54,30.43-26.33,48.69-34.61,5.2-2.36,10.53-4.41,15.96-6.18.91-.3.52-1.75-.4-1.45-19.26,6.27-37.23,16.26-52.72,29.3-4.42,3.72-8.62,7.69-12.6,11.87-.67.7.39,1.76,1.06,1.06h0Z"/>
      <path d="M97.45,39.47c-4.93-10.99-9-22.34-12.18-33.95-.26-.93-1.7-.54-1.45.4,3.22,11.74,7.35,23.21,12.33,34.31.39.88,1.69.12,1.3-.76h0Z"/>
      <path d="M84.29,6.19c-2.45-.59-5.01-.33-7.5-.26-2.62.07-5.29.05-7.85.67-4.81,1.17-9.43,3.65-13.46,6.47-.78.55-.04,1.85.76,1.3,3.83-2.68,8.13-5,12.66-6.21,2.43-.65,4.93-.65,7.42-.71s5.14-.4,7.58.2c.94.23,1.34-1.22.4-1.45h0Z"/>
      <path d="M8.46,53.34c2.94-4.25,5.88-8.51,9.1-12.55,1.54-1.93,3.14-3.82,4.83-5.62s3.43-3.65,5.62-4.86c.84-.47.09-1.76-.76-1.3-2.12,1.18-3.84,2.89-5.49,4.64-1.85,1.95-3.59,3.99-5.26,6.08-3.3,4.14-6.32,8.5-9.33,12.86-.55.8.75,1.55,1.3.76h0Z"/>
      <path d="M14.74,43.8c-.49-.9-1.14-1.69-1.94-2.34-.08-.06-.17-.12-.24-.19-.12-.13-.08-.03-.07-.13.02-.22.23-.5.33-.69.24-.47.5-.93.78-1.39,1.11-1.81,2.49-3.42,4.08-4.82l-1.18-.15c.76,1.17,1.55,2.32,2.37,3.45.48.67,1.59.29,1.37-.58-.09-.35-.3-.64-.63-.8-.87-.41-1.63.88-.76,1.3l-.06-.1,1.37-.58c-.82-1.13-1.61-2.28-2.37-3.45-.28-.42-.8-.48-1.18-.15-1.82,1.59-3.38,3.48-4.59,5.57-.5.86-1.49,2.2-.85,3.2.3.48.85.79,1.24,1.19s.74.9,1.02,1.41c.46.85,1.76.09,1.3-.76h0Z"/>
      <path d="M22.41,32.38c.56-.2.8-.66.91-1.21s.2-1.1.3-1.65c.2-1.1.41-2.19.61-3.29.07-.4-.11-.81-.52-.92-.36-.1-.85.12-.92.52-.18.95-.35,1.9-.53,2.85-.09.48-.18.95-.26,1.43-.04.22-.08.44-.12.66-.02.09-.04.17-.05.26-.03.09-.03.1,0,.03.05-.06.12-.1.19-.12-.38.14-.64.51-.52.92.1.37.54.66.92.52h0Z"/>
      <path d="M19.44,28.63c.1.02.04.1.02-.05-.02-.18-.09-.37-.13-.55-.06-.32-.11-.65-.15-.98-.08-.74-.11-1.48-.13-2.21-.05-1.52-.09-3.03-.14-4.55-.02-.55-.63-.96-1.13-.65-.38.24-.55.62-.43,1.06.26.93,1.71.53,1.45-.4l-.02-.09v.4l.03-.08-.34.45.08-.05-1.13-.65c.05,1.8.08,3.6.17,5.4.04.86.12,1.72.27,2.57.13.71.33,1.68,1.18,1.82.4.06.81-.1.92-.52.1-.36-.12-.86-.52-.92h0Z"/>
      <path d="M15.1,30.95c-.54-1.54-1.11-3.07-1.71-4.59-.11-.29-.3-.49-.62-.54s-.57.11-.75.36c-.07.1-.15.2-.22.3-.23.32-.07.85.27,1.03.39.2.78.07,1.03-.27.07-.1.15-.2.22-.3l-1.37-.18c.6,1.52,1.17,3.05,1.71,4.59.13.37.52.65.92.52.37-.12.66-.53.52-.92h0Z"/>
      <path d="M9.54,32.98c-.49-1.24-1.59-2.11-2.37-3.16s-1.49-2.24-2.05-3.46c-.17-.37-.7-.46-1.03-.27-.38.22-.44.66-.27,1.03.08.17.15.33.23.5.17.37.7.46,1.03.27.38-.22.44-.66.27-1.03-.08-.17-.15-.33-.23-.5l-1.3.76c.55,1.19,1.21,2.32,1.98,3.37.39.53.81,1.05,1.25,1.54.37.41.83.83,1.04,1.35.15.38.5.64.92.52.36-.1.67-.54.52-.92h0Z"/>
      <path d="M7.86,35.92c-1.28-.89-2.73-1.53-4.25-1.89l-.4,1.45c.15.02.3.04.46.06.39.05.82-.09.92-.52.08-.35-.11-.86-.52-.92-.15-.02-.3-.04-.46-.06-.39-.05-.82.09-.92.52-.09.38.12.83.52.92.37.09.73.19,1.09.31.16.05.31.11.47.17.09.03.18.07.26.11-.13-.06.12.05.15.07.67.3,1.31.67,1.92,1.09.32.22.85.07,1.03-.27.2-.38.08-.79-.27-1.03h0Z"/>
      <path d="M8.83,39.13c-.14.21-.66.19-.9.2-.65.03-1.29.04-1.94.04-1.27,0-2.54-.07-3.81-.2-.37-.04-.7.31-.74.65-.05.38.17.7.54.82.08.03.16.05.24.08.92.31,1.31-1.14.4-1.45-.08-.03-.16-.05-.24-.08l-.2,1.47c1.46.14,2.92.21,4.38.2,1.2-.01,2.8.15,3.56-.98.23-.34.06-.83-.27-1.03-.37-.22-.8-.07-1.03.27h0Z"/>
      <path d="M7.62,42.87c-2.13.45-3.88,1.83-5.54,3.16-.32.25-.26.8,0,1.06.31.31.74.25,1.06,0,1.46-1.17,3.02-2.38,4.88-2.77.4-.08.63-.55.52-.92-.11-.41-.52-.61-.92-.52h0Z"/>
      <path d="M12.17,51.59c1.64,1.44,3.27,2.88,4.91,4.32.37.32.91.28,1.18-.15,2.42-3.88,5.1-7.59,8.02-11.11.26-.32.3-.74,0-1.06-1.1-1.17-1.99-2.47-2.7-3.92-.27-.56-.99-.41-1.3,0-2.86,3.78-5.95,7.39-9.22,10.82-.67.7.39,1.76,1.06,1.06,3.36-3.53,6.52-7.24,9.46-11.13h-1.3c.76,1.55,1.75,2.96,2.93,4.22v-1.06c-3,3.62-5.76,7.43-8.25,11.41l1.18-.15c-1.64-1.44-3.27-2.88-4.91-4.32-.72-.63-1.79.42-1.06,1.06h0Z"/>
      <path d="M13.45,49.82c-.14.89.07,1.87.36,2.71s1.42.66,1.47-.2c.06-1.02.19-2.02.41-3.02l-1.47-.2c.11,1.31.22,2.61.34,3.92.08.95,1.5.98,1.5,0,0-1.43.16-2.83.5-4.22l-1.47-.2c.02,1.75.08,3.52.57,5.21.23.78,1.56.67,1.47-.2-.19-2.01-.41-4.17.46-6.06l-1.4-.38c.02,2.52.03,5.04.05,7.56,0,.69,1.08,1.09,1.4.38.64-1.46.34-3.06.42-4.61.08-1.73.39-3.44.88-5.1l-1.47-.2c-.27,3.01-.53,6.04-.19,9.06.11.95,1.44.98,1.5,0,.24-3.58.5-7.18,1.76-10.58l-1.47-.2c-.23,2.97-.46,5.94-.68,8.91-.06.84,1.3,1.03,1.47.2.67-3.28,1.34-6.55,2.01-9.83l-1.45-.4c-.53,2.76-.84,5.56-.9,8.37-.02.82,1.33,1.05,1.47.2.51-3.11.77-6.46,2.02-9.39l-1.37-.58c-.38,2.72-.75,5.45-1.13,8.17-.13.93,1.24,1.37,1.45.4.5-2.33,1.01-4.66,1.51-6.98l-1.45-.4c-.35,2.14-.69,4.28-.65,6.45.02.83,1.26,1.04,1.47.2.43-1.7.82-3.41,1.17-5.13.19-.94-1.17-1.33-1.45-.4-.37,1.24-.53,2.53-.47,3.83.03.67,1.08,1.12,1.4.38.43-1.02.76-2.05.94-3.14.16-.93-1.17-1.35-1.45-.4-.22.77-.31,1.55-.26,2.34.04.72,1.01,1.05,1.4.38.34-.58.61-1.19.83-1.82l-1.47-.2c-.02.35-.04.71-.06,1.06-.05.82.99.92,1.4.38.29-.38.52-.78.71-1.22l-1.4-.38c.04.31.07.63.11.94.07.6.79,1.05,1.28.53l.27-.29c.66-.71-.4-1.77-1.06-1.06l-.27.29,1.28.53c-.04-.31-.07-.63-.11-.94-.07-.64-1.06-1.15-1.4-.38-.19.44-.42.84-.71,1.22l1.4.38c.02-.35.04-.71.06-1.06.05-.88-1.21-.97-1.47-.2-.18.52-.4.99-.68,1.47l1.4.38c-.04-.67.02-1.3.21-1.94l-1.45-.4c-.16.95-.41,1.89-.79,2.79l1.4.38c-.06-1.18.07-2.3.41-3.43l-1.45-.4c-.35,1.72-.74,3.43-1.17,5.13l1.47.2c-.04-2.04.27-4.05.6-6.05.15-.93-1.24-1.36-1.45-.4-.5,2.33-1.01,4.66-1.51,6.98l1.45.4c.38-2.72.75-5.45,1.13-8.17.05-.38-.06-.73-.43-.88-.31-.13-.79-.04-.94.31-1.32,3.07-1.64,6.47-2.17,9.74l1.47.2c.06-2.68.34-5.34.84-7.97.18-.94-1.25-1.35-1.45-.4-.67,3.28-1.34,6.55-2.01,9.83l1.47.2c.23-2.97.46-5.94.68-8.91.07-.9-1.2-.94-1.47-.2-1.31,3.51-1.57,7.27-1.82,10.98h1.5c-.34-3.02-.08-6.04.19-9.06.08-.86-1.24-.99-1.47-.2-.46,1.55-.76,3.14-.89,4.75-.07.79-.09,1.59-.07,2.38.02.73.11,1.53-.2,2.22l1.4.38c-.02-2.52-.03-5.04-.05-7.56,0-.7-1.07-1.08-1.4-.38-1,2.17-.88,4.5-.66,6.82l1.47-.2c-.46-1.57-.5-3.19-.52-4.81-.01-.83-1.27-1.04-1.47-.2-.36,1.52-.55,3.06-.55,4.62h1.5c-.11-1.31-.22-2.61-.34-3.92-.07-.79-1.28-1.08-1.47-.2-.24,1.13-.4,2.27-.46,3.42l1.47-.2c-.19-.56-.45-1.32-.36-1.91.15-.94-1.29-1.35-1.45-.4h0Z"/>
      <path d="M17.44,62.82c3.76-6.1,8.3-11.67,13.52-16.58.7-.66-.36-1.72-1.06-1.06-5.3,5-9.93,10.68-13.75,16.89-.51.82.79,1.58,1.3.76h0Z"/>
      <path d="M66.48,23.44c6.23-3.1,13.03-4.9,19.98-5.28.96-.05.97-1.55,0-1.5-7.22.4-14.26,2.27-20.73,5.49-.86.43-.11,1.72.76,1.3h0Z"/>
      <path d="M62.87,8.71l-.03.02c-.3.21-.41.5-.34.85.1.51.74.78,1.18.52s.45-.76.37-1.21c-.11-.64-.35-1.26-.62-1.85-.13-.28-.27-.56-.42-.83-.08-.14-.15-.27-.23-.4,0-.01-.09-.15-.09-.15.02-.01-.05.25-.05.26-.06.09-.05.09.01.01l.06-.05c.06-.05.12-.1.17-.15.13-.11.25-.22.38-.33.27-.23.53-.46.8-.69l-1.18-.15c.63,1.44,1.26,2.88,1.88,4.32.15.34.63.44.94.31s.58-.53.43-.88c-.21-.54-.43-1.07-.64-1.61-.15-.38-.5-.64-.92-.52-.36.1-.68.54-.52.92.21.54.43,1.07.64,1.61l1.37-.58c-.63-1.44-1.26-2.88-1.88-4.32-.21-.48-.85-.43-1.18-.15-.44.38-.89.75-1.32,1.14-.22.2-.4.44-.46.74-.08.39.07.72.26,1.05.27.45.53.92.73,1.4.08.19.17.46.24.69.03.12.07.24.09.36.02.08.03.15.05.23.02.13-.02.22.03-.04l.19-.33-.04.05.53-.22h-.04c.18.07.35.15.53.22l-.03-.03.19.33v-.04c-.12.28-.24.56-.35.85l.03-.02c.33-.23.49-.66.27-1.03-.19-.33-.69-.5-1.03-.27h0Z"/>
      <path d="M64.47,4.51c-.08-.08-.08-.05.01.11.05.17.07.2.06.09l-.55.72c.58-.19,1.02-.58,1.45-.99.09-.09.19-.18.28-.26.04-.04.09-.08.13-.11-.1.08-.03.03.03-.02.05-.03.1-.05.14-.08.13-.09-.12.03.02-.01.05-.01.1-.03.15-.04-.19.05,0,0,.08.01l-.72-.55c.41,1.77,1.12,3.48,2.1,5.02.2.32.59.45.94.31.32-.13.56-.53.43-.88-.11-.3-.22-.59-.33-.89-.13-.37-.52-.66-.92-.52-.36.12-.67.53-.52.92.11.3.22.59.33.89l1.37-.58c-.93-1.47-1.55-2.96-1.94-4.66-.08-.33-.4-.54-.72-.55-.66-.03-1.21.33-1.68.75-.19.18-.37.36-.57.54-.03.02-.2.16-.05.05-.05.04-.09.07-.14.1s-.1.06-.15.09c-.08.04-.07.04.02,0-.04.01-.07.03-.11.04-.33.11-.53.38-.55.72-.02.32.12.66.36.87.31.26.76.3,1.06,0,.27-.27.31-.8,0-1.06h0Z"/>
      <path d="M67.18,4.21c.09-.11.19-.21.3-.3-.1.09.05-.03.07-.05.07-.05.14-.09.21-.12.03-.02.06-.03.09-.05-.06.02-.07.03-.02,0,.07-.02.13-.05.2-.07s.14-.03.21-.05c.05,0,.05,0-.03,0,.09,0,.09,0,0,0l-.33-.19s-.04-.12-.06-.12c.01,0,.04.13.05.15.04.11.08.22.13.33.09.23.19.45.3.67.2.39.42.77.67,1.14.51.76,1.09,1.46,1.67,2.17l.91-1.18s.08.08.1.13c.01.04.01.19.02.05.01-.39-.36-.77-.75-.75-.42.02-.73.33-.75.75-.02.47.23.88.62,1.12.32.2.75.09.97-.19.24-.31.18-.69-.06-.98-.22-.26-.43-.52-.64-.79-.05-.06-.1-.12-.15-.18,0,0-.14-.19-.08-.1-.1-.13-.2-.27-.3-.41-.39-.54-.74-1.1-1.02-1.7-.03-.07-.07-.14-.1-.21.05.11-.03-.09-.04-.11-.07-.19-.12-.39-.21-.56-.27-.5-.77-.56-1.27-.47-.67.12-1.32.5-1.76,1.02-.25.3-.32.77,0,1.06.28.26.79.32,1.06,0h0Z"/>
      <path d="M69.63,4.14c.3-.29.59-.59.85-.91.07-.08.13-.16.19-.24.06-.07.11-.14.16-.21-.05.07-.05.07,0,0,.03-.03.06-.07.09-.1.06-.06.06-.06,0,0,.08-.04.07-.04-.01,0-.1.01-.11.02-.02.02l-.65-.37c.85,1.43,1.69,2.86,2.54,4.29l1.03-1.03c-.07-.04-.07-.04,0,0,.05.08.06.08.01,0,.03.09.04.09.01,0,.02.05.02.11,0,.16.06-.39-.1-.83-.52-.92-.36-.08-.86.11-.92.52-.09.61.11,1.18.66,1.51.64.39,1.41-.38,1.03-1.03-.73-1.23-1.46-2.47-2.19-3.7-.09-.15-.18-.3-.26-.44-.18-.3-.37-.48-.74-.52-.41-.04-.8.18-1.07.47-.05.05-.09.1-.13.15l-.12.15c-.05.06-.05.07-.02.02-.1.12-.2.24-.3.36-.22.26-.46.5-.7.73-.29.27-.29.79,0,1.06s.76.29,1.06,0h0Z"/>
      <path d="M72.12,2.95c.53-.64,1.1-1.14,1.79-1.55l-1.13-.65c.07.56.28,1.01.59,1.47s.62.93.93,1.4c.62.93,1.24,1.87,1.86,2.8.22.34.66.48,1.03.27.33-.2.49-.69.27-1.03-.58-.87-1.16-1.75-1.74-2.62-.29-.44-.58-.87-.87-1.31-.12-.18-.25-.37-.36-.56-.06-.1-.12-.2-.16-.31.04.1-.05-.25-.03-.11-.03-.27-.12-.5-.37-.65-.23-.13-.53-.14-.76,0-.79.47-1.5,1.08-2.09,1.79-.26.31-.31.75,0,1.06.27.27.8.31,1.06,0h0Z"/>
      <path d="M32.47,79.96c-.23-.15-.48-.25-.75-.29v1.45c1.61-.26,3.23.19,4.77.58.8.2,1.6.39,2.41.54.71.13,1.77.49,2.38-.02.25-.21.27-.64.12-.91s-.41-.4-.71-.41-.68.23-.72.55v.03c-.06.4.1.81.52.92.35.1.86-.12.92-.52v-.03c-.24.18-.48.37-.72.55h.05c-.22-.12-.43-.25-.65-.37l.02.03.12-.91-.06.05.53-.22c-.76.03-1.62-.22-2.36-.38s-1.52-.37-2.29-.56c-1.56-.38-3.12-.62-4.73-.37-.72.11-.71,1.32,0,1.45.17.03.24.05.39.14.82.52,1.57-.78.76-1.3h0Z"/>
      <path d="M41.26,81.94c12.01-12.09,26.4-21.78,42.13-28.34,4.43-1.84,8.96-3.43,13.56-4.78.92-.27.53-1.72-.4-1.45-16.49,4.82-31.95,12.88-45.35,23.61-3.85,3.08-7.52,6.39-11,9.89-.68.69.38,1.75,1.06,1.06h0Z"/>
      <path d="M97.38,40.18l.14-.23-1.37-.58c-.51,3.08-.73,6.2-.62,9.32l1.47-.2c-.07-.17-.13-.35-.2-.52-.15-.38-.5-.64-.92-.52-.36.1-.67.54-.52.92.07.17.13.35.2.52.28.74,1.5.71,1.47-.2-.1-2.98.08-5.97.57-8.92.13-.81-.89-1.34-1.37-.58l-.14.23c-.51.82.78,1.57,1.3.76h0Z"/>
      <path d="M33.54,49.32c1.65,1.73,3.3,3.47,4.95,5.2.28.29.78.28,1.06,0s.28-.77,0-1.06c-1.65-1.73-3.3-3.47-4.95-5.2-.28-.29-.78-.28-1.06,0s-.28.77,0,1.06h0Z"/>
      <path d="M65.42,25.04c2.13,3.1,3.96,6.29,4.5,10.08.53,3.74-.46,7.24-2.59,10.33-3.94,5.7-10.64,9.31-17.56,9.46-4.21.09-8.34-1.01-11.96-3.14-.83-.49-1.59.81-.76,1.3,6.74,3.96,15.1,4.44,22.19,1.1,6.64-3.13,12.62-9.81,12.32-17.51-.18-4.64-2.26-8.63-4.84-12.37-.54-.79-1.84-.04-1.3.76h0Z"/>
    </g>
  </g>
</svg>