<?xml version="1.0" encoding="UTF-8"?>
<svg id="Calque_2" xmlns="http://www.w3.org/2000/svg" version="1.1" viewBox="0 0 65.4 56.1">
  <!-- Generator: Adobe Illustrator 29.2.1, SVG Export Plug-In . SVG Version: 2.1.0 Build 116)  -->
  <g id="Calque_1-2">
    <g>
      <path d="M22.5,31.3c-2.4-1.9-3.2-4.9-3.5-7.8-.4-3.4.6-6.4,2.7-8.9,1-1.2,2.1-2.3,3.3-3.2,1.4-1,2.8-1.3,4.5-1.5,3.2-.4,6.5-.4,9.2,1.6,5,3.7,6.6,10.6,4.1,16.3-1.2,2.8-3.4,5.3-6.3,6.5s-6.6,1.6-9.8,1c-1.8-.4-3.4-1.1-4.6-2.4s-2.1-2.9-2.9-4.5c-1.6-3.3-2.2-7.3-.4-10.7.3-.6-.6-1.1-.9-.5-1.7,3.1-1.6,6.8-.4,10.1.6,1.7,1.5,3.2,2.6,4.7,1,1.4,2,2.6,3.5,3.4,3.3,1.6,7.2,1.5,10.7.7s6.2-2.6,8.1-5.6c3.7-5.6,3.2-13.2-1.4-18.1-1.1-1.2-2.4-2.3-3.9-2.9-1.6-.7-3.4-.9-5.1-.8s-3.7.2-5.4.7c-1.5.5-2.8,1.6-3.9,2.7-2.8,2.7-4.9,6-4.8,10,0,3.5,1,7.7,3.9,10,.5.4,1.2-.3.7-.7h0Z"/>
      <path d="M21.1,21.2c0-2,1-3.9,2.3-5.4s3.1-3,5.1-3.5c4.1-1.1,9.2.6,11.4,4.2,1.2,1.9,1.4,4.1,1,6.3-.3,2.2-1.1,4.4-2.7,6.1-1.4,1.5-3.7,3-5.8,3.2-1.1.1-2.2-.3-3.2-.7-1.1-.4-2.2-.9-3.3-1.4-2-1.1-3.6-2.7-4.4-4.9-.7-2.1-.7-4.4.3-6.3.2-.5-.4-1.1-.8-.6-.7.7-.6,1.7-.7,2.6,0,1.2-.1,2.4,0,3.6.2,2,.9,3.9,2.2,5.5,1.4,1.6,3.4,2.4,5.4,2.9,2.2.5,4.5.6,6.7-.2.6-.2.3-1.2-.3-1-1.8.7-3.8.7-5.7.3s-3.7-1-5.1-2.4c-1.2-1.2-1.8-2.9-2.1-4.5-.2-1-.2-2.1-.2-3.2,0-.8-.1-2.4.5-3l-.8-.6c-1.8,4-.7,8.8,2.8,11.5,1,.8,2.2,1.4,3.3,1.9s2.4,1,3.7,1.3c2.4.5,4.9-.7,6.8-2.1s3.3-3.5,4-5.8,1-5.2,0-7.5c-1.8-4.6-6.7-6.8-11.4-6.5-5,.3-9.9,5.1-10,10.1,0,.7,1,.7,1,0h0Z"/>
      <path d="M3.8,36.2c5.7,6.1,10.5,13.1,16.3,19,.5.5,1.2-.3.7-.7-5.9-6-10.6-13-16.3-19-.4-.5-1.2.2-.7.7h0Z"/>
      <path d="M20.5,55.4c9.4-9.9,20.7-17.9,33.1-23.5,3.5-1.6,7.2-3,10.9-4.2.6-.2.4-1.2-.3-1-13.1,4.3-25.3,11.1-35.8,19.9-3,2.5-5.9,5.2-8.6,8.1-.5.5.3,1.2.7.7h0Z"/>
      <path d="M65.3,26.8c-3.4-7.5-6.1-15.2-8.3-23.1-.2-.6-1.2-.4-1,.3,2.2,8,5,15.8,8.4,23.3.3.6,1.1,0,.9-.5h0Z"/>
      <path d="M56.3,4.2c-1.7-.4-3.4-.2-5.1-.2-1.8,0-3.6,0-5.3.5-3.3.8-6.4,2.5-9.2,4.4-.5.4,0,1.3.5.9,2.6-1.8,5.5-3.4,8.6-4.2,1.7-.4,3.4-.4,5-.5s3.5-.3,5.2.1c.6.2.9-.8.3-1h0Z"/>
      <path d="M4.8,36.3c2-2.9,4-5.8,6.2-8.5,1-1.3,2.1-2.6,3.3-3.8s2.3-2.5,3.8-3.3c.6-.3,0-1.2-.5-.9-1.4.8-2.6,2-3.7,3.2-1.3,1.3-2.4,2.7-3.6,4.1-2.2,2.8-4.3,5.8-6.3,8.7-.4.5.5,1.1.9.5h0Z"/>
      <path d="M9,29.8c-.3-.6-.8-1.1-1.3-1.6,0,0-.1,0-.2-.1,0,0,0,0,0,0,0-.1.2-.3.2-.5.2-.3.3-.6.5-.9.8-1.2,1.7-2.3,2.8-3.3h-.8c.5.7,1.1,1.5,1.6,2.2.3.5,1.1.2.9-.4,0-.2-.2-.4-.4-.5-.6-.3-1.1.6-.5.9h0c0,0,.9-.5.9-.5-.6-.8-1.1-1.6-1.6-2.3-.2-.3-.5-.3-.8-.1-1.2,1.1-2.3,2.4-3.1,3.8-.3.6-1,1.5-.6,2.2.2.3.6.5.8.8s.5.6.7,1c.3.6,1.2,0,.9-.5h0Z"/>
      <path d="M14.3,22c.4-.1.5-.4.6-.8s.1-.7.2-1.1c.1-.7.3-1.5.4-2.2,0-.3,0-.6-.4-.6-.2,0-.6,0-.6.4-.1.6-.2,1.3-.4,1.9,0,.3-.1.6-.2,1,0,.1,0,.3,0,.4,0,0,0,.1,0,.2,0,0,0,0,0,0,0,0,0,0,.1,0-.3,0-.4.3-.4.6,0,.3.4.4.6.4h0Z"/>
      <path d="M12.2,19.5c0,0,0,0,0,0,0-.1,0-.3,0-.4,0-.2,0-.4-.1-.7,0-.5,0-1,0-1.5,0-1,0-2.1,0-3.1,0-.4-.4-.7-.8-.4-.3.2-.4.4-.3.7.2.6,1.2.4,1-.3h0c0,0,0,.2,0,.2h0c0,0-.2.3-.2.3h0s-.8-.5-.8-.5c0,1.2,0,2.4.1,3.7,0,.6,0,1.2.2,1.7,0,.5.2,1.1.8,1.2.3,0,.6,0,.6-.4,0-.2,0-.6-.4-.6h0Z"/>
      <path d="M9.3,21c-.4-1-.8-2.1-1.2-3.1,0-.2-.2-.3-.4-.4s-.4,0-.5.2c0,0-.1.1-.1.2-.2.2,0,.6.2.7.3.1.5,0,.7-.2,0,0,.1-.1.1-.2h-.9c.4.9.8,2,1.2,3,0,.3.4.4.6.4.3,0,.4-.4.4-.6h0Z"/>
      <path d="M5.5,22.4c-.3-.8-1.1-1.4-1.6-2.1s-1-1.5-1.4-2.4c-.1-.3-.5-.3-.7-.2-.3.1-.3.4-.2.7,0,.1.1.2.2.3.1.3.5.3.7.2.3-.1.3-.4.2-.7,0-.1-.1-.2-.2-.3l-.9.5c.4.8.8,1.6,1.3,2.3.3.4.6.7.8,1,.3.3.6.6.7.9.1.3.3.4.6.4.2,0,.5-.4.4-.6h0Z"/>
      <path d="M4.4,24.4c-.9-.6-1.9-1-2.9-1.3l-.3,1c.1,0,.2,0,.3,0,.3,0,.6,0,.6-.4,0-.2,0-.6-.4-.6-.1,0-.2,0-.3,0-.3,0-.6,0-.6.4,0,.3,0,.6.4.6.3,0,.5.1.7.2.1,0,.2,0,.3.1,0,0,.1,0,.2,0,0,0,0,0,.1,0,.5.2.9.5,1.3.7.2.1.6,0,.7-.2.1-.3,0-.5-.2-.7h0Z"/>
      <path d="M5,26.6c0,.1-.4.1-.6.1-.4,0-.9,0-1.3,0-.9,0-1.7,0-2.6-.1-.3,0-.5.2-.5.4,0,.3.1.5.4.6,0,0,.1,0,.2,0,.6.2.9-.8.3-1,0,0-.1,0-.2,0v1c.9,0,1.8.1,2.8.1.8,0,1.9.1,2.4-.7.2-.2,0-.6-.2-.7-.3-.1-.5,0-.7.2h0Z"/>
      <path d="M4.2,29.1c-1.4.3-2.6,1.2-3.8,2.1-.2.2-.2.5,0,.7.2.2.5.2.7,0,1-.8,2.1-1.6,3.3-1.9.3,0,.4-.4.4-.6,0-.3-.4-.4-.6-.4h0Z"/>
      <path d="M7.3,35.1c1.1,1,2.2,2,3.3,2.9.3.2.6.2.8-.1,1.6-2.6,3.5-5.2,5.5-7.6.2-.2.2-.5,0-.7-.7-.8-1.4-1.7-1.8-2.7-.2-.4-.7-.3-.9,0-1.9,2.6-4,5-6.3,7.4-.5.5.3,1.2.7.7,2.3-2.4,4.4-4.9,6.4-7.6h-.9c.5,1.1,1.2,2,2,2.9v-.7c-2,2.5-3.9,5.1-5.6,7.8h.8c-1.1-1.1-2.2-2.1-3.3-3-.5-.4-1.2.3-.7.7h0Z"/>
      <path d="M8.2,33.9c0,.6,0,1.3.2,1.8s1,.4,1-.1c0-.7.1-1.4.3-2.1h-1c0,.8.1,1.6.2,2.5,0,.6,1,.7,1,0,0-1,.1-1.9.3-2.9h-1c0,1.1,0,2.3.4,3.4.2.5,1.1.5,1-.1-.1-1.4-.3-2.8.3-4.1l-1-.3c0,1.7,0,3.4,0,5.1,0,.5.7.7,1,.3.4-1,.2-2.1.3-3.1,0-1.2.3-2.3.6-3.5h-1c-.2,1.9-.4,4-.1,6,0,.6,1,.7,1,0,.2-2.4.3-4.9,1.2-7.2h-1c-.2,1.9-.3,3.9-.5,5.9,0,.6.9.7,1,.1.5-2.2.9-4.5,1.4-6.7l-1-.3c-.4,1.9-.6,3.8-.6,5.7,0,.6.9.7,1,.1.3-2.1.5-4.4,1.4-6.4l-.9-.4c-.3,1.8-.5,3.7-.8,5.6,0,.6.8.9,1,.3.3-1.6.7-3.2,1-4.7l-1-.3c-.2,1.5-.5,2.9-.4,4.4,0,.6.9.7,1,.1.3-1.2.6-2.3.8-3.5.1-.6-.8-.9-1-.3-.3.8-.4,1.7-.3,2.6,0,.5.7.8,1,.3.3-.7.5-1.4.6-2.1.1-.6-.8-.9-1-.3-.1.5-.2,1.1-.2,1.6,0,.5.7.7,1,.3.2-.4.4-.8.6-1.2h-1c0,.1,0,.3,0,.6,0,.6.7.6,1,.3.2-.3.4-.5.5-.8l-1-.3c0,.2,0,.4,0,.6,0,.4.5.7.9.4l.2-.2c.4-.5-.3-1.2-.7-.7l-.2.2.9.4c0-.2,0-.4,0-.6,0-.4-.7-.8-1-.3-.1.3-.3.6-.5.8l1,.3c0-.2,0-.5,0-.7,0-.6-.8-.7-1-.1-.1.4-.3.7-.5,1l1,.3c0-.5,0-.9.1-1.3l-1-.3c-.1.6-.3,1.3-.5,1.9l1,.3c0-.8,0-1.6.3-2.3l-1-.3c-.2,1.2-.5,2.3-.8,3.5h1c0-1.3.2-2.6.4-4,.1-.6-.8-.9-1-.3-.3,1.6-.7,3.2-1,4.7l1,.3c.3-1.8.5-3.7.8-5.6,0-.3,0-.5-.3-.6-.2,0-.5,0-.6.2-.9,2.1-1.1,4.4-1.5,6.6h1c0-1.7.2-3.5.6-5.3.1-.6-.8-.9-1-.3-.5,2.2-.9,4.5-1.4,6.7h1c.2-1.9.3-3.9.5-5.9,0-.6-.8-.6-1-.1-.9,2.4-1.1,4.9-1.2,7.5h1c-.2-2.1,0-4.1.1-6.2,0-.6-.8-.7-1-.1-.3,1.1-.5,2.1-.6,3.2,0,.5,0,1.1,0,1.6,0,.5,0,1-.1,1.5l1,.3c0-1.7,0-3.4,0-5.1,0-.5-.7-.7-1-.3-.7,1.5-.6,3.1-.4,4.6h1c-.3-1.2-.3-2.3-.4-3.4,0-.6-.9-.7-1-.1-.2,1-.4,2.1-.4,3.1h1c0-.9-.1-1.8-.2-2.7,0-.5-.9-.7-1-.1-.2.8-.3,1.5-.3,2.3h1c-.1-.5-.3-1-.2-1.4.1-.6-.9-.9-1-.3h0Z"/>
      <path d="M10.9,42.7c2.6-4.1,5.6-7.9,9.2-11.3.5-.4-.2-1.2-.7-.7-3.6,3.4-6.8,7.3-9.3,11.5-.3.6.5,1.1.9.5h0Z"/>
      <path d="M44.2,15.9c4.2-2.1,8.9-3.3,13.6-3.6.7,0,.7-1.1,0-1-4.9.3-9.7,1.5-14.1,3.7-.6.3,0,1.2.5.9h0Z"/>
      <path d="M41.8,5.9h0c-.2.2-.3.4-.2.6,0,.3.5.5.8.4.3-.2.3-.5.3-.8,0-.4-.2-.9-.4-1.3,0-.2-.2-.4-.3-.6,0,0-.1-.2-.2-.3,0,0,0-.1,0-.1,0,0,0,.2,0,.2,0,0,0,0,0,0h0c0,0,0-.1.1-.1,0,0,.2-.1.3-.2.2-.2.4-.3.5-.5h-.8c.4.9.9,1.9,1.3,2.8.1.2.4.3.6.2s.4-.4.3-.6c-.1-.4-.3-.7-.4-1.1-.1-.3-.3-.4-.6-.4-.2,0-.5.4-.4.6.1.4.3.7.4,1.1l.9-.4c-.4-1-.9-2-1.3-2.9-.1-.3-.6-.3-.8-.1-.3.3-.6.5-.9.8-.1.1-.3.3-.3.5,0,.3,0,.5.2.7.2.3.4.6.5,1,0,.1.1.3.2.5,0,0,0,.2,0,.2,0,0,0,.1,0,.2,0,0,0,.1,0,0v-.2c.1,0,.1,0,.1,0h.4c0-.1,0-.1,0-.1.1,0,.2.1.4.1h0s.1.2.1.2h0c0,.2-.2.4-.2.6h0c.2-.2.3-.5.2-.7-.1-.2-.5-.3-.7-.2h0Z"/>
      <path d="M42.9,3.1c0,0,0,0,0,0,0,.1,0,.1,0,0l-.4.5c.4-.1.7-.4,1-.7,0,0,.1-.1.2-.2,0,0,0,0,0,0,0,0,0,0,0,0,0,0,0,0,0,0,0,0,0,0,0,0,0,0,0,0,.1,0-.1,0,0,0,0,0l-.5-.4c.3,1.2.8,2.4,1.4,3.4.1.2.4.3.6.2.2,0,.4-.4.3-.6,0-.2-.1-.4-.2-.6,0-.3-.4-.4-.6-.4-.2,0-.5.4-.4.6,0,.2.1.4.2.6l.9-.4c-.6-1-1.1-2-1.3-3.2,0-.2-.3-.4-.5-.4-.4,0-.8.2-1.1.5-.1.1-.3.2-.4.4,0,0-.1.1,0,0,0,0,0,0,0,0s0,0-.1,0c0,0,0,0,0,0,0,0,0,0,0,0-.2,0-.4.3-.4.5,0,.2,0,.4.2.6.2.2.5.2.7,0,.2-.2.2-.5,0-.7h0Z"/>
      <path d="M44.7,2.9c0,0,.1-.1.2-.2,0,0,0,0,0,0,0,0,0,0,.1,0,0,0,0,0,0,0,0,0,0,0,0,0,0,0,0,0,.1,0s0,0,.1,0t0,0,0,0h-.2c0-.1,0-.2,0-.2,0,0,0,0,0,.1,0,0,0,.1,0,.2,0,.2.1.3.2.5.1.3.3.5.5.8.3.5.7,1,1.1,1.5l.6-.8s0,0,0,0c0,0,0,.1,0,0,0-.3-.2-.5-.5-.5-.3,0-.5.2-.5.5,0,.3.2.6.4.8.2.1.5,0,.7-.1.2-.2.1-.5,0-.7-.1-.2-.3-.4-.4-.5,0,0,0,0-.1-.1,0,0,0-.1,0,0,0,0-.1-.2-.2-.3-.3-.4-.5-.7-.7-1.2,0,0,0,0,0-.1,0,0,0,0,0,0,0-.1,0-.3-.1-.4-.2-.3-.5-.4-.9-.3-.5,0-.9.3-1.2.7-.2.2-.2.5,0,.7.2.2.5.2.7,0h0Z"/>
      <path d="M46.4,2.8c.2-.2.4-.4.6-.6,0,0,0-.1.1-.2,0,0,0,0,.1-.1t0,0s0,0,0,0t0,0c0,0,0,0,0,0,0,0,0,0,0,0l-.4-.3c.6,1,1.1,1.9,1.7,2.9l.7-.7s0,0,0,0c0,0,0,0,0,0,0,0,0,0,0,0,0,0,0,0,0,.1,0-.3,0-.6-.4-.6-.2,0-.6,0-.6.4,0,.4,0,.8.4,1,.4.3,1-.3.7-.7-.5-.8-1-1.7-1.5-2.5,0-.1-.1-.2-.2-.3-.1-.2-.3-.3-.5-.4-.3,0-.5.1-.7.3,0,0,0,0,0,.1h0c0,.1,0,.1,0,.1,0,0-.1.2-.2.2-.1.2-.3.3-.5.5-.2.2-.2.5,0,.7s.5.2.7,0h0Z"/>
      <path d="M48.1,2c.4-.4.7-.8,1.2-1.1l-.8-.4c0,.4.2.7.4,1,.2.3.4.6.6,1,.4.6.8,1.3,1.3,1.9.1.2.4.3.7.2.2-.1.3-.5.2-.7-.4-.6-.8-1.2-1.2-1.8-.2-.3-.4-.6-.6-.9,0-.1-.2-.3-.2-.4,0,0,0-.1-.1-.2,0,0,0-.2,0,0,0-.2,0-.3-.3-.4-.2,0-.4,0-.5,0-.5.3-1,.7-1.4,1.2-.2.2-.2.5,0,.7.2.2.5.2.7,0h0Z"/>
      <path d="M21.1,54.4c-.2-.1-.3-.2-.5-.2v1c1.1-.2,2.2.1,3.2.4.5.1,1.1.3,1.6.4.5,0,1.2.3,1.6,0,.2-.1.2-.4,0-.6s-.3-.3-.5-.3-.5.2-.5.4h0c0,.3,0,.6.4.6.2,0,.6,0,.6-.4h0c-.2.1-.3.2-.5.4h0c-.1,0-.3-.2-.4-.3h0s0-.6,0-.6h0s.4-.1.4-.1c-.5,0-1.1-.1-1.6-.3s-1-.3-1.6-.4c-1.1-.3-2.1-.4-3.2-.3-.5,0-.5.9,0,1,.1,0,.2,0,.3,0,.6.4,1.1-.5.5-.9h0Z"/>
      <path d="M27.1,55.7c8.2-8.2,18-14.8,28.6-19.3,3-1.3,6.1-2.3,9.2-3.3.6-.2.4-1.2-.3-1-11.2,3.3-21.7,8.8-30.8,16.1-2.6,2.1-5.1,4.3-7.5,6.7-.5.5.3,1.2.7.7h0Z"/>
      <path d="M65.2,27.3v-.2c0,0-.8-.4-.8-.4-.3,2.1-.5,4.2-.4,6.3h1c0-.3,0-.4-.1-.5-.1-.3-.3-.4-.6-.4-.2,0-.5.4-.4.6,0,.1,0,.2.1.4.2.5,1,.5,1-.1,0-2,0-4.1.4-6.1,0-.6-.6-.9-.9-.4v.2c-.4.6.4,1.1.8.5h0Z"/>
      <path d="M21.8,33.5c1.1,1.2,2.2,2.4,3.4,3.5.2.2.5.2.7,0s.2-.5,0-.7c-1.1-1.2-2.2-2.4-3.4-3.5-.2-.2-.5-.2-.7,0s-.2.5,0,.7h0Z"/>
      <path d="M43.5,17c1.4,2.1,2.7,4.3,3.1,6.9.4,2.5-.3,4.9-1.8,7-2.7,3.9-7.2,6.3-11.9,6.4-2.9,0-5.7-.7-8.1-2.1-.6-.3-1.1.6-.5.9,4.6,2.7,10.3,3,15.1.7,4.5-2.1,8.6-6.7,8.4-11.9-.1-3.2-1.5-5.9-3.3-8.4-.4-.5-1.3,0-.9.5h0Z"/>
    </g>
  </g>
</svg>