<?xml version="1.0" encoding="UTF-8"?>
<svg id="Calque_1" xmlns="http://www.w3.org/2000/svg" version="1.1" viewBox="0 0 72.4 50.5">
  <!-- Generator: Adobe Illustrator 29.2.1, SVG Export Plug-In . SVG Version: 2.1.0 Build 116)  -->
  <defs>
    <style>
      .st0 {
        fill: none;
        stroke: #202020;
        stroke-linecap: round;
        stroke-width: 2px;
      }
    </style>
  </defs>
  <path class="st0" d="M57.4,13.8c-1.6.2-1,9-1.1,9.3-.5,8.8-2.5,17.6-2.5,26.5"/>
  <path class="st0" d="M42,21.5c1,.1,2,.9,2.8,1.6,5.7,4.8,10.4,10.8,15.7,15.9.7.7,8.2,8.7,5.3,7.8"/>
  <path class="st0" d="M39.2,40.4c.1-1.1,1-1.6,1.9-1.9,5.3-1.9,10.3-4.3,15.2-7,1.5-.8,15.5-7.5,15.1-7.9"/>
  <path class="st0" d="M7.5,4.6c3.4,3.4,5.3,8,7.7,12.1.7,1.1,7.8,13.1,5.4,11.9"/>
  <path class="st0" d="M5.4,28.6c.2,1.8,2.3-3.2,3.3-4.4,5.9-6.7,10.5-14.4,16.1-21.3,1.1-1.4,2.7-2.4.2-1.6"/>
  <path class="st0" d="M1,17.6c9-1,36.4,1.1,27.3,1.1"/>
</svg>