<svg width="73" height="51" viewBox="0 0 73 51" fill="none" xmlns="http://www.w3.org/2000/svg">
<path d="M57.4019 13.7686C55.8064 13.968 56.3677 22.7302 56.3497 23.0826C55.8984 31.9293 53.8945 40.715 53.8945 49.544" stroke="#202020" stroke-width="2" stroke-linecap="round"/>
<path d="M41.9688 21.4854C42.9768 21.5974 44.0163 22.4149 44.7747 23.0442C50.5043 27.7986 55.1938 33.7947 60.519 38.9834C61.2259 39.6722 68.7324 47.7097 65.8191 46.7386" stroke="#202020" stroke-width="2" stroke-linecap="round"/>
<path d="M39.1641 40.4254C39.2833 39.3526 40.1461 38.822 41.1126 38.4768C46.4036 36.5872 51.4226 34.1996 56.3503 31.462C57.8439 30.6322 71.8218 23.9795 71.4321 23.5898" stroke="#202020" stroke-width="2" stroke-linecap="round"/>
<path d="M7.54297 4.56445C10.9267 7.94822 12.8563 12.5811 15.2363 16.68C15.9006 17.824 23.0498 29.7642 20.6277 28.5532" stroke="#202020" stroke-width="2" stroke-linecap="round"/>
<path d="M5.36133 28.5528C5.59254 30.4025 7.61419 25.355 8.63251 24.1912C14.4914 17.4953 19.1622 9.79201 24.7461 2.86796C25.8859 1.45463 27.4083 0.486339 24.9884 1.29294" stroke="#202020" stroke-width="2" stroke-linecap="round"/>
<path d="M1 17.6485C10.0383 16.6442 37.3538 18.7389 28.2599 18.7389" stroke="#202020" stroke-width="2" stroke-linecap="round"/>
</svg>
