<svg width="416" height="151" viewBox="0 0 416 151" fill="none" xmlns="http://www.w3.org/2000/svg">
<g clip-path="url(#clip0_1239_21858)">
<path d="M372.487 43.9818C372.465 43.9806 372.444 43.9827 372.425 43.9886C371.711 44.2093 370.651 47.6812 370.63 49.871C370.619 50.988 370.497 50.9289 368.204 48.6907C367.253 47.7626 366.198 46.8978 365.86 46.7691C364.716 46.3347 361.312 46.7461 358.762 47.627C355.892 48.6187 354.863 49.2076 353.399 50.6958C352.168 51.9469 351.71 53.185 352.031 54.3933C352.298 55.3984 352.955 55.3696 354.902 54.2668C356.752 53.2191 356.66 53.5672 354.706 55.01C354.026 55.5118 353.076 56.4511 352.593 57.0972C352.11 57.7433 351.486 58.3292 351.207 58.3994C350.547 58.5649 348.837 57.796 348.014 56.9633C347.421 56.3641 347.368 56.1594 347.368 54.4983C347.368 52.9946 347.46 52.5516 347.909 51.8893C348.296 51.3187 348.597 51.1123 348.966 51.1649C349.58 51.2523 349.647 50.7945 349.082 50.3813C348.516 49.9681 347.718 50.3825 347.069 51.4253C346.623 52.1423 346.546 52.5971 346.546 54.529C346.546 56.4594 346.615 56.871 347.015 57.3232C347.719 58.1177 349.5 59.1908 350.115 59.1908C350.77 59.1908 350.772 59.2171 350.206 60.3261C349.958 60.8111 349.68 61.6258 349.587 62.1363C349.494 62.6468 349.228 63.5506 348.997 64.1451C348.264 66.0274 349.22 68.1117 350.817 68.1117C351.149 68.1117 351.994 68.4392 352.693 68.8394C354.24 69.724 356.074 69.939 357.89 69.4492C358.744 69.2188 359.11 69.196 359.058 69.3758C359.016 69.5199 358.708 70.5356 358.374 71.6331C358.039 72.7306 357.418 75.0547 356.993 76.7978C356.568 78.5409 355.491 82.1329 354.6 84.7797C353.652 87.5954 352.845 90.4688 352.654 91.7052C352.475 92.8673 352.166 94.8857 351.966 96.1904C351.767 97.4951 351.231 99.8192 350.775 101.355C348.642 108.547 347.923 112.456 347.605 118.585C347.495 120.716 347.247 123.304 347.053 124.337C346.551 127.017 346.296 132.454 346.642 133.101C346.96 133.694 347.603 133.782 347.603 133.233C347.603 132.97 347.727 132.903 348.014 133.013C348.24 133.1 349.153 133.373 350.044 133.62C350.934 133.866 351.69 134.097 351.723 134.133C351.757 134.168 351.726 136.681 351.656 139.717L351.529 145.236L348.567 145.967C346.939 146.37 345.025 146.921 344.314 147.194C342.279 147.974 339.514 149.636 339.419 150.137C339.341 150.545 339.45 150.571 340.709 150.451C343.937 150.142 353.98 147.213 353.284 146.784C353.049 146.639 352.395 134.612 352.609 134.397C352.662 134.344 354.067 134.473 355.732 134.682C358.253 134.998 360.041 135.034 366.414 134.897L374.069 134.733L373.767 136.578C373.6 137.593 373.459 139.902 373.452 141.711L373.44 145L370.21 146.49C368.434 147.31 366.296 148.241 365.459 148.558C363.884 149.156 363.34 149.484 363.34 149.837C363.34 149.951 363.541 150.043 363.787 150.043C364.632 150.043 371.762 147.981 372.307 147.578C372.84 147.184 372.824 147.178 371.561 147.308C370.011 147.467 370.19 147.268 372.708 146.033L374.344 145.231L374.334 142.296C374.325 139.733 374.644 136.142 374.983 134.992C375.066 134.711 375.639 134.54 377.22 134.324C378.388 134.164 379.287 133.976 379.216 133.906C379.146 133.835 378.187 133.799 377.086 133.825C375.8 133.856 375.084 133.785 375.084 133.625C375.084 133.259 374.59 133.321 374.288 133.723C373.884 134.262 359.104 134.267 355.357 133.729C353.874 133.516 352.591 133.23 352.506 133.094C352.422 132.957 352.227 132.923 352.073 133.018C351.919 133.114 350.849 133.008 349.695 132.784C347.784 132.413 347.583 132.323 347.445 131.771C347.361 131.438 347.47 129.418 347.687 127.282C347.904 125.146 348.082 122.817 348.082 122.107C348.082 119.782 348.986 113.149 349.857 109.077C350.327 106.882 350.736 105.058 350.766 105.024C350.796 104.989 351.286 105.172 351.854 105.43C352.63 105.781 353.399 105.899 354.943 105.903C356.073 105.906 356.998 105.975 356.998 106.056C356.998 106.137 356.731 106.943 356.405 107.846C355.649 109.94 355.344 112.951 355.888 112.951C356.115 112.951 356.316 112.658 356.411 112.188C357.236 108.131 357.792 105.982 358.076 105.762C358.264 105.616 358.35 105.328 358.269 105.116C358.103 104.685 357.801 104.62 357.585 104.969C357.155 105.665 351.505 104.913 351.2 104.119C351.128 103.932 351.394 102.648 351.789 101.264C352.625 98.3397 352.843 97.2252 353.359 93.2311C353.814 89.7055 354.105 88.5097 355.585 84.0754C356.21 82.2032 356.925 79.8263 357.175 78.7933C357.657 76.7949 359.987 68.779 360.101 68.7229C360.138 68.7046 360.772 68.2853 361.51 67.7916C363.026 66.7768 364.652 65.1116 364.987 64.2308C365.169 63.7512 365.32 63.6678 365.792 63.786C366.272 63.9065 366.455 63.7961 366.851 63.1459C367.166 62.6306 367.332 62.5014 367.332 62.7709C367.334 63.4784 368.016 63.219 368.368 62.377C368.647 61.7075 368.796 61.5947 369.251 61.7057C369.552 61.7792 369.986 62.0009 370.214 62.1982C371.213 63.0624 374.904 62.7306 376.577 61.6264C377.401 61.0824 377.613 61.0445 378.926 61.206C379.719 61.3036 380.686 61.3624 381.073 61.3366C381.738 61.2925 381.753 61.3101 381.334 61.6406C381.089 61.8334 380.783 62.0262 380.654 62.0694C380.502 62.1197 380.515 62.327 380.687 62.6494C381.114 63.4453 381.019 63.5826 379.958 63.7081C379.408 63.773 378.231 64.1769 377.341 64.6054C376.02 65.2416 375.435 65.7239 374.151 67.2313C372.159 69.5694 370.549 72.2244 369.531 74.8556C369.092 75.9883 368.645 77.0737 368.537 77.2674C368.279 77.7318 363.413 78.8673 361.578 78.8914C359.961 78.9127 358.572 78.3486 358.444 77.6195C358.295 76.7692 357.937 76.6659 357.937 77.4732C357.937 78.582 358.957 79.5278 360.383 79.7415C361.767 79.9489 364.594 79.5124 366.619 78.7786C367.454 78.4761 368.171 78.2616 368.212 78.3022C368.252 78.3429 368.177 78.6615 368.044 79.0107C367.746 79.7939 367.738 80.0845 368.017 80.0845C368.135 80.0845 368.519 79.3186 368.872 78.3825C369.224 77.4464 370.296 75.1253 371.253 73.2246C372.725 70.3027 373.266 69.479 374.758 67.8934C375.729 66.862 376.911 65.7761 377.385 65.4803C378.259 64.934 380.993 63.8447 381.134 63.986C381.177 64.0285 381.254 64.7363 381.305 65.5591C381.357 66.382 381.512 67.7948 381.65 68.6986C382.682 75.457 383.115 78.9254 383.216 81.2583C383.29 82.9569 383.253 83.8275 383.116 83.6059C382.806 83.1016 382.576 81.7278 382.803 81.7278C382.908 81.7278 382.863 80.8563 382.703 79.791C382.374 77.5997 381.427 74.2155 381.144 74.2155C380.744 74.2155 380.974 78.223 381.535 81.0446C382.21 84.4362 382.586 89.084 382.321 90.7661C382.088 92.2476 382.031 95.4629 382.232 95.7883C382.434 96.1148 381.947 100.799 381.693 100.966C381.585 101.037 381.154 102.099 380.736 103.326C380.319 104.552 379.922 105.695 379.855 105.865C379.784 106.042 379.933 106.227 380.204 106.297C380.496 106.374 380.863 106.871 381.168 107.604C381.928 109.432 381.871 109.584 380.349 109.774C379.049 109.936 378.607 110.206 377.835 111.308C377.359 111.986 377.048 111.79 377.44 111.059C377.799 110.387 377.611 108.333 377.147 107.869C376.835 107.557 376.748 107.565 376.371 107.941C376.065 108.248 375.979 108.269 376.063 108.017C376.126 107.826 376.644 107.313 377.213 106.878L378.248 106.087L378.378 106.64C378.613 107.634 378.839 106.747 379.415 102.575C380.213 96.794 380.58 90.1702 380.417 84.5174C380.277 79.6581 380 77.8764 379.193 76.6456C378.602 75.7449 378.588 76.0672 379.15 77.6218C379.623 78.9307 379.656 79.4265 379.625 84.7797C379.589 91.2455 379.262 97.1889 378.68 101.978L378.288 105.209L377.331 105.769C376.065 106.51 375.659 106.998 375.301 108.209C375.118 108.826 374.677 109.504 374.163 109.957L373.322 110.697L373.246 109.916C373.205 109.487 373.284 109.022 373.423 108.884C373.77 108.536 373.738 108.256 373.351 108.256C372.962 108.256 370.791 109.443 370.928 109.58C370.982 109.634 371.317 109.567 371.673 109.431L372.32 109.186L372.164 110.305C372.079 110.921 371.697 112.034 371.315 112.779C370.933 113.523 370.621 114.289 370.621 114.481C370.621 114.792 371.248 114.966 371.913 114.84C372.069 114.81 372.069 114.874 371.913 115.031C371.542 115.404 368.149 116.472 367.338 116.472C366.223 116.472 365.291 115.883 365.023 115.009C364.588 113.587 364.484 111.276 364.757 109.106C365.028 106.959 364.806 104.969 364.296 104.969C364.186 104.969 364.018 107.032 363.924 109.553C363.689 115.797 363.926 116.599 366.185 117.202C367.01 117.423 367.574 117.428 368.587 117.224C370.101 116.921 372.26 115.928 373.101 115.148C373.416 114.856 374.148 114.291 374.728 113.893C375.307 113.494 375.892 112.961 376.028 112.708C376.264 112.267 376.301 112.264 376.89 112.65C377.505 113.052 377.506 113.051 378.486 111.939C379.294 111.021 379.629 110.811 380.387 110.747C380.894 110.705 381.545 110.758 381.834 110.865C382.276 111.028 382.383 110.964 382.509 110.465C382.591 110.138 382.603 109.464 382.537 108.967C382.436 108.219 382.492 108.042 382.86 107.946C383.165 107.867 383.305 107.953 383.303 108.219C383.297 109.37 382.752 114.558 382.226 118.468C381.896 120.921 381.427 124.608 381.185 126.662C380.942 128.715 380.659 130.468 380.556 130.558C380.104 130.952 369.619 133.389 367.568 133.577L365.336 133.781L367.697 133.813C369.575 133.838 370.701 133.697 373.194 133.125C375.791 132.529 379.086 131.604 380.385 131.106C380.583 131.03 380.721 131.503 380.836 132.655C381.008 134.359 381.424 134.732 381.428 133.185C381.433 131.604 381.698 130.56 382.102 130.531C382.414 130.509 382.408 130.484 382.066 130.395C381.717 130.304 381.67 130.109 381.78 129.19C382.1 126.514 382.62 122.683 383.059 119.759C383.766 115.057 384.207 110.205 384.484 104.06C384.621 101.042 384.832 97.7864 384.954 96.8254C385.247 94.5216 385.236 88.3084 384.941 88.7752C384.82 88.9664 384.712 89.07 384.7 89.0054C384.688 88.9409 384.627 88.6767 384.564 88.4185C384.502 88.1603 384.41 84.9382 384.361 81.2583C384.263 73.9125 384.25 73.8089 382.515 67.0553C381.918 64.7311 381.427 62.7503 381.427 62.6535C381.427 62.5567 381.631 62.4774 381.882 62.4774C382.742 62.4774 383.587 61.4802 383.784 60.233C384.04 58.6111 383.706 58.1897 381.615 57.4929C379.907 56.9239 379.906 56.9229 379.734 55.9193C379.519 54.6595 379.245 54.3299 378.139 53.9985C377.419 53.7832 377.033 53.8083 376.054 54.1333C374.693 54.585 374.756 54.6127 372.558 52.5877L371.515 51.6271L372.108 49.8334C372.962 47.2499 373.315 45.0444 372.974 44.4091C372.844 44.1655 372.638 43.9902 372.487 43.9818ZM363.709 47.218C365.55 47.218 365.823 47.3472 367.271 48.9044C368.101 49.7972 372.294 53.5993 374.123 55.1169C374.176 55.1609 374.053 55.3826 373.849 55.6093C373.646 55.836 373.441 56.3384 373.395 56.7258C373.319 57.3622 373.207 57.2252 372.222 55.3044C371.623 54.1353 370.975 53.0484 370.782 52.8889C370.59 52.7294 369.562 52.1295 368.497 51.5555C365.008 49.6757 360.551 49.0922 358.748 50.2795C358.103 50.7049 358.091 50.7366 358.583 50.738C359.302 50.7401 359.248 51.02 358.363 51.8852C357.844 52.3924 357.385 52.6175 356.871 52.6175C356.463 52.6175 355.432 52.9872 354.58 53.4391C353.728 53.8911 352.972 54.2608 352.9 54.2608C352.829 54.2608 352.77 53.8528 352.77 53.3539C352.77 52.5757 352.944 52.2693 353.996 51.2016C355.932 49.2356 360.852 47.218 363.709 47.218ZM362.869 50.5124C363.499 50.4991 364.02 50.7104 364.424 51.1502C366.192 53.0755 366.231 53.1876 365.919 55.4979C365.541 58.304 365.029 60.4126 364.141 62.819C363.456 64.6755 363.184 65.1074 361.975 66.2533C361.023 67.1553 360.104 67.7593 359.027 68.1901C356.997 69.0024 355.225 69.0248 353.579 68.2589C351.681 67.3753 350.187 65.2943 350.19 63.5339C350.19 62.9478 352.01 59.7366 353.316 58.017C353.855 57.3068 355.089 55.9277 356.058 54.9522C358.943 52.0478 361.261 50.5465 362.869 50.5124ZM367.479 52.2319C367.64 52.2212 367.834 52.3076 368.068 52.4717C368.367 52.681 368.782 52.8522 368.99 52.8522C369.198 52.8522 369.756 53.2394 370.23 53.7129C371.011 54.4935 371.218 54.998 371.108 55.8454C371.087 56.0068 371.178 56.1389 371.31 56.1389C371.443 56.1389 371.773 56.5739 372.045 57.1054C372.642 58.2769 373.397 58.9668 375.025 59.829C375.702 60.1882 376.258 60.5672 376.258 60.6713C376.258 60.7754 375.801 61.0628 375.242 61.31C373.97 61.8723 371.855 62.0935 371.155 61.7374C370.867 61.591 370.57 61.2752 370.493 61.0354C370.417 60.7956 370.15 60.5993 369.901 60.5993C369.651 60.5993 369.447 60.454 369.447 60.2761C369.447 60.0982 369.298 59.8288 369.116 59.6777C368.854 59.4602 368.71 59.5097 368.426 59.9148C368.079 60.4098 368.066 60.3934 367.994 59.3999C367.941 58.6591 367.81 58.3524 367.523 58.298C367.224 58.2415 367.087 58.4462 366.973 59.1174C366.78 60.2602 366.606 60.8904 366.51 60.7933C366.469 60.7513 366.522 60.2413 366.628 59.6603C366.735 59.0793 366.74 58.4982 366.639 58.3691C366.539 58.24 366.539 56.9322 366.639 55.463C366.797 53.1684 366.994 52.2639 367.479 52.2319ZM377.434 54.7661C378.288 54.7948 378.842 55.2837 378.842 56.0985C378.842 56.7324 378.772 56.728 377.256 55.9949C375.906 55.3417 375.749 55.0935 376.552 54.8784C376.802 54.8113 377.039 54.7747 377.259 54.7665C377.319 54.7644 377.377 54.7642 377.434 54.7661ZM374.843 55.977C375.601 55.9904 378.344 57.3827 378.359 57.8061C378.366 58.0129 378.134 58.5332 377.844 58.962C377.553 59.3908 377.209 59.7741 377.08 59.8139C376.846 59.8861 374.61 58.7352 373.998 58.2274C373.536 57.8443 373.599 57.5718 374.118 57.7075C374.605 57.8348 374.999 57.4331 374.618 57.1976C374.26 56.9766 374.33 56.1428 374.719 55.9935C374.751 55.9815 374.793 55.9761 374.843 55.977ZM379.838 57.8968C380.187 57.8906 380.705 58.0778 381.606 58.4141C382.669 58.8111 382.935 59.2806 382.794 60.5122C382.74 60.9858 382.578 61.1986 382.248 61.228C381.76 61.2713 378.666 60.5019 378.447 60.283C378.378 60.2145 378.571 59.6244 378.876 58.9716C379.22 58.2322 379.39 57.9048 379.838 57.8968ZM349.577 65.7641C349.647 65.7641 349.874 66.091 350.08 66.4904C350.471 67.2462 350.43 67.6393 350.014 67.1199C349.721 66.7538 349.402 65.7641 349.577 65.7641ZM383.861 87.0127C383.981 86.9635 384.033 88.0747 384.112 91.5259C384.122 91.9766 383.994 92.1939 383.682 92.254C383.261 92.3349 383.246 92.2172 383.4 90.1173C383.49 88.895 383.654 87.5901 383.766 87.2177C383.802 87.0972 383.833 87.0241 383.861 87.0127ZM384.103 92.5305C384.327 92.5267 384.196 95.6626 383.756 100.861C383.409 104.966 383.425 104.905 382.616 105.083C382.238 105.166 381.802 105.386 381.648 105.571C381.35 105.93 380.721 106.033 380.721 105.723C380.721 105.621 380.929 104.961 381.182 104.256C381.617 103.047 381.644 103.019 381.652 103.776C381.657 104.217 381.722 104.517 381.796 104.442C382.076 104.163 383.093 97.7148 383.231 95.344C383.364 93.069 383.528 92.5403 384.103 92.5305ZM382.859 105.942C382.9 105.937 382.927 105.942 382.938 105.958C382.961 105.995 382.859 106.379 382.712 106.811C382.462 107.545 382.418 107.571 382.052 107.205C381.837 106.99 381.66 106.733 381.66 106.634C381.66 106.479 382.575 105.976 382.859 105.942ZM376.644 109.389C377.042 109.401 376.972 109.889 376.508 110.354C376.241 110.62 376.016 111.023 376.006 111.249C375.997 111.475 375.61 111.976 375.146 112.362C374.416 112.969 374.34 112.993 374.584 112.538C374.819 112.099 374.806 112.012 374.505 112.012C373.793 112.012 374.184 111.174 375.309 110.287C375.94 109.79 376.54 109.386 376.644 109.389ZM351.702 146.052C351.742 146.052 351.831 146.264 351.899 146.522C351.966 146.78 352.004 146.991 351.981 146.991C351.959 146.991 350.093 147.455 347.834 148.021C341.662 149.568 340.822 149.631 344.314 148.288C345.52 147.824 351.374 146.052 351.702 146.052Z" fill="#FCFCFC"/>
<path d="M383.464 76.5189C383.389 76.3317 383.334 76.3873 383.322 76.6608C383.312 76.9082 383.368 77.0469 383.446 76.9689C383.524 76.8909 383.532 76.6884 383.464 76.5189Z" fill="#FCFCFC"/>
<path d="M383.179 74.3409C383.087 73.4857 382.963 72.8352 382.903 72.8955C382.842 72.9557 382.868 73.7047 382.96 74.56C383.051 75.4152 383.176 76.0656 383.236 76.0054C383.296 75.9451 383.271 75.1961 383.179 74.3409Z" fill="#FCFCFC"/>
<path d="M382.755 71.8101C382.69 71.6487 382.637 71.7807 382.637 72.1035C382.637 72.4263 382.69 72.5583 382.755 72.397C382.82 72.2356 382.82 71.9715 382.755 71.8101Z" fill="#FCFCFC"/>
<path d="M129.617 121.112C129.231 120.958 128.822 120.451 128.475 119.695C127.946 118.543 127.942 118.482 128.3 116.849C128.502 115.932 128.729 114.072 128.806 112.716C128.882 111.36 129.038 109.406 129.152 108.373C130.174 99.1255 130.587 89.279 130.33 80.319C130.063 70.992 129.451 65.7801 128.585 65.4479C127.369 64.9812 124.259 67.5195 122.273 70.6019C119.13 75.477 114.711 85.854 112.936 92.5265C111.442 98.1427 109.754 102.682 108.718 103.873C107.616 105.141 105.298 104.308 104.902 102.501C104.577 101.019 105.121 92.8662 105.917 87.2987C106.174 85.5018 106.197 78.7748 105.949 78.1468C105.819 77.8207 105.578 78.0525 104.787 79.2649C104.237 80.1061 103.47 81.4881 103.081 82.3358C102.122 84.4282 100.372 89.8754 99.9201 92.1744C99.717 93.2073 99.3985 94.6863 99.2123 95.461C99.0262 96.2357 98.2964 99.6691 97.5907 103.091C95.9907 110.848 95.9941 110.838 94.9898 110.838C94.5641 110.838 94.1676 110.706 94.1086 110.544C93.8586 109.86 94.6371 101.132 95.2133 98.1608C96.6818 90.5872 97.325 88.0834 98.7109 84.5447C99.0396 83.7054 99.4222 82.5754 99.5613 82.0335C99.7904 81.1403 100.289 80.1612 101.928 77.3844C102.233 76.868 102.541 76.3926 102.613 76.328C102.684 76.2635 103.006 75.8103 103.328 75.3209C104.479 73.5705 106.938 72.3892 107.802 73.1711C108.698 73.9813 109.433 75.5508 109.433 76.6537C109.433 77.2387 109.536 78.4876 109.661 79.429C109.787 80.3704 109.955 82.0653 110.035 83.1956C110.182 85.2759 110.463 85.6694 110.742 84.1843C110.826 83.7369 110.975 83.3709 111.074 83.3709C111.172 83.3709 111.319 83.0407 111.4 82.6373C111.481 82.2338 111.824 81.2566 112.164 80.4657C112.503 79.6749 112.941 78.658 113.135 78.2061C113.33 77.7542 113.845 76.6287 114.28 75.705C114.714 74.7813 115.07 73.9641 115.07 73.8891C115.07 73.3468 120.657 65.0002 121.9 63.6852C122.875 62.6535 125.115 61.3033 125.851 61.3033C126.071 61.3033 126.369 61.1849 126.514 61.0401C126.864 60.6903 129.922 60.8794 130.048 61.2586C130.1 61.4123 130.34 61.5381 130.584 61.5381C131.212 61.5381 132.628 62.8525 133.194 63.9596C133.457 64.4766 133.82 65.8053 133.999 66.9123C134.754 71.5727 135.031 97.2419 134.378 102.034C134.237 103.067 134.004 105.391 133.861 107.199C133.717 109.007 133.465 112.07 133.3 114.007C133.013 117.385 133.02 117.556 133.462 118.195C133.872 118.789 133.891 118.967 133.632 119.838C133.473 120.376 133.234 120.947 133.103 121.109C132.816 121.46 130.497 121.462 129.617 121.112Z" fill="#66AD00"/>
<path d="M351.922 115.786C351.201 115.609 349.409 114.354 349.602 114.161C349.657 114.106 350.242 114.294 350.902 114.577C352.419 115.23 353.28 115.067 354.321 113.931C355.239 112.93 355.629 113.107 355.015 114.246C354.232 115.7 353.355 116.137 351.922 115.786Z" fill="#FCFCFC"/>
<path d="M188.94 115.306C188.165 115.195 187.055 114.939 186.474 114.736C185.892 114.533 185.285 114.366 185.124 114.364C184.532 114.357 181.386 112.752 180.178 111.839C177.556 109.86 176.009 107.491 174.851 103.679C174.281 101.807 174.207 101.178 174.196 98.162C174.182 94.4182 174.475 92.2053 175.361 89.3584C177.503 82.4789 180.515 77.4959 185.467 72.6382C187.96 70.1934 190.228 68.5775 193.138 67.1726C195.523 66.021 195.779 65.9481 197.013 66.0664C199.14 66.2702 200.202 66.7133 200.285 67.432C200.373 68.1909 199.757 68.6188 198.017 69.0081C197.325 69.1629 196.463 69.5001 196.101 69.7575C195.74 70.0148 195.328 70.2254 195.187 70.2254C195.045 70.2254 194.929 70.3311 194.929 70.4602C194.929 70.5893 194.793 70.6949 194.627 70.6949C194.46 70.6949 193.958 71.0076 193.511 71.3897C193.064 71.7718 192.568 72.0887 192.41 72.094C192.08 72.1049 186.882 77.2595 186.02 78.4299C183.125 82.3629 180.864 87.1869 179.52 92.3003C178.668 95.5444 178.632 98.7283 179.415 101.801C180.812 107.285 182.868 109.18 189.25 110.869C192.072 111.615 194.722 111.545 199.275 110.603C199.92 110.469 200.74 110.423 201.095 110.501C201.646 110.621 201.741 110.759 201.741 111.445C201.741 111.914 201.56 112.429 201.305 112.683C200.674 113.314 198.345 114.394 196.339 114.987C194.989 115.385 190.77 115.567 188.94 115.306Z" fill="#66AD00"/>
<path d="M237.083 113.362C236.543 112.471 236.479 109.866 236.918 106.73C237.063 105.697 237.303 103.742 237.452 102.387C237.601 101.031 238.024 97.8617 238.392 95.3439C238.76 92.8261 239.287 88.5476 239.563 85.8361C239.839 83.1246 240.162 80.3899 240.281 79.7589C240.399 79.128 240.496 78.1097 240.496 77.496C240.496 75.8585 241.161 72.6038 241.729 71.457C242.161 70.5857 242.322 70.4592 242.996 70.4592C244.023 70.4592 244.245 70.9249 244.55 73.7175C244.739 75.4477 244.711 77.3493 244.429 81.8451C244.227 85.0731 244.09 87.7425 244.123 87.7771C244.157 87.8116 244.491 87.6802 244.866 87.485C245.24 87.2898 245.714 87.1295 245.918 87.1287C246.123 87.128 246.367 87.0507 246.46 86.9572C246.554 86.8637 247.708 86.5612 249.024 86.285C250.341 86.0089 252.211 85.5592 253.18 85.2857C256.965 84.2174 258.013 83.9077 258.465 83.7232C258.723 83.6178 259.463 83.3289 260.109 83.0813C265.821 80.891 269.152 77.8997 269.152 74.9598C269.152 73.5463 268.35 72.5235 266.015 70.9588C261.645 68.0314 258.097 66.8894 251.936 66.4273C247.677 66.1079 244.447 66.3561 240.928 67.2733C237.652 68.1271 236.311 68.7922 234.803 70.3109C233.444 71.6801 232.648 71.9679 232.399 71.1807C232.055 70.0986 233.874 67.6437 235.72 66.697C236.087 66.5093 236.862 66.0851 237.443 65.7542C239.691 64.4749 242.231 63.7579 246.956 63.0693C250.54 62.5469 256.58 62.7176 259.874 63.4344C264.899 64.5279 269.702 67.1728 271.742 69.9708C273.08 71.805 273.574 73.2127 273.597 75.2564C273.615 76.8988 273.021 79.6149 272.644 79.6149C272.532 79.6149 272.44 79.7318 272.44 79.8746C272.44 80.4517 270.883 82.036 268.729 83.6489C266.982 84.9576 265.849 85.5921 263.867 86.3708C262.446 86.9292 260.966 87.5295 260.579 87.7048C259.17 88.3419 252.715 89.3781 248.678 89.6152C246.423 89.7477 245.768 89.7085 244.982 89.3941C243.849 88.9408 243.947 88.7275 243.548 92.5268C243.406 93.8825 242.975 97.2102 242.59 99.9217C242.204 102.633 241.791 106.119 241.67 107.669C241.423 110.848 241.098 112.82 240.693 113.597C240.453 114.057 240.232 114.125 238.981 114.125C237.611 114.125 237.523 114.089 237.083 113.362Z" fill="#FF0000"/>
<path d="M320.166 113.896C319.222 113.789 318.165 113.597 317.818 113.469C317.163 113.228 315.382 112.86 313.545 112.587C312.603 112.447 309.684 111.159 307.455 109.9C305.658 108.884 303.416 106.2 302.54 104.014C301.275 100.861 300.782 96.8846 301.315 94.1311C302.056 90.2978 304.701 84.21 307.294 80.3661C308.017 79.294 309.598 77.1756 310.807 75.6585C312.897 73.0354 313.181 72.7797 316.591 70.4474C318.564 69.0985 320.931 67.444 321.852 66.7707C324.43 64.8863 325.544 64.3395 326.361 64.5564C326.852 64.6867 327.07 64.9034 327.118 65.3106C327.202 66.0126 326.116 67.2311 322.822 70.1295C318.856 73.6199 318.63 73.8247 317.42 75.038C312.846 79.623 309.459 84.6485 307.567 89.6576C306.204 93.2662 305.49 96.968 305.81 98.7713C306.089 100.348 306.772 102.622 306.967 102.622C307.055 102.622 307.245 102.879 307.388 103.194C307.781 104.055 310.481 106.173 312.417 107.138C317.206 109.525 321.06 110.166 332.687 110.508C335.4 110.588 337.699 110.701 337.796 110.76C338.086 110.935 337.995 111.721 337.644 112.072C337.464 112.252 336.011 112.642 334.415 112.937C332.819 113.233 331.143 113.579 330.691 113.706C329.604 114.011 322.343 114.142 320.166 113.896Z" fill="#FF0000"/>
<path d="M372.822 105.881C372.957 105.209 372.925 105.161 372.441 105.294C370.215 105.905 366.657 106.03 365.383 105.541C365.023 105.403 364.098 104.03 364.365 104.03C364.419 104.03 364.924 104.239 365.487 104.494C367.062 105.209 369.756 105.146 372.205 104.338C373.632 103.867 374.211 103.768 374.404 103.961C374.598 104.155 374.536 104.335 374.17 104.648C373.895 104.884 373.674 105.352 373.674 105.7C373.674 106.236 373.315 106.612 372.803 106.612C372.733 106.612 372.742 106.283 372.822 105.881Z" fill="#FCFCFC"/>
<path d="M359.582 95.7888C358.301 95.3996 357.351 94.5501 357.042 93.5187C356.658 92.238 356.699 88.9642 357.121 87.1278C357.571 85.175 358.404 82.9023 358.671 82.9023C358.951 82.9023 358.954 82.8847 358.272 86.0714C357.783 88.3614 357.684 89.3817 357.745 91.5251L357.82 94.1619L358.921 94.6355C360.414 95.2782 363.32 95.2755 365.789 94.6293C366.797 94.3653 367.718 94.1815 367.836 94.2207C367.954 94.2599 367.368 94.6382 366.535 95.0615C365.202 95.7379 364.74 95.8435 362.711 95.9348C361.422 95.9928 360.041 95.9284 359.582 95.7888Z" fill="#FCFCFC"/>
<path d="M376.79 93.769C374.84 91.2839 373.643 88.4353 373.199 85.2282C372.629 81.1056 373.332 78.0379 376.602 70.3796C377.226 68.9172 376.61 69.6044 374.689 72.5116C372.711 75.5056 371.313 78.6341 370.861 81.0818C370.7 81.9533 370.46 82.6664 370.328 82.6664C370.177 82.6664 370.132 82.0805 370.206 81.0818C370.404 78.4229 371.602 75.7831 374.502 71.62C377.804 66.8801 378.467 66.08 379.557 65.5243C380.924 64.8271 381.056 64.9593 380.024 65.9913C378.82 67.1947 378.279 68.2903 376.303 73.5322C374.279 78.8984 374.047 79.852 374.048 82.7838C374.048 86.0999 374.609 88.3154 376.296 91.67C377.066 93.2006 377.65 94.4995 377.592 94.5565C377.535 94.6135 377.174 94.2591 376.79 93.769Z" fill="#FCFCFC"/>
<path d="M366.938 91.2944C367.155 88.0135 368.357 82.6942 368.681 83.5757C368.777 83.8347 368.259 88.4336 367.654 92.7028C367.584 93.201 367.416 93.4658 367.17 93.4658C366.842 93.4658 366.812 93.1891 366.938 91.2944Z" fill="#FCFCFC"/>
<path d="M361.87 84.4568C360.932 84.1089 358.767 82.4636 358.975 82.256C359.043 82.188 359.83 82.5167 360.725 82.9865C362.264 83.7946 362.476 83.8417 364.666 83.8598C366.816 83.8776 366.929 83.9014 366.258 84.1955C365.111 84.6989 362.882 84.8317 361.87 84.4568Z" fill="#FCFCFC"/>
<path d="M273.595 25.4922C272.737 25.491 271.828 25.6988 270.981 26.1231C269.926 26.6516 269.622 26.6705 269.622 26.2074C269.622 25.9466 269.348 25.8553 268.565 25.8553H267.508V33.9344C267.508 40.1781 267.575 42.0407 267.801 42.1322C268.256 42.3154 269.004 42.2996 269.318 42.1001C269.499 41.9852 269.627 41.112 269.671 39.6976C269.739 37.4778 269.74 37.4754 270.326 37.5546C273.749 38.0171 274.979 37.7818 276.391 36.3933C277.784 35.0238 277.959 34.4744 277.959 31.4892C277.959 28.5405 277.721 27.7721 276.416 26.5142C275.717 25.8399 274.697 25.4936 273.595 25.4922ZM273.245 27.2702C274.919 27.3198 275.963 28.784 275.963 31.3352C275.963 33.8922 275.521 34.9566 274.158 35.678C273.528 36.0118 271.145 35.9913 270.268 35.6445L269.622 35.3892V32.1651C269.622 28.5569 269.649 28.488 271.376 27.7039C272.059 27.394 272.687 27.2537 273.245 27.2702Z" fill="#66AD00"/>
<path d="M372.311 25.543C371.117 25.5439 370.283 25.8029 368.448 26.7428C368.351 26.7925 368.272 26.6129 368.272 26.344C368.272 25.9299 368.127 25.8547 367.332 25.8547H366.393V34.0709V42.287H367.332H368.272V39.7048C368.272 38.2846 368.351 37.1244 368.448 37.1263C368.545 37.1281 369.047 37.2818 369.563 37.4678C372.187 38.4124 374.746 37.4044 376.102 34.8925C376.534 34.0929 376.609 33.5702 376.609 31.3713C376.609 29.1362 376.538 28.6552 376.076 27.7919C375.294 26.3275 373.978 25.5418 372.311 25.543ZM371.873 27.2632C373.827 27.2632 374.689 28.5798 374.716 31.606C374.732 33.4499 374.211 34.797 373.204 35.5165C372.584 35.9592 371.058 36.2279 370.268 36.0337C370.01 35.9702 369.455 35.8114 369.035 35.6806L368.272 35.4431V32.0939C368.272 29.1761 368.326 28.6956 368.691 28.365C369.376 27.7456 370.769 27.2632 371.873 27.2632Z" fill="#FCFCFC"/>
<path d="M310.067 37.9604C308.478 37.5698 307.242 36.5845 306.499 35.1141C305.997 34.1222 305.914 33.6481 305.928 31.8415C305.945 29.5961 306.336 28.4367 307.493 27.1933C308.833 25.7538 311.604 25.2284 313.84 25.9899C315.159 26.4389 315.523 26.836 315.327 27.613C315.181 28.1962 314.424 28.4416 314.148 27.9953C314.078 27.8811 313.315 27.6547 312.453 27.4922C310.967 27.2119 310.836 27.2245 309.895 27.7384C308.588 28.4517 308.099 29.3371 307.965 31.2307C307.756 34.1739 308.729 36.0323 310.627 36.3168C311.763 36.487 313.639 36.098 314.267 35.5617C314.758 35.143 315.106 35.1619 315.281 35.6166C315.541 36.2948 315.435 37.1233 315.088 37.1233C314.903 37.1233 314.61 37.2655 314.436 37.4394C314.262 37.6132 313.699 37.8317 313.186 37.9249C312.673 38.0181 312.041 38.133 311.783 38.1804C311.524 38.2277 310.752 38.1287 310.067 37.9604Z" fill="#66AD00"/>
<path d="M27.2258 25.5718C27.024 25.5706 26.8028 25.5715 26.5584 25.5741C25.31 25.5868 23.9715 25.6888 23.584 25.8006C22.9641 25.9794 22.8709 26.1218 22.8074 26.9858C22.7677 27.5259 22.7677 27.967 22.8074 27.9656C22.8471 27.9642 23.398 27.8057 24.0322 27.6134C25.3927 27.2009 27.5562 27.1581 28.6038 27.5231C29.4353 27.8128 29.808 28.3454 29.808 29.2434C29.808 29.8176 29.7472 29.8458 28.5038 29.8458C26.4581 29.8458 24.1472 30.4645 23.1624 31.2759C21.1691 32.9181 21.4999 36.2174 23.7982 37.6182C24.8208 38.2414 26.8617 38.2091 28.3208 37.5466C29.687 36.9263 29.9254 36.8982 29.9254 37.3577C29.9254 37.6042 30.225 37.7318 30.9236 37.7823L31.9218 37.8543V33.0837C31.9218 27.478 31.7991 27.0447 29.9479 26.1142C29.1038 25.6899 28.6388 25.5794 27.2258 25.5718ZM29.0937 31.5565C29.9841 31.5347 29.9675 31.8989 29.8442 33.7893C29.769 34.9432 29.6956 35.078 28.8318 35.6494C27.7958 36.3347 25.8179 36.5942 24.9615 36.1574C23.8549 35.593 23.5922 33.6894 24.4964 32.7857C25.1219 32.1605 26.1719 31.8407 28.3226 31.6193C28.6345 31.5872 28.8883 31.5615 29.0937 31.5565Z" fill="#FCFCFC"/>
<path d="M42.3742 37.6272L41.1998 37.2119L41.1292 36.0046L41.0586 34.7974L42.4802 35.5302C44.8366 36.7449 47.1692 36.6795 48.0246 35.3747C48.8715 34.0828 48.0294 33.197 45.4486 32.6653C42.2273 32.0016 40.961 30.901 41.1611 28.9389C41.297 27.6069 41.8987 26.8096 43.2966 26.1096C44.7835 25.3651 47.2736 25.3215 48.8331 26.0128C49.8336 26.4562 49.8913 26.5335 49.9136 27.4594C49.9265 27.9973 49.9265 28.437 49.9135 28.4364C49.9005 28.4357 49.2558 28.1742 48.4807 27.8551C46.6494 27.1011 44.6966 27.0573 43.815 27.7503C43.0838 28.3252 42.9887 29.3508 43.6141 29.9165C43.9974 30.2632 46.4039 31.0197 47.1234 31.0197C47.2914 31.0197 47.9077 31.2447 48.493 31.5196C49.9166 32.1885 50.347 33.0558 50.2682 35.0967C50.2334 35.9976 48.7529 37.4626 47.5359 37.8003C46.158 38.1827 43.7127 38.1007 42.3742 37.6272Z" fill="#FCFCFC"/>
<path d="M58.0467 25.4942C55.0494 25.4793 52.9021 27.6772 52.6484 31.2221C52.4354 34.197 53.6315 36.6574 55.7604 37.624C57.008 38.1905 59.2206 38.1875 60.4761 37.6176C64.0183 36.0096 64.7621 29.9701 61.7839 26.9976C60.8973 26.1127 60.4496 25.8595 59.3802 25.6386C58.9203 25.5437 58.4748 25.4963 58.0467 25.4942ZM57.4921 27.2764C57.6985 27.274 57.9473 27.2886 58.2659 27.3117C59.3808 27.3923 59.7704 27.5378 60.3439 28.087C61.2025 28.9091 61.5151 29.947 61.51 31.9585C61.5052 33.8605 60.9023 35.2886 59.8274 35.9437C57.3117 37.4767 54.7037 35.4517 54.7067 31.9676C54.7086 29.8331 55.039 28.8404 56.0402 27.9618C56.6348 27.44 56.8726 27.2831 57.4921 27.2764Z" fill="#FCFCFC"/>
<path d="M95.8092 21.1602V23.6507V26.1407L95.1633 25.967C92.2409 25.181 90.7704 25.4359 89.2003 26.9999C87.4582 28.7354 86.8779 31.6794 87.7196 34.5123C88.1489 35.9571 89.4388 37.4951 90.4939 37.8203C91.6496 38.1766 93.587 37.9281 94.7592 37.2733L95.8092 36.6865V37.2568C95.8092 37.7763 95.9035 37.8272 96.8661 37.8272H97.923V29.4937V21.1602H96.8661H95.8092ZM93.2536 27.2572C93.767 27.2696 94.3195 27.3612 94.9014 27.5355L95.8092 27.8073V31.3895V34.9722L95.039 35.4476C93.6619 36.2983 91.6842 36.4757 90.6559 35.8406C89.5051 35.1297 89.0649 31.1085 89.9292 29.2053C90.5235 27.8969 91.7136 27.2198 93.2536 27.2572Z" fill="#FCFCFC"/>
<path d="M106.857 25.5518C103.475 25.5518 101.386 27.5685 101.051 31.1577C100.746 34.4222 102.255 37.0277 104.915 37.8283C106.013 38.1588 108.781 38.0536 110.137 37.6298L111.429 37.2263L111.502 36.0819L111.576 34.9375L111.032 35.2901C109.897 36.0276 108.005 36.4826 106.655 36.3432C104.632 36.1346 103.44 35.0137 103.178 33.0738L103.028 31.9587H107.436H111.845L111.729 30.3489C111.503 27.1824 109.846 25.5518 106.857 25.5518ZM107.37 27.2679C108.054 27.2708 108.239 27.4321 108.842 28.0349C109.481 28.6731 109.668 29.0517 109.668 29.7052V30.5502L106.791 30.5232C105.208 30.5082 103.719 30.4459 103.482 30.3847C102.854 30.2225 103.166 29.2151 104.155 28.2142C104.873 27.4876 105.112 27.3943 106.486 27.3069C106.858 27.2831 107.142 27.2669 107.37 27.2679Z" fill="#FCFCFC"/>
<path d="M132.291 25.5408C131.594 25.548 130.84 25.6037 130.043 25.7096L128.693 25.8888V26.9058V27.9232L130.043 27.5706C130.859 27.3576 132.034 27.2535 133.008 27.3083C134.421 27.3879 134.691 27.4799 135.18 28.0488C135.488 28.4059 135.739 28.9405 135.739 29.2367C135.739 29.7462 135.628 29.7834 133.684 29.9217C131.095 30.1059 129.685 30.5831 128.686 31.6131C128.016 32.3037 127.887 32.6254 127.802 33.8024C127.678 35.5109 128.174 36.6779 129.368 37.4891C130.608 38.3309 132.631 38.2927 134.414 37.3937L135.739 36.7262V37.2764C135.739 37.7724 135.844 37.827 136.796 37.827H137.853L137.851 33.5429C137.85 28.877 137.659 27.7194 136.727 26.7315C135.973 25.9332 134.384 25.5193 132.291 25.5408ZM135.739 31.4343V33.2173V35.0004L134.506 35.7074C132.126 37.0714 129.887 36.4359 129.807 34.3737C129.738 32.6073 130.787 31.9368 134.154 31.5952L135.739 31.4343Z" fill="#FCFCFC"/>
<path d="M152.651 37.9052C149.937 36.9817 148.907 35.3133 148.899 31.8287C148.894 30.0047 148.98 29.53 149.504 28.4795C149.839 27.8064 150.341 27.136 150.619 26.9898C150.897 26.8436 151.178 26.6523 151.242 26.5647C151.94 25.6181 155.293 25.3107 157.059 26.0313C157.883 26.3679 158.114 26.6026 158.334 27.33C158.735 28.6588 158.358 28.8703 157.002 28.0762C155.737 27.335 153.806 27.1782 152.77 27.7325C150.696 28.842 150.22 33.3272 151.964 35.3318C153.101 36.6392 155.335 36.7016 157.155 35.4769L158.171 34.793L158.314 35.782C158.393 36.326 158.414 36.8889 158.36 37.033C158.102 37.7249 153.974 38.3554 152.651 37.9052Z" fill="#66AD00"/>
<path d="M162.869 37.6256C161.111 36.5402 160.875 35.657 160.873 30.1396L160.872 25.8555H161.911H162.951L163.027 30.5711L163.103 35.2868L163.762 35.853C164.537 36.5181 165.645 36.5901 166.919 36.058C168.659 35.3313 168.623 35.4521 168.623 30.3967V25.8555H169.68H170.736V31.8415V37.8276H169.68C168.779 37.8276 168.623 37.758 168.623 37.3581C168.623 37.0999 168.596 36.889 168.564 36.8896C168.532 36.89 167.985 37.1542 167.35 37.4764C165.904 38.2096 163.921 38.2756 162.869 37.6256Z" fill="#FCFCFC"/>
<path d="M182.085 37.6042C180.833 36.8415 180.729 36.4391 180.602 31.8412L180.484 27.6158L179.838 27.5415C179.274 27.4766 179.192 27.366 179.192 26.6612C179.192 25.9221 179.251 25.8552 179.897 25.8552H180.602V24.0946V22.334H181.541H182.481V24.0854V25.8369L184.536 25.9047L186.591 25.9726L186.664 26.7261L186.737 27.4797L184.667 27.5478L182.598 27.6158L182.526 30.9023C182.448 34.4817 182.679 35.7875 183.463 36.2069C183.898 36.4396 185.173 36.4149 186.238 36.1532C186.78 36.0203 186.858 37.3722 186.331 37.757C185.664 38.2448 182.977 38.1481 182.085 37.6042Z" fill="#FCFCFC"/>
<path d="M190.71 37.63C189.165 36.8018 188.95 35.9811 188.868 30.6091L188.796 25.8555H189.853H190.909L190.982 30.5712L191.054 35.2869L191.713 35.853C192.738 36.7335 194.212 36.581 195.927 35.4169L196.573 34.9786V30.4171V25.8555H197.63H198.687V31.8415V37.8276H197.63C196.643 37.8276 196.573 37.7865 196.573 37.2043C196.573 36.6342 196.538 36.6109 196.162 36.9302C194.805 38.0836 192.184 38.42 190.71 37.63Z" fill="#FCFCFC"/>
<path d="M217.031 25.5518C213.712 25.5518 211.581 27.5398 211.223 30.9702C210.873 34.3158 212.392 37.0211 215.074 37.8283C216.172 38.1588 218.94 38.0536 220.297 37.6298L221.588 37.2263L221.661 36.0819L221.735 34.9375L221.192 35.2901C220.056 36.0276 218.165 36.4826 216.814 36.3432C214.792 36.1346 213.599 35.0137 213.337 33.0738L213.187 31.9587H217.595H222.004L221.888 30.3444C221.659 27.1451 220.044 25.5518 217.031 25.5518ZM217.534 27.2674C218.215 27.2711 218.401 27.4352 219.017 28.0505C219.698 28.7311 219.844 29.0381 219.784 29.6621L219.709 30.4328L216.59 30.4571C214.874 30.4706 213.418 30.3964 213.353 30.2921C213.108 29.8957 213.553 28.9343 214.328 28.1835C215.037 27.496 215.314 27.3917 216.654 27.3064C217.026 27.2828 217.307 27.2662 217.534 27.2674Z" fill="#FCFCFC"/>
<path d="M240.496 21.1602V23.6525C240.496 26.1251 240.492 26.1435 239.968 25.9945C236.434 24.9899 234.264 25.6723 232.874 28.225C231.999 29.8303 231.778 32.5761 232.36 34.5793C232.792 36.0619 234 37.4591 235.159 37.8148C236.26 38.1524 238.281 37.933 239.231 37.3733C240.258 36.7675 240.496 36.7646 240.496 37.3577C240.496 37.7489 240.653 37.8272 241.436 37.8272H242.375V29.4937V21.1602H241.436H240.496ZM238.037 27.2934H238.038C238.656 27.3028 239.19 27.3989 239.623 27.5795L240.496 27.944L240.493 31.4184L240.49 34.8929L239.679 35.4183C238.131 36.4206 236.092 36.4999 235.094 35.5966C234.446 35.0103 234.088 33.7332 234.078 31.9686C234.06 28.9313 235.094 27.4788 237.392 27.3126C237.616 27.2964 237.831 27.2903 238.037 27.2934Z" fill="#FCFCFC"/>
<path d="M247.989 37.5307C246.48 36.5263 246.269 35.7081 246.172 30.4914L246.085 25.8551H247.166H248.248V30.0881C248.248 34.6468 248.445 35.6615 249.437 36.1917C250.196 36.5982 251.814 36.3411 253.049 35.6176L254.119 34.9905V30.4093V25.8281L255.118 25.9003L256.116 25.9725V31.8412V37.7098L255.118 37.782C254.19 37.8491 254.119 37.8128 254.119 37.2664V36.6786L252.804 37.3703C251.096 38.2681 249.192 38.3315 247.989 37.5307Z" fill="#FCFCFC"/>
<path d="M289.971 37.7184C288.807 37.3036 287.844 36.3738 287.18 35.0247C286.752 34.1555 286.653 33.5569 286.654 31.8415C286.654 29.9497 286.727 29.5994 287.338 28.4923C288.094 27.1252 289.598 25.9627 290.935 25.7119C292.127 25.4885 294.273 25.7419 295.282 26.225C296.119 26.6255 296.163 26.7031 296.163 27.7717V28.8968L295.076 28.2075C292.451 26.544 289.724 27.306 288.881 29.938C288.46 31.2544 288.691 33.8245 289.323 34.8459C290.41 36.6038 292.818 36.8737 295.049 35.4876L296.187 34.78L296.116 35.9811C296.047 37.1643 296.03 37.1884 294.989 37.6091C293.715 38.1236 291.259 38.1771 289.971 37.7184Z" fill="#FCFCFC"/>
<path d="M335.709 25.5235C335.184 25.5225 334.645 25.5555 334.112 25.6248C333.199 25.7434 332.32 25.8436 332.159 25.8476C331.968 25.8523 331.865 26.2266 331.865 26.9113C331.865 27.4923 331.892 27.9668 331.924 27.9654C331.956 27.964 332.501 27.8055 333.135 27.6133C334.496 27.2007 336.659 27.1579 337.707 27.5229C338.529 27.8092 338.911 28.345 338.911 29.2088C338.911 29.7552 338.835 29.7816 336.856 29.9158C333.148 30.1673 331.366 31.2497 331.036 33.4526C330.755 35.3227 331.351 36.6579 332.901 37.6313C333.893 38.2541 336.279 38.1449 337.685 37.4121C338.909 36.7747 338.911 36.7744 338.911 37.3576C338.911 37.7575 339.068 37.827 339.968 37.827H341.025V33.2541C341.025 28.0854 340.848 27.2753 339.518 26.3685C338.732 25.8325 337.284 25.5262 335.709 25.5235ZM338.911 31.443V33.2233V35.0037L337.957 35.6341C337.311 36.0617 336.611 36.2919 335.785 36.3484C333.931 36.4752 333.04 35.7941 333.04 34.2504C333.04 32.6329 334.163 31.9571 337.443 31.6017L338.911 31.443Z" fill="#FCFCFC"/>
<path d="M390.671 25.5776C390.48 25.5764 390.272 25.5777 390.042 25.5803C388.856 25.5937 387.515 25.691 387.063 25.7967C386.297 25.9756 386.236 26.0584 386.168 26.9984C386.098 27.9593 386.121 27.9999 386.637 27.8343C388.526 27.229 391.002 27.0759 392.109 27.4964C392.736 27.7349 393.542 29.1969 393.28 29.621C393.204 29.7444 392.639 29.8452 392.024 29.8452C390.435 29.8452 388.285 30.2806 387.237 30.8149C386.16 31.364 385.52 32.3406 385.307 33.7593C385.107 35.091 385.874 36.7614 387.039 37.5327C388.171 38.2827 390.279 38.2553 391.877 37.4694C393.302 36.769 393.404 36.7614 393.404 37.3571C393.404 37.7484 393.561 37.8266 394.343 37.8266H395.283V33.0693C395.283 27.482 395.159 27.043 393.315 26.1158C392.485 25.6987 392.008 25.5855 390.671 25.5776ZM392.92 31.5659C393.047 31.5715 393.137 31.5863 393.178 31.6113C393.441 31.7737 393.479 34.5288 393.224 34.9271C393.129 35.0753 392.534 35.4714 391.901 35.8074C390.084 36.7722 388.119 36.5547 387.559 35.3269C387.02 34.143 387.496 32.7334 388.607 32.2275C389.272 31.9246 392.025 31.5266 392.92 31.5659Z" fill="#FCFCFC"/>
<path d="M0.917969 32.0949C0.917969 28.9422 0.982121 26.1957 1.06053 25.9914C1.15754 25.7388 1.50227 25.6201 2.13942 25.6201C2.87823 25.6201 3.10166 25.7192 3.19859 26.0896C3.26615 26.3478 3.419 26.5591 3.53826 26.5591C3.65752 26.5591 4.16943 26.3478 4.67585 26.0896C5.299 25.7719 6.0601 25.6201 7.0306 25.6201C8.57636 25.6201 9.26941 25.8664 9.87809 26.6318L10.2656 27.1191L11.6725 26.3696C12.8435 25.7458 13.3378 25.6201 14.6208 25.6201C16.4594 25.6201 17.0798 25.8661 17.7615 26.8654C18.5571 28.0318 18.7559 29.4056 18.7621 33.7776L18.7679 37.827H17.6073H16.4466L16.3742 33.1561C16.309 28.952 16.2571 28.4358 15.8544 27.9916C15.1907 27.2596 13.412 27.3138 12.0573 28.1073L11.0173 28.7164L10.9807 32.1567C10.9607 34.0488 10.9675 35.8528 10.996 36.1657C11.1109 37.4271 10.8383 37.827 9.8636 37.827C9.33511 37.827 8.90477 37.6994 8.83692 37.5227C8.77267 37.3554 8.70516 35.401 8.6869 33.1797C8.65251 28.9977 8.60107 28.5975 8.00934 27.9089C7.45455 27.2633 5.54217 27.3588 4.28548 28.0949L3.26665 28.6916V33.2593V37.827H2.09232H0.917981L0.917969 32.0949Z" fill="#66AD00"/>
<path d="M35.915 31.8415V25.8555H36.9719H38.0288V31.8415V37.8276H36.9719H35.915V31.8415Z" fill="#FCFCFC"/>
<path d="M66.4492 31.8411V25.855H67.5061C68.4583 25.855 68.563 25.9096 68.563 26.4056V26.9561L69.9135 26.2693C71.0732 25.6796 71.471 25.5951 72.7294 25.6711C74.4568 25.7754 75.2753 26.2731 75.9523 27.6308C76.3552 28.4386 76.4211 29.1366 76.4774 33.1909L76.5417 37.8271H75.4882H74.4347V33.9404C74.4347 29.3003 74.201 28.1018 73.1946 27.5816C72.2894 27.1138 70.9188 27.312 69.5612 28.1071L68.563 28.6918V33.2594V37.8271H67.5061H66.4492V31.8411Z" fill="#FCFCFC"/>
<path d="M122.352 29.4937V21.1602H123.408H124.465V29.4937V37.8272H123.408H122.352V29.4937Z" fill="#FCFCFC"/>
<path d="M174.495 29.4937V21.1602H175.552H176.609V29.4937V37.8272H175.552H174.495V29.4937Z" fill="#FCFCFC"/>
<path d="M202.446 31.8408V25.8547H203.503C204.521 25.8547 204.56 25.8808 204.56 26.559C204.56 26.9463 204.615 27.2632 204.683 27.2632C204.75 27.2632 205.24 26.9753 205.772 26.6235C206.53 26.122 207.088 25.9641 208.351 25.8928L209.962 25.8018V26.8371V27.8723L208.472 27.7775C207.377 27.7079 206.77 27.7902 206.182 28.0881C204.509 28.936 204.56 28.7655 204.56 33.5204V37.8268H203.503H202.446V31.8408Z" fill="#FCFCFC"/>
<path d="M281.366 31.8415V25.8555H282.423H283.48V31.8415V37.8276H282.423H281.366V31.8415Z" fill="#FCFCFC"/>
<path d="M318.008 29.4937V21.1602H318.947H319.887V24.1044V27.0486L321.002 26.3932C321.943 25.8403 322.381 25.7377 323.803 25.7377C325.707 25.7377 326.461 26.1243 327.285 27.5229C327.704 28.2341 327.764 28.8317 327.838 33.0736L327.92 37.8272H326.839H325.758L325.756 33.7778C325.754 28.9357 325.578 28.0986 324.445 27.5584C323.752 27.2285 323.471 27.2124 322.576 27.4515C321.997 27.6063 321.156 27.9707 320.707 28.2612L319.891 28.7894L319.889 33.3083L319.886 37.8272H318.946H318.007V29.4937H318.008Z" fill="#FCFCFC"/>
<path d="M344.898 37.2996C344.827 37.0091 344.799 34.3418 344.835 31.3723L344.901 25.9731L345.9 25.9009C346.827 25.8338 346.898 25.8702 346.898 26.4165V27.0044L348.213 26.3127C350.289 25.2215 352.562 25.3984 353.782 26.746C354.205 27.2124 354.215 27.2107 355.736 26.4179C358.424 25.0179 360.836 25.4395 361.871 27.49C362.366 28.4709 362.399 28.8322 362.399 33.1826V37.8278H361.493H360.586L360.465 33.4263C360.388 30.6377 360.235 28.794 360.049 28.3951C359.43 27.0714 357.545 26.9722 355.647 28.1636L354.649 28.79V33.3224V37.8548L353.651 37.7826L352.653 37.7104L352.592 33.6024C352.514 28.3385 352.467 28.0664 351.547 27.5911C350.573 27.0878 349.296 27.2766 347.958 28.1219L346.9 28.79V33.3089V37.8278H345.965C345.19 37.8278 345.007 37.7372 344.9 37.2996H344.898Z" fill="#FCFCFC"/>
<path d="M380.016 29.4933V21.1328L381.014 21.205L382.012 21.2772V29.4933V37.7095L381.014 37.7817L380.016 37.8538V29.4933Z" fill="#FCFCFC"/>
<path d="M399.276 31.8415V25.8555H400.333H401.39V31.8415V37.8276H400.333H399.276V31.8415Z" fill="#FCFCFC"/>
<path d="M405.148 31.8411V25.855H406.23C407.085 25.855 407.285 25.9274 407.18 26.1996C406.952 26.793 407.375 26.7919 408.553 26.1958C410.514 25.2038 412.735 25.463 413.992 26.8304C414.814 27.7247 415.01 29.0157 415.012 33.543L415.014 37.8271H413.975H412.935L412.859 33.1563C412.791 28.9715 412.737 28.4346 412.339 27.9964C411.693 27.2839 410.494 27.1319 409.253 27.6055C407.218 28.3825 407.28 28.2076 407.238 33.3082L407.202 37.8271H406.176H405.149V31.8411L405.148 31.8411Z" fill="#FCFCFC"/>
<path d="M280.812 23.8005C279.806 23.2409 279.551 22.9252 278.637 21.1067L277.602 19.0467L275.08 19.0435C272.007 19.0396 271.576 18.9353 271.139 18.0895C270.382 16.627 270.972 15.2416 272.842 14.086C273.881 13.4442 276.09 13.3872 277.418 13.9678C278.377 14.3872 278.909 14.2872 279.266 13.6199C279.533 13.1207 279.387 12.7723 278.156 10.9803C277.108 9.45373 277.121 8.6774 278.208 8.03677C279.204 7.449 280.546 7.39671 281.075 7.92504C281.285 8.13456 281.712 8.79478 282.025 9.39221C282.338 9.98963 282.68 10.5718 282.786 10.686C282.893 10.8014 283.69 10.2611 284.582 9.46896C286.715 7.57413 287.947 7.11383 288.746 7.91298C289.181 8.34729 289.229 9.62087 288.843 10.4684C288.49 11.2427 288.728 11.4613 289.483 11.0569C289.959 10.8028 290.124 10.7964 290.266 11.0266C290.4 11.2437 290.61 11.2559 291.088 11.0744C292.596 10.5013 294.569 10.9095 295.334 11.9529C296.59 13.666 295.246 16.4394 292.982 16.8026C292.6 16.864 291.89 16.9763 291.406 17.0522C290.37 17.2142 290.318 17.4357 291.112 18.2916C291.792 19.0247 291.9 20.2876 291.332 20.8559C291.046 21.1418 290.664 21.1918 289.609 21.0816C288.864 21.0038 288.089 20.8765 287.886 20.7987C287.627 20.6992 287.127 21.1471 286.197 22.3118C285.47 23.2217 284.674 24.0742 284.428 24.2061C283.602 24.6477 282.016 24.4697 280.812 23.8005Z" fill="#FF0000"/>
<path d="M35.915 22.8314V21.6855L36.7958 21.7188C37.6742 21.7519 37.6767 21.7549 37.7481 22.8646L37.8197 23.9772H36.8674H35.915V22.8314Z" fill="#FCFCFC"/>
<path d="M399.276 22.7936V21.6104L400.216 21.6658L401.155 21.7212V22.849V23.9768H400.216H399.276V22.7936Z" fill="#FCFCFC"/>
<path d="M294.676 10.6737C294.59 10.5876 294.52 10.2156 294.52 9.84703C294.52 9.36155 294.68 9.10383 295.102 8.91177C295.84 8.57572 297.186 8.92635 297.294 9.48242C297.431 10.1941 295.208 11.2056 294.676 10.6737Z" fill="#FF0000"/>
<path d="M292.327 5.97806C291.794 5.44514 292.428 2.83752 293.267 2.11609C293.985 1.49823 295.956 0.905537 296.544 1.13091C297.005 1.3076 296.949 2.83872 296.455 3.57992C295.93 4.368 294.786 5.31941 294.108 5.53139C293.817 5.62232 293.58 5.79522 293.58 5.91563C293.58 6.16506 292.565 6.21564 292.327 5.97806Z" fill="#FF0000"/>
<path d="M286.299 4.96793C286.299 4.31395 287.32 2.12572 287.913 1.50953C288.53 0.868417 289.925 0.568726 290.412 0.972674C290.619 1.14511 290.761 1.66165 290.761 2.24625C290.761 3.35239 290.402 3.71712 288.233 4.81598C286.779 5.55207 286.299 5.58984 286.299 4.96793Z" fill="#FF0000"/>
<path fill-rule="evenodd" clip-rule="evenodd" d="M374.314 112.96C374.55 113.005 374.487 112.654 374.629 112.588C374.684 112.49 374.697 112.39 374.658 112.301C374.673 112.211 374.639 112.164 374.629 112.102C374.559 112.102 374.588 112.101 374.474 112.102C374.367 112.098 374.235 112.125 374.171 112.045C374.131 112.004 374.07 111.984 374.071 111.902C374.009 111.867 373.941 111.775 373.942 111.678C373.935 111.603 373.964 111.516 373.912 111.459C373.865 111.359 373.815 111.3 373.713 111.215C373.661 111.154 373.578 111.063 373.513 111.015C373.488 110.954 373.334 110.981 373.304 110.929C373.304 110.885 373.038 110.802 372.969 110.958C371.799 111.807 371.184 113.332 370.754 114.538C370.792 114.532 370.888 114.613 371.009 114.605C371.098 114.649 371.206 114.653 371.316 114.648C371.428 114.646 371.541 114.651 371.653 114.648C372.661 114.589 373.459 113.739 374.143 113.389C374.17 113.3 374.214 113.374 374.242 113.274C374.327 113.249 374.366 113.103 374.377 113.092C374.359 113.12 374.329 112.977 374.314 112.96Z" fill="#FF0000"/>
</g>
<defs>
<clipPath id="clip0_1239_21858">
<rect width="415.51" height="151" fill="white"/>
</clipPath>
</defs>
</svg>
