<?xml version="1.0" encoding="UTF-8"?>
<svg id="Calque_1" xmlns="http://www.w3.org/2000/svg" version="1.1" viewBox="0 0 94.1 94.5">
  <!-- Generator: Adobe Illustrator 29.2.1, SVG Export Plug-In . SVG Version: 2.1.0 Build 116)  -->
  <path d="M93,51c1.8,1.5,1,4.3.1,6.1-2.3,4.5-18,23-22.3,27.6s-7.6,8.3-15.9,9c-10.9.9-35.3,1.2-46,0s-7-2.7-8-5.9S-.2,57.8.5,53.3s2.3-6.3,4.9-7.1,30.4-.9,34,0c6.2,1.6,10.6,10.1,12.9,14.2s2.5,1.7,3.7.9c8.3-6,14-16.2,25.6-14.3s11,3.6,11.5,4ZM42.4,65.7c1.9,0,3.1-2,2.3-3.7-2.3-4.5-5.7-9.3-10.8-9.3H10c-.7,0-1.3.3-1.8.7h0c-.5.5-.7,1.1-.7,1.8v27.8c0,1.4,1.1,2.6,2.6,2.6h47.8c.4,0,4.2-2.4,4.9-3.1,4-3.5,13.3-16,16.9-20.9s.9-1.1,1.6-2c1.3-1.6.2-4-1.9-4.1l-3.3-.2c-.5,0-1,0-1.5.4-6,3.7-18.7,18-23.8,18h-23.9c-1.4,0-2.6-1.1-2.6-2.6v-2.9c0-1.4,1.1-2.6,2.6-2.6h15.5ZM45.1.2c6.4-1.1,8.7,3.4,11.7,3.4S62.1-.8,68.5.2c10.6,1.5,13.4,13.6,8.6,22s-17.2,20-18.5,20.4-3.5.4-4.9-.8c-6.9-11.1-25.1-19.6-17.8-34.8,1.6-3.4,5.4-6.2,9.1-6.9ZM46.1,8.1c-14.2,2.7,8,21.3,10.7,25.7,3.6-6,17.3-14.7,15-21.9-3.3-10.6-13.4,2.2-14.9,2-3-2.2-6.8-6.5-10.9-5.7Z"/>
</svg>