<svg width="166" height="61" viewBox="0 0 166 61" fill="none" xmlns="http://www.w3.org/2000/svg">
<path d="M163.291 10.0175C162.632 9.98487 161.965 9.90661 161.305 9.92617C160.89 9.93922 160.415 10.0044 160.089 10.2001C158.844 10.9371 157.072 11.0284 155.827 10.3762C155.627 10.2718 155.375 10.2588 155.153 10.2131C154.745 10.3631 154.923 11.2697 154.026 10.9045C153.69 11.3175 153.314 11.4545 152.899 11.3153C152.299 12.5545 151.135 13.3045 149.89 14.0023C149.668 14.1263 149.497 14.3871 149.416 14.6219C148.222 18.085 146.977 21.5351 145.902 25.0308C145.428 26.583 145.354 28.2265 144.998 29.8113C144.724 31.0309 144.331 32.2309 143.938 33.4244C143.804 33.8418 143.827 34.1549 144.338 34.2266C145.457 34.3766 146.584 34.4745 147.711 34.5723C147.844 34.5853 148 34.4418 148.185 34.3505C148.422 34.5266 148.408 34.6114 148.244 34.9506C147.844 35.7854 147.689 36.7049 147.429 37.5984C147.296 38.0615 147.162 38.5245 146.977 39.1506C146.525 38.3093 146.569 38.0615 147.525 35.1593C146.243 34.9962 144.946 34.8266 143.478 34.6375C143.078 36.6984 142.567 38.9158 142.24 41.1528C141.892 43.5398 141.729 45.9399 141.484 48.3334C141.484 48.353 141.484 48.3791 141.484 48.3986C141.373 49.6508 141.425 49.7487 142.819 49.9834C143.426 50.0878 144.057 50.0421 144.672 50.1204C146.317 50.3291 147.955 50.7008 149.601 50.7595C152.403 50.8574 155.219 50.7726 158.029 50.7335C158.318 50.7335 158.607 50.5117 158.918 50.3813C159.719 50.9878 160.742 50.4269 161.668 50.7335C161.001 50.8248 160.334 50.9552 159.659 50.9943C159.141 51.0204 158.963 51.2356 158.94 51.64C158.851 53.1857 158.74 54.7313 158.688 56.2836C158.674 56.7727 158.592 57.0662 157.992 57.2553C157.354 57.4575 156.783 57.8292 155.99 58.2271C156.628 58.1749 157.035 58.1423 157.443 58.1097C157.458 58.1684 157.473 58.2205 157.488 58.2792C155.642 59.0293 153.633 59.2901 151.706 59.7988C151.654 59.7141 151.602 59.6227 151.558 59.538C151.765 59.401 151.943 59.2249 152.173 59.1336C153.989 58.4227 155.812 57.7445 157.621 57.0205C157.821 56.9423 158.021 56.6488 158.029 56.4466C158.11 54.7053 158.147 52.9574 158.207 51.1443C153.878 51.1117 149.379 51.5878 144.768 50.8704C144.872 53.29 144.968 55.6248 145.079 58.0771C142.352 59.0293 139.439 59.688 136.437 60.0206C136.385 59.9293 136.333 59.838 136.281 59.7467C136.526 59.5641 136.741 59.3554 137.007 59.2053C138.927 58.1292 141.062 57.5618 143.271 57.1901C143.975 57.0727 144.22 56.8444 144.19 56.1727C144.116 54.4053 144.168 52.6378 144.168 50.7791C143.478 50.5965 142.633 50.3682 141.788 50.14C141.618 50.2574 141.455 50.3747 141.284 50.4987C141.151 50.2769 140.906 50.0617 140.914 49.84C140.936 48.6791 140.98 47.5182 141.084 46.3638C141.255 44.5572 141.507 42.7572 141.67 40.9507C141.914 38.218 142.611 35.5701 143.464 32.9353C143.975 31.344 144.368 29.7135 144.612 28.07C144.909 26.0939 145.702 24.2612 146.362 22.3894C146.94 20.7459 147.414 19.0698 147.948 17.4067C148.252 16.448 148.571 15.4893 148.882 14.5241C148.222 14.5958 147.555 14.7524 146.91 14.7132C146.265 14.6806 145.62 14.4719 144.99 14.3023C144.457 14.1589 143.953 13.9306 143.419 13.7871C142.596 13.5719 142.092 12.7501 142.374 11.9349C142.722 10.9436 143.108 9.95878 143.471 8.9805C143.093 8.82398 142.656 8.6805 142.263 8.4718C140.765 7.68918 140.358 5.41957 141.47 4.23911C142.055 3.61953 142.47 3.63258 142.848 4.27824C141.996 4.38911 141.573 4.79347 141.484 5.57609C141.307 7.21308 141.877 8.08049 143.397 8.35441C143.693 8.40658 144.131 8.34136 144.338 8.17179C144.79 7.80657 145.094 7.30439 145.532 6.92612C145.969 6.54785 146.503 6.25437 146.91 5.79784C146.48 6.00001 146.043 6.20219 145.613 6.41089C144.775 6.8022 144.286 6.57394 144.36 5.73914C144.397 5.3087 144.561 4.7739 144.894 4.49999C145.68 3.85432 146.532 3.2217 147.488 2.79778C149.015 2.11298 150.698 1.72167 152.432 1.76733C152.951 1.78037 153.522 2.04777 153.945 2.33473C154.715 2.86952 155.39 3.50866 156.205 4.18694C156.376 2.73256 156.383 1.36949 157.369 0.260777C157.465 0.260777 157.562 0.247733 157.658 0.241211C157.725 0.606435 157.91 0.997747 157.836 1.33688C157.621 2.27603 157.354 3.20866 156.998 4.1152C156.85 4.50651 156.917 4.71521 157.243 4.94347C157.48 5.10652 157.688 5.29565 157.903 5.47174C158.51 5.98697 159.074 6.30002 160.03 5.92827C161.112 5.50435 161.972 6.11741 162.105 7.14134C162.128 7.33047 162.372 7.53265 162.572 7.65657C162.765 7.78048 163.039 7.80005 163.269 7.87831C163.877 8.08049 164.7 8.13918 164.692 8.90876C164.678 10.1805 164.425 10.4218 163.121 10.7545C163.506 12.0784 163.877 13.4088 164.277 14.7328C164.818 16.5393 165.115 18.3589 165.004 20.2438C164.915 21.7699 164.848 23.3482 165.211 24.8156C165.478 25.8917 165.456 26.9417 165.493 27.9917C165.53 29.12 165.33 30.2613 165.226 31.3961C164.878 35.2114 164.566 39.0332 164.166 42.842C163.988 44.5833 163.588 46.3051 163.41 48.0464C163.336 48.8095 163.106 49.5465 163.114 50.3161C163.114 50.4921 163.047 50.6682 162.839 50.8378C162.78 50.2639 162.713 49.69 162.654 49.0834C159.504 49.8139 156.45 50.8769 153.122 50.5052C154.071 50.4269 155.049 50.44 155.968 50.2639C158.073 49.853 160.163 49.3639 162.246 48.8682C162.446 48.8225 162.669 48.5291 162.698 48.3269C163.062 46.0051 163.395 43.6898 163.714 41.3615C163.951 39.6267 164.144 37.8919 164.359 36.1441C163.795 36.1962 163.818 36.1962 163.855 36.7701C163.877 37.1028 163.81 37.4419 163.773 37.8397C162.639 37.5267 161.735 37.5723 161.12 38.4984C160.786 39.0006 160.334 38.9289 159.963 38.5963C158.392 39.8159 156.887 41.055 154.738 41.3615C152.877 41.6224 151.832 40.7941 151.899 39.1376C151.958 37.7615 152.002 36.3788 152.084 35.0027C152.091 34.8136 152.269 34.6375 152.366 34.4484L152.343 34.4288C152.825 35.3614 152.551 36.3136 152.492 37.2658C152.44 38.0876 152.469 38.9289 152.595 39.7441C152.729 40.605 153.352 40.9898 154.345 40.8398C155.205 40.7094 156.042 40.442 157.021 40.2072C156.072 39.7702 156.109 39.7637 156.524 39.0267C156.895 38.3811 157.139 37.6832 157.517 36.8484C157.028 36.9267 156.791 36.9658 156.546 37.0049L156.494 36.8745C157.028 36.6528 157.562 36.4245 158.199 36.1571C158.036 36.731 157.932 37.1223 157.777 37.6702C158.496 37.2202 159.081 36.9593 159.207 36.2484C159.341 35.4919 160.037 35.1071 160.719 34.7223C160.927 34.6049 161.142 34.3571 161.157 34.1549C161.431 30.9722 161.713 27.7895 161.92 24.6004C162.009 23.2112 161.979 21.8025 161.905 20.4133C161.868 19.7155 161.587 19.0242 161.416 18.3002C162.091 18.9068 162.298 19.6894 162.357 20.4525C162.706 24.7243 162.498 28.9765 161.831 33.2157C161.705 34.0114 161.557 34.8005 161.253 35.5897C161.194 35.4658 161.142 35.3419 161.06 35.1593C160.712 35.368 160.386 35.5571 160.052 35.7527C160.853 36.4049 160.971 37.1484 160.586 38.2702C160.927 37.9441 161.209 37.5071 161.624 37.3115C162.083 37.0962 162.676 37.0962 163.291 36.9919C163.121 36.3332 163.062 35.6549 162.335 35.1984C162.209 35.1201 162.172 34.8071 162.239 34.6505C162.595 33.8027 163.114 32.994 163.358 32.1201C163.595 31.2787 163.603 30.3852 163.64 29.5178C163.677 28.7157 163.506 27.9004 163.61 27.1113C163.914 24.8612 163.521 22.6764 163.062 20.472C162.847 19.422 162.824 18.3459 162.861 17.2633C163.729 18.8611 164.151 20.5307 164.01 22.3047C164.114 22.2916 164.225 22.2851 164.329 22.2721C164.262 21.3916 164.233 20.5046 164.129 19.6242C164.018 18.7111 163.825 17.8046 163.684 16.898C163.543 16.0111 163.432 15.1176 163.299 14.2306C163.165 13.3371 163.025 12.4501 162.861 11.3936C161.972 11.7653 161.075 12.0132 160.349 12.4697C159.148 13.2132 158.095 14.1393 157.436 15.3263C156.568 16.872 155.768 18.4437 154.938 20.009C154.849 20.1785 154.752 20.3416 154.656 20.5046L154.463 20.459C154.53 20.1525 154.589 19.8459 154.649 19.572C153.574 19.8133 152.492 20.1068 151.387 20.2829C150.772 20.3807 150.098 20.3481 149.467 20.2503C148.43 20.0938 148.118 19.6568 148.222 18.5937C148.963 20.2959 150.446 19.872 151.802 19.709C152.588 19.6111 153.352 19.3959 154.137 19.285C154.701 19.2003 154.982 18.9459 155.153 18.4763C155.924 16.3893 157.161 14.5371 158.859 12.9197C159.919 11.9023 161.216 11.3545 162.847 11.2827C162.735 11.0023 162.647 10.7675 162.55 10.5197C162.78 10.3436 163.017 10.1675 163.254 9.98487C163.514 9.84791 164.003 9.68487 163.988 9.57399C163.944 9.20225 163.832 8.70659 163.536 8.51745C163.084 8.23049 162.454 8.15875 161.92 8.00223C161.631 8.49789 161.394 8.91529 161.105 9.40442C161.853 9.6066 162.565 9.80226 163.269 9.99791L163.291 10.0175ZM147.496 14.2241C148.4 14.1523 149.608 13.748 150.609 12.9328C151.039 12.5806 151.565 12.2023 151.736 11.7458C152.314 10.174 152.788 8.56963 153.233 6.96525C153.448 6.18263 153.463 5.4587 152.714 4.74129C151.876 3.93258 151.417 3.66519 150.32 4.23911C149.393 4.72173 148.534 5.31522 147.696 5.91523C145.85 7.23265 144.523 8.91529 143.478 10.774C143.33 11.0414 143.3 11.4132 143.367 11.7132C143.693 13.2001 145.242 14.2436 147.496 14.2371V14.2241ZM158.384 6.61307C156.769 5.24348 155.16 3.85432 153.5 2.5043C153.218 2.27603 152.751 2.15212 152.358 2.12603C150.364 2.00864 148.615 2.73908 146.925 3.51518C146.243 3.82823 145.672 4.36955 145.168 4.89782C144.924 5.15217 144.953 5.60218 144.82 6.09132C145.813 5.71957 146.532 5.32826 147.31 5.19783C148.104 5.06739 148.578 4.74782 148.934 4.14781C148.756 4.1152 148.615 4.08911 148.37 4.04346C149.645 3.22822 150.928 3.34562 152.18 3.6978C153.418 4.04346 154.641 4.48042 155.82 4.97608C157.095 5.50435 157.147 6.8609 157.91 7.68265C158.073 7.31091 158.229 6.96525 158.384 6.61959V6.61307ZM159.889 9.61312C159.593 9.47617 159.393 9.35225 159.17 9.27399C157.94 8.8305 156.991 7.96962 156.665 6.95221C156.339 5.94132 155.753 5.49131 154.767 5.13261C154.108 4.8913 153.937 5.03478 153.893 5.60218C153.841 6.31958 153.722 7.03047 153.67 7.74787C153.648 8.02179 153.744 8.30223 153.789 8.5631C154.063 8.44571 154.204 8.38701 154.345 8.32832C154.478 8.64789 154.612 8.96094 154.715 9.20877C154.893 9.16312 155.182 9.01964 155.286 9.08485C155.605 9.28703 155.82 9.61965 156.131 9.82182C156.487 10.0501 156.902 10.324 157.31 10.3501C158.207 10.4023 159.081 10.2262 159.889 9.61965V9.61312ZM164.989 27.5809C164.878 27.5482 164.766 27.5156 164.655 27.483C164.559 27.6787 164.403 27.8678 164.381 28.07C164.292 28.8265 164.285 29.5961 164.166 30.3526C163.966 31.6179 163.706 32.8766 163.469 34.1353C163.417 34.1353 163.366 34.1353 163.314 34.1288C163.284 33.9723 163.254 33.8092 163.195 33.5223C162.98 34.0701 162.817 34.4875 162.587 35.0745C163.136 34.8397 163.484 34.631 163.862 34.5397C164.277 34.4418 164.433 34.2527 164.418 33.9005C164.418 33.7049 164.433 33.5092 164.455 33.3136C164.633 31.4027 164.811 29.4918 164.989 27.5809ZM158.132 8.10005C158.548 8.36093 158.814 8.55006 159.111 8.70659C160.408 9.38486 160.697 9.28703 161.201 8.03483C161.216 7.9957 161.194 7.95005 161.186 7.91092C160.571 7.637 159.963 7.34352 159.341 7.08916C159.2 7.03047 158.94 7.03699 158.837 7.11525C158.718 7.20656 158.681 7.41526 158.688 7.57178C158.688 7.70222 158.807 7.82613 158.911 8.00875C158.644 8.04136 158.466 8.06744 158.132 8.1131V8.10005ZM144.16 57.3988C142.263 57.9336 140.432 58.4553 138.601 58.9706L138.69 59.2314C140.595 58.8075 142.507 58.3901 144.412 57.9662C144.323 57.764 144.257 57.6205 144.16 57.3988ZM158.384 39.0463C159.274 38.7332 160.267 37.3702 160.067 36.8484C159.459 37.2919 158.866 37.7289 158.184 38.231C158.466 38.355 158.644 38.4267 158.807 38.505C158.696 38.6419 158.592 38.7789 158.384 39.0463ZM159.645 6.67177C160.267 6.92612 160.808 7.14786 161.357 7.37613L161.572 7.21308C161.416 6.96525 161.32 6.63263 161.083 6.47611C160.638 6.18915 160.163 6.30002 159.645 6.67177ZM164.329 27.2743C164.734 27.1221 164.808 26.2395 164.551 24.6264C164.477 25.5069 164.403 26.3873 164.329 27.2743Z" fill="#202020"/>
<path d="M163.292 10.0176C162.262 9.98497 161.135 9.74366 160.171 10.1611C159.875 10.3306 159.564 10.4806 159.23 10.585C158.237 10.9046 157.103 10.9111 156.132 10.5263C155.835 10.3632 155.457 10.2654 155.153 10.2198C154.916 10.3306 154.894 10.6111 154.746 10.8067C154.605 11.0676 154.249 11.0154 154.012 10.9111H154.034C153.834 11.1198 153.619 11.5633 153.219 11.4328C153.1 11.4067 152.989 11.3676 152.878 11.335L152.907 11.3219C152.374 12.4437 151.277 13.2394 150.15 13.8785C149.483 14.1524 149.387 14.7981 149.194 15.359L148.623 17.0677C148.193 18.3982 146.11 24.4113 145.784 25.6244C145.362 27.3657 145.332 29.1788 144.739 30.8941C144.576 31.4549 144.146 32.9419 143.983 33.4898C143.887 33.7637 143.909 34.0898 144.242 34.1354C145.184 34.2528 146.288 34.3441 147.252 34.4485C147.719 34.5006 147.748 34.5398 148.141 34.2789L148.193 34.2528C148.297 34.3376 148.445 34.4289 148.445 34.5985C147.83 36.1507 147.496 37.7811 147.007 39.379C146.496 38.6551 146.548 37.8985 146.807 37.1159C146.992 36.4442 147.215 35.7854 147.43 35.1267L147.511 35.2441L143.464 34.7289L143.59 34.6506L142.886 38.4203C142.782 39.0399 142.456 40.6312 142.36 41.2508C142.278 41.9421 141.952 45.2617 141.871 46.0052L141.67 47.9096C141.67 48.4379 141.352 49.2596 141.826 49.6118C143.116 50.0944 144.695 49.8727 146.044 50.1988C149.572 50.8901 153.248 50.6553 156.836 50.6227L157.926 50.6031C158.237 50.6292 158.496 50.4075 158.852 50.2575L158.941 50.2183C159.275 50.5183 159.749 50.5705 160.246 50.5314C160.957 50.4466 161.572 50.5053 162.269 50.7857C161.58 50.8575 160.876 51.0009 160.179 51.0792C159.749 51.1575 159.163 51.0205 159.104 51.5227C159.052 52.3184 158.926 54.7315 158.882 55.5271L158.845 56.1989C158.83 56.4206 158.845 56.6619 158.711 56.9163C158.43 57.3989 157.829 57.3989 157.37 57.6663L156.058 58.3511L155.961 58.0837L157.414 57.9663L157.555 57.9533L157.585 58.0772L157.629 58.2467L157.659 58.3641L157.54 58.4163C155.628 59.1924 153.56 59.4468 151.61 59.9816C151.536 59.8511 151.403 59.6294 151.329 59.4989C151.595 59.3424 151.803 59.0946 152.159 58.9772L152.93 58.6772C153.886 58.2989 156.562 57.2685 157.555 56.8771C157.711 56.7728 157.859 56.5641 157.844 56.3619L157.866 55.6184L157.918 54.1314L158.015 51.151L158.192 51.3075C153.708 51.2944 149.179 51.7379 144.717 51.0401L144.932 50.8705L145.243 58.0772V58.1946L145.125 58.2402C142.293 59.2315 139.321 59.8837 136.296 60.2163C136.215 60.0794 136.082 59.8511 136 59.7142C137.949 58.1228 140.714 57.4706 143.264 57.0141C143.568 56.9554 143.813 56.8641 143.887 56.6684C143.983 56.4663 143.939 56.1858 143.946 55.8989V54.1967L143.916 50.7922L144.065 50.9683L141.685 50.3292L141.878 50.2966L141.374 50.6553L141.174 50.7988C141.04 50.5053 140.714 50.264 140.662 49.8857C140.662 49.814 140.662 49.7814 140.662 49.7292L140.677 49.4422L140.736 48.2879C140.751 46.7813 141.196 42.953 141.359 41.3877C141.596 38.3029 142.412 35.2702 143.383 32.3223C143.827 30.8419 144.161 29.3484 144.383 27.8223C144.643 26.2766 145.199 24.7961 145.74 23.3417C146.763 20.4069 147.63 17.4329 148.608 14.4851L148.868 14.7459C147.912 14.8829 146.815 15.072 145.866 14.7851C144.895 14.5633 143.998 14.2307 143.042 13.9176C141.952 13.4742 141.811 12.2611 142.286 11.4067L143.197 8.94147L143.323 9.20234C142.716 8.94799 141.937 8.73277 141.426 8.17841C140.44 7.12839 140.24 5.56967 141.026 4.38269C141.774 3.41093 142.567 3.22832 143.197 4.474C142.708 4.52617 142.1 4.61748 141.885 5.02183C141.455 5.92185 141.552 7.5197 142.701 7.95667C143.057 8.09363 143.472 8.23711 143.864 8.13928C144.183 8.09363 144.435 7.71536 144.724 7.40883C145.213 6.73056 146.11 6.26751 146.674 5.67402L146.992 6.01316L145.992 6.48273C145.666 6.61969 145.31 6.861 144.784 6.82839C143.716 6.64578 144.035 5.38706 144.346 4.75444C146.222 2.60222 149.564 1.4022 152.655 1.56525C154.286 1.90438 155.183 3.13701 156.354 4.02399L155.902 4.17399C156.065 2.77179 156.087 1.1935 157.192 0.0391312C157.384 0.0195656 157.666 0.0130437 157.859 0L157.896 0.215221C158.393 1.50003 157.622 2.98049 157.221 4.23921C157.118 4.55226 157.162 4.60443 157.481 4.84574L158.333 5.52402C158.941 6.03272 159.549 5.86315 160.216 5.62837C161.461 5.32184 162.254 6.24142 162.388 7.19361C162.543 7.44144 162.795 7.53927 163.151 7.61753C163.729 7.83928 164.389 7.81319 164.812 8.40668C165.027 8.79799 164.93 9.14365 164.908 9.54148C164.871 9.91975 164.693 10.3567 164.315 10.585C163.937 10.8198 163.544 10.9045 163.173 11.0089L163.359 10.7219C163.826 12.3589 164.315 13.9763 164.767 15.6394C165.523 18.1308 165.108 20.7069 165.204 23.2309C165.627 25.7353 165.961 28.2984 165.523 30.8223C165.338 32.7137 164.523 41.7138 164.33 43.4356C164.018 45.7313 163.559 48.0139 163.344 50.3162C163.396 50.7336 162.981 51.0792 162.632 51.2944L162.588 50.8966L162.403 49.1422L162.699 49.3248C159.579 50.0553 156.384 51.1314 153.078 50.7466L150.98 50.5053L153.085 50.3357C154.101 50.2575 155.094 50.277 156.043 50.0683L158.956 49.4227L161.869 48.777C162.084 48.7248 162.24 48.7379 162.358 48.5422C162.477 48.4248 162.477 48.1313 162.506 47.9878C163.003 44.7661 163.752 39.4051 164.13 36.1637L164.367 36.3724C164.182 36.3724 163.952 36.4442 164.048 36.405C164.07 36.9268 164.018 37.6116 163.959 38.1268C163.24 37.9051 162.343 37.7224 161.758 38.1398C161.454 38.329 161.328 38.642 161.068 38.8768C160.735 39.2159 160.075 39.0725 159.793 38.7594L160.083 38.7659C158.6 39.9334 156.962 41.2312 154.901 41.5443C153.404 41.8703 151.818 41.2247 151.699 39.7573C151.64 38.2768 151.825 36.555 151.855 35.0811C151.833 34.8528 152.062 34.5724 152.159 34.4093L152.196 34.605L152.174 34.5854L152.507 34.3898C153.219 36.0398 152.359 37.7029 152.722 39.392C152.737 41.6943 155.457 40.3638 156.947 40.0768L156.91 40.3899C156.569 40.2203 155.946 40.0247 156.043 39.5877C156.51 38.6159 156.925 37.8072 157.318 36.8224L157.533 37.0507C157.414 37.0703 156.488 37.2203 156.399 37.2333C156.354 37.1094 156.287 36.9463 156.243 36.8289C156.614 36.6724 158.103 36.0463 158.459 35.8963C158.4 36.1376 158.015 37.4811 157.94 37.7485L157.651 37.5724C158.052 37.3181 158.481 37.1029 158.748 36.7963C159.06 36.4572 158.978 35.9746 159.282 35.6159C159.675 35.0028 160.468 34.8528 160.898 34.3376C161.039 34.168 161.35 28.9375 161.409 28.6114C161.654 25.0113 162.291 21.3656 161.105 17.8569C162.758 19.0047 162.529 20.87 162.64 22.5135C162.758 25.4483 162.618 28.3962 162.262 31.318C162.047 32.8963 161.891 34.5137 161.261 36.0398C161.18 35.8507 160.994 35.4463 160.905 35.2507L161.143 35.3159L160.134 35.9094L160.157 35.6941C160.557 36.0072 160.868 36.4572 160.935 36.9463C161.002 37.4355 160.89 37.9051 160.742 38.3485L160.475 38.2181C160.839 37.8659 161.12 37.4029 161.654 37.1876C162.202 36.9789 162.758 36.992 163.262 36.8942L163.144 37.0572C163.033 36.6398 162.973 36.2224 162.766 35.8702C162.662 35.6941 162.529 35.5441 162.358 35.4202C162.232 35.3485 162.106 35.2311 162.091 35.1137C162.025 34.1224 162.929 33.2811 163.136 32.3745C163.663 30.744 163.433 29.0549 163.448 27.3657C163.685 25.6831 163.566 24.0135 163.277 22.3439C162.899 20.5243 162.58 18.659 162.744 16.8003C163.744 18.496 164.315 20.4265 164.137 22.3439L163.996 22.2265L164.315 22.2004L164.204 22.3178L163.996 19.5917C163.552 16.9764 163.181 14.0546 162.766 11.4459L162.907 11.5176C160.764 12.2154 158.793 13.3372 157.674 15.1307C157.162 16.0177 156.695 16.9438 156.198 17.8503C155.694 18.7764 155.22 19.7025 154.694 20.6221L154.635 20.6091L154.442 20.5634L154.375 20.5504L154.39 20.4917L154.575 19.6047L154.664 19.6765C152.833 20.0678 150.721 20.8243 148.853 20.1917C148.542 20.0743 148.282 19.8134 148.215 19.5134C148.112 19.1482 148.156 18.783 148.186 18.4177L148.275 18.6199C148.89 20.3612 150.973 19.846 152.515 19.5917L153.738 19.3504C154.145 19.2786 154.583 19.2525 154.842 18.959C155.101 18.6851 155.161 18.3003 155.324 17.9677C156.651 15.1307 158.963 11.3741 162.825 11.3285C162.825 11.3285 162.536 10.5654 162.529 10.5589C162.536 10.5589 163.233 10.0241 163.24 10.0176C163.381 9.93931 163.537 9.88714 163.677 9.8154C163.796 9.74366 164.033 9.69148 163.959 9.53496C163.915 9.25452 163.855 8.96104 163.677 8.71973C163.27 8.2632 162.454 8.24363 161.913 8.04798C161.913 8.04798 161.098 9.46974 161.098 9.44365L163.262 10.0371L163.292 10.0176ZM163.292 10.0176C163.292 10.0176 161.12 9.43061 161.12 9.42409C161.12 9.42409 161.928 8.02189 161.928 8.01537C162.521 8.19146 163.285 8.23059 163.722 8.6806C163.915 8.96104 163.996 9.29365 164.018 9.61974C163.848 9.8154 163.507 9.88062 163.285 10.0111L162.588 10.5458V10.5328L162.892 11.2959L162.899 11.3154C159.356 11.3937 157.303 14.4524 155.902 16.9503C155.509 17.6155 155.398 18.3525 154.938 18.9851C154.657 19.3047 154.175 19.3373 153.782 19.4025C152.596 19.6438 151.292 19.9243 150.076 19.9373C149.179 19.9504 148.467 19.3373 148.193 18.6264L148.304 18.6134C148.282 18.9004 148.267 19.1873 148.349 19.4547C148.416 19.7286 148.638 19.9504 148.927 20.0612C150.78 20.6808 152.93 19.8852 154.761 19.4938L154.738 19.5917L154.553 20.4786L154.501 20.4069L154.694 20.4526L154.605 20.4852C155.613 18.6786 156.525 16.8394 157.533 15.0264C158.667 13.1611 160.779 12.0002 162.951 11.2763C163.388 13.9242 163.774 16.8786 164.233 19.546L164.456 22.2852V22.3895C164.308 22.4026 164.033 22.4287 163.878 22.4482C164.048 20.6939 163.618 18.9134 162.736 17.3351L162.996 17.2895C162.87 18.9917 163.225 20.6221 163.552 22.2982C163.848 23.9678 163.974 25.6961 163.729 27.3722C163.744 29.0223 163.937 30.7701 163.418 32.4397C163.181 33.3593 162.395 34.1615 162.38 35.0289C162.425 35.1593 162.462 35.1267 162.551 35.1985C163.203 35.6615 163.299 36.4702 163.47 37.1159C162.892 37.2333 162.262 37.2333 161.773 37.4159C161.335 37.5855 161.068 38.0159 160.698 38.3811L160.238 38.8246C160.424 38.2377 160.713 37.5659 160.616 36.9659C160.557 36.4833 160.216 36.0724 159.786 35.7594C160.023 35.6224 160.89 35.1072 161.12 34.9702C161.194 35.1202 161.32 35.4137 161.387 35.5637H161.091C161.98 32.7789 162.099 29.7853 162.299 26.8962C162.388 24.7048 162.351 22.5069 162.165 20.3221C162.099 19.6112 161.847 18.9134 161.283 18.4177L161.572 18.2808C162.647 21.5613 161.973 25.2396 161.773 28.6114L161.365 33.7767C161.328 33.9854 161.365 34.2854 161.224 34.4746C160.839 35.0354 159.949 35.2115 159.601 35.7724C159.326 36.1376 159.401 36.6333 159.052 36.9724C158.711 37.3572 158.259 37.5659 157.874 37.8137L157.459 38.0877C157.525 37.8137 157.918 36.4376 158 36.1311L158.267 36.3202L156.562 37.0442L156.658 36.842L156.71 36.9724L156.495 36.8616C156.732 36.8224 157.577 36.6855 157.807 36.6463C157.392 37.6116 156.91 38.7072 156.428 39.6333C156.339 39.7442 156.799 39.9399 157.095 40.0768L157.533 40.279L157.058 40.3899C155.309 40.7877 152.44 42.0399 152.337 39.4116C151.981 37.8203 152.789 36.0137 152.151 34.5202L151.603 33.4832L152.485 34.3245L152.507 34.3441L152.596 34.4354C152.418 34.768 152.233 34.918 152.263 35.3028C152.233 35.8833 152.174 37.3637 152.144 37.9572C151.944 39.8225 152.1 41.6225 154.835 41.166C156.829 40.8529 158.333 39.6268 159.808 38.4659L159.957 38.3485L160.097 38.4725C160.564 38.8964 160.809 38.5964 161.068 38.2051C161.417 37.7485 162.054 37.4616 162.662 37.4877C163.07 37.4877 163.448 37.5724 163.818 37.6703L163.537 37.8398C163.626 37.2398 163.596 36.8811 163.626 36.2811C163.64 36.2159 163.715 36.105 163.804 36.0659C164.07 35.9615 164.315 35.9746 164.582 35.9354L164.552 36.1702L163.9 41.4399L163.136 46.6965L162.944 48.0139L162.899 48.34C162.877 48.49 162.81 48.6139 162.729 48.7248C162.647 48.8879 162.366 49.0705 162.158 49.09L161.973 49.1292L159.052 49.7814L156.132 50.4335C155.124 50.6553 154.093 50.6357 153.115 50.714V50.3096C156.354 50.6749 159.475 49.6118 162.566 48.8879L162.84 48.8226L162.87 49.0705L163.055 50.8183L162.655 50.6814C162.795 50.5575 162.862 50.4531 162.855 50.277C163.062 47.9618 163.522 45.6595 163.833 43.3508C164.004 41.7073 164.834 32.5767 165.004 30.744C165.241 29.0745 165.264 27.3983 165.086 25.7418C164.174 22.4352 165.212 18.9982 164.241 15.7046C163.774 14.009 163.255 12.2872 162.766 10.585L163.018 10.5198C163.374 10.4285 163.737 10.3306 163.981 10.1741C164.434 9.90018 164.463 8.97408 164.322 8.60886C164.174 8.30233 163.374 8.19798 162.996 8.0545C162.603 8.00232 162.143 7.75449 161.906 7.40231C161.75 7.12187 161.81 7.011 161.743 6.861C161.58 6.30012 161.024 5.88924 160.357 6.07185C159.971 6.18272 159.608 6.35229 159.178 6.3262C158.704 6.31968 158.289 6.10446 157.985 5.86967L157.14 5.1914C157.021 5.08705 156.784 4.95661 156.68 4.71531C156.569 4.46747 156.636 4.23269 156.695 4.0566C157.051 3.12397 157.355 2.13917 157.548 1.18698C157.57 0.932626 157.429 0.613055 157.355 0.254353L157.644 0.45653L157.355 0.476096L157.555 0.38479C156.495 1.58481 156.606 3.21528 156.391 4.66965L155.998 4.34356C154.931 3.52833 153.96 2.30222 152.581 2.00221C151.173 1.91091 149.646 2.18482 148.304 2.69353C147.267 3.06527 146.355 3.61963 145.525 4.27182L145.11 4.60443C144.658 4.96966 144.509 5.69358 144.65 6.20229C144.858 6.55447 145.384 6.22838 145.769 6.05881C146.288 5.8175 147.356 5.31532 147.875 5.06749C147.37 5.63489 146.696 6.39142 146.044 6.78926C145.251 7.25231 144.954 8.2632 144.005 8.53712C142.997 8.71973 141.833 8.18493 141.426 7.34361C141.226 6.92622 141.166 6.48273 141.174 6.05881C141.196 5.64793 141.189 5.19792 141.455 4.76748C141.722 4.32399 142.293 4.09573 142.775 4.05008L142.59 4.36965C142.464 4.18051 142.345 3.94573 142.093 4.01747C141.278 4.44139 140.959 5.43923 141.07 6.26099C141.137 6.84143 141.374 7.4284 141.804 7.86536C142.241 8.3545 143.034 8.5632 143.738 8.86321L143.672 9.04582L142.753 11.5046C142.382 12.1959 142.382 13.1415 143.257 13.5133C144.116 13.7937 145.087 14.1459 145.992 14.3546C147.059 14.6677 148.082 14.3742 149.172 14.2698C148.149 17.3155 147.244 20.4004 146.185 23.4396C145.643 24.9005 145.095 26.3548 144.843 27.8549C144.62 29.381 144.28 30.9071 143.827 32.3941C142.856 35.3485 142.048 38.329 141.804 41.3877C141.559 43.5269 141.144 47.2965 141.114 49.4161C141.063 49.9314 141.107 49.9248 141.441 50.3944L141.122 50.3357L141.626 49.977L141.715 49.9183L141.819 49.9444L144.198 50.5901L144.346 50.6292V50.7662L144.361 54.164V55.8663C144.361 56.1402 144.42 56.4467 144.28 56.7793C144.154 57.1119 143.724 57.288 143.368 57.3402C142.1 57.5554 140.862 57.8228 139.669 58.2206C138.491 58.638 137.327 59.075 136.393 59.8642L136.437 59.6555L136.593 59.9294L136.393 59.8381C139.336 59.512 142.234 58.8663 144.991 57.9076L144.873 58.0706L144.569 50.864L144.561 50.6618L144.791 50.6944C149.216 51.3923 153.723 50.9553 158.2 50.9749H158.378V51.1314L158.274 54.1119L158.222 55.5989L158.2 56.3424C158.2 56.6358 158.044 56.9163 157.748 57.1054C156.754 57.4837 154.049 58.5533 153.078 58.9185C152.633 59.0815 152.018 59.2968 151.647 59.6294L151.692 59.4468L151.84 59.7076L151.64 59.6359C153.582 59.1207 155.591 58.8598 157.399 58.1228L157.31 58.2859L157.266 58.1163L157.436 58.2272L155.984 58.3446L155.272 58.4033C156.028 58.025 157.103 57.3793 157.918 57.1054C158.719 56.9098 158.459 56.1337 158.556 55.5076C158.593 54.6988 158.741 52.3249 158.785 51.477C158.8 51.2096 159.052 50.9357 159.356 50.8836C160.157 50.8053 160.846 50.714 161.632 50.5901L161.602 50.8509C160.75 50.577 159.579 51.0988 158.808 50.4727L158.971 50.4922C158.682 50.6031 158.363 50.877 157.918 50.8575L156.836 50.877C154.723 50.8966 152.411 50.9683 150.313 50.9031C147.748 50.8901 145.295 50.1988 142.753 50.1009C141.871 49.9575 141.159 49.827 141.292 48.8422C141.337 48.2357 141.507 46.6183 141.581 45.9791C141.648 45.2226 142.034 41.8834 142.093 41.2182C142.397 39.529 143.027 36.3398 143.353 34.618L143.368 34.5202L143.479 34.5333L147.526 35.0615L147.645 35.0746C147.415 35.7659 147.178 36.4572 146.978 37.155C146.785 37.8072 146.644 38.4855 147.044 39.1051L146.866 39.1181C147.096 38.3094 147.356 37.5007 147.556 36.6855C147.704 35.9746 148.001 35.2767 148.253 34.5985C148.253 34.5267 148.193 34.4615 148.104 34.3963H148.201C148.052 34.468 147.956 34.5854 147.734 34.6311C147.526 34.6311 147.385 34.5985 147.207 34.5854L146.199 34.4811C145.525 34.4093 144.865 34.3506 144.176 34.2593C143.761 34.1941 143.687 33.7441 143.813 33.4506C143.976 32.9158 144.413 31.4223 144.576 30.8614C145.339 28.5788 145.251 26.1331 146.192 23.8765C146.829 22.0374 148.779 16.2329 149.401 14.4785C149.52 14.185 149.794 13.9698 150.091 13.8263C151.217 13.1937 152.307 12.4046 152.841 11.2959V11.2828H152.87C153.085 11.3415 153.33 11.472 153.53 11.3546C153.715 11.2241 153.841 11.035 153.99 10.8719C154.219 10.9763 154.546 11.0285 154.694 10.7872C154.842 10.5915 154.864 10.2915 155.131 10.1871C155.48 10.2328 155.82 10.3371 156.124 10.5002C157.088 10.885 158.222 10.8785 159.208 10.5654C159.541 10.4611 159.853 10.3111 160.149 10.148C161.12 9.73062 162.247 9.97845 163.277 10.0111L163.292 10.0176Z" fill="#202020"/>
<path d="M147.497 14.2239C149.164 14.0218 150.817 13.0826 151.647 11.7978C151.84 11.2174 152.218 9.74994 152.404 9.14341C152.604 8.20426 153.36 6.57379 153.056 5.67378C152.893 5.13898 152.374 4.6955 151.907 4.36288C151.655 4.19984 151.418 4.1281 151.143 4.18027C147.838 5.56943 144.984 8.11947 143.464 11.0608C143.109 12.9978 145.51 14.3087 147.497 14.2239ZM147.497 14.2239C145.466 14.3413 143.027 13.0304 143.286 11.0282C144.517 8.11947 147.037 5.75856 150.002 4.11505C151.247 3.36504 152.107 3.70418 152.982 4.68245C153.782 5.42595 153.641 6.61945 153.271 7.45424C152.967 8.32817 152.366 10.0891 152.07 10.9565C151.892 11.55 151.685 12.1695 151.121 12.5674C150.15 13.4283 148.89 14.1131 147.497 14.2239Z" fill="#202020"/>
<path d="M158.386 6.61291C157.303 5.75855 154.546 3.57373 153.523 2.72589C151.915 1.42804 147.178 3.29329 145.881 4.54548C145.785 4.65636 145.451 4.95636 145.362 5.06723C145.162 5.36724 145.214 5.73898 145.095 6.14334L144.717 5.8629C146.118 5.2368 146.652 5.15854 148.016 4.7281C148.312 4.57157 148.542 4.33026 148.713 4.0433L148.883 4.36287C148.609 4.3107 148.06 4.20635 147.786 4.15417L148.231 3.86069C149.973 2.65415 152.226 3.42372 154.005 4.09548C154.894 4.48679 155.91 4.67592 156.607 5.35419C157.266 6.06508 157.37 6.97162 157.948 7.64989L157.867 7.66293L158.386 6.61291ZM158.386 6.61291L157.956 7.69554L157.926 7.76076L157.874 7.70206C157.229 7.02379 157.051 6.10421 156.407 5.5042C156.103 5.19115 155.665 5.05419 155.213 4.8781C153.894 4.402 152.493 3.88678 151.114 3.67808C150.195 3.54764 149.261 3.73025 148.527 4.21939L148.431 3.82808C148.638 3.86721 149.113 3.952 149.32 3.9846C149.083 4.42157 148.794 4.85853 148.29 5.11941C147.92 5.33463 147.423 5.40637 147.097 5.48463C146.237 5.72594 145.333 6.20856 144.421 6.49552C144.68 5.88247 144.547 5.07375 145.118 4.59114C146.482 2.99328 151.855 0.886721 153.753 2.51066C154.761 3.37807 157.363 5.69985 158.378 6.61291H158.386Z" fill="#202020"/>
<path d="M159.89 9.61326C158.941 9.22847 157.941 8.94803 157.251 8.21106C156.517 7.58496 156.488 6.52842 155.761 5.92189C155.383 5.60884 154.798 5.31535 154.272 5.25013C154.22 5.26318 154.257 5.23709 154.212 5.30231C154.16 5.43275 154.16 5.67405 154.131 5.8958C154.101 6.78929 153.805 7.64366 154.034 8.53063L153.671 8.36106C153.849 8.28932 154.309 8.10019 154.479 8.03497C154.538 8.17845 154.865 8.98064 154.931 9.14368L154.65 9.01325C154.916 8.94151 155.272 8.74585 155.539 9.02629C156.028 9.50239 156.48 9.99153 157.177 10.2002C158.096 10.3567 159.134 10.1415 159.89 9.61978V9.61326ZM159.89 9.61326C159.171 10.2524 158.141 10.5654 157.103 10.4481C156.317 10.2785 155.739 9.72413 155.183 9.26108L155.154 9.24151C155.176 9.25456 155.191 9.26108 155.198 9.26108C155.079 9.30673 154.761 9.41108 154.568 9.45673C154.524 9.34586 154.16 8.52411 154.108 8.39367L154.449 8.51759L153.894 8.75237L153.582 8.88281C153.545 8.55019 153.441 8.26323 153.404 7.89149C153.478 6.91321 153.493 6.08493 153.723 5.11318C153.849 4.74795 154.383 4.72839 154.709 4.86534C155.739 5.15883 156.651 5.92841 156.851 6.8806C157.222 8.27628 158.578 8.94151 159.89 9.60021V9.61326Z" fill="#202020"/>
<path d="M164.989 27.5816L164.648 27.5033L164.678 27.4903C164.559 27.7316 164.411 28.0121 164.433 28.2794C164.411 29.1012 164.419 30.0077 164.27 30.8165C164.107 32.0034 163.9 33.1839 163.692 34.3643C163.522 34.3578 163.277 34.3513 163.107 34.3383C163.084 34.2274 162.966 33.6795 162.944 33.5556L163.455 33.5948C163.255 34.1165 163.07 34.6383 162.855 35.1535L162.477 34.86C162.832 34.7165 163.166 34.5339 163.574 34.3839C164.063 34.2535 164.181 34.2339 164.181 33.9209C164.344 31.7426 164.685 29.786 164.997 27.5751L164.989 27.5816ZM164.989 27.5816C164.937 29.6034 164.797 31.8599 164.671 33.9209C164.685 34.1165 164.619 34.41 164.374 34.573C164.144 34.7361 163.892 34.7557 163.759 34.8143C163.277 35.01 162.647 35.3361 162.128 35.5448C162.469 34.5796 162.914 33.5426 163.292 32.5839L163.462 33.4839L163.574 34.0904L163.336 33.9013H163.492L163.225 34.0969C163.44 32.9882 163.655 31.8795 163.907 30.7708C164.107 29.9751 164.167 29.0751 164.293 28.2664C164.293 27.986 164.478 27.712 164.648 27.4707L164.656 27.4512H164.671L164.997 27.5751L164.989 27.5816Z" fill="#202020"/>
<path d="M158.134 8.09952C158.808 8.43214 159.335 8.69301 160.009 8.89519C160.335 8.96693 160.454 8.90171 160.617 8.65388C160.736 8.4517 160.847 8.19083 160.936 7.96909C160.936 7.95604 160.936 7.94952 160.936 7.98213C160.936 8.05387 160.936 8.01474 160.913 7.93648L161.062 8.11909C160.409 7.85821 159.735 7.45386 159.105 7.23211C158.994 7.23211 158.971 7.20603 158.919 7.29081C158.742 7.56473 158.949 7.79299 159.045 8.07996C158.749 8.093 158.497 8.06691 158.134 8.09952ZM158.134 8.09952C158.341 8.06039 158.608 7.96909 158.897 7.91039L158.823 8.0343C158.608 7.81256 158.445 7.48647 158.579 7.17342C158.779 6.67776 159.475 6.87341 159.653 6.97776C160.313 7.23864 160.965 7.5256 161.61 7.81256L161.477 7.87126C161.469 7.87126 161.506 7.90387 161.492 8.06039C161.469 8.1517 161.462 8.14518 161.432 8.21039C160.706 10.2452 159.275 9.01258 158.149 8.09952H158.134Z" fill="#202020"/>
<path d="M144.162 57.3991C142.294 58.0578 140.544 58.6643 138.684 59.1991L138.862 58.8991L138.951 59.16L138.617 58.997C140.522 58.5665 142.449 58.2013 144.391 57.9143L144.347 57.9926L144.154 57.4056L144.162 57.3991ZM144.162 57.3991C144.265 57.5817 144.391 57.7904 144.503 57.9991C142.524 58.5926 140.522 59.0883 138.499 59.5187C138.462 59.4013 138.38 59.16 138.336 59.0361L138.261 58.8078C140.189 58.2665 142.234 57.7904 144.162 57.3926V57.3991Z" fill="#202020"/>
<path d="M158.386 39.0466C159.09 38.5705 159.801 37.6966 159.809 36.927L160.239 37.0313C159.616 37.5009 158.978 37.9509 158.304 38.3618L158.267 38.0814C158.504 38.2118 158.756 38.3422 158.986 38.4922C158.801 38.6748 158.608 38.7922 158.386 39.0466ZM158.386 39.0466C158.482 38.9031 158.571 38.6748 158.712 38.4466L158.756 38.5966C158.452 38.5118 158.133 38.3944 157.83 38.3031C158.578 37.6313 159.394 37.0118 160.231 36.4248L160.328 36.777C160.424 37.1422 160.29 37.3835 160.179 37.6183C159.809 38.2574 159.193 38.8705 158.393 39.0531L158.386 39.0466Z" fill="#202020"/>
<path d="M159.645 6.67172C160.401 6.88694 160.965 6.9652 161.469 7.16086L161.18 7.19346L161.387 7.0239L161.328 7.3239C161.157 7.06955 161.12 6.84128 160.935 6.65867C160.579 6.35214 160.06 6.50867 159.638 6.67172H159.645ZM159.645 6.67172C160.046 6.07171 161.106 5.90866 161.528 6.58693C161.699 6.85433 161.773 7.04346 161.906 7.27825L161.743 7.39564C161.661 7.45434 161.469 7.59782 161.387 7.65652C160.728 7.39564 160.046 6.94563 159.638 6.67824L159.645 6.67172Z" fill="#202020"/>
<path d="M164.33 27.2741C164.567 27.1436 164.731 27.0132 164.679 26.7588C164.582 26.0675 164.375 25.3632 164.286 24.6588L164.834 24.6458C164.753 25.5458 164.516 26.3219 164.33 27.2741ZM164.33 27.2741C164.145 25.8458 164.33 23.7523 164.456 22.2783L164.827 24.5936C164.931 25.3175 165.064 26.0414 164.953 26.7784C164.923 27.0523 164.634 27.2675 164.33 27.2741Z" fill="#202020"/>
<path d="M154.846 14.8248C152.927 16.9313 151.348 19.1814 150.984 21.9466C150.91 21.9336 150.829 21.9206 150.747 21.9075C150.747 21.4575 150.614 20.9684 150.77 20.5705C151.214 19.4422 151.652 18.2879 152.334 17.2705C153.275 15.8617 154.439 14.5639 155.521 13.2334C155.988 12.6595 156.596 12.2291 157.626 12.0986C155.654 13.4878 155.232 15.4574 154.468 17.2379C153.905 18.5553 153.438 19.9314 153.216 21.3205C152.904 23.2706 153.438 25.1358 154.513 26.8772C154.839 27.412 155.15 27.9533 155.521 28.5728C154.105 27.875 152.356 24.5684 152.504 21.8814C152.637 19.3575 153.779 17.1074 154.839 14.8248H154.846Z" fill="#202020"/>
<path d="M154.846 14.8244C152.964 16.9375 151.385 19.3897 151.118 22.1028C150.97 22.0767 150.747 22.0441 150.599 22.0245C150.599 21.4962 150.414 20.8767 150.681 20.368C151.451 17.8962 153.075 15.757 154.817 13.7417L155.321 13.1287C155.825 12.4504 156.699 11.9678 157.611 11.8765L158.538 11.7656C156.862 12.7374 155.877 14.2178 155.291 15.9266C153.112 21.0658 152.371 23.5311 155.743 28.4746L156.121 29.1464L155.424 28.7485C154.172 27.979 153.601 26.7724 153.067 25.5854C152.6 24.405 152.304 23.1593 152.371 21.8941C152.526 19.3832 153.742 17.0875 154.854 14.8244H154.846ZM154.846 14.8244C153.831 17.1005 152.741 19.4353 152.66 21.9071C152.704 24.2028 153.549 26.9159 155.647 28.3898L155.328 28.6638C154.572 27.3529 153.631 26.0615 153.208 24.568C152.741 23.0941 152.823 21.5093 153.223 20.0419C153.571 18.5679 154.231 17.1788 154.78 15.77C155.321 14.3418 156.092 12.8743 157.485 11.9221L157.678 12.32C156.492 12.4113 155.847 13.1678 155.209 13.9896C153.475 15.9853 151.822 18.0331 151.007 20.4658C150.769 20.9027 150.91 21.3788 150.91 21.9071L150.784 21.7702L151.014 21.8093L150.836 21.9267C151.199 19.2266 152.912 16.8592 154.846 14.8244Z" fill="#202020"/>
<path d="M143.559 22.07C143.136 24.1961 142.328 26.2244 143.062 28.4549C144.967 29.4462 147.087 28.8723 149.303 28.3636C147.939 29.6288 144.596 29.6745 143.396 29.1201C142.684 28.794 142.336 28.2723 142.232 27.6201C141.943 25.7222 142.387 23.9287 143.277 22.207C143.299 22.1613 143.396 22.1483 143.559 22.0635V22.07Z" fill="#202020"/>
<path d="M143.559 22.07C143.255 24.157 142.506 26.3418 143.269 28.4027L143.173 28.2919C144.063 28.7353 145.108 28.8527 146.138 28.7419C147.168 28.6375 148.191 28.3766 149.229 28.1288L150.178 27.9071C149.54 28.5527 148.71 29.2049 147.761 29.4006C145.997 29.7854 143.373 30.0528 142.291 28.4419C141.528 26.5766 142.128 24.4505 142.988 22.6896C143.055 22.6048 143.225 22.1678 143.336 22.1483C143.41 22.1222 143.484 22.0961 143.551 22.0635L143.559 22.07ZM143.559 22.07C143.21 22.1483 143.21 22.4809 143.077 22.7222C142.41 24.4374 141.928 26.5375 142.684 28.2658C143.759 29.831 147.791 29.3419 149.103 28.2005L149.37 28.5984C147.309 29.0614 144.826 29.7201 142.877 28.5788C142.15 26.3875 142.995 24.1896 143.559 22.07Z" fill="#202020"/>
<path d="M147.116 34.4617C147.094 34.2921 147.072 34.129 147.064 34.0769C147.902 34.2008 148.777 34.4486 149.644 34.416C150.637 34.3769 151.616 34.0769 152.601 33.9073C152.853 33.8616 153.12 33.8812 153.372 33.8682C153.276 34.0508 153.165 34.2334 153.083 34.429C153.024 34.566 153.024 34.729 152.95 34.8595C152.839 35.0617 152.698 35.2443 152.564 35.4399C152.498 35.4138 152.424 35.3878 152.357 35.3617C152.379 35.1138 152.401 34.8725 152.416 34.6638C151.349 34.7617 150.304 34.9443 149.258 34.9247C148.532 34.9117 147.813 34.6117 147.094 34.4356L147.116 34.4551V34.4617Z" fill="#202020"/>
<path d="M147.116 34.4608C147.093 34.3043 147.042 34.1739 147.012 34.0369H147.064C148.109 34.1282 149.154 34.3891 150.192 34.1804C151.437 33.9456 152.49 33.5738 153.794 33.5999C153.698 33.7825 153.513 34.1608 153.416 34.3499C153.253 34.6304 153.29 34.8978 153.053 35.1717C152.964 35.2891 152.756 35.6217 152.675 35.7326L152.46 35.6543C152.364 35.6152 152.164 35.5434 152.067 35.5108C152.075 35.4065 152.141 34.7673 152.156 34.65L152.438 34.8913C151.118 34.963 149.658 35.2826 148.354 34.8847C147.953 34.7739 147.405 34.526 147.108 34.4608H147.116ZM147.116 34.4608C147.857 34.5326 148.85 34.9108 149.717 34.7739C150.696 34.7021 151.689 34.5 152.69 34.4086C152.69 34.5913 152.63 35.1847 152.623 35.3804L152.46 35.1456L152.668 35.2239L152.334 35.3217L152.571 34.9565C152.727 34.7543 152.734 34.6304 152.801 34.3891C152.875 34.226 153.038 33.926 153.12 33.7695L153.379 34.1086C152.868 34.0826 152.319 34.1869 151.845 34.2847C150.259 34.7282 148.598 34.5847 147.049 34.1086C147.138 33.9847 147.079 34.376 147.108 34.4608H147.116Z" fill="#202020"/>
<path d="M148.628 27.9918C148.502 26.0874 148.999 24.2678 149.607 22.4678C149.696 22.4808 149.777 22.4873 149.866 22.5004C149.577 24.3461 149.295 26.1918 149.006 28.044C148.88 28.0244 148.754 28.0114 148.621 27.9918H148.628Z" fill="#202020"/>
<path d="M148.628 27.9913C148.279 26.0478 148.776 24.0521 149.413 22.1934L149.651 22.226C149.784 22.2455 150.051 22.2781 150.177 22.2912L150.14 22.5325C149.851 24.3912 149.502 26.25 149.035 28.0826L148.998 28.0761L148.62 27.9913H148.628ZM148.628 27.9913L149.013 28.0109C148.984 26.3543 149.354 24.2608 149.591 22.4673L149.829 22.7412L149.569 22.7021L149.873 22.5325C149.25 24.3195 148.702 26.1065 148.628 27.9913Z" fill="#202020"/>
<path d="M143.699 21.6787C145.144 22.7744 146.849 22.6896 148.739 22.5592C146.842 23.5244 144.789 23.2374 143.699 21.6787Z" fill="#202020"/>
<path d="M143.699 21.6787C145.522 22.807 147.85 22.3439 149.933 22.2265L148.873 22.7679C147.183 23.7396 144.529 23.4396 143.691 21.6787H143.699ZM143.699 21.6787C144.84 23.0613 147.012 23.2244 148.598 22.3505L148.761 22.8005C147.049 22.9374 144.929 22.9179 143.699 21.6787Z" fill="#202020"/>
<path d="M137.599 39.5288C139 40.318 140.223 40.2854 141.201 38.8701C141.238 39.6071 140.808 40.2919 140.223 40.4745C139.111 40.8136 138.34 40.2723 137.606 39.5288H137.599Z" fill="#202020"/>
<path d="M137.599 39.5286C139.63 40.3894 140.445 39.646 141.424 38.0938L141.476 38.8633C141.527 41.159 138.711 41.3612 137.606 39.5286H137.599ZM137.599 39.5286C138.822 40.6764 140.897 40.8329 140.927 38.8829L141.431 39.0003C140.556 40.3634 138.896 40.5981 137.599 39.5286Z" fill="#202020"/>
<path d="M19.6367 52.8585C19.4232 52.7752 19.1972 52.5004 19.0056 52.0911C18.7135 51.4672 18.7114 51.4342 18.9094 50.5503C19.0206 50.0535 19.1462 49.0465 19.1885 48.3125C19.2307 47.5784 19.3168 46.5203 19.3799 45.961C19.9439 40.9542 20.1723 35.6231 20.0305 30.7719C19.8828 25.7221 19.5451 22.9002 19.0668 22.7203C18.3947 22.4676 16.6777 23.842 15.5805 25.5108C13.8451 28.1504 11.4046 33.7687 10.4242 37.3814C9.59906 40.4221 8.66717 42.8799 8.0949 43.5248C7.48601 44.211 6.20621 43.7599 5.98727 42.7819C5.80761 41.9794 6.10832 37.5653 6.548 34.5509C6.68991 33.578 6.70261 29.9358 6.56527 29.5959C6.49394 29.4193 6.36092 29.5448 5.92357 30.2012C5.62013 30.6567 5.19631 31.4049 4.98176 31.8639C4.45226 32.9967 3.48571 35.946 3.23602 37.1907C3.12383 37.75 2.94793 38.5508 2.84513 38.9702C2.74233 39.3897 2.33932 41.2486 1.94956 43.1011C1.06594 47.3011 1.06781 47.2956 0.51317 47.2956C0.27808 47.2956 0.0591008 47.2241 0.0265538 47.1367C-0.111533 46.766 0.318406 42.0408 0.63662 40.4319C1.44763 36.3314 1.80282 34.9758 2.5682 33.0598C2.74972 32.6054 2.96106 31.9936 3.03784 31.7002C3.1644 31.2166 3.4397 30.6865 4.34511 29.1831C4.51352 28.9035 4.68362 28.6461 4.72311 28.6111C4.76261 28.5762 4.94033 28.3308 5.11806 28.0658C5.75375 27.1181 7.11161 26.4785 7.58905 26.9019C8.08368 27.3405 8.4895 28.1903 8.4895 28.7874C8.4895 29.1042 8.54623 29.7804 8.61556 30.2901C8.68489 30.7998 8.77772 31.7174 8.82182 32.3294C8.90301 33.4557 9.05842 33.6688 9.21236 32.8647C9.25873 32.6225 9.34126 32.4243 9.39574 32.4243C9.45023 32.4243 9.53129 32.2455 9.57588 32.0271C9.62046 31.8086 9.81035 31.2796 9.99783 30.8514C10.1853 30.4232 10.4267 29.8726 10.5343 29.628C10.6418 29.3833 10.9262 28.7739 11.1662 28.2738C11.4063 27.7737 11.6027 27.3312 11.6027 27.2906C11.6027 26.997 14.688 22.4779 15.3745 21.766C15.9133 21.2074 17.1502 20.4764 17.5568 20.4764C17.678 20.4764 17.8426 20.4122 17.9226 20.3338C18.1159 20.1445 19.8048 20.2468 19.8746 20.4521C19.903 20.5354 20.036 20.6035 20.1702 20.6035C20.5171 20.6035 21.2996 21.3152 21.6116 21.9145C21.7574 22.1945 21.9576 22.9139 22.0566 23.5132C22.4735 26.0364 22.6262 39.9344 22.2656 42.5292C22.1879 43.0884 22.0594 44.3468 21.98 45.3255C21.9006 46.3042 21.7614 47.9629 21.6706 49.0115C21.5121 50.8406 21.5158 50.9328 21.7598 51.279C21.9866 51.6008 21.9968 51.6971 21.8539 52.1687C21.7658 52.4596 21.6342 52.7691 21.5615 52.8565C21.4033 53.0466 20.1222 53.048 19.6367 52.8585Z" fill="#66AD00"/>
<path d="M51.0815 50.1243C50.66 50.0635 50.0565 49.9226 49.7404 49.8112C49.4243 49.6998 49.094 49.6078 49.0065 49.6067C48.6844 49.6029 46.9741 48.7207 46.3169 48.2193C44.8913 47.1317 44.0502 45.8297 43.42 43.7348C43.1106 42.7061 43.07 42.3604 43.064 40.703C43.0565 38.6456 43.2158 37.4296 43.6978 35.8651C44.8625 32.0844 46.5002 29.3461 49.1933 26.6765C50.5486 25.333 51.7818 24.445 53.3643 23.6729C54.6614 23.0401 54.8004 23 55.4717 23.065C56.6281 23.177 57.2054 23.4205 57.2508 23.8155C57.2988 24.2325 56.9639 24.4677 56.0174 24.6816C55.6412 24.7667 55.1725 24.952 54.9759 25.0934C54.7792 25.2349 54.5554 25.3506 54.4784 25.3506C54.4014 25.3506 54.3384 25.4086 54.3384 25.4796C54.3384 25.5506 54.2644 25.6086 54.174 25.6086C54.0835 25.6086 53.8105 25.7804 53.5673 25.9904C53.3241 26.2004 53.0546 26.3746 52.9684 26.3774C52.7892 26.3834 49.9626 29.2161 49.494 29.8593C47.9193 32.0207 46.69 34.6717 45.9592 37.4818C45.4957 39.2645 45.4765 41.0142 45.9021 42.7027C46.6618 45.7165 47.7796 46.758 51.2502 47.686C52.7847 48.0963 54.226 48.0577 56.7013 47.5399C57.0526 47.4665 57.498 47.4412 57.6912 47.4838C57.991 47.5498 58.0424 47.6258 58.0424 48.0024C58.0424 48.2603 57.9439 48.5433 57.8054 48.6832C57.4621 49.0299 56.1956 49.6235 55.1048 49.949C54.371 50.1679 52.0769 50.2679 51.0815 50.1243Z" fill="#66AD00"/>
<path d="M77.4684 48.8378C77.1746 48.3504 77.1395 46.9262 77.379 45.2112C77.4578 44.6463 77.5887 43.5776 77.6698 42.8362C77.7509 42.0949 77.9813 40.3618 78.1818 38.9849C78.3822 37.6081 78.6694 35.2685 78.8198 33.7857C78.9702 32.303 79.1462 30.8075 79.2108 30.4625C79.2754 30.1175 79.3283 29.5606 79.3283 29.225C79.3283 28.3296 79.6903 26.5498 80 25.9227C80.2353 25.4462 80.3227 25.3771 80.6901 25.3771C81.2497 25.3771 81.3707 25.6317 81.5368 27.1588C81.6397 28.1049 81.6243 29.1448 81.471 31.6033C81.361 33.3685 81.2859 34.8282 81.3043 34.8471C81.3226 34.866 81.5046 34.7942 81.7086 34.6874C81.9126 34.5807 82.1707 34.493 82.2821 34.4926C82.3936 34.4922 82.5265 34.4499 82.5774 34.3988C82.6284 34.3476 83.2571 34.1822 83.9744 34.0312C84.6917 33.8802 85.7105 33.6343 86.2384 33.4848C88.3005 32.9006 88.8712 32.7312 89.1176 32.6303C89.2584 32.5727 89.6615 32.4147 90.0134 32.2793C93.1254 31.0816 94.94 29.4458 94.94 27.8381C94.94 27.0652 94.503 26.5059 93.2307 25.6503C90.8503 24.0495 88.9172 23.4249 85.5606 23.1723C83.2401 22.9976 81.4808 23.1333 79.5634 23.6349C77.7784 24.1018 77.0478 24.4655 76.2265 25.2959C75.4861 26.0447 75.0527 26.2021 74.9165 25.7716C74.7293 25.1799 75.7202 23.8374 76.7263 23.3197C76.9257 23.2171 77.348 22.9851 77.6647 22.8042C78.8894 22.1046 80.2734 21.7125 82.8473 21.336C84.8002 21.0503 88.0907 21.1437 89.8854 21.5356C92.6231 22.1336 95.2395 23.58 96.3512 25.11C97.0799 26.113 97.349 26.8828 97.3614 28.0004C97.3714 28.8985 97.0481 30.3837 96.8426 30.3837C96.7815 30.3837 96.7315 30.4476 96.7315 30.5257C96.7315 30.8413 95.8828 31.7077 94.7096 32.5897C93.7577 33.3053 93.1403 33.6523 92.0608 34.0781C91.2866 34.3835 90.4804 34.7117 90.2693 34.8076C89.5018 35.156 85.9853 35.7226 83.7857 35.8523C82.5573 35.9247 82.2005 35.9033 81.7722 35.7314C81.1547 35.4835 81.2079 35.3669 80.991 37.4444C80.9136 38.1858 80.6786 40.0055 80.4687 41.4883C80.2588 42.971 80.0333 44.8774 79.9677 45.7247C79.833 47.4633 79.6559 48.5413 79.4351 48.9662C79.3044 49.2178 79.1843 49.255 78.5025 49.255C77.7565 49.255 77.7082 49.2355 77.4684 48.8378Z" fill="#FF0000"/>
<path d="M122.506 49.1849C122.003 49.1263 121.439 49.0209 121.254 48.9507C120.905 48.8185 119.955 48.617 118.975 48.4672C118.473 48.3905 116.917 47.6842 115.728 46.9937C114.77 46.437 113.574 44.9653 113.107 43.7666C112.432 42.0377 112.169 39.8573 112.453 38.3474C112.849 36.2456 114.259 32.9075 115.642 30.7998C116.027 30.2119 116.87 29.0504 117.515 28.2185C118.63 26.7802 118.781 26.64 120.6 25.3611C121.652 24.6215 122.914 23.7143 123.405 23.3451C124.78 22.3118 125.374 22.012 125.81 22.1309C126.072 22.2024 126.188 22.3212 126.214 22.5445C126.258 22.9294 125.679 23.5976 123.923 25.1868C121.808 27.1007 121.687 27.213 121.042 27.8783C118.603 30.3923 116.797 33.1479 115.788 35.8946C115.061 37.8732 114.68 39.903 114.85 40.8918C114.999 41.7565 115.364 43.0033 115.468 43.0033C115.515 43.0033 115.616 43.1444 115.692 43.3169C115.902 43.7891 117.341 44.9501 118.374 45.4792C120.928 46.7882 122.983 47.1395 129.183 47.3272C130.63 47.371 131.856 47.4332 131.908 47.4653C132.062 47.5617 132.014 47.9924 131.827 48.1848C131.731 48.2837 130.956 48.4972 130.104 48.6593C129.253 48.8214 128.36 49.011 128.119 49.0806C127.539 49.2479 123.667 49.3198 122.506 49.1849Z" fill="#FF0000"/>
</svg>
