<?xml version="1.0" encoding="UTF-8"?>
<svg id="Calque_1" data-name="Calque 1" xmlns="http://www.w3.org/2000/svg" xmlns:xlink="http://www.w3.org/1999/xlink" viewBox="0 0 512 512">
  <defs>
    <style>
      .cls-1, .cls-2 {
        fill: #fff;
      }

      .cls-1, .cls-3 {
        stroke: #000;
        stroke-miterlimit: 10;
        stroke-width: 10px;
      }

      .cls-3 {
        fill: none;
      }

      .cls-4 {
        clip-path: url(#clippath);
      }
    </style>
    <clipPath id="clippath">
      <circle class="cls-1" cx="256" cy="261.37" r="255.89"/>
    </clipPath>
  </defs>
  <circle class="cls-2" cx="256" cy="261.37" r="255.89"/>
  <g class="cls-4">
    <g>
      <g>
        <path d="M469.87,282.97c-19.54-.6-42.1-6.33-59.87,3.86-30.71,21.35-61.75,11.97-92.34.25-7.62,3.16-4.3,22.46-21.06,14.69q-9.43,13.1-21.11,8.75c-11.25,26.3-32.98,42.31-56.19,57.11-4.11,2.62-7.33,8.22-8.81,13.1-31.58,106.69-70.59,211.39-82.61,322.63-5.06,25.9-12.51,51.37-19.76,76.78-2.51,8.8-2.07,15.55,7.51,17.01,19.19.49,57.45,13.22,72.01,2.61,4.39,3.78,4.1,5.6,1.13,12.71-11.22,29.95-14.26,57.13-23.63,89.15-8.42-17.88-7.61-23.16,10.32-84.72-24.02-3.53-48.16-7.08-75.68-11.13-18.78,93.47-30.96,195.65-37.3,292.39-2.15,26.64-1.11,28.67,24.94,33.68,42.59,1.68,84.49,13.94,126.79,16.43,52.42,2.07,105.01.28,157.52-.57,5.45-.09,10.83-4.77,16.68-7.53,15.03,12.85,34.1.93,51.35,7.47-14.78,6.14-51.12-1.95-50.99,19.18-1.65,32.86-3.79,65.7-4.74,98.58-.3,10.33-1.76,16.67-12.98,20.68-11.96,4.28-22.6,12.22-37.43,20.61,11.98-1.09,19.6-1.78,27.21-2.47.29,1.2.57,2.4.86,3.6-34.49,15.89-72.05,21.42-108.02,32.3-.94-1.85-1.89-3.7-2.83-5.55,34.15-23.66,76.34-34.3,113.33-53.4,15.84-7.96,7.17-100.25,10.95-124.78-80.9-.66-164.97,9.39-251.23-5.83,1.93,51.4,3.8,101.05,5.76,153.02-51.01,20.28-105.46,34.19-161.57,41.35-.99-1.92-1.97-3.84-2.96-5.77,36.02-32.18,84.45-44.65,130.57-54.31,13.16-2.52,17.68-7.35,17.13-21.67-1.43-37.51-.48-75.11-.48-114.56-12.88-3.94-28.7-8.79-44.49-13.62-3.12,2.52-6.26,5.04-9.39,7.57-14.61-20.29-3.05-62.46-3.79-87.79,8.74-96.07,15.18-192.67,44.43-285.22,9.62-33.76,16.94-68.5,21.49-103.29,20.06-97.73,55.65-190.9,79.69-287.74-35.79,10.21-69.22-2.27-102.17-15.55-43.21-17.18-5.25-71.23,1.04-102.04-84.53-22.34-38.94-144.34-11.64-99.93-15.94,2.37-23.83,10.94-25.43,27.62-6.49,38.8,20.37,69.91,53.3,55.07,14.54-18.77,30.78-33.78,48.15-50.41-15.53,7.77-50.46,33.64-47.65-1.36.76-9.16,3.75-20.56,9.99-26.38,14.69-13.69,30.68-27.11,48.42-36.15,28.6-14.56,59.92-22.83,92.35-21.82,30.52,4.11,47.19,31.41,70.57,51.45,3.24-30.91,3.35-59.89,21.71-83.47,1.81-.12,3.62-.25,5.42-.37,15.29,32.02-26.6,87.03-7.67,100,15.9,13.08,27.69,32.51,52.17,20.94,20.23-8.97,36.24,3.96,38.85,25.79.48,4,5.04,8.26,8.78,10.91,13.5,8.27,39,5.03,39.53,26.66-.31,26.98-4.98,32.2-29.42,39.17,15.74,66.59,39.61,132.03,35.11,201.63-1.66,32.37-2.86,65.93,3.93,97.17,8.79,47.03,5.23,92.85.31,139.78-12.51,137.27-16.68,279.42-44.41,413.06-1.15-12.17-2.29-24.34-3.51-37.2-58.82,15.56-115.92,38.13-178.15,30.2,58.67-1.34,114.26-20.59,170.65-34.85,3.68-.99,7.88-7.22,8.46-11.48,11.86-86.2,22.2-172.05,31.06-258.73-10.56,1.14-10.11,1.11-9.4,13.31.41,7.11-.89,14.32-1.51,22.67-52.24-19.96-45.77,39.23-71.24,16.04-34.42,38.68-148.2,107.09-150.69,11.52,1.07-29.28,1.94-58.57,3.41-87.82.2-3.99,3.42-7.82,5.24-11.72l-.4-.44c12.84,36.61-3.97,75.28,4.64,112.95,6.73,42.81,54.37,15.97,82.74,9.83-17.77-9.28-17.08-9.48-9.3-25.02,6.87-13.72,11.54-28.53,18.55-46.34-9.16,1.71-13.64,2.54-18.12,3.38-.31-.91-.61-1.82-.92-2.73,9.94-4.77,19.88-9.55,31.86-15.3-2.98,12.2-5,20.46-7.85,32.13,13.37-9.56,24.44-15.09,26.73-30.18,1.37-22.98,30.37-25.52,36.5-44.53,3.83-111.78,30.17-226.35,4.75-336.79,41.91,54.23,15.39,296.63-3.03,367.34-1.04-2.63-2.08-5.26-3.62-9.15-6.55,4.39-12.56,8.42-18.79,12.59,14.98,13.88,17.22,29.68,10.04,53.41,12.34-19.57,27.3-25.55,50.56-27.17-17.25-75.61-36.52-.75,1.29-103.44,8.59-34.53,3.16-71.36,4.75-106.4,10.31-71.09-17.86-138.3-14.05-209.1,16.25,33.96,24.06,69.43,21.5,107.1,1.98-.21,3.96-.42,5.95-.63-3.58-78.84-18.01-151.99-27.33-231.1-94.27,28.88-114.2,114.79-153.34,193.42-1.21-.34-2.42-.68-3.63-1.02,1.2-6.53,2.41-13.07,3.47-18.82-33.54,7.35-126.34,43.54-120.07-20.71,20.26,50.12,73.98,17.83,110.5,14.66,10.55-1.74,15.81-7.27,19.02-17.18,24.63-65.03,64.78-148.16,143.76-152.82-2.01-5.89-3.75-10.99-5.52-16.16,4.33-3.74,8.72-7.53,13.1-11.32,4.83-2.93,13.96-6.31,13.71-8.7.59-24.22-19.67-28.78-38.72-33.44-5.34,10.48-9.87,19.39-15.17,29.8,14.02,4.36,27.27,8.47,40.51,12.59ZM174.62,372.39c24.43-1.13,66.51-25.27,79.2-52.66,7.62-36.85,48.55-121.71,18.36-148.89-15.61-17.16-24.3-22.81-44.74-10.73-53.28,34.22-122.81,92.96-129.97,158.72,6.05,31.6,35.03,53.81,77.15,53.56ZM378.19,210.68c-29.53-22.96-79.7-90.65-112.53-95.29-47.3-1.63-137.95,29.05-140.95,84.15,18.5-7.84,31.99-16.21,46.56-19,14.78-2.84,23.7-9.62,30.32-22.25-3.38-.71-6.01-1.25-10.5-2.19,46.7-31.75,94.96,2.92,139.13,19.71,23.78,11.25,24.76,39.98,39.06,57.51,3.1-7.87,6.02-15.27,8.92-22.63ZM406.27,274.43c-26.48-12.43-53.45-28.32-60.29-56.51-6.06-21.51-17.04-31.08-35.52-38.69-12.34-5.08-15.56-2.04-16.29,9.94-.71,20.86-6.95,42.17-1.96,62.8,5.14-2.44,7.77-3.69,10.4-4.93,2.49,6.74,4.97,13.49,6.91,18.75,13.34-8.52,17.32,6.73,26.52,13.02,20.95,18.37,48.58,13.35,70.23-4.38ZM501.6,656.08c-2.09-.69-4.18-1.38-6.26-2.07-10.22,18.52-5.11,40.77-9.19,60.92-3.72,26.87-8.6,53.58-13,80.35-.96-.05-1.91-.11-2.87-.16-.58-3.36-1.17-6.73-2.23-12.84-4.02,11.66-7.09,20.56-11.38,33.01,13.53-10.53,34.4-8.09,34.33-24.98,2.59-44.77,7.26-89.49,10.6-134.24ZM373.45,242.28c24.45,18.16,50.77,38.58,57.1-4.16-13.99-6.77-60.42-37.48-42.59,1.95-4.96.76-8.33,1.27-14.51,2.21ZM112.33,1289.51c-35.49,11.4-69.73,22.39-103.96,33.39.55,1.83,1.11,3.66,1.66,5.49,35.65-8.95,71.31-17.91,106.98-26.87-1.69-4.35-2.85-7.32-4.68-12.02ZM378.1,899.63c16.59-6.65,35.17-35.59,31.42-46.65-11.33,9.47-22.46,18.76-35.21,29.42,5.33,2.62,8.57,4.22,11.7,5.76-2.01,2.92-4.05,5.88-7.91,11.46ZM401.67,211.97c11.63,5.43,21.79,10.17,31.94,14.91,1.34-1.16,2.67-2.33,4.01-3.49-5.33-17.72-19.71-26.02-35.95-11.42ZM489.27,649.59q11.41-4.8,4.22-56.2c-1.41,18.73-2.81,37.46-4.22,56.2Z"/>
        <g>
          <path d="M469.87,282.97c-15.16-.49-30.42-3.73-45.56-1.14-4.99.87-9.9,2.48-14.29,5.02-6.64,4.57-13.98,8.18-21.77,10.31-23.82,6.68-48.37-1.52-70.61-10.02-4.47,2.47-5.04,8.44-7.68,12.55-2.91,5.36-8.78,4.29-13.38,2.15-3.43,4.32-7.56,13.53-14.81,10.91-2-.86-4.66-1.2-6.2-2.19-3.6,8.23-8.33,15.98-14.13,22.86-11.55,13.87-26.49,24.32-41.57,33.99-7.88,4.86-9.65,15.01-12.21,23.2-30.91,103-67.85,205.29-79.53,312.79-4.72,24.03-12.06,50.06-18.85,73.7-2.56,7.91-4.85,18.49,6.36,19.78,18.29,1.03,36.07,6.77,54.45,6.76,6.09-.07,12.51-.76,17.57-4.25.91.79,1.8,1.6,2.53,2.6,2.31,2.91.33,6.84-.79,9.76-1.6,4.13-3.02,8.33-4.38,12.55-8.03,25.42-12,51.87-19.56,77.43,0,0-.26.89-.26.89l-.39-.84c-1.54-3.31-3.03-6.68-3.99-10.24-2.93-10.79.14-21.99,2.53-32.55,2.77-12.08,8.36-30,11.73-42.19,0,0,.31.48.31.48l-75.69-11.1.46-.32c-16.86,84.72-27.72,170.56-34.6,256.64-1.13,14.35-2.1,28.72-3.1,43.07-.22,4.46-.49,8.94.54,13.28,2.78,10.17,16.23,10.31,24.43,12.48,38.11,1.54,75.13,11.33,112.92,15.25,37.81,3.2,75.92,1.98,113.85,1.64,0,0,37.99-.73,37.99-.73l19-.34c6.36-.12,11.34-4.96,16.98-7.49,0,0,.33-.15.33-.15l.28.24c10.54,9.25,25.22,5.29,37.96,5.21,4.94-.02,9.98.73,14.61,2.67-4.93,2.12-10.26,2.76-15.45,3.16-11.26,1.57-33.6-.97-36.36,13.65-1.29,24.73-3.62,74.61-4.83,99.3.24,22.33-9.69,19.67-26.35,28.93-8.22,4.64-16.15,9.87-24.43,14.53l-.35-1.11,27.21-2.47.52-.05.12.51.86,3.6.11.48c-34.49,16.01-72.42,21.64-108.54,32.55,0,0-.49.15-.49.15l-.23-.46-2.83-5.55-.24-.48c34.9-24.32,77.19-34.56,114.41-54.17,15.12-13.1,6.01-99.86,10.03-123.91-79.35,1.69-168.92,9.1-250.71-5.06,0,0,.8-.7.8-.7.13.21,5.7,153.26,5.8,153.52-52,20.72-106.7,34.5-162.2,41.6l-.5.06-.23-.45-2.96-5.77-.25-.5.42-.37c18.08-16.2,39.87-27.68,62.48-36.02,22.67-8.38,46.27-13.84,69.82-18.78,2.9-.63,5.76-1.47,8.29-2.88,8.52-4.92,6.78-15.35,6.63-23.91-.8-22.92-.43-84.31-.29-108.42,0,0,.54.73.54.73l-44.49-13.62.71-.14-9.39,7.57-.64.52c-9.04-12.92-8.34-29.46-7.62-44.44,9.39-112.89,14.98-227.79,49.49-336.53,8.71-31.72,15.33-64.01,19.61-96.62,20.03-97.67,55.69-191.16,79.66-287.78l1.08,1.05c-17.83,5.21-36.9,4.62-54.81.55-13.49-3-26.5-7.66-39.32-12.7-29.27-9.15-34.16-26.4-26.03-54.61,4.94-17.64,13.79-34.07,17.91-51.85,0,0,.65,1.05.65,1.05-12.95-3.41-25.42-10.04-34.23-20.41-8.91-10.25-13.74-23.58-14.83-36.97-1.14-16.57,1.88-34.66,12.76-47.78,4.52-5.34,12.66-8.66,18.84-3.82,3.27,2.35,5.58,5.54,7.57,8.88-7.05.92-14.36,3.2-19.09,8.57-4.47,4.98-6.28,11.8-6.94,18.5-4.06,22.24,4.76,51.43,29.18,57.04,7.11,2.15,17.35-.7,22.46-2.69,14.29-18.53,31.46-34.46,48.23-50.52l1.08,1.53c-10.52,4.63-37.41,25.62-46.86,12.08-4.3-8.55-1.94-18.74.34-27.54,1.59-5.03,3.86-10.08,7.86-13.89,37.05-37.14,88.58-59.85,141.38-58.18,31.08,4.08,49.08,32.93,71.18,51.67,0,0-1.63.65-1.63.65,3.05-28.77,3.22-60.59,22.18-84.33,0,0,.45-.03.45-.03l5.42-.37.68-.05.29.61c7.42,16.67,1.64,35.09-3.15,51.54-2.55,8.31-5.43,16.51-7.54,24.85-1.37,6.02-2.98,12.68-.88,18.61.75,1.88,2,3.47,3.63,4.64,7.74,6.35,14.23,14.01,22.36,19.36,8.06,5.72,18.47,6.27,27.32,2.02,4.53-1.94,9.58-3.61,14.74-3.49,10.57-.15,19.73,7.54,23.61,17.01,2.21,4.21,2.68,10.07,3.86,14.3,1.99,4.12,6,7.5,10.07,9.59,21.95,8.94,41.48,5.28,37.22,37.01-.53,10.64-5.1,20.46-15.48,24.47-4.6,2.1-9.39,3.55-14.17,4.94l.7-1.19c8.23,34.8,18.61,69.11,26.08,104.19,5.58,26.28,9.57,53.1,9.52,80.03-.4,26.69-3.01,53.78-1.12,80.44.72,17.95,5.25,35.28,7.42,53.09,4.36,35.71,2.29,71.77-1.19,107.37-13.9,142.39-16.88,286.37-45.87,426.94,0,0-1.19,5.76-1.19,5.76l-.55-5.86-3.5-37.2,1.1.77c-43.88,11.58-87.27,27.34-132.88,31.05-15.17,1.24-30.48,1.07-45.6-.85l.09-1.7c37.5-.94,74.33-9.13,110.46-18.75,18.12-4.79,36.17-9.91,54.33-14.59l3.4-.88c1.11-.32,2.37-.52,3.18-.96,3.61-2.17,6.36-6.64,6.98-10.82,11.8-85.85,22.22-172.1,31.04-258.28,0,0,.88.87.88.87-2.7.54-7.87-.02-8.74,3.11-.49,3.11-.06,7.32.1,10.53.21,7.7-1.19,15.15-1.64,22.67l-1-.38c-44.96-16.97-43.89,23.61-62.35,21.31-3.68-.8-6.51-3.17-9.13-5.43l1.11-.06c-17.16,18.47-38.03,33.16-60.25,44.9-33.65,17.96-83.61,29.61-90.68-21.85-1.96-10.65-.33-26.75-.1-37.66,0,0,1.47-37.59,1.47-37.59l.73-18.8c.19-2.97-.14-6.76,1.11-9.52,1.24-3.03,3.14-5.58,4.42-8.33l.13.81-.4-.44,1.24-.75c5.91,16.88,5.56,35.07,4.22,52.63-1.8,21.9-4.18,44.07,1.54,65.49,2.02,8.42,8.11,15.79,16.88,17.39,22.06,3.35,42.55-8.67,63.88-13.18,0,0-.18,1.33-.18,1.33-3.09-1.63-6.2-3.22-9.2-5.1-3.05-1.74-6.53-4.97-5.52-8.91,1.82-6.98,5.92-12.65,8.53-19.25,5.57-12.74,9.96-26,15.12-38.98l.78.95-18.12,3.37-.6.11-.19-.58-.92-2.73-.2-.59.56-.27,31.86-15.29,1.32-.64-.35,1.43-7.85,32.13-1.07-.72c10.87-7.75,24.71-15.12,26.45-29.73.22-4.79,2.22-10.08,5.34-13.99,8.88-11.38,26.49-16.68,31.16-30.46,3.87-113.04,30.68-227.67,4.1-339.7,38.48,49.83,21.85,214.31,14.57,278.54-3.99,31.42-8.4,62.86-16.16,93.62,0,0-.67-1.68-.67-1.68l-3.62-9.15.87.27-18.79,12.59.07-.91c16.39,14.04,16.47,34.87,10.19,54,0,0-1.03-.47-1.03-.47,2.7-4.25,5.79-8.3,9.4-11.84,10.79-11.1,26.73-14.66,41.61-15.59,0,0-.51.69-.51.69-3.45-13.24-6.39-28.13-16.39-38.08-.84-.79-1.79-1.45-2.69-2.32-3.03-2.84-.5-7.37.37-10.54,6.59-17.67,13.59-35.1,20.02-52.82,8.52-34.48,3.15-70.91,4.73-106.24,7.73-52.48-6.14-104.6-11.99-156.56-2.03-18.07-3.03-36.32-1.91-54.52l.85,1.78c16.06,33.21,24.21,70.44,21.51,107.34,0,0-.51-.49-.51-.49l5.95-.63c-4.47-74.58-18.22-154.46-27.66-230.59-42.36,14.6-72.6,38.54-96.84,78.42-22.58,36.28-36.67,77.75-56.2,115.22,0,0-3.63-1.02-3.63-1.02l-.24-.07.05-.25,3.48-18.82.32.31c-11.9,2.76-23.62,6.36-35.5,9.31-31.09,8.01-90.33,20.29-84.84-30.3,0,0,.07-.86.07-.86,2.05,5.04,4.58,9.92,7.97,14.17,17.53,22.35,48.85,13.31,72.27,7.43,9.99-2.53,20.11-5.26,30.38-6.23,9.4-.95,16.53-8.2,18.91-17.1,0,0,1.4-3.64,1.4-3.64,18.77-47.76,41.63-97.78,84.36-128.66,16.89-11.88,37.71-19.59,58.07-20.41,0-.03-5.59-16.22-5.5-16.23,0,0,13.11-11.31,13.11-11.31,4.11-2.53,8.81-4.05,12.65-7,.5-.43,1.07-.97,1.04-1.66.43-9.47-3.69-19.15-12.06-24.07-8-5.05-17.66-7.04-26.58-9.35,0,0-15.18,29.8-15.18,29.8v-.02s40.5,12.6,40.5,12.6h0ZM469.87,282.97s-40.57-12.55-40.53-12.6c0,0,15.16-29.81,15.16-29.81,4.56,1.06,9.22,2.22,13.73,3.62,8.87,2.71,18.27,7.21,22.39,16.03,2.07,4.26,2.73,9.12,2.68,13.79.02.76-.57,1.3-1.07,1.74-3.82,2.93-8.58,4.52-12.65,7,0-.03-13.22,11.51-13.08,11.25,0,0,5.53,16.16,5.53,16.16-20.53,1.37-41.14,8.52-58.09,20.61-42.67,30.89-65.47,80.9-84.19,128.62-1.86,4.85-3.33,10.03-6.84,13.97-3.44,4.04-8.58,6.2-13.71,6.99-20.61,2.13-40.09,10.27-60.7,12.6-22.92,3.23-41.42-5.05-50.02-27.34,0,0,.4-.06.4-.06-3.52,32.73,20.92,39.72,48.3,36.63,24.56-2.45,47.99-10.58,71.89-16.29,0,0-.07.4-.07.4l-3.46,18.82-.2-.31,3.63,1.02c17.75-36.9,33.55-78.92,55.5-115.03,21.81-36.83,56.15-66.5,97.66-78.48,5.63,37.2,10.59,77.42,16.3,115.62,5.33,38.57,9.87,77.31,11.62,116.25l-.43.05-5.95.63-.55.06.04-.55c1.24-18.33,0-36.83-3.71-54.82-3.7-18-9.85-35.46-17.78-52.03l.96-.19c-2.87,52.77,12.32,104.21,15.7,156.6,1.15,17.41.87,35.39-1.62,52.5-1.58,35.44,3.87,71.58-4.75,106.51-37.06,100.73-19.07,27.87-1.27,103.19,0,0,.15.64.15.64l-.66.05c-24,1.33-40.29,9.1-52.32,30.42,0,0,1.17-3.97,1.17-3.97,6.12-18.85,6.2-39.01-9.89-52.81,0,0-.54-.5-.54-.5l.61-.41,18.79-12.59.6-.4.27.67,3.62,9.15-1.11.07c7.44-30.12,11.77-60.96,15.66-91.72,8.3-76.79,15.59-155.29,3.3-232-2.96-15.09-6.85-30.55-15.87-43.08l1.12-.53c25.48,111.22-.88,224.92-4.69,336.96-1.45,4.99-4.89,9.16-8.65,12.51-7.34,6.6-16.65,10.95-22.78,18.74-3.02,3.82-4.77,8.5-5.07,13.36-1.82,15.64-17.12,23.43-28.52,31.74,0,0,.44-1.82.44-1.82l7.85-32.13.97.79-31.85,15.3.36-.85.92,2.73-.79-.46,18.12-3.38,1.25-.23-.47,1.18c-6.44,16.15-11.65,32.96-19.63,48.52-1.48,3.11-3.29,6.23-3.92,9.44-.81,3.48,2.19,5.82,4.89,7.47,2.91,1.82,6.02,3.41,9.09,5.04l1.7.9-1.88.43c-24.66,4.64-71.62,32.01-82.46-5.21-10.89-38.78,7.28-79.77-5.76-118.01,0,0-1.18-3.37-1.18-3.37l2.43,2.63.4.43.34.37-.21.45c-1.98,4.34-5.3,7.73-5.21,12.61-.2,4.19-.72,19.25-.91,23.48,0,0-1.45,37.57-1.45,37.57-.19,10.45-1.88,27.07.09,37.4,9.53,65.89,87.87,25.49,120.24.88,10.26-7.56,20.05-15.85,28.55-25.3,2.67,2.33,5.61,4.87,8.99,5.57,3.15.8,6.22-.87,8.56-3.22,6.93-7.21,13-17.07,23.22-20.44,10.05-3.62,21.17-1.26,30.81,2.39,0,0-1.07.68-1.07.68.77-8.97,2.17-17.91,1.26-26.81-1.06-9.81,3.66-9.05,11.32-10-7.65,74.96-16.45,149.79-26.37,224.48l-3.76,27.88-.95,6.97c-.97,5.98-5.16,12.15-11.39,13.17,0,0-3.4.88-3.4.88-18.15,4.68-36.19,9.8-54.32,14.6-36.24,9.66-73.2,17.89-110.85,18.84,0,0,.09-1.7.09-1.7,14.99,1.9,30.18,2.06,45.25.83,45.51-3.73,88.65-19.43,132.57-31.03,0,0,1-.26,1-.26l.1,1.03,3.51,37.2-1.74-.1c28.93-140.48,31.87-284.38,45.73-426.76,3.47-35.55,5.51-71.47,1.16-106.96-2.17-17.73-6.72-35.26-7.44-53.2-2.72-35.72,3.46-71.63-.13-107.28-4.76-53.62-22.02-104.85-34.37-157.04l-.22-.92.91-.27c8.96-2.84,19.57-5.24,24.62-13.81,3.37-6.31,3.75-14.09,4-21.22.69-7.1-1.91-14.54-8.55-18.03-10.66-6.12-24.97-5.17-34.27-14.05-2.27-2.22-4.74-4.82-5.35-8.19,0,0-.3-1.85-.3-1.85-.21-1.19-.34-2.41-.68-3.57-1.59-6.98-5.13-13.79-10.84-18.16-5.62-4.48-13.46-5.5-20.28-3.59,0,0-1.74.45-1.74.45l-1.68.64c-10.62,5.25-22.6,6.33-32.64-.84-8.49-5.61-14.97-13.3-22.54-19.5-1.6-.83-3.47-3.55-4.23-5.47-2.31-6.46-.64-13.47.81-19.84,2.14-8.49,5.04-16.69,7.57-24.96,4.67-16.04,10.36-34.09,3.27-50.08,0,0,.97.57.97.57l-5.42.37.72-.38c-18.85,24.04-18.44,55.81-21.72,84.83-22.64-18.74-40.55-48.21-71.38-52.45-52.28-1.65-103.33,20.82-140.01,57.62-3.61,3.42-5.82,8.21-7.34,13.06-2.07,7.19-3.47,15.23-1.9,22.63,4.94,18.35,35.68-4.98,45.75-9.42,0,0,5.84-3.03,5.84-3.03-18.36,17.68-37.43,34.86-52.97,55.04-37.43,16.56-61.24-22.21-54.81-55.98,1.05-15.11,9.86-26.58,26.21-28.37,0,0-.65,1.39-.65,1.39-8.78-14.87-21-10.13-28.17,4.46-5.84,11.73-7.92,25.26-6.89,38.33,1.86,27.79,20.88,49.29,47.71,55.79,0,0,.83.22.83.22-1.94,9.39-5.54,18.21-8.93,27.01-6.83,19.26-20.26,45.69-7.14,64.69,5.53,7.45,14.56,10.25,22.89,13.59,29.64,11.87,62.91,21.65,94.46,11.7-24,97.15-59.94,191.06-80.09,289.16-4.23,32.34-10.96,65.05-19.66,96.72-34.53,108.71-40.12,223.61-49.52,336.19-.73,14.41-1.37,30.34,6.86,42.78,0,0-1.11-.15-1.11-.15l9.39-7.57.32-.26.39.12,44.49,13.63.54.17v.56c.16,22.98-.85,85.54.25,108.37.07,5.94,1,12.2-1.26,18.19-2.13,6.13-8.94,8.98-14.83,10.09-23.57,4.93-47.07,10.37-69.63,18.7-22.5,8.29-44.12,19.68-62.02,35.72l.16-.87,2.96,5.77c50.57-7.04,112.51-22.59,160.23-41-.03-.84-5.74-153.09-5.77-153.86,83.23,15.06,167.96,5.59,251.95,5.99,0,0,.73,0,.73,0l-.09.74c-1.3,10.34-1.02,20.93-1.06,31.42-.02,17.2.63,45.85-.89,63.16-.68,7.89-1.44,15.89-4.1,23.43-1,2.46-2.18,5.06-4.56,6.75-18.76,9.97-38.51,17.22-57.95,25.27-19.42,7.99-38.74,16.6-56.02,28.55l.2-.79,2.83,5.55-.73-.31c18.05-5.46,36.43-9.55,54.63-14.28,18.18-4.72,36.26-10.12,53.32-17.98l-.33.68-.86-3.6.64.46-27.21,2.47-2.78.25,2.43-1.36c12.42-6.83,23.96-15.61,37.38-20.59,4.34-1.55,8.66-3.98,10.6-8.18,2-4.14,1.99-8.99,2.2-13.68,1.58-32.62,3.16-66.92,4.87-99.44,3.93-19.31,37.14-11.02,51.16-17.16,0,0,.02,1.05.02,1.05-4.07-1.54-8.46-2.07-12.83-2.08-12.9.16-27.97,4.02-38.68-5.49,0,0,.6.08.6.08-5.72,2.58-10.77,7.5-17.44,7.59,0,0-18.99.34-18.99.34l-37.99.72c-37.98.33-76.09,1.54-113.98-1.68-37.77-3.93-74.86-13.73-112.85-15.28-9.86-2.05-24.94-3.27-25.89-15.98-.63-18.01,2.11-35.99,3.05-53.97,6.96-86.24,17.91-172.24,34.89-257.1-.01.25,75.94,11.01,76.06,11.21,0,0,.43.06.43.06l-.12.42c-5.38,20.22-13.72,42.74-15.44,63.61-.52,7.32,1.91,14.34,5.07,20.86,0,0-.65.05-.65.05,7.57-25.53,11.57-52.02,19.62-77.43,1.64-6.35,5.09-12.44,6.23-18.83.12-2.18-1.6-3.84-3.22-5.26l.38.02c-5.25,3.51-11.67,4.15-17.73,4.22-12.26-.05-24.31-2.54-36.35-4.55-16.79-3.84-33.21,2.4-24.99-22.75,6.87-23.65,14.16-49.67,18.89-73.61,12.02-109.78,50.32-214.05,81.72-319.26,1.73-6.42,4.51-13.18,10.38-16.86,7.55-4.85,15.04-9.82,22.09-15.39,14.17-10.96,26.5-24.73,33.58-41.33,2.02.6,4.24,1.53,6.39,2.1,7.32,2.54,10.91-6.33,14.74-10.86,2.84,1.03,6.01,2.44,9.13,1.45,7.03-2.54,5.59-12.94,12-16.15,22.23,8.51,46.74,16.72,70.55,10.07,7.78-2.12,15.12-5.72,21.76-10.28,4.41-2.54,9.32-4.14,14.31-5.01,15.14-2.58,30.4.68,45.57,1.17h0Z"/>
          <path d="M174.62,372.39c29.31-2.91,65.89-26.34,78.88-52.72,5.89-25.32,15.83-49.45,22.19-74.63,4.61-18.6,9.21-38.25,5.11-57.29-1.52-6.2-4.54-12.05-9.22-16.32-3.71-4.03-7.48-8.04-11.75-11.35-11.62-10.24-25.49-3.89-36.45,3.91-38.68,25.53-75.47,55.74-101.69,94.37-12.18,18.13-21.08,38.75-23.9,60.5,1.51,7.8,4.9,16.4,9.74,23.21,14.77,21.52,41.85,30.46,67.07,30.32h0ZM174.62,372.39c-25.31.31-52.53-8.51-67.49-30.03-4.94-7.02-8.4-15.12-10-23.57,2.68-21.91,11.51-42.73,23.64-61.04,27.76-41.12,66.94-73.49,108.56-99.84,10.22-6.04,22.09-7.62,31.59.77,4.4,3.46,8.17,7.53,11.87,11.6,4.63,4.25,8.08,10.79,9.51,17.11,4.05,19.36-.71,39.22-5.49,57.95-6.53,25.14-16.63,49.24-22.68,74.46-13.16,26.62-50.23,49.87-79.51,52.59h0Z"/>
          <path d="M378.19,210.68c-33.57-27.35-58.84-64.49-95.63-87.97-5.16-3.15-11.27-5.78-16.92-6.68-14.71-.34-29.42,1.91-43.72,5.36-28.26,7.18-56.66,19-77.61,39.77-10.2,10.31-17.88,23.74-18.61,38.43,0,0-1.39-.98-1.39-.98,13.8-5.74,26.77-13.4,41.21-17.68,15.85-2.96,27.73-7.83,35.3-23.05,0,0,.58,1.24.58,1.24-.93-.2-11.64-2.46-12.41-2.62,45.71-33.43,97.07,1.28,141.45,18.82,23.2,10.72,24.64,39.56,38.94,57.9,0,0-.25.04-.25.04l9.06-22.58h0ZM378.19,210.68l-8.79,22.69-.09.23-.16-.19c-14.45-18.01-16.21-46.57-39.17-57.12-42.98-16.69-94.06-50.86-138.44-19.5,0,0-.3-1.51-.3-1.51.65.14,11.39,2.35,11.61,2.4-3.53,7.07-8.54,13.73-15.49,17.89-6.45,4.18-14.04,5.34-21.33,7.19-14.23,4.26-27.18,12.08-40.95,17.7,0,0-1.48.62-1.48.62.27-8.07,2.42-16.05,6.11-23.2,22.46-41.96,90.78-63.77,135.96-63.14,37.08,7.42,81.27,71.5,112.51,95.93h0Z"/>
          <path d="M406.27,274.43c-25.39-11.58-53.87-27.4-61.08-56.58-2.62-9.02-6.77-17.82-13.47-24.4-6.64-6.63-15.29-10.98-24.07-14.29-2.18-.76-4.48-1.43-6.61-1.31-7.17.63-5.39,11.84-6.22,17.29-1.36,18.85-6.11,37.93-1.69,56.61l-1.31-.62,10.41-4.91.9-.43.34.93,6.88,18.76-1.29-.43c13.44-8.83,18.63,6.85,27.44,13.24,20.08,18.69,50.22,12.51,69.77-3.86h0ZM406.27,274.43c-19.73,17.11-49.73,23.8-70.68,4.89-8.91-6.07-13.55-21.58-26.51-12.25,0,0-.37-.99-.37-.99l-6.95-18.73,1.25.51-10.39,4.95-1.04.49c-4.98-19.25-.28-39.04,1.26-58.32.8-6.17-.84-18.23,8.09-19.03,2.66-.12,5.05.65,7.34,1.44,8.97,3.44,17.78,7.88,24.69,14.82,6.99,6.88,11.09,16.03,13.66,25.26,6.86,28.85,34.81,44.9,59.65,56.96h0Z"/>
          <path d="M373.45,242.28c21.98,15.2,50.52,38.57,56.1-4.31,0,0,.56,1.06.56,1.06-12.71-6.25-24.58-14.99-38.6-17.81-11.61-1.65-5.59,12.83-3.21,18.7,0,0,.19.46.19.46-4.91.65-9.85,1.18-15.04,1.9h0ZM373.45,242.28l14.45-2.58-.28.52c-7.19-14.43-6.52-25.64,12.56-18.37,10.84,4.12,20.71,10.2,30.81,15.36l.68.35-.12.71c-6.42,44.32-35.8,21.97-58.1,4.01h0Z"/>
          <path d="M401.67,211.97c9.46,4.06,23.2,9.79,32.34,14.05,0,0-1.02.14-1.02.14l3.98-3.53-.3,1.03c-5.43-18.23-19.74-24.37-35-11.7h0ZM401.67,211.97c14.92-15.32,31.99-7.45,37.08,11.75-.66.57-4.32,3.7-4.99,4.27-9.65-4.47-22.53-11.18-32.09-16.03h0Z"/>
        </g>
      </g>
      <g>
        <path d="M410.3,385.19c-35.83,44.77-65.33,92.49-72.15,151.23-1.45-.27-2.91-.53-4.36-.8-2.62-71.21,51.18-128.83,89.34-184.3,8.79-12.24,20.07-21.39,39.36-24.07-36.88,29.44-44.69,71.28-59.06,109.17-37.24,89.88-32.05,157.88,19.67,240.75-81.55-66.87-59.77-199.14-12.79-291.97Z"/>
        <path d="M410.3,385.19c-35.2,44.23-65.49,95.25-71.19,152.52-1.44-.24-4.19-.76-5.53-.99,0,0-.88-.16-.88-.16l-.03-.9c-.87-21.57,3.6-43.11,11.51-63.12,17.96-45.14,49.98-82.29,77.21-121.83,3.16-4.45,6.72-8.67,10.92-12.27,8.29-7.34,19.05-11.52,29.92-13,0,0,6.16-.88,6.16-.88-3.38,2.91-8.06,6.94-11.38,9.84-2.03,2.04-4.21,4.14-6.15,6.21,0,0-3.82,4.4-3.82,4.4l-.96,1.1c-.51.68-2.11,2.76-2.65,3.49-17.96,23.64-25.75,52.77-35.53,80.37-2.62,7.56-5.8,14.76-8.5,22.14-4.1,11-7.71,22.31-10.64,33.68-9.41,35.99-10.53,74.32-.63,110.33,7.6,28.51,20.9,55.13,36.38,80.15,0,0,5.25,8.55,5.25,8.55l-7.73-6.37c-85.11-71.9-56.48-206.1-11.73-293.26h0ZM410.3,385.19c-32.92,67.96-55,153.89-30.02,227.59,8.58,24.51,23.61,46.77,43.86,63.09,0,0-2.47,2.18-2.47,2.18-2.06-3.39-4.2-6.73-6.17-10.17-3.95-6.66-7.94-14.02-11.43-20.88-33.71-66.39-34.18-127.12-8.41-196.26,2.69-7.47,5.93-14.73,8.49-22.1,7.98-22.35,14.59-45.45,26.39-66.24,1.56-2.76,4.5-7.54,6.36-10.18,1.86-2.9,4.21-5.68,6.26-8.45,2.04-2.36,3.22-3.67,4.95-5.66,2-2.2,4.3-4.27,6.37-6.4,2.36-2.11,4.65-3.97,6.84-5.89,0,0,1.39,3.24,1.39,3.24-5.16.72-10.23,2.01-15,3.98-16.18,6.63-23.02,19.44-32.72,32.81-36.35,50.71-82.02,103.74-80.11,169.73,0,0-.91-1.06-.91-1.06l4.36.82-1.29.95c6.48-57.04,37.4-107.6,73.24-151.1h0Z"/>
      </g>
    </g>
  </g>
  <circle class="cls-3" cx="256" cy="261.37" r="255.89"/>
</svg>